<svg width="681" height="681" viewBox="0 0 681 681" fill="none" xmlns="http://www.w3.org/2000/svg">
<g clip-path="url('#clip0_91_6350')">
<path opacity="0.25" d="M340.5 681C528.553 681 681 528.553 681 340.5C681 152.447 528.553 0 340.5 0C152.447 0 0 152.447 0 340.5C0 528.553 152.447 681 340.5 681Z" fill="url('#paint0_linear_91_6350')"></path>
<path d="M620.007 276.237C603.259 191.676 543.439 122.03 463.19 90.5732C281.149 19.2263 98.9178 74.148 64.0289 271.074C30.7679 458.703 184.857 391.99 318.825 537.353C435.487 663.93 668.652 549.628 621.165 282.381C620.799 280.313 620.417 278.26 620.007 276.237Z" fill="url('#paint1_linear_91_6350')"></path>
<path d="M130.624 461.196C187.086 483.986 226.096 468.441 271.808 525.107C317.534 581.774 303.353 594.093 216.431 566.962C97.2899 529.771 77.9756 439.946 130.624 461.196Z" fill="url('#paint2_linear_91_6350')"></path>
<mask id="mask0_91_6350" style="mask-type: luminance" maskUnits="userSpaceOnUse" x="59" y="60" width="569" height="529">
<path d="M620.007 276.237C603.259 191.676 543.439 122.03 463.19 90.5732C281.149 19.2263 98.9178 74.148 64.0289 271.074C30.7679 458.703 184.857 391.99 318.825 537.353C435.487 663.93 668.652 549.628 621.165 282.381C620.799 280.313 620.417 278.26 620.007 276.237Z" fill="white"></path>
</mask>
<g mask="url('#mask0_91_6350')">
<path d="M292.955 124.993H15.0466V481.273H292.955V124.993Z" fill="url('#paint3_linear_91_6350')"></path>
<mask id="mask1_91_6350" style="mask-type: luminance" maskUnits="userSpaceOnUse" x="14" y="121" width="279" height="359">
<path d="M14.7387 479.733L292.896 479.733L292.896 121.033L14.7387 121.033L14.7387 479.733Z" fill="white"></path>
</mask>
<g mask="url('#mask1_91_6350')">
<path d="M182.716 401.42C181.924 397.138 177.935 395.921 178.947 390.92C179.518 388.089 181.146 386.711 179.284 383.748C178.316 382.209 176.835 381.065 175.266 380.067C177.348 378.557 178.287 375.712 177.363 373.248C177.113 372.573 176.263 372.236 175.706 372.808C174.298 374.245 173.08 375.829 172.025 377.53C171.878 376.43 171.731 375.331 171.467 374.26C171.247 373.365 170.661 372.573 169.678 372.515C167.918 372.427 167.889 374.113 168.241 375.653C164.985 373.453 161.803 371.151 158.547 368.98C157.315 368.159 155.966 367.353 154.587 366.561C155.247 366.047 155.746 365.226 155.937 364.434C156.406 362.601 154.998 361.032 153.18 362.029C152.124 362.601 151.185 363.422 150.364 364.346C148.267 363.349 146.096 362.425 143.882 361.692C144.527 361.252 145.099 360.709 145.436 360.049C146.052 358.817 145.378 357.453 143.999 357.263C142.547 357.058 141.198 358.04 140.171 358.949C139.673 359.389 139.262 359.873 138.881 360.401C130.947 358.876 122.998 360.137 117.205 367.118C116.868 367.529 116.56 367.91 116.267 368.277C115.798 366.722 114.859 365.387 113.48 364.39C113.216 364.2 112.967 364.17 112.747 364.244C112.293 364.097 111.765 364.346 111.53 364.786C111.295 365.006 111.149 365.314 111.207 365.71C111.486 367.455 112.073 369.083 112.879 370.608C112.395 370.696 111.882 370.74 111.237 370.711C109.682 370.638 108.582 370.315 107.028 370.77C104.96 371.43 103.2 372.999 102.027 374.861C101.646 375.463 101.338 376.064 101.088 376.68C98.2725 383.866 104.3 390.319 109.858 393.941C110.151 394.146 110.459 394.117 110.694 394C118.335 398.604 126.723 405.072 135.654 406.304C137.356 406.538 139.13 406.084 140.758 406.304C141.33 406.362 145.876 407.712 146.375 408.166C146.844 408.577 147.211 409.838 147.577 410.41C149.22 412.947 151.566 414.634 154.382 415.675C163.196 418.916 180.853 416.877 182.76 405.966C183.024 404.603 182.994 403.092 182.701 401.42H182.716Z" fill="#D5DDFB"></path>
<path d="M182.466 405.571C182.261 405.336 181.806 405.189 181.513 405.307C174.62 408.137 160.82 414.956 155.79 406.509C154.983 405.116 155.189 404.265 153.663 403.371C152.71 402.799 151.317 402.814 150.305 402.286C147.46 400.76 145.979 397.915 145.803 394.806C145.759 394.205 145.187 393.618 144.556 393.853C141.594 394.88 138.221 396.229 135.068 396.053C130.536 395.818 125.741 393.061 126.371 387.811C126.445 387.18 125.682 386.696 125.125 386.858C114.947 389.849 105.004 384.365 102.027 374.832C101.646 375.433 101.338 376.035 101.088 376.651C98.2725 383.837 104.3 390.289 109.858 393.912C110.151 394.117 110.459 394.088 110.694 393.97C118.335 398.575 126.723 405.043 135.654 406.275C137.356 406.509 139.13 406.055 140.758 406.275C141.33 406.333 145.876 407.682 146.375 408.137C146.844 408.548 147.211 409.809 147.577 410.381C149.22 412.918 151.566 414.604 154.382 415.646C163.196 418.887 180.853 416.848 182.76 405.937C182.657 405.805 182.554 405.688 182.437 405.541L182.466 405.571Z" fill="#C8D3FB"></path>
<path d="M115.138 384.027C115.05 383.925 114.947 383.866 114.844 383.807C114.874 383.617 114.888 383.426 114.932 383.235C115.182 381.989 113.26 381.461 113.026 382.707C112.395 385.919 113.04 389.145 115.035 391.756C115.534 392.416 116.575 392.401 116.853 391.521C117.66 388.837 117.015 386.095 115.152 384.027H115.138Z" fill="#D5DDFB"></path>
<path d="M139.863 393.296C139.57 393.076 139.306 393.076 139.057 393.178C138.617 392.152 138.25 391.081 137.986 389.967C137.693 388.72 135.772 389.248 136.065 390.495C136.828 393.721 138.294 396.61 140.377 399.191C140.831 399.748 141.917 399.455 142.034 398.751C142.415 396.551 141.653 394.645 139.863 393.31V393.296Z" fill="#D5DDFB"></path>
<path d="M159.002 403.327C156.919 405.702 154.411 409.794 157.711 412.361C158.268 412.8 159.163 412.713 159.368 411.921C159.852 410.014 159.926 408.137 159.647 406.201C159.632 406.069 159.559 405.966 159.486 405.864C159.794 405.453 160.116 405.057 160.41 404.735C161.245 403.781 159.852 402.373 159.002 403.327Z" fill="#D5DDFB"></path>
<path d="M131.02 368.922C127.867 366.751 127.09 375.682 127.178 377.266C126.547 378.249 127.867 379.554 128.63 378.586C129.876 376.987 130.83 375.228 131.343 373.262C131.651 372.075 132.311 369.801 131.035 368.922H131.02Z" fill="#C8D3FB"></path>
<path d="M147.416 381.505C147.416 381.505 147.46 381.461 147.475 381.431C149.367 378.439 150.393 375.198 150.642 371.664C150.672 371.224 150.305 370.828 149.909 370.711C147.665 370.007 146.668 372.72 146.096 374.421C145.128 377.281 145.084 380.273 145.671 383.206C145.92 384.452 147.841 383.924 147.592 382.678C147.519 382.282 147.445 381.901 147.401 381.505H147.416Z" fill="#C8D3FB"></path>
<path d="M151.918 388.265C151.156 387.62 150.129 388.353 150.202 389.087C150.129 389.219 150.085 389.365 150.085 389.571C150.158 391.448 150.965 393.193 152.461 394.352C152.945 394.733 153.678 394.762 154.015 394.146C155.291 391.814 153.634 389.732 151.904 388.265H151.918Z" fill="#D5DDFB"></path>
<path d="M174.782 390.494C174.884 388.588 173.036 387.957 171.497 388.573C170.059 389.145 168.695 390.025 167.405 390.978C166.437 391.403 165.484 391.887 164.575 392.43C163.783 392.899 164.047 394.381 165.073 394.278C165.117 394.278 165.161 394.278 165.205 394.278C165.557 394.542 166.056 394.615 166.481 394.249C166.481 394.249 166.51 394.234 166.525 394.219C169.707 394.161 174.562 394.322 174.782 390.509V390.494Z" fill="#C8D3FB"></path>
<path d="M57.4881 369.42C55.787 365.666 51.3287 360.152 46.8558 360.43C46.3865 360.445 45.9025 360.533 45.4039 360.65C43.82 360.987 42.1335 361.735 40.5203 362.674C40.6817 362.131 40.843 361.589 41.0483 361.046C41.5323 359.858 39.6111 359.345 39.1271 360.518C38.6138 361.765 38.2619 363.041 38.0272 364.331C37.9539 364.39 37.8659 364.449 37.7779 364.507C37.5726 363.143 37.4113 361.413 36.502 360.474C35.7688 359.726 34.5222 359.726 33.8769 360.592C33.085 361.662 33.6423 363.099 34.0823 364.185C34.4636 365.094 34.8742 366.003 35.3288 366.883C34.8742 367.426 34.4636 367.968 34.1409 368.511C33.129 370.241 32.9384 371.943 32.1611 373.35C31.3985 372.558 30.6359 371.767 29.8733 370.975C29.1987 370.271 27.9375 370.989 28.2161 371.942C28.5974 373.204 29.1547 374.377 29.888 375.462C29.668 375.565 29.492 375.682 29.2427 375.785C27.2189 376.562 26.0603 376.503 24.5791 378.307C22.8926 380.346 21.4407 383.411 20.7221 386.52C20.1062 389.174 20.0329 391.873 20.7221 394.058C21.4114 396.214 22.8046 398.12 24.8724 399.103C25.723 399.499 26.5149 399.601 27.4535 399.792C29.58 399.792 31.5598 400.423 33.4077 401.655C33.7303 402.094 34.0969 402.461 34.5369 402.784C44.8613 406.215 45.5946 387.165 52.8979 383.631C53.3379 383.411 53.4552 383.03 53.3819 382.678C56.9602 379.011 59.8639 374.685 57.4881 369.405V369.42Z" fill="#D5DDFB"></path>
<path d="M57.4882 369.42C55.787 365.666 51.3287 360.152 46.8558 360.431C46.3865 360.445 45.9025 360.533 45.4039 360.651C45.4039 360.665 45.4186 360.695 45.4479 360.709C50.0088 366.209 50.4928 374.319 45.3746 379.73C43.5121 381.695 39.9777 382.634 39.2885 385.479C38.9952 386.667 39.3911 387.884 39.6111 389.028C40.403 393.34 35.8128 394.322 32.3664 394.835C28.8174 395.378 24.6231 394.982 22.5553 391.506C21.6607 389.996 21.3821 388.192 20.7515 386.52C20.1355 389.175 20.0622 391.873 20.7515 394.058C21.4407 396.214 22.8339 398.121 24.9018 399.103C25.7524 399.499 26.5443 399.602 27.4829 399.792C29.6093 399.792 31.5892 400.423 33.437 401.655C33.7596 402.095 34.1263 402.461 34.5662 402.784C44.8906 406.216 45.6239 387.165 52.9272 383.631C53.3672 383.411 53.4845 383.03 53.4112 382.678C56.9895 379.012 59.8933 374.685 57.5175 369.406L57.4882 369.42Z" fill="#C8D3FB"></path>
<path d="M199.361 294.759C199.903 294.495 200.431 294.231 200.827 293.762C203.188 290.975 200.285 288.834 198.173 287.353C195.533 285.49 192.893 283.628 190.254 281.765C187.922 278.906 185.575 276.193 183.478 273.743C186.338 268.464 187.145 263.448 186.514 258.799C188.567 255.69 189.08 251.907 187.907 248.358C186.954 245.454 182.686 246.393 182.818 249.032C181.645 247.17 180.237 245.395 178.653 243.723C180.134 242.462 181.19 239.969 181.542 238.635C181.674 238.136 181.381 237.52 180.853 237.417C179.416 237.109 178.36 237.872 177.451 238.943C177.363 239.045 177.289 239.148 177.201 239.251C176.981 239.471 176.791 239.72 176.615 239.969C176.336 240.306 176.057 240.644 175.779 240.981C169.517 235.467 161.421 231.302 153.795 228.955C153.429 228.838 153.077 228.721 152.71 228.604C153.927 226.536 154.309 224.131 153.751 221.711C153.576 220.948 152.622 220.802 152.094 221.271C150.745 222.488 149.836 223.999 149.308 225.656C148.839 223.911 148.193 222.195 147.255 220.567C146.976 220.098 146.639 219.79 146.258 219.599C145.671 218.704 145.026 217.854 144.307 217.018C143.852 216.49 143.104 216.739 142.752 217.223C141.682 218.66 141.198 220.288 141.227 221.931C141.169 222.385 141.11 222.84 141.051 223.295C137.722 221.168 134.672 218.543 131.24 214.95C129.876 213.557 128.439 212.281 126.929 211.093C128.982 209.7 126.635 204.992 125.946 203.438C125.623 202.705 124.597 202.881 124.23 203.438C123.218 204.934 122.749 206.518 122.632 208.145C120.681 206.987 118.613 206.004 116.458 205.212C106.778 201.605 96.3073 201.971 86.5402 204.816C86.7015 204.098 86.5695 203.35 85.9683 202.763C85.0443 201.839 84.0764 202.617 83.5778 203.496C83.0499 204.435 82.5366 205.374 82.0233 206.327C80.8354 206.781 79.6475 207.251 78.4889 207.764C74.3093 209.612 70.423 210.976 66.478 211.958C66.8887 210.844 67.1526 209.788 67.2406 209.289C67.4313 208.307 67.8126 206.752 66.7567 206.107C65.7594 205.491 64.4249 206.4 63.6329 207.016C61.6531 208.571 60.6999 210.829 60.1133 213.205C57.5028 213.586 54.7897 213.836 51.8713 213.938C48.9383 214.041 46.0199 214.378 43.1454 214.862C43.996 212.633 43.996 209.509 41.7376 208.248C39.1271 206.796 36.3701 210.008 34.7862 211.65C32.821 213.704 31.2079 216.05 29.8587 218.543C23.9632 220.846 18.405 223.999 13.4335 227.87C12.3482 228.736 11.3803 229.469 10.4124 230.217C7.81664 227.298 4.66358 225.157 0.806595 224.028C-2.18513 223.148 -3.53435 227.416 -1.0999 228.75C0.425293 230.847 2.1998 232.666 4.26762 234.147C0.894585 235.658 -2.78642 236.039 -8.19793 234.69C-27.2189 229.997 -39.4498 235.526 -47.7944 246.979C-47.897 246.407 -48.029 245.835 -48.249 245.234C-48.513 244.501 -49.6569 244.163 -50.0675 244.999C-50.5368 245.953 -50.8154 246.906 -50.9621 247.874C-51.534 247.141 -52.194 246.481 -52.9712 245.865C-53.0299 245.791 -53.1032 245.747 -53.1765 245.703C-53.2792 245.63 -53.3672 245.542 -53.4699 245.469C-53.7632 245.249 -54.1738 245.307 -54.4818 245.513C-56.1243 246.231 -56.9015 247.742 -57.1509 249.502C-58.5587 253.799 -57.8401 258.154 -55.6403 261.938C-56.0656 263.038 -56.4616 264.182 -56.8429 265.326C-58.7494 263.844 -60.9932 262.95 -63.457 262.671C-63.9702 262.612 -64.2635 262.906 -64.3662 263.272C-64.6008 263.566 -64.6888 263.976 -64.4542 264.358C-63.0023 266.66 -60.6265 268.171 -57.9868 268.508L-57.8988 268.567C-58.1481 269.359 -58.3974 270.121 -58.6321 270.928C-58.7347 270.986 -58.8374 270.986 -58.896 270.986C-68.6925 275.445 -72.7401 280.9 -71.1416 291.884C-70.2617 297.853 -69.7337 304.599 -67.05 309.879C-70.9069 313.648 -74.2946 317.593 -76.4944 322.095C-76.6118 322.007 -76.7291 321.919 -76.8464 321.831C-77.1544 320.687 -78.225 320.159 -79.3249 320.233C-81.5393 319.69 -83.2845 322.52 -81.9206 324.295C-81.9793 327.081 -81.5833 329.926 -80.2928 332.258C-81.95 332.097 -83.6218 331.936 -85.2937 331.774C-86.2322 331.686 -86.4962 332.889 -85.9976 333.475C-84.1204 335.69 -81.4807 336.922 -78.6063 337.01C-77.961 340.969 -76.5824 344.797 -74.5146 348.273C-70.731 354.813 -64.9235 360.254 -58.4854 363.627C-47.0758 369.64 -34.8302 367.572 -22.6433 365.343C-12.2602 363.481 -4.75157 356.104 -1.27589 346.572C6.55541 351.03 15.7946 347.862 19.6809 340.031C28.0841 341.893 36.2234 339.298 42.0895 332.669C46.5038 327.683 46.8558 323.078 48.9383 317.05C51.0061 311.14 49.3049 313.003 54.9511 312.328C57.9135 311.917 60.8172 312.02 63.7209 311.492C71.1856 310.187 76.4358 306.872 83.1672 304.027C87.0535 302.414 92.6117 298.631 97.2753 302.048C98.6245 303.03 99.8123 306.828 100.854 308.266C104.021 312.475 108.01 315.73 112.791 317.915C120.153 321.289 129.084 319.059 135.302 324.251C144.644 332.038 151.024 341.673 164.457 342.407C172.025 342.817 177.069 340.485 181.366 336.335C183.331 334.355 185.15 332.082 187.027 329.442C192.937 320.981 204.611 321.45 203.892 308.691C203.643 304.101 201.868 299.422 199.331 294.862L199.361 294.759Z" fill="#D5DDFB"></path>
<path d="M169.942 342.069C174.65 341.366 178.228 339.298 181.41 336.233C180.897 334.575 179.9 333.021 178.507 331.613C175.236 328.343 170.411 327.727 166.261 326.319C152.93 321.699 152.417 309.454 152.828 297.325C152.886 295.507 151.112 294.524 149.557 294.788C142.767 296.138 136.021 295.874 129.642 294.216C129.275 293.908 128.864 293.644 128.498 293.278C126.577 291.357 127.662 289.289 127.515 286.898V286.796C127.515 286.796 127.515 286.693 127.457 286.59V286.532C127.457 285.696 127.09 285.183 126.518 284.816C124.963 283.467 122.001 284.039 122.265 286.576C122.324 286.678 122.324 286.781 122.324 286.884C122.162 288.526 120.974 289.26 119.464 289.509C117.895 288.981 116.619 287.778 115.416 286.502C114.302 285.3 113.686 284.259 113.524 282.572C113.422 281.502 113.466 280.534 113.216 279.478C113.143 279.17 112.908 278.994 112.645 278.876C112.645 278.055 111.369 277.513 110.782 278.393C109.741 279.947 109.55 281.751 110.034 283.379C109.653 283.012 109.271 282.675 108.905 282.294C106.573 279.903 104.857 276.589 101.895 274.829C95.6621 271.045 89.136 270.62 84.0031 264.402C83.1232 263.317 81.2607 263.463 80.3808 264.402C76.9637 267.716 72.9601 271.456 68.5458 274.726C65.5834 274.726 62.841 273.949 61.3891 271.309C59.8346 268.508 55.8456 270.737 56.7696 273.436C56.6669 274.11 56.8282 274.844 57.5468 275.459C61.5944 278.832 54.2764 281.942 51.842 282.616C51.3727 282.719 51.0647 282.924 50.8008 283.188C44.6853 284.068 38.5552 282.616 33.0117 277.014C31.9265 275.973 30.3719 276.075 29.3307 277.014C22.3207 282.983 22.6873 291.225 17.7597 297.971C13.9174 301.036 -0.029335 296.988 1.56919 299.892C2.81574 302.018 4.57558 303.573 6.65807 304.555C4.79556 305.069 2.97707 305.641 1.26122 306.477C-6.20345 310.216 -9.16585 316.434 -19.2849 311.302C-20.6341 309.952 -21.8807 308.398 -22.702 306.535C-24.1098 303.529 -28.6121 306.169 -27.2189 309.175C-26.339 311.038 -25.1511 312.695 -23.8019 314.264C-23.0686 328.108 -23.4352 343.521 -37.8073 350.634C-49.8475 356.544 -62.8557 353.332 -74.4853 348.141C-70.7016 354.682 -64.8942 360.122 -58.4561 363.496C-49.9942 367.954 -41.0776 367.968 -32.0585 366.766C-32.3958 367.382 -32.7037 368.027 -32.9677 368.702C-33.305 369.596 -32.3224 370.11 -31.6332 369.816C-31.3545 370.007 -30.9879 370.095 -30.6066 369.919C-28.7001 369.039 -27.1749 367.602 -26.1337 365.827C-24.9604 365.622 -23.7872 365.417 -22.6286 365.197C-18.229 364.405 -14.3574 362.616 -11.087 360.108C-10.6764 361.017 -10.0164 361.662 -8.90187 361.501C-8.62323 361.457 -8.40324 361.354 -8.21259 361.208C-7.7433 361.178 -7.27401 360.87 -7.24468 360.269C-7.18602 359.037 -7.21535 357.82 -7.27402 356.603C-4.67825 353.699 -2.6251 350.238 -1.24656 346.44C6.58474 350.898 15.8239 347.73 19.7102 339.899C22.1007 340.427 24.4765 340.559 26.7789 340.383C26.8229 341.058 26.9402 341.732 27.2042 342.377C27.4095 342.876 27.8642 343.096 28.3041 343.037C28.6561 343.345 29.1547 343.419 29.536 342.949C30.3719 341.923 30.9585 340.764 31.3105 339.547C35.3435 338.344 39.0538 336.013 42.1189 332.537C46.5331 327.551 46.8851 322.946 48.9676 316.918C51.0354 311.008 49.3342 312.871 54.9804 312.196C57.9428 311.786 60.8465 311.888 63.7503 311.36C67.5192 310.7 70.7016 309.542 73.8107 308.178C74.9106 308.823 76.0691 309.351 77.3157 309.688C77.9463 309.864 78.5476 309.38 78.5769 308.735C78.6063 307.958 78.2103 307.327 77.565 306.902C77.477 306.843 77.301 306.77 77.0811 306.697C77.9903 306.271 78.9142 305.831 79.8528 305.391C79.9848 305.729 80.1461 306.051 80.3074 306.374C80.7474 307.195 81.8326 306.873 82.1259 306.139C82.3753 305.509 82.4926 304.849 82.5512 304.189C82.7712 304.101 82.9765 303.998 83.1965 303.896C87.0828 302.282 92.641 298.499 97.3046 301.916C98.6538 302.898 99.8417 306.697 100.883 308.134C103.699 311.874 107.204 314.821 111.295 316.962C112.249 318.884 113.422 320.702 114.8 322.403C115.24 322.946 116.355 322.682 116.458 321.963C116.604 320.907 116.545 319.91 116.34 318.972C119.083 319.661 121.942 319.91 124.729 320.277C124.597 321.817 125.125 323.371 126.313 324.5C126.826 324.984 127.808 324.823 127.97 324.06C128.204 322.975 128.234 321.905 128.102 320.849C130.712 321.406 133.191 322.315 135.332 324.104C144.556 331.804 150.921 341.307 164.047 342.216C166.026 343.492 168.182 344.401 170.543 344.841C171.409 345.003 172.347 343.873 171.511 343.184C170.998 342.759 170.47 342.392 169.927 342.025L169.942 342.069Z" fill="#C8D3FB"></path>
<path d="M95.9114 269.285C95.8087 269.08 95.618 268.963 95.3834 268.889C95.3834 268.889 95.3834 268.86 95.3834 268.845C95.7794 267.628 93.8729 267.1 93.4769 268.317C92.597 270.986 92.157 274.33 93.9315 276.515C93.9609 276.559 94.0049 276.603 94.0488 276.647C94.4595 277.117 94.9288 277.556 95.574 277.879C96.0873 278.143 96.9233 277.952 97.0259 277.293C97.4659 274.491 97.0992 271.866 95.8967 269.285H95.9114Z" fill="#D5DDFB"></path>
<path d="M73.7227 268.567C72.9894 268.2 71.9189 269.021 72.4175 269.96C73.3414 271.72 74.8813 272.966 76.7584 273.612C77.521 273.876 78.1223 273.084 77.9756 272.394C77.5503 270.297 75.7905 268.831 73.7227 268.581V268.567Z" fill="#D5DDFB"></path>
<path d="M61.9464 280.02C60.1573 277.615 58.0161 275.577 55.5083 273.934C54.4378 273.23 53.4405 274.946 54.5111 275.65C55.4203 276.251 56.2856 276.926 57.0922 277.645C56.9749 277.615 56.8575 277.557 56.7402 277.527C56.6962 277.527 56.6522 277.527 56.6082 277.527C56.0363 277.41 55.4057 277.703 55.479 278.437C55.4937 278.613 55.479 278.789 55.5083 278.965C55.215 278.95 54.9364 279.038 54.7457 279.243C54.7457 279.155 54.7457 279.067 54.7311 278.965C54.7017 277.821 53.1472 277.659 52.7806 278.701C51.5634 282.162 51.7247 286.136 55.0537 288.321C55.611 288.688 56.3296 288.321 56.5056 287.734C57.2095 285.535 57.5762 283.276 57.5908 281.003C58.7054 281.634 60.0546 281.824 61.3598 281.472C61.9171 281.311 62.3424 280.534 61.9464 280.02Z" fill="#D5DDFB"></path>
<path d="M138.661 294.246C138.514 293.513 137.634 292.97 137.062 293.703C135.288 295.991 133.425 299.291 135.977 301.769C136.549 302.326 137.37 302.018 137.634 301.329C138.368 299.379 138.881 297.384 139.189 295.316C139.262 294.818 138.998 294.436 138.646 294.246H138.661Z" fill="#D5DDFB"></path>
<path d="M154.587 308.28C154.441 308.046 154.177 307.884 153.81 307.928C152.49 308.046 151.2 308.574 150.54 309.791C149.938 310.92 150.158 312.255 150.994 313.179C151.361 313.575 152.036 313.545 152.402 313.179C153.444 312.123 154.353 310.949 155.101 309.674C155.453 309.072 155.101 308.5 154.602 308.295L154.587 308.28Z" fill="#D5DDFB"></path>
<path d="M165.029 322.946C164.794 322.579 164.443 322.462 164.091 322.506C163.739 320.893 163.46 319.279 163.269 317.637C163.123 316.376 161.143 316.361 161.289 317.637C161.612 320.482 162.081 323.356 162.947 326.084C163.475 327.712 164.149 328.973 165.777 329.663C166.334 329.897 167.112 329.296 167.038 328.709C166.789 326.612 166.158 324.75 165.029 322.96V322.946Z" fill="#D5DDFB"></path>
<path d="M65.9941 238.62C65.7887 237.183 65.0115 232.813 63.0903 232.549C61.1545 232.285 60.6999 235.628 60.5385 236.846C60.1866 239.632 60.8758 242.345 62.3424 244.721C62.3717 244.765 62.401 244.78 62.4304 244.824C62.4597 245.044 62.4744 245.264 62.5037 245.469C62.621 246.437 63.7649 246.818 64.3515 245.967C65.8621 243.782 66.3754 241.231 65.9941 238.605V238.62Z" fill="#C8D3FB"></path>
<path d="M85.8656 230.73C85.8656 230.055 85.235 229.645 84.6044 229.777C80.9381 230.569 77.9903 233.209 76.6704 236.684C76.5824 236.802 76.4798 236.904 76.3918 237.021C76.1865 237.315 76.2158 237.608 76.3331 237.857C76.4065 238.576 77.3304 238.899 77.9023 238.517C82.2726 238.62 85.7923 235.188 85.8363 230.745L85.8656 230.73Z" fill="#C8D3FB"></path>
<path d="M111.413 250.118C110.987 249.428 110.151 249.531 109.697 250.118C107.761 252.655 107.204 255.749 108.01 258.814C108.04 258.932 108.098 259.02 108.157 259.107C108.348 260.325 108.861 261.425 109.887 262.202C110.445 262.627 111.149 262.143 111.339 261.615C112.718 257.832 113.686 253.755 111.413 250.118Z" fill="#C8D3FB"></path>
<path d="M139.027 231.903C136.96 231.889 134.129 232.123 132.179 232.901C130.654 233.502 129.524 234.543 128.938 236.024C128.307 236.596 127.955 237.315 128.072 238.18C128.674 242.433 136.27 237.96 137.972 237.051C139.218 236.391 140.567 235.467 140.846 233.971C141.11 232.549 140.347 231.903 139.027 231.889V231.903Z" fill="#C8D3FB"></path>
<path d="M160.395 257.26C157.594 255.72 154.499 254.987 151.302 255.207C149.704 255.324 149.117 256.937 149.528 258.066C149.572 258.462 149.763 258.858 150.202 259.21C152.974 261.41 156.553 262.202 159.926 260.882C161.421 260.295 162.023 258.14 160.395 257.26Z" fill="#C8D3FB"></path>
<path d="M169.106 283.965C167.2 282.851 165.894 284.816 165.337 286.326C164.736 287.925 164.472 289.626 164.428 291.327C164.384 293.322 166.774 293.732 167.86 292.618C168.109 292.53 168.344 292.383 168.534 292.163C169.502 291.019 170.162 289.758 170.382 288.262C170.602 286.81 170.558 284.801 169.121 283.951L169.106 283.965Z" fill="#C8D3FB"></path>
<path d="M182.774 302.458C181.513 300.962 179.562 300.156 177.612 300.273C176.541 300.347 175.632 301.138 175.632 302.253C175.632 302.458 175.691 302.664 175.764 302.854C175.749 302.898 175.706 302.942 175.691 302.986C175.398 304.072 176.057 305.069 177.069 305.421C178.653 305.978 180.252 306.022 181.894 305.758C183.507 305.509 183.61 303.456 182.774 302.444V302.458Z" fill="#D5DDFB"></path>
<path d="M161.524 385.963C150.349 388.866 139.057 390.348 127.545 390.568C129.744 387.781 130.874 376.269 129.187 379.143C125.315 385.713 120.534 391.448 115.05 396.375C116.135 393.046 110.474 383.895 110.929 387.165C111.735 392.885 109.462 398.326 105.253 402.153C104.535 402.799 95.1928 407.316 89.9279 409.119C90.2799 405.878 90.3825 404.793 90.6612 401.523C92.157 384.262 89.9426 367.675 89.0627 350.487C88.0801 331.114 93.6676 310.202 95.1488 288.204C95.3688 284.889 81.8913 336.291 80.3221 357.292C79.3395 353.655 78.0636 350.077 76.4358 346.601C73.6054 340.559 69.9684 334.986 65.9207 329.721C66.0381 329.428 60.4066 301.402 60.6265 304.746C61.0372 311.052 61.1252 317.373 61.0225 323.694C56.5496 318.473 41.063 309.835 43.3801 312.24C55.9336 325.248 69.2351 338.946 74.7933 356.603C77.7263 365.945 78.5183 375.932 78.3276 385.933C66.83 385.699 57.2682 384.628 44.1574 377.398C53.6165 386.095 65.3635 390.832 78.1663 391.125C77.8437 397.666 77.1837 404.148 76.4945 410.425C72.9161 442.674 72.2562 496.862 72.4761 530.475C71.9482 531.795 72.3295 533.423 74.0893 533.804C79.2369 534.919 83.7685 535.373 89.092 535.212C90.6758 535.168 91.8197 533.657 91.5998 531.927C87.6108 501.276 85.5136 447.909 89.048 417.009C102.379 412.874 114.038 405.482 123.306 395.525C123.658 395.73 124.054 395.862 124.553 395.862C137.561 395.877 164.736 385.142 161.495 385.977L161.524 385.963Z" fill="#C8D3FB"></path>
<path d="M160.175 292.75C164.267 311.096 175.002 323.899 192.057 333.915C202.968 340.324 216.446 345.589 232.416 350.458C233.531 350.781 241.48 350.678 242.975 350.399C289.743 341.659 312.958 301.549 315.965 266.631C317.402 249.619 314.542 232.387 307.84 216.182C301.608 201.135 292.075 186.939 279.595 174.577C269.006 164.105 250.191 145.891 230.671 150.232C220.669 152.461 213.806 159.926 207.779 166.071C200.945 173.037 194.609 180.311 188.934 187.878C165.425 219.203 151.992 256.321 160.16 292.735L160.175 292.75Z" fill="#D5DDFB"></path>
<path d="M192.057 333.93C202.968 340.339 216.446 345.604 232.416 350.473C233.531 350.795 241.48 350.693 242.975 350.414C289.743 341.673 312.958 301.564 315.965 266.646C317.402 249.634 314.542 232.402 307.84 216.197C308.75 230.056 306.227 244.56 303.294 258.096C300.185 272.482 294.773 286.781 283.628 298.616C272.394 310.554 255.588 317.681 238.825 323.752C223.837 329.164 208.307 333.08 192.057 333.945V333.93Z" fill="#C8D3FB"></path>
<path d="M291.503 218.265C291.679 218.484 291.899 218.587 292.119 218.66C292.486 219.042 293.116 219.276 293.835 219.042C298.528 217.502 303.191 216.094 305.435 212.193C308.163 207.441 306.051 201.869 304.805 197.044C304.599 196.237 303.265 195.68 302.399 196.31C295.228 201.546 284.654 210.096 291.488 218.25L291.503 218.265Z" fill="#D5DDFB"></path>
<path d="M278.612 195.167C278.788 195.372 279.008 195.489 279.228 195.563C279.595 195.944 280.211 196.179 280.944 195.944C285.637 194.404 290.301 192.996 292.544 189.095C295.272 184.344 293.16 178.771 291.914 173.946C291.708 173.139 290.374 172.582 289.509 173.213C282.337 178.448 271.764 186.998 278.598 195.152L278.612 195.167Z" fill="#D5DDFB"></path>
<path d="M264.812 183.625C264.988 183.83 265.208 183.948 265.428 184.021C265.795 184.402 266.425 184.637 267.144 184.402C271.837 182.862 276.5 181.455 278.744 177.568C281.472 172.817 279.36 167.244 278.114 162.419C277.908 161.612 276.574 161.055 275.709 161.686C268.537 166.921 257.949 175.471 264.798 183.625H264.812Z" fill="#D5DDFB"></path>
<path d="M249.428 169.224C249.634 169.414 249.868 169.502 250.103 169.561C250.528 169.913 251.188 170.074 251.877 169.766C256.277 167.772 260.677 165.894 262.26 161.803C264.196 156.802 261.19 151.493 259.181 146.844C258.843 146.067 257.435 145.642 256.673 146.36C250.411 152.285 241.304 161.832 249.428 169.238V169.224Z" fill="#D5DDFB"></path>
<path d="M173.476 196.325C172.611 195.695 171.277 196.252 171.071 197.058C169.825 201.883 167.713 207.456 170.441 212.208C172.67 216.109 177.348 217.517 182.041 219.056C182.774 219.291 183.39 219.056 183.757 218.675C183.991 218.602 184.197 218.484 184.373 218.279C191.221 210.111 180.633 201.575 173.462 196.34L173.476 196.325Z" fill="#D5DDFB"></path>
<path d="M186.353 181.851C185.487 181.22 184.153 181.777 183.947 182.584C182.701 187.409 180.589 192.982 183.317 197.733C185.546 201.634 190.224 203.042 194.917 204.582C195.65 204.816 196.266 204.582 196.633 204.201C196.868 204.127 197.073 204.01 197.249 203.805C204.098 195.636 193.509 187.101 186.338 181.865L186.353 181.851Z" fill="#C8D3FB"></path>
<path d="M200.167 161.671C199.302 161.04 197.967 161.598 197.762 162.404C196.516 167.229 194.404 172.802 197.132 177.554C199.361 181.455 204.039 182.863 208.732 184.388C209.465 184.622 210.081 184.388 210.448 184.006C210.668 183.933 210.888 183.816 211.064 183.61C217.912 175.442 207.324 166.907 200.153 161.671H200.167Z" fill="#D5DDFB"></path>
<path d="M219.203 146.346C218.44 145.627 217.032 146.052 216.695 146.83C214.671 151.478 211.68 156.787 213.615 161.788C215.199 165.88 219.599 167.757 223.998 169.751C224.688 170.059 225.333 169.898 225.773 169.546C226.008 169.502 226.242 169.414 226.448 169.209C234.558 161.803 225.465 152.256 219.203 146.331V146.346Z" fill="#D5DDFB"></path>
<path d="M234.631 157.917C234.88 158.078 235.13 158.122 235.379 158.137C235.877 158.415 236.567 158.489 237.168 158.078C241.025 155.468 244.911 152.974 245.513 148.721C246.246 143.53 242.052 138.749 238.986 134.467C238.473 133.748 236.992 133.543 236.405 134.364C231.639 141.11 224.922 151.816 234.631 157.902V157.917Z" fill="#D5DDFB"></path>
<path d="M275.225 297.457C275.181 297.707 275.225 297.912 275.342 298.088C275.283 298.572 275.547 299.071 276.28 299.291C281.047 300.669 285.696 302.136 290.667 300.464C296.739 298.425 299.95 293.19 303.147 288.966C303.69 288.262 303.177 287.133 302.003 287.133C292.236 287.133 277.16 287.778 275.21 297.457H275.225Z" fill="#C8D3FB"></path>
<path d="M254.708 305.333C254.517 305.538 254.458 305.743 254.458 305.934C254.121 306.345 254.077 306.887 254.605 307.342C258.066 310.275 261.38 313.252 266.763 313.545C273.347 313.897 279.199 310.378 284.464 307.767C285.344 307.327 285.534 306.154 284.493 305.729C275.782 302.238 261.967 297.399 254.708 305.333Z" fill="#D5DDFB"></path>
<path d="M232.255 318.18C232.064 318.385 232.006 318.59 232.006 318.781C231.683 319.192 231.624 319.734 232.152 320.189C235.613 323.122 238.928 326.099 244.31 326.392C250.895 326.744 256.746 323.224 262.011 320.614C262.906 320.174 263.082 318.986 262.04 318.576C253.329 315.085 239.514 310.246 232.255 318.18Z" fill="#D5DDFB"></path>
<path d="M285.476 277.571C285.49 277.821 285.608 278.011 285.754 278.158C285.828 278.642 286.209 279.096 287.001 279.184C292.031 279.742 296.959 280.387 301.373 277.938C306.77 274.931 308.515 269.285 310.524 264.622C310.861 263.844 310.069 262.833 308.926 263.023C299.378 264.666 284.801 267.789 285.476 277.571Z" fill="#C8D3FB"></path>
<path d="M253.681 339.43C253.491 339.562 253.403 339.694 253.344 339.84C253.007 340.104 252.831 340.5 253.124 340.911C255.016 343.624 256.79 346.322 260.75 347.334C265.589 348.566 270.796 346.806 275.342 345.633C276.104 345.428 276.53 344.577 275.84 344.108C270.15 340.222 260.984 334.561 253.681 339.415V339.43Z" fill="#D5DDFB"></path>
<path d="M160.043 221.403C159.016 220.948 157.887 221.726 157.916 222.547C158.092 227.46 157.652 233.267 161.671 237.403C164.97 240.791 169.927 241.319 174.928 241.964C175.706 242.067 176.248 241.729 176.497 241.275C176.703 241.157 176.879 241.011 176.996 240.776C181.308 231.581 168.549 225.187 160.043 221.374V221.403Z" fill="#C8D3FB"></path>
<path d="M142.386 241.993C141.213 241.993 140.699 243.108 141.242 243.826C144.439 248.05 147.651 253.271 153.722 255.324C158.694 256.996 163.343 255.529 168.109 254.151C168.857 253.931 169.106 253.432 169.047 252.948C169.15 252.772 169.223 252.567 169.165 252.318C167.229 242.638 152.138 242.008 142.371 241.993H142.386Z" fill="#C8D3FB"></path>
<path d="M148.399 304.937C147.24 305.113 147.02 306.301 147.724 306.902C151.904 310.539 156.333 315.188 162.8 316.258C168.094 317.138 172.288 314.982 176.629 312.9C177.304 312.577 177.436 312.049 177.26 311.58C177.319 311.389 177.333 311.184 177.216 310.949C172.934 301.754 157.975 303.456 148.399 304.951V304.937Z" fill="#D5DDFB"></path>
<path d="M172.67 324.398C171.511 324.574 171.291 325.762 171.995 326.363C176.175 330 180.604 334.649 187.056 335.719C192.351 336.599 196.545 334.443 200.886 332.361C201.56 332.038 201.692 331.496 201.517 331.041C201.575 330.85 201.59 330.645 201.473 330.41C197.19 321.215 182.232 322.916 172.655 324.412L172.67 324.398Z" fill="#D5DDFB"></path>
<path d="M190.62 337.494C189.462 337.67 189.242 338.843 189.946 339.459C194.125 343.111 198.554 347.745 205.022 348.815C210.316 349.695 214.51 347.54 218.851 345.457C219.526 345.134 219.658 344.607 219.482 344.137C219.54 343.947 219.555 343.741 219.438 343.507C215.155 334.311 200.197 336.013 190.62 337.509V337.494Z" fill="#C8D3FB"></path>
<path d="M212.853 349.959C212.281 350.326 212.589 351.045 213.219 351.221C216.915 352.277 221.139 353.816 225.157 352.892C228.442 352.13 229.982 349.945 231.61 347.76C231.859 347.422 231.742 347.085 231.463 346.865C231.419 346.748 231.36 346.63 231.199 346.513C225.348 342.377 217.634 346.865 212.853 349.945V349.959Z" fill="#D5DDFB"></path>
<path d="M256.805 349.959C257.289 350.326 257.025 351.045 256.497 351.221C253.358 352.277 249.78 353.816 246.378 352.892C243.591 352.13 242.286 349.945 240.893 347.76C240.673 347.422 240.79 347.085 241.025 346.865C241.054 346.748 241.113 346.63 241.245 346.513C246.202 342.377 252.743 346.865 256.805 349.945V349.959Z" fill="#D5DDFB"></path>
<path d="M151.889 263.654C150.745 263.419 149.895 264.402 150.188 265.194C151.918 269.916 153.326 275.635 158.532 278.832C162.8 281.457 167.772 280.988 172.816 280.622C173.608 280.563 174.019 280.138 174.122 279.654C174.283 279.507 174.4 279.331 174.444 279.067C175.706 269.315 161.319 265.648 151.889 263.654Z" fill="#C8D3FB"></path>
<path d="M151.889 279.742C150.745 279.507 149.895 280.475 150.188 281.282C151.918 286.004 153.326 291.723 158.532 294.92C162.8 297.546 167.772 297.076 172.816 296.71C173.608 296.651 174.019 296.211 174.122 295.742C174.283 295.595 174.4 295.419 174.444 295.155C175.706 285.403 161.319 281.736 151.889 279.742Z" fill="#D5DDFB"></path>
<path d="M265.091 327.785C264.9 327.991 264.841 328.196 264.841 328.387C264.504 328.797 264.446 329.34 264.988 329.794C268.42 332.742 271.705 335.734 277.102 336.057C283.686 336.453 289.567 332.962 294.847 330.366C295.741 329.926 295.932 328.753 294.891 328.328C286.209 324.794 272.438 319.881 265.105 327.785H265.091Z" fill="#D5DDFB"></path>
<path d="M277.395 319.998C277.263 320.233 277.248 320.438 277.292 320.629C277.058 321.083 277.131 321.626 277.762 321.992C281.839 324.383 285.769 326.832 291.151 326.333C297.707 325.732 302.649 321.435 307.239 318.106C308.016 317.549 307.928 316.361 306.799 316.097C297.428 313.926 282.733 311.155 277.41 319.998H277.395Z" fill="#D5DDFB"></path>
<path d="M219.672 176.644C219.848 176.732 220.01 176.747 220.156 176.747C220.493 176.894 220.933 176.894 221.271 176.615C223.441 174.767 225.656 172.978 225.641 170.28C225.626 166.98 222.561 164.237 220.259 161.73C219.863 161.304 218.924 161.26 218.631 161.818C216.255 166.305 213.029 173.403 219.672 176.659V176.644Z" fill="#D5DDFB"></path>
<path d="M183.566 251.511C183.757 251.555 183.918 251.54 184.065 251.511C184.446 251.584 184.857 251.496 185.091 251.144C186.558 248.9 188.083 246.715 187.159 244.12C186.03 240.952 182.144 238.943 179.079 237.021C178.565 236.699 177.641 236.86 177.539 237.447C176.776 242.286 176.072 249.795 183.566 251.525V251.511Z" fill="#D5DDFB"></path>
<path d="M218.69 266.455C218.851 266.558 218.998 266.602 219.159 266.602C219.467 266.778 219.892 266.836 220.288 266.602C222.781 265.018 225.274 263.493 225.758 260.823C226.33 257.568 223.793 254.488 221.96 251.76C221.652 251.306 220.713 251.159 220.347 251.658C217.194 255.837 212.736 262.495 218.719 266.47L218.69 266.455Z" fill="#C8D3FB"></path>
<path d="M260.603 230.437C260.72 230.671 260.896 230.818 261.087 230.935C261.336 231.375 261.879 231.713 262.656 231.625C267.657 230.979 272.614 230.451 275.914 227.064C279.947 222.928 279.492 217.121 279.668 212.208C279.697 211.386 278.568 210.595 277.542 211.064C269.05 214.862 256.292 221.271 260.589 230.466L260.603 230.437Z" fill="#D5DDFB"></path>
<path d="M221.227 221.931C221.564 222.004 221.857 221.99 222.136 221.946C222.796 222.063 223.588 221.96 224.13 221.462C227.592 218.206 231.126 215.038 230.363 211.123C229.439 206.342 223.089 203.13 218.176 200.08C217.355 199.566 215.61 199.757 215.243 200.622C212.149 207.779 208.219 218.924 221.212 221.946L221.227 221.931Z" fill="#C8D3FB"></path>
<path d="M254.077 184.916C254.209 185.121 254.385 185.253 254.576 185.356C254.854 185.722 255.368 186.045 256.042 186.03C260.354 185.957 264.636 185.957 267.056 183.566C270.018 180.633 268.83 175.999 268.303 172.113C268.215 171.467 267.115 170.749 266.279 171.013C259.342 173.286 249.018 177.26 254.077 184.916Z" fill="#D5DDFB"></path>
<path d="M255.808 277.762C255.94 277.967 256.116 278.099 256.306 278.202C256.585 278.583 257.098 278.891 257.773 278.876C262.084 278.803 266.367 278.803 268.786 276.413C271.749 273.48 270.561 268.845 270.033 264.959C269.945 264.314 268.845 263.595 268.009 263.859C261.072 266.132 250.748 270.106 255.808 277.762Z" fill="#D5DDFB"></path>
<path d="M251.232 350.517C247.287 356.573 246.832 363.261 248.974 371.18C250.352 376.24 252.787 381.813 256.057 388.031C256.292 388.471 258.623 390.905 259.137 391.301C275.151 403.561 293.102 400.306 303.734 392.122C308.911 388.133 312.9 382.751 315.481 376.43C317.886 370.564 319.074 363.891 318.913 356.793C318.766 350.766 318.399 340.163 311.521 335.235C308.002 332.713 303.925 332.522 300.449 332.258C296.519 331.95 292.647 331.877 288.878 332.097C273.303 332.962 259.034 338.476 251.217 350.517H251.232Z" fill="#D5DDFB"></path>
<path d="M248.974 371.18C250.352 376.24 252.787 381.813 256.057 388.031C256.292 388.471 258.623 390.905 259.137 391.301C275.151 403.561 293.102 400.306 303.734 392.122C308.911 388.133 312.9 382.751 315.481 376.43C311.873 380.331 307.092 383.323 302.443 385.948C297.516 388.735 291.958 390.788 285.417 390.406C278.818 390.025 271.954 386.667 265.384 383.044C259.518 379.803 253.916 375.99 248.974 371.166V371.18Z" fill="#C8D3FB"></path>
<path d="M279.008 328.636C278.95 327.991 278.246 327.639 277.835 327.888C275.415 329.34 272.379 330.733 271.426 333.916C270.649 336.511 271.764 339.151 272.834 341.835C272.995 342.26 273.318 342.421 273.611 342.436C273.729 342.509 273.846 342.553 273.993 342.539C279.8 342.143 279.463 333.96 278.994 328.636H279.008Z" fill="#D5DDFB"></path>
<path d="M264.475 331.642C264.24 331.041 263.448 330.909 263.14 331.261C261.248 333.358 258.755 335.587 258.785 338.902C258.799 341.615 260.633 343.815 262.451 346.073C262.73 346.425 263.096 346.498 263.375 346.41C263.507 346.44 263.639 346.454 263.771 346.41C269.212 344.328 266.484 336.614 264.49 331.657L264.475 331.642Z" fill="#D5DDFB"></path>
<path d="M282.279 391.887C282.499 392.459 282 393.017 281.531 392.958C278.744 392.533 275.43 392.401 273.259 389.966C271.485 387.972 271.397 385.288 271.236 382.575C271.206 382.15 271.426 381.886 271.69 381.783C271.764 381.68 271.852 381.592 271.998 381.548C277.395 379.847 280.475 387.107 282.279 391.887Z" fill="#D5DDFB"></path>
<path d="M264.944 391.36C264.753 391.389 264.607 391.477 264.49 391.565C264.123 391.653 263.771 391.902 263.698 392.313C263.258 394.967 262.73 397.578 264.621 399.587C266.924 402.036 271.28 402.315 274.873 402.843C275.474 402.931 276.266 402.417 276.104 401.845C274.873 397.109 272.497 389.937 264.944 391.36Z" fill="#C8D3FB"></path>
<path d="M285.402 394.718C285.241 394.836 285.153 394.968 285.08 395.114C284.786 395.364 284.581 395.73 284.698 396.141C285.461 398.722 286.136 401.303 288.702 402.271C291.84 403.473 295.888 401.816 299.349 400.731C299.936 400.54 300.405 399.734 300.024 399.294C296.841 395.569 291.576 390.157 285.402 394.733V394.718Z" fill="#C8D3FB"></path>
<path d="M278.216 353.215C278.348 353.347 278.48 353.42 278.612 353.479C278.876 353.728 279.243 353.875 279.624 353.758C282.044 352.922 284.464 352.174 285.212 349.842C286.121 346.997 284.229 343.551 282.924 340.574C282.704 340.075 281.897 339.708 281.487 340.075C278.158 343.111 273.362 348.082 278.216 353.23V353.215Z" fill="#C8D3FB"></path>
<path d="M261.439 365.05C261.586 365.153 261.732 365.211 261.879 365.226C262.172 365.417 262.568 365.505 262.92 365.314C265.149 364.067 267.393 362.894 267.716 360.474C268.112 357.512 265.633 354.462 263.815 351.763C263.507 351.309 262.642 351.089 262.319 351.529C259.591 355.107 255.749 360.856 261.454 365.05H261.439Z" fill="#C8D3FB"></path>
<path d="M283.085 369.64C282.983 369.787 282.939 369.948 282.924 370.08C282.748 370.388 282.675 370.784 282.88 371.121C284.229 373.292 285.52 375.477 287.954 375.682C290.931 375.932 293.864 373.306 296.46 371.356C296.9 371.033 297.076 370.153 296.621 369.845C292.911 367.294 286.986 363.745 283.071 369.64H283.085Z" fill="#D5DDFB"></path>
<path d="M242.403 305.069C242.403 305.069 240.277 516.983 247.155 596.557H223.412C223.412 596.557 240.878 324.676 242.418 305.069H242.403Z" fill="#C8D3FB"></path>
<path d="M239.309 356.016C239.309 356.016 220.068 330.278 215.229 319.807C215.229 319.807 234.616 358.304 238.195 371.635L239.309 356.016Z" fill="#C8D3FB"></path>
<path d="M239.236 402.286C239.236 402.286 252.977 389.307 267.863 376.137C267.863 376.137 248.915 404.588 240.35 417.904L239.236 402.286Z" fill="#C8D3FB"></path>
<path d="M240.086 345.017C240.086 345.017 251.305 329.897 254.209 323.62C254.209 323.62 242.902 346.396 240.761 354.388L240.086 345.017Z" fill="#C8D3FB"></path>
</g>
<path opacity="0.31" d="M14.7387 479.733L292.896 479.733L292.896 121.033L14.7387 121.033L14.7387 479.733Z" fill="white"></path>
<path opacity="0.6" d="M196.252 473.251H225.362L101.616 125.139H72.4908L196.252 473.251Z" fill="white"></path>
<path opacity="0.6" d="M247.668 473.251H262.231L138.47 125.139H123.908L247.668 473.251Z" fill="white"></path>
<path opacity="0.6" d="M106.162 473.251H120.725L18.097 162.785L14.988 183.009L106.162 473.251Z" fill="white"></path>
<path d="M288.966 484.353H297.179L297.179 116.912H288.966L288.966 484.353Z" fill="white"></path>
<path d="M196.237 482.504H204.45L204.45 118.774H196.237L196.237 482.504Z" fill="white"></path>
<path d="M10.8084 116.912V125.125L297.179 125.125V116.912L10.8084 116.912Z" fill="white"></path>
<path d="M10.823 475.612V483.824H297.193V475.612H10.823Z" fill="white"></path>
<path d="M103.523 482.504H111.735L111.735 118.774H103.523L103.523 482.504Z" fill="white"></path>
<path d="M297.179 296.533H10.8084V304.746H297.179V296.533Z" fill="white"></path>
<path d="M288.922 307.635V304.746H19.0649V307.635H288.922Z" fill="#C8D3FB"></path>
<path d="M288.937 476.154V473.25H19.0796V476.154H288.937Z" fill="#C8D3FB"></path>
<path d="M289.01 128.043V125.139L18.9916 125.139V128.043L289.01 128.043Z" fill="#C8D3FB"></path>
<path d="M444.345 334.135H655.908V206.591L444.345 206.591V334.135Z" fill="#C8D3FB"></path>
<path d="M454.846 323.518H645.407V217.194L454.846 217.194V323.518Z" fill="url('#paint4_linear_91_6350')"></path>
<path d="M471.784 309.102H628.469V231.639H471.784V309.102Z" fill="#D5DDFB"></path>
<path d="M628.483 309.102L603.802 273.274C602.848 271.896 600.81 271.94 599.915 273.347L586.335 294.861L575.439 283.305C574.354 282.161 572.462 282.396 571.699 283.774L557.767 309.087H628.483V309.102Z" fill="#C8D3FB"></path>
<path d="M580.63 249.854C580.63 254.121 584.091 257.582 588.359 257.582C592.627 257.582 596.088 254.121 596.088 249.854C596.088 245.586 592.627 242.125 588.359 242.125C584.091 242.125 580.63 245.586 580.63 249.854Z" fill="white"></path>
<path d="M523.142 252.537C523.538 253.373 524.403 253.476 525.21 253.637C528.128 254.194 531.575 253.901 534.552 253.96C536.37 253.989 538.189 253.96 539.993 253.974C541.797 254.781 543.718 255.588 545.712 255.529C547.897 255.47 549.687 254.15 551.872 253.96C553.162 253.857 556.931 254.356 555.875 251.687C554.673 248.666 547.721 249.326 545.316 248.578C544.026 248.182 543.131 247.962 541.782 247.786C540.081 247.551 540.403 247.492 538.893 246.539C538.16 246.07 537.778 245.806 537.016 245.542C535.593 245.058 534.097 245.117 532.719 245.747C531.179 246.451 530.504 248.079 528.832 248.534C527.454 248.915 521.514 249.12 523.128 252.523L523.142 252.537Z" fill="white"></path>
<path d="M502.845 259.298C505.412 260.134 508.521 260.368 511.19 260.105C512.73 259.958 515.208 259.811 516.337 258.594C517.159 257.714 517.085 256.482 516.206 255.646C515.399 254.884 514.416 254.884 513.448 255.118C511.733 254.4 510.002 253.886 508.081 254.18C507.333 254.297 506.658 254.722 505.866 254.678C505.251 254.649 504.517 254.18 503.916 254.092C503.212 253.974 502.508 253.945 501.833 254.194C498.607 255.426 500.455 258.506 502.831 259.283L502.845 259.298Z" fill="white"></path>
<path d="M539.465 309.102L524.051 281.545C523.524 280.592 522.145 280.563 521.573 281.501L509.885 300.566L504.928 292.867C504.312 291.928 502.904 292.016 502.42 293.028L494.794 309.116L481.962 279.331C481.449 278.128 479.733 278.187 479.293 279.419L471.77 300.581V309.116H539.435L539.465 309.102Z" fill="#C8D3FB"></path>
<path d="M386.212 181.264C359.609 181.264 337.978 159.618 337.978 133.029H340.251C340.251 158.371 360.87 179.005 386.227 179.005C411.583 179.005 432.202 158.386 432.202 133.029H434.476C434.476 159.632 412.83 181.264 386.241 181.264H386.212Z" fill="#D5DDFB"></path>
<path d="M385.552 95.2954L324.72 145.7H458.864L385.552 95.2954Z" fill="#C8D3FB"></path>
<path opacity="0.22" d="M355.327 138.587L291.063 345.691H477.914L417.2 138.587H355.327Z" fill="url('#paint5_linear_91_6350')"></path>
<path d="M382.766 59.9226V89.048V97.3779V97.5979V101.514V101.968V110.811H388.676V101.968V101.514V97.6272V97.4366V89.0626V62.577L382.766 59.9226Z" fill="#D5DDFB"></path>
<path d="M382.81 101.968H388.632C392.489 101.968 395.627 105.107 395.627 108.964V123.424H375.829V108.964C375.829 105.107 378.967 101.968 382.824 101.968H382.81Z" fill="#FFBF5B"></path>
<path d="M396.991 147.401C396.991 141.037 391.829 135.875 385.464 135.875C379.099 135.875 373.937 141.037 373.937 147.401C373.937 153.766 379.099 158.928 385.464 158.928C391.829 158.928 396.991 153.766 396.991 147.401Z" fill="#D5DDFB"></path>
<path d="M385.611 154.617C382.883 154.118 379.129 151.977 378.425 149.088C378.175 148.061 376.577 148.501 376.841 149.528C377.677 152.974 381.871 155.599 385.171 156.201C386.212 156.391 386.652 154.793 385.611 154.617Z" fill="white"></path>
<path d="M385.552 95.2954L318.487 145.7H452.631L385.552 95.2954Z" fill="#D5DDFB"></path>
<path d="M382.795 89.0627H388.324C390.245 89.0627 391.799 90.6173 391.799 92.5384V98.0673C391.799 99.9884 390.245 101.528 388.338 101.528H382.81C380.888 101.528 379.349 99.9738 379.349 98.0673V92.5384C379.349 90.6173 380.903 89.0774 382.81 89.0774L382.795 89.0627Z" fill="#D5DDFB"></path>
</g>
<path d="M462.53 341.38C462.457 340.867 461.841 340.485 461.372 340.5C449.977 340.691 435.693 340.72 426.043 347.759C417.053 354.329 415.704 365.915 415.909 376.225C415.924 377.325 417.156 377.633 417.845 377.163C417.874 377.163 417.904 377.207 417.933 377.222C441.882 386.182 465.933 366.502 462.53 341.38Z" fill="#6A6AE8"></path>
<path d="M407.33 388.001C407.418 380.067 405.57 372.045 399.484 366.546C392.503 360.24 382.399 356.632 374.142 352.35C373.306 351.91 371.957 352.658 372.368 353.714C376.107 363.217 375.58 374.832 382.179 383.074C387.781 390.098 397.27 392.459 405.687 389.864C406.113 389.732 406.347 389.438 406.45 389.116C406.919 388.998 407.33 388.632 407.33 388.001Z" fill="#6A6AE8"></path>
<path d="M480.994 413.856C475.392 409.515 468.162 409.955 461.386 410.248C453.863 410.571 446.31 411.73 439.447 414.985C427.509 420.661 419.121 433.2 423.447 446.457C423.345 447.014 423.55 447.645 424.254 447.865C435.634 451.458 441.119 443.861 447.968 436.309C456.738 426.615 468 419.722 480.451 415.88C481.229 415.645 481.742 414.457 480.979 413.856H480.994Z" fill="#6A6AE8"></path>
<path d="M508.228 442.189C508.081 442.145 507.934 442.072 507.788 441.999C502.963 439.931 498.636 435.986 494.237 432.202C494.237 432.188 494.207 432.188 494.193 432.158C489.383 428.008 484.484 424.063 478.765 423.036C478.721 423.007 478.662 423.007 478.618 423.007C475.993 422.523 473.192 422.699 470.112 423.711C457.94 427.773 450.446 440.444 449.244 452.646C449.229 452.939 449.317 453.174 449.434 453.35C449.405 453.423 449.39 453.467 449.361 453.54C449.17 454.215 449.522 455.11 450.446 455.227C460.888 456.459 471.124 455.242 481.331 453.1C490.394 451.194 500.631 449.639 508.506 444.404C509.43 443.803 509.181 442.585 508.213 442.204L508.228 442.189Z" fill="#6A6AE8"></path>
<path d="M490.101 465.551C476.785 462.882 449.258 456.107 447.381 477.328C447.322 478.002 447.762 478.369 448.276 478.457C460.36 492.638 483.868 481.39 490.82 467.326C491.142 466.681 490.908 465.713 490.101 465.551Z" fill="#6A6AE8"></path>
<path d="M405.702 422.846C402.168 415.029 393.955 406.949 385.889 404.001C385.141 403.722 384.349 404.426 384.364 405.159C384.496 420.573 380.712 444.829 397.475 453.35C397.592 453.408 397.71 453.423 397.827 453.452C398.281 454.127 399.352 454.376 399.865 453.452C405.042 444.199 410.468 433.39 405.702 422.846Z" fill="#6A6AE8"></path>
<path d="M362.058 432.657C353.875 425.97 340.94 424.518 331.422 429.343C318.209 436.045 320.584 451.957 318.575 464.217C318.385 465.405 319.646 466.226 320.599 465.39C333.651 453.937 351.866 449.449 361.823 434.446C362.454 434.08 362.791 433.244 362.073 432.643L362.058 432.657Z" fill="#6A6AE8"></path>
<path d="M362.131 444.785C361.75 444.213 361.134 444.14 360.636 444.345C360.298 443.92 359.741 443.685 359.125 444.008C352.584 447.601 344.914 452.617 343.624 460.521C342.084 469.951 347.393 479.161 347.979 488.459C348.067 489.735 350.076 490.204 350.355 488.781C352.027 479.85 361.281 475.773 364.683 467.751C367.484 461.137 366.003 450.725 362.117 444.785H362.131Z" fill="#6A6AE8"></path>
<path d="M402.505 499.575C394.82 488.781 386.916 479.557 373.57 476.184C372.602 475.935 371.605 477.049 372.207 477.958C375.213 482.475 375.154 487.608 377.677 492.154C379.173 494.853 381.622 496.877 384.188 498.49C389.878 502.083 397.211 505.353 403.561 501.716C404.852 500.983 403.796 499.062 402.52 499.575H402.505Z" fill="#6A6AE8"></path>
<path d="M419.84 486.845C419.81 486.728 419.781 486.611 419.708 486.493C414.428 478.061 414.193 467.34 406.905 460.081C406.347 459.524 405.424 459.67 405.013 460.33C401.435 466.065 399.704 472.928 402.549 479.351C405.629 486.303 412.096 488.195 419.136 488.928C420.382 489.06 420.602 487.535 419.854 486.845H419.84Z" fill="#6A6AE8"></path>
<path d="M434.652 392.577C433.141 391.316 431.132 392.577 429.651 393.207C426.85 394.395 424.122 395.774 421.673 397.592C417.097 400.995 413.959 405.82 413.68 411.51C413.636 411.656 413.636 411.788 413.651 411.95C413.651 412.111 413.621 412.272 413.621 412.448C413.621 413.812 415.513 413.973 415.939 412.918C421.79 411.642 426.41 407.873 430.237 403.356C431.997 401.273 438.157 395.524 434.637 392.577H434.652Z" fill="#6A6AE8"></path>
<path d="M437.291 487.799C437.101 487.623 436.954 487.432 436.778 487.256C438.289 476.961 438.919 465.024 428.771 458.967C428.111 458.571 427.187 458.937 426.996 459.685C424.21 470.582 427.407 481.771 435.575 489.515C436.705 490.585 438.421 488.869 437.277 487.799H437.291Z" fill="#6A6AE8"></path>
<path d="M507.186 440.987C502.713 439.007 498.519 435.575 494.251 432.202C494.251 432.188 494.222 432.188 494.207 432.158C489.309 428.272 484.323 424.459 478.78 423.036C478.736 423.007 478.677 423.007 478.633 423.007C476.008 422.523 473.207 422.699 470.127 423.711C457.955 427.773 450.461 440.444 449.258 452.646C449.244 452.939 449.332 453.174 449.449 453.35C449.42 453.423 449.405 453.467 449.376 453.54C449.786 453.511 450.167 453.32 450.417 452.954C450.651 452.91 450.871 452.836 451.062 452.616C455.022 448.393 459.245 444.448 463.41 440.415C465.419 438.479 467.37 436.045 469.643 434.431C474.468 430.985 478.633 431.63 483.692 433.097C489.749 434.857 495.278 437.995 500.792 441.016C502.845 442.175 504.855 444.14 507.186 443.069C507.597 442.893 507.788 442.439 507.788 441.999C507.788 441.559 507.568 441.148 507.186 440.987Z" fill="#6A6AE8"></path>
<path d="M400.247 481.639C399.103 476.961 397.812 472.209 396.214 467.575C396.228 467.531 396.258 467.516 396.272 467.472C398.443 460.052 399.264 452.514 398.824 444.99C399.235 444.932 399.601 444.683 399.763 444.184C401.156 439.74 401.743 435.223 401.523 430.574C401.449 429.035 399.029 429.02 399.103 430.574C399.249 433.786 399 436.939 398.34 440.034C397.856 436.455 397.094 432.892 396.023 429.372C395.568 427.891 393.237 428.521 393.691 430.017C397.094 441.119 397.431 452.426 394.762 463.615C392.503 457.852 389.673 452.353 385.86 447.484C376.914 436.03 360.65 429.064 347.774 434.461C347.745 434.021 347.481 433.61 346.909 433.478C341.923 432.276 336.907 433.024 332.507 435.678C331.173 436.485 332.39 438.567 333.725 437.76C337.303 435.605 341.292 434.871 345.369 435.634C342.392 437.321 339.635 439.726 337.274 443.011C336.364 444.272 338.462 445.474 339.356 444.228C345.53 435.663 356.749 432.965 366.59 436.162C369.449 437.086 372.075 438.45 374.509 440.078C364.214 439.858 356.412 446.765 349.373 453.614C348.258 454.699 349.974 456.4 351.088 455.315C352.482 453.951 353.919 452.587 355.371 451.282C354.975 453.716 354.887 456.165 355.151 458.644C355.312 460.169 357.732 460.184 357.57 458.644C357.233 455.462 357.453 452.367 358.26 449.287C358.304 449.126 358.304 448.965 358.289 448.833C363.261 444.902 368.833 442.043 375.653 442.527C376.283 442.571 376.65 442.189 376.767 441.72C382.252 446.046 386.549 451.927 389.673 458.131C395.876 470.479 399.425 484.587 401.435 498.724C396.434 497.434 392.093 494.823 388.588 490.996C387.546 489.852 385.831 491.553 386.887 492.697C388.646 494.633 390.641 496.261 392.797 497.624C391.403 497.624 390.01 497.551 388.632 497.331C387.106 497.096 386.461 499.414 387.986 499.663C390.304 500.03 392.606 500.162 394.952 500.015C395.451 499.986 395.774 499.692 395.95 499.34C397.724 500.162 399.601 500.821 401.552 501.261C401.64 501.291 401.713 501.261 401.787 501.261C402.666 508.11 403.209 514.93 403.517 521.544C403.59 523.098 406.01 523.098 405.937 521.544C405.306 508.095 403.473 494.75 400.261 481.669L400.247 481.639Z" fill="#312890"></path>
<path d="M440.327 431.997C438.157 433.566 436.089 435.253 434.094 437.013C435.253 432.73 437.086 428.756 439.667 425.075C440.562 423.799 438.465 422.597 437.585 423.858C434.432 428.345 432.276 433.317 431.161 438.684C431.088 439.051 431.161 439.344 431.322 439.594C425.94 444.859 421.35 450.827 417.64 457.485C416.98 449.156 416.437 440.826 416.027 432.481C415.733 426.556 415.279 419.913 415.117 413.093C417.918 409.324 420.866 405.614 425.207 403.576C426.615 402.916 425.383 400.833 423.99 401.493C420.309 403.224 417.537 406.083 415.059 409.207C415.044 405.995 415.103 402.769 415.293 399.572C415.484 399.249 415.528 398.839 415.352 398.457C416.569 381.402 421.687 365.299 438.01 357.761C439.418 357.116 438.201 355.033 436.793 355.679C432.657 357.585 429.225 360.02 426.366 362.865C426.234 360.518 426.615 358.23 427.48 356.001C428.037 354.549 425.706 353.919 425.148 355.356C423.931 358.494 423.653 361.75 424.18 365.064C424.18 365.123 424.224 365.152 424.224 365.196C417.273 373.482 414.399 384.555 413.357 396.038C409.852 391.975 406.362 387.913 402.857 383.851C403.194 383.675 403.444 383.352 403.414 382.839C403.194 379.436 402.124 376.269 400.173 373.482C399.279 372.221 397.196 373.424 398.091 374.7C399.543 376.767 400.452 379.026 400.819 381.475C399.513 379.964 398.223 378.454 396.918 376.958C395.906 375.77 394.205 377.486 395.216 378.659C401.185 385.581 407.154 392.503 413.108 399.425C412.844 403.649 412.815 407.887 412.874 412.038C412.815 412.111 412.771 412.184 412.712 412.257C412.302 412.815 412.492 413.343 412.903 413.665C412.991 417.728 413.152 421.702 413.299 425.442C414.076 444.697 415.543 463.924 417.64 483.062C413.284 480.657 410.908 476.14 408.738 471.799C408.049 470.406 405.966 471.623 406.655 473.016C409.149 477.988 411.994 483.194 417.273 485.614C417.508 485.716 417.713 485.731 417.918 485.716C419.312 498.02 420.954 510.281 422.875 522.512C423.11 524.037 425.442 523.392 425.207 521.866C422.069 501.789 419.649 481.595 417.948 461.357C418.168 461.269 418.373 461.122 418.505 460.844C424.034 450.167 431.777 441.119 441.515 434.05C442.761 433.141 441.559 431.058 440.298 431.968L440.327 431.997Z" fill="#312890"></path>
<path d="M480.29 433.904C475.216 433.801 470.582 435.018 466.373 437.115C468.162 435.209 470.083 433.434 472.165 431.836C473.383 430.912 472.18 428.815 470.948 429.754C466.901 432.863 463.381 436.441 460.389 440.577C460.272 440.738 460.213 440.899 460.184 441.046C452.015 447.469 445.973 457.251 442.219 466.593C439.931 472.268 438.245 478.134 436.925 484.103C435.575 481.845 434.827 479.308 433.992 476.8C433.317 474.805 432.716 473.002 430.868 471.828C429.548 471.007 428.331 473.09 429.651 473.911C431.601 475.143 432.056 478.677 432.76 480.701C433.449 482.681 434.212 484.543 435.414 486.259C435.663 486.611 436.001 486.758 436.353 486.772C433.42 501.379 432.613 516.543 431.22 531.164C431.073 532.704 433.493 532.704 433.64 531.164C434.945 517.555 435.781 503.637 438.259 490.087C438.435 490.028 438.611 489.94 438.758 489.764C443.319 484.719 448.056 479.66 453.804 476.155C455.535 477.768 457.559 478.985 459.817 479.748C461.298 480.246 461.929 477.915 460.463 477.416C458.82 476.859 457.339 476.008 456.034 474.923C457.632 474.101 459.289 473.368 461.064 472.84C462.545 472.4 461.914 470.069 460.419 470.508C458.072 471.212 455.902 472.18 453.848 473.324C453.482 473.339 453.145 473.574 452.925 473.882C447.704 476.991 443.275 481.288 439.095 485.804C439.902 482.006 440.811 478.222 441.955 474.512C444.287 466.989 447.982 458.644 453.115 451.678C453.159 451.678 453.203 451.678 453.247 451.678C455.99 450.754 458.791 450.109 461.665 449.728C463.19 449.522 462.545 447.191 461.02 447.396C459.216 447.645 457.456 448.026 455.696 448.466C462.002 441.192 470.142 436.074 480.275 436.28C481.83 436.309 481.83 433.889 480.275 433.86L480.29 433.904Z" fill="#312890"></path>
<path d="M460.14 509.151L458.219 521.118L454.772 542.559L447.264 589.283H392.327L384.819 542.559L381.372 521.118L379.451 509.151H460.14Z" fill="#C8D3FB"></path>
<path opacity="0.08" d="M402.388 521.118L400.467 509.151H379.451L381.372 521.118L384.819 542.559L392.327 589.283H413.343L405.834 542.559L402.388 521.118Z" fill="black"></path>
<path opacity="0.64" d="M440.826 585.441C440.826 585.441 440.679 585.441 440.606 585.441C439.183 585.367 438.142 584.575 438.259 583.681L447.704 512.583C447.821 511.689 449.053 511.014 450.49 511.102C451.913 511.175 452.954 511.967 452.837 512.862L443.392 583.959C443.275 584.81 442.16 585.455 440.826 585.455V585.441Z" fill="white"></path>
<path d="M261.659 589.591L350.135 139.468H401.567L312.123 589.591H261.674H261.659Z" fill="#6A5FFF"></path>
<path d="M465.317 359.14C468.69 343.594 477.9 333.211 481.009 330.572C486.098 326.245 500.294 326.671 506.042 338.476C511.791 350.282 513.918 357.424 512.305 378.689C510.706 399.953 493.093 472.576 493.064 488.517C493.02 504.459 459.891 502.728 461.665 479.894C463.425 457.06 461.43 377.119 465.331 359.14H465.317Z" fill="#572EFF"></path>
<path d="M512.774 363.671C512.422 353.039 510.163 346.953 506.042 338.476C502.831 331.891 496.994 328.841 491.568 328.196C491.216 328.152 490.878 328.122 490.541 328.093C490.248 328.078 489.94 328.064 489.647 328.049C488.767 328.034 487.901 328.078 487.065 328.181C485.966 328.328 484.924 328.562 483.986 328.9C483.516 329.061 483.076 329.252 482.651 329.472C482.446 329.574 482.241 329.692 482.05 329.809C481.669 330.044 481.317 330.293 480.994 330.557C480.803 330.718 480.569 330.924 480.334 331.158C480.202 331.276 480.07 331.408 479.923 331.554C479.879 331.598 479.821 331.657 479.777 331.701C479.674 331.803 479.557 331.921 479.454 332.038C479.395 332.097 479.337 332.155 479.278 332.214C479.161 332.331 479.044 332.463 478.926 332.595C478.868 332.654 478.824 332.713 478.765 332.771C478.413 333.153 478.032 333.578 477.65 334.033C477.592 334.091 477.533 334.165 477.474 334.238C477.328 334.399 477.196 334.575 477.049 334.751C476.976 334.839 476.917 334.913 476.844 335C476.697 335.191 476.55 335.367 476.404 335.558C476.345 335.631 476.286 335.719 476.213 335.792C475.788 336.335 475.363 336.922 474.923 337.538C474.864 337.626 474.805 337.714 474.747 337.802C474.585 338.036 474.424 338.271 474.263 338.506C474.189 338.608 474.116 338.711 474.043 338.828C473.881 339.063 473.72 339.312 473.559 339.561C473.5 339.664 473.427 339.752 473.368 339.855C472.913 340.544 472.473 341.277 472.019 342.04C471.96 342.143 471.887 342.26 471.828 342.363C471.667 342.641 471.506 342.92 471.344 343.213C471.271 343.345 471.198 343.477 471.124 343.609C470.963 343.888 470.816 344.181 470.655 344.474C470.596 344.592 470.523 344.724 470.464 344.841C470.244 345.252 470.039 345.677 469.834 346.117C469.628 346.542 469.423 346.997 469.218 347.437C469.159 347.569 469.1 347.701 469.042 347.833C468.895 348.155 468.748 348.478 468.616 348.815C468.543 348.977 468.484 349.123 468.411 349.285C468.279 349.607 468.133 349.945 468.015 350.282C467.957 350.428 467.898 350.575 467.839 350.722C467.649 351.206 467.473 351.69 467.297 352.174C467.121 352.672 466.959 353.171 466.783 353.684C466.725 353.845 466.681 354.007 466.637 354.168C466.519 354.52 466.417 354.887 466.314 355.253C466.255 355.444 466.211 355.62 466.153 355.811C466.05 356.177 465.947 356.544 465.859 356.925C465.815 357.101 465.771 357.262 465.727 357.438C465.595 357.981 465.463 358.524 465.346 359.066C465.346 359.066 465.346 359.066 465.346 359.081C465.346 359.081 465.346 359.081 465.346 359.096C465.287 359.389 465.214 359.712 465.155 360.049C465.141 360.166 465.111 360.284 465.097 360.401C465.053 360.636 465.009 360.885 464.979 361.134C464.965 361.281 464.935 361.427 464.921 361.574C464.877 361.823 464.847 362.073 464.818 362.337C464.804 362.498 464.774 362.645 464.759 362.821C464.73 363.099 464.686 363.378 464.657 363.671C464.642 363.833 464.613 363.979 464.598 364.155C464.554 364.493 464.525 364.83 464.481 365.182C464.481 365.314 464.452 365.431 464.437 365.563C464.334 366.546 464.246 367.602 464.158 368.701C464.158 368.804 464.144 368.936 464.129 369.039C464.1 369.479 464.056 369.933 464.026 370.403C464.026 370.549 464.012 370.711 463.997 370.857C463.968 371.312 463.938 371.767 463.909 372.221C463.909 372.368 463.894 372.529 463.88 372.676C463.85 373.16 463.821 373.658 463.792 374.172C463.792 374.304 463.792 374.421 463.762 374.553C463.733 375.169 463.689 375.8 463.66 376.445C463.66 376.445 463.66 376.445 463.66 376.459C463.557 378.527 463.469 380.698 463.381 382.971C463.381 383.03 463.381 383.074 463.381 383.132C463.352 383.836 463.337 384.555 463.308 385.273C463.308 385.332 463.308 385.376 463.308 385.435C463.278 386.197 463.264 386.96 463.234 387.722C477.313 397.783 501.57 397.592 500.792 404.749C500.44 407.99 490.175 476.946 488.972 479.63C488.84 479.938 490.849 489.808 493.049 489.72C493.093 489.309 493.122 488.884 493.137 488.444C493.181 472.752 510.222 402.197 512.29 379.686C512.29 379.671 512.29 379.656 512.29 379.642C512.319 379.29 512.349 378.953 512.378 378.615C512.627 375.286 512.788 372.309 512.862 369.611C512.92 367.455 512.92 365.46 512.862 363.613L512.774 363.671Z" fill="#1C0A76"></path>
<path d="M541.694 359.418C535.608 343.77 524.579 333.182 521.016 330.484C515.164 326.055 501.056 326.231 497.361 337.978C493.68 349.724 492.8 356.852 498.108 378.205C503.417 399.557 523.494 472.459 526.325 488.459C529.14 504.459 559.102 491.802 555.67 468.396C551.872 442.541 548.719 377.515 541.679 359.418H541.694Z" fill="#572EFF"></path>
<path d="M508.946 391.066C516.352 389.849 527.908 387.898 530.592 388.705C536.165 390.406 540.535 395.334 540.579 401.346C540.638 408.313 551.534 475.377 551.52 475.685C552.634 474.732 554.335 473.324 555.949 471.564C555.919 470.538 555.846 469.482 555.685 468.411C551.886 442.556 548.733 377.53 541.694 359.433C536.18 345.252 526.603 335.235 522.204 331.466C521.749 331.07 521.353 330.747 521.016 330.498C515.164 326.069 501.056 326.245 497.361 337.992C493.68 349.739 492.8 356.866 498.108 378.219C498.372 379.26 499.56 382.824 500.675 386.109C501.848 389.556 505.339 391.653 508.932 391.066H508.946Z" fill="#1C0A76"></path>
<path d="M514.695 195.064C513.287 205.755 526.413 210.022 526.413 210.022C527.454 202.089 536.4 197.601 539.303 187.936C542.324 177.92 536.297 167.317 522.248 167.728C513.624 167.977 516.103 184.373 514.695 195.064Z" fill="#1C0A76"></path>
<path d="M491.876 226.228C484.558 228.823 461.592 245.703 444.096 263.903C444.052 263.947 439.946 268.992 439.916 269.05C437.614 271.793 435.898 274.271 435.077 276.28C430.604 287.28 446.794 292.266 447.88 291.899C464.921 285.534 503.08 251.437 506.512 246.481C515.399 233.648 503.74 222.019 491.876 226.242V226.228Z" fill="#DB5A9B"></path>
<path d="M526.105 225.392C533.613 226.36 547.325 229.762 551.402 236.919C555.479 244.075 552.502 312.475 547.311 357.219C547.311 357.219 485.159 383.484 463.088 355.268C463.088 355.268 478.472 240.013 487.271 229.322C494.618 220.406 518.581 224.424 526.09 225.392H526.105Z" fill="#FF5EA6"></path>
<path d="M527.645 225.582C527.645 225.582 501.408 262.055 498.358 265.047C498.358 265.047 499.311 233.736 499.883 224.351L527.645 225.582Z" fill="url('#paint6_linear_91_6350')"></path>
<path d="M522.834 210.14C523.142 208.761 523.406 207.852 523.406 207.852C523.406 207.852 508.506 195.973 506.541 208.028L522.849 210.14H522.834Z" fill="url('#paint7_linear_91_6350')"></path>
<path d="M506.878 233.208L502.361 224.6C502.361 224.6 507.025 221.447 506.409 213.205C504.884 193.084 523.421 207.867 523.421 207.867C523.421 207.867 520.048 224.6 526.119 225.392L506.893 233.208H506.878Z" fill="#FFD2A7"></path>
<path d="M506.981 229.249C517.408 230.598 516.895 217.531 517.393 215.082C517.863 212.765 523.392 207.852 523.392 207.852C523.392 207.852 520.019 224.585 526.09 225.377L506.864 233.194L504.195 228.105C504.913 228.692 505.837 229.102 506.981 229.249Z" fill="#FFBC8E"></path>
<path d="M553.309 246.715H543.014L544.715 287.734C544.715 287.734 544.583 366.663 476.55 365.035C503.681 375.653 547.311 357.218 547.311 357.218C549.804 335.763 554.145 301.593 553.309 246.715Z" fill="#DB5A9B"></path>
<path d="M501.247 179.005L496.099 202.235C495.19 209.172 502.435 215.844 509.738 216.798C517.041 217.766 523.714 212.911 524.623 205.989L524.697 205.417C524.697 205.417 532.337 205.872 533.349 198.187C534.361 190.488 528.906 192.967 528.906 192.967L529.346 189.681C529.844 185.883 527.175 182.407 523.377 181.909L501.262 179.005H501.247Z" fill="#FFD2A7"></path>
<path d="M528.891 192.967L529.36 189.374C529.844 185.751 527.292 182.422 523.67 181.953L519.945 181.469C519.945 181.542 519.945 181.616 519.931 181.689L516.426 208.292C515.81 212.941 510.838 215.977 506.35 215.229C504.957 214.994 502.229 213.777 501.188 212.985C504.268 215.463 507.084 216.446 509.753 216.798C517.056 217.766 523.729 212.912 524.638 205.989L524.711 205.418C524.711 205.418 532.352 205.872 533.364 198.187C534.376 190.488 528.92 192.967 528.92 192.967H528.891Z" fill="#FFBC8E"></path>
<path d="M504.62 221.975C504.033 227.357 506.878 233.194 506.878 233.194C506.878 233.194 503.813 231.331 500.514 234.836C499.12 236.317 497.801 236.347 497.801 236.347C497.801 236.347 497.845 232.035 499.927 223.998L504.62 221.975Z" fill="#C8D3FB"></path>
<path d="M522.908 221.535C519.52 226.756 506.878 233.208 506.878 233.208C506.878 233.208 510.75 232.387 514.46 237.403C516.03 239.529 518.508 240.292 518.508 240.292C518.508 240.292 526.545 234.132 527.645 225.582L522.908 221.535Z" fill="#C8D3FB"></path>
<path d="M520.722 179.225C520.722 179.225 514.915 185.077 505.5 182.877C496.085 180.692 494.603 185.605 494.603 185.605C494.603 185.605 492.389 167.625 505.382 163.035C518.361 158.444 524.843 167.801 524.843 167.801L520.737 179.225H520.722Z" fill="#1C0A76"></path>
<path d="M452.015 277.41C442.615 263.287 396.58 223.426 394.41 213.791C392.225 204.156 375.33 212.559 384.599 220.464C393.882 228.383 415.205 271.851 427.275 284.478C445.005 303.015 454.42 281.017 452.015 277.41Z" fill="#FFD2A7"></path>
<path d="M440.928 263.947C440.928 263.947 438.01 278.524 424.004 283.774C424.004 283.774 432.114 293.791 440.782 292.926C449.464 292.06 453.848 282.909 453.848 278.905C453.848 274.902 444.125 265.707 440.928 263.947Z" fill="#DB5A9B"></path>
<path d="M403.004 418.432V372.353L517.305 327.418L403.004 282.968V237.212L566.801 308.046V347.114L403.004 418.432Z" fill="#6A5FFF"></path>
<path d="M531.311 317.006C530.636 309.849 531.634 303.749 533.599 284.992C533.599 284.2 533.599 283.393 533.613 282.572C534.185 267.804 530.05 251.364 530.328 248.666C531.428 238.561 549.423 226.741 557.797 247.052C565.408 265.531 563.663 305.42 555.201 316.962C552.033 321.288 545.786 323.825 540.301 322.623C537.793 322.022 531.487 319.074 531.296 317.006H531.311Z" fill="#FF5EA6"></path>
<path d="M542.31 300.185C527.82 297.34 484.558 302.913 476.682 298.381C471.33 295.301 473.984 313.12 478.34 312.445C488.371 310.876 525.533 321.332 540.301 322.784C552.898 324.016 552.121 302.121 542.31 300.2V300.185Z" fill="#FFD2A7"></path>
<path d="M451.018 300.185C454.655 296.944 460.169 295.287 465.067 294.495C470.376 293.644 480.466 301.182 485.482 301.901C487.505 302.194 485.511 311.668 483.883 312.211C478.472 314.014 472.561 310.759 471.74 311.008C469.555 312.313 470.523 311.345 468.617 312.797C466.167 314.63 442.761 307.532 451.003 300.185H451.018Z" fill="#FFD2A7"></path>
<path d="M569.235 578.563C561.551 575.894 559.688 564.161 558.911 557.195L547.692 561.243C547.692 561.243 552.121 573.151 550.361 581.261C548.601 589.371 551.021 588.608 551.021 588.608H585.485C585.485 588.608 576.905 581.246 569.221 578.563H569.235Z" fill="#FFD2A7"></path>
<path d="M586.174 589.562H551.226C551.226 589.562 549.936 589.972 549.437 587.362C549.173 585.998 548.997 586.042 549.437 582.508C549.525 581.833 549.584 581.144 549.628 580.425C552.942 580.733 557.899 578.255 557.899 578.255C559.336 574.368 564.396 572.609 565.701 574.618C567.784 578.181 572.154 578.988 575.175 580.015C581.804 582.244 583.417 584.825 585.001 587.377C585.822 588.696 586.159 589.576 586.159 589.576L586.174 589.562Z" fill="#1C0A76"></path>
<path d="M586.174 589.562H551.226C551.226 589.562 549.936 589.972 549.437 587.362H585.015C585.837 588.682 586.174 589.562 586.174 589.562Z" fill="#1C0A76"></path>
<path d="M553.764 465.39C563.897 473.661 559.263 533.173 564.367 572.74C564.367 572.74 552.634 575.365 545.566 572.286C545.566 572.286 526.281 502.669 526.281 486.464C526.281 457.984 542.882 456.517 553.764 465.39Z" fill="#572EFF"></path>
<path d="M456.943 579.354C464.657 576.759 461.137 564.44 461.988 557.488L473.163 561.653C473.163 561.653 474.101 574.119 475.788 582.243C477.474 590.368 475.055 589.591 475.055 589.591L439.916 589.239C439.916 589.239 449.244 581.965 456.958 579.369L456.943 579.354Z" fill="#FFD2A7"></path>
<path d="M456.943 579.355C459.289 578.636 459.832 577.082 461.254 574.867C462.149 573.298 464.891 576.026 466.255 579.105C466.255 579.105 472.297 581.584 475.553 580.587C475.626 581.144 475.7 581.701 475.802 582.244C477.489 590.368 475.069 589.591 475.069 589.591L439.931 589.239C441.735 582.61 449.537 581.643 456.972 579.369L456.943 579.355Z" fill="#1C0A76"></path>
<path d="M476.36 587.464C476.213 589.943 475.04 589.576 475.04 589.576L439.902 589.224C439.902 589.224 440.034 588.344 440.767 587.112L476.36 587.464Z" fill="#1C0A76"></path>
<path d="M463.792 477.738C457.295 484.939 461.298 534.317 459.465 570.027C459.465 570.027 471.271 573.488 478.061 570.438C478.061 570.438 496.745 501.716 492.682 487.52C487.241 468.47 472.503 468.103 463.792 477.753V477.738Z" fill="#572EFF"></path>
<path d="M492.682 487.505C491.846 484.558 490.776 482.064 489.544 479.982C489.559 480.891 476.653 541.576 475.172 571.318C475.817 571.2 476.433 571.024 477.034 570.834C477.386 570.702 477.738 570.584 478.061 570.438C478.061 570.438 484 548 488.84 525.063C492.081 509.019 494.384 493.459 492.682 487.505Z" fill="#1C0A76"></path>
<path d="M553.763 465.39C552.458 464.334 551.08 463.425 549.657 462.692C551.006 468.147 556.301 490.761 555.949 506.893C555.553 524.858 558.97 567.652 560.451 573.386C562.797 573.093 564.367 572.741 564.367 572.741C559.263 533.174 563.897 473.662 553.763 465.39Z" fill="#1C0A76"></path>
<path d="M390.685 190.591C388.353 198.935 380.302 200.505 381.152 208.233C382.003 215.962 380.947 219.144 386.359 220.288C391.77 221.447 392.65 216.666 395.304 207.207C397.885 197.982 394.161 178.213 390.685 190.591Z" fill="#FFD2A7"></path>
<path d="M487.799 84.7363C487.96 68.8244 500.983 56.0655 516.88 56.2122C532.792 56.3442 545.624 69.4257 545.463 85.3522C545.39 92.7582 542.515 99.4896 537.866 104.549C532.103 110.811 527.923 118.907 527.835 127.412V128.263L504.517 128.014V127.251C504.62 118.701 500.602 110.489 494.955 104.065C490.424 98.9177 487.711 92.1423 487.799 84.7363Z" fill="#FF5EA6"></path>
<path d="M509.078 106.163C509.078 106.163 507.641 99.7978 506.644 93.521C506.057 89.84 505.778 87.1856 505.69 85.2644C505.148 85.1324 504.591 84.8684 504.063 84.4871C499.619 81.3634 503.769 74.984 503.945 74.72C504.092 74.5 504.503 74.456 504.855 74.632C505.207 74.808 505.383 75.1307 505.236 75.3506C504.136 77.0078 501.922 81.7887 504.869 83.8565C505.148 84.0472 505.412 84.1938 505.676 84.2672C505.617 80.3368 506.556 80.1902 507.098 80.1169C507.978 79.9849 508.785 80.2489 509.269 80.8208C510.266 81.9794 509.547 84.2378 507.934 85.0591C507.67 85.1911 507.377 85.2937 507.084 85.3377C507.318 90.192 508.712 98.5072 510.471 106.28C510.53 106.558 510.281 106.749 509.899 106.72C509.797 106.72 509.709 106.69 509.621 106.661C509.357 106.558 509.151 106.368 509.108 106.163H509.078ZM507.7 81.1288C507.216 81.2461 507.01 82.346 507.01 84.1205C508.169 83.4459 508.594 81.7301 508.11 81.1728C508.11 81.1728 508.081 81.1434 508.052 81.1288C507.993 81.1141 507.89 81.0994 507.7 81.1288Z" fill="white"></path>
<path d="M523.201 106.808C523.113 106.837 523.01 106.852 522.922 106.866C522.541 106.896 522.292 106.69 522.365 106.412C524.301 98.6685 525.87 90.3972 526.207 85.543C525.914 85.4843 525.635 85.3963 525.371 85.2497C523.773 84.3991 523.113 82.126 524.125 80.9821C524.623 80.4248 525.43 80.1755 526.31 80.3368C526.853 80.4248 527.776 80.5861 527.644 84.5164C527.908 84.4431 528.172 84.3111 528.451 84.1205C531.443 82.1113 529.346 77.2864 528.275 75.6146C528.128 75.3946 528.304 75.0719 528.671 74.9106C529.023 74.7346 529.434 74.7933 529.566 75.0133C529.742 75.2919 533.745 81.7447 529.228 84.7804C528.686 85.147 528.128 85.3963 527.586 85.5137C527.454 87.4348 527.117 90.0892 526.442 93.7409C525.313 99.9884 523.743 106.265 523.729 106.324C523.685 106.529 523.465 106.72 523.201 106.808ZM525.283 81.3194C525.283 81.3194 525.225 81.3487 525.225 81.3634C524.726 81.9206 525.122 83.6365 526.266 84.3404C526.31 82.5659 526.134 81.466 525.65 81.334C525.445 81.3047 525.342 81.3047 525.283 81.334V81.3194Z" fill="white"></path>
<path d="M509.108 105.429L509.811 104.857C513.668 101.748 519.227 101.807 523.025 105.004L523.714 105.591L523.465 128.894L508.858 128.747L509.108 105.444V105.429ZM522.35 106.206L522.145 106.045C518.845 103.273 514.02 103.215 510.662 105.928L510.457 106.089L510.237 127.383L522.13 127.501L522.35 106.206Z" fill="white"></path>
<path d="M504.077 129.774L528.231 130.023C529.214 130.023 530.02 129.246 530.035 128.263C530.035 127.281 529.258 126.474 528.275 126.459L504.121 126.21C503.139 126.21 502.332 126.987 502.317 127.97C502.317 128.952 503.095 129.759 504.077 129.774Z" fill="#1C0A76"></path>
<path d="M505.324 133.367L526.897 133.601C527.776 133.601 528.495 132.824 528.51 131.841C528.51 130.859 527.82 130.052 526.941 130.038L505.368 129.803C504.488 129.803 503.769 130.58 503.755 131.563C503.755 132.545 504.444 133.352 505.324 133.367Z" fill="#572EFF"></path>
<path d="M505.294 136.93L526.867 137.15C527.747 137.15 528.466 136.373 528.48 135.391C528.48 134.408 527.791 133.601 526.911 133.601L505.338 133.381C504.459 133.381 503.74 134.159 503.725 135.141C503.725 136.124 504.415 136.93 505.294 136.945V136.93Z" fill="#1C0A76"></path>
<path d="M505.25 140.509L526.823 140.729C527.703 140.729 528.422 139.951 528.436 138.969C528.436 137.986 527.747 137.18 526.867 137.165L505.294 136.945C504.415 136.945 503.696 137.722 503.681 138.705C503.681 139.687 504.371 140.494 505.25 140.509Z" fill="#572EFF"></path>
<path d="M505.207 144.072L526.779 144.292C527.659 144.292 528.378 143.515 528.392 142.533C528.392 141.55 527.703 140.743 526.823 140.729L505.251 140.494C504.371 140.494 503.652 141.271 503.637 142.254C503.637 143.237 504.327 144.043 505.207 144.058V144.072Z" fill="#1C0A76"></path>
<path d="M521.661 147.812L510.251 147.695C508.286 147.68 506.702 146.067 506.732 144.102L525.269 144.307C525.254 146.272 523.641 147.856 521.661 147.827V147.812Z" fill="#572EFF"></path>
<path d="M516.572 47.5011C515.663 47.2811 515.003 46.4599 515.018 45.492L515.15 33.9503C515.15 32.8211 516.088 31.9119 517.232 31.9119C518.361 31.9265 519.271 32.8504 519.271 33.9943L519.153 45.536C519.153 46.6652 518.215 47.5745 517.071 47.5745C516.909 47.5745 516.748 47.5451 516.602 47.5158L516.572 47.5011Z" fill="#FF5EA6"></path>
<path d="M497.038 51.138C496.539 51.006 496.07 50.698 495.777 50.2141L489.617 40.1976C489.031 39.2297 489.324 37.9685 490.292 37.3672C491.26 36.7659 492.521 37.0739 493.122 38.0418L499.282 48.0583C499.883 49.0262 499.575 50.2874 498.607 50.8887C498.123 51.1967 497.551 51.2553 497.038 51.138Z" fill="#FF5EA6"></path>
<path d="M483.766 66.2288C483.648 66.1995 483.531 66.1555 483.414 66.1115L472.664 61.2573C471.623 60.788 471.168 59.5707 471.638 58.5442C472.107 57.5176 473.324 57.0336 474.351 57.5176L485.1 62.3718C486.127 62.8411 486.596 64.0583 486.127 65.0849C485.716 65.9942 484.704 66.4635 483.766 66.2288Z" fill="#FF5EA6"></path>
<path d="M469.203 90.7786C468.338 90.5586 467.678 89.796 467.649 88.8427C467.605 87.7135 468.499 86.7603 469.628 86.7309L479.381 86.4083C480.51 86.3643 481.463 87.2589 481.507 88.3881C481.537 89.5174 480.657 90.4706 479.513 90.4999L469.76 90.8226C469.57 90.8226 469.379 90.8079 469.203 90.7639V90.7786Z" fill="#FF5EA6"></path>
<path d="M537.47 51.578C537.25 51.5193 537.045 51.4313 536.84 51.314C535.886 50.698 535.608 49.4222 536.224 48.4836L542.603 38.5991C543.219 37.6459 544.495 37.3672 545.448 37.9832C546.401 38.5991 546.68 39.875 546.064 40.8136L539.685 50.698C539.201 51.4606 538.292 51.7833 537.47 51.578Z" fill="#FF5EA6"></path>
<path d="M550.42 66.9474C549.818 66.8008 549.291 66.3755 549.027 65.7595C548.587 64.7183 549.071 63.5157 550.112 63.0611L560.949 58.4415C561.991 58.0016 563.193 58.4855 563.648 59.5268C564.088 60.568 563.604 61.7706 562.563 62.2252L551.725 66.8448C551.3 67.0208 550.845 67.0501 550.434 66.9474H550.42Z" fill="#FF5EA6"></path>
<path d="M554.687 91.277C553.749 91.0424 553.074 90.1771 553.133 89.1799C553.192 88.0506 554.16 87.1854 555.289 87.244L565.041 87.772C566.17 87.8306 567.036 88.7985 566.977 89.9278C566.918 91.057 565.95 91.9223 564.821 91.8636L555.069 91.3357C554.937 91.3357 554.805 91.3063 554.687 91.277Z" fill="#FF5EA6"></path>
<path d="M154.895 548.513L166.73 553.485C159.427 566.126 156.817 578.181 177.421 578.181C186.91 578.181 189.271 589.576 189.271 589.576H140.01C140.01 589.576 135.112 587.582 142.21 576.069C149.924 563.56 154.895 548.513 154.895 548.513Z" fill="#FFD2A7"></path>
<path d="M157.564 579.003C160.659 576.128 157.227 570.673 161.597 570.423C162.536 575.116 167.009 578.196 177.436 578.196C186.925 578.196 189.286 589.591 189.286 589.591H140.025C140.025 589.591 135.42 587.728 141.594 577.125C146.756 577.125 152.901 583.329 157.564 578.988V579.003Z" fill="#1C0A75"></path>
<path d="M159.031 314.528C178.551 344.841 221.784 438.201 222.136 442.527C222.561 447.645 211.841 452.91 193.172 440.958C177.583 430.971 90.5439 349.211 122.793 312.225C134.628 298.645 153.092 305.303 159.031 314.528Z" fill="#FF5EA6"></path>
<path d="M129.891 306.682C139.071 388.764 204.054 444.008 208.204 447.645C204.024 446.736 198.994 444.683 193.172 440.958C177.583 430.97 90.5439 349.211 122.793 312.225C124.978 309.732 127.383 307.914 129.891 306.682Z" fill="#DB5A9B"></path>
<path d="M98.4778 338.285C102.613 319.719 112.879 305.582 116.296 301.798C121.913 295.595 137.18 292.559 142.958 304.599C148.751 316.639 150.789 324.251 148.369 348.903C145.935 373.556 131.49 412.521 128.336 430.457C126.342 441.823 97.0846 456.327 99.739 429.841C102.393 403.356 93.6822 359.77 98.4631 338.3L98.4778 338.285Z" fill="#FF5EA6"></path>
<path d="M222.136 442.527C225.142 450.153 168.006 557.357 168.006 557.357C156.098 556.814 151.42 550.229 151.42 550.229C151.42 550.229 165.792 517.731 169.634 496.613C186.749 402.52 220.01 437.174 222.121 442.542L222.136 442.527Z" fill="#FF5EA6"></path>
<path d="M132.897 167.375C139.717 166.173 146.228 170.734 147.431 177.553C148.633 184.373 144.072 190.884 137.253 192.087C130.434 193.289 123.922 188.728 122.72 181.909C121.517 175.089 126.078 168.578 132.897 167.375Z" fill="#1C0A76"></path>
<path d="M124.479 225.656C128.952 213.293 121.385 214.73 125.359 198.847C129.334 182.965 136.461 180.002 143.163 176.468C160.146 167.507 183.522 186.176 179.694 203.438C176.16 219.408 178.8 242.125 182.012 255.514C185.223 268.918 179.064 307.635 145.216 303.47C111.369 299.32 106.998 283.481 108.274 262.583C109.799 237.579 120.007 238.018 124.479 225.656Z" fill="#1C0A76"></path>
<path d="M212.809 296.328C213.615 296.504 214.393 296.577 215.155 296.548C222.341 296.343 227.064 287.793 221.124 281.531C215.742 275.87 184.329 251.921 176.952 244.662C168.989 236.816 152.534 246.202 159.339 256.937C160.791 259.239 171.174 267.775 182.481 276.325C195.166 285.916 209.011 295.507 212.809 296.328Z" fill="#FFBC8E"></path>
<path d="M217.34 282.205C215.155 280.211 212.779 278.466 210.506 276.574C206.033 272.834 202.118 268.479 197.777 264.578C189.315 256.996 176.219 247.302 164.252 249.707C161.011 250.367 158.195 251.76 155.981 253.725C158.576 246.73 173.168 240.981 176.967 244.589C184.461 251.701 212.296 273.318 217.678 278.994C219.57 280.988 220.567 283.335 220.816 285.637C219.687 284.464 218.528 283.305 217.34 282.22V282.205Z" fill="#FFBC8E"></path>
<path d="M212.809 296.328C213.615 296.504 214.393 296.577 215.155 296.548C214.129 295.375 212.516 293.937 209.89 292.295C197.44 284.508 195.21 269.417 195.21 269.417L182.481 276.31C195.166 285.901 209.011 295.492 212.809 296.313V296.328Z" fill="#FFBC8E"></path>
<path d="M187.174 281.619C173.212 271.954 161.333 259.093 159.618 256.394C152.828 245.674 168.989 236.831 176.952 244.677C181.073 248.739 192.879 257.318 203.306 265.707C196.692 275.767 190.078 280.519 187.174 281.619Z" fill="url('#paint8_linear_91_6350')"></path>
<path d="M171.907 245.894C165.777 243.577 162.815 247.082 159.236 250.631C159.222 242.095 170.162 237.989 176.952 244.677C181.073 248.739 192.879 257.318 203.306 265.707C203.276 265.751 203.247 265.795 203.218 265.839C193.935 263.551 180.692 249.208 171.907 245.894Z" fill="#C8D3FB"></path>
<path d="M122.353 282.044C122.91 276.735 122.118 271.558 121.37 252.699C121.077 245.337 120.124 239.426 122.558 236.713C125.638 233.282 132.721 234.191 137.664 235.291C146.595 237.285 147.108 214.774 147.108 214.774C149.484 210.58 164.149 214.686 160.263 228.911C156.362 243.137 172.025 239.661 174.811 243.078C178.624 247.771 176.483 255.676 176.468 260.119C176.453 264.563 181.63 271.001 179.035 278.612C176.439 286.224 169.121 284.302 169.121 284.302C165.806 286.737 162.125 291.708 161.011 295.551C158.4 304.482 160.864 314.528 160.864 314.528C132.076 320.174 112.029 305.113 112.029 305.113C112.029 305.113 120.696 297.956 122.368 282.059L122.353 282.044Z" fill="#FFD2A7"></path>
<path d="M137.664 235.291C146.595 237.285 147.108 214.774 147.108 214.774C148.428 212.442 153.532 212.677 157.154 215.786C154.221 215.889 144.879 226.609 144.879 245.337C144.879 250.66 149.675 254.869 154.499 256.981C154.499 256.981 121.488 255.47 121.385 252.699C121.092 245.337 132.721 234.191 137.664 235.291Z" fill="#FFBC8E"></path>
<path d="M122.368 282.044C122.925 276.735 122.133 271.558 121.385 252.698C121.092 245.336 120.139 239.426 122.573 236.713C125.345 233.619 131.343 234.044 136.109 234.953C139.159 248.24 148.941 257.347 158.18 255.397C164.12 254.136 168.417 248.607 170.03 241.26C172.171 241.685 174.019 242.095 174.811 243.078C178.624 247.771 176.483 255.69 176.468 260.119C176.453 264.563 181.63 271.001 179.02 278.612C176.424 286.223 169.121 284.317 169.121 284.317C165.806 286.751 162.125 291.723 161.011 295.551C158.4 304.482 160.864 314.528 160.864 314.528C132.076 320.174 112.029 305.112 112.029 305.112C112.029 305.112 120.696 297.956 122.368 282.059V282.044Z" fill="url('#paint9_linear_91_6350')"></path>
<path d="M122.368 282.044C122.925 276.735 122.133 271.558 121.385 252.699C121.092 245.337 120.139 239.426 122.573 236.713C125.242 233.722 130.932 234.015 135.625 234.865C135.566 235.657 135.522 236.479 135.522 237.285C135.522 248.064 133.381 254.84 141.887 260.149L144.248 262.818C138.016 262.818 132.971 268.64 133.191 274.682C133.337 279.125 136.065 282.762 139.805 284.552V297.501C139.805 307.327 129.7 313.956 120.74 309.952C115.167 307.459 112.029 305.098 112.029 305.098C112.029 305.098 120.696 297.941 122.368 282.044Z" fill="#C8D3FB"></path>
<path d="M143.192 204.772C143.192 204.772 145.612 185.238 151.493 183.39C157.388 181.542 162.272 180.985 166.672 186.91C166.672 186.91 171.423 191.969 171.687 199.243C171.687 199.243 181.205 204.582 174.958 216.857C168.725 229.131 152.813 225.201 145.994 216.681C145.994 216.681 138.529 221.051 135.83 213.792C133.132 206.547 137.957 205.08 143.192 204.772Z" fill="#FFD2A7"></path>
<path d="M143.192 204.772C143.192 204.772 145.612 185.238 151.493 183.39C156.215 181.909 160.278 181.264 163.973 184.109C159.735 183.977 149.044 203.071 151.053 212.618C153.092 222.327 164.736 226.022 172.142 219.98C173.036 219.262 173.843 218.44 174.576 217.56C168.094 228.985 152.681 225.054 145.994 216.695C145.994 216.695 138.529 221.065 135.83 213.806C133.132 206.561 137.957 205.095 143.192 204.787V204.772Z" fill="#FFBC8E"></path>
<path d="M171.863 188.479C171.863 188.479 162.081 189.124 155.526 184.989C148.971 180.853 146.389 182.393 146.389 182.393C161.04 171.673 171.863 188.479 171.863 188.479Z" fill="#1C0A76"></path>
<path d="M151.728 182.261C154.763 183.772 156.743 189.99 151.757 198.598C146.771 207.207 150.862 215.419 144.542 211.87C138.221 208.307 137.986 207.529 136.05 201.165C134.115 194.8 145.04 178.947 151.728 182.276V182.261Z" fill="#1C0A76"></path>
<path d="M75.1159 578.24C65.2608 570.204 68.3845 551.681 71.9482 541.548L58.7934 538.424C58.7934 538.424 53.4112 559.278 48.4103 570.306C43.4094 581.335 47.0318 581.496 47.0318 581.496L76.7438 585.793C76.7438 585.793 84.971 586.277 75.1159 578.255V578.24Z" fill="#FFD2A7"></path>
<path d="M75.1159 578.24C72.1388 575.82 70.203 572.286 68.9858 568.238C68.2525 565.437 59.688 564.938 56.7842 568.707C56.7842 568.707 52.8686 569.778 49.3342 568.033C49.0409 568.825 48.7329 569.572 48.4103 570.291C43.4094 581.319 47.0318 581.481 47.0318 581.481L67.7539 589.415L88.828 589.341C88.828 589.341 88.52 582.933 81.466 579.97C79.2222 579.032 77.5064 580.176 75.1306 578.225L75.1159 578.24Z" fill="#1C0A75"></path>
<path d="M120.637 449.39C122.573 444.287 124.245 440.767 126.562 435.825C136.432 414.809 106.089 416.877 103.317 422.362C99.8417 429.24 99.6364 433.757 86.3202 456.826C73.0041 479.879 69.983 494.926 67.1086 508.741C64.2342 522.57 56.7842 539.083 56.7842 539.083C65.4954 548.337 71.5816 546.944 71.5816 546.944C71.5816 546.944 85.235 522.013 97.0113 502.435C108.802 482.857 116.12 461.342 120.622 449.405L120.637 449.39Z" fill="#FF5EA6"></path>
<path d="M102.98 347.114V308.046L266.777 237.212V282.968L152.476 327.418L266.777 372.353V418.432L102.98 347.114Z" fill="#6A5FFF"></path>
<path d="M245.161 282.674C245.161 282.674 251.819 277.131 255.72 280.181C259.635 283.217 260.149 285.608 256.438 290.447C252.728 295.287 245.322 301.769 241.025 297.531C236.728 293.292 235.232 288.218 245.146 282.674H245.161Z" fill="#FFD2A7"></path>
<path d="M141.154 240.673C145.084 250.381 164.707 285.314 167.42 292.75C170.749 301.827 160.835 308.266 153.737 303.177C147.68 298.836 120.08 251.085 119.156 245.293C117.147 232.578 136.901 230.173 141.139 240.673H141.154Z" fill="#FFD2A7"></path>
<path d="M163.651 291.855C162.419 289.127 160.908 286.546 159.559 283.862C156.89 278.568 155.013 272.951 152.534 267.569C147.709 257.113 139.423 242.814 127.325 240.248C124.04 239.558 120.857 239.72 118.012 240.673C123.248 235.203 139.13 235.716 141.213 240.6C145.319 250.235 162.536 281.545 165.264 288.981C166.217 291.606 166.202 294.187 165.513 296.416C164.926 294.876 164.325 293.336 163.651 291.826V291.855Z" fill="#FFBC8E"></path>
<path d="M162.331 288.409C176.38 288.467 206.165 300.024 214.246 297.34C222.327 294.656 228.633 288.629 233.12 293.439C237.711 298.352 237.124 303.763 235.613 309.483C234.616 313.237 227.342 311.756 218.044 309.189C208.717 306.608 175.031 308.134 161.011 306.183C147.108 304.247 152.842 288.379 162.345 288.423L162.331 288.409Z" fill="#FFD2A7"></path>
<path d="M135.801 279.169C126.709 264.548 118.085 247.36 117.587 244.163C115.578 231.448 137.268 230.305 141.521 240.82C143.72 246.26 150.892 258.843 157.213 270.854C147.02 277.556 138.939 279.316 135.801 279.184V279.169Z" fill="url('#paint10_linear_91_6350')"></path>
<path d="M135.977 239.778C131.196 235.159 122.866 237.417 118.115 239.28C121.532 231.331 137.913 231.859 141.535 240.82C143.735 246.26 150.906 258.843 157.227 270.854C157.183 270.884 157.139 270.913 157.095 270.942C149.367 265.091 142.826 246.407 135.992 239.793L135.977 239.778Z" fill="#C8D3FB"></path>
<path d="M186.69 76.2891H286.737C294.671 76.2891 301.109 82.7271 301.109 90.6611V145.495C301.109 153.429 294.671 159.867 286.737 159.867H224.174L202.455 185.971C200.842 188.142 197.396 186.998 197.396 184.299L203.966 159.867H186.675C178.741 159.867 172.303 153.429 172.303 145.495V90.6611C172.303 82.7271 178.741 76.2891 186.675 76.2891H186.69Z" fill="#6A6AE8"></path>
<path d="M188.23 91.761V95.794H245.997L246.055 91.761H188.23Z" fill="white"></path>
<path d="M188.23 103.919V107.966H292.603L292.676 103.919H188.23Z" fill="white"></path>
<path d="M188.23 116.076V120.124H285.138L285.197 116.076H188.23Z" fill="white"></path>
<path d="M252.039 95.8086H269.872L269.945 91.761H252.112L252.039 95.8086Z" fill="white"></path>
<path d="M188.23 127.442V131.49H245.997L246.055 127.442H188.23Z" fill="white"></path>
<path d="M188.23 139.614V143.647H292.603L292.676 139.614H188.23Z" fill="white"></path>
<path d="M252.039 131.49H269.872L269.945 127.442H252.112L252.039 131.49Z" fill="white"></path>
</g>
<defs>
<linearGradient id="paint0_linear_91_6350" x1="170.221" y1="635.435" x2="510.779" y2="45.5652" gradientUnits="userSpaceOnUse">
<stop stop-color="#6A5FFF"></stop>
<stop offset="1" stop-color="#FF5EA6"></stop>
</linearGradient>
<linearGradient id="paint1_linear_91_6350" x1="-33.0704" y1="429.871" x2="788.306" y2="212.97" gradientUnits="userSpaceOnUse">
<stop stop-color="white"></stop>
<stop offset="1" stop-color="#D3DBEB"></stop>
</linearGradient>
<linearGradient id="paint2_linear_91_6350" x1="4.1943" y1="570.995" x2="825.571" y2="354.095" gradientUnits="userSpaceOnUse">
<stop stop-color="white"></stop>
<stop offset="1" stop-color="#D3DBEB"></stop>
</linearGradient>
<linearGradient id="paint3_linear_91_6350" x1="15.0466" y1="303.147" x2="292.94" y2="303.147" gradientUnits="userSpaceOnUse">
<stop stop-color="white"></stop>
<stop offset="1" stop-color="#D3DBEB"></stop>
</linearGradient>
<linearGradient id="paint4_linear_91_6350" x1="454.86" y1="270.37" x2="645.422" y2="270.37" gradientUnits="userSpaceOnUse">
<stop stop-color="white"></stop>
<stop offset="1" stop-color="#D3DBEB"></stop>
</linearGradient>
<linearGradient id="paint5_linear_91_6350" x1="384.481" y1="345.691" x2="384.481" y2="138.587" gradientUnits="userSpaceOnUse">
<stop stop-color="white" stop-opacity="0"></stop>
<stop offset="1" stop-color="white"></stop>
</linearGradient>
<linearGradient id="paint6_linear_91_6350" x1="498.358" y1="244.706" x2="527.645" y2="244.706" gradientUnits="userSpaceOnUse">
<stop stop-color="white"></stop>
<stop offset="1" stop-color="#D3DBEB"></stop>
</linearGradient>
<linearGradient id="paint7_linear_91_6350" x1="474.704" y1="201.009" x2="566.467" y2="212.846" gradientUnits="userSpaceOnUse">
<stop stop-color="#FFD000"></stop>
<stop offset="1" stop-color="#FF7400"></stop>
</linearGradient>
<linearGradient id="paint8_linear_91_6350" x1="208.937" y1="253.036" x2="152.417" y2="268.493" gradientUnits="userSpaceOnUse">
<stop stop-color="white"></stop>
<stop offset="0.95" stop-color="#D5DDEC"></stop>
<stop offset="1" stop-color="#D3DBEB"></stop>
</linearGradient>
<linearGradient id="paint9_linear_91_6350" x1="179.768" y1="275.034" x2="112.029" y2="275.034" gradientUnits="userSpaceOnUse">
<stop stop-color="white"></stop>
<stop offset="1" stop-color="#D3DBEB"></stop>
</linearGradient>
<linearGradient id="paint10_linear_91_6350" x1="150.453" y1="250.144" x2="121.699" y2="258.973" gradientUnits="userSpaceOnUse">
<stop stop-color="white"></stop>
<stop offset="1" stop-color="#D3DBEB"></stop>
</linearGradient>
<clipPath id="clip0_91_6350">
<rect width="681" height="681" fill="white"></rect>
</clipPath>
</defs>
</svg>
