<svg width="681" height="681" fill="none" xmlns="http://www.w3.org/2000/svg"><g clip-path="url('#clip0_91_6350')"><path opacity=".25" d="M340.5 681C528.553 681 681 528.553 681 340.5S528.553 0 340.5 0 0 152.447 0 340.5 152.447 681 340.5 681Z" fill="url('#paint0_linear_91_6350')"/><path d="M620.007 276.237C603.259 191.676 543.439 122.03 463.19 90.573 281.149 19.226 98.918 74.148 64.029 271.074 30.768 458.703 184.857 391.99 318.825 537.353c116.662 126.577 349.827 12.275 302.34-254.972a252.653 252.653 0 0 0-1.158-6.144Z" fill="url('#paint1_linear_91_6350')"/><path d="M130.624 461.196c56.462 22.79 95.472 7.245 141.184 63.911 45.726 56.667 31.545 68.986-55.377 41.855C97.29 529.771 77.976 439.946 130.624 461.196Z" fill="url('#paint2_linear_91_6350')"/><mask id="mask0_91_6350" style="mask-type:luminance" maskUnits="userSpaceOnUse" x="59" y="60" width="569" height="529"><path d="M620.007 276.237C603.259 191.676 543.439 122.03 463.19 90.573 281.149 19.226 98.918 74.148 64.029 271.074 30.768 458.703 184.857 391.99 318.825 537.353c116.662 126.577 349.827 12.275 302.34-254.972a252.653 252.653 0 0 0-1.158-6.144Z" fill="#fff"/></mask><g mask="url('#mask0_91_6350')"><path d="M292.955 124.993H15.047v356.28h277.908v-356.28Z" fill="url('#paint3_linear_91_6350')"/><mask id="mask1_91_6350" style="mask-type:luminance" maskUnits="userSpaceOnUse" x="14" y="121" width="279" height="359"><path d="M14.739 479.733h278.157v-358.7H14.739v358.7Z" fill="#fff"/></mask><g mask="url('#mask1_91_6350')"><path d="M182.716 401.42c-.792-4.282-4.781-5.499-3.769-10.5.571-2.831 2.199-4.209.337-7.172-.968-1.539-2.449-2.683-4.018-3.681 2.082-1.51 3.021-4.355 2.097-6.819-.25-.675-1.1-1.012-1.657-.44a27.196 27.196 0 0 0-3.681 4.722c-.147-1.1-.294-2.199-.558-3.27-.22-.895-.806-1.687-1.789-1.745-1.76-.088-1.789 1.598-1.437 3.138-3.256-2.2-6.438-4.502-9.694-6.673-1.232-.821-2.581-1.627-3.96-2.419.66-.514 1.159-1.335 1.35-2.127.469-1.833-.939-3.402-2.757-2.405-1.056.572-1.995 1.393-2.816 2.317-2.097-.997-4.268-1.921-6.482-2.654.645-.44 1.217-.983 1.554-1.643.616-1.232-.058-2.596-1.437-2.786-1.452-.205-2.801.777-3.828 1.686-.498.44-.909.924-1.29 1.452-7.934-1.525-15.883-.264-21.676 6.717-.337.411-.645.792-.938 1.159-.469-1.555-1.408-2.89-2.787-3.887-.264-.19-.513-.22-.733-.146-.454-.147-.982.102-1.217.542-.235.22-.381.528-.323.924.279 1.745.866 3.373 1.672 4.898a7.102 7.102 0 0 1-1.642.103c-1.555-.073-2.655-.396-4.209.059-2.068.66-3.828 2.229-5.001 4.091a11.392 11.392 0 0 0-.939 1.819c-2.816 7.186 3.212 13.639 8.77 17.261a.794.794 0 0 0 .836.059c7.641 4.604 16.029 11.072 24.96 12.304 1.702.234 3.476-.22 5.104 0 .572.058 5.118 1.408 5.617 1.862.469.411.836 1.672 1.202 2.244 1.643 2.537 3.989 4.224 6.805 5.265 8.814 3.241 26.471 1.202 28.378-9.709.264-1.363.234-2.874-.059-4.546h.015Z" fill="#D5DDFB"/><path d="M182.466 405.571c-.205-.235-.66-.382-.953-.264-6.893 2.83-20.693 9.649-25.723 1.202-.807-1.393-.601-2.244-2.127-3.138-.953-.572-2.346-.557-3.358-1.085-2.845-1.526-4.326-4.371-4.502-7.48-.044-.601-.616-1.188-1.247-.953-2.962 1.027-6.335 2.376-9.488 2.2-4.532-.235-9.327-2.992-8.697-8.242.074-.631-.689-1.115-1.246-.953-10.178 2.991-20.121-2.493-23.098-12.026a11.35 11.35 0 0 0-.939 1.819c-2.816 7.186 3.212 13.638 8.77 17.261a.792.792 0 0 0 .836.058c7.641 4.605 16.029 11.073 24.96 12.305 1.702.234 3.476-.22 5.104 0 .572.058 5.118 1.407 5.617 1.862.469.411.836 1.672 1.202 2.244 1.643 2.537 3.989 4.223 6.805 5.265 8.814 3.241 26.471 1.202 28.378-9.709-.103-.132-.206-.249-.323-.396l.029.03Z" fill="#C8D3FB"/><path d="M115.138 384.027a1.043 1.043 0 0 0-.294-.22c.03-.19.044-.381.088-.572.25-1.246-1.672-1.774-1.906-.528-.631 3.212.014 6.438 2.009 9.049.499.66 1.54.645 1.818-.235.807-2.684.162-5.426-1.701-7.494h-.014ZM139.863 393.296c-.293-.22-.557-.22-.806-.118a19.641 19.641 0 0 1-1.071-3.211c-.293-1.247-2.214-.719-1.921.528.763 3.226 2.229 6.115 4.312 8.696.454.557 1.54.264 1.657-.44.381-2.2-.381-4.106-2.171-5.441v-.014ZM159.002 403.327c-2.083 2.375-4.591 6.467-1.291 9.034.557.439 1.452.352 1.657-.44.484-1.907.558-3.784.279-5.72-.015-.132-.088-.235-.161-.337.308-.411.63-.807.924-1.129.835-.954-.558-2.362-1.408-1.408Z" fill="#D5DDFB"/><path d="M131.02 368.922c-3.153-2.171-3.93 6.76-3.842 8.344-.631.983.689 2.288 1.452 1.32 1.246-1.599 2.2-3.358 2.713-5.324.308-1.187.968-3.461-.308-4.34h-.015ZM147.416 381.505s.044-.044.059-.074c1.892-2.992 2.918-6.233 3.167-9.767.03-.44-.337-.836-.733-.953-2.244-.704-3.241 2.009-3.813 3.71-.968 2.86-1.012 5.852-.425 8.785.249 1.246 2.17.718 1.921-.528-.073-.396-.147-.777-.191-1.173h.015Z" fill="#C8D3FB"/><path d="M151.918 388.265c-.762-.645-1.789.088-1.716.822a.946.946 0 0 0-.117.484c.073 1.877.88 3.622 2.376 4.781.484.381 1.217.41 1.554-.206 1.276-2.332-.381-4.414-2.111-5.881h.014Z" fill="#D5DDFB"/><path d="M174.782 390.494c.102-1.906-1.746-2.537-3.285-1.921-1.438.572-2.802 1.452-4.092 2.405-.968.425-1.921.909-2.83 1.452-.792.469-.528 1.951.498 1.848h.132c.352.264.851.337 1.276-.029 0 0 .029-.015.044-.03 3.182-.058 8.037.103 8.257-3.71v-.015Z" fill="#C8D3FB"/><path d="M57.488 369.42c-1.701-3.754-6.16-9.268-10.632-8.99-.47.015-.953.103-1.452.22-1.584.337-3.27 1.085-4.884 2.024.162-.543.323-1.085.528-1.628.484-1.188-1.437-1.701-1.92-.528a18.827 18.827 0 0 0-1.1 3.813 3.339 3.339 0 0 1-.25.176c-.205-1.364-.367-3.094-1.276-4.033-.733-.748-1.98-.748-2.625.118-.792 1.07-.235 2.507.205 3.593.382.909.792 1.818 1.247 2.698-.455.543-.865 1.085-1.188 1.628-1.012 1.73-1.203 3.432-1.98 4.839l-2.288-2.375c-.674-.704-1.936.014-1.657.967a12.925 12.925 0 0 0 1.672 3.52c-.22.103-.396.22-.645.323-2.024.777-3.183.718-4.664 2.522-1.686 2.039-3.138 5.104-3.857 8.213-.616 2.654-.69 5.353 0 7.538.69 2.156 2.083 4.062 4.15 5.045.851.396 1.643.498 2.581.689 2.127 0 4.107.631 5.955 1.863.322.439.689.806 1.129 1.129 10.324 3.431 11.058-15.619 18.36-19.153.44-.22.558-.601.485-.953 3.578-3.667 6.482-7.993 4.106-13.273v.015Z" fill="#D5DDFB"/><path d="M57.488 369.42c-1.701-3.754-6.16-9.268-10.632-8.989-.47.014-.953.102-1.452.22 0 .014.015.044.044.058 4.56 5.5 5.045 13.61-.073 19.021-1.863 1.965-5.397 2.904-6.087 5.749-.293 1.188.103 2.405.323 3.549.792 4.312-3.798 5.294-7.245 5.807-3.549.543-7.743.147-9.81-3.329-.895-1.51-1.174-3.314-1.805-4.986-.616 2.655-.689 5.353 0 7.538.69 2.156 2.083 4.063 4.15 5.045.851.396 1.643.499 2.582.689 2.126 0 4.106.631 5.954 1.863.323.44.69.806 1.13 1.129 10.324 3.432 11.057-15.619 18.36-19.153.44-.22.557-.601.484-.953 3.578-3.666 6.482-7.993 4.106-13.272l-.029.014Z" fill="#C8D3FB"/><path d="M199.361 294.759c.542-.264 1.07-.528 1.466-.997 2.361-2.787-.542-4.928-2.654-6.409l-7.919-5.588c-2.332-2.859-4.679-5.572-6.776-8.022 2.86-5.279 3.667-10.295 3.036-14.944 2.053-3.109 2.566-6.892 1.393-10.441-.953-2.904-5.221-1.965-5.089.674-1.173-1.862-2.581-3.637-4.165-5.309 1.481-1.261 2.537-3.754 2.889-5.088.132-.499-.161-1.115-.689-1.218-1.437-.308-2.493.455-3.402 1.526-.088.102-.162.205-.25.308-.22.22-.41.469-.586.718l-.836 1.012c-6.262-5.514-14.358-9.679-21.984-12.026-.366-.117-.718-.234-1.085-.351 1.217-2.068 1.599-4.473 1.041-6.893-.175-.763-1.129-.909-1.657-.44-1.349 1.217-2.258 2.728-2.786 4.385-.469-1.745-1.115-3.461-2.053-5.089-.279-.469-.616-.777-.997-.968a24.793 24.793 0 0 0-1.951-2.581c-.455-.528-1.203-.279-1.555.205a7.566 7.566 0 0 0-1.525 4.708l-.176 1.364c-3.329-2.127-6.379-4.752-9.811-8.345a44.639 44.639 0 0 0-4.311-3.857c2.053-1.393-.294-6.101-.983-7.655-.323-.733-1.349-.557-1.716 0-1.012 1.496-1.481 3.08-1.598 4.707a37.324 37.324 0 0 0-6.174-2.933c-9.68-3.607-20.15-3.241-29.918-.396.161-.718.03-1.466-.572-2.053-.924-.924-1.892-.146-2.39.733-.528.939-1.041 1.878-1.555 2.831a73.878 73.878 0 0 0-3.534 1.437c-4.18 1.848-8.066 3.212-12.011 4.194.41-1.114.675-2.17.763-2.669.19-.982.572-2.537-.484-3.182-.998-.616-2.332.293-3.124.909-1.98 1.555-2.933 3.813-3.52 6.189-2.61.381-5.323.631-8.242.733-2.933.103-5.851.44-8.726.924.851-2.229.851-5.353-1.407-6.614-2.61-1.452-5.368 1.76-6.952 3.402-1.965 2.054-3.578 4.4-4.927 6.893a65.694 65.694 0 0 0-16.425 9.327c-1.086.866-2.054 1.599-3.022 2.347-2.595-2.919-5.748-5.06-9.605-6.189-2.992-.88-4.341 3.388-1.907 4.722 1.525 2.097 3.3 3.916 5.368 5.397-3.373 1.511-7.054 1.892-12.466.543-19.02-4.693-31.252.836-39.596 12.289a10.21 10.21 0 0 0-.455-1.745c-.264-.733-1.408-1.071-1.819-.235a9.734 9.734 0 0 0-.894 2.875 11.847 11.847 0 0 0-2.01-2.009c-.058-.074-.131-.118-.204-.162-.103-.073-.191-.161-.294-.234-.293-.22-.704-.162-1.012.044-1.642.718-2.42 2.229-2.669 3.989-1.408 4.297-.69 8.652 1.51 12.436a76.69 76.69 0 0 0-1.202 3.388c-1.906-1.482-4.15-2.376-6.614-2.655-.513-.059-.806.235-.91.601-.234.294-.322.704-.087 1.086a9.006 9.006 0 0 0 6.467 4.15l.088.059c-.25.792-.498 1.554-.733 2.361-.103.058-.205.058-.264.058-9.796 4.459-13.844 9.914-12.246 20.898.88 5.969 1.408 12.715 4.092 17.995-3.857 3.769-7.245 7.714-9.444 12.216l-.352-.264c-.308-1.144-1.379-1.672-2.479-1.598-2.214-.543-3.96 2.287-2.596 4.062-.058 2.786.338 5.631 1.628 7.963l-5-.484c-.94-.088-1.203 1.115-.705 1.701 1.878 2.215 4.517 3.447 7.392 3.535a32.151 32.151 0 0 0 4.091 11.263c3.784 6.54 9.591 11.981 16.03 15.354 11.41 6.013 23.655 3.945 35.842 1.716 10.383-1.862 17.891-9.239 21.367-18.771 7.831 4.458 17.07 1.29 20.957-6.541 8.403 1.862 16.542-.733 22.409-7.362 4.414-4.986 4.766-9.591 6.848-15.619 2.068-5.91.367-4.047 6.013-4.722 2.962-.411 5.866-.308 8.77-.836 7.465-1.305 12.715-4.62 19.446-7.465 3.886-1.613 9.445-5.396 14.108-1.979 1.35.982 2.537 4.78 3.579 6.218 3.167 4.209 7.156 7.464 11.937 9.649 7.362 3.374 16.293 1.144 22.511 6.336 9.342 7.787 15.722 17.422 29.155 18.156 7.568.41 12.612-1.922 16.909-6.072 1.965-1.98 3.784-4.253 5.661-6.893 5.91-8.461 17.584-7.992 16.865-20.751-.249-4.59-2.024-9.269-4.561-13.829l.03-.103Z" fill="#D5DDFB"/><path d="M169.942 342.069c4.708-.703 8.286-2.771 11.468-5.836-.513-1.658-1.51-3.212-2.903-4.62-3.271-3.27-8.096-3.886-12.246-5.294-13.331-4.62-13.844-16.865-13.433-28.994.058-1.818-1.716-2.801-3.271-2.537a44.392 44.392 0 0 1-19.915-.572c-.367-.308-.778-.572-1.144-.938-1.921-1.921-.836-3.989-.983-6.38v-.102s0-.103-.058-.206v-.058c0-.836-.367-1.349-.939-1.716-1.555-1.349-4.517-.777-4.253 1.76a.574.574 0 0 1 .059.308c-.162 1.642-1.35 2.376-2.86 2.625-1.569-.528-2.845-1.731-4.048-3.007-1.114-1.202-1.73-2.243-1.892-3.93-.102-1.07-.058-2.038-.308-3.094-.073-.308-.308-.484-.571-.602 0-.821-1.276-1.363-1.863-.483-1.041 1.554-1.232 3.358-.748 4.986-.381-.367-.763-.704-1.129-1.085-2.332-2.391-4.048-5.705-7.01-7.465-6.233-3.784-12.759-4.209-17.892-10.427-.88-1.085-2.742-.939-3.622 0-3.417 3.314-7.42 7.054-11.835 10.324-2.963 0-5.705-.777-7.157-3.417-1.554-2.801-5.543-.572-4.62 2.127-.102.674.06 1.408.778 2.023 4.047 3.373-3.27 6.483-5.705 7.157-.47.103-.777.308-1.041.572-6.116.88-12.246-.572-17.79-6.174-1.085-1.041-2.64-.939-3.68 0-7.01 5.969-6.644 14.211-11.571 20.957-3.843 3.065-17.79-.983-16.19 1.921a11.538 11.538 0 0 0 5.088 4.663c-1.862.514-3.68 1.086-5.397 1.922-7.464 3.739-10.427 9.957-20.546 4.825-1.35-1.35-2.596-2.904-3.417-4.767-1.408-3.006-5.91-.366-4.517 2.64.88 1.863 2.068 3.52 3.417 5.089.733 13.844.367 29.257-14.005 36.37-12.04 5.91-25.049 2.698-36.678-2.493 3.783 6.541 9.59 11.981 16.029 15.355 8.462 4.458 17.378 4.472 26.398 3.27a16.695 16.695 0 0 0-.91 1.936c-.337.894.646 1.408 1.335 1.114.278.191.645.279 1.026.103 1.907-.88 3.432-2.317 4.473-4.092 1.174-.205 2.347-.41 3.505-.63a26.55 26.55 0 0 0 11.542-5.089c.41.909 1.07 1.554 2.185 1.393a1.48 1.48 0 0 0 .69-.293c.469-.03.938-.338.967-.939.059-1.232.03-2.449-.029-3.666 2.596-2.904 4.649-6.365 6.027-10.163 7.832 4.458 17.07 1.29 20.957-6.541 2.39.528 4.767.66 7.069.484.044.675.161 1.349.425 1.994.206.499.66.719 1.1.66.352.308.85.382 1.232-.088a9.581 9.581 0 0 0 1.774-3.402c4.034-1.203 7.744-3.534 10.809-7.01 4.414-4.986 4.766-9.591 6.849-15.619 2.067-5.91.366-4.047 6.012-4.722 2.963-.41 5.867-.308 8.77-.836 3.77-.66 6.952-1.818 10.06-3.182 1.1.645 2.26 1.173 3.506 1.51.63.176 1.232-.308 1.26-.953.03-.777-.366-1.408-1.011-1.833a2.317 2.317 0 0 0-.484-.205c.91-.426 1.833-.866 2.772-1.306.132.338.293.66.454.983.44.821 1.526.499 1.819-.235.25-.63.367-1.29.425-1.95.22-.088.425-.191.645-.293 3.887-1.614 9.445-5.397 14.109-1.98 1.349.982 2.537 4.781 3.578 6.218a30.77 30.77 0 0 0 10.412 8.828 29.415 29.415 0 0 0 3.505 5.441c.44.543 1.555.279 1.658-.44a8.465 8.465 0 0 0-.118-2.991c2.743.689 5.602.938 8.389 1.305-.132 1.54.396 3.094 1.584 4.223.513.484 1.495.323 1.657-.44a9.512 9.512 0 0 0 .132-3.211c2.61.557 5.089 1.466 7.23 3.255 9.224 7.7 15.589 17.203 28.715 18.112 1.979 1.276 4.135 2.185 6.496 2.625.866.162 1.804-.968.968-1.657a19.913 19.913 0 0 0-1.584-1.159l.015.044Z" fill="#C8D3FB"/><path d="M95.911 269.285c-.102-.205-.293-.322-.528-.396v-.044c.396-1.217-1.51-1.745-1.906-.528-.88 2.669-1.32 6.013.454 8.198.03.044.074.088.118.132.41.47.88.909 1.525 1.232.513.264 1.35.073 1.452-.586.44-2.802.073-5.427-1.13-8.008h.015ZM73.723 268.567c-.734-.367-1.804.454-1.305 1.393.923 1.76 2.463 3.006 4.34 3.652.763.264 1.364-.528 1.218-1.218-.426-2.097-2.186-3.563-4.253-3.813v-.014ZM61.946 280.02a25.174 25.174 0 0 0-6.438-6.086c-1.07-.704-2.068 1.012-.997 1.716.91.601 1.775 1.276 2.581 1.995-.117-.03-.234-.088-.352-.118h-.132c-.572-.117-1.202.176-1.129.91.015.176 0 .352.03.528-.294-.015-.573.073-.763.278 0-.088 0-.176-.015-.278-.03-1.144-1.584-1.306-1.95-.264-1.218 3.461-1.056 7.435 2.273 9.62.557.367 1.276 0 1.452-.587a22.511 22.511 0 0 0 1.085-6.731 5 5 0 0 0 3.769.469c.557-.161.982-.938.586-1.452ZM138.661 294.246c-.147-.733-1.027-1.276-1.599-.543-1.774 2.288-3.637 5.588-1.085 8.066.572.557 1.393.249 1.657-.44a29.175 29.175 0 0 0 1.555-6.013 1.021 1.021 0 0 0-.543-1.07h.015ZM154.587 308.28c-.146-.234-.41-.396-.777-.352-1.32.118-2.61.646-3.27 1.863-.602 1.129-.382 2.464.454 3.388.367.396 1.042.366 1.408 0a17.865 17.865 0 0 0 2.699-3.505c.352-.602 0-1.174-.499-1.379l-.015-.015ZM165.029 322.946a.926.926 0 0 0-.938-.44 49.716 49.716 0 0 1-.822-4.869c-.146-1.261-2.126-1.276-1.98 0 .323 2.845.792 5.719 1.658 8.447.528 1.628 1.202 2.889 2.83 3.579.557.234 1.335-.367 1.261-.954-.249-2.097-.88-3.959-2.009-5.749v-.014Z" fill="#D5DDFB"/><path d="M65.994 238.62c-.205-1.437-.983-5.807-2.904-6.071-1.936-.264-2.39 3.079-2.552 4.297-.351 2.786.338 5.499 1.804 7.875.03.044.059.059.088.103.03.22.044.44.074.645.117.968 1.26 1.349 1.848.498 1.51-2.185 2.023-4.736 1.642-7.362v.015ZM85.866 230.73c0-.675-.631-1.085-1.262-.953-3.666.792-6.614 3.432-7.934 6.907-.088.118-.19.22-.278.337-.206.294-.176.587-.059.836.073.719.997 1.042 1.57.66 4.37.103 7.89-3.329 7.933-7.772l.03-.015ZM111.413 250.118c-.426-.69-1.262-.587-1.716 0-1.936 2.537-2.493 5.631-1.687 8.696.03.118.088.206.147.293.191 1.218.704 2.318 1.73 3.095.558.425 1.262-.059 1.452-.587 1.379-3.783 2.347-7.86.074-11.497ZM139.027 231.903c-2.067-.014-4.898.22-6.848.998-1.525.601-2.655 1.642-3.241 3.123-.631.572-.983 1.291-.866 2.156.602 4.253 8.198-.22 9.9-1.129 1.246-.66 2.595-1.584 2.874-3.08.264-1.422-.499-2.068-1.819-2.082v.014ZM160.395 257.26c-2.801-1.54-5.896-2.273-9.093-2.053-1.598.117-2.185 1.73-1.774 2.859.044.396.235.792.674 1.144 2.772 2.2 6.351 2.992 9.724 1.672 1.495-.587 2.097-2.742.469-3.622ZM169.106 283.965c-1.906-1.114-3.212.851-3.769 2.361-.601 1.599-.865 3.3-.909 5.001-.044 1.995 2.346 2.405 3.432 1.291.249-.088.484-.235.674-.455.968-1.144 1.628-2.405 1.848-3.901.22-1.452.176-3.461-1.261-4.311l-.015.014Z" fill="#C8D3FB"/><path d="M182.774 302.458c-1.261-1.496-3.212-2.302-5.162-2.185-1.071.074-1.98.865-1.98 1.98 0 .205.059.411.132.601-.015.044-.058.088-.073.132-.293 1.086.366 2.083 1.378 2.435 1.584.557 3.183.601 4.825.337 1.613-.249 1.716-2.302.88-3.314v.014Z" fill="#D5DDFB"/><path d="M161.524 385.963c-11.175 2.903-22.467 4.385-33.979 4.605 2.199-2.787 3.329-14.299 1.642-11.425-3.872 6.57-8.653 12.305-14.137 17.232 1.085-3.329-4.576-12.48-4.121-9.21.806 5.72-1.467 11.161-5.676 14.988-.718.646-10.06 5.163-15.325 6.966.352-3.241.454-4.326.733-7.596 1.496-17.261-.718-33.848-1.598-51.036-.983-19.373 4.605-40.285 6.086-62.283.22-3.315-13.258 48.087-14.827 69.088a65.34 65.34 0 0 0-3.886-10.691c-2.83-6.042-6.468-11.615-10.515-16.88.117-.293-5.514-28.319-5.295-24.975.411 6.306.5 12.627.397 18.948-4.473-5.221-19.96-13.859-17.643-11.454 12.554 13.008 25.855 26.706 31.413 44.363 2.933 9.342 3.725 19.329 3.535 29.33-11.498-.234-21.06-1.305-34.17-8.535 9.459 8.697 21.206 13.434 34.008 13.727-.322 6.541-.982 13.023-1.671 19.3-3.579 32.249-4.239 86.437-4.019 120.05-.528 1.32-.147 2.948 1.613 3.329 5.148 1.115 9.68 1.569 15.003 1.408 1.584-.044 2.728-1.555 2.508-3.285-3.99-30.651-6.086-84.018-2.552-114.918 13.331-4.135 24.99-11.527 34.258-21.484.352.205.748.337 1.247.337 13.008.015 40.183-10.72 36.942-9.885l.029-.014Z" fill="#C8D3FB"/><path d="M160.175 292.75c4.092 18.346 14.827 31.149 31.882 41.165 10.911 6.409 24.389 11.674 40.359 16.543 1.115.323 9.064.22 10.559-.059 46.768-8.74 69.983-48.85 72.99-83.768 1.437-17.012-1.423-34.244-8.125-50.449-6.232-15.047-15.765-29.243-28.245-41.605-10.589-10.472-29.404-28.686-48.924-24.345-10.002 2.229-16.865 9.694-22.892 15.839-6.834 6.966-13.17 14.24-18.845 21.807-23.509 31.325-36.942 68.443-28.774 104.857l.015.015Z" fill="#D5DDFB"/><path d="M192.057 333.93c10.911 6.409 24.389 11.674 40.359 16.543 1.115.322 9.064.22 10.559-.059 46.768-8.741 69.983-48.85 72.99-83.768 1.437-17.012-1.423-34.244-8.125-50.449.91 13.859-1.613 28.363-4.546 41.899-3.109 14.386-8.521 28.685-19.666 40.52-11.234 11.938-28.04 19.065-44.803 25.136-14.988 5.412-30.518 9.328-46.768 10.193v-.015Z" fill="#C8D3FB"/><path d="M291.503 218.265c.176.219.396.322.616.395.367.382.997.616 1.716.382 4.693-1.54 9.356-2.948 11.6-6.849 2.728-4.752.616-10.324-.63-15.149-.206-.807-1.54-1.364-2.406-.734-7.171 5.236-17.745 13.786-10.911 21.94l.015.015ZM278.612 195.167c.176.205.396.322.616.396.367.381.983.616 1.716.381 4.693-1.54 9.357-2.948 11.6-6.849 2.728-4.751.616-10.324-.63-15.149-.206-.807-1.54-1.364-2.405-.733-7.172 5.235-17.745 13.785-10.911 21.939l.014.015ZM264.812 183.625c.176.205.396.323.616.396.367.381.997.616 1.716.381 4.693-1.54 9.356-2.947 11.6-6.834 2.728-4.751.616-10.324-.63-15.149-.206-.807-1.54-1.364-2.405-.733-7.172 5.235-17.76 13.785-10.911 21.939h.014ZM249.428 169.224c.206.19.44.278.675.337.425.352 1.085.513 1.774.205 4.4-1.994 8.8-3.872 10.383-7.963 1.936-5.001-1.07-10.31-3.079-14.959-.338-.777-1.746-1.202-2.508-.484-6.262 5.925-15.369 15.472-7.245 22.878v-.014ZM173.476 196.325c-.865-.63-2.199-.073-2.405.733-1.246 4.825-3.358 10.398-.63 15.15 2.229 3.901 6.907 5.309 11.6 6.848.733.235 1.349 0 1.716-.381.234-.073.44-.191.616-.396 6.848-8.168-3.74-16.704-10.911-21.939l.014-.015Z" fill="#D5DDFB"/><path d="M186.353 181.851c-.866-.631-2.2-.074-2.406.733-1.246 4.825-3.358 10.398-.63 15.149 2.229 3.901 6.907 5.309 11.6 6.849.733.234 1.349 0 1.716-.381.235-.074.44-.191.616-.396 6.849-8.169-3.74-16.704-10.911-21.94l.015-.014Z" fill="#C8D3FB"/><path d="M200.167 161.671c-.865-.631-2.2-.073-2.405.733-1.246 4.825-3.358 10.398-.63 15.15 2.229 3.901 6.907 5.309 11.6 6.834.733.234 1.349 0 1.716-.382.22-.073.44-.19.616-.396 6.848-8.168-3.74-16.703-10.911-21.939h.014ZM219.203 146.346c-.763-.719-2.171-.294-2.508.484-2.024 4.648-5.015 9.957-3.08 14.958 1.584 4.092 5.984 5.969 10.383 7.963.69.308 1.335.147 1.775-.205.235-.044.469-.132.675-.337 8.11-7.406-.983-16.953-7.245-22.878v.015ZM234.631 157.917c.249.161.499.205.748.22.498.278 1.188.352 1.789-.059 3.857-2.61 7.743-5.104 8.345-9.357.733-5.191-3.461-9.972-6.527-14.254-.513-.719-1.994-.924-2.581-.103-4.766 6.746-11.483 17.452-1.774 23.538v.015Z" fill="#D5DDFB"/><path d="M275.225 297.457a.83.83 0 0 0 .117.631c-.059.484.205.983.938 1.203 4.767 1.378 9.416 2.845 14.387 1.173 6.072-2.039 9.283-7.274 12.48-11.498.543-.704.03-1.833-1.144-1.833-9.767 0-24.843.645-26.793 10.324h.015Z" fill="#C8D3FB"/><path d="M254.708 305.333a.85.85 0 0 0-.25.601c-.337.411-.381.953.147 1.408 3.461 2.933 6.775 5.91 12.158 6.203 6.584.352 12.436-3.167 17.701-5.778.88-.44 1.07-1.613.029-2.038-8.711-3.491-22.526-8.33-29.785-.396ZM232.255 318.18a.85.85 0 0 0-.249.601c-.323.411-.382.953.146 1.408 3.461 2.933 6.776 5.91 12.158 6.203 6.585.352 12.436-3.168 17.701-5.778.895-.44 1.071-1.628.029-2.038-8.711-3.491-22.526-8.33-29.785-.396Z" fill="#D5DDFB"/><path d="M285.476 277.571a.89.89 0 0 0 .278.587c.074.484.455.938 1.247 1.026 5.03.558 9.958 1.203 14.372-1.246 5.397-3.007 7.142-8.653 9.151-13.316.337-.778-.455-1.789-1.598-1.599-9.548 1.643-24.125 4.766-23.45 14.548Z" fill="#C8D3FB"/><path d="M253.681 339.43a.865.865 0 0 0-.337.41c-.337.264-.513.66-.22 1.071 1.892 2.713 3.666 5.411 7.626 6.423 4.839 1.232 10.046-.528 14.592-1.701.762-.205 1.188-1.056.498-1.525-5.69-3.886-14.856-9.547-22.159-4.693v.015Z" fill="#D5DDFB"/><path d="M160.043 221.403c-1.027-.455-2.156.323-2.127 1.144.176 4.913-.264 10.72 3.755 14.856 3.299 3.388 8.256 3.916 13.257 4.561.778.103 1.32-.235 1.569-.689.206-.118.382-.264.499-.499 4.312-9.195-8.447-15.589-16.953-19.402v.029ZM142.386 241.993c-1.173 0-1.687 1.115-1.144 1.833 3.197 4.224 6.409 9.445 12.48 11.498 4.972 1.672 9.621.205 14.387-1.173.748-.22.997-.719.938-1.203.103-.176.176-.381.118-.63-1.936-9.68-17.027-10.31-26.794-10.325h.015Z" fill="#C8D3FB"/><path d="M148.399 304.937c-1.159.176-1.379 1.364-.675 1.965 4.18 3.637 8.609 8.286 15.076 9.356 5.294.88 9.488-1.276 13.829-3.358.675-.323.807-.851.631-1.32a.802.802 0 0 0-.044-.631c-4.282-9.195-19.241-7.493-28.817-5.998v-.014ZM172.67 324.398c-1.159.176-1.379 1.364-.675 1.965 4.18 3.637 8.609 8.286 15.061 9.356 5.295.88 9.489-1.276 13.83-3.358.674-.323.806-.865.631-1.32a.807.807 0 0 0-.044-.631c-4.283-9.195-19.241-7.494-28.818-5.998l.015-.014Z" fill="#D5DDFB"/><path d="M190.62 337.494c-1.158.176-1.378 1.349-.674 1.965 4.179 3.652 8.608 8.286 15.076 9.356 5.294.88 9.488-1.275 13.829-3.358.675-.323.807-.85.631-1.32a.804.804 0 0 0-.044-.63c-4.283-9.196-19.241-7.494-28.818-5.998v-.015Z" fill="#C8D3FB"/><path d="M212.853 349.959c-.572.367-.264 1.086.366 1.262 3.696 1.056 7.92 2.595 11.938 1.671 3.285-.762 4.825-2.947 6.453-5.132.249-.338.132-.675-.147-.895a.698.698 0 0 0-.264-.352c-5.851-4.136-13.565.352-18.346 3.432v.014ZM256.805 349.959c.484.367.22 1.086-.308 1.262-3.139 1.056-6.717 2.595-10.119 1.671-2.787-.762-4.092-2.947-5.485-5.132-.22-.338-.103-.675.132-.895a.668.668 0 0 1 .22-.352c4.957-4.136 11.498.352 15.56 3.432v.014Z" fill="#D5DDFB"/><path d="M151.889 263.654c-1.144-.235-1.994.748-1.701 1.54 1.73 4.722 3.138 10.441 8.344 13.638 4.268 2.625 9.24 2.156 14.284 1.79.792-.059 1.203-.484 1.306-.968a.968.968 0 0 0 .322-.587c1.262-9.752-13.125-13.419-22.555-15.413Z" fill="#C8D3FB"/><path d="M151.889 279.742c-1.144-.235-1.994.733-1.701 1.54 1.73 4.722 3.138 10.441 8.344 13.638 4.268 2.626 9.24 2.156 14.284 1.79.792-.059 1.203-.499 1.306-.968a.968.968 0 0 0 .322-.587c1.262-9.752-13.125-13.419-22.555-15.413ZM265.091 327.785a.854.854 0 0 0-.25.602c-.337.41-.395.953.147 1.407 3.432 2.948 6.717 5.94 12.114 6.263 6.584.396 12.465-3.095 17.745-5.691.894-.44 1.085-1.613.044-2.038-8.682-3.534-22.453-8.447-29.786-.543h-.014Z" fill="#D5DDFB"/><path d="M277.395 319.998a.844.844 0 0 0-.103.631c-.234.454-.161.997.47 1.363 4.077 2.391 8.007 4.84 13.389 4.341 6.556-.601 11.498-4.898 16.088-8.227.777-.557.689-1.745-.44-2.009-9.371-2.171-24.066-4.942-29.389 3.901h-.015ZM219.672 176.644c.176.088.338.103.484.103.337.147.777.147 1.115-.132 2.17-1.848 4.385-3.637 4.37-6.335-.015-3.3-3.08-6.043-5.382-8.55-.396-.426-1.335-.47-1.628.088-2.376 4.487-5.602 11.585 1.041 14.841v-.015ZM183.566 251.511c.191.044.352.029.499 0 .381.073.792-.015 1.026-.367 1.467-2.244 2.992-4.429 2.068-7.024-1.129-3.168-5.015-5.177-8.08-7.099-.514-.322-1.438-.161-1.54.426-.763 4.839-1.467 12.348 6.027 14.078v-.014Z" fill="#D5DDFB"/><path d="M218.69 266.455a.836.836 0 0 0 .469.147 1.11 1.11 0 0 0 1.129 0c2.493-1.584 4.986-3.109 5.47-5.779.572-3.255-1.965-6.335-3.798-9.063-.308-.454-1.247-.601-1.613-.102-3.153 4.179-7.611 10.837-1.628 14.812l-.029-.015Z" fill="#C8D3FB"/><path d="M260.603 230.437c.117.234.293.381.484.498.249.44.792.778 1.569.69 5.001-.646 9.958-1.174 13.258-4.561 4.033-4.136 3.578-9.943 3.754-14.856.029-.822-1.1-1.613-2.126-1.144-8.492 3.798-21.25 10.207-16.953 19.402l.014-.029Z" fill="#D5DDFB"/><path d="M221.227 221.931c.337.073.63.059.909.015.66.117 1.452.014 1.994-.484 3.462-3.256 6.996-6.424 6.233-10.339-.924-4.781-7.274-7.993-12.187-11.043-.821-.514-2.566-.323-2.933.542-3.094 7.157-7.024 18.302 5.969 21.324l.015-.015Z" fill="#C8D3FB"/><path d="M254.077 184.916c.132.205.308.337.499.44a1.78 1.78 0 0 0 1.466.674c4.312-.073 8.594-.073 11.014-2.464 2.962-2.933 1.774-7.567 1.247-11.453-.088-.646-1.188-1.364-2.024-1.1-6.937 2.273-17.261 6.247-12.202 13.903ZM255.808 277.762c.132.205.308.337.498.44.279.381.792.689 1.467.674 4.311-.073 8.594-.073 11.013-2.463 2.963-2.933 1.775-7.568 1.247-11.454-.088-.645-1.188-1.364-2.024-1.1-6.937 2.273-17.261 6.247-12.201 13.903ZM251.232 350.517c-3.945 6.056-4.4 12.744-2.258 20.663 1.378 5.06 3.813 10.633 7.083 16.851.235.44 2.566 2.874 3.08 3.27 16.014 12.26 33.965 9.005 44.597.821 5.177-3.989 9.166-9.371 11.747-15.692 2.405-5.866 3.593-12.539 3.432-19.637-.147-6.027-.514-16.63-7.392-21.558-3.519-2.522-7.596-2.713-11.072-2.977-3.93-.308-7.802-.381-11.571-.161-15.575.865-29.844 6.379-37.661 18.42h.015Z" fill="#D5DDFB"/><path d="M248.974 371.18c1.378 5.06 3.813 10.633 7.083 16.851.235.44 2.566 2.874 3.08 3.27 16.014 12.26 33.965 9.005 44.597.821 5.177-3.989 9.166-9.371 11.747-15.692-3.608 3.901-8.389 6.893-13.038 9.518-4.927 2.787-10.485 4.84-17.026 4.458-6.599-.381-13.463-3.739-20.033-7.362-5.866-3.241-11.468-7.054-16.41-11.878v.014Z" fill="#C8D3FB"/><path d="M279.008 328.636c-.058-.645-.762-.997-1.173-.748-2.42 1.452-5.456 2.845-6.409 6.028-.777 2.595.338 5.235 1.408 7.919.161.425.484.586.777.601a.587.587 0 0 0 .382.103c5.807-.396 5.47-8.579 5.001-13.903h.014ZM264.475 331.642c-.235-.601-1.027-.733-1.335-.381-1.892 2.097-4.385 4.326-4.355 7.641.014 2.713 1.848 4.913 3.666 7.171.279.352.645.425.924.337a.72.72 0 0 0 .396 0c5.441-2.082 2.713-9.796.719-14.753l-.015-.015ZM282.279 391.887c.22.572-.279 1.13-.748 1.071-2.787-.425-6.101-.557-8.272-2.992-1.774-1.994-1.862-4.678-2.023-7.391-.03-.425.19-.689.454-.792a.568.568 0 0 1 .308-.235c5.397-1.701 8.477 5.559 10.281 10.339Z" fill="#D5DDFB"/><path d="M264.944 391.36a.994.994 0 0 0-.454.205c-.367.088-.719.337-.792.748-.44 2.654-.968 5.265.923 7.274 2.303 2.449 6.659 2.728 10.252 3.256.601.088 1.393-.426 1.231-.998-1.231-4.736-3.607-11.908-11.16-10.485ZM285.402 394.718c-.161.118-.249.25-.322.396-.294.25-.499.616-.382 1.027.763 2.581 1.438 5.162 4.004 6.13 3.138 1.202 7.186-.455 10.647-1.54.587-.191 1.056-.997.675-1.437-3.183-3.725-8.448-9.137-14.622-4.561v-.015ZM278.216 353.215c.132.132.264.205.396.264.264.249.631.396 1.012.279 2.42-.836 4.84-1.584 5.588-3.916.909-2.845-.983-6.291-2.288-9.268-.22-.499-1.027-.866-1.437-.499-3.329 3.036-8.125 8.007-3.271 13.155v-.015ZM261.439 365.05a.93.93 0 0 0 .44.176c.293.191.689.279 1.041.088 2.229-1.247 4.473-2.42 4.796-4.84.396-2.962-2.083-6.012-3.901-8.711-.308-.454-1.173-.674-1.496-.234-2.728 3.578-6.57 9.327-.865 13.521h-.015Z" fill="#C8D3FB"/><path d="M283.085 369.64a.966.966 0 0 0-.161.44c-.176.308-.249.704-.044 1.041 1.349 2.171 2.64 4.356 5.074 4.561 2.977.25 5.91-2.376 8.506-4.326.44-.323.616-1.203.161-1.511-3.71-2.551-9.635-6.1-13.55-.205h.014Z" fill="#D5DDFB"/><path d="M242.403 305.069s-2.126 211.914 4.752 291.488h-23.743s17.466-271.881 19.006-291.488h-.015Z" fill="#C8D3FB"/><path d="M239.309 356.016s-19.241-25.738-24.08-36.209c0 0 19.387 38.497 22.966 51.828l1.114-15.619ZM239.236 402.286s13.741-12.979 28.627-26.149c0 0-18.948 28.451-27.513 41.767l-1.114-15.618ZM240.086 345.017s11.219-15.12 14.123-21.397c0 0-11.307 22.776-13.448 30.768l-.675-9.371Z" fill="#C8D3FB"/></g><path opacity=".31" d="M14.739 479.733h278.157v-358.7H14.739v358.7Z" fill="#fff"/><path opacity=".6" d="M196.252 473.251h29.11L101.616 125.139H72.491l123.761 348.112ZM247.668 473.251h14.563L138.47 125.139h-14.562l123.76 348.112ZM106.162 473.251h14.563L18.097 162.785l-3.109 20.224 91.174 290.242Z" fill="#fff"/><path d="M288.966 484.353h8.213V116.912h-8.213v367.441ZM196.237 482.504h8.213v-363.73h-8.213v363.73Z" fill="#fff"/><path d="M10.808 116.912v8.213H297.18v-8.213H10.809ZM10.823 475.612v8.212h286.37v-8.212H10.823Z" fill="#fff"/><path d="M103.523 482.504h8.212v-363.73h-8.212v363.73Z" fill="#fff"/><path d="M297.179 296.533H10.809v8.213h286.37v-8.213Z" fill="#fff"/><path d="M288.922 307.635v-2.889H19.065v2.889h269.857ZM288.937 476.154v-2.904H19.08v2.904h269.857ZM289.01 128.043v-2.904H18.992v2.904H289.01ZM444.345 334.135h211.563V206.591H444.345v127.544Z" fill="#C8D3FB"/><path d="M454.846 323.518h190.561V217.194H454.846v106.324Z" fill="url('#paint4_linear_91_6350')"/><path d="M471.784 309.102h156.685v-77.463H471.784v77.463Z" fill="#D5DDFB"/><path d="m628.483 309.102-24.681-35.828a2.33 2.33 0 0 0-3.887.073l-13.58 21.514-10.896-11.556c-1.085-1.144-2.977-.909-3.74.469l-13.932 25.313h70.716v.015Z" fill="#C8D3FB"/><path d="M580.63 249.854a7.73 7.73 0 1 0 15.46-.003 7.73 7.73 0 0 0-15.46.003ZM523.142 252.537c.396.836 1.261.939 2.068 1.1 2.918.557 6.365.264 9.342.323 1.818.029 3.637 0 5.441.014 1.804.807 3.725 1.614 5.719 1.555 2.185-.059 3.975-1.379 6.16-1.569 1.29-.103 5.059.396 4.003-2.273-1.202-3.021-8.154-2.361-10.559-3.109-1.29-.396-2.185-.616-3.534-.792-1.701-.235-1.379-.294-2.889-1.247-.733-.469-1.115-.733-1.877-.997a5.742 5.742 0 0 0-4.297.205c-1.54.704-2.215 2.332-3.887 2.787-1.378.381-7.318.586-5.704 3.989l.014.014ZM502.845 259.298c2.567.836 5.676 1.07 8.345.807 1.54-.147 4.018-.294 5.147-1.511.822-.88.748-2.112-.131-2.948-.807-.762-1.79-.762-2.758-.528-1.715-.718-3.446-1.232-5.367-.938-.748.117-1.423.542-2.215.498-.615-.029-1.349-.498-1.95-.586-.704-.118-1.408-.147-2.083.102-3.226 1.232-1.378 4.312.998 5.089l.014.015Z" fill="#fff"/><path d="m539.465 309.102-15.414-27.557c-.527-.953-1.906-.982-2.478-.044l-11.688 19.065-4.957-7.699c-.616-.939-2.024-.851-2.508.161l-7.626 16.088-12.832-29.785c-.513-1.203-2.229-1.144-2.669.088l-7.523 21.162v8.535h67.665l.03-.014Z" fill="#C8D3FB"/><path d="M386.212 181.264c-26.603 0-48.234-21.646-48.234-48.235h2.273c0 25.342 20.619 45.976 45.976 45.976 25.356 0 45.975-20.619 45.975-45.976h2.274c0 26.603-21.646 48.235-48.235 48.235h-.029Z" fill="#D5DDFB"/><path d="M385.552 95.295 324.72 145.7h134.144l-73.312-50.405Z" fill="#C8D3FB"/><path opacity=".22" d="m355.327 138.587-64.264 207.104h186.851L417.2 138.587h-61.873Z" fill="url('#paint5_linear_91_6350')"/><path d="M382.766 59.923V110.81h5.91V62.577l-5.91-2.654Z" fill="#D5DDFB"/><path d="M382.81 101.968h5.822c3.857 0 6.995 3.139 6.995 6.996v14.46h-19.798v-14.46c0-3.857 3.138-6.996 6.995-6.996h-.014Z" fill="#FFBF5B"/><path d="M396.991 147.401c0-6.364-5.162-11.526-11.527-11.526-6.365 0-11.527 5.162-11.527 11.526 0 6.365 5.162 11.527 11.527 11.527 6.365 0 11.527-5.162 11.527-11.527Z" fill="#D5DDFB"/><path d="M385.611 154.617c-2.728-.499-6.482-2.64-7.186-5.529-.25-1.027-1.848-.587-1.584.44.836 3.446 5.03 6.071 8.33 6.673 1.041.19 1.481-1.408.44-1.584Z" fill="#fff"/><path d="M385.552 95.295 318.487 145.7h134.144l-67.079-50.405Z" fill="#D5DDFB"/><path d="M382.795 89.063h5.529a3.473 3.473 0 0 1 3.475 3.475v5.53a3.457 3.457 0 0 1-3.461 3.46h-5.528a3.457 3.457 0 0 1-3.461-3.46v-5.53a3.458 3.458 0 0 1 3.461-3.46l-.015-.015Z" fill="#D5DDFB"/></g><path d="M462.53 341.38c-.073-.513-.689-.895-1.158-.88-11.395.191-25.679.22-35.329 7.259-8.99 6.57-10.339 18.156-10.134 28.466.015 1.1 1.247 1.408 1.936.938.029 0 .059.044.088.059 23.949 8.96 48-10.72 44.597-35.842ZM407.33 388.001c.088-7.934-1.76-15.956-7.846-21.455-6.981-6.306-17.085-9.914-25.342-14.196-.836-.44-2.185.308-1.774 1.364 3.739 9.503 3.212 21.118 9.811 29.36 5.602 7.024 15.091 9.385 23.508 6.79.426-.132.66-.426.763-.748.469-.118.88-.484.88-1.115ZM480.994 413.856c-5.602-4.341-12.832-3.901-19.608-3.608-7.523.323-15.076 1.482-21.939 4.737-11.938 5.676-20.326 18.215-16 31.472-.102.557.103 1.188.807 1.408 11.38 3.593 16.865-4.004 23.714-11.556 8.77-9.694 20.032-16.587 32.483-20.429.778-.235 1.291-1.423.528-2.024h.015Z" fill="#6A6AE8"/><path d="M508.228 442.189a2.838 2.838 0 0 1-.44-.19c-4.825-2.068-9.152-6.013-13.551-9.797 0-.014-.03-.014-.044-.044-4.81-4.15-9.709-8.095-15.428-9.122-.044-.029-.103-.029-.147-.029-2.625-.484-5.426-.308-8.506.704-12.172 4.062-19.666 16.733-20.868 28.935-.015.293.073.528.19.704l-.073.19c-.191.675.161 1.57 1.085 1.687 10.442 1.232 20.678.015 30.885-2.127 9.063-1.906 19.3-3.461 27.175-8.696.924-.601.675-1.819-.293-2.2l.015-.015ZM490.101 465.551c-13.316-2.669-40.843-9.444-42.72 11.777-.059.674.381 1.041.895 1.129 12.084 14.181 35.592 2.933 42.544-11.131.322-.645.088-1.613-.719-1.775ZM405.702 422.846c-3.534-7.817-11.747-15.897-19.813-18.845-.748-.279-1.54.425-1.525 1.158.132 15.414-3.652 39.67 13.111 48.191.117.058.235.073.352.102.454.675 1.525.924 2.038 0 5.177-9.253 10.603-20.062 5.837-30.606ZM362.058 432.657c-8.183-6.687-21.118-8.139-30.636-3.314-13.213 6.702-10.838 22.614-12.847 34.874-.19 1.188 1.071 2.009 2.024 1.173 13.052-11.453 31.267-15.941 41.224-30.944.631-.366.968-1.202.25-1.803l-.015.014ZM362.131 444.785c-.381-.572-.997-.645-1.495-.44-.338-.425-.895-.66-1.511-.337-6.541 3.593-14.211 8.609-15.501 16.513-1.54 9.43 3.769 18.64 4.355 27.938.088 1.276 2.097 1.745 2.376.322 1.672-8.931 10.926-13.008 14.328-21.03 2.801-6.614 1.32-17.026-2.566-22.966h.014ZM402.505 499.575c-7.685-10.794-15.589-20.018-28.935-23.391-.968-.249-1.965.865-1.363 1.774 3.006 4.517 2.947 9.65 5.47 14.196 1.496 2.699 3.945 4.723 6.511 6.336 5.69 3.593 13.023 6.863 19.373 3.226 1.291-.733.235-2.654-1.041-2.141h-.015ZM419.84 486.845c-.03-.117-.059-.234-.132-.352-5.28-8.432-5.515-19.153-12.803-26.412-.558-.557-1.481-.411-1.892.249-3.578 5.735-5.309 12.598-2.464 19.021 3.08 6.952 9.547 8.844 16.587 9.577 1.246.132 1.466-1.393.718-2.083h-.014ZM434.652 392.577c-1.511-1.261-3.52 0-5.001.63-2.801 1.188-5.529 2.567-7.978 4.385-4.576 3.403-7.714 8.228-7.993 13.918a1.092 1.092 0 0 0-.029.44c0 .161-.03.322-.03.498 0 1.364 1.892 1.525 2.318.47 5.851-1.276 10.471-5.045 14.298-9.562 1.76-2.083 7.92-7.832 4.4-10.779h.015ZM437.291 487.799c-.19-.176-.337-.367-.513-.543 1.511-10.295 2.141-22.232-8.007-28.289-.66-.396-1.584-.03-1.775.718-2.786 10.897.411 22.086 8.579 29.83 1.13 1.07 2.846-.646 1.702-1.716h.014Z" fill="#6A6AE8"/><path d="M507.186 440.987c-4.473-1.98-8.667-5.412-12.935-8.785 0-.014-.029-.014-.044-.044-4.898-3.886-9.884-7.699-15.427-9.122-.044-.029-.103-.029-.147-.029-2.625-.484-5.426-.308-8.506.704-12.172 4.062-19.666 16.733-20.869 28.935-.014.293.074.528.191.704l-.073.19c.41-.029.791-.22 1.041-.586.234-.044.454-.118.645-.338 3.96-4.223 8.183-8.168 12.348-12.201 2.009-1.936 3.96-4.37 6.233-5.984 4.825-3.446 8.99-2.801 14.049-1.334 6.057 1.76 11.586 4.898 17.1 7.919 2.053 1.159 4.063 3.124 6.394 2.053.411-.176.602-.63.602-1.07 0-.44-.22-.851-.602-1.012Z" fill="#6A6AE8"/><path d="M400.247 481.639c-1.144-4.678-2.435-9.43-4.033-14.064.014-.044.044-.059.058-.103a65.968 65.968 0 0 0 2.552-22.482c.411-.058.777-.307.939-.806a38.914 38.914 0 0 0 1.76-13.61c-.074-1.539-2.494-1.554-2.42 0a37.092 37.092 0 0 1-.763 9.46 67.81 67.81 0 0 0-2.317-10.662c-.455-1.481-2.786-.851-2.332.645 3.403 11.102 3.74 22.409 1.071 33.598-2.259-5.763-5.089-11.262-8.902-16.131-8.946-11.454-25.21-18.42-38.086-13.023-.029-.44-.293-.851-.865-.983-4.986-1.202-10.002-.454-14.402 2.2-1.334.807-.117 2.889 1.218 2.082 3.578-2.155 7.567-2.889 11.644-2.126-2.977 1.687-5.734 4.092-8.095 7.377-.91 1.261 1.188 2.463 2.082 1.217 6.174-8.565 17.393-11.263 27.234-8.066 2.859.924 5.485 2.288 7.919 3.916-10.295-.22-18.097 6.687-25.136 13.536-1.115 1.085.601 2.786 1.715 1.701a139.486 139.486 0 0 1 4.283-4.033 27.478 27.478 0 0 0-.22 7.362c.161 1.525 2.581 1.54 2.419 0-.337-3.182-.117-6.277.69-9.357.044-.161.044-.322.029-.454 4.972-3.931 10.544-6.79 17.364-6.306.63.044.997-.338 1.114-.807 5.485 4.326 9.782 10.207 12.906 16.411 6.203 12.348 9.752 26.456 11.762 40.593-5.001-1.29-9.342-3.901-12.847-7.728-1.042-1.144-2.757.557-1.701 1.701 1.759 1.936 3.754 3.564 5.91 4.927-1.394 0-2.787-.073-4.165-.293-1.526-.235-2.171 2.083-.646 2.332a31.6 31.6 0 0 0 6.966.352c.499-.029.822-.323.998-.675a27.996 27.996 0 0 0 5.602 1.921c.088.03.161 0 .235 0 .879 6.849 1.422 13.669 1.73 20.283.073 1.554 2.493 1.554 2.42 0-.631-13.449-2.464-26.794-5.676-39.875l-.014-.03Z" fill="#312890"/><path d="M440.327 431.997a82.584 82.584 0 0 0-6.233 5.016 37.782 37.782 0 0 1 5.573-11.938c.895-1.276-1.202-2.478-2.082-1.217a39.62 39.62 0 0 0-6.424 14.826c-.073.367 0 .66.161.91a78.175 78.175 0 0 0-13.682 17.891 835.407 835.407 0 0 1-1.613-25.004c-.294-5.925-.748-12.568-.91-19.388 2.801-3.769 5.749-7.479 10.09-9.517 1.408-.66.176-2.743-1.217-2.083-3.681 1.731-6.453 4.59-8.931 7.714-.015-3.212.044-6.438.234-9.635.191-.323.235-.733.059-1.115 1.217-17.055 6.335-33.158 22.658-40.696 1.408-.645.191-2.728-1.217-2.082-4.136 1.906-7.568 4.341-10.427 7.186-.132-2.347.249-4.635 1.114-6.864.557-1.452-1.774-2.082-2.332-.645-1.217 3.138-1.495 6.394-.968 9.708 0 .059.044.088.044.132-6.951 8.286-9.825 19.359-10.867 30.842-3.505-4.063-6.995-8.125-10.5-12.187.337-.176.587-.499.557-1.012-.22-3.403-1.29-6.57-3.241-9.357-.894-1.261-2.977-.058-2.082 1.218 1.452 2.067 2.361 4.326 2.728 6.775-1.306-1.511-2.596-3.021-3.901-4.517-1.012-1.188-2.713.528-1.702 1.701 5.969 6.922 11.938 13.844 17.892 20.766-.264 4.224-.293 8.462-.234 12.613-.059.073-.103.146-.162.219-.41.558-.22 1.086.191 1.408.088 4.063.249 8.037.396 11.777.777 19.255 2.244 38.482 4.341 57.62-4.356-2.405-6.732-6.922-8.902-11.263-.689-1.393-2.772-.176-2.083 1.217 2.494 4.972 5.339 10.178 10.618 12.598.235.102.44.117.645.102a863.787 863.787 0 0 0 4.957 36.796c.235 1.525 2.567.88 2.332-.646a856.465 856.465 0 0 1-7.259-60.509.993.993 0 0 0 .557-.513c5.529-10.677 13.272-19.725 23.01-26.794 1.246-.909.044-2.992-1.217-2.082l.029.029Z" fill="#312890"/><path d="M480.29 433.904c-5.074-.103-9.708 1.114-13.917 3.211a48.248 48.248 0 0 1 5.792-5.279c1.218-.924.015-3.021-1.217-2.082-4.047 3.109-7.567 6.687-10.559 10.823a1.172 1.172 0 0 0-.205.469c-8.169 6.423-14.211 16.205-17.965 25.547-2.288 5.675-3.974 11.541-5.294 17.51-1.35-2.258-2.098-4.795-2.933-7.303-.675-1.995-1.276-3.798-3.124-4.972-1.32-.821-2.537 1.262-1.217 2.083 1.95 1.232 2.405 4.766 3.109 6.79.689 1.98 1.452 3.842 2.654 5.558.249.352.587.499.939.513-2.933 14.607-3.74 29.771-5.133 44.392-.147 1.54 2.273 1.54 2.42 0 1.305-13.609 2.141-27.527 4.619-41.077.176-.059.352-.147.499-.323 4.561-5.045 9.298-10.104 15.046-13.609a16.543 16.543 0 0 0 6.013 3.593c1.481.498 2.112-1.833.646-2.332a13.874 13.874 0 0 1-4.429-2.493c1.598-.822 3.255-1.555 5.03-2.083 1.481-.44.85-2.771-.645-2.332-2.347.704-4.517 1.672-6.571 2.816-.366.015-.703.25-.923.558-5.221 3.109-9.65 7.406-13.83 11.922.807-3.798 1.716-7.582 2.86-11.292 2.332-7.523 6.027-15.868 11.16-22.834h.132a44.663 44.663 0 0 1 8.418-1.95c1.525-.206.88-2.537-.645-2.332-1.804.249-3.564.63-5.324 1.07 6.306-7.274 14.446-12.392 24.579-12.186 1.555.029 1.555-2.391 0-2.42l.015.044Z" fill="#312890"/><path d="m460.14 509.151-1.921 11.967-3.447 21.441-7.508 46.724h-54.937l-7.508-46.724-3.447-21.441-1.921-11.967h80.689Z" fill="#C8D3FB"/><path opacity=".08" d="m402.388 521.118-1.921-11.967h-21.016l1.921 11.967 3.447 21.441 7.508 46.724h21.016l-7.509-46.724-3.446-21.441Z" fill="#000"/><path opacity=".64" d="M440.826 585.441h-.22c-1.423-.074-2.464-.866-2.347-1.76l9.445-71.098c.117-.894 1.349-1.569 2.786-1.481 1.423.073 2.464.865 2.347 1.76l-9.445 71.097c-.117.851-1.232 1.496-2.566 1.496v-.014Z" fill="#fff"/><path d="m261.659 589.591 88.476-450.123h51.432l-89.444 450.123h-50.464Z" fill="#6A5FFF"/><path d="M465.317 359.14c3.373-15.546 12.583-25.929 15.692-28.568 5.089-4.327 19.285-3.901 25.033 7.904 5.749 11.806 7.876 18.948 6.263 40.213-1.599 21.264-19.212 93.887-19.241 109.828-.044 15.942-33.173 14.211-31.399-8.623 1.76-22.834-.235-102.775 3.666-120.754h-.014Z" fill="#572EFF"/><path d="M512.774 363.671c-.352-10.632-2.611-16.718-6.732-25.195-3.211-6.585-9.048-9.635-14.474-10.28-.352-.044-.69-.074-1.027-.103l-.894-.044c-.88-.015-1.746.029-2.582.132-1.099.147-2.141.381-3.079.719-.47.161-.91.352-1.335.572-.205.102-.41.22-.601.337a9.768 9.768 0 0 0-1.056.748 10.86 10.86 0 0 0-.66.601c-.132.118-.264.25-.411.396l-.146.147c-.103.102-.22.22-.323.337l-.176.176c-.117.117-.234.249-.352.381-.058.059-.102.118-.161.176a36.53 36.53 0 0 0-1.115 1.262c-.058.058-.117.132-.176.205-.146.161-.278.337-.425.513-.073.088-.132.162-.205.249-.147.191-.294.367-.44.558-.059.073-.118.161-.191.234-.425.543-.85 1.13-1.29 1.746l-.176.264-.484.704a5.457 5.457 0 0 0-.22.322c-.162.235-.323.484-.484.733-.059.103-.132.191-.191.294a55.319 55.319 0 0 0-1.349 2.185c-.059.103-.132.22-.191.323a48.662 48.662 0 0 0-.704 1.246c-.161.279-.308.572-.469.865-.059.118-.132.25-.191.367-.22.411-.425.836-.63 1.276-.206.425-.411.88-.616 1.32l-.176.396a19.36 19.36 0 0 0-.426.982c-.073.162-.132.308-.205.47-.132.322-.278.66-.396.997l-.176.44c-.19.484-.366.968-.542 1.452-.176.498-.338.997-.514 1.51-.058.161-.102.323-.146.484-.118.352-.22.719-.323 1.085-.059.191-.103.367-.161.558a24.14 24.14 0 0 0-.294 1.114c-.044.176-.088.337-.132.513-.132.543-.264 1.086-.381 1.628v.03c-.059.293-.132.616-.191.953-.014.117-.044.235-.058.352-.044.235-.088.484-.118.733-.014.147-.044.293-.058.44-.044.249-.074.499-.103.763-.014.161-.044.308-.059.484-.029.278-.073.557-.102.85-.015.162-.044.308-.059.484-.044.338-.073.675-.117 1.027 0 .132-.029.249-.044.381-.103.983-.191 2.039-.279 3.138 0 .103-.014.235-.029.338-.029.44-.073.894-.103 1.364 0 .146-.014.308-.029.454l-.088 1.364c0 .147-.015.308-.029.455-.03.484-.059.982-.088 1.496 0 .132 0 .249-.03.381-.029.616-.073 1.247-.102 1.892v.014a595.66 595.66 0 0 0-.279 6.512v.161c-.029.704-.044 1.423-.073 2.141v.162c-.03.762-.044 1.525-.074 2.287 14.079 10.061 38.336 9.87 37.558 17.027-.352 3.241-10.617 72.197-11.82 74.881-.132.308 1.877 10.178 4.077 10.09.044-.411.073-.836.088-1.276.044-15.692 17.085-86.247 19.153-108.758v-.044c.029-.352.059-.689.088-1.027.249-3.329.41-6.306.484-9.004.058-2.156.058-4.151 0-5.998l-.088.058Z" fill="#1C0A76"/><path d="M541.694 359.418c-6.086-15.648-17.115-26.236-20.678-28.934-5.852-4.429-19.96-4.253-23.655 7.494-3.681 11.746-4.561 18.874.747 40.227 5.309 21.352 25.386 94.254 28.217 110.254 2.815 16 32.777 3.343 29.345-20.063-3.798-25.855-6.951-90.881-13.991-108.978h.015Z" fill="#572EFF"/><path d="M508.946 391.066c7.406-1.217 18.962-3.168 21.646-2.361 5.573 1.701 9.943 6.629 9.987 12.641.059 6.967 10.955 74.031 10.941 74.339 1.114-.953 2.815-2.361 4.429-4.121a26.339 26.339 0 0 0-.264-3.153c-3.799-25.855-6.952-90.881-13.991-108.978-5.514-14.181-15.091-24.198-19.49-27.967a19.702 19.702 0 0 0-1.188-.968c-5.852-4.429-19.96-4.253-23.655 7.494-3.681 11.747-4.561 18.874.747 40.227.264 1.041 1.452 4.605 2.567 7.89a7.454 7.454 0 0 0 8.257 4.957h.014ZM514.695 195.064c-1.408 10.691 11.718 14.958 11.718 14.958 1.041-7.933 9.987-12.421 12.89-22.086 3.021-10.016-3.006-20.619-17.055-20.208-8.624.249-6.145 16.645-7.553 27.336Z" fill="#1C0A76"/><path d="M491.876 226.228c-7.318 2.595-30.284 19.475-47.78 37.675-.044.044-4.15 5.089-4.18 5.147-2.302 2.743-4.018 5.221-4.839 7.23-4.473 11 11.717 15.986 12.803 15.619 17.041-6.365 55.2-40.462 58.632-45.418 8.887-12.833-2.772-24.462-14.636-20.239v-.014Z" fill="#DB5A9B"/><path d="M526.105 225.392c7.508.968 21.22 4.37 25.297 11.527 4.077 7.156 1.1 75.556-4.091 120.3 0 0-62.152 26.265-84.223-1.951 0 0 15.384-115.255 24.183-125.946 7.347-8.916 31.31-4.898 38.819-3.93h.015Z" fill="#FF5EA6"/><path d="M527.645 225.582s-26.237 36.473-29.287 39.465c0 0 .953-31.311 1.525-40.696l27.762 1.231Z" fill="url('#paint6_linear_91_6350')"/><path d="M522.834 210.14a41.52 41.52 0 0 1 .572-2.288s-14.9-11.879-16.865.176l16.308 2.112h-.015Z" fill="url('#paint7_linear_91_6350')"/><path d="m506.878 233.208-4.517-8.608s4.664-3.153 4.048-11.395c-1.525-20.121 17.012-5.338 17.012-5.338s-3.373 16.733 2.698 17.525l-19.226 7.816h-.015Z" fill="#FFD2A7"/><path d="M506.981 229.249c10.427 1.349 9.914-11.718 10.412-14.167.47-2.317 5.999-7.23 5.999-7.23s-3.373 16.733 2.698 17.525l-19.226 7.817-2.669-5.089c.718.587 1.642.997 2.786 1.144Z" fill="#FFBC8E"/><path d="M553.309 246.715h-10.295l1.701 41.019s-.132 78.929-68.165 77.301c27.131 10.618 70.761-7.817 70.761-7.817 2.493-21.455 6.834-55.625 5.998-110.503Z" fill="#DB5A9B"/><path d="m501.247 179.005-5.148 23.23c-.909 6.937 6.336 13.609 13.639 14.563 7.303.968 13.976-3.887 14.885-10.809l.074-.572s7.64.455 8.652-7.23c1.012-7.699-4.443-5.22-4.443-5.22l.44-3.286a6.925 6.925 0 0 0-5.969-7.772l-22.115-2.904h-.015Z" fill="#FFD2A7"/><path d="m528.891 192.967.469-3.593a6.6 6.6 0 0 0-5.69-7.421l-3.725-.484c0 .073 0 .147-.014.22l-3.505 26.603c-.616 4.649-5.588 7.685-10.076 6.937-1.393-.235-4.121-1.452-5.162-2.244 3.08 2.478 5.896 3.461 8.565 3.813 7.303.968 13.976-3.886 14.885-10.809l.073-.571s7.641.454 8.653-7.231c1.012-7.699-4.444-5.22-4.444-5.22h-.029Z" fill="#FFBC8E"/><path d="M504.62 221.975c-.587 5.382 2.258 11.219 2.258 11.219s-3.065-1.863-6.364 1.642c-1.394 1.481-2.713 1.511-2.713 1.511s.044-4.312 2.126-12.349l4.693-2.023ZM522.908 221.535c-3.388 5.221-16.03 11.673-16.03 11.673s3.872-.821 7.582 4.195c1.57 2.126 4.048 2.889 4.048 2.889s8.037-6.16 9.137-14.71l-4.737-4.047Z" fill="#C8D3FB"/><path d="M520.722 179.225s-5.807 5.852-15.222 3.652c-9.415-2.185-10.897 2.728-10.897 2.728s-2.214-17.98 10.779-22.57c12.979-4.591 19.461 4.766 19.461 4.766l-4.106 11.424h-.015Z" fill="#1C0A76"/><path d="M452.015 277.41c-9.4-14.123-55.435-53.984-57.605-63.619-2.185-9.635-19.08-1.232-9.811 6.673 9.283 7.919 30.606 51.387 42.676 64.014 17.73 18.537 27.145-3.461 24.74-7.068Z" fill="#FFD2A7"/><path d="M440.928 263.947s-2.918 14.577-16.924 19.827c0 0 8.11 10.017 16.778 9.152 8.682-.866 13.066-10.017 13.066-14.021 0-4.003-9.723-13.198-12.92-14.958Z" fill="#DB5A9B"/><path d="M403.004 418.432v-46.079l114.301-44.935-114.301-44.45v-45.756l163.797 70.834v39.068l-163.797 71.318Z" fill="#6A5FFF"/><path d="M531.311 317.006c-.675-7.157.323-13.257 2.288-32.014 0-.792 0-1.599.014-2.42.572-14.768-3.563-31.208-3.285-33.906 1.1-10.105 19.095-21.925 27.469-1.614 7.611 18.479 5.866 58.368-2.596 69.91-3.168 4.326-9.415 6.863-14.9 5.661-2.508-.601-8.814-3.549-9.005-5.617h.015Z" fill="#FF5EA6"/><path d="M542.31 300.185c-14.49-2.845-57.752 2.728-65.628-1.804-5.352-3.08-2.698 14.739 1.658 14.064 10.031-1.569 47.193 8.887 61.961 10.339 12.597 1.232 11.82-20.663 2.009-22.584v-.015Z" fill="#FFD2A7"/><path d="M451.018 300.185c3.637-3.241 9.151-4.898 14.049-5.69 5.309-.851 15.399 6.687 20.415 7.406 2.023.293.029 9.767-1.599 10.31-5.411 1.803-11.322-1.452-12.143-1.203-2.185 1.305-1.217.337-3.123 1.789-2.45 1.833-25.856-5.265-17.614-12.612h.015ZM569.235 578.563c-7.684-2.669-9.547-14.402-10.324-21.368l-11.219 4.048s4.429 11.908 2.669 20.018c-1.76 8.11.66 7.347.66 7.347h34.464s-8.58-7.362-16.264-10.045h.014Z" fill="#FFD2A7"/><path d="M586.174 589.562h-34.948s-1.29.41-1.789-2.2c-.264-1.364-.44-1.32 0-4.854.088-.675.147-1.364.191-2.083 3.314.308 8.271-2.17 8.271-2.17 1.437-3.887 6.497-5.646 7.802-3.637 2.083 3.563 6.453 4.37 9.474 5.397 6.629 2.229 8.242 4.81 9.826 7.362.821 1.319 1.158 2.199 1.158 2.199l.015-.014Z" fill="#1C0A76"/><path d="M586.174 589.562h-34.948s-1.29.41-1.789-2.2h35.578c.822 1.32 1.159 2.2 1.159 2.2Z" fill="#1C0A76"/><path d="M553.764 465.39c10.133 8.271 5.499 67.783 10.603 107.35 0 0-11.733 2.625-18.801-.454 0 0-19.285-69.617-19.285-85.822 0-28.48 16.601-29.947 27.483-21.074Z" fill="#572EFF"/><path d="M456.943 579.354c7.714-2.595 4.194-14.914 5.045-21.866l11.175 4.165s.938 12.466 2.625 20.59c1.686 8.125-.733 7.348-.733 7.348l-35.139-.352s9.328-7.274 17.042-9.87l-.015-.015Z" fill="#FFD2A7"/><path d="M456.943 579.355c2.346-.719 2.889-2.273 4.311-4.488.895-1.569 3.637 1.159 5.001 4.238 0 0 6.042 2.479 9.298 1.482.073.557.147 1.114.249 1.657 1.687 8.124-.733 7.347-.733 7.347l-35.138-.352c1.804-6.629 9.606-7.596 17.041-9.87l-.029-.014Z" fill="#1C0A76"/><path d="M476.36 587.464c-.147 2.479-1.32 2.112-1.32 2.112l-35.138-.352s.132-.88.865-2.112l35.593.352Z" fill="#1C0A76"/><path d="M463.792 477.738c-6.497 7.201-2.494 56.579-4.327 92.289 0 0 11.806 3.461 18.596.411 0 0 18.684-68.722 14.621-82.918-5.441-19.05-20.179-19.417-28.89-9.767v-.015Z" fill="#572EFF"/><path d="M492.682 487.505c-.836-2.947-1.906-5.441-3.138-7.523.015.909-12.891 61.594-14.372 91.336a15.292 15.292 0 0 0 1.862-.484c.352-.132.704-.25 1.027-.396 0 0 5.939-22.438 10.779-45.375 3.241-16.044 5.544-31.604 3.842-37.558ZM553.763 465.39a24.096 24.096 0 0 0-4.106-2.698c1.349 5.455 6.644 28.069 6.292 44.201-.396 17.965 3.021 60.759 4.502 66.493 2.346-.293 3.916-.645 3.916-.645-5.104-39.567-.47-99.079-10.604-107.351Z" fill="#1C0A76"/><path d="M390.685 190.591c-2.332 8.344-10.383 9.914-9.533 17.642.851 7.729-.205 10.911 5.207 12.055 5.411 1.159 6.291-3.622 8.945-13.081 2.581-9.225-1.143-28.994-4.619-16.616Z" fill="#FFD2A7"/><path d="M487.799 84.736c.161-15.912 13.184-28.67 29.081-28.524 15.912.132 28.744 13.214 28.583 29.14-.073 7.406-2.948 14.138-7.597 19.197-5.763 6.262-9.943 14.358-10.031 22.863v.851l-23.318-.249v-.763c.103-8.55-3.915-16.762-9.562-23.186a28.63 28.63 0 0 1-7.156-19.329Z" fill="#FF5EA6"/><path d="M509.078 106.163s-1.437-6.365-2.434-12.642c-.587-3.681-.866-6.335-.954-8.257a4.728 4.728 0 0 1-1.627-.777c-4.444-3.124-.294-9.503-.118-9.767.147-.22.558-.264.91-.088.352.176.528.499.381.719-1.1 1.657-3.314 6.438-.367 8.505.279.191.543.338.807.411-.059-3.93.88-4.077 1.422-4.15.88-.132 1.687.132 2.171.704.997 1.158.278 3.417-1.335 4.238a2.896 2.896 0 0 1-.85.279c.234 4.854 1.628 13.17 3.387 20.942.059.278-.19.469-.572.44-.102 0-.19-.03-.278-.059-.264-.103-.47-.293-.513-.498h-.03ZM507.7 81.129c-.484.117-.69 1.217-.69 2.992 1.159-.675 1.584-2.39 1.1-2.948 0 0-.029-.03-.058-.044a.873.873 0 0 0-.352 0ZM523.201 106.808c-.088.029-.191.044-.279.058-.381.03-.63-.176-.557-.454 1.936-7.744 3.505-16.015 3.842-20.869a2.845 2.845 0 0 1-.836-.293c-1.598-.85-2.258-3.124-1.246-4.268.498-.557 1.305-.806 2.185-.645.543.088 1.466.25 1.334 4.18a2.74 2.74 0 0 0 .807-.396c2.992-2.01.895-6.835-.176-8.506-.147-.22.029-.543.396-.704.352-.176.763-.118.895.102.176.279 4.179 6.732-.338 9.767-.542.367-1.1.616-1.642.734-.132 1.92-.469 4.575-1.144 8.227-1.129 6.247-2.699 12.524-2.713 12.583-.044.205-.264.396-.528.484Zm2.082-25.489s-.058.03-.058.044c-.499.558-.103 2.273 1.041 2.977.044-1.774-.132-2.874-.616-3.006-.205-.03-.308-.03-.367 0v-.015Z" fill="#fff"/><path d="m509.108 105.429.703-.572c3.857-3.109 9.416-3.05 13.214.147l.689.587-.249 23.303-14.607-.147.25-23.303v-.015Zm13.242.777-.205-.161c-3.3-2.772-8.125-2.83-11.483-.117l-.205.161-.22 21.294 11.893.118.22-21.295Z" fill="#fff"/><path d="m504.077 129.774 24.154.249c.983 0 1.789-.777 1.804-1.76 0-.982-.777-1.789-1.76-1.804l-24.154-.249c-.982 0-1.789.777-1.804 1.76 0 .982.778 1.789 1.76 1.804Z" fill="#1C0A76"/><path d="m505.324 133.367 21.573.234c.879 0 1.598-.777 1.613-1.76 0-.982-.69-1.789-1.569-1.803l-21.573-.235c-.88 0-1.599.777-1.613 1.76 0 .982.689 1.789 1.569 1.804Z" fill="#572EFF"/><path d="m505.294 136.93 21.573.22c.88 0 1.599-.777 1.613-1.759 0-.983-.689-1.79-1.569-1.79l-21.573-.22c-.879 0-1.598.778-1.613 1.76 0 .983.69 1.789 1.569 1.804v-.015Z" fill="#1C0A76"/><path d="m505.25 140.509 21.573.22c.88 0 1.599-.778 1.613-1.76 0-.983-.689-1.789-1.569-1.804l-21.573-.22c-.879 0-1.598.777-1.613 1.76 0 .982.69 1.789 1.569 1.804Z" fill="#572EFF"/><path d="m505.207 144.072 21.572.22c.88 0 1.599-.777 1.613-1.759 0-.983-.689-1.79-1.569-1.804l-21.572-.235c-.88 0-1.599.777-1.614 1.76 0 .983.69 1.789 1.57 1.804v.014Z" fill="#1C0A76"/><path d="m521.661 147.812-11.41-.117a3.545 3.545 0 0 1-3.519-3.593l18.537.205a3.55 3.55 0 0 1-3.608 3.52v-.015Z" fill="#572EFF"/><path d="M516.572 47.501a2.032 2.032 0 0 1-1.554-2.009l.132-11.542c0-1.129.938-2.038 2.082-2.038a2.073 2.073 0 0 1 2.039 2.082l-.118 11.542c0 1.13-.938 2.038-2.082 2.038-.162 0-.323-.029-.469-.058l-.03-.015ZM497.038 51.138a2.084 2.084 0 0 1-1.261-.924l-6.16-10.016a2.067 2.067 0 0 1 .675-2.83 2.053 2.053 0 0 1 2.83.674l6.16 10.016c.601.968.293 2.23-.675 2.83a2.06 2.06 0 0 1-1.569.25ZM483.766 66.229c-.118-.03-.235-.073-.352-.117l-10.75-4.855a2.043 2.043 0 0 1-1.026-2.713c.469-1.026 1.686-1.51 2.713-1.026l10.749 4.854c1.027.47 1.496 1.686 1.027 2.713a2.058 2.058 0 0 1-2.361 1.144ZM469.203 90.779a2.057 2.057 0 0 1-1.554-1.936 2.038 2.038 0 0 1 1.979-2.112l9.753-.323a2.06 2.06 0 0 1 2.126 1.98 2.05 2.05 0 0 1-1.994 2.112l-9.753.323a2.32 2.32 0 0 1-.557-.06v.016ZM537.47 51.578a2.61 2.61 0 0 1-.63-.264c-.954-.616-1.232-1.892-.616-2.83l6.379-9.885a2.06 2.06 0 0 1 2.845-.616c.953.616 1.232 1.892.616 2.83l-6.379 9.885a2.04 2.04 0 0 1-2.215.88ZM550.42 66.947a2.045 2.045 0 0 1-1.393-1.188 2.069 2.069 0 0 1 1.085-2.698l10.837-4.62a2.07 2.07 0 0 1 2.699 1.086 2.069 2.069 0 0 1-1.085 2.698l-10.838 4.62c-.425.176-.88.205-1.291.102h-.014ZM554.687 91.277a2.045 2.045 0 0 1-1.554-2.097 2.05 2.05 0 0 1 2.156-1.936l9.752.528a2.05 2.05 0 0 1-.22 4.092l-9.752-.528c-.132 0-.264-.03-.382-.059Z" fill="#FF5EA6"/><path d="m154.895 548.513 11.835 4.972c-7.303 12.641-9.913 24.696 10.691 24.696 9.489 0 11.85 11.395 11.85 11.395H140.01s-4.898-1.994 2.2-13.507c7.714-12.509 12.685-27.556 12.685-27.556Z" fill="#FFD2A7"/><path d="M157.564 579.003c3.095-2.875-.337-8.33 4.033-8.58.939 4.693 5.412 7.773 15.839 7.773 9.489 0 11.85 11.395 11.85 11.395h-49.261s-4.605-1.863 1.569-12.466c5.162 0 11.307 6.204 15.97 1.863v.015Z" fill="#1C0A75"/><path d="M159.031 314.528c19.52 30.313 62.753 123.673 63.105 127.999.425 5.118-10.295 10.383-28.964-1.569-15.589-9.987-102.628-91.747-70.379-128.733 11.835-13.58 30.299-6.922 36.238 2.303Z" fill="#FF5EA6"/><path d="M129.891 306.682c9.18 82.082 74.163 137.326 78.313 140.963-4.18-.909-9.21-2.962-15.032-6.687-15.589-9.988-102.628-91.747-70.379-128.733 2.185-2.493 4.59-4.311 7.098-5.543Z" fill="#DB5A9B"/><path d="M98.478 338.285c4.135-18.566 14.401-32.703 17.818-36.487 5.617-6.203 20.884-9.239 26.662 2.801 5.793 12.04 7.831 19.652 5.411 44.304-2.434 24.653-16.879 63.618-20.033 81.554-1.994 11.366-31.251 25.87-28.597-.616 2.654-26.485-6.057-70.071-1.276-91.541l.015-.015ZM222.136 442.527c3.006 7.626-54.13 114.83-54.13 114.83-11.908-.543-16.586-7.128-16.586-7.128s14.372-32.498 18.214-53.616c17.115-94.093 50.376-59.439 52.487-54.071l.015-.015Z" fill="#FF5EA6"/><path d="M132.897 167.375c6.82-1.202 13.331 3.359 14.534 10.178 1.202 6.82-3.359 13.331-10.178 14.534-6.819 1.202-13.331-3.359-14.533-10.178-1.203-6.82 3.358-13.331 10.177-14.534Z" fill="#1C0A76"/><path d="M124.479 225.656c4.473-12.363-3.094-10.926.88-26.809 3.975-15.882 11.102-18.845 17.804-22.379 16.983-8.961 40.359 9.708 36.531 26.97-3.534 15.97-.894 38.687 2.318 52.076 3.211 13.404-2.948 52.121-36.796 47.956-33.847-4.15-38.218-19.989-36.942-40.887 1.525-25.004 11.733-24.565 16.205-36.927Z" fill="#1C0A76"/><path d="M212.809 296.328a9.288 9.288 0 0 0 2.346.22c7.186-.205 11.909-8.755 5.969-15.017-5.382-5.661-36.795-29.61-44.172-36.869-7.963-7.846-24.418 1.54-17.613 12.275 1.452 2.302 11.835 10.838 23.142 19.388 12.685 9.591 26.53 19.182 30.328 20.003Z" fill="#FFBC8E"/><path d="M217.34 282.205c-2.185-1.994-4.561-3.739-6.834-5.631-4.473-3.74-8.388-8.095-12.729-11.996-8.462-7.582-21.558-17.276-33.525-14.871-3.241.66-6.057 2.053-8.271 4.018 2.595-6.995 17.187-12.744 20.986-9.136 7.494 7.112 35.329 28.729 40.711 34.405 1.892 1.994 2.889 4.341 3.138 6.643a76.083 76.083 0 0 0-3.476-3.417v-.015Z" fill="#FFBC8E"/><path d="M212.809 296.328a9.288 9.288 0 0 0 2.346.22c-1.026-1.173-2.639-2.611-5.265-4.253-12.45-7.787-14.68-22.878-14.68-22.878l-12.729 6.893c12.685 9.591 26.53 19.182 30.328 20.003v.015Z" fill="#FFBC8E"/><path d="M187.174 281.619c-13.962-9.665-25.841-22.526-27.556-25.225-6.79-10.72 9.371-19.563 17.334-11.717 4.121 4.062 15.927 12.641 26.354 21.03-6.614 10.06-13.228 14.812-16.132 15.912Z" fill="url('#paint8_linear_91_6350')"/><path d="M171.907 245.894c-6.13-2.317-9.092 1.188-12.671 4.737-.014-8.536 10.926-12.642 17.716-5.954 4.121 4.062 15.927 12.641 26.354 21.03l-.088.132c-9.283-2.288-22.526-16.631-31.311-19.945Z" fill="#C8D3FB"/><path d="M122.353 282.044c.557-5.309-.235-10.486-.983-29.345-.293-7.362-1.246-13.273 1.188-15.986 3.08-3.431 10.163-2.522 15.106-1.422 8.931 1.994 9.444-20.517 9.444-20.517 2.376-4.194 17.041-.088 13.155 14.137-3.901 14.226 11.762 10.75 14.548 14.167 3.813 4.693 1.672 12.598 1.657 17.041-.015 4.444 5.162 10.882 2.567 18.493-2.596 7.612-9.914 5.69-9.914 5.69-3.315 2.435-6.996 7.406-8.11 11.249-2.611 8.931-.147 18.977-.147 18.977-28.788 5.646-48.835-9.415-48.835-9.415s8.667-7.157 10.339-23.054l-.015-.015Z" fill="#FFD2A7"/><path d="M137.664 235.291c8.931 1.994 9.444-20.517 9.444-20.517 1.32-2.332 6.424-2.097 10.046 1.012-2.933.103-12.275 10.823-12.275 29.551 0 5.323 4.796 9.532 9.62 11.644 0 0-33.011-1.511-33.114-4.282-.293-7.362 11.336-18.508 16.279-17.408Z" fill="#FFBC8E"/><path d="M122.368 282.044c.557-5.309-.235-10.486-.983-29.346-.293-7.362-1.246-13.272 1.188-15.985 2.772-3.094 8.77-2.669 13.536-1.76 3.05 13.287 12.832 22.394 22.071 20.444 5.94-1.261 10.237-6.79 11.85-14.137 2.141.425 3.989.835 4.781 1.818 3.813 4.693 1.672 12.612 1.657 17.041-.015 4.444 5.162 10.882 2.552 18.493-2.596 7.611-9.899 5.705-9.899 5.705-3.315 2.434-6.996 7.406-8.11 11.234-2.611 8.931-.147 18.977-.147 18.977-28.788 5.646-48.835-9.416-48.835-9.416s8.667-7.156 10.339-23.053v-.015Z" fill="url('#paint9_linear_91_6350')"/><path d="M122.368 282.044c.557-5.309-.235-10.486-.983-29.345-.293-7.362-1.246-13.273 1.188-15.986 2.669-2.991 8.359-2.698 13.052-1.848a32.856 32.856 0 0 0-.103 2.42c0 10.779-2.141 17.555 6.365 22.864l2.361 2.669c-6.232 0-11.277 5.822-11.057 11.864.146 4.443 2.874 8.08 6.614 9.87v12.949c0 9.826-10.105 16.455-19.065 12.451-5.573-2.493-8.711-4.854-8.711-4.854s8.667-7.157 10.339-23.054Z" fill="#C8D3FB"/><path d="M143.192 204.772s2.42-19.534 8.301-21.382c5.895-1.848 10.779-2.405 15.179 3.52 0 0 4.751 5.059 5.015 12.333 0 0 9.518 5.339 3.271 17.614-6.233 12.274-22.145 8.344-28.964-.176 0 0-7.465 4.37-10.164-2.889-2.698-7.245 2.127-8.712 7.362-9.02Z" fill="#FFD2A7"/><path d="M143.192 204.772s2.42-19.534 8.301-21.382c4.722-1.481 8.785-2.126 12.48.719-4.238-.132-14.929 18.962-12.92 28.509 2.039 9.709 13.683 13.404 21.089 7.362a17.236 17.236 0 0 0 2.434-2.42c-6.482 11.425-21.895 7.494-28.582-.865 0 0-7.465 4.37-10.164-2.889-2.698-7.245 2.127-8.711 7.362-9.019v-.015Z" fill="#FFBC8E"/><path d="M171.863 188.479s-9.782.645-16.337-3.49c-6.555-4.136-9.137-2.596-9.137-2.596 14.651-10.72 25.474 6.086 25.474 6.086Z" fill="#1C0A76"/><path d="M151.728 182.261c3.035 1.511 5.015 7.729.029 16.337-4.986 8.609-.895 16.821-7.215 13.272-6.321-3.563-6.556-4.341-8.492-10.705-1.935-6.365 8.99-22.218 15.678-18.889v-.015Z" fill="#1C0A76"/><path d="M75.116 578.24c-9.855-8.036-6.731-26.559-3.168-36.692l-13.155-3.124s-5.382 20.854-10.383 31.882c-5 11.029-1.378 11.19-1.378 11.19l29.712 4.297s8.227.484-1.628-7.538v-.015Z" fill="#FFD2A7"/><path d="M75.116 578.24c-2.977-2.42-4.913-5.954-6.13-10.002-.734-2.801-9.298-3.3-12.202.469 0 0-3.915 1.071-7.45-.674a36.23 36.23 0 0 1-.924 2.258c-5 11.028-1.378 11.19-1.378 11.19l20.722 7.934 21.074-.074s-.308-6.408-7.362-9.371c-2.244-.938-3.96.206-6.335-1.745l-.015.015Z" fill="#1C0A75"/><path d="M120.637 449.39c1.936-5.103 3.608-8.623 5.925-13.565 9.87-21.016-20.473-18.948-23.245-13.463-3.475 6.878-3.68 11.395-16.997 34.464-13.316 23.053-16.337 38.1-19.211 51.915-2.875 13.829-10.325 30.342-10.325 30.342 8.711 9.254 14.798 7.861 14.798 7.861s13.653-24.931 25.43-44.509c11.79-19.578 19.108-41.093 23.61-53.03l.015-.015Z" fill="#FF5EA6"/><path d="M102.98 347.114v-39.068l163.797-70.834v45.756l-114.301 44.45 114.301 44.935v46.079L102.98 347.114Z" fill="#6A5FFF"/><path d="M245.161 282.674s6.658-5.543 10.559-2.493c3.915 3.036 4.429 5.427.718 10.266-3.71 4.84-11.116 11.322-15.413 7.084-4.297-4.239-5.793-9.313 4.121-14.857h.015ZM141.154 240.673c3.93 9.708 23.553 44.641 26.266 52.077 3.329 9.077-6.585 15.516-13.683 10.427-6.057-4.341-33.657-52.092-34.581-57.884-2.009-12.715 17.745-15.12 21.983-4.62h.015Z" fill="#FFD2A7"/><path d="M163.651 291.855c-1.232-2.728-2.743-5.309-4.092-7.993-2.669-5.294-4.546-10.911-7.025-16.293-4.825-10.456-13.111-24.755-25.209-27.321-3.285-.69-6.468-.528-9.313.425 5.236-5.47 21.118-4.957 23.201-.073 4.106 9.635 21.323 40.945 24.051 48.381.953 2.625.938 5.206.249 7.435-.587-1.54-1.188-3.08-1.862-4.59v.029Z" fill="#FFBC8E"/><path d="M162.331 288.409c14.049.058 43.834 11.615 51.915 8.931 8.081-2.684 14.387-8.711 18.874-3.901 4.591 4.913 4.004 10.324 2.493 16.044-.997 3.754-8.271 2.273-17.569-.294-9.327-2.581-43.013-1.055-57.033-3.006-13.903-1.936-8.169-17.804 1.334-17.76l-.014-.014Z" fill="#FFD2A7"/><path d="M135.801 279.169c-9.092-14.621-17.716-31.809-18.214-35.006-2.009-12.715 19.681-13.858 23.934-3.343 2.199 5.44 9.371 18.023 15.692 30.034-10.193 6.702-18.274 8.462-21.412 8.33v-.015Z" fill="url('#paint10_linear_91_6350')"/><path d="M135.977 239.778c-4.781-4.619-13.111-2.361-17.862-.498 3.417-7.949 19.798-7.421 23.42 1.54 2.2 5.44 9.371 18.023 15.692 30.034l-.132.088c-7.728-5.851-14.269-24.535-21.103-31.149l-.015-.015Z" fill="#C8D3FB"/><path d="M186.69 76.29h100.047c7.934 0 14.372 6.437 14.372 14.371v54.834c0 7.934-6.438 14.372-14.372 14.372h-62.563l-21.719 26.104c-1.613 2.171-5.059 1.027-5.059-1.672l6.57-24.432h-17.291c-7.934 0-14.372-6.438-14.372-14.372V90.661c0-7.934 6.438-14.372 14.372-14.372h.015Z" fill="#6A6AE8"/><path d="M188.23 91.761v4.033h57.767l.058-4.033H188.23ZM188.23 103.919v4.047h104.373l.073-4.047H188.23ZM188.23 116.076v4.048h96.908l.059-4.048H188.23ZM252.039 95.809h17.833l.073-4.048h-17.833l-.073 4.048ZM188.23 127.442v4.048h57.767l.058-4.048H188.23ZM188.23 139.614v4.033h104.373l.073-4.033H188.23ZM252.039 131.49h17.833l.073-4.048h-17.833l-.073 4.048Z" fill="#fff"/></g><defs><linearGradient id="paint0_linear_91_6350" x1="170.221" y1="635.435" x2="510.779" y2="45.565" gradientUnits="userSpaceOnUse"><stop stop-color="#6A5FFF"/><stop offset="1" stop-color="#FF5EA6"/></linearGradient><linearGradient id="paint1_linear_91_6350" x1="-33.07" y1="429.871" x2="788.306" y2="212.97" gradientUnits="userSpaceOnUse"><stop stop-color="#fff"/><stop offset="1" stop-color="#D3DBEB"/></linearGradient><linearGradient id="paint2_linear_91_6350" x1="4.194" y1="570.995" x2="825.571" y2="354.095" gradientUnits="userSpaceOnUse"><stop stop-color="#fff"/><stop offset="1" stop-color="#D3DBEB"/></linearGradient><linearGradient id="paint3_linear_91_6350" x1="15.047" y1="303.147" x2="292.94" y2="303.147" gradientUnits="userSpaceOnUse"><stop stop-color="#fff"/><stop offset="1" stop-color="#D3DBEB"/></linearGradient><linearGradient id="paint4_linear_91_6350" x1="454.86" y1="270.37" x2="645.422" y2="270.37" gradientUnits="userSpaceOnUse"><stop stop-color="#fff"/><stop offset="1" stop-color="#D3DBEB"/></linearGradient><linearGradient id="paint5_linear_91_6350" x1="384.481" y1="345.691" x2="384.481" y2="138.587" gradientUnits="userSpaceOnUse"><stop stop-color="#fff" stop-opacity="0"/><stop offset="1" stop-color="#fff"/></linearGradient><linearGradient id="paint6_linear_91_6350" x1="498.358" y1="244.706" x2="527.645" y2="244.706" gradientUnits="userSpaceOnUse"><stop stop-color="#fff"/><stop offset="1" stop-color="#D3DBEB"/></linearGradient><linearGradient id="paint7_linear_91_6350" x1="474.704" y1="201.009" x2="566.467" y2="212.846" gradientUnits="userSpaceOnUse"><stop stop-color="#FFD000"/><stop offset="1" stop-color="#FF7400"/></linearGradient><linearGradient id="paint8_linear_91_6350" x1="208.937" y1="253.036" x2="152.417" y2="268.493" gradientUnits="userSpaceOnUse"><stop stop-color="#fff"/><stop offset=".95" stop-color="#D5DDEC"/><stop offset="1" stop-color="#D3DBEB"/></linearGradient><linearGradient id="paint9_linear_91_6350" x1="179.768" y1="275.034" x2="112.029" y2="275.034" gradientUnits="userSpaceOnUse"><stop stop-color="#fff"/><stop offset="1" stop-color="#D3DBEB"/></linearGradient><linearGradient id="paint10_linear_91_6350" x1="150.453" y1="250.144" x2="121.699" y2="258.973" gradientUnits="userSpaceOnUse"><stop stop-color="#fff"/><stop offset="1" stop-color="#D3DBEB"/></linearGradient><clipPath id="clip0_91_6350"><path fill="#fff" d="M0 0h681v681H0z"/></clipPath></defs></svg>