<svg width="107" height="192" viewBox="0 0 107 192" fill="none" xmlns="http://www.w3.org/2000/svg">
<g opacity="0.5" clip-path="url(#clip0_281_6622)">
<path opacity="0.08" d="M74.9026 123.92C74.9026 127.105 77.4741 129.696 80.6522 129.696C83.8303 129.696 86.415 127.119 86.415 123.92C86.415 120.72 83.8435 118.143 80.6522 118.143C77.4609 118.143 74.9026 120.72 74.9026 123.92Z" fill="#FF5EA6"/>
<path opacity="0.15" d="M75.1268 123.92C75.1268 126.973 77.606 129.459 80.6522 129.459C83.6984 129.459 86.1776 126.973 86.1776 123.92C86.1776 120.866 83.6984 118.381 80.6522 118.381C77.606 118.381 75.1268 120.866 75.1268 123.92Z" fill="#FF5EA6"/>
<path opacity="0.23" d="M75.3642 123.92C75.3642 126.854 77.7379 129.234 80.6654 129.234C83.5929 129.234 85.9666 126.854 85.9666 123.92C85.9666 120.985 83.5929 118.605 80.6654 118.605C77.7379 118.605 75.3642 120.985 75.3642 123.92Z" fill="#FF5EA6"/>
<path opacity="0.31" d="M75.5884 123.92C75.5884 126.722 77.8565 128.996 80.6522 128.996C83.4479 128.996 85.716 126.722 85.716 123.92C85.716 121.117 83.4479 118.843 80.6522 118.843C77.8565 118.843 75.5884 121.117 75.5884 123.92Z" fill="#FF5EA6"/>
<path opacity="0.38" d="M75.8257 123.92C75.8257 126.59 77.9884 128.771 80.6654 128.771C83.3424 128.771 85.5051 126.603 85.5051 123.92C85.5051 121.236 83.3424 119.068 80.6654 119.068C77.9884 119.068 75.8257 121.236 75.8257 123.92Z" fill="#FF5EA6"/>
<path opacity="0.46" d="M76.0499 123.92C76.0499 126.471 78.1071 128.533 80.6522 128.533C83.1973 128.533 85.2545 126.471 85.2545 123.92C85.2545 121.368 83.1973 119.306 80.6522 119.306C78.1071 119.306 76.0499 121.368 76.0499 123.92Z" fill="#FF5EA6"/>
<path opacity="0.54" d="M76.2873 123.92C76.2873 126.339 78.2522 128.308 80.6654 128.308C83.0786 128.308 85.0435 126.339 85.0435 123.92C85.0435 121.5 83.0786 119.531 80.6654 119.531C78.2522 119.531 76.2873 121.5 76.2873 123.92Z" fill="#FF5EA6"/>
<path opacity="0.62" d="M76.5115 123.92C76.5115 126.22 78.3708 128.07 80.6522 128.07C82.9336 128.07 84.793 126.207 84.793 123.92C84.793 121.633 82.9336 119.769 80.6522 119.769C78.3708 119.769 76.5115 121.633 76.5115 123.92Z" fill="#FF5EA6"/>
<path opacity="0.69" d="M76.7488 123.92C76.7488 126.088 78.5027 127.846 80.6654 127.846C82.8281 127.846 84.582 126.088 84.582 123.92C84.582 121.752 82.8281 119.993 80.6654 119.993C78.5027 119.993 76.7488 121.752 76.7488 123.92Z" fill="#FF5EA6"/>
<path opacity="0.77" d="M76.973 123.92C76.973 125.955 78.6214 127.608 80.6522 127.608C82.683 127.608 84.3314 125.955 84.3314 123.92C84.3314 121.884 82.683 120.231 80.6522 120.231C78.6214 120.231 76.973 121.884 76.973 123.92Z" fill="#FF5EA6"/>
<path opacity="0.85" d="M77.2104 123.92C77.2104 125.836 78.7533 127.383 80.6654 127.383C82.5775 127.383 84.1204 125.836 84.1204 123.92C84.1204 122.003 82.5775 120.456 80.6654 120.456C78.7533 120.456 77.2104 122.003 77.2104 123.92Z" fill="#FF5EA6"/>
<path opacity="0.92" d="M77.4346 123.92C77.4346 125.704 78.872 127.145 80.6522 127.145C82.4325 127.145 83.8699 125.704 83.8699 123.92C83.8699 122.135 82.4325 120.694 80.6522 120.694C78.872 120.694 77.4346 122.135 77.4346 123.92Z" fill="#FF5EA6"/>
<path d="M77.6719 123.92C77.6719 125.572 79.017 126.92 80.6654 126.92C82.3138 126.92 83.6589 125.572 83.6589 123.92C83.6589 122.267 82.3138 120.919 80.6654 120.919C79.017 120.919 77.6719 122.267 77.6719 123.92Z" fill="#FF5EA6"/>
<g opacity="0.25">
<path opacity="0.08" d="M56.2297 123.92C56.2297 127.105 58.8012 129.696 61.9793 129.696C65.1574 129.696 67.7421 127.119 67.7421 123.92C67.7421 120.72 65.1706 118.143 61.9793 118.143C58.788 118.143 56.2297 120.72 56.2297 123.92Z" fill="#FF5EA6"/>
<path opacity="0.15" d="M56.4671 123.92C56.4671 126.973 58.9463 129.459 61.9925 129.459C65.0387 129.459 67.5179 126.973 67.5179 123.92C67.5179 120.866 65.0387 118.381 61.9925 118.381C58.9463 118.381 56.4671 120.866 56.4671 123.92Z" fill="#FF5EA6"/>
<path opacity="0.23" d="M56.6913 123.92C56.6913 126.854 59.065 129.234 61.9925 129.234C64.92 129.234 67.2937 126.854 67.2937 123.92C67.2937 120.985 64.92 118.605 61.9925 118.605C59.065 118.605 56.6913 120.985 56.6913 123.92Z" fill="#FF5EA6"/>
<path opacity="0.31" d="M56.9287 123.92C56.9287 126.722 59.1968 128.996 61.9925 128.996C64.7882 128.996 67.0563 126.722 67.0563 123.92C67.0563 121.117 64.7882 118.843 61.9925 118.843C59.1968 118.843 56.9287 121.117 56.9287 123.92Z" fill="#FF5EA6"/>
<path opacity="0.38" d="M57.1528 123.92C57.1528 126.59 59.3155 128.771 61.9925 128.771C64.6695 128.771 66.8322 126.603 66.8322 123.92C66.8322 121.236 64.6695 119.068 61.9925 119.068C59.3155 119.068 57.1528 121.236 57.1528 123.92Z" fill="#FF5EA6"/>
<path opacity="0.46" d="M57.3902 123.92C57.3902 126.471 59.4474 128.533 61.9925 128.533C64.5376 128.533 66.5948 126.471 66.5948 123.92C66.5948 121.368 64.5376 119.306 61.9925 119.306C59.4474 119.306 57.3902 121.368 57.3902 123.92Z" fill="#FF5EA6"/>
<path opacity="0.54" d="M57.6144 123.92C57.6144 126.339 59.5793 128.308 61.9925 128.308C64.4057 128.308 66.3706 126.339 66.3706 123.92C66.3706 121.5 64.4057 119.531 61.9925 119.531C59.5793 119.531 57.6144 121.5 57.6144 123.92Z" fill="#FF5EA6"/>
<path opacity="0.62" d="M57.8517 123.92C57.8517 126.22 59.7111 128.07 61.9925 128.07C64.2739 128.07 66.1332 126.207 66.1332 123.92C66.1332 121.633 64.2739 119.769 61.9925 119.769C59.7111 119.769 57.8517 121.633 57.8517 123.92Z" fill="#FF5EA6"/>
<path opacity="0.69" d="M58.0759 123.92C58.0759 126.088 59.8298 127.846 61.9925 127.846C64.1552 127.846 65.9091 126.088 65.9091 123.92C65.9091 121.752 64.1552 119.993 61.9925 119.993C59.8298 119.993 58.0759 121.752 58.0759 123.92Z" fill="#FF5EA6"/>
<path opacity="0.77" d="M58.3001 123.92C58.3001 125.955 59.9485 127.608 61.9793 127.608C64.0101 127.608 65.6585 125.955 65.6585 123.92C65.6585 121.884 64.0101 120.231 61.9793 120.231C59.9485 120.231 58.3001 121.884 58.3001 123.92Z" fill="#FF5EA6"/>
<path opacity="0.85" d="M58.5375 123.92C58.5375 125.836 60.0804 127.383 61.9925 127.383C63.9046 127.383 65.4475 125.836 65.4475 123.92C65.4475 122.003 63.9046 120.456 61.9925 120.456C60.0804 120.456 58.5375 122.003 58.5375 123.92Z" fill="#FF5EA6"/>
<path opacity="0.92" d="M58.7617 123.92C58.7617 125.704 60.1991 127.145 61.9793 127.145C63.7596 127.145 65.197 125.704 65.197 123.92C65.197 122.135 63.7596 120.694 61.9793 120.694C60.1991 120.694 58.7617 122.135 58.7617 123.92Z" fill="#FF5EA6"/>
<path d="M58.999 123.92C58.999 125.572 60.3441 126.92 61.9925 126.92C63.6409 126.92 64.986 125.572 64.986 123.92C64.986 122.267 63.6409 120.919 61.9925 120.919C60.3441 120.919 58.999 122.267 58.999 123.92Z" fill="#FF5EA6"/>
</g>
<path opacity="0.08" d="M37.57 123.92C37.57 127.105 40.1415 129.696 43.3196 129.696C46.4977 129.696 49.0823 127.119 49.0823 123.92C49.0823 120.72 46.5109 118.143 43.3196 118.143C40.1283 118.143 37.57 120.72 37.57 123.92Z" fill="#FF5EA6"/>
<path opacity="0.15" d="M37.7942 123.92C37.7942 126.973 40.2733 129.459 43.3196 129.459C46.3658 129.459 48.845 126.973 48.845 123.92C48.845 120.866 46.3658 118.381 43.3196 118.381C40.2733 118.381 37.7942 120.866 37.7942 123.92Z" fill="#FF5EA6"/>
<path opacity="0.23" d="M38.0184 123.92C38.0184 126.854 40.392 129.234 43.3196 129.234C46.2471 129.234 48.6208 126.854 48.6208 123.92C48.6208 120.985 46.2471 118.605 43.3196 118.605C40.392 118.605 38.0184 120.985 38.0184 123.92Z" fill="#FF5EA6"/>
<path opacity="0.31" d="M38.2557 123.92C38.2557 126.722 40.5239 128.996 43.3196 128.996C46.1152 128.996 48.3834 126.722 48.3834 123.92C48.3834 121.117 46.1152 118.843 43.3196 118.843C40.5239 118.843 38.2557 121.117 38.2557 123.92Z" fill="#FF5EA6"/>
<path opacity="0.38" d="M38.4799 123.92C38.4799 126.59 40.6426 128.771 43.3196 128.771C45.9966 128.771 48.1592 126.603 48.1592 123.92C48.1592 121.236 45.9966 119.068 43.3196 119.068C40.6426 119.068 38.4799 121.236 38.4799 123.92Z" fill="#FF5EA6"/>
<path opacity="0.46" d="M38.7173 123.92C38.7173 126.471 40.7745 128.533 43.3196 128.533C45.8647 128.533 47.9219 126.471 47.9219 123.92C47.9219 121.368 45.8647 119.306 43.3196 119.306C40.7745 119.306 38.7173 121.368 38.7173 123.92Z" fill="#FF5EA6"/>
<path opacity="0.54" d="M38.9415 123.92C38.9415 126.339 40.9063 128.308 43.3196 128.308C45.7328 128.308 47.6977 126.339 47.6977 123.92C47.6977 121.5 45.7328 119.531 43.3196 119.531C40.9063 119.531 38.9415 121.5 38.9415 123.92Z" fill="#FF5EA6"/>
<path opacity="0.62" d="M39.1788 123.92C39.1788 126.22 41.0382 128.07 43.3196 128.07C45.6009 128.07 47.4603 126.207 47.4603 123.92C47.4603 121.633 45.6009 119.769 43.3196 119.769C41.0382 119.769 39.1788 121.633 39.1788 123.92Z" fill="#FF5EA6"/>
<path opacity="0.69" d="M39.403 123.92C39.403 126.088 41.1569 127.846 43.3196 127.846C45.4822 127.846 47.2361 126.088 47.2361 123.92C47.2361 121.752 45.4822 119.993 43.3196 119.993C41.1569 119.993 39.403 121.752 39.403 123.92Z" fill="#FF5EA6"/>
<path opacity="0.77" d="M39.6404 123.92C39.6404 125.955 41.2888 127.608 43.3196 127.608C45.3504 127.608 46.9988 125.955 46.9988 123.92C46.9988 121.884 45.3504 120.231 43.3196 120.231C41.2888 120.231 39.6404 121.884 39.6404 123.92Z" fill="#FF5EA6"/>
<path opacity="0.85" d="M39.8646 123.92C39.8646 125.836 41.4075 127.383 43.3196 127.383C45.2317 127.383 46.7746 125.836 46.7746 123.92C46.7746 122.003 45.2317 120.456 43.3196 120.456C41.4075 120.456 39.8646 122.003 39.8646 123.92Z" fill="#FF5EA6"/>
<path opacity="0.92" d="M40.1019 123.92C40.1019 125.704 41.5393 127.145 43.3196 127.145C45.0998 127.145 46.5372 125.704 46.5372 123.92C46.5372 122.135 45.0998 120.694 43.3196 120.694C41.5393 120.694 40.1019 122.135 40.1019 123.92Z" fill="#FF5EA6"/>
<path d="M40.3261 123.92C40.3261 125.572 41.6712 126.92 43.3196 126.92C44.968 126.92 46.313 125.572 46.313 123.92C46.313 122.267 44.968 120.919 43.3196 120.919C41.6712 120.919 40.3261 122.267 40.3261 123.92Z" fill="#FF5EA6"/>
<g opacity="0.25">
<path opacity="0.08" d="M18.8971 123.92C18.8971 127.105 21.4686 129.696 24.6467 129.696C27.8248 129.696 30.4094 127.119 30.4094 123.92C30.4094 120.72 27.8379 118.143 24.6467 118.143C21.4554 118.143 18.8971 120.72 18.8971 123.92Z" fill="#FF5EA6"/>
<path opacity="0.15" d="M19.1213 123.92C19.1213 126.973 21.6005 129.459 24.6467 129.459C27.6929 129.459 30.1721 126.973 30.1721 123.92C30.1721 120.866 27.6929 118.381 24.6467 118.381C21.6005 118.381 19.1213 120.866 19.1213 123.92Z" fill="#FF5EA6"/>
<path opacity="0.23" d="M19.3586 123.92C19.3586 126.854 21.7323 129.234 24.6599 129.234C27.5874 129.234 29.9611 126.854 29.9611 123.92C29.9611 120.985 27.5874 118.605 24.6599 118.605C21.7323 118.605 19.3586 120.985 19.3586 123.92Z" fill="#FF5EA6"/>
<path opacity="0.31" d="M19.5828 123.92C19.5828 126.722 21.851 128.996 24.6467 128.996C27.4423 128.996 29.7105 126.722 29.7105 123.92C29.7105 121.117 27.4423 118.843 24.6467 118.843C21.851 118.843 19.5828 121.117 19.5828 123.92Z" fill="#FF5EA6"/>
<path opacity="0.38" d="M19.8202 123.92C19.8202 126.59 21.9829 128.771 24.6599 128.771C27.3368 128.771 29.4995 126.603 29.4995 123.92C29.4995 121.236 27.3368 119.068 24.6599 119.068C21.9829 119.068 19.8202 121.236 19.8202 123.92Z" fill="#FF5EA6"/>
<path opacity="0.46" d="M20.0444 123.92C20.0444 126.471 22.1016 128.533 24.6467 128.533C27.1918 128.533 29.249 126.471 29.249 123.92C29.249 121.368 27.1918 119.306 24.6467 119.306C22.1016 119.306 20.0444 121.368 20.0444 123.92Z" fill="#FF5EA6"/>
<path opacity="0.54" d="M20.2817 123.92C20.2817 126.339 22.2466 128.308 24.6599 128.308C27.0731 128.308 29.038 126.339 29.038 123.92C29.038 121.5 27.0731 119.531 24.6599 119.531C22.2466 119.531 20.2817 121.5 20.2817 123.92Z" fill="#FF5EA6"/>
<path opacity="0.62" d="M20.5059 123.92C20.5059 126.22 22.3653 128.07 24.6467 128.07C26.928 128.07 28.7874 126.207 28.7874 123.92C28.7874 121.633 26.928 119.769 24.6467 119.769C22.3653 119.769 20.5059 121.633 20.5059 123.92Z" fill="#FF5EA6"/>
<path opacity="0.69" d="M20.7433 123.92C20.7433 126.088 22.4972 127.846 24.6599 127.846C26.8225 127.846 28.5764 126.088 28.5764 123.92C28.5764 121.752 26.8225 119.993 24.6599 119.993C22.4972 119.993 20.7433 121.752 20.7433 123.92Z" fill="#FF5EA6"/>
<path opacity="0.77" d="M20.9675 123.92C20.9675 125.955 22.6159 127.608 24.6467 127.608C26.6775 127.608 28.3259 125.955 28.3259 123.92C28.3259 121.884 26.6775 120.231 24.6467 120.231C22.6159 120.231 20.9675 121.884 20.9675 123.92Z" fill="#FF5EA6"/>
<path opacity="0.85" d="M21.1917 123.92C21.1917 125.836 22.7345 127.383 24.6467 127.383C26.5588 127.383 28.1017 125.836 28.1017 123.92C28.1017 122.003 26.5588 120.456 24.6467 120.456C22.7345 120.456 21.1917 122.003 21.1917 123.92Z" fill="#FF5EA6"/>
<path opacity="0.92" d="M21.429 123.92C21.429 125.704 22.8664 127.145 24.6467 127.145C26.4269 127.145 27.8643 125.704 27.8643 123.92C27.8643 122.135 26.4269 120.694 24.6467 120.694C22.8664 120.694 21.429 122.135 21.429 123.92Z" fill="#FF5EA6"/>
<path d="M21.6532 123.92C21.6532 125.572 22.9983 126.92 24.6467 126.92C26.2951 126.92 27.6401 125.572 27.6401 123.92C27.6401 122.267 26.2951 120.919 24.6467 120.919C22.9983 120.919 21.6532 122.267 21.6532 123.92Z" fill="#FF5EA6"/>
</g>
<g opacity="0.25">
<path opacity="0.08" d="M0.224182 123.92C0.224182 127.105 2.79566 129.696 5.97375 129.696C9.15184 129.696 11.7365 127.119 11.7365 123.92C11.7365 120.72 9.16503 118.143 5.97375 118.143C2.78248 118.143 0.224182 120.72 0.224182 123.92Z" fill="#FF5EA6"/>
<path opacity="0.15" d="M0.461541 123.92C0.461541 126.973 2.94072 129.459 5.98693 129.459C9.03315 129.459 11.5123 126.973 11.5123 123.92C11.5123 120.866 9.03315 118.381 5.98693 118.381C2.94072 118.381 0.461541 120.866 0.461541 123.92Z" fill="#FF5EA6"/>
<path opacity="0.23" d="M0.68573 123.92C0.68573 126.854 3.05941 129.234 5.98694 129.234C8.91448 129.234 11.2881 126.854 11.2881 123.92C11.2881 120.985 8.91448 118.605 5.98694 118.605C3.05941 118.605 0.68573 120.985 0.68573 123.92Z" fill="#FF5EA6"/>
<path opacity="0.31" d="M0.909917 123.92C0.909917 126.722 3.17809 128.996 5.97375 128.996C8.76941 128.996 11.0376 126.722 11.0376 123.92C11.0376 121.117 8.76941 118.843 5.97375 118.843C3.17809 118.843 0.909917 121.117 0.909917 123.92Z" fill="#FF5EA6"/>
<path opacity="0.38" d="M1.14728 123.92C1.14728 126.59 3.30996 128.771 5.98694 128.771C8.66392 128.771 10.8266 126.603 10.8266 123.92C10.8266 121.236 8.66392 119.068 5.98694 119.068C3.30996 119.068 1.14728 121.236 1.14728 123.92Z" fill="#FF5EA6"/>
<path opacity="0.46" d="M1.37146 123.92C1.37146 126.471 3.42864 128.533 5.97374 128.533C8.51885 128.533 10.576 126.471 10.576 123.92C10.576 121.368 8.51885 119.306 5.97374 119.306C3.42864 119.306 1.37146 121.368 1.37146 123.92Z" fill="#FF5EA6"/>
<path opacity="0.54" d="M1.60883 123.92C1.60883 126.339 3.5737 128.308 5.98694 128.308C8.40018 128.308 10.3651 126.339 10.3651 123.92C10.3651 121.5 8.40018 119.531 5.98694 119.531C3.5737 119.531 1.60883 121.5 1.60883 123.92Z" fill="#FF5EA6"/>
<path opacity="0.62" d="M1.833 123.92C1.833 126.22 3.69238 128.07 5.97374 128.07C8.25511 128.07 10.1145 126.207 10.1145 123.92C10.1145 121.633 8.25511 119.769 5.97374 119.769C3.69238 119.769 1.833 121.633 1.833 123.92Z" fill="#FF5EA6"/>
<path opacity="0.69" d="M2.07037 123.92C2.07037 126.088 3.82426 127.846 5.98694 127.846C8.14962 127.846 9.9035 126.088 9.9035 123.92C9.9035 121.752 8.14962 119.993 5.98694 119.993C3.82426 119.993 2.07037 121.752 2.07037 123.92Z" fill="#FF5EA6"/>
<path opacity="0.77" d="M2.29456 123.92C2.29456 125.955 3.94295 127.608 5.97376 127.608C8.00457 127.608 9.65295 125.955 9.65295 123.92C9.65295 121.884 8.00457 120.231 5.97376 120.231C3.94295 120.231 2.29456 121.884 2.29456 123.92Z" fill="#FF5EA6"/>
<path opacity="0.85" d="M2.53193 123.92C2.53193 125.836 4.07482 127.383 5.98695 127.383C7.89907 127.383 9.44196 125.836 9.44196 123.92C9.44196 122.003 7.89907 120.456 5.98695 120.456C4.07482 120.456 2.53193 122.003 2.53193 123.92Z" fill="#FF5EA6"/>
<path opacity="0.92" d="M2.7561 123.92C2.7561 125.704 4.1935 127.145 5.97375 127.145C7.75401 127.145 9.19141 125.704 9.19141 123.92C9.19141 122.135 7.75401 120.694 5.97375 120.694C4.1935 120.694 2.7561 122.135 2.7561 123.92Z" fill="#FF5EA6"/>
<path d="M2.99347 123.92C2.99347 125.572 4.33856 126.92 5.98694 126.92C7.63533 126.92 8.98041 125.572 8.98041 123.92C8.98041 122.267 7.63533 120.919 5.98694 120.919C4.33856 120.919 2.99347 122.267 2.99347 123.92Z" fill="#FF5EA6"/>
</g>
<g opacity="0.25">
<path opacity="0.08" d="M74.9026 144.608C74.9026 147.794 77.4741 150.385 80.6522 150.385C83.8303 150.385 86.415 147.807 86.415 144.608C86.415 141.409 83.8435 138.831 80.6522 138.831C77.4609 138.831 74.9026 141.409 74.9026 144.608Z" fill="#FF5EA6"/>
<path opacity="0.15" d="M75.1268 144.608C75.1268 147.662 77.606 150.147 80.6522 150.147C83.6984 150.147 86.1776 147.662 86.1776 144.608C86.1776 141.554 83.6984 139.069 80.6522 139.069C77.606 139.069 75.1268 141.554 75.1268 144.608Z" fill="#FF5EA6"/>
<path opacity="0.23" d="M75.3642 144.608C75.3642 147.543 77.7379 149.922 80.6654 149.922C83.5929 149.922 85.9666 147.543 85.9666 144.608C85.9666 141.673 83.5929 139.294 80.6654 139.294C77.7379 139.294 75.3642 141.673 75.3642 144.608Z" fill="#FF5EA6"/>
<path opacity="0.31" d="M75.5884 144.608C75.5884 147.411 77.8565 149.684 80.6522 149.684C83.4479 149.684 85.716 147.411 85.716 144.608C85.716 141.806 83.4479 139.532 80.6522 139.532C77.8565 139.532 75.5884 141.806 75.5884 144.608Z" fill="#FF5EA6"/>
<path opacity="0.38" d="M75.8257 144.608C75.8257 147.278 77.9884 149.46 80.6654 149.46C83.3424 149.46 85.5051 147.292 85.5051 144.608C85.5051 141.925 83.3424 139.757 80.6654 139.757C77.9884 139.757 75.8257 141.925 75.8257 144.608Z" fill="#FF5EA6"/>
<path opacity="0.46" d="M76.0499 144.608C76.0499 147.159 78.1071 149.222 80.6522 149.222C83.1973 149.222 85.2545 147.159 85.2545 144.608C85.2545 142.057 83.1973 139.995 80.6522 139.995C78.1071 139.995 76.0499 142.057 76.0499 144.608Z" fill="#FF5EA6"/>
<path opacity="0.54" d="M76.2873 144.608C76.2873 147.027 78.2522 148.997 80.6654 148.997C83.0786 148.997 85.0435 147.027 85.0435 144.608C85.0435 142.189 83.0786 140.219 80.6654 140.219C78.2522 140.219 76.2873 142.189 76.2873 144.608Z" fill="#FF5EA6"/>
<path opacity="0.62" d="M76.5115 144.608C76.5115 146.908 78.3708 148.759 80.6522 148.759C82.9336 148.759 84.793 146.895 84.793 144.608C84.793 142.321 82.9336 140.457 80.6522 140.457C78.3708 140.457 76.5115 142.321 76.5115 144.608Z" fill="#FF5EA6"/>
<path opacity="0.69" d="M76.7488 144.608C76.7488 146.776 78.5027 148.534 80.6654 148.534C82.8281 148.534 84.582 146.776 84.582 144.608C84.582 142.44 82.8281 140.682 80.6654 140.682C78.5027 140.682 76.7488 142.44 76.7488 144.608Z" fill="#FF5EA6"/>
<path opacity="0.77" d="M76.973 144.608C76.973 146.644 78.6214 148.296 80.6522 148.296C82.683 148.296 84.3314 146.644 84.3314 144.608C84.3314 142.572 82.683 140.92 80.6522 140.92C78.6214 140.92 76.973 142.572 76.973 144.608Z" fill="#FF5EA6"/>
<path opacity="0.85" d="M77.2104 144.608C77.2104 146.525 78.7533 148.072 80.6654 148.072C82.5775 148.072 84.1204 146.525 84.1204 144.608C84.1204 142.691 82.5775 141.145 80.6654 141.145C78.7533 141.145 77.2104 142.691 77.2104 144.608Z" fill="#FF5EA6"/>
<path opacity="0.92" d="M77.4346 144.608C77.4346 146.393 78.872 147.834 80.6522 147.834C82.4325 147.834 83.8699 146.393 83.8699 144.608C83.8699 142.823 82.4325 141.383 80.6522 141.383C78.872 141.383 77.4346 142.823 77.4346 144.608Z" fill="#FF5EA6"/>
<path d="M77.6719 144.608C77.6719 146.261 79.017 147.609 80.6654 147.609C82.3138 147.609 83.6589 146.261 83.6589 144.608C83.6589 142.956 82.3138 141.607 80.6654 141.607C79.017 141.607 77.6719 142.956 77.6719 144.608Z" fill="#FF5EA6"/>
</g>
<g opacity="0.25">
<path opacity="0.08" d="M56.2297 144.608C56.2297 147.794 58.8012 150.385 61.9793 150.385C65.1574 150.385 67.7421 147.807 67.7421 144.608C67.7421 141.409 65.1706 138.831 61.9793 138.831C58.788 138.831 56.2297 141.409 56.2297 144.608Z" fill="#FF5EA6"/>
<path opacity="0.15" d="M56.4671 144.608C56.4671 147.662 58.9463 150.147 61.9925 150.147C65.0387 150.147 67.5179 147.662 67.5179 144.608C67.5179 141.554 65.0387 139.069 61.9925 139.069C58.9463 139.069 56.4671 141.554 56.4671 144.608Z" fill="#FF5EA6"/>
<path opacity="0.23" d="M56.6913 144.608C56.6913 147.543 59.065 149.922 61.9925 149.922C64.92 149.922 67.2937 147.543 67.2937 144.608C67.2937 141.673 64.92 139.294 61.9925 139.294C59.065 139.294 56.6913 141.673 56.6913 144.608Z" fill="#FF5EA6"/>
<path opacity="0.31" d="M56.9287 144.608C56.9287 147.411 59.1968 149.684 61.9925 149.684C64.7882 149.684 67.0563 147.411 67.0563 144.608C67.0563 141.806 64.7882 139.532 61.9925 139.532C59.1968 139.532 56.9287 141.806 56.9287 144.608Z" fill="#FF5EA6"/>
<path opacity="0.38" d="M57.1528 144.608C57.1528 147.278 59.3155 149.46 61.9925 149.46C64.6695 149.46 66.8322 147.292 66.8322 144.608C66.8322 141.925 64.6695 139.757 61.9925 139.757C59.3155 139.757 57.1528 141.925 57.1528 144.608Z" fill="#FF5EA6"/>
<path opacity="0.46" d="M57.3902 144.608C57.3902 147.159 59.4474 149.222 61.9925 149.222C64.5376 149.222 66.5948 147.159 66.5948 144.608C66.5948 142.057 64.5376 139.995 61.9925 139.995C59.4474 139.995 57.3902 142.057 57.3902 144.608Z" fill="#FF5EA6"/>
<path opacity="0.54" d="M57.6144 144.608C57.6144 147.027 59.5793 148.997 61.9925 148.997C64.4057 148.997 66.3706 147.027 66.3706 144.608C66.3706 142.189 64.4057 140.219 61.9925 140.219C59.5793 140.219 57.6144 142.189 57.6144 144.608Z" fill="#FF5EA6"/>
<path opacity="0.62" d="M57.8517 144.608C57.8517 146.908 59.7111 148.759 61.9925 148.759C64.2739 148.759 66.1332 146.895 66.1332 144.608C66.1332 142.321 64.2739 140.457 61.9925 140.457C59.7111 140.457 57.8517 142.321 57.8517 144.608Z" fill="#FF5EA6"/>
<path opacity="0.69" d="M58.0759 144.608C58.0759 146.776 59.8298 148.534 61.9925 148.534C64.1552 148.534 65.9091 146.776 65.9091 144.608C65.9091 142.44 64.1552 140.682 61.9925 140.682C59.8298 140.682 58.0759 142.44 58.0759 144.608Z" fill="#FF5EA6"/>
<path opacity="0.77" d="M58.3001 144.608C58.3001 146.644 59.9485 148.296 61.9793 148.296C64.0101 148.296 65.6585 146.644 65.6585 144.608C65.6585 142.572 64.0101 140.92 61.9793 140.92C59.9485 140.92 58.3001 142.572 58.3001 144.608Z" fill="#FF5EA6"/>
<path opacity="0.85" d="M58.5375 144.608C58.5375 146.525 60.0804 148.072 61.9925 148.072C63.9046 148.072 65.4475 146.525 65.4475 144.608C65.4475 142.691 63.9046 141.145 61.9925 141.145C60.0804 141.145 58.5375 142.691 58.5375 144.608Z" fill="#FF5EA6"/>
<path opacity="0.92" d="M58.7617 144.608C58.7617 146.393 60.1991 147.834 61.9793 147.834C63.7596 147.834 65.197 146.393 65.197 144.608C65.197 142.823 63.7596 141.383 61.9793 141.383C60.1991 141.383 58.7617 142.823 58.7617 144.608Z" fill="#FF5EA6"/>
<path d="M58.999 144.608C58.999 146.261 60.3441 147.609 61.9925 147.609C63.6409 147.609 64.986 146.261 64.986 144.608C64.986 142.956 63.6409 141.607 61.9925 141.607C60.3441 141.607 58.999 142.956 58.999 144.608Z" fill="#FF5EA6"/>
</g>
<g opacity="0.25">
<path opacity="0.08" d="M37.57 144.608C37.57 147.794 40.1415 150.385 43.3196 150.385C46.4977 150.385 49.0823 147.807 49.0823 144.608C49.0823 141.409 46.5109 138.831 43.3196 138.831C40.1283 138.831 37.57 141.409 37.57 144.608Z" fill="#FF5EA6"/>
<path opacity="0.15" d="M37.7942 144.608C37.7942 147.662 40.2734 150.147 43.3196 150.147C46.3658 150.147 48.845 147.662 48.845 144.608C48.845 141.554 46.3658 139.069 43.3196 139.069C40.2734 139.069 37.7942 141.554 37.7942 144.608Z" fill="#FF5EA6"/>
<path opacity="0.23" d="M38.0184 144.608C38.0184 147.543 40.392 149.922 43.3196 149.922C46.2471 149.922 48.6208 147.543 48.6208 144.608C48.6208 141.673 46.2471 139.294 43.3196 139.294C40.392 139.294 38.0184 141.673 38.0184 144.608Z" fill="#FF5EA6"/>
<path opacity="0.31" d="M38.2557 144.608C38.2557 147.411 40.5239 149.684 43.3196 149.684C46.1152 149.684 48.3834 147.411 48.3834 144.608C48.3834 141.806 46.1152 139.532 43.3196 139.532C40.5239 139.532 38.2557 141.806 38.2557 144.608Z" fill="#FF5EA6"/>
<path opacity="0.38" d="M38.4799 144.608C38.4799 147.278 40.6426 149.46 43.3196 149.46C45.9966 149.46 48.1592 147.292 48.1592 144.608C48.1592 141.925 45.9966 139.757 43.3196 139.757C40.6426 139.757 38.4799 141.925 38.4799 144.608Z" fill="#FF5EA6"/>
<path opacity="0.46" d="M38.7173 144.608C38.7173 147.159 40.7745 149.222 43.3196 149.222C45.8647 149.222 47.9219 147.159 47.9219 144.608C47.9219 142.057 45.8647 139.995 43.3196 139.995C40.7745 139.995 38.7173 142.057 38.7173 144.608Z" fill="#FF5EA6"/>
<path opacity="0.54" d="M38.9415 144.608C38.9415 147.027 40.9063 148.997 43.3196 148.997C45.7328 148.997 47.6977 147.027 47.6977 144.608C47.6977 142.189 45.7328 140.219 43.3196 140.219C40.9063 140.219 38.9415 142.189 38.9415 144.608Z" fill="#FF5EA6"/>
<path opacity="0.62" d="M39.1788 144.608C39.1788 146.908 41.0382 148.759 43.3196 148.759C45.6009 148.759 47.4603 146.895 47.4603 144.608C47.4603 142.321 45.6009 140.457 43.3196 140.457C41.0382 140.457 39.1788 142.321 39.1788 144.608Z" fill="#FF5EA6"/>
<path opacity="0.69" d="M39.403 144.608C39.403 146.776 41.1569 148.534 43.3196 148.534C45.4823 148.534 47.2361 146.776 47.2361 144.608C47.2361 142.44 45.4823 140.682 43.3196 140.682C41.1569 140.682 39.403 142.44 39.403 144.608Z" fill="#FF5EA6"/>
<path opacity="0.77" d="M39.6404 144.608C39.6404 146.644 41.2888 148.296 43.3196 148.296C45.3504 148.296 46.9988 146.644 46.9988 144.608C46.9988 142.572 45.3504 140.92 43.3196 140.92C41.2888 140.92 39.6404 142.572 39.6404 144.608Z" fill="#FF5EA6"/>
<path opacity="0.85" d="M39.8646 144.608C39.8646 146.525 41.4075 148.072 43.3196 148.072C45.2317 148.072 46.7746 146.525 46.7746 144.608C46.7746 142.691 45.2317 141.145 43.3196 141.145C41.4075 141.145 39.8646 142.691 39.8646 144.608Z" fill="#FF5EA6"/>
<path opacity="0.92" d="M40.1019 144.608C40.1019 146.393 41.5393 147.834 43.3196 147.834C45.0998 147.834 46.5372 146.393 46.5372 144.608C46.5372 142.823 45.0998 141.383 43.3196 141.383C41.5393 141.383 40.1019 142.823 40.1019 144.608Z" fill="#FF5EA6"/>
<path d="M40.3261 144.608C40.3261 146.261 41.6712 147.609 43.3196 147.609C44.968 147.609 46.313 146.261 46.313 144.608C46.313 142.956 44.968 141.607 43.3196 141.607C41.6712 141.607 40.3261 142.956 40.3261 144.608Z" fill="#FF5EA6"/>
</g>
<path opacity="0.08" d="M18.8971 144.608C18.8971 147.794 21.4686 150.385 24.6467 150.385C27.8248 150.385 30.4094 147.807 30.4094 144.608C30.4094 141.409 27.8379 138.831 24.6467 138.831C21.4554 138.831 18.8971 141.409 18.8971 144.608Z" fill="#FF5EA6"/>
<path opacity="0.15" d="M19.1213 144.608C19.1213 147.662 21.6005 150.147 24.6467 150.147C27.6929 150.147 30.1721 147.662 30.1721 144.608C30.1721 141.554 27.6929 139.069 24.6467 139.069C21.6005 139.069 19.1213 141.554 19.1213 144.608Z" fill="#FF5EA6"/>
<path opacity="0.23" d="M19.3586 144.608C19.3586 147.543 21.7323 149.922 24.6599 149.922C27.5874 149.922 29.9611 147.543 29.9611 144.608C29.9611 141.673 27.5874 139.294 24.6599 139.294C21.7323 139.294 19.3586 141.673 19.3586 144.608Z" fill="#FF5EA6"/>
<path opacity="0.31" d="M19.5828 144.608C19.5828 147.411 21.851 149.684 24.6467 149.684C27.4423 149.684 29.7105 147.411 29.7105 144.608C29.7105 141.806 27.4423 139.532 24.6467 139.532C21.851 139.532 19.5828 141.806 19.5828 144.608Z" fill="#FF5EA6"/>
<path opacity="0.38" d="M19.8202 144.608C19.8202 147.278 21.9829 149.46 24.6599 149.46C27.3368 149.46 29.4995 147.292 29.4995 144.608C29.4995 141.925 27.3368 139.757 24.6599 139.757C21.9829 139.757 19.8202 141.925 19.8202 144.608Z" fill="#FF5EA6"/>
<path opacity="0.46" d="M20.0444 144.608C20.0444 147.159 22.1016 149.222 24.6467 149.222C27.1918 149.222 29.249 147.159 29.249 144.608C29.249 142.057 27.1918 139.994 24.6467 139.994C22.1016 139.994 20.0444 142.057 20.0444 144.608Z" fill="#FF5EA6"/>
<path opacity="0.54" d="M20.2817 144.608C20.2817 147.027 22.2466 148.997 24.6599 148.997C27.0731 148.997 29.038 147.027 29.038 144.608C29.038 142.189 27.0731 140.219 24.6599 140.219C22.2466 140.219 20.2817 142.189 20.2817 144.608Z" fill="#FF5EA6"/>
<path opacity="0.62" d="M20.5059 144.608C20.5059 146.908 22.3653 148.759 24.6467 148.759C26.928 148.759 28.7874 146.895 28.7874 144.608C28.7874 142.321 26.928 140.457 24.6467 140.457C22.3653 140.457 20.5059 142.321 20.5059 144.608Z" fill="#FF5EA6"/>
<path opacity="0.69" d="M20.7433 144.608C20.7433 146.776 22.4972 148.534 24.6599 148.534C26.8225 148.534 28.5764 146.776 28.5764 144.608C28.5764 142.44 26.8225 140.682 24.6599 140.682C22.4972 140.682 20.7433 142.44 20.7433 144.608Z" fill="#FF5EA6"/>
<path opacity="0.77" d="M20.9675 144.608C20.9675 146.644 22.6159 148.296 24.6467 148.296C26.6775 148.296 28.3259 146.644 28.3259 144.608C28.3259 142.572 26.6775 140.92 24.6467 140.92C22.6159 140.92 20.9675 142.572 20.9675 144.608Z" fill="#FF5EA6"/>
<path opacity="0.85" d="M21.1917 144.608C21.1917 146.525 22.7345 148.072 24.6467 148.072C26.5588 148.072 28.1017 146.525 28.1017 144.608C28.1017 142.691 26.5588 141.145 24.6467 141.145C22.7345 141.145 21.1917 142.691 21.1917 144.608Z" fill="#FF5EA6"/>
<path opacity="0.92" d="M21.429 144.608C21.429 146.393 22.8664 147.834 24.6467 147.834C26.4269 147.834 27.8643 146.393 27.8643 144.608C27.8643 142.823 26.4269 141.383 24.6467 141.383C22.8664 141.383 21.429 142.823 21.429 144.608Z" fill="#FF5EA6"/>
<path d="M21.6532 144.608C21.6532 146.261 22.9983 147.609 24.6467 147.609C26.2951 147.609 27.6401 146.261 27.6401 144.608C27.6401 142.956 26.2951 141.607 24.6467 141.607C22.9983 141.607 21.6532 142.956 21.6532 144.608Z" fill="#FF5EA6"/>
<g opacity="0.25">
<path opacity="0.08" d="M0.224182 144.608C0.224182 147.794 2.79566 150.385 5.97375 150.385C9.15184 150.385 11.7365 147.807 11.7365 144.608C11.7365 141.409 9.16503 138.831 5.97375 138.831C2.78248 138.831 0.224182 141.409 0.224182 144.608Z" fill="#FF5EA6"/>
<path opacity="0.15" d="M0.461541 144.608C0.461541 147.662 2.94072 150.147 5.98693 150.147C9.03315 150.147 11.5123 147.662 11.5123 144.608C11.5123 141.554 9.03315 139.069 5.98693 139.069C2.94072 139.069 0.461541 141.554 0.461541 144.608Z" fill="#FF5EA6"/>
<path opacity="0.23" d="M0.68573 144.608C0.68573 147.543 3.05941 149.922 5.98694 149.922C8.91448 149.922 11.2881 147.543 11.2881 144.608C11.2881 141.673 8.91448 139.294 5.98694 139.294C3.05941 139.294 0.68573 141.673 0.68573 144.608Z" fill="#FF5EA6"/>
<path opacity="0.31" d="M0.909917 144.608C0.909917 147.411 3.17809 149.684 5.97375 149.684C8.76941 149.684 11.0376 147.411 11.0376 144.608C11.0376 141.806 8.76941 139.532 5.97375 139.532C3.17809 139.532 0.909917 141.806 0.909917 144.608Z" fill="#FF5EA6"/>
<path opacity="0.38" d="M1.14728 144.608C1.14728 147.278 3.30996 149.46 5.98694 149.46C8.66392 149.46 10.8266 147.292 10.8266 144.608C10.8266 141.925 8.66392 139.757 5.98694 139.757C3.30996 139.757 1.14728 141.925 1.14728 144.608Z" fill="#FF5EA6"/>
<path opacity="0.46" d="M1.37146 144.608C1.37146 147.159 3.42864 149.222 5.97374 149.222C8.51885 149.222 10.576 147.159 10.576 144.608C10.576 142.057 8.51885 139.995 5.97374 139.995C3.42864 139.995 1.37146 142.057 1.37146 144.608Z" fill="#FF5EA6"/>
<path opacity="0.54" d="M1.60883 144.608C1.60883 147.027 3.5737 148.997 5.98694 148.997C8.40018 148.997 10.3651 147.027 10.3651 144.608C10.3651 142.189 8.40018 140.219 5.98694 140.219C3.5737 140.219 1.60883 142.189 1.60883 144.608Z" fill="#FF5EA6"/>
<path opacity="0.62" d="M1.833 144.608C1.833 146.908 3.69238 148.759 5.97374 148.759C8.25511 148.759 10.1145 146.895 10.1145 144.608C10.1145 142.321 8.25511 140.457 5.97374 140.457C3.69238 140.457 1.833 142.321 1.833 144.608Z" fill="#FF5EA6"/>
<path opacity="0.69" d="M2.07037 144.608C2.07037 146.776 3.82426 148.534 5.98694 148.534C8.14962 148.534 9.9035 146.776 9.9035 144.608C9.9035 142.44 8.14962 140.682 5.98694 140.682C3.82426 140.682 2.07037 142.44 2.07037 144.608Z" fill="#FF5EA6"/>
<path opacity="0.77" d="M2.29456 144.608C2.29456 146.644 3.94295 148.296 5.97376 148.296C8.00457 148.296 9.65295 146.644 9.65295 144.608C9.65295 142.572 8.00457 140.92 5.97376 140.92C3.94295 140.92 2.29456 142.572 2.29456 144.608Z" fill="#FF5EA6"/>
<path opacity="0.85" d="M2.53193 144.608C2.53193 146.525 4.07482 148.072 5.98695 148.072C7.89907 148.072 9.44196 146.525 9.44196 144.608C9.44196 142.691 7.89907 141.145 5.98695 141.145C4.07482 141.145 2.53193 142.691 2.53193 144.608Z" fill="#FF5EA6"/>
<path opacity="0.92" d="M2.7561 144.608C2.7561 146.393 4.1935 147.834 5.97375 147.834C7.75401 147.834 9.19141 146.393 9.19141 144.608C9.19141 142.823 7.75401 141.383 5.97375 141.383C4.1935 141.383 2.7561 142.823 2.7561 144.608Z" fill="#FF5EA6"/>
<path d="M2.99347 144.608C2.99347 146.261 4.33856 147.609 5.98694 147.609C7.63533 147.609 8.98041 146.261 8.98041 144.608C8.98041 142.956 7.63533 141.607 5.98694 141.607C4.33856 141.607 2.99347 142.956 2.99347 144.608Z" fill="#FF5EA6"/>
</g>
<g opacity="0.25">
<path opacity="0.08" d="M74.9026 165.31C74.9026 168.496 77.4741 171.087 80.6522 171.087C83.8303 171.087 86.415 168.509 86.415 165.31C86.415 162.111 83.8435 159.533 80.6522 159.533C77.4609 159.533 74.9026 162.111 74.9026 165.31Z" fill="#FF5EA6"/>
<path opacity="0.15" d="M75.1268 165.31C75.1268 168.364 77.606 170.849 80.6522 170.849C83.6984 170.849 86.1776 168.364 86.1776 165.31C86.1776 162.256 83.6984 159.771 80.6522 159.771C77.606 159.771 75.1268 162.256 75.1268 165.31Z" fill="#FF5EA6"/>
<path opacity="0.23" d="M75.3642 165.31C75.3642 168.245 77.7379 170.624 80.6654 170.624C83.5929 170.624 85.9666 168.245 85.9666 165.31C85.9666 162.375 83.5929 159.996 80.6654 159.996C77.7379 159.996 75.3642 162.375 75.3642 165.31Z" fill="#FF5EA6"/>
<path opacity="0.31" d="M75.5884 165.31C75.5884 168.112 77.8565 170.386 80.6522 170.386C83.4479 170.386 85.716 168.112 85.716 165.31C85.716 162.507 83.4479 160.234 80.6522 160.234C77.8565 160.234 75.5884 162.507 75.5884 165.31Z" fill="#FF5EA6"/>
<path opacity="0.38" d="M75.8257 165.31C75.8257 167.98 77.9884 170.161 80.6654 170.161C83.3424 170.161 85.5051 167.993 85.5051 165.31C85.5051 162.626 83.3424 160.458 80.6654 160.458C77.9884 160.458 75.8257 162.626 75.8257 165.31Z" fill="#FF5EA6"/>
<path opacity="0.46" d="M76.0499 165.31C76.0499 167.861 78.1071 169.923 80.6522 169.923C83.1973 169.923 85.2545 167.861 85.2545 165.31C85.2545 162.758 83.1973 160.696 80.6522 160.696C78.1071 160.696 76.0499 162.758 76.0499 165.31Z" fill="#FF5EA6"/>
<path opacity="0.54" d="M76.2873 165.31C76.2873 167.729 78.2522 169.699 80.6654 169.699C83.0786 169.699 85.0435 167.729 85.0435 165.31C85.0435 162.891 83.0786 160.921 80.6654 160.921C78.2522 160.921 76.2873 162.891 76.2873 165.31Z" fill="#FF5EA6"/>
<path opacity="0.62" d="M76.5115 165.31C76.5115 167.61 78.3708 169.461 80.6522 169.461C82.9336 169.461 84.793 167.597 84.793 165.31C84.793 163.023 82.9336 161.159 80.6522 161.159C78.3708 161.159 76.5115 163.023 76.5115 165.31Z" fill="#FF5EA6"/>
<path opacity="0.69" d="M76.7488 165.31C76.7488 167.478 78.5027 169.236 80.6654 169.236C82.8281 169.236 84.582 167.478 84.582 165.31C84.582 163.142 82.8281 161.384 80.6654 161.384C78.5027 161.384 76.7488 163.142 76.7488 165.31Z" fill="#FF5EA6"/>
<path opacity="0.77" d="M76.973 165.31C76.973 167.346 78.6214 168.998 80.6522 168.998C82.683 168.998 84.3314 167.346 84.3314 165.31C84.3314 163.274 82.683 161.622 80.6522 161.622C78.6214 161.622 76.973 163.274 76.973 165.31Z" fill="#FF5EA6"/>
<path opacity="0.85" d="M77.2104 165.31C77.2104 167.227 78.7533 168.773 80.6654 168.773C82.5775 168.773 84.1204 167.227 84.1204 165.31C84.1204 163.393 82.5775 161.846 80.6654 161.846C78.7533 161.846 77.2104 163.393 77.2104 165.31Z" fill="#FF5EA6"/>
<path opacity="0.92" d="M77.4346 165.31C77.4346 167.094 78.872 168.535 80.6522 168.535C82.4325 168.535 83.8699 167.094 83.8699 165.31C83.8699 163.525 82.4325 162.084 80.6522 162.084C78.872 162.084 77.4346 163.525 77.4346 165.31Z" fill="#FF5EA6"/>
<path d="M77.6719 165.31C77.6719 166.962 79.017 168.311 80.6654 168.311C82.3138 168.311 83.6589 166.962 83.6589 165.31C83.6589 163.657 82.3138 162.309 80.6654 162.309C79.017 162.309 77.6719 163.657 77.6719 165.31Z" fill="#FF5EA6"/>
</g>
<path opacity="0.08" d="M56.2297 165.31C56.2297 168.496 58.8012 171.087 61.9793 171.087C65.1574 171.087 67.7421 168.509 67.7421 165.31C67.7421 162.111 65.1706 159.533 61.9793 159.533C58.788 159.533 56.2297 162.111 56.2297 165.31Z" fill="#FF5EA6"/>
<path opacity="0.15" d="M56.4671 165.31C56.4671 168.364 58.9463 170.849 61.9925 170.849C65.0387 170.849 67.5179 168.364 67.5179 165.31C67.5179 162.256 65.0387 159.771 61.9925 159.771C58.9463 159.771 56.4671 162.256 56.4671 165.31Z" fill="#FF5EA6"/>
<path opacity="0.23" d="M56.6913 165.31C56.6913 168.245 59.065 170.624 61.9925 170.624C64.92 170.624 67.2937 168.245 67.2937 165.31C67.2937 162.375 64.92 159.996 61.9925 159.996C59.065 159.996 56.6913 162.375 56.6913 165.31Z" fill="#FF5EA6"/>
<path opacity="0.31" d="M56.9286 165.31C56.9286 168.112 59.1968 170.386 61.9925 170.386C64.7881 170.386 67.0563 168.112 67.0563 165.31C67.0563 162.507 64.7881 160.234 61.9925 160.234C59.1968 160.234 56.9286 162.507 56.9286 165.31Z" fill="#FF5EA6"/>
<path opacity="0.38" d="M57.1528 165.31C57.1528 167.98 59.3155 170.161 61.9925 170.161C64.6695 170.161 66.8322 167.993 66.8322 165.31C66.8322 162.626 64.6695 160.458 61.9925 160.458C59.3155 160.458 57.1528 162.626 57.1528 165.31Z" fill="#FF5EA6"/>
<path opacity="0.46" d="M57.3902 165.31C57.3902 167.861 59.4474 169.923 61.9925 169.923C64.5376 169.923 66.5948 167.861 66.5948 165.31C66.5948 162.758 64.5376 160.696 61.9925 160.696C59.4474 160.696 57.3902 162.758 57.3902 165.31Z" fill="#FF5EA6"/>
<path opacity="0.54" d="M57.6144 165.31C57.6144 167.729 59.5793 169.699 61.9925 169.699C64.4057 169.699 66.3706 167.729 66.3706 165.31C66.3706 162.891 64.4057 160.921 61.9925 160.921C59.5793 160.921 57.6144 162.891 57.6144 165.31Z" fill="#FF5EA6"/>
<path opacity="0.62" d="M57.8517 165.31C57.8517 167.61 59.7111 169.461 61.9925 169.461C64.2739 169.461 66.1332 167.597 66.1332 165.31C66.1332 163.023 64.2739 161.159 61.9925 161.159C59.7111 161.159 57.8517 163.023 57.8517 165.31Z" fill="#FF5EA6"/>
<path opacity="0.69" d="M58.0759 165.31C58.0759 167.478 59.8298 169.236 61.9925 169.236C64.1552 169.236 65.9091 167.478 65.9091 165.31C65.9091 163.142 64.1552 161.384 61.9925 161.384C59.8298 161.384 58.0759 163.142 58.0759 165.31Z" fill="#FF5EA6"/>
<path opacity="0.77" d="M58.3001 165.31C58.3001 167.346 59.9485 168.998 61.9793 168.998C64.0101 168.998 65.6585 167.346 65.6585 165.31C65.6585 163.274 64.0101 161.622 61.9793 161.622C59.9485 161.622 58.3001 163.274 58.3001 165.31Z" fill="#FF5EA6"/>
<path opacity="0.85" d="M58.5375 165.31C58.5375 167.227 60.0804 168.773 61.9925 168.773C63.9046 168.773 65.4475 167.227 65.4475 165.31C65.4475 163.393 63.9046 161.846 61.9925 161.846C60.0804 161.846 58.5375 163.393 58.5375 165.31Z" fill="#FF5EA6"/>
<path opacity="0.92" d="M58.7616 165.31C58.7616 167.094 60.199 168.535 61.9793 168.535C63.7596 168.535 65.1969 167.094 65.1969 165.31C65.1969 163.525 63.7596 162.084 61.9793 162.084C60.199 162.084 58.7616 163.525 58.7616 165.31Z" fill="#FF5EA6"/>
<path d="M58.999 165.31C58.999 166.962 60.3441 168.311 61.9925 168.311C63.6409 168.311 64.986 166.962 64.986 165.31C64.986 163.657 63.6409 162.309 61.9925 162.309C60.3441 162.309 58.999 163.657 58.999 165.31Z" fill="#FF5EA6"/>
<g opacity="0.25">
<path opacity="0.08" d="M37.57 165.31C37.57 168.496 40.1415 171.087 43.3196 171.087C46.4977 171.087 49.0823 168.509 49.0823 165.31C49.0823 162.111 46.5109 159.533 43.3196 159.533C40.1283 159.533 37.57 162.111 37.57 165.31Z" fill="#FF5EA6"/>
<path opacity="0.15" d="M37.7942 165.31C37.7942 168.364 40.2734 170.849 43.3196 170.849C46.3658 170.849 48.845 168.364 48.845 165.31C48.845 162.256 46.3658 159.771 43.3196 159.771C40.2734 159.771 37.7942 162.256 37.7942 165.31Z" fill="#FF5EA6"/>
<path opacity="0.23" d="M38.0184 165.31C38.0184 168.245 40.392 170.624 43.3196 170.624C46.2471 170.624 48.6208 168.245 48.6208 165.31C48.6208 162.375 46.2471 159.996 43.3196 159.996C40.392 159.996 38.0184 162.375 38.0184 165.31Z" fill="#FF5EA6"/>
<path opacity="0.31" d="M38.2557 165.31C38.2557 168.112 40.5239 170.386 43.3196 170.386C46.1152 170.386 48.3834 168.112 48.3834 165.31C48.3834 162.507 46.1152 160.234 43.3196 160.234C40.5239 160.234 38.2557 162.507 38.2557 165.31Z" fill="#FF5EA6"/>
<path opacity="0.38" d="M38.4799 165.31C38.4799 167.98 40.6426 170.161 43.3196 170.161C45.9966 170.161 48.1592 167.993 48.1592 165.31C48.1592 162.626 45.9966 160.458 43.3196 160.458C40.6426 160.458 38.4799 162.626 38.4799 165.31Z" fill="#FF5EA6"/>
<path opacity="0.46" d="M38.7173 165.31C38.7173 167.861 40.7745 169.923 43.3196 169.923C45.8647 169.923 47.9219 167.861 47.9219 165.31C47.9219 162.758 45.8647 160.696 43.3196 160.696C40.7745 160.696 38.7173 162.758 38.7173 165.31Z" fill="#FF5EA6"/>
<path opacity="0.54" d="M38.9415 165.31C38.9415 167.729 40.9063 169.699 43.3196 169.699C45.7328 169.699 47.6977 167.729 47.6977 165.31C47.6977 162.891 45.7328 160.921 43.3196 160.921C40.9063 160.921 38.9415 162.891 38.9415 165.31Z" fill="#FF5EA6"/>
<path opacity="0.62" d="M39.1788 165.31C39.1788 167.61 41.0382 169.461 43.3196 169.461C45.6009 169.461 47.4603 167.597 47.4603 165.31C47.4603 163.023 45.6009 161.159 43.3196 161.159C41.0382 161.159 39.1788 163.023 39.1788 165.31Z" fill="#FF5EA6"/>
<path opacity="0.69" d="M39.403 165.31C39.403 167.478 41.1569 169.236 43.3196 169.236C45.4823 169.236 47.2361 167.478 47.2361 165.31C47.2361 163.142 45.4823 161.384 43.3196 161.384C41.1569 161.384 39.403 163.142 39.403 165.31Z" fill="#FF5EA6"/>
<path opacity="0.77" d="M39.6404 165.31C39.6404 167.346 41.2888 168.998 43.3196 168.998C45.3504 168.998 46.9988 167.346 46.9988 165.31C46.9988 163.274 45.3504 161.622 43.3196 161.622C41.2888 161.622 39.6404 163.274 39.6404 165.31Z" fill="#FF5EA6"/>
<path opacity="0.85" d="M39.8646 165.31C39.8646 167.227 41.4075 168.773 43.3196 168.773C45.2317 168.773 46.7746 167.227 46.7746 165.31C46.7746 163.393 45.2317 161.846 43.3196 161.846C41.4075 161.846 39.8646 163.393 39.8646 165.31Z" fill="#FF5EA6"/>
<path opacity="0.92" d="M40.1019 165.31C40.1019 167.094 41.5393 168.535 43.3196 168.535C45.0998 168.535 46.5372 167.094 46.5372 165.31C46.5372 163.525 45.0998 162.084 43.3196 162.084C41.5393 162.084 40.1019 163.525 40.1019 165.31Z" fill="#FF5EA6"/>
<path d="M40.3261 165.31C40.3261 166.962 41.6712 168.311 43.3196 168.311C44.968 168.311 46.313 166.962 46.313 165.31C46.313 163.657 44.968 162.309 43.3196 162.309C41.6712 162.309 40.3261 163.657 40.3261 165.31Z" fill="#FF5EA6"/>
</g>
<g opacity="0.25">
<path opacity="0.08" d="M18.8971 165.31C18.8971 168.496 21.4686 171.087 24.6467 171.087C27.8248 171.087 30.4094 168.509 30.4094 165.31C30.4094 162.111 27.8379 159.533 24.6467 159.533C21.4554 159.533 18.8971 162.111 18.8971 165.31Z" fill="#FF5EA6"/>
<path opacity="0.15" d="M19.1213 165.31C19.1213 168.364 21.6005 170.849 24.6467 170.849C27.6929 170.849 30.1721 168.364 30.1721 165.31C30.1721 162.256 27.6929 159.771 24.6467 159.771C21.6005 159.771 19.1213 162.256 19.1213 165.31Z" fill="#FF5EA6"/>
<path opacity="0.23" d="M19.3586 165.31C19.3586 168.245 21.7323 170.624 24.6599 170.624C27.5874 170.624 29.9611 168.245 29.9611 165.31C29.9611 162.375 27.5874 159.996 24.6599 159.996C21.7323 159.996 19.3586 162.375 19.3586 165.31Z" fill="#FF5EA6"/>
<path opacity="0.31" d="M19.5828 165.31C19.5828 168.112 21.851 170.386 24.6467 170.386C27.4423 170.386 29.7105 168.112 29.7105 165.31C29.7105 162.507 27.4423 160.234 24.6467 160.234C21.851 160.234 19.5828 162.507 19.5828 165.31Z" fill="#FF5EA6"/>
<path opacity="0.38" d="M19.8202 165.31C19.8202 167.98 21.9829 170.161 24.6599 170.161C27.3368 170.161 29.4995 167.993 29.4995 165.31C29.4995 162.626 27.3368 160.458 24.6599 160.458C21.9829 160.458 19.8202 162.626 19.8202 165.31Z" fill="#FF5EA6"/>
<path opacity="0.46" d="M20.0444 165.31C20.0444 167.861 22.1016 169.923 24.6467 169.923C27.1918 169.923 29.249 167.861 29.249 165.31C29.249 162.758 27.1918 160.696 24.6467 160.696C22.1016 160.696 20.0444 162.758 20.0444 165.31Z" fill="#FF5EA6"/>
<path opacity="0.54" d="M20.2817 165.31C20.2817 167.729 22.2466 169.699 24.6599 169.699C27.0731 169.699 29.038 167.729 29.038 165.31C29.038 162.891 27.0731 160.921 24.6599 160.921C22.2466 160.921 20.2817 162.891 20.2817 165.31Z" fill="#FF5EA6"/>
<path opacity="0.62" d="M20.5059 165.31C20.5059 167.61 22.3653 169.461 24.6467 169.461C26.928 169.461 28.7874 167.597 28.7874 165.31C28.7874 163.023 26.928 161.159 24.6467 161.159C22.3653 161.159 20.5059 163.023 20.5059 165.31Z" fill="#FF5EA6"/>
<path opacity="0.69" d="M20.7433 165.31C20.7433 167.478 22.4972 169.236 24.6599 169.236C26.8225 169.236 28.5764 167.478 28.5764 165.31C28.5764 163.142 26.8225 161.384 24.6599 161.384C22.4972 161.384 20.7433 163.142 20.7433 165.31Z" fill="#FF5EA6"/>
<path opacity="0.77" d="M20.9675 165.31C20.9675 167.346 22.6159 168.998 24.6467 168.998C26.6775 168.998 28.3259 167.346 28.3259 165.31C28.3259 163.274 26.6775 161.622 24.6467 161.622C22.6159 161.622 20.9675 163.274 20.9675 165.31Z" fill="#FF5EA6"/>
<path opacity="0.85" d="M21.1917 165.31C21.1917 167.227 22.7345 168.773 24.6467 168.773C26.5588 168.773 28.1017 167.227 28.1017 165.31C28.1017 163.393 26.5588 161.846 24.6467 161.846C22.7345 161.846 21.1917 163.393 21.1917 165.31Z" fill="#FF5EA6"/>
<path opacity="0.92" d="M21.429 165.31C21.429 167.094 22.8664 168.535 24.6467 168.535C26.4269 168.535 27.8643 167.094 27.8643 165.31C27.8643 163.525 26.4269 162.084 24.6467 162.084C22.8664 162.084 21.429 163.525 21.429 165.31Z" fill="#FF5EA6"/>
<path d="M21.6532 165.31C21.6532 166.962 22.9983 168.311 24.6467 168.311C26.2951 168.311 27.6401 166.962 27.6401 165.31C27.6401 163.657 26.2951 162.309 24.6467 162.309C22.9983 162.309 21.6532 163.657 21.6532 165.31Z" fill="#FF5EA6"/>
</g>
<g opacity="0.25">
<path opacity="0.08" d="M0.224182 165.31C0.224182 168.496 2.79566 171.087 5.97375 171.087C9.15184 171.087 11.7365 168.509 11.7365 165.31C11.7365 162.111 9.16503 159.533 5.97375 159.533C2.78248 159.533 0.224182 162.111 0.224182 165.31Z" fill="#FF5EA6"/>
<path opacity="0.15" d="M0.461541 165.31C0.461541 168.364 2.94072 170.849 5.98693 170.849C9.03315 170.849 11.5123 168.364 11.5123 165.31C11.5123 162.256 9.03315 159.771 5.98693 159.771C2.94072 159.771 0.461541 162.256 0.461541 165.31Z" fill="#FF5EA6"/>
<path opacity="0.23" d="M0.68573 165.31C0.68573 168.245 3.05941 170.624 5.98694 170.624C8.91448 170.624 11.2881 168.245 11.2881 165.31C11.2881 162.375 8.91448 159.996 5.98694 159.996C3.05941 159.996 0.68573 162.375 0.68573 165.31Z" fill="#FF5EA6"/>
<path opacity="0.31" d="M0.909917 165.31C0.909917 168.112 3.17809 170.386 5.97375 170.386C8.76941 170.386 11.0376 168.112 11.0376 165.31C11.0376 162.507 8.76941 160.234 5.97375 160.234C3.17809 160.234 0.909917 162.507 0.909917 165.31Z" fill="#FF5EA6"/>
<path opacity="0.38" d="M1.14728 165.31C1.14728 167.98 3.30996 170.161 5.98694 170.161C8.66392 170.161 10.8266 167.993 10.8266 165.31C10.8266 162.626 8.66392 160.458 5.98694 160.458C3.30996 160.458 1.14728 162.626 1.14728 165.31Z" fill="#FF5EA6"/>
<path opacity="0.46" d="M1.37146 165.31C1.37146 167.861 3.42864 169.923 5.97374 169.923C8.51885 169.923 10.576 167.861 10.576 165.31C10.576 162.758 8.51885 160.696 5.97374 160.696C3.42864 160.696 1.37146 162.758 1.37146 165.31Z" fill="#FF5EA6"/>
<path opacity="0.54" d="M1.60883 165.31C1.60883 167.729 3.5737 169.699 5.98694 169.699C8.40018 169.699 10.3651 167.729 10.3651 165.31C10.3651 162.891 8.40018 160.921 5.98694 160.921C3.5737 160.921 1.60883 162.891 1.60883 165.31Z" fill="#FF5EA6"/>
<path opacity="0.62" d="M1.833 165.31C1.833 167.61 3.69238 169.461 5.97374 169.461C8.25511 169.461 10.1145 167.597 10.1145 165.31C10.1145 163.023 8.25511 161.159 5.97374 161.159C3.69238 161.159 1.833 163.023 1.833 165.31Z" fill="#FF5EA6"/>
<path opacity="0.69" d="M2.07037 165.31C2.07037 167.478 3.82426 169.236 5.98694 169.236C8.14962 169.236 9.9035 167.478 9.9035 165.31C9.9035 163.142 8.14962 161.384 5.98694 161.384C3.82426 161.384 2.07037 163.142 2.07037 165.31Z" fill="#FF5EA6"/>
<path opacity="0.77" d="M2.29456 165.31C2.29456 167.346 3.94295 168.998 5.97376 168.998C8.00457 168.998 9.65295 167.346 9.65295 165.31C9.65295 163.274 8.00457 161.622 5.97376 161.622C3.94295 161.622 2.29456 163.274 2.29456 165.31Z" fill="#FF5EA6"/>
<path opacity="0.85" d="M2.53193 165.31C2.53193 167.227 4.07482 168.773 5.98695 168.773C7.89907 168.773 9.44196 167.227 9.44196 165.31C9.44196 163.393 7.89907 161.846 5.98695 161.846C4.07482 161.846 2.53193 163.393 2.53193 165.31Z" fill="#FF5EA6"/>
<path opacity="0.92" d="M2.7561 165.31C2.7561 167.094 4.1935 168.535 5.97375 168.535C7.75401 168.535 9.19141 167.094 9.19141 165.31C9.19141 163.525 7.75401 162.084 5.97375 162.084C4.1935 162.084 2.7561 163.525 2.7561 165.31Z" fill="#FF5EA6"/>
<path d="M2.99347 165.31C2.99347 166.962 4.33856 168.311 5.98694 168.311C7.63533 168.311 8.98041 166.962 8.98041 165.31C8.98041 163.657 7.63533 162.309 5.98694 162.309C4.33856 162.309 2.99347 163.657 2.99347 165.31Z" fill="#FF5EA6"/>
</g>
<path opacity="0.08" d="M74.9026 185.998C74.9026 189.184 77.4741 191.775 80.6522 191.775C83.8303 191.775 86.415 189.197 86.415 185.998C86.415 182.799 83.8435 180.221 80.6522 180.221C77.4609 180.221 74.9026 182.799 74.9026 185.998Z" fill="#FF5EA6"/>
<path opacity="0.15" d="M75.1268 185.998C75.1268 189.052 77.606 191.537 80.6522 191.537C83.6984 191.537 86.1776 189.052 86.1776 185.998C86.1776 182.945 83.6984 180.459 80.6522 180.459C77.606 180.459 75.1268 182.945 75.1268 185.998Z" fill="#FF5EA6"/>
<path opacity="0.23" d="M75.3642 185.998C75.3642 188.933 77.7379 191.313 80.6654 191.313C83.5929 191.313 85.9666 188.933 85.9666 185.998C85.9666 183.064 83.5929 180.684 80.6654 180.684C77.7379 180.684 75.3642 183.064 75.3642 185.998Z" fill="#FF5EA6"/>
<path opacity="0.31" d="M75.5884 185.998C75.5884 188.801 77.8565 191.075 80.6522 191.075C83.4479 191.075 85.716 188.801 85.716 185.998C85.716 183.196 83.4479 180.922 80.6522 180.922C77.8565 180.922 75.5884 183.196 75.5884 185.998Z" fill="#FF5EA6"/>
<path opacity="0.38" d="M75.8257 185.998C75.8257 188.669 77.9884 190.85 80.6654 190.85C83.3424 190.85 85.5051 188.682 85.5051 185.998C85.5051 183.315 83.3424 181.147 80.6654 181.147C77.9884 181.147 75.8257 183.315 75.8257 185.998Z" fill="#FF5EA6"/>
<path opacity="0.46" d="M76.0499 185.998C76.0499 188.55 78.1071 190.612 80.6522 190.612C83.1973 190.612 85.2545 188.55 85.2545 185.998C85.2545 183.447 83.1973 181.385 80.6522 181.385C78.1071 181.385 76.0499 183.447 76.0499 185.998Z" fill="#FF5EA6"/>
<path opacity="0.54" d="M76.2873 185.998C76.2873 188.418 78.2522 190.387 80.6654 190.387C83.0786 190.387 85.0435 188.418 85.0435 185.998C85.0435 183.579 83.0786 181.609 80.6654 181.609C78.2522 181.609 76.2873 183.579 76.2873 185.998Z" fill="#FF5EA6"/>
<path opacity="0.62" d="M76.5115 185.998C76.5115 188.299 78.3708 190.149 80.6522 190.149C82.9336 190.149 84.793 188.285 84.793 185.998C84.793 183.711 82.9336 181.847 80.6522 181.847C78.3708 181.847 76.5115 183.711 76.5115 185.998Z" fill="#FF5EA6"/>
<path opacity="0.69" d="M76.7488 185.998C76.7488 188.166 78.5027 189.925 80.6654 189.925C82.8281 189.925 84.582 188.166 84.582 185.998C84.582 183.83 82.8281 182.072 80.6654 182.072C78.5027 182.072 76.7488 183.83 76.7488 185.998Z" fill="#FF5EA6"/>
<path opacity="0.77" d="M76.973 185.998C76.973 188.034 78.6214 189.687 80.6522 189.687C82.683 189.687 84.3314 188.034 84.3314 185.998C84.3314 183.963 82.683 182.31 80.6522 182.31C78.6214 182.31 76.973 183.963 76.973 185.998Z" fill="#FF5EA6"/>
<path opacity="0.85" d="M77.2104 185.998C77.2104 187.915 78.7533 189.462 80.6654 189.462C82.5775 189.462 84.1204 187.915 84.1204 185.998C84.1204 184.082 82.5775 182.535 80.6654 182.535C78.7533 182.535 77.2104 184.082 77.2104 185.998Z" fill="#FF5EA6"/>
<path opacity="0.92" d="M77.4346 185.998C77.4346 187.783 78.872 189.224 80.6522 189.224C82.4325 189.224 83.8699 187.783 83.8699 185.998C83.8699 184.214 82.4325 182.773 80.6522 182.773C78.872 182.773 77.4346 184.214 77.4346 185.998Z" fill="#FF5EA6"/>
<path d="M77.6719 185.998C77.6719 187.651 79.017 188.999 80.6654 188.999C82.3138 188.999 83.6589 187.651 83.6589 185.998C83.6589 184.346 82.3138 182.997 80.6654 182.997C79.017 182.997 77.6719 184.346 77.6719 185.998Z" fill="#FF5EA6"/>
<g opacity="0.25">
<path opacity="0.08" d="M56.2297 185.998C56.2297 189.184 58.8012 191.775 61.9793 191.775C65.1574 191.775 67.7421 189.197 67.7421 185.998C67.7421 182.799 65.1706 180.221 61.9793 180.221C58.788 180.221 56.2297 182.799 56.2297 185.998Z" fill="#FF5EA6"/>
<path opacity="0.15" d="M56.4671 185.998C56.4671 189.052 58.9463 191.537 61.9925 191.537C65.0387 191.537 67.5179 189.052 67.5179 185.998C67.5179 182.945 65.0387 180.459 61.9925 180.459C58.9463 180.459 56.4671 182.945 56.4671 185.998Z" fill="#FF5EA6"/>
<path opacity="0.23" d="M56.6913 185.998C56.6913 188.933 59.065 191.313 61.9925 191.313C64.92 191.313 67.2937 188.933 67.2937 185.998C67.2937 183.064 64.92 180.684 61.9925 180.684C59.065 180.684 56.6913 183.064 56.6913 185.998Z" fill="#FF5EA6"/>
<path opacity="0.31" d="M56.9287 185.998C56.9287 188.801 59.1968 191.075 61.9925 191.075C64.7882 191.075 67.0563 188.801 67.0563 185.998C67.0563 183.196 64.7882 180.922 61.9925 180.922C59.1968 180.922 56.9287 183.196 56.9287 185.998Z" fill="#FF5EA6"/>
<path opacity="0.38" d="M57.1528 185.998C57.1528 188.669 59.3155 190.85 61.9925 190.85C64.6695 190.85 66.8322 188.682 66.8322 185.998C66.8322 183.315 64.6695 181.147 61.9925 181.147C59.3155 181.147 57.1528 183.315 57.1528 185.998Z" fill="#FF5EA6"/>
<path opacity="0.46" d="M57.3902 185.998C57.3902 188.55 59.4474 190.612 61.9925 190.612C64.5376 190.612 66.5948 188.55 66.5948 185.998C66.5948 183.447 64.5376 181.385 61.9925 181.385C59.4474 181.385 57.3902 183.447 57.3902 185.998Z" fill="#FF5EA6"/>
<path opacity="0.54" d="M57.6144 185.998C57.6144 188.418 59.5793 190.387 61.9925 190.387C64.4057 190.387 66.3706 188.418 66.3706 185.998C66.3706 183.579 64.4057 181.609 61.9925 181.609C59.5793 181.609 57.6144 183.579 57.6144 185.998Z" fill="#FF5EA6"/>
<path opacity="0.62" d="M57.8517 185.998C57.8517 188.299 59.7111 190.149 61.9925 190.149C64.2739 190.149 66.1332 188.285 66.1332 185.998C66.1332 183.711 64.2739 181.847 61.9925 181.847C59.7111 181.847 57.8517 183.711 57.8517 185.998Z" fill="#FF5EA6"/>
<path opacity="0.69" d="M58.0759 185.998C58.0759 188.166 59.8298 189.925 61.9925 189.925C64.1552 189.925 65.9091 188.166 65.9091 185.998C65.9091 183.83 64.1552 182.072 61.9925 182.072C59.8298 182.072 58.0759 183.83 58.0759 185.998Z" fill="#FF5EA6"/>
<path opacity="0.77" d="M58.3001 185.998C58.3001 188.034 59.9485 189.687 61.9793 189.687C64.0101 189.687 65.6585 188.034 65.6585 185.998C65.6585 183.963 64.0101 182.31 61.9793 182.31C59.9485 182.31 58.3001 183.963 58.3001 185.998Z" fill="#FF5EA6"/>
<path opacity="0.85" d="M58.5375 185.998C58.5375 187.915 60.0804 189.462 61.9925 189.462C63.9046 189.462 65.4475 187.915 65.4475 185.998C65.4475 184.082 63.9046 182.535 61.9925 182.535C60.0804 182.535 58.5375 184.082 58.5375 185.998Z" fill="#FF5EA6"/>
<path opacity="0.92" d="M58.7617 185.998C58.7617 187.783 60.1991 189.224 61.9793 189.224C63.7596 189.224 65.197 187.783 65.197 185.998C65.197 184.214 63.7596 182.773 61.9793 182.773C60.1991 182.773 58.7617 184.214 58.7617 185.998Z" fill="#FF5EA6"/>
<path d="M58.999 185.998C58.999 187.651 60.3441 188.999 61.9925 188.999C63.6409 188.999 64.986 187.651 64.986 185.998C64.986 184.346 63.6409 182.998 61.9925 182.998C60.3441 182.998 58.999 184.346 58.999 185.998Z" fill="#FF5EA6"/>
</g>
<path opacity="0.08" d="M37.57 185.998C37.57 189.184 40.1415 191.775 43.3196 191.775C46.4977 191.775 49.0823 189.197 49.0823 185.998C49.0823 182.799 46.5109 180.221 43.3196 180.221C40.1283 180.221 37.57 182.799 37.57 185.998Z" fill="#FF5EA6"/>
<path opacity="0.15" d="M37.7942 185.998C37.7942 189.052 40.2733 191.537 43.3196 191.537C46.3658 191.537 48.845 189.052 48.845 185.998C48.845 182.945 46.3658 180.459 43.3196 180.459C40.2733 180.459 37.7942 182.945 37.7942 185.998Z" fill="#FF5EA6"/>
<path opacity="0.23" d="M38.0184 185.998C38.0184 188.933 40.392 191.313 43.3196 191.313C46.2471 191.313 48.6208 188.933 48.6208 185.998C48.6208 183.064 46.2471 180.684 43.3196 180.684C40.392 180.684 38.0184 183.064 38.0184 185.998Z" fill="#FF5EA6"/>
<path opacity="0.31" d="M38.2557 185.998C38.2557 188.801 40.5239 191.075 43.3196 191.075C46.1152 191.075 48.3834 188.801 48.3834 185.998C48.3834 183.196 46.1152 180.922 43.3196 180.922C40.5239 180.922 38.2557 183.196 38.2557 185.998Z" fill="#FF5EA6"/>
<path opacity="0.38" d="M38.4799 185.998C38.4799 188.669 40.6426 190.85 43.3196 190.85C45.9966 190.85 48.1592 188.682 48.1592 185.998C48.1592 183.315 45.9966 181.147 43.3196 181.147C40.6426 181.147 38.4799 183.315 38.4799 185.998Z" fill="#FF5EA6"/>
<path opacity="0.46" d="M38.7173 185.998C38.7173 188.55 40.7745 190.612 43.3196 190.612C45.8647 190.612 47.9219 188.55 47.9219 185.998C47.9219 183.447 45.8647 181.385 43.3196 181.385C40.7745 181.385 38.7173 183.447 38.7173 185.998Z" fill="#FF5EA6"/>
<path opacity="0.54" d="M38.9415 185.998C38.9415 188.418 40.9063 190.387 43.3196 190.387C45.7328 190.387 47.6977 188.418 47.6977 185.998C47.6977 183.579 45.7328 181.609 43.3196 181.609C40.9063 181.609 38.9415 183.579 38.9415 185.998Z" fill="#FF5EA6"/>
<path opacity="0.62" d="M39.1788 185.998C39.1788 188.299 41.0382 190.149 43.3196 190.149C45.6009 190.149 47.4603 188.285 47.4603 185.998C47.4603 183.711 45.6009 181.847 43.3196 181.847C41.0382 181.847 39.1788 183.711 39.1788 185.998Z" fill="#FF5EA6"/>
<path opacity="0.69" d="M39.403 185.998C39.403 188.166 41.1569 189.925 43.3196 189.925C45.4822 189.925 47.2361 188.166 47.2361 185.998C47.2361 183.83 45.4822 182.072 43.3196 182.072C41.1569 182.072 39.403 183.83 39.403 185.998Z" fill="#FF5EA6"/>
<path opacity="0.77" d="M39.6404 185.998C39.6404 188.034 41.2888 189.687 43.3196 189.687C45.3504 189.687 46.9988 188.034 46.9988 185.998C46.9988 183.963 45.3504 182.31 43.3196 182.31C41.2888 182.31 39.6404 183.963 39.6404 185.998Z" fill="#FF5EA6"/>
<path opacity="0.85" d="M39.8646 185.998C39.8646 187.915 41.4075 189.462 43.3196 189.462C45.2317 189.462 46.7746 187.915 46.7746 185.998C46.7746 184.082 45.2317 182.535 43.3196 182.535C41.4075 182.535 39.8646 184.082 39.8646 185.998Z" fill="#FF5EA6"/>
<path opacity="0.92" d="M40.1019 185.998C40.1019 187.783 41.5393 189.224 43.3196 189.224C45.0998 189.224 46.5372 187.783 46.5372 185.998C46.5372 184.214 45.0998 182.773 43.3196 182.773C41.5393 182.773 40.1019 184.214 40.1019 185.998Z" fill="#FF5EA6"/>
<path d="M40.3261 185.998C40.3261 187.651 41.6712 188.999 43.3196 188.999C44.968 188.999 46.313 187.651 46.313 185.998C46.313 184.346 44.968 182.997 43.3196 182.997C41.6712 182.997 40.3261 184.346 40.3261 185.998Z" fill="#FF5EA6"/>
<g opacity="0.25">
<path opacity="0.08" d="M18.8971 185.998C18.8971 189.184 21.4686 191.775 24.6467 191.775C27.8248 191.775 30.4094 189.197 30.4094 185.998C30.4094 182.799 27.8379 180.221 24.6467 180.221C21.4554 180.221 18.8971 182.799 18.8971 185.998Z" fill="#FF5EA6"/>
<path opacity="0.15" d="M19.1213 185.998C19.1213 189.052 21.6005 191.537 24.6467 191.537C27.6929 191.537 30.1721 189.052 30.1721 185.998C30.1721 182.945 27.6929 180.459 24.6467 180.459C21.6005 180.459 19.1213 182.945 19.1213 185.998Z" fill="#FF5EA6"/>
<path opacity="0.23" d="M19.3586 185.998C19.3586 188.933 21.7323 191.313 24.6599 191.313C27.5874 191.313 29.9611 188.933 29.9611 185.998C29.9611 183.064 27.5874 180.684 24.6599 180.684C21.7323 180.684 19.3586 183.064 19.3586 185.998Z" fill="#FF5EA6"/>
<path opacity="0.31" d="M19.5828 185.998C19.5828 188.801 21.851 191.075 24.6467 191.075C27.4423 191.075 29.7105 188.801 29.7105 185.998C29.7105 183.196 27.4423 180.922 24.6467 180.922C21.851 180.922 19.5828 183.196 19.5828 185.998Z" fill="#FF5EA6"/>
<path opacity="0.38" d="M19.8202 185.998C19.8202 188.669 21.9829 190.85 24.6599 190.85C27.3368 190.85 29.4995 188.682 29.4995 185.998C29.4995 183.315 27.3368 181.147 24.6599 181.147C21.9829 181.147 19.8202 183.315 19.8202 185.998Z" fill="#FF5EA6"/>
<path opacity="0.46" d="M20.0444 185.998C20.0444 188.55 22.1016 190.612 24.6467 190.612C27.1918 190.612 29.249 188.55 29.249 185.998C29.249 183.447 27.1918 181.385 24.6467 181.385C22.1016 181.385 20.0444 183.447 20.0444 185.998Z" fill="#FF5EA6"/>
<path opacity="0.54" d="M20.2817 185.998C20.2817 188.418 22.2466 190.387 24.6599 190.387C27.0731 190.387 29.038 188.418 29.038 185.998C29.038 183.579 27.0731 181.609 24.6599 181.609C22.2466 181.609 20.2817 183.579 20.2817 185.998Z" fill="#FF5EA6"/>
<path opacity="0.62" d="M20.5059 185.998C20.5059 188.299 22.3653 190.149 24.6467 190.149C26.928 190.149 28.7874 188.285 28.7874 185.998C28.7874 183.711 26.928 181.847 24.6467 181.847C22.3653 181.847 20.5059 183.711 20.5059 185.998Z" fill="#FF5EA6"/>
<path opacity="0.69" d="M20.7433 185.998C20.7433 188.166 22.4972 189.925 24.6599 189.925C26.8225 189.925 28.5764 188.166 28.5764 185.998C28.5764 183.83 26.8225 182.072 24.6599 182.072C22.4972 182.072 20.7433 183.83 20.7433 185.998Z" fill="#FF5EA6"/>
<path opacity="0.77" d="M20.9675 185.998C20.9675 188.034 22.6159 189.687 24.6467 189.687C26.6775 189.687 28.3259 188.034 28.3259 185.998C28.3259 183.963 26.6775 182.31 24.6467 182.31C22.6159 182.31 20.9675 183.963 20.9675 185.998Z" fill="#FF5EA6"/>
<path opacity="0.85" d="M21.1917 185.998C21.1917 187.915 22.7345 189.462 24.6467 189.462C26.5588 189.462 28.1017 187.915 28.1017 185.998C28.1017 184.082 26.5588 182.535 24.6467 182.535C22.7345 182.535 21.1917 184.082 21.1917 185.998Z" fill="#FF5EA6"/>
<path opacity="0.92" d="M21.429 185.998C21.429 187.783 22.8664 189.224 24.6467 189.224C26.4269 189.224 27.8643 187.783 27.8643 185.998C27.8643 184.214 26.4269 182.773 24.6467 182.773C22.8664 182.773 21.429 184.214 21.429 185.998Z" fill="#FF5EA6"/>
<path d="M21.6532 185.998C21.6532 187.651 22.9983 188.999 24.6467 188.999C26.2951 188.999 27.6401 187.651 27.6401 185.998C27.6401 184.346 26.2951 182.998 24.6467 182.998C22.9983 182.998 21.6532 184.346 21.6532 185.998Z" fill="#FF5EA6"/>
</g>
<path opacity="0.08" d="M0.224182 185.998C0.224182 189.184 2.79566 191.775 5.97375 191.775C9.15184 191.775 11.7365 189.197 11.7365 185.998C11.7365 182.799 9.16503 180.221 5.97375 180.221C2.78248 180.221 0.224182 182.799 0.224182 185.998Z" fill="#FF5EA6"/>
<path opacity="0.15" d="M0.461556 185.998C0.461556 189.052 2.94073 191.537 5.98695 191.537C9.03316 191.537 11.5123 189.052 11.5123 185.998C11.5123 182.945 9.03316 180.459 5.98695 180.459C2.94073 180.459 0.461556 182.945 0.461556 185.998Z" fill="#FF5EA6"/>
<path opacity="0.23" d="M0.68573 185.998C0.68573 188.933 3.05941 191.313 5.98694 191.313C8.91448 191.313 11.2881 188.933 11.2881 185.998C11.2881 183.064 8.91448 180.684 5.98694 180.684C3.05941 180.684 0.68573 183.064 0.68573 185.998Z" fill="#FF5EA6"/>
<path opacity="0.31" d="M0.909917 185.998C0.909917 188.801 3.17809 191.075 5.97375 191.075C8.76941 191.075 11.0376 188.801 11.0376 185.998C11.0376 183.196 8.76941 180.922 5.97375 180.922C3.17809 180.922 0.909917 183.196 0.909917 185.998Z" fill="#FF5EA6"/>
<path opacity="0.38" d="M1.14728 185.998C1.14728 188.669 3.30996 190.85 5.98694 190.85C8.66392 190.85 10.8266 188.682 10.8266 185.998C10.8266 183.315 8.66392 181.147 5.98694 181.147C3.30996 181.147 1.14728 183.315 1.14728 185.998Z" fill="#FF5EA6"/>
<path opacity="0.46" d="M1.37147 185.998C1.37147 188.55 3.42865 190.612 5.97376 190.612C8.51887 190.612 10.576 188.55 10.576 185.998C10.576 183.447 8.51887 181.385 5.97376 181.385C3.42865 181.385 1.37147 183.447 1.37147 185.998Z" fill="#FF5EA6"/>
<path opacity="0.54" d="M1.60883 185.998C1.60883 188.418 3.5737 190.387 5.98694 190.387C8.40018 190.387 10.3651 188.418 10.3651 185.998C10.3651 183.579 8.40018 181.609 5.98694 181.609C3.5737 181.609 1.60883 183.579 1.60883 185.998Z" fill="#FF5EA6"/>
<path opacity="0.62" d="M1.83301 185.998C1.83301 188.299 3.69239 190.149 5.97376 190.149C8.25512 190.149 10.1145 188.285 10.1145 185.998C10.1145 183.711 8.25512 181.847 5.97376 181.847C3.69239 181.847 1.83301 183.711 1.83301 185.998Z" fill="#FF5EA6"/>
<path opacity="0.69" d="M2.07037 185.998C2.07037 188.166 3.82426 189.925 5.98694 189.925C8.14962 189.925 9.9035 188.166 9.9035 185.998C9.9035 183.83 8.14962 182.072 5.98694 182.072C3.82426 182.072 2.07037 183.83 2.07037 185.998Z" fill="#FF5EA6"/>
<path opacity="0.77" d="M2.29456 185.998C2.29456 188.034 3.94295 189.687 5.97376 189.687C8.00457 189.687 9.65295 188.034 9.65295 185.998C9.65295 183.963 8.00457 182.31 5.97376 182.31C3.94295 182.31 2.29456 183.963 2.29456 185.998Z" fill="#FF5EA6"/>
<path opacity="0.85" d="M2.53193 185.998C2.53193 187.915 4.07482 189.462 5.98695 189.462C7.89907 189.462 9.44196 187.915 9.44196 185.998C9.44196 184.082 7.89907 182.535 5.98695 182.535C4.07482 182.535 2.53193 184.082 2.53193 185.998Z" fill="#FF5EA6"/>
<path opacity="0.92" d="M2.7561 185.998C2.7561 187.783 4.1935 189.224 5.97375 189.224C7.75401 189.224 9.19141 187.783 9.19141 185.998C9.19141 184.214 7.75401 182.773 5.97375 182.773C4.1935 182.773 2.7561 184.214 2.7561 185.998Z" fill="#FF5EA6"/>
<path d="M2.99347 185.998C2.99347 187.651 4.33856 188.999 5.98694 188.999C7.63533 188.999 8.98041 187.651 8.98041 185.998C8.98041 184.346 7.63533 182.997 5.98694 182.997C4.33856 182.997 2.99347 184.346 2.99347 185.998Z" fill="#FF5EA6"/>
<path d="M80.6654 123.92V99.675L97.6767 82.6219V0" stroke="#FF5EA6" stroke-width="0.2" stroke-miterlimit="10"/>
<path d="M24.2774 146.115V132.036L49.6889 106.549V0" stroke="#FF5EA6" stroke-width="0.2" stroke-miterlimit="10"/>
<path d="M61.9925 165.31V88.9804L81.5885 69.3363V0" stroke="#FF5EA6" stroke-width="0.2" stroke-miterlimit="10"/>
<path d="M43.3196 185.998V134.707L55.8737 122.122V0" stroke="#FF5EA6" stroke-width="0.2" stroke-miterlimit="10"/>
<path d="M5.98693 185.998L15.2443 176.718V110.912L36.6865 89.4035V0" stroke="#FF5EA6" stroke-width="0.2" stroke-miterlimit="10"/>
<path d="M80.6654 187.109V177.221L97.5712 160.26V100.217L106.868 90.8973V0" stroke="#FF5EA6" stroke-width="0.2" stroke-miterlimit="10"/>
</g>
<defs>
<clipPath id="clip0_281_6622">
<rect width="107" height="192" fill="white" transform="matrix(-1 0 0 1 107 0)"/>
</clipPath>
</defs>
</svg>
