<svg width="107" height="107" viewBox="0 0 107 107" fill="none" xmlns="http://www.w3.org/2000/svg">
<g opacity="0.5" clip-path="url(#clip0_281_6923)">
<path opacity="0.08" d="M38.9196 32.0974C42.1055 32.0974 44.6965 29.5259 44.6965 26.3478C44.6965 23.1697 42.1187 20.5851 38.9196 20.5851C35.7204 20.5851 33.1426 23.1565 33.1426 26.3478C33.1426 29.5391 35.7204 32.0974 38.9196 32.0974Z" fill="#FF5EA6"/>
<path opacity="0.15" d="M38.9196 31.8732C41.9733 31.8732 44.4586 29.394 44.4586 26.3478C44.4586 23.3016 41.9733 20.8224 38.9196 20.8224C35.8659 20.8224 33.3806 23.3016 33.3806 26.3478C33.3806 29.394 35.8659 31.8732 38.9196 31.8732Z" fill="#FF5EA6"/>
<path opacity="0.23" d="M38.9196 31.6358C41.8543 31.6358 44.2338 29.2621 44.2338 26.3346C44.2338 23.4071 41.8543 21.0334 38.9196 21.0334C35.9849 21.0334 33.6053 23.4071 33.6053 26.3346C33.6053 29.2621 35.9849 31.6358 38.9196 31.6358Z" fill="#FF5EA6"/>
<path opacity="0.31" d="M38.9196 31.4116C41.7221 31.4116 43.9959 29.1435 43.9959 26.3478C43.9959 23.5521 41.7221 21.284 38.9196 21.284C36.117 21.284 33.8433 23.5521 33.8433 26.3478C33.8433 29.1435 36.117 31.4116 38.9196 31.4116Z" fill="#FF5EA6"/>
<path opacity="0.38" d="M38.9196 31.1743C41.5899 31.1743 43.7711 29.0116 43.7711 26.3346C43.7711 23.6576 41.6031 21.4949 38.9196 21.4949C36.236 21.4949 34.068 23.6576 34.068 26.3346C34.068 29.0116 36.236 31.1743 38.9196 31.1743Z" fill="#FF5EA6"/>
<path opacity="0.46" d="M38.9196 30.9501C41.4709 30.9501 43.5332 28.8929 43.5332 26.3478C43.5332 23.8027 41.4709 21.7455 38.9196 21.7455C36.3682 21.7455 34.306 23.8027 34.306 26.3478C34.306 28.8929 36.3682 30.9501 38.9196 30.9501Z" fill="#FF5EA6"/>
<path opacity="0.54" d="M38.9196 30.7127C41.3387 30.7127 43.3084 28.7478 43.3084 26.3346C43.3084 23.9214 41.3387 21.9565 38.9196 21.9565C36.5004 21.9565 34.5307 23.9214 34.5307 26.3346C34.5307 28.7478 36.5004 30.7127 38.9196 30.7127Z" fill="#FF5EA6"/>
<path opacity="0.62" d="M38.9196 30.4886C41.2198 30.4886 43.0705 28.6292 43.0705 26.3478C43.0705 24.0664 41.2065 22.2071 38.9196 22.2071C36.6326 22.2071 34.7686 24.0664 34.7686 26.3478C34.7686 28.6292 36.6326 30.4886 38.9196 30.4886Z" fill="#FF5EA6"/>
<path opacity="0.69" d="M38.9196 30.2512C41.0876 30.2512 42.8458 28.4973 42.8458 26.3346C42.8458 24.1719 41.0876 22.418 38.9196 22.418C36.7516 22.418 34.9934 24.1719 34.9934 26.3346C34.9934 28.4973 36.7516 30.2512 38.9196 30.2512Z" fill="#FF5EA6"/>
<path opacity="0.77" d="M38.9196 30.027C40.9554 30.027 42.6078 28.3786 42.6078 26.3478C42.6078 24.317 40.9554 22.6686 38.9196 22.6686C36.8838 22.6686 35.2313 24.317 35.2313 26.3478C35.2313 28.3786 36.8838 30.027 38.9196 30.027Z" fill="#FF5EA6"/>
<path opacity="0.85" d="M38.9196 29.7896C40.8364 29.7896 42.3831 28.2467 42.3831 26.3346C42.3831 24.4225 40.8364 22.8796 38.9196 22.8796C37.0027 22.8796 35.4561 24.4225 35.4561 26.3346C35.4561 28.2467 37.0027 29.7896 38.9196 29.7896Z" fill="#FF5EA6"/>
<path opacity="0.92" d="M38.9196 29.5655C40.7042 29.5655 42.1451 28.1281 42.1451 26.3478C42.1451 24.5675 40.7042 23.1302 38.9196 23.1302C37.1349 23.1302 35.694 24.5675 35.694 26.3478C35.694 28.1281 37.1349 29.5655 38.9196 29.5655Z" fill="#FF5EA6"/>
<path d="M38.9196 29.3281C40.572 29.3281 41.9204 27.983 41.9204 26.3346C41.9204 24.6862 40.572 23.3411 38.9196 23.3411C37.2671 23.3411 35.9188 24.6862 35.9188 26.3346C35.9188 27.983 37.2671 29.3281 38.9196 29.3281Z" fill="#FF5EA6"/>
<g opacity="0.25">
<path opacity="0.08" d="M38.9196 50.7703C42.1055 50.7703 44.6965 48.1988 44.6965 45.0207C44.6965 41.8426 42.1187 39.2579 38.9196 39.2579C35.7204 39.2579 33.1426 41.8294 33.1426 45.0207C33.1426 48.212 35.7204 50.7703 38.9196 50.7703Z" fill="#FF5EA6"/>
<path opacity="0.15" d="M38.9196 50.5329C41.9733 50.5329 44.4586 48.0537 44.4586 45.0075C44.4586 41.9613 41.9733 39.4821 38.9196 39.4821C35.8659 39.4821 33.3806 41.9613 33.3806 45.0075C33.3806 48.0537 35.8659 50.5329 38.9196 50.5329Z" fill="#FF5EA6"/>
<path opacity="0.23" d="M38.9196 50.3087C41.8543 50.3087 44.2338 47.935 44.2338 45.0075C44.2338 42.08 41.8543 39.7063 38.9196 39.7063C35.9849 39.7063 33.6053 42.08 33.6053 45.0075C33.6053 47.935 35.9849 50.3087 38.9196 50.3087Z" fill="#FF5EA6"/>
<path opacity="0.31" d="M38.9196 50.0713C41.7221 50.0713 43.9959 47.8032 43.9959 45.0075C43.9959 42.2118 41.7221 39.9437 38.9196 39.9437C36.117 39.9437 33.8433 42.2118 33.8433 45.0075C33.8433 47.8032 36.117 50.0713 38.9196 50.0713Z" fill="#FF5EA6"/>
<path opacity="0.38" d="M38.9196 49.8472C41.5899 49.8472 43.7711 47.6845 43.7711 45.0075C43.7711 42.3305 41.6031 40.1678 38.9196 40.1678C36.236 40.1678 34.068 42.3305 34.068 45.0075C34.068 47.6845 36.236 49.8472 38.9196 49.8472Z" fill="#FF5EA6"/>
<path opacity="0.46" d="M38.9196 49.6098C41.4709 49.6098 43.5332 47.5526 43.5332 45.0075C43.5332 42.4624 41.4709 40.4052 38.9196 40.4052C36.3682 40.4052 34.306 42.4624 34.306 45.0075C34.306 47.5526 36.3682 49.6098 38.9196 49.6098Z" fill="#FF5EA6"/>
<path opacity="0.54" d="M38.9196 49.3856C41.3387 49.3856 43.3084 47.4207 43.3084 45.0075C43.3084 42.5943 41.3387 40.6294 38.9196 40.6294C36.5004 40.6294 34.5307 42.5943 34.5307 45.0075C34.5307 47.4207 36.5004 49.3856 38.9196 49.3856Z" fill="#FF5EA6"/>
<path opacity="0.62" d="M38.9196 49.1483C41.2198 49.1483 43.0705 47.2889 43.0705 45.0075C43.0705 42.7261 41.2065 40.8668 38.9196 40.8668C36.6326 40.8668 34.7686 42.7261 34.7686 45.0075C34.7686 47.2889 36.6326 49.1483 38.9196 49.1483Z" fill="#FF5EA6"/>
<path opacity="0.69" d="M38.9196 48.9241C41.0876 48.9241 42.8458 47.1702 42.8458 45.0075C42.8458 42.8448 41.0876 41.0909 38.9196 41.0909C36.7516 41.0909 34.9934 42.8448 34.9934 45.0075C34.9934 47.1702 36.7516 48.9241 38.9196 48.9241Z" fill="#FF5EA6"/>
<path opacity="0.77" d="M38.9196 48.6999C40.9554 48.6999 42.6078 47.0515 42.6078 45.0207C42.6078 42.9899 40.9554 41.3415 38.9196 41.3415C36.8838 41.3415 35.2313 42.9899 35.2313 45.0207C35.2313 47.0515 36.8838 48.6999 38.9196 48.6999Z" fill="#FF5EA6"/>
<path opacity="0.85" d="M38.9196 48.4625C40.8364 48.4625 42.3831 46.9196 42.3831 45.0075C42.3831 43.0954 40.8364 41.5525 38.9196 41.5525C37.0027 41.5525 35.4561 43.0954 35.4561 45.0075C35.4561 46.9196 37.0027 48.4625 38.9196 48.4625Z" fill="#FF5EA6"/>
<path opacity="0.92" d="M38.9196 48.2383C40.7042 48.2383 42.1451 46.8009 42.1451 45.0207C42.1451 43.2404 40.7042 41.803 38.9196 41.803C37.1349 41.803 35.694 43.2404 35.694 45.0207C35.694 46.8009 37.1349 48.2383 38.9196 48.2383Z" fill="#FF5EA6"/>
<path d="M38.9196 48.001C40.572 48.001 41.9204 46.6559 41.9204 45.0075C41.9204 43.3591 40.572 42.014 38.9196 42.014C37.2671 42.014 35.9187 43.3591 35.9187 45.0075C35.9187 46.6559 37.2671 48.001 38.9196 48.001Z" fill="#FF5EA6"/>
</g>
<path opacity="0.08" d="M38.9196 69.43C42.1055 69.43 44.6965 66.8585 44.6965 63.6804C44.6965 60.5023 42.1187 57.9177 38.9196 57.9177C35.7204 57.9177 33.1426 60.4891 33.1426 63.6804C33.1426 66.8717 35.7204 69.43 38.9196 69.43Z" fill="#FF5EA6"/>
<path opacity="0.15" d="M38.9196 69.2058C41.9733 69.2058 44.4586 66.7267 44.4586 63.6805C44.4586 60.6342 41.9733 58.1551 38.9196 58.1551C35.8659 58.1551 33.3806 60.6342 33.3806 63.6805C33.3806 66.7267 35.8659 69.2058 38.9196 69.2058Z" fill="#FF5EA6"/>
<path opacity="0.23" d="M38.9196 68.9816C41.8543 68.9816 44.2338 66.608 44.2338 63.6804C44.2338 60.7529 41.8543 58.3792 38.9196 58.3792C35.9849 58.3792 33.6053 60.7529 33.6053 63.6804C33.6053 66.608 35.9849 68.9816 38.9196 68.9816Z" fill="#FF5EA6"/>
<path opacity="0.31" d="M38.9196 68.7443C41.7221 68.7443 43.9959 66.4761 43.9959 63.6804C43.9959 60.8848 41.7221 58.6166 38.9196 58.6166C36.117 58.6166 33.8433 60.8848 33.8433 63.6804C33.8433 66.4761 36.117 68.7443 38.9196 68.7443Z" fill="#FF5EA6"/>
<path opacity="0.38" d="M38.9196 68.5201C41.5899 68.5201 43.7711 66.3574 43.7711 63.6804C43.7711 61.0034 41.6031 58.8408 38.9196 58.8408C36.236 58.8408 34.068 61.0034 34.068 63.6804C34.068 66.3574 36.236 68.5201 38.9196 68.5201Z" fill="#FF5EA6"/>
<path opacity="0.46" d="M38.9196 68.2827C41.4709 68.2827 43.5332 66.2256 43.5332 63.6805C43.5332 61.1353 41.4709 59.0782 38.9196 59.0782C36.3682 59.0782 34.306 61.1353 34.306 63.6804C34.306 66.2256 36.3682 68.2827 38.9196 68.2827Z" fill="#FF5EA6"/>
<path opacity="0.54" d="M38.9196 68.0585C41.3387 68.0585 43.3084 66.0937 43.3084 63.6804C43.3084 61.2672 41.3387 59.3023 38.9196 59.3023C36.5004 59.3023 34.5307 61.2672 34.5307 63.6804C34.5307 66.0937 36.5004 68.0585 38.9196 68.0585Z" fill="#FF5EA6"/>
<path opacity="0.62" d="M38.9196 67.8212C41.2198 67.8212 43.0705 65.9618 43.0705 63.6804C43.0705 61.3991 41.2065 59.5397 38.9196 59.5397C36.6326 59.5397 34.7686 61.3991 34.7686 63.6804C34.7686 65.9618 36.6326 67.8212 38.9196 67.8212Z" fill="#FF5EA6"/>
<path opacity="0.69" d="M38.9196 67.597C41.0876 67.597 42.8458 65.8431 42.8458 63.6805C42.8458 61.5178 41.0876 59.7639 38.9196 59.7639C36.7516 59.7639 34.9934 61.5178 34.9934 63.6805C34.9934 65.8431 36.7516 67.597 38.9196 67.597Z" fill="#FF5EA6"/>
<path opacity="0.77" d="M38.9196 67.3596C40.9554 67.3596 42.6078 65.7113 42.6078 63.6804C42.6078 61.6496 40.9554 60.0013 38.9196 60.0013C36.8838 60.0013 35.2313 61.6496 35.2313 63.6804C35.2313 65.7113 36.8838 67.3596 38.9196 67.3596Z" fill="#FF5EA6"/>
<path opacity="0.85" d="M38.9196 67.1354C40.8364 67.1354 42.3831 65.5926 42.3831 63.6804C42.3831 61.7683 40.8364 60.2254 38.9196 60.2254C37.0027 60.2254 35.4561 61.7683 35.4561 63.6804C35.4561 65.5925 37.0027 67.1354 38.9196 67.1354Z" fill="#FF5EA6"/>
<path opacity="0.92" d="M38.9196 66.8981C40.7042 66.8981 42.1451 65.4607 42.1451 63.6804C42.1451 61.9002 40.7042 60.4628 38.9196 60.4628C37.1349 60.4628 35.694 61.9002 35.694 63.6804C35.694 65.4607 37.1349 66.8981 38.9196 66.8981Z" fill="#FF5EA6"/>
<path d="M38.9196 66.6739C40.572 66.6739 41.9204 65.3288 41.9204 63.6805C41.9204 62.0321 40.572 60.687 38.9196 60.687C37.2671 60.687 35.9188 62.0321 35.9188 63.6804C35.9188 65.3288 37.2671 66.6739 38.9196 66.6739Z" fill="#FF5EA6"/>
<g opacity="0.25">
<path opacity="0.08" d="M38.9196 88.1029C42.1055 88.1029 44.6965 85.5314 44.6965 82.3533C44.6965 79.1752 42.1187 76.5906 38.9196 76.5906C35.7204 76.5906 33.1426 79.1621 33.1426 82.3533C33.1426 85.5446 35.7204 88.1029 38.9196 88.1029Z" fill="#FF5EA6"/>
<path opacity="0.15" d="M38.9196 87.8787C41.9733 87.8787 44.4586 85.3995 44.4586 82.3533C44.4586 79.3071 41.9733 76.8279 38.9196 76.8279C35.8659 76.8279 33.3806 79.3071 33.3806 82.3533C33.3806 85.3995 35.8659 87.8787 38.9196 87.8787Z" fill="#FF5EA6"/>
<path opacity="0.23" d="M38.9196 87.6414C41.8543 87.6414 44.2338 85.2677 44.2338 82.3401C44.2338 79.4126 41.8543 77.0389 38.9196 77.0389C35.9849 77.0389 33.6053 79.4126 33.6053 82.3401C33.6053 85.2677 35.9849 87.6414 38.9196 87.6414Z" fill="#FF5EA6"/>
<path opacity="0.31" d="M38.9196 87.4172C41.7221 87.4172 43.9959 85.149 43.9959 82.3533C43.9959 79.5577 41.7221 77.2895 38.9196 77.2895C36.117 77.2895 33.8433 79.5577 33.8433 82.3533C33.8433 85.149 36.117 87.4172 38.9196 87.4172Z" fill="#FF5EA6"/>
<path opacity="0.38" d="M38.9196 87.1798C41.5899 87.1798 43.7711 85.0171 43.7711 82.3401C43.7711 79.6632 41.6031 77.5005 38.9196 77.5005C36.236 77.5005 34.068 79.6632 34.068 82.3401C34.068 85.0171 36.236 87.1798 38.9196 87.1798Z" fill="#FF5EA6"/>
<path opacity="0.46" d="M38.9196 86.9556C41.4709 86.9556 43.5332 84.8984 43.5332 82.3533C43.5332 79.8082 41.4709 77.751 38.9196 77.751C36.3682 77.751 34.306 79.8082 34.306 82.3533C34.306 84.8984 36.3682 86.9556 38.9196 86.9556Z" fill="#FF5EA6"/>
<path opacity="0.54" d="M38.9196 86.7183C41.3387 86.7183 43.3084 84.7534 43.3084 82.3401C43.3084 79.9269 41.3387 77.962 38.9196 77.962C36.5004 77.962 34.5307 79.9269 34.5307 82.3401C34.5307 84.7534 36.5004 86.7183 38.9196 86.7183Z" fill="#FF5EA6"/>
<path opacity="0.62" d="M38.9196 86.4941C41.2198 86.4941 43.0705 84.6347 43.0705 82.3533C43.0705 80.072 41.2065 78.2126 38.9196 78.2126C36.6326 78.2126 34.7686 80.072 34.7686 82.3533C34.7686 84.6347 36.6326 86.4941 38.9196 86.4941Z" fill="#FF5EA6"/>
<path opacity="0.69" d="M38.9196 86.2567C41.0876 86.2567 42.8458 84.5028 42.8458 82.3401C42.8458 80.1775 41.0876 78.4236 38.9196 78.4236C36.7516 78.4236 34.9934 80.1775 34.9934 82.3401C34.9934 84.5028 36.7516 86.2567 38.9196 86.2567Z" fill="#FF5EA6"/>
<path opacity="0.77" d="M38.9196 86.0325C40.9554 86.0325 42.6078 84.3841 42.6078 82.3533C42.6078 80.3225 40.9554 78.6741 38.9196 78.6741C36.8838 78.6741 35.2313 80.3225 35.2313 82.3533C35.2313 84.3841 36.8838 86.0325 38.9196 86.0325Z" fill="#FF5EA6"/>
<path opacity="0.85" d="M38.9196 85.8083C40.8364 85.8083 42.3831 84.2655 42.3831 82.3533C42.3831 80.4412 40.8364 78.8983 38.9196 78.8983C37.0027 78.8983 35.4561 80.4412 35.4561 82.3533C35.4561 84.2655 37.0027 85.8083 38.9196 85.8083Z" fill="#FF5EA6"/>
<path opacity="0.92" d="M38.9196 85.571C40.7042 85.571 42.1451 84.1336 42.1451 82.3533C42.1451 80.5731 40.7042 79.1357 38.9196 79.1357C37.1349 79.1357 35.694 80.5731 35.694 82.3533C35.694 84.1336 37.1349 85.571 38.9196 85.571Z" fill="#FF5EA6"/>
<path d="M38.9196 85.3468C40.572 85.3468 41.9204 84.0017 41.9204 82.3533C41.9204 80.7049 40.572 79.3599 38.9196 79.3599C37.2671 79.3599 35.9187 80.7049 35.9187 82.3533C35.9187 84.0017 37.2671 85.3468 38.9196 85.3468Z" fill="#FF5EA6"/>
</g>
<g opacity="0.25">
<path opacity="0.08" d="M38.9196 106.776C42.1055 106.776 44.6965 104.204 44.6965 101.026C44.6965 97.8482 42.1187 95.2635 38.9196 95.2635C35.7204 95.2635 33.1426 97.835 33.1426 101.026C33.1426 104.218 35.7204 106.776 38.9196 106.776Z" fill="#FF5EA6"/>
<path opacity="0.15" d="M38.9196 106.538C41.9733 106.538 44.4586 104.059 44.4586 101.013C44.4586 97.9668 41.9733 95.4877 38.9196 95.4877C35.8659 95.4877 33.3806 97.9668 33.3806 101.013C33.3806 104.059 35.8659 106.538 38.9196 106.538Z" fill="#FF5EA6"/>
<path opacity="0.23" d="M38.9196 106.314C41.8543 106.314 44.2338 103.941 44.2338 101.013C44.2338 98.0855 41.8543 95.7119 38.9196 95.7119C35.9849 95.7119 33.6053 98.0855 33.6053 101.013C33.6053 103.941 35.9849 106.314 38.9196 106.314Z" fill="#FF5EA6"/>
<path opacity="0.31" d="M38.9196 106.09C41.7221 106.09 43.9959 103.822 43.9959 101.026C43.9959 98.2306 41.7221 95.9624 38.9196 95.9624C36.117 95.9624 33.8433 98.2306 33.8433 101.026C33.8433 103.822 36.117 106.09 38.9196 106.09Z" fill="#FF5EA6"/>
<path opacity="0.38" d="M38.9196 105.853C41.5899 105.853 43.7711 103.69 43.7711 101.013C43.7711 98.3361 41.6031 96.1734 38.9196 96.1734C36.236 96.1734 34.068 98.3361 34.068 101.013C34.068 103.69 36.236 105.853 38.9196 105.853Z" fill="#FF5EA6"/>
<path opacity="0.46" d="M38.9196 105.629C41.4709 105.629 43.5332 103.571 43.5332 101.026C43.5332 98.4811 41.4709 96.424 38.9196 96.424C36.3682 96.424 34.306 98.4811 34.306 101.026C34.306 103.571 36.3682 105.629 38.9196 105.629Z" fill="#FF5EA6"/>
<path opacity="0.54" d="M38.9196 105.391C41.3387 105.391 43.3084 103.426 43.3084 101.013C43.3084 98.5998 41.3387 96.6349 38.9196 96.6349C36.5004 96.6349 34.5307 98.5998 34.5307 101.013C34.5307 103.426 36.5004 105.391 38.9196 105.391Z" fill="#FF5EA6"/>
<path opacity="0.62" d="M38.9196 105.167C41.2198 105.167 43.0705 103.308 43.0705 101.026C43.0705 98.7449 41.2065 96.8855 38.9196 96.8855C36.6326 96.8855 34.7686 98.7449 34.7686 101.026C34.7686 103.308 36.6326 105.167 38.9196 105.167Z" fill="#FF5EA6"/>
<path opacity="0.69" d="M38.9196 104.93C41.0876 104.93 42.8458 103.176 42.8458 101.013C42.8458 98.8504 41.0876 97.0965 38.9196 97.0965C36.7516 97.0965 34.9934 98.8504 34.9934 101.013C34.9934 103.176 36.7516 104.93 38.9196 104.93Z" fill="#FF5EA6"/>
<path opacity="0.77" d="M38.9196 104.705C40.9554 104.705 42.6078 103.057 42.6078 101.026C42.6078 98.9954 40.9554 97.347 38.9196 97.347C36.8838 97.347 35.2313 98.9954 35.2313 101.026C35.2313 103.057 36.8838 104.705 38.9196 104.705Z" fill="#FF5EA6"/>
<path opacity="0.85" d="M38.9196 104.468C40.8364 104.468 42.3831 102.925 42.3831 101.013C42.3831 99.1009 40.8364 97.558 38.9196 97.558C37.0027 97.558 35.4561 99.1009 35.4561 101.013C35.4561 102.925 37.0027 104.468 38.9196 104.468Z" fill="#FF5EA6"/>
<path opacity="0.92" d="M38.9196 104.244C40.7042 104.244 42.1451 102.807 42.1451 101.026C42.1451 99.246 40.7042 97.8086 38.9196 97.8086C37.1349 97.8086 35.694 99.246 35.694 101.026C35.694 102.807 37.1349 104.244 38.9196 104.244Z" fill="#FF5EA6"/>
<path d="M38.9196 104.007C40.572 104.007 41.9204 102.661 41.9204 101.013C41.9204 99.3647 40.572 98.0196 38.9196 98.0196C37.2671 98.0196 35.9187 99.3647 35.9187 101.013C35.9187 102.661 37.2671 104.007 38.9196 104.007Z" fill="#FF5EA6"/>
</g>
<g opacity="0.25">
<path opacity="0.08" d="M59.6081 32.0974C62.794 32.0974 65.385 29.5259 65.385 26.3478C65.385 23.1697 62.8072 20.5851 59.6081 20.5851C56.409 20.5851 53.8311 23.1565 53.8311 26.3478C53.8311 29.5391 56.409 32.0974 59.6081 32.0974Z" fill="#FF5EA6"/>
<path opacity="0.15" d="M59.6081 31.8732C62.6618 31.8732 65.147 29.394 65.147 26.3478C65.147 23.3016 62.6618 20.8224 59.6081 20.8224C56.5544 20.8224 54.0691 23.3016 54.0691 26.3478C54.0691 29.394 56.5544 31.8732 59.6081 31.8732Z" fill="#FF5EA6"/>
<path opacity="0.23" d="M59.6081 31.6358C62.5428 31.6358 64.9223 29.2622 64.9223 26.3346C64.9223 23.4071 62.5428 21.0334 59.6081 21.0334C56.6734 21.0334 54.2939 23.4071 54.2939 26.3346C54.2939 29.2622 56.6734 31.6358 59.6081 31.6358Z" fill="#FF5EA6"/>
<path opacity="0.31" d="M59.6081 31.4116C62.4106 31.4116 64.6844 29.1435 64.6844 26.3478C64.6844 23.5521 62.4106 21.284 59.6081 21.284C56.8055 21.284 54.5318 23.5521 54.5318 26.3478C54.5318 29.1435 56.8055 31.4116 59.6081 31.4116Z" fill="#FF5EA6"/>
<path opacity="0.38" d="M59.6081 31.1743C62.2784 31.1743 64.4596 29.0116 64.4596 26.3346C64.4596 23.6576 62.2916 21.495 59.6081 21.495C56.9245 21.495 54.7565 23.6576 54.7565 26.3346C54.7565 29.0116 56.9245 31.1743 59.6081 31.1743Z" fill="#FF5EA6"/>
<path opacity="0.46" d="M59.6081 30.9501C62.1594 30.9501 64.2217 28.8929 64.2217 26.3478C64.2217 23.8027 62.1594 21.7455 59.6081 21.7455C57.0567 21.7455 54.9945 23.8027 54.9945 26.3478C54.9945 28.8929 57.0567 30.9501 59.6081 30.9501Z" fill="#FF5EA6"/>
<path opacity="0.54" d="M59.6081 30.7127C62.0272 30.7127 63.997 28.7479 63.997 26.3346C63.997 23.9214 62.0272 21.9565 59.6081 21.9565C57.1889 21.9565 55.2192 23.9214 55.2192 26.3346C55.2192 28.7479 57.1889 30.7127 59.6081 30.7127Z" fill="#FF5EA6"/>
<path opacity="0.62" d="M59.6081 30.4886C61.9083 30.4886 63.759 28.6292 63.759 26.3478C63.759 24.0664 61.895 22.2071 59.6081 22.2071C57.3211 22.2071 55.4572 24.0664 55.4572 26.3478C55.4572 28.6292 57.3211 30.4886 59.6081 30.4886Z" fill="#FF5EA6"/>
<path opacity="0.69" d="M59.6081 30.2512C61.7761 30.2512 63.5343 28.4973 63.5343 26.3346C63.5343 24.1719 61.7761 22.4181 59.6081 22.4181C57.4401 22.4181 55.6819 24.1719 55.6819 26.3346C55.6819 28.4973 57.4401 30.2512 59.6081 30.2512Z" fill="#FF5EA6"/>
<path opacity="0.77" d="M59.6081 30.027C61.6439 30.027 63.2963 28.3786 63.2963 26.3478C63.2963 24.317 61.6439 22.6686 59.6081 22.6686C57.5723 22.6686 55.9198 24.317 55.9198 26.3478C55.9198 28.3786 57.5723 30.027 59.6081 30.027Z" fill="#FF5EA6"/>
<path opacity="0.85" d="M59.6081 29.7896C61.5249 29.7896 63.0716 28.2468 63.0716 26.3346C63.0716 24.4225 61.5249 22.8796 59.6081 22.8796C57.6912 22.8796 56.1446 24.4225 56.1446 26.3346C56.1446 28.2467 57.6912 29.7896 59.6081 29.7896Z" fill="#FF5EA6"/>
<path opacity="0.92" d="M59.6081 29.5655C61.3927 29.5655 62.8336 28.1281 62.8336 26.3478C62.8336 24.5675 61.3927 23.1302 59.6081 23.1302C57.8234 23.1302 56.3825 24.5675 56.3825 26.3478C56.3825 28.1281 57.8234 29.5655 59.6081 29.5655Z" fill="#FF5EA6"/>
<path d="M59.6081 29.3281C61.2605 29.3281 62.6089 27.983 62.6089 26.3346C62.6089 24.6862 61.2605 23.3412 59.6081 23.3412C57.9556 23.3412 56.6072 24.6862 56.6072 26.3346C56.6072 27.983 57.9556 29.3281 59.6081 29.3281Z" fill="#FF5EA6"/>
</g>
<g opacity="0.25">
<path opacity="0.08" d="M59.6081 50.7703C62.794 50.7703 65.385 48.1988 65.385 45.0207C65.385 41.8426 62.8072 39.2579 59.6081 39.2579C56.409 39.2579 53.8311 41.8294 53.8311 45.0207C53.8311 48.212 56.409 50.7703 59.6081 50.7703Z" fill="#FF5EA6"/>
<path opacity="0.15" d="M59.6081 50.5329C62.6618 50.5329 65.147 48.0537 65.147 45.0075C65.147 41.9613 62.6618 39.4821 59.6081 39.4821C56.5544 39.4821 54.0691 41.9613 54.0691 45.0075C54.0691 48.0537 56.5544 50.5329 59.6081 50.5329Z" fill="#FF5EA6"/>
<path opacity="0.23" d="M59.6081 50.3087C62.5428 50.3087 64.9223 47.935 64.9223 45.0075C64.9223 42.08 62.5428 39.7063 59.6081 39.7063C56.6734 39.7063 54.2939 42.08 54.2939 45.0075C54.2939 47.935 56.6734 50.3087 59.6081 50.3087Z" fill="#FF5EA6"/>
<path opacity="0.31" d="M59.6081 50.0713C62.4106 50.0713 64.6844 47.8032 64.6844 45.0075C64.6844 42.2118 62.4106 39.9437 59.6081 39.9437C56.8055 39.9437 54.5318 42.2118 54.5318 45.0075C54.5318 47.8032 56.8055 50.0713 59.6081 50.0713Z" fill="#FF5EA6"/>
<path opacity="0.38" d="M59.6081 49.8472C62.2784 49.8472 64.4596 47.6845 64.4596 45.0075C64.4596 42.3305 62.2916 40.1678 59.6081 40.1678C56.9245 40.1678 54.7565 42.3305 54.7565 45.0075C54.7565 47.6845 56.9245 49.8472 59.6081 49.8472Z" fill="#FF5EA6"/>
<path opacity="0.46" d="M59.6081 49.6098C62.1594 49.6098 64.2217 47.5526 64.2217 45.0075C64.2217 42.4624 62.1594 40.4052 59.6081 40.4052C57.0567 40.4052 54.9945 42.4624 54.9945 45.0075C54.9945 47.5526 57.0567 49.6098 59.6081 49.6098Z" fill="#FF5EA6"/>
<path opacity="0.54" d="M59.6081 49.3856C62.0272 49.3856 63.997 47.4207 63.997 45.0075C63.997 42.5943 62.0272 40.6294 59.6081 40.6294C57.1889 40.6294 55.2192 42.5943 55.2192 45.0075C55.2192 47.4207 57.1889 49.3856 59.6081 49.3856Z" fill="#FF5EA6"/>
<path opacity="0.62" d="M59.6081 49.1483C61.9083 49.1483 63.759 47.2889 63.759 45.0075C63.759 42.7261 61.895 40.8668 59.6081 40.8668C57.3211 40.8668 55.4572 42.7261 55.4572 45.0075C55.4572 47.2889 57.3211 49.1483 59.6081 49.1483Z" fill="#FF5EA6"/>
<path opacity="0.69" d="M59.6081 48.9241C61.7761 48.9241 63.5343 47.1702 63.5343 45.0075C63.5343 42.8448 61.7761 41.0909 59.6081 41.0909C57.4401 41.0909 55.6819 42.8448 55.6819 45.0075C55.6819 47.1702 57.4401 48.9241 59.6081 48.9241Z" fill="#FF5EA6"/>
<path opacity="0.77" d="M59.6081 48.6999C61.6439 48.6999 63.2963 47.0515 63.2963 45.0207C63.2963 42.9899 61.6439 41.3415 59.6081 41.3415C57.5723 41.3415 55.9198 42.9899 55.9198 45.0207C55.9198 47.0515 57.5723 48.6999 59.6081 48.6999Z" fill="#FF5EA6"/>
<path opacity="0.85" d="M59.6081 48.4625C61.5249 48.4625 63.0716 46.9196 63.0716 45.0075C63.0716 43.0954 61.5249 41.5525 59.6081 41.5525C57.6912 41.5525 56.1446 43.0954 56.1446 45.0075C56.1446 46.9196 57.6912 48.4625 59.6081 48.4625Z" fill="#FF5EA6"/>
<path opacity="0.92" d="M59.6081 48.2383C61.3927 48.2383 62.8336 46.8009 62.8336 45.0207C62.8336 43.2404 61.3927 41.803 59.6081 41.803C57.8234 41.803 56.3825 43.2404 56.3825 45.0207C56.3825 46.8009 57.8234 48.2383 59.6081 48.2383Z" fill="#FF5EA6"/>
<path d="M59.6081 48.001C61.2605 48.001 62.6089 46.6559 62.6089 45.0075C62.6089 43.3591 61.2605 42.014 59.6081 42.014C57.9556 42.014 56.6072 43.3591 56.6072 45.0075C56.6072 46.6559 57.9556 48.001 59.6081 48.001Z" fill="#FF5EA6"/>
</g>
<g opacity="0.25">
<path opacity="0.08" d="M59.6081 69.43C62.794 69.43 65.385 66.8585 65.385 63.6804C65.385 60.5023 62.8072 57.9177 59.6081 57.9177C56.409 57.9177 53.8311 60.4891 53.8311 63.6804C53.8311 66.8717 56.409 69.43 59.6081 69.43Z" fill="#FF5EA6"/>
<path opacity="0.15" d="M59.6081 69.2058C62.6618 69.2058 65.147 66.7266 65.147 63.6804C65.147 60.6342 62.6618 58.155 59.6081 58.155C56.5544 58.155 54.0691 60.6342 54.0691 63.6804C54.0691 66.7266 56.5544 69.2058 59.6081 69.2058Z" fill="#FF5EA6"/>
<path opacity="0.23" d="M59.6081 68.9816C62.5428 68.9816 64.9223 66.608 64.9223 63.6804C64.9223 60.7529 62.5428 58.3792 59.6081 58.3792C56.6734 58.3792 54.2939 60.7529 54.2939 63.6804C54.2939 66.608 56.6734 68.9816 59.6081 68.9816Z" fill="#FF5EA6"/>
<path opacity="0.31" d="M59.6081 68.7443C62.4106 68.7443 64.6844 66.4761 64.6844 63.6804C64.6844 60.8848 62.4106 58.6166 59.6081 58.6166C56.8055 58.6166 54.5318 60.8848 54.5318 63.6804C54.5318 66.4761 56.8055 68.7443 59.6081 68.7443Z" fill="#FF5EA6"/>
<path opacity="0.38" d="M59.6081 68.5201C62.2784 68.5201 64.4596 66.3574 64.4596 63.6804C64.4596 61.0034 62.2916 58.8408 59.6081 58.8408C56.9245 58.8408 54.7565 61.0034 54.7565 63.6804C54.7565 66.3574 56.9245 68.5201 59.6081 68.5201Z" fill="#FF5EA6"/>
<path opacity="0.46" d="M59.6081 68.2827C62.1594 68.2827 64.2217 66.2255 64.2217 63.6804C64.2217 61.1353 62.1594 59.0781 59.6081 59.0781C57.0567 59.0781 54.9945 61.1353 54.9945 63.6804C54.9945 66.2255 57.0567 68.2827 59.6081 68.2827Z" fill="#FF5EA6"/>
<path opacity="0.54" d="M59.6081 68.0585C62.0272 68.0585 63.997 66.0937 63.997 63.6804C63.997 61.2672 62.0272 59.3023 59.6081 59.3023C57.1889 59.3023 55.2192 61.2672 55.2192 63.6804C55.2192 66.0937 57.1889 68.0585 59.6081 68.0585Z" fill="#FF5EA6"/>
<path opacity="0.62" d="M59.6081 67.8212C61.9083 67.8212 63.759 65.9618 63.759 63.6804C63.759 61.3991 61.895 59.5397 59.6081 59.5397C57.3211 59.5397 55.4572 61.3991 55.4572 63.6804C55.4572 65.9618 57.3211 67.8212 59.6081 67.8212Z" fill="#FF5EA6"/>
<path opacity="0.69" d="M59.6081 67.597C61.7761 67.597 63.5343 65.8431 63.5343 63.6804C63.5343 61.5177 61.7761 59.7639 59.6081 59.7639C57.4401 59.7639 55.6819 61.5177 55.6819 63.6804C55.6819 65.8431 57.4401 67.597 59.6081 67.597Z" fill="#FF5EA6"/>
<path opacity="0.77" d="M59.6081 67.3596C61.6439 67.3596 63.2963 65.7112 63.2963 63.6804C63.2963 61.6496 61.6439 60.0012 59.6081 60.0012C57.5723 60.0012 55.9198 61.6496 55.9198 63.6804C55.9198 65.7112 57.5723 67.3596 59.6081 67.3596Z" fill="#FF5EA6"/>
<path opacity="0.85" d="M59.6081 67.1354C61.5249 67.1354 63.0716 65.5926 63.0716 63.6804C63.0716 61.7683 61.5249 60.2254 59.6081 60.2254C57.6912 60.2254 56.1446 61.7683 56.1446 63.6804C56.1446 65.5925 57.6912 67.1354 59.6081 67.1354Z" fill="#FF5EA6"/>
<path opacity="0.92" d="M59.6081 66.8981C61.3927 66.8981 62.8336 65.4607 62.8336 63.6804C62.8336 61.9002 61.3927 60.4628 59.6081 60.4628C57.8234 60.4628 56.3825 61.9002 56.3825 63.6804C56.3825 65.4607 57.8234 66.8981 59.6081 66.8981Z" fill="#FF5EA6"/>
<path d="M59.6081 66.6739C61.2605 66.6739 62.6089 65.3288 62.6089 63.6804C62.6089 62.032 61.2605 60.687 59.6081 60.687C57.9556 60.687 56.6072 62.032 56.6072 63.6804C56.6072 65.3288 57.9556 66.6739 59.6081 66.6739Z" fill="#FF5EA6"/>
</g>
<path opacity="0.08" d="M59.6081 88.1029C62.794 88.1029 65.385 85.5314 65.385 82.3533C65.385 79.1752 62.8072 76.5906 59.6081 76.5906C56.409 76.5906 53.8311 79.1621 53.8311 82.3533C53.8311 85.5446 56.409 88.1029 59.6081 88.1029Z" fill="#FF5EA6"/>
<path opacity="0.15" d="M59.6081 87.8787C62.6618 87.8787 65.1471 85.3995 65.1471 82.3533C65.1471 79.3071 62.6618 76.8279 59.6081 76.8279C56.5544 76.8279 54.0691 79.3071 54.0691 82.3533C54.0691 85.3995 56.5544 87.8787 59.6081 87.8787Z" fill="#FF5EA6"/>
<path opacity="0.23" d="M59.6081 87.6414C62.5428 87.6414 64.9223 85.2677 64.9223 82.3401C64.9223 79.4126 62.5428 77.0389 59.6081 77.0389C56.6734 77.0389 54.2939 79.4126 54.2939 82.3401C54.2939 85.2677 56.6734 87.6414 59.6081 87.6414Z" fill="#FF5EA6"/>
<path opacity="0.31" d="M59.6081 87.4172C62.4106 87.4172 64.6844 85.149 64.6844 82.3533C64.6844 79.5577 62.4106 77.2895 59.6081 77.2895C56.8055 77.2895 54.5318 79.5577 54.5318 82.3533C54.5318 85.149 56.8055 87.4172 59.6081 87.4172Z" fill="#FF5EA6"/>
<path opacity="0.38" d="M59.6081 87.1798C62.2784 87.1798 64.4596 85.0171 64.4596 82.3401C64.4596 79.6632 62.2916 77.5005 59.6081 77.5005C56.9245 77.5005 54.7565 79.6632 54.7565 82.3401C54.7565 85.0171 56.9245 87.1798 59.6081 87.1798Z" fill="#FF5EA6"/>
<path opacity="0.46" d="M59.6081 86.9556C62.1594 86.9556 64.2217 84.8984 64.2217 82.3533C64.2217 79.8082 62.1594 77.751 59.6081 77.751C57.0567 77.751 54.9945 79.8082 54.9945 82.3533C54.9945 84.8984 57.0567 86.9556 59.6081 86.9556Z" fill="#FF5EA6"/>
<path opacity="0.54" d="M59.6081 86.7183C62.0272 86.7183 63.997 84.7534 63.997 82.3401C63.997 79.9269 62.0272 77.962 59.6081 77.962C57.1889 77.962 55.2192 79.9269 55.2192 82.3401C55.2192 84.7534 57.1889 86.7183 59.6081 86.7183Z" fill="#FF5EA6"/>
<path opacity="0.62" d="M59.6081 86.4941C61.9083 86.4941 63.759 84.6347 63.759 82.3533C63.759 80.072 61.895 78.2126 59.6081 78.2126C57.3211 78.2126 55.4572 80.072 55.4572 82.3533C55.4572 84.6347 57.3211 86.4941 59.6081 86.4941Z" fill="#FF5EA6"/>
<path opacity="0.69" d="M59.6081 86.2567C61.7761 86.2567 63.5343 84.5028 63.5343 82.3401C63.5343 80.1775 61.7761 78.4236 59.6081 78.4236C57.4401 78.4236 55.6819 80.1775 55.6819 82.3401C55.6819 84.5028 57.4401 86.2567 59.6081 86.2567Z" fill="#FF5EA6"/>
<path opacity="0.77" d="M59.6081 86.0325C61.6439 86.0325 63.2963 84.3841 63.2963 82.3533C63.2963 80.3225 61.6439 78.6741 59.6081 78.6741C57.5723 78.6741 55.9198 80.3225 55.9198 82.3533C55.9198 84.3841 57.5723 86.0325 59.6081 86.0325Z" fill="#FF5EA6"/>
<path opacity="0.85" d="M59.6081 85.8083C61.5249 85.8083 63.0716 84.2655 63.0716 82.3533C63.0716 80.4412 61.5249 78.8983 59.6081 78.8983C57.6912 78.8983 56.1446 80.4412 56.1446 82.3533C56.1446 84.2655 57.6912 85.8083 59.6081 85.8083Z" fill="#FF5EA6"/>
<path opacity="0.92" d="M59.6081 85.571C61.3927 85.571 62.8337 84.1336 62.8337 82.3533C62.8337 80.5731 61.3927 79.1357 59.6081 79.1357C57.8235 79.1357 56.3825 80.5731 56.3825 82.3533C56.3825 84.1336 57.8235 85.571 59.6081 85.571Z" fill="#FF5EA6"/>
<path d="M59.6081 85.3468C61.2605 85.3468 62.6089 84.0017 62.6089 82.3533C62.6089 80.7049 61.2605 79.3599 59.6081 79.3599C57.9557 79.3599 56.6073 80.7049 56.6073 82.3533C56.6073 84.0017 57.9557 85.3468 59.6081 85.3468Z" fill="#FF5EA6"/>
<g opacity="0.25">
<path opacity="0.08" d="M59.6081 106.776C62.794 106.776 65.385 104.204 65.385 101.026C65.385 97.8482 62.8072 95.2635 59.6081 95.2635C56.409 95.2635 53.8311 97.835 53.8311 101.026C53.8311 104.218 56.409 106.776 59.6081 106.776Z" fill="#FF5EA6"/>
<path opacity="0.15" d="M59.6081 106.538C62.6618 106.538 65.147 104.059 65.147 101.013C65.147 97.9668 62.6618 95.4877 59.6081 95.4877C56.5544 95.4877 54.0691 97.9668 54.0691 101.013C54.0691 104.059 56.5544 106.538 59.6081 106.538Z" fill="#FF5EA6"/>
<path opacity="0.23" d="M59.6081 106.314C62.5428 106.314 64.9223 103.941 64.9223 101.013C64.9223 98.0855 62.5428 95.7119 59.6081 95.7119C56.6734 95.7119 54.2939 98.0855 54.2939 101.013C54.2939 103.941 56.6734 106.314 59.6081 106.314Z" fill="#FF5EA6"/>
<path opacity="0.31" d="M59.6081 106.09C62.4106 106.09 64.6844 103.822 64.6844 101.026C64.6844 98.2306 62.4106 95.9624 59.6081 95.9624C56.8055 95.9624 54.5318 98.2306 54.5318 101.026C54.5318 103.822 56.8055 106.09 59.6081 106.09Z" fill="#FF5EA6"/>
<path opacity="0.38" d="M59.6081 105.853C62.2784 105.853 64.4596 103.69 64.4596 101.013C64.4596 98.3361 62.2916 96.1734 59.6081 96.1734C56.9245 96.1734 54.7565 98.3361 54.7565 101.013C54.7565 103.69 56.9245 105.853 59.6081 105.853Z" fill="#FF5EA6"/>
<path opacity="0.46" d="M59.6081 105.629C62.1594 105.629 64.2217 103.571 64.2217 101.026C64.2217 98.4811 62.1594 96.424 59.6081 96.424C57.0567 96.424 54.9945 98.4811 54.9945 101.026C54.9945 103.571 57.0567 105.629 59.6081 105.629Z" fill="#FF5EA6"/>
<path opacity="0.54" d="M59.6081 105.391C62.0272 105.391 63.997 103.426 63.997 101.013C63.997 98.5998 62.0272 96.6349 59.6081 96.6349C57.1889 96.6349 55.2192 98.5998 55.2192 101.013C55.2192 103.426 57.1889 105.391 59.6081 105.391Z" fill="#FF5EA6"/>
<path opacity="0.62" d="M59.6081 105.167C61.9083 105.167 63.759 103.308 63.759 101.026C63.759 98.7449 61.895 96.8855 59.6081 96.8855C57.3211 96.8855 55.4572 98.7449 55.4572 101.026C55.4572 103.308 57.3211 105.167 59.6081 105.167Z" fill="#FF5EA6"/>
<path opacity="0.69" d="M59.6081 104.93C61.7761 104.93 63.5343 103.176 63.5343 101.013C63.5343 98.8504 61.7761 97.0965 59.6081 97.0965C57.4401 97.0965 55.6819 98.8504 55.6819 101.013C55.6819 103.176 57.4401 104.93 59.6081 104.93Z" fill="#FF5EA6"/>
<path opacity="0.77" d="M59.6081 104.705C61.6439 104.705 63.2963 103.057 63.2963 101.026C63.2963 98.9954 61.6439 97.347 59.6081 97.347C57.5723 97.347 55.9198 98.9954 55.9198 101.026C55.9198 103.057 57.5723 104.705 59.6081 104.705Z" fill="#FF5EA6"/>
<path opacity="0.85" d="M59.6081 104.468C61.5249 104.468 63.0716 102.925 63.0716 101.013C63.0716 99.1009 61.5249 97.558 59.6081 97.558C57.6912 97.558 56.1446 99.1009 56.1446 101.013C56.1446 102.925 57.6912 104.468 59.6081 104.468Z" fill="#FF5EA6"/>
<path opacity="0.92" d="M59.6081 104.244C61.3927 104.244 62.8336 102.807 62.8336 101.026C62.8336 99.246 61.3927 97.8086 59.6081 97.8086C57.8234 97.8086 56.3825 99.246 56.3825 101.026C56.3825 102.807 57.8234 104.244 59.6081 104.244Z" fill="#FF5EA6"/>
<path d="M59.6081 104.007C61.2605 104.007 62.6089 102.661 62.6089 101.013C62.6089 99.3647 61.2605 98.0196 59.6081 98.0196C57.9556 98.0196 56.6072 99.3647 56.6072 101.013C56.6072 102.661 57.9556 104.007 59.6081 104.007Z" fill="#FF5EA6"/>
</g>
<g opacity="0.25">
<path opacity="0.08" d="M80.3098 32.0974C83.4957 32.0974 86.0867 29.5259 86.0867 26.3478C86.0867 23.1697 83.5089 20.5851 80.3098 20.5851C77.1107 20.5851 74.5329 23.1565 74.5329 26.3478C74.5329 29.5391 77.1107 32.0974 80.3098 32.0974Z" fill="#FF5EA6"/>
<path opacity="0.15" d="M80.3098 31.8732C83.3635 31.8732 85.8488 29.394 85.8488 26.3478C85.8488 23.3016 83.3635 20.8224 80.3098 20.8224C77.2561 20.8224 74.7708 23.3016 74.7708 26.3478C74.7708 29.394 77.2561 31.8732 80.3098 31.8732Z" fill="#FF5EA6"/>
<path opacity="0.23" d="M80.3098 31.6358C83.2445 31.6358 85.6241 29.2622 85.6241 26.3346C85.6241 23.4071 83.2445 21.0334 80.3098 21.0334C77.3751 21.0334 74.9956 23.4071 74.9956 26.3346C74.9956 29.2622 77.3751 31.6358 80.3098 31.6358Z" fill="#FF5EA6"/>
<path opacity="0.31" d="M80.3098 31.4116C83.1123 31.4116 85.3861 29.1435 85.3861 26.3478C85.3861 23.5521 83.1123 21.284 80.3098 21.284C77.5073 21.284 75.2335 23.5521 75.2335 26.3478C75.2335 29.1435 77.5073 31.4116 80.3098 31.4116Z" fill="#FF5EA6"/>
<path opacity="0.38" d="M80.3098 31.1743C82.9802 31.1743 85.1614 29.0116 85.1614 26.3346C85.1614 23.6576 82.9934 21.495 80.3098 21.495C77.6263 21.495 75.4583 23.6576 75.4583 26.3346C75.4583 29.0116 77.6263 31.1743 80.3098 31.1743Z" fill="#FF5EA6"/>
<path opacity="0.46" d="M80.3098 30.9501C82.8612 30.9501 84.9234 28.8929 84.9234 26.3478C84.9234 23.8027 82.8612 21.7455 80.3098 21.7455C77.7584 21.7455 75.6962 23.8027 75.6962 26.3478C75.6962 28.8929 77.7584 30.9501 80.3098 30.9501Z" fill="#FF5EA6"/>
<path opacity="0.54" d="M80.3098 30.7127C82.729 30.7127 84.6987 28.7479 84.6987 26.3346C84.6987 23.9214 82.729 21.9565 80.3098 21.9565C77.8906 21.9565 75.9209 23.9214 75.9209 26.3346C75.9209 28.7479 77.8906 30.7127 80.3098 30.7127Z" fill="#FF5EA6"/>
<path opacity="0.62" d="M80.3098 30.4886C82.61 30.4886 84.4607 28.6292 84.4607 26.3478C84.4607 24.0664 82.5968 22.2071 80.3098 22.2071C78.0229 22.2071 76.1589 24.0664 76.1589 26.3478C76.1589 28.6292 78.0229 30.4886 80.3098 30.4886Z" fill="#FF5EA6"/>
<path opacity="0.69" d="M80.3098 30.2512C82.4778 30.2512 84.236 28.4973 84.236 26.3346C84.236 24.1719 82.4778 22.4181 80.3098 22.4181C78.1418 22.4181 76.3836 24.1719 76.3836 26.3346C76.3836 28.4973 78.1418 30.2512 80.3098 30.2512Z" fill="#FF5EA6"/>
<path opacity="0.77" d="M80.3098 30.027C82.3456 30.027 83.9981 28.3786 83.9981 26.3478C83.9981 24.317 82.3456 22.6686 80.3098 22.6686C78.274 22.6686 76.6216 24.317 76.6216 26.3478C76.6216 28.3786 78.274 30.027 80.3098 30.027Z" fill="#FF5EA6"/>
<path opacity="0.85" d="M80.3098 29.7896C82.2267 29.7896 83.7733 28.2468 83.7733 26.3346C83.7733 24.4225 82.2267 22.8796 80.3098 22.8796C78.393 22.8796 76.8463 24.4225 76.8463 26.3346C76.8463 28.2467 78.393 29.7896 80.3098 29.7896Z" fill="#FF5EA6"/>
<path opacity="0.92" d="M80.3098 29.5655C82.0945 29.5655 83.5354 28.1281 83.5354 26.3478C83.5354 24.5675 82.0945 23.1302 80.3098 23.1302C78.5252 23.1302 77.0843 24.5675 77.0843 26.3478C77.0843 28.1281 78.5252 29.5655 80.3098 29.5655Z" fill="#FF5EA6"/>
<path d="M80.3098 29.3281C81.9623 29.3281 83.3106 27.983 83.3106 26.3346C83.3106 24.6862 81.9623 23.3412 80.3098 23.3412C78.6574 23.3412 77.309 24.6862 77.309 26.3346C77.309 27.983 78.6574 29.3281 80.3098 29.3281Z" fill="#FF5EA6"/>
</g>
<path opacity="0.08" d="M80.3098 50.7703C83.4957 50.7703 86.0867 48.1988 86.0867 45.0207C86.0867 41.8426 83.5089 39.258 80.3098 39.258C77.1107 39.258 74.5329 41.8294 74.5329 45.0207C74.5329 48.212 77.1107 50.7703 80.3098 50.7703Z" fill="#FF5EA6"/>
<path opacity="0.15" d="M80.3098 50.5329C83.3635 50.5329 85.8488 48.0538 85.8488 45.0075C85.8488 41.9613 83.3635 39.4821 80.3098 39.4821C77.2561 39.4821 74.7708 41.9613 74.7708 45.0075C74.7708 48.0538 77.2561 50.5329 80.3098 50.5329Z" fill="#FF5EA6"/>
<path opacity="0.23" d="M80.3098 50.3087C83.2445 50.3087 85.6241 47.935 85.6241 45.0075C85.6241 42.08 83.2445 39.7063 80.3098 39.7063C77.3751 39.7063 74.9956 42.08 74.9956 45.0075C74.9956 47.935 77.3751 50.3087 80.3098 50.3087Z" fill="#FF5EA6"/>
<path opacity="0.31" d="M80.3098 50.0714C83.1123 50.0714 85.3861 47.8032 85.3861 45.0075C85.3861 42.2119 83.1123 39.9437 80.3098 39.9437C77.5073 39.9437 75.2335 42.2119 75.2335 45.0075C75.2335 47.8032 77.5073 50.0714 80.3098 50.0714Z" fill="#FF5EA6"/>
<path opacity="0.38" d="M80.3098 49.8472C82.9802 49.8472 85.1614 47.6845 85.1614 45.0075C85.1614 42.3305 82.9934 40.1678 80.3098 40.1678C77.6263 40.1678 75.4583 42.3305 75.4583 45.0075C75.4583 47.6845 77.6263 49.8472 80.3098 49.8472Z" fill="#FF5EA6"/>
<path opacity="0.46" d="M80.3098 49.6098C82.8612 49.6098 84.9234 47.5526 84.9234 45.0075C84.9234 42.4624 82.8612 40.4052 80.3098 40.4052C77.7584 40.4052 75.6962 42.4624 75.6962 45.0075C75.6962 47.5526 77.7584 49.6098 80.3098 49.6098Z" fill="#FF5EA6"/>
<path opacity="0.54" d="M80.3098 49.3856C82.729 49.3856 84.6987 47.4207 84.6987 45.0075C84.6987 42.5943 82.729 40.6294 80.3098 40.6294C77.8907 40.6294 75.921 42.5943 75.921 45.0075C75.921 47.4207 77.8907 49.3856 80.3098 49.3856Z" fill="#FF5EA6"/>
<path opacity="0.62" d="M80.3098 49.1483C82.61 49.1483 84.4607 47.2889 84.4607 45.0075C84.4607 42.7261 82.5968 40.8668 80.3098 40.8668C78.0229 40.8668 76.1589 42.7261 76.1589 45.0075C76.1589 47.2889 78.0229 49.1483 80.3098 49.1483Z" fill="#FF5EA6"/>
<path opacity="0.69" d="M80.3098 48.9241C82.4778 48.9241 84.236 47.1702 84.236 45.0075C84.236 42.8448 82.4778 41.0909 80.3098 41.0909C78.1418 41.0909 76.3836 42.8448 76.3836 45.0075C76.3836 47.1702 78.1418 48.9241 80.3098 48.9241Z" fill="#FF5EA6"/>
<path opacity="0.77" d="M80.3098 48.6999C82.3456 48.6999 83.9981 47.0515 83.9981 45.0207C83.9981 42.9899 82.3456 41.3415 80.3098 41.3415C78.274 41.3415 76.6216 42.9899 76.6216 45.0207C76.6216 47.0515 78.274 48.6999 80.3098 48.6999Z" fill="#FF5EA6"/>
<path opacity="0.85" d="M80.3098 48.4625C82.2267 48.4625 83.7733 46.9196 83.7733 45.0075C83.7733 43.0954 82.2267 41.5525 80.3098 41.5525C78.393 41.5525 76.8463 43.0954 76.8463 45.0075C76.8463 46.9196 78.393 48.4625 80.3098 48.4625Z" fill="#FF5EA6"/>
<path opacity="0.92" d="M80.3098 48.2384C82.0945 48.2384 83.5354 46.801 83.5354 45.0207C83.5354 43.2405 82.0945 41.8031 80.3098 41.8031C78.5252 41.8031 77.0843 43.2405 77.0843 45.0207C77.0843 46.801 78.5252 48.2384 80.3098 48.2384Z" fill="#FF5EA6"/>
<path d="M80.3098 48.001C81.9623 48.001 83.3106 46.6559 83.3106 45.0075C83.3106 43.3591 81.9623 42.014 80.3098 42.014C78.6574 42.014 77.309 43.3591 77.309 45.0075C77.309 46.6559 78.6574 48.001 80.3098 48.001Z" fill="#FF5EA6"/>
<g opacity="0.25">
<path opacity="0.08" d="M80.3098 69.43C83.4957 69.43 86.0867 66.8585 86.0867 63.6804C86.0867 60.5023 83.5089 57.9177 80.3098 57.9177C77.1107 57.9177 74.5329 60.4891 74.5329 63.6804C74.5329 66.8717 77.1107 69.43 80.3098 69.43Z" fill="#FF5EA6"/>
<path opacity="0.15" d="M80.3098 69.2058C83.3635 69.2058 85.8488 66.7266 85.8488 63.6804C85.8488 60.6342 83.3635 58.155 80.3098 58.155C77.2561 58.155 74.7708 60.6342 74.7708 63.6804C74.7708 66.7266 77.2561 69.2058 80.3098 69.2058Z" fill="#FF5EA6"/>
<path opacity="0.23" d="M80.3098 68.9816C83.2445 68.9816 85.6241 66.608 85.6241 63.6804C85.6241 60.7529 83.2445 58.3792 80.3098 58.3792C77.3751 58.3792 74.9956 60.7529 74.9956 63.6804C74.9956 66.608 77.3751 68.9816 80.3098 68.9816Z" fill="#FF5EA6"/>
<path opacity="0.31" d="M80.3098 68.7443C83.1123 68.7443 85.3861 66.4761 85.3861 63.6804C85.3861 60.8848 83.1123 58.6166 80.3098 58.6166C77.5073 58.6166 75.2335 60.8848 75.2335 63.6804C75.2335 66.4761 77.5073 68.7443 80.3098 68.7443Z" fill="#FF5EA6"/>
<path opacity="0.38" d="M80.3098 68.5201C82.9802 68.5201 85.1614 66.3574 85.1614 63.6804C85.1614 61.0034 82.9934 58.8408 80.3098 58.8408C77.6263 58.8408 75.4583 61.0034 75.4583 63.6804C75.4583 66.3574 77.6263 68.5201 80.3098 68.5201Z" fill="#FF5EA6"/>
<path opacity="0.46" d="M80.3098 68.2827C82.8612 68.2827 84.9234 66.2255 84.9234 63.6804C84.9234 61.1353 82.8612 59.0781 80.3098 59.0781C77.7584 59.0781 75.6962 61.1353 75.6962 63.6804C75.6962 66.2255 77.7584 68.2827 80.3098 68.2827Z" fill="#FF5EA6"/>
<path opacity="0.54" d="M80.3098 68.0585C82.729 68.0585 84.6987 66.0937 84.6987 63.6804C84.6987 61.2672 82.729 59.3023 80.3098 59.3023C77.8906 59.3023 75.9209 61.2672 75.9209 63.6804C75.9209 66.0937 77.8906 68.0585 80.3098 68.0585Z" fill="#FF5EA6"/>
<path opacity="0.62" d="M80.3098 67.8212C82.61 67.8212 84.4607 65.9618 84.4607 63.6804C84.4607 61.3991 82.5968 59.5397 80.3098 59.5397C78.0229 59.5397 76.1589 61.3991 76.1589 63.6804C76.1589 65.9618 78.0229 67.8212 80.3098 67.8212Z" fill="#FF5EA6"/>
<path opacity="0.69" d="M80.3098 67.597C82.4778 67.597 84.236 65.8431 84.236 63.6804C84.236 61.5177 82.4778 59.7639 80.3098 59.7639C78.1418 59.7639 76.3836 61.5177 76.3836 63.6804C76.3836 65.8431 78.1418 67.597 80.3098 67.597Z" fill="#FF5EA6"/>
<path opacity="0.77" d="M80.3098 67.3596C82.3456 67.3596 83.9981 65.7112 83.9981 63.6804C83.9981 61.6496 82.3456 60.0012 80.3098 60.0012C78.274 60.0012 76.6216 61.6496 76.6216 63.6804C76.6216 65.7112 78.274 67.3596 80.3098 67.3596Z" fill="#FF5EA6"/>
<path opacity="0.85" d="M80.3098 67.1354C82.2267 67.1354 83.7733 65.5926 83.7733 63.6804C83.7733 61.7683 82.2267 60.2254 80.3098 60.2254C78.393 60.2254 76.8463 61.7683 76.8463 63.6804C76.8463 65.5925 78.393 67.1354 80.3098 67.1354Z" fill="#FF5EA6"/>
<path opacity="0.92" d="M80.3098 66.8981C82.0945 66.8981 83.5354 65.4607 83.5354 63.6804C83.5354 61.9002 82.0945 60.4628 80.3098 60.4628C78.5252 60.4628 77.0843 61.9002 77.0843 63.6804C77.0843 65.4607 78.5252 66.8981 80.3098 66.8981Z" fill="#FF5EA6"/>
<path d="M80.3098 66.6739C81.9623 66.6739 83.3106 65.3288 83.3106 63.6804C83.3106 62.032 81.9623 60.687 80.3098 60.687C78.6574 60.687 77.309 62.032 77.309 63.6804C77.309 65.3288 78.6574 66.6739 80.3098 66.6739Z" fill="#FF5EA6"/>
</g>
<g opacity="0.25">
<path opacity="0.08" d="M80.3098 88.1029C83.4957 88.1029 86.0867 85.5314 86.0867 82.3533C86.0867 79.1752 83.5089 76.5906 80.3098 76.5906C77.1107 76.5906 74.5329 79.1621 74.5329 82.3533C74.5329 85.5446 77.1107 88.1029 80.3098 88.1029Z" fill="#FF5EA6"/>
<path opacity="0.15" d="M80.3098 87.8787C83.3635 87.8787 85.8488 85.3995 85.8488 82.3533C85.8488 79.3071 83.3635 76.8279 80.3098 76.8279C77.2561 76.8279 74.7708 79.3071 74.7708 82.3533C74.7708 85.3995 77.2561 87.8787 80.3098 87.8787Z" fill="#FF5EA6"/>
<path opacity="0.23" d="M80.3098 87.6414C83.2445 87.6414 85.6241 85.2677 85.6241 82.3401C85.6241 79.4126 83.2445 77.0389 80.3098 77.0389C77.3751 77.0389 74.9956 79.4126 74.9956 82.3401C74.9956 85.2677 77.3751 87.6414 80.3098 87.6414Z" fill="#FF5EA6"/>
<path opacity="0.31" d="M80.3098 87.4172C83.1123 87.4172 85.3861 85.149 85.3861 82.3533C85.3861 79.5577 83.1123 77.2895 80.3098 77.2895C77.5073 77.2895 75.2335 79.5577 75.2335 82.3533C75.2335 85.149 77.5073 87.4172 80.3098 87.4172Z" fill="#FF5EA6"/>
<path opacity="0.38" d="M80.3098 87.1798C82.9802 87.1798 85.1614 85.0171 85.1614 82.3401C85.1614 79.6632 82.9934 77.5005 80.3098 77.5005C77.6263 77.5005 75.4583 79.6632 75.4583 82.3401C75.4583 85.0171 77.6263 87.1798 80.3098 87.1798Z" fill="#FF5EA6"/>
<path opacity="0.46" d="M80.3098 86.9556C82.8612 86.9556 84.9234 84.8984 84.9234 82.3533C84.9234 79.8082 82.8612 77.751 80.3098 77.751C77.7584 77.751 75.6962 79.8082 75.6962 82.3533C75.6962 84.8984 77.7584 86.9556 80.3098 86.9556Z" fill="#FF5EA6"/>
<path opacity="0.54" d="M80.3098 86.7183C82.729 86.7183 84.6987 84.7534 84.6987 82.3401C84.6987 79.9269 82.729 77.962 80.3098 77.962C77.8906 77.962 75.9209 79.9269 75.9209 82.3401C75.9209 84.7534 77.8906 86.7183 80.3098 86.7183Z" fill="#FF5EA6"/>
<path opacity="0.62" d="M80.3098 86.4941C82.61 86.4941 84.4607 84.6347 84.4607 82.3533C84.4607 80.072 82.5968 78.2126 80.3098 78.2126C78.0229 78.2126 76.1589 80.072 76.1589 82.3533C76.1589 84.6347 78.0229 86.4941 80.3098 86.4941Z" fill="#FF5EA6"/>
<path opacity="0.69" d="M80.3098 86.2567C82.4778 86.2567 84.236 84.5028 84.236 82.3401C84.236 80.1775 82.4778 78.4236 80.3098 78.4236C78.1418 78.4236 76.3836 80.1775 76.3836 82.3401C76.3836 84.5028 78.1418 86.2567 80.3098 86.2567Z" fill="#FF5EA6"/>
<path opacity="0.77" d="M80.3098 86.0325C82.3456 86.0325 83.9981 84.3841 83.9981 82.3533C83.9981 80.3225 82.3456 78.6741 80.3098 78.6741C78.274 78.6741 76.6216 80.3225 76.6216 82.3533C76.6216 84.3841 78.274 86.0325 80.3098 86.0325Z" fill="#FF5EA6"/>
<path opacity="0.85" d="M80.3098 85.8083C82.2267 85.8083 83.7733 84.2655 83.7733 82.3533C83.7733 80.4412 82.2267 78.8983 80.3098 78.8983C78.393 78.8983 76.8463 80.4412 76.8463 82.3533C76.8463 84.2655 78.393 85.8083 80.3098 85.8083Z" fill="#FF5EA6"/>
<path opacity="0.92" d="M80.3098 85.571C82.0945 85.571 83.5354 84.1336 83.5354 82.3533C83.5354 80.5731 82.0945 79.1357 80.3098 79.1357C78.5252 79.1357 77.0843 80.5731 77.0843 82.3533C77.0843 84.1336 78.5252 85.571 80.3098 85.571Z" fill="#FF5EA6"/>
<path d="M80.3098 85.3468C81.9623 85.3468 83.3106 84.0017 83.3106 82.3533C83.3106 80.7049 81.9623 79.3599 80.3098 79.3599C78.6574 79.3599 77.309 80.7049 77.309 82.3533C77.309 84.0017 78.6574 85.3468 80.3098 85.3468Z" fill="#FF5EA6"/>
</g>
<g opacity="0.25">
<path opacity="0.08" d="M80.3098 106.776C83.4957 106.776 86.0867 104.204 86.0867 101.026C86.0867 97.8482 83.5089 95.2635 80.3098 95.2635C77.1107 95.2635 74.5329 97.835 74.5329 101.026C74.5329 104.218 77.1107 106.776 80.3098 106.776Z" fill="#FF5EA6"/>
<path opacity="0.15" d="M80.3098 106.538C83.3635 106.538 85.8488 104.059 85.8488 101.013C85.8488 97.9668 83.3635 95.4877 80.3098 95.4877C77.2561 95.4877 74.7708 97.9668 74.7708 101.013C74.7708 104.059 77.2561 106.538 80.3098 106.538Z" fill="#FF5EA6"/>
<path opacity="0.23" d="M80.3098 106.314C83.2445 106.314 85.6241 103.941 85.6241 101.013C85.6241 98.0855 83.2445 95.7119 80.3098 95.7119C77.3751 95.7119 74.9956 98.0855 74.9956 101.013C74.9956 103.941 77.3751 106.314 80.3098 106.314Z" fill="#FF5EA6"/>
<path opacity="0.31" d="M80.3098 106.09C83.1123 106.09 85.3861 103.822 85.3861 101.026C85.3861 98.2306 83.1123 95.9624 80.3098 95.9624C77.5073 95.9624 75.2335 98.2306 75.2335 101.026C75.2335 103.822 77.5073 106.09 80.3098 106.09Z" fill="#FF5EA6"/>
<path opacity="0.38" d="M80.3098 105.853C82.9802 105.853 85.1614 103.69 85.1614 101.013C85.1614 98.3361 82.9934 96.1734 80.3098 96.1734C77.6263 96.1734 75.4583 98.3361 75.4583 101.013C75.4583 103.69 77.6263 105.853 80.3098 105.853Z" fill="#FF5EA6"/>
<path opacity="0.46" d="M80.3098 105.629C82.8612 105.629 84.9234 103.571 84.9234 101.026C84.9234 98.4811 82.8612 96.424 80.3098 96.424C77.7584 96.424 75.6962 98.4811 75.6962 101.026C75.6962 103.571 77.7584 105.629 80.3098 105.629Z" fill="#FF5EA6"/>
<path opacity="0.54" d="M80.3098 105.391C82.729 105.391 84.6987 103.426 84.6987 101.013C84.6987 98.5998 82.729 96.6349 80.3098 96.6349C77.8906 96.6349 75.9209 98.5998 75.9209 101.013C75.9209 103.426 77.8906 105.391 80.3098 105.391Z" fill="#FF5EA6"/>
<path opacity="0.62" d="M80.3098 105.167C82.61 105.167 84.4607 103.308 84.4607 101.026C84.4607 98.7449 82.5968 96.8855 80.3098 96.8855C78.0229 96.8855 76.1589 98.7449 76.1589 101.026C76.1589 103.308 78.0229 105.167 80.3098 105.167Z" fill="#FF5EA6"/>
<path opacity="0.69" d="M80.3098 104.93C82.4778 104.93 84.236 103.176 84.236 101.013C84.236 98.8504 82.4778 97.0965 80.3098 97.0965C78.1418 97.0965 76.3836 98.8504 76.3836 101.013C76.3836 103.176 78.1418 104.93 80.3098 104.93Z" fill="#FF5EA6"/>
<path opacity="0.77" d="M80.3098 104.705C82.3456 104.705 83.9981 103.057 83.9981 101.026C83.9981 98.9954 82.3456 97.347 80.3098 97.347C78.274 97.347 76.6216 98.9954 76.6216 101.026C76.6216 103.057 78.274 104.705 80.3098 104.705Z" fill="#FF5EA6"/>
<path opacity="0.85" d="M80.3098 104.468C82.2267 104.468 83.7733 102.925 83.7733 101.013C83.7733 99.1009 82.2267 97.558 80.3098 97.558C78.393 97.558 76.8463 99.1009 76.8463 101.013C76.8463 102.925 78.393 104.468 80.3098 104.468Z" fill="#FF5EA6"/>
<path opacity="0.92" d="M80.3098 104.244C82.0945 104.244 83.5354 102.807 83.5354 101.026C83.5354 99.246 82.0945 97.8086 80.3098 97.8086C78.5252 97.8086 77.0843 99.246 77.0843 101.026C77.0843 102.807 78.5252 104.244 80.3098 104.244Z" fill="#FF5EA6"/>
<path d="M80.3098 104.007C81.9623 104.007 83.3106 102.661 83.3106 101.013C83.3106 99.3647 81.9623 98.0196 80.3098 98.0196C78.6574 98.0196 77.309 99.3647 77.309 101.013C77.309 102.661 78.6574 104.007 80.3098 104.007Z" fill="#FF5EA6"/>
</g>
<path opacity="0.08" d="M100.998 32.0974C104.184 32.0974 106.775 29.5259 106.775 26.3478C106.775 23.1697 104.197 20.5851 100.998 20.5851C97.7992 20.5851 95.2214 23.1565 95.2214 26.3478C95.2214 29.5391 97.7992 32.0974 100.998 32.0974Z" fill="#FF5EA6"/>
<path opacity="0.15" d="M100.998 31.8732C104.052 31.8732 106.537 29.394 106.537 26.3478C106.537 23.3016 104.052 20.8224 100.998 20.8224C97.9446 20.8224 95.4594 23.3016 95.4594 26.3478C95.4594 29.394 97.9446 31.8732 100.998 31.8732Z" fill="#FF5EA6"/>
<path opacity="0.23" d="M100.998 31.6358C103.933 31.6358 106.313 29.2622 106.313 26.3346C106.313 23.4071 103.933 21.0334 100.998 21.0334C98.0636 21.0334 95.6841 23.4071 95.6841 26.3346C95.6841 29.2622 98.0636 31.6358 100.998 31.6358Z" fill="#FF5EA6"/>
<path opacity="0.31" d="M100.998 31.4116C103.801 31.4116 106.075 29.1435 106.075 26.3478C106.075 23.5521 103.801 21.284 100.998 21.284C98.1958 21.284 95.9221 23.5521 95.9221 26.3478C95.9221 29.1435 98.1958 31.4116 100.998 31.4116Z" fill="#FF5EA6"/>
<path opacity="0.38" d="M100.998 31.1743C103.669 31.1743 105.85 29.0116 105.85 26.3346C105.85 23.6576 103.682 21.495 100.998 21.495C98.3148 21.495 96.1468 23.6576 96.1468 26.3346C96.1468 29.0116 98.3148 31.1743 100.998 31.1743Z" fill="#FF5EA6"/>
<path opacity="0.46" d="M100.998 30.9501C103.55 30.9501 105.612 28.8929 105.612 26.3478C105.612 23.8027 103.55 21.7455 100.998 21.7455C98.447 21.7455 96.3847 23.8027 96.3847 26.3478C96.3847 28.8929 98.447 30.9501 100.998 30.9501Z" fill="#FF5EA6"/>
<path opacity="0.54" d="M100.998 30.7127C103.417 30.7127 105.387 28.7479 105.387 26.3346C105.387 23.9214 103.417 21.9565 100.998 21.9565C98.5792 21.9565 96.6095 23.9214 96.6095 26.3346C96.6095 28.7479 98.5792 30.7127 100.998 30.7127Z" fill="#FF5EA6"/>
<path opacity="0.62" d="M100.998 30.4886C103.299 30.4886 105.149 28.6292 105.149 26.3478C105.149 24.0664 103.285 22.2071 100.998 22.2071C98.7114 22.2071 96.8474 24.0664 96.8474 26.3478C96.8474 28.6292 98.7114 30.4886 100.998 30.4886Z" fill="#FF5EA6"/>
<path opacity="0.69" d="M100.998 30.2512C103.166 30.2512 104.925 28.4973 104.925 26.3346C104.925 24.1719 103.166 22.4181 100.998 22.4181C98.8303 22.4181 97.0721 24.1719 97.0721 26.3346C97.0721 28.4973 98.8303 30.2512 100.998 30.2512Z" fill="#FF5EA6"/>
<path opacity="0.77" d="M100.998 30.027C103.034 30.027 104.687 28.3786 104.687 26.3478C104.687 24.317 103.034 22.6686 100.998 22.6686C98.9625 22.6686 97.3101 24.317 97.3101 26.3478C97.3101 28.3786 98.9625 30.027 100.998 30.027Z" fill="#FF5EA6"/>
<path opacity="0.85" d="M100.998 29.7896C102.915 29.7896 104.462 28.2468 104.462 26.3346C104.462 24.4225 102.915 22.8796 100.998 22.8796C99.0815 22.8796 97.5348 24.4225 97.5348 26.3346C97.5348 28.2467 99.0815 29.7896 100.998 29.7896Z" fill="#FF5EA6"/>
<path opacity="0.92" d="M100.998 29.5655C102.783 29.5655 104.224 28.1281 104.224 26.3478C104.224 24.5675 102.783 23.1302 100.998 23.1302C99.2137 23.1302 97.7728 24.5675 97.7728 26.3478C97.7728 28.1281 99.2137 29.5655 100.998 29.5655Z" fill="#FF5EA6"/>
<path d="M100.998 29.3281C102.651 29.3281 103.999 27.983 103.999 26.3346C103.999 24.6862 102.651 23.3412 100.998 23.3412C99.3459 23.3412 97.9975 24.6862 97.9975 26.3346C97.9975 27.983 99.3459 29.3281 100.998 29.3281Z" fill="#FF5EA6"/>
<g opacity="0.25">
<path opacity="0.08" d="M100.998 50.7703C104.184 50.7703 106.775 48.1988 106.775 45.0207C106.775 41.8426 104.197 39.258 100.998 39.258C97.7992 39.258 95.2214 41.8294 95.2214 45.0207C95.2214 48.212 97.7992 50.7703 100.998 50.7703Z" fill="#FF5EA6"/>
<path opacity="0.15" d="M100.998 50.5329C104.052 50.5329 106.537 48.0538 106.537 45.0075C106.537 41.9613 104.052 39.4821 100.998 39.4821C97.9446 39.4821 95.4594 41.9613 95.4594 45.0075C95.4594 48.0538 97.9446 50.5329 100.998 50.5329Z" fill="#FF5EA6"/>
<path opacity="0.23" d="M100.998 50.3087C103.933 50.3087 106.313 47.9351 106.313 45.0075C106.313 42.08 103.933 39.7063 100.998 39.7063C98.0636 39.7063 95.6841 42.08 95.6841 45.0075C95.6841 47.9351 98.0636 50.3087 100.998 50.3087Z" fill="#FF5EA6"/>
<path opacity="0.31" d="M100.998 50.0714C103.801 50.0714 106.075 47.8032 106.075 45.0075C106.075 42.2119 103.801 39.9437 100.998 39.9437C98.1958 39.9437 95.922 42.2119 95.922 45.0075C95.922 47.8032 98.1958 50.0714 100.998 50.0714Z" fill="#FF5EA6"/>
<path opacity="0.38" d="M100.998 49.8472C103.669 49.8472 105.85 47.6845 105.85 45.0075C105.85 42.3306 103.682 40.1679 100.998 40.1679C98.3148 40.1679 96.1468 42.3306 96.1468 45.0075C96.1468 47.6845 98.3148 49.8472 100.998 49.8472Z" fill="#FF5EA6"/>
<path opacity="0.46" d="M100.998 49.6098C103.55 49.6098 105.612 47.5526 105.612 45.0075C105.612 42.4624 103.55 40.4052 100.998 40.4052C98.447 40.4052 96.3847 42.4624 96.3847 45.0075C96.3847 47.5526 98.447 49.6098 100.998 49.6098Z" fill="#FF5EA6"/>
<path opacity="0.54" d="M100.998 49.3857C103.417 49.3857 105.387 47.4208 105.387 45.0075C105.387 42.5943 103.417 40.6294 100.998 40.6294C98.5792 40.6294 96.6095 42.5943 96.6095 45.0075C96.6095 47.4208 98.5792 49.3857 100.998 49.3857Z" fill="#FF5EA6"/>
<path opacity="0.62" d="M100.998 49.1483C103.299 49.1483 105.149 47.2889 105.149 45.0075C105.149 42.7262 103.285 40.8668 100.998 40.8668C98.7114 40.8668 96.8474 42.7262 96.8474 45.0075C96.8474 47.2889 98.7114 49.1483 100.998 49.1483Z" fill="#FF5EA6"/>
<path opacity="0.69" d="M100.998 48.9241C103.166 48.9241 104.925 47.1702 104.925 45.0075C104.925 42.8449 103.166 41.091 100.998 41.091C98.8303 41.091 97.0721 42.8449 97.0721 45.0075C97.0721 47.1702 98.8303 48.9241 100.998 48.9241Z" fill="#FF5EA6"/>
<path opacity="0.77" d="M100.998 48.6999C103.034 48.6999 104.687 47.0515 104.687 45.0207C104.687 42.9899 103.034 41.3415 100.998 41.3415C98.9625 41.3415 97.3101 42.9899 97.3101 45.0207C97.3101 47.0515 98.9625 48.6999 100.998 48.6999Z" fill="#FF5EA6"/>
<path opacity="0.85" d="M100.998 48.4626C102.915 48.4626 104.462 46.9197 104.462 45.0075C104.462 43.0954 102.915 41.5525 100.998 41.5525C99.0815 41.5525 97.5348 43.0954 97.5348 45.0075C97.5348 46.9197 99.0815 48.4626 100.998 48.4626Z" fill="#FF5EA6"/>
<path opacity="0.92" d="M100.998 48.2384C102.783 48.2384 104.224 46.801 104.224 45.0207C104.224 43.2405 102.783 41.8031 100.998 41.8031C99.2137 41.8031 97.7728 43.2405 97.7728 45.0207C97.7728 46.801 99.2137 48.2384 100.998 48.2384Z" fill="#FF5EA6"/>
<path d="M100.998 48.001C102.651 48.001 103.999 46.6559 103.999 45.0075C103.999 43.3592 102.651 42.0141 100.998 42.0141C99.3459 42.0141 97.9975 43.3592 97.9975 45.0075C97.9975 46.6559 99.3459 48.001 100.998 48.001Z" fill="#FF5EA6"/>
</g>
<path opacity="0.08" d="M100.998 69.43C104.184 69.43 106.775 66.8585 106.775 63.6804C106.775 60.5023 104.197 57.9177 100.998 57.9177C97.7992 57.9177 95.2214 60.4891 95.2214 63.6804C95.2214 66.8717 97.7992 69.43 100.998 69.43Z" fill="#FF5EA6"/>
<path opacity="0.15" d="M100.998 69.2058C104.052 69.2058 106.537 66.7267 106.537 63.6805C106.537 60.6342 104.052 58.1551 100.998 58.1551C97.9446 58.1551 95.4594 60.6342 95.4594 63.6805C95.4594 66.7267 97.9446 69.2058 100.998 69.2058Z" fill="#FF5EA6"/>
<path opacity="0.23" d="M100.998 68.9817C103.933 68.9817 106.313 66.608 106.313 63.6805C106.313 60.7529 103.933 58.3792 100.998 58.3792C98.0636 58.3792 95.6841 60.7529 95.6841 63.6805C95.6841 66.608 98.0636 68.9817 100.998 68.9817Z" fill="#FF5EA6"/>
<path opacity="0.31" d="M100.998 68.7443C103.801 68.7443 106.075 66.4761 106.075 63.6804C106.075 60.8848 103.801 58.6166 100.998 58.6166C98.1958 58.6166 95.9221 60.8848 95.9221 63.6804C95.9221 66.4761 98.1958 68.7443 100.998 68.7443Z" fill="#FF5EA6"/>
<path opacity="0.38" d="M100.998 68.5201C103.669 68.5201 105.85 66.3574 105.85 63.6804C105.85 61.0034 103.682 58.8408 100.998 58.8408C98.3148 58.8408 96.1468 61.0034 96.1468 63.6804C96.1468 66.3574 98.3148 68.5201 100.998 68.5201Z" fill="#FF5EA6"/>
<path opacity="0.46" d="M100.998 68.2827C103.55 68.2827 105.612 66.2256 105.612 63.6805C105.612 61.1353 103.55 59.0782 100.998 59.0782C98.447 59.0782 96.3847 61.1353 96.3847 63.6804C96.3847 66.2256 98.447 68.2827 100.998 68.2827Z" fill="#FF5EA6"/>
<path opacity="0.54" d="M100.998 68.0586C103.417 68.0586 105.387 66.0937 105.387 63.6804C105.387 61.2672 103.417 59.3023 100.998 59.3023C98.5792 59.3023 96.6095 61.2672 96.6095 63.6804C96.6095 66.0937 98.5792 68.0586 100.998 68.0586Z" fill="#FF5EA6"/>
<path opacity="0.62" d="M100.998 67.8212C103.299 67.8212 105.149 65.9618 105.149 63.6804C105.149 61.3991 103.285 59.5397 100.998 59.5397C98.7114 59.5397 96.8474 61.3991 96.8474 63.6804C96.8474 65.9618 98.7114 67.8212 100.998 67.8212Z" fill="#FF5EA6"/>
<path opacity="0.69" d="M100.998 67.597C103.166 67.597 104.925 65.8431 104.925 63.6805C104.925 61.5178 103.166 59.7639 100.998 59.7639C98.8303 59.7639 97.0721 61.5178 97.0721 63.6805C97.0721 65.8431 98.8303 67.597 100.998 67.597Z" fill="#FF5EA6"/>
<path opacity="0.77" d="M100.998 67.3596C103.034 67.3596 104.687 65.7113 104.687 63.6804C104.687 61.6496 103.034 60.0013 100.998 60.0013C98.9625 60.0013 97.3101 61.6496 97.3101 63.6804C97.3101 65.7113 98.9625 67.3596 100.998 67.3596Z" fill="#FF5EA6"/>
<path opacity="0.85" d="M100.998 67.1355C102.915 67.1355 104.462 65.5926 104.462 63.6805C104.462 61.7683 102.915 60.2254 100.998 60.2254C99.0815 60.2254 97.5348 61.7683 97.5348 63.6805C97.5348 65.5926 99.0815 67.1355 100.998 67.1355Z" fill="#FF5EA6"/>
<path opacity="0.92" d="M100.998 66.8981C102.783 66.8981 104.224 65.4607 104.224 63.6805C104.224 61.9002 102.783 60.4628 100.998 60.4628C99.2137 60.4628 97.7728 61.9002 97.7728 63.6805C97.7728 65.4607 99.2137 66.8981 100.998 66.8981Z" fill="#FF5EA6"/>
<path d="M100.998 66.6739C102.651 66.6739 103.999 65.3288 103.999 63.6805C103.999 62.0321 102.651 60.687 100.998 60.687C99.3459 60.687 97.9975 62.0321 97.9975 63.6804C97.9975 65.3288 99.3459 66.6739 100.998 66.6739Z" fill="#FF5EA6"/>
<g opacity="0.25">
<path opacity="0.08" d="M100.998 88.1029C104.184 88.1029 106.775 85.5314 106.775 82.3534C106.775 79.1753 104.197 76.5906 100.998 76.5906C97.7992 76.5906 95.2214 79.1621 95.2214 82.3534C95.2214 85.5446 97.7992 88.1029 100.998 88.1029Z" fill="#FF5EA6"/>
<path opacity="0.15" d="M100.998 87.8788C104.052 87.8788 106.537 85.3996 106.537 82.3534C106.537 79.3071 104.052 76.828 100.998 76.828C97.9446 76.828 95.4594 79.3071 95.4594 82.3534C95.4594 85.3996 97.9446 87.8788 100.998 87.8788Z" fill="#FF5EA6"/>
<path opacity="0.23" d="M100.998 87.6414C103.933 87.6414 106.313 85.2677 106.313 82.3402C106.313 79.4126 103.933 77.039 100.998 77.039C98.0636 77.039 95.6841 79.4126 95.6841 82.3402C95.6841 85.2677 98.0636 87.6414 100.998 87.6414Z" fill="#FF5EA6"/>
<path opacity="0.31" d="M100.998 87.4172C103.801 87.4172 106.075 85.149 106.075 82.3534C106.075 79.5577 103.801 77.2895 100.998 77.2895C98.1958 77.2895 95.922 79.5577 95.922 82.3534C95.922 85.149 98.1958 87.4172 100.998 87.4172Z" fill="#FF5EA6"/>
<path opacity="0.38" d="M100.998 87.1798C103.669 87.1798 105.85 85.0172 105.85 82.3402C105.85 79.6632 103.682 77.5005 100.998 77.5005C98.3148 77.5005 96.1468 79.6632 96.1468 82.3402C96.1468 85.0172 98.3148 87.1798 100.998 87.1798Z" fill="#FF5EA6"/>
<path opacity="0.46" d="M100.998 86.9557C103.55 86.9557 105.612 84.8985 105.612 82.3534C105.612 79.8083 103.55 77.7511 100.998 77.7511C98.447 77.7511 96.3847 79.8083 96.3847 82.3534C96.3847 84.8985 98.447 86.9557 100.998 86.9557Z" fill="#FF5EA6"/>
<path opacity="0.54" d="M100.998 86.7183C103.417 86.7183 105.387 84.7534 105.387 82.3402C105.387 79.9269 103.417 77.9621 100.998 77.9621C98.5792 77.9621 96.6095 79.9269 96.6095 82.3402C96.6095 84.7534 98.5792 86.7183 100.998 86.7183Z" fill="#FF5EA6"/>
<path opacity="0.62" d="M100.998 86.4941C103.299 86.4941 105.149 84.6347 105.149 82.3534C105.149 80.072 103.285 78.2126 100.998 78.2126C98.7114 78.2126 96.8474 80.072 96.8474 82.3534C96.8474 84.6347 98.7114 86.4941 100.998 86.4941Z" fill="#FF5EA6"/>
<path opacity="0.69" d="M100.998 86.2567C103.166 86.2567 104.925 84.5029 104.925 82.3402C104.925 80.1775 103.166 78.4236 100.998 78.4236C98.8303 78.4236 97.0721 80.1775 97.0721 82.3402C97.0721 84.5029 98.8303 86.2567 100.998 86.2567Z" fill="#FF5EA6"/>
<path opacity="0.77" d="M100.998 86.0326C103.034 86.0326 104.687 84.3842 104.687 82.3534C104.687 80.3226 103.034 78.6742 100.998 78.6742C98.9625 78.6742 97.3101 80.3226 97.3101 82.3534C97.3101 84.3842 98.9625 86.0326 100.998 86.0326Z" fill="#FF5EA6"/>
<path opacity="0.85" d="M100.998 85.8084C102.915 85.8084 104.462 84.2655 104.462 82.3534C104.462 80.4412 102.915 78.8983 100.998 78.8983C99.0815 78.8983 97.5348 80.4412 97.5348 82.3534C97.5348 84.2655 99.0815 85.8084 100.998 85.8084Z" fill="#FF5EA6"/>
<path opacity="0.92" d="M100.998 85.571C102.783 85.571 104.224 84.1336 104.224 82.3534C104.224 80.5731 102.783 79.1357 100.998 79.1357C99.2137 79.1357 97.7728 80.5731 97.7728 82.3534C97.7728 84.1336 99.2137 85.571 100.998 85.571Z" fill="#FF5EA6"/>
<path d="M100.998 85.3468C102.651 85.3468 103.999 84.0017 103.999 82.3534C103.999 80.705 102.651 79.3599 100.998 79.3599C99.3459 79.3599 97.9975 80.705 97.9975 82.3534C97.9975 84.0017 99.3459 85.3468 100.998 85.3468Z" fill="#FF5EA6"/>
</g>
<path opacity="0.08" d="M100.998 106.776C104.184 106.776 106.775 104.204 106.775 101.026C106.775 97.8482 104.197 95.2635 100.998 95.2635C97.7992 95.2635 95.2214 97.835 95.2214 101.026C95.2214 104.218 97.7992 106.776 100.998 106.776Z" fill="#FF5EA6"/>
<path opacity="0.15" d="M100.998 106.538C104.052 106.538 106.537 104.059 106.537 101.013C106.537 97.9669 104.052 95.4877 100.998 95.4877C97.9446 95.4877 95.4594 97.9669 95.4594 101.013C95.4594 104.059 97.9446 106.538 100.998 106.538Z" fill="#FF5EA6"/>
<path opacity="0.23" d="M100.998 106.314C103.933 106.314 106.313 103.941 106.313 101.013C106.313 98.0855 103.933 95.7119 100.998 95.7119C98.0636 95.7119 95.6841 98.0855 95.6841 101.013C95.6841 103.941 98.0636 106.314 100.998 106.314Z" fill="#FF5EA6"/>
<path opacity="0.31" d="M100.998 106.09C103.801 106.09 106.075 103.822 106.075 101.026C106.075 98.2306 103.801 95.9624 100.998 95.9624C98.1958 95.9624 95.9221 98.2306 95.9221 101.026C95.9221 103.822 98.1958 106.09 100.998 106.09Z" fill="#FF5EA6"/>
<path opacity="0.38" d="M100.998 105.853C103.669 105.853 105.85 103.69 105.85 101.013C105.85 98.3361 103.682 96.1734 100.998 96.1734C98.3148 96.1734 96.1468 98.3361 96.1468 101.013C96.1468 103.69 98.3148 105.853 100.998 105.853Z" fill="#FF5EA6"/>
<path opacity="0.46" d="M100.998 105.629C103.55 105.629 105.612 103.571 105.612 101.026C105.612 98.4812 103.55 96.424 100.998 96.424C98.447 96.424 96.3847 98.4812 96.3847 101.026C96.3847 103.571 98.447 105.629 100.998 105.629Z" fill="#FF5EA6"/>
<path opacity="0.54" d="M100.998 105.391C103.417 105.391 105.387 103.426 105.387 101.013C105.387 98.5998 103.417 96.6349 100.998 96.6349C98.5792 96.6349 96.6095 98.5998 96.6095 101.013C96.6095 103.426 98.5792 105.391 100.998 105.391Z" fill="#FF5EA6"/>
<path opacity="0.62" d="M100.998 105.167C103.299 105.167 105.149 103.308 105.149 101.026C105.149 98.7449 103.285 96.8855 100.998 96.8855C98.7114 96.8855 96.8474 98.7449 96.8474 101.026C96.8474 103.308 98.7114 105.167 100.998 105.167Z" fill="#FF5EA6"/>
<path opacity="0.69" d="M100.998 104.93C103.166 104.93 104.925 103.176 104.925 101.013C104.925 98.8504 103.166 97.0965 100.998 97.0965C98.8303 97.0965 97.0721 98.8504 97.0721 101.013C97.0721 103.176 98.8303 104.93 100.998 104.93Z" fill="#FF5EA6"/>
<path opacity="0.77" d="M100.998 104.705C103.034 104.705 104.687 103.057 104.687 101.026C104.687 98.9955 103.034 97.3471 100.998 97.3471C98.9625 97.3471 97.3101 98.9955 97.3101 101.026C97.3101 103.057 98.9625 104.705 100.998 104.705Z" fill="#FF5EA6"/>
<path opacity="0.85" d="M100.998 104.468C102.915 104.468 104.462 102.925 104.462 101.013C104.462 99.1009 102.915 97.558 100.998 97.558C99.0815 97.558 97.5348 99.1009 97.5348 101.013C97.5348 102.925 99.0815 104.468 100.998 104.468Z" fill="#FF5EA6"/>
<path opacity="0.92" d="M100.998 104.244C102.783 104.244 104.224 102.807 104.224 101.026C104.224 99.246 102.783 97.8086 100.998 97.8086C99.2137 97.8086 97.7728 99.246 97.7728 101.026C97.7728 102.807 99.2137 104.244 100.998 104.244Z" fill="#FF5EA6"/>
<path d="M100.998 104.007C102.651 104.007 103.999 102.661 103.999 101.013C103.999 99.3647 102.651 98.0196 100.998 98.0196C99.3459 98.0196 97.9975 99.3647 97.9975 101.013C97.9975 102.661 99.3459 104.007 100.998 104.007Z" fill="#FF5EA6"/>
<path d="M38.9196 26.3346L14.675 26.3346L-2.37814 9.32328L-85 9.32327" stroke="#FF5EA6" stroke-width="0.2" stroke-miterlimit="10"/>
<path d="M61.1151 82.7226L47.0363 82.7226L21.5492 57.3111L-85 57.3111" stroke="#FF5EA6" stroke-width="0.2" stroke-miterlimit="10"/>
<path d="M80.3098 45.0075L3.98044 45.0075L-15.6637 25.4115L-85 25.4115" stroke="#FF5EA6" stroke-width="0.2" stroke-miterlimit="10"/>
<path d="M100.998 63.6804L49.7067 63.6804L37.1217 51.1263L-85 51.1263" stroke="#FF5EA6" stroke-width="0.2" stroke-miterlimit="10"/>
<path d="M100.998 101.013L91.7182 91.7557L25.9116 91.7557L4.40346 70.3135L-85 70.3135" stroke="#FF5EA6" stroke-width="0.2" stroke-miterlimit="10"/>
<path d="M102.109 26.3346L92.2206 26.3346L75.26 9.42877L15.217 9.42877L5.89727 0.13187L-85 0.131866" stroke="#FF5EA6" stroke-width="0.2" stroke-miterlimit="10"/>
</g>
<defs>
<clipPath id="clip0_281_6923">
<rect width="107" height="192" fill="white" transform="matrix(-4.37114e-08 1 1 4.37114e-08 -85 0)"/>
</clipPath>
</defs>
</svg>
