<svg width="504" height="504" fill="none" xmlns="http://www.w3.org/2000/svg"><g clip-path="url('#clip0_60_25910')"><path opacity=".25" d="M252 504c139.176 0 252-112.824 252-252S391.176 0 252 0 0 112.824 0 252s112.824 252 252 252Z" fill="url('#paint0_linear_60_25910')"/><path d="M226.635 87.665c54.138 10.669 81.771 71.981 168.948 126.532 87.176 54.561 67.987 267.596-69.702 232.843-131.351-33.147-137.429-30.531-223.455-27.471C-5.242 423.412 55.321 53.921 226.635 87.665Z" fill="url('#paint1_linear_60_25910')"/><path d="M373.452 177.544c-25.408-20.22-46.562-55.506-34.536-89.5 12.037-33.993 36.87 29.284 56.862 50.362 28.925 30.498 30.846 81.445-22.326 39.138Z" fill="url('#paint2_linear_60_25910')"/><path d="M312.227 221.621h-32.29v-17.67h32.29v17.67Zm-30.477-1.813h28.664v-14.045H281.75v14.045Z" fill="#C8D3FB"/><path d="M290.085 237.478h-32.289v-17.67h32.289v17.67Zm-30.477-1.813h28.654v-14.044h-28.654v14.044ZM150.746 406.274h-32.289v-17.67h32.289v17.67Zm-30.477-1.813h28.665v-14.044h-28.665v14.044ZM272.025 162.805h-32.29v-17.67h32.29v17.67Zm-30.477-1.813h28.654v-14.044h-28.654v14.044Z" fill="#C8D3FB"/><path d="M241.526 162.805h-32.289v-17.67h32.289v17.67Zm-30.477-1.813h28.665v-14.044h-28.665v14.044Z" fill="#C8D3FB"/><path d="M256.797 178.662h-32.289v-17.67h32.289v17.67Zm-30.477-1.813h28.665v-14.044H226.32v14.044ZM394.367 245.097h-32.289v-17.67h32.289v17.67Zm-30.477-1.813h28.665V229.24H363.89v14.044Z" fill="#C8D3FB"/><path d="M416.509 260.954h-32.29v-17.67h32.29v17.67Zm-30.477-1.812h28.653v-14.045h-28.653v14.045ZM210.821 274.619h-32.289v-17.67h32.289v17.67Zm-30.477-1.813h28.654v-14.044h-28.654v14.044Z" fill="#C8D3FB"/><path d="M180.312 274.619h-32.29v-17.67h32.29v17.67Zm-30.477-1.813h28.653v-14.044h-28.653v14.044Z" fill="#C8D3FB"/><path d="M195.583 290.476h-32.29v-17.67h32.29v17.67Zm-30.477-1.812h28.653v-14.045h-28.653v14.045Z" fill="#C8D3FB"/><path d="M133.391 323.992c2.92 0 5.59-1.009 7.923-2.616.087 4.885-.217 9.769-1.172 14.555-3.115 5.015-11.754 14.251-11.168 14.197 2.409-.196 4.689-.836 6.935-1.617a51.033 51.033 0 0 1-5.285 8.639c-4.19 5.59-10.159 10.061-12.428 16.877a.403.403 0 0 1-.26.294c-.044.379-.478.683-.814.358-11.277-10.702-13.285-26.961-14.946-41.624-.076-.695-.152-1.378-.217-2.073 3.126 3.126 6.447 5.98 10.387 8.108.543.293-7.055-11.874-10.778-17.475.131-3.516.673-7.011 1.943-10.408 2.638-7.066 7.164-13.676 11.548-19.765.174-.25.38-.488.554-.738 1.194 3.148 2.779 6.111 4.852 8.791.358.467-.804-8.9-1.509-13.176 1.107-1.367 2.203-2.735 3.354-4.059 1.508-1.769 3.353-4.776 6.056-4.374 2.616.369 8.585 11.092 9.345 14.164.326 1.313.619 2.648.89 3.994a30.6 30.6 0 0 1 .336 1.747c.988 5.384 1.574 10.908 2.008 16.324-.184.293-.369.576-.586.858-2.192 2.974-7.489 9.03-6.957 9.03l-.011-.011Z" fill="#6A6AE8"/><path d="M123.113 318.598c5.557-.836 9.812-4.352 13.893-7.977.607-.543-.152-1.563-.76-1.021-3.832 3.397-7.815 6.795-13.003 7.674a467.137 467.137 0 0 1 4.19-24.747c.162-.803-1.097-.998-1.259-.195a473.685 473.685 0 0 0-5.275 32.832 54.175 54.175 0 0 1-7.359-14.793c-.25-.782-1.433-.304-1.183.477a56.064 56.064 0 0 0 7.901 15.63.57.57 0 0 0 .467.249c-.293 2.41-.564 4.819-.814 7.218-2.323-2.898-4.157-6.056-5.459-9.562-.283-.771-1.466-.293-1.183.478a35.568 35.568 0 0 0 6.208 10.604.591.591 0 0 0 .26.184 487.915 487.915 0 0 0-1.856 23.835.67.67 0 0 0-.076.271c-.173 2.92-.271 5.828-.303 8.737-.066 1.9-.12 3.799-.152 5.698 0 .207.065.337.184.434.326 17.942 2.985 35.687 6.762 53.248l1.237-.293c-4.265-19.84-7.098-39.93-6.729-60.259.076-2.149.163-4.287.271-6.436a.574.574 0 0 0 .565-.076 21.469 21.469 0 0 0 5.828-5.959c.445-.684-.553-1.487-.998-.792a20.226 20.226 0 0 1-5.33 5.535 471.873 471.873 0 0 1 3.929-40.983h.055l-.011-.011Z" fill="#312890"/><path d="M78.906 355.468c-2.486.966-5.047 1.074-7.5.64 1.346 3.701 3.028 7.272 5.232 10.55 4.102 2.746 14.131 6.848 13.621 7-2.106.652-4.233.912-6.36 1.064a41.156 41.156 0 0 0 7 4.754c5.188 2.822 11.559 4.211 15.467 8.596a.349.349 0 0 0 .304.141c.152.272.597.358.803 0 6.469-11.743 3.462-24.627.608-36.186-.131-.543-.272-1.085-.413-1.628-1.747 3.376-3.744 6.61-6.479 9.508-.38.401 2.55-11.245 4.081-16.671-1.129-2.594-2.605-5.047-4.678-7.185-4.298-4.44-10.062-7.924-15.564-11.049-.228-.131-.467-.239-.684-.38-.098 2.756-.586 5.502-1.574 8.194-.174.478-1.91-6.946-2.54-10.398-1.335-.662-2.67-1.335-4.026-1.942-1.791-.836-4.244-2.486-6.426-1.303-2.116 1.14-4.07 11.158-3.82 13.719.097 1.096.238 2.193.401 3.289.055.477.141.955.217 1.422.717 4.374 1.835 8.715 3.04 12.926.238.152.488.315.748.456 2.724 1.52 8.998 4.32 8.542 4.494v-.011Z" fill="#6A6AE8"/><path d="M116.818 430.51c-1.889-14.436-4.787-28.643-9.725-42.232a.384.384 0 0 0 .033-.38 347.566 347.566 0 0 0-1.791-4.233c-.879-2.17-1.802-4.33-2.8-6.457a.49.49 0 0 0-.142-.185 344.872 344.872 0 0 0-8.498-17.301.63.63 0 0 0 .174-.228c1.367-3.267 2.094-6.599 2.203-10.007.022-.673-1.129-.64-1.14.033-.087 3.061-.727 6.035-1.867 8.976a386.449 386.449 0 0 0-2.789-5.156.512.512 0 0 0 .315-.336c1.541-4.732 2.268-9.519 2.17-14.338-.01-.662-1.16-.64-1.139.033.098 4.558-.554 9.052-1.965 13.534A335.591 335.591 0 0 0 75.835 329.3c-.37-.554-1.379 0-1.01.564a336.859 336.859 0 0 1 10.745 17.214c-4.667 1.042-9.04-.196-13.285-1.498-.683-.206-1.03.814-.347 1.02 4.526 1.379 9.16 2.627 14.132 1.422.021 0 .032-.011.043-.022a336.681 336.681 0 0 1 15.249 29.501c-2.246-.435-4.298-1.227-6.143-2.41-.586-.369-1.194.554-.618.923 1.997 1.27 4.243 2.138 6.685 2.561a.6.6 0 0 0 .5-.13 258.74 258.74 0 0 1 2.094 4.743c6.23 15.162 9.649 31.182 11.798 47.495.38-.065.76-.13 1.14-.184v.011Z" fill="#312890"/><path d="M76.28 340.034c-3.626-.727-6.958-2.019-9.91-3.875.054.478.141.955.217 1.422 2.822 1.628 5.959 2.789 9.334 3.462.717.131 1.064-.879.358-1.02v.011Z" fill="#84AFE6"/><path d="M183.796 349.585c-.066 4.591-10.68 6.805-14.045 8.054-7.457 2.756-14.728 5.546-20.242 11.537-6.501 7.077-12.102 15.228-17.702 23.021-.359.499-.858.64-1.325.564-.086 0-.716-1.324-1.541-3.354-1.932-4.765-4.895-13.48-4.157-18.44.51-3.495 1.715-6.816 3.376-9.899.38 1.563 1.02 3.061 2.127 4.19.271.271.847-6.263 1.227-9.226.488-.597.987-1.183 1.508-1.747a32.577 32.577 0 0 1 3.918-3.614c.293-.239.597-.478.901-.695a39.848 39.848 0 0 1 3.571-2.366c.326-.196.662-.38.999-.575a40.298 40.298 0 0 1 3.57-1.77c.38 2.258.956 4.429 1.965 6.534.206.434.705-5.166.781-7.641 1.151-.434 2.323-.792 3.517-1.139.336 1.454.781 2.876 1.465 4.222.163.325 1.737-3.463 2.312-5.134 3.799-.76 7.641-1.074 11.364-.89.325.011.651.022.966.054 1.02.076 2.029.185 3.017.337 3.658.564 12.265 2.887 12.438 7.825v.141l-.01.011Z" fill="#6A6AE8"/><path d="M142.986 361.644c-9.009 8.889-11.809 25.234-12.384 29.869a21.286 21.286 0 0 0-1.856 6.034c-1.075 7.337-.76 15.065-.575 22.457.065 2.431.163 4.862.293 7.282l1.248-.228a319.67 319.67 0 0 1-.206-4.591c-.228-6.61-.217-13.241.087-19.851.152-3.419.477-6.849 1.801-10.018.141-.087.282-.206.402-.369 5.611-7.793 11.212-15.955 17.702-23.02 5.514-6.003 12.797-8.781 20.242-11.538 3.365-1.248 13.98-3.462 14.045-8.053-14.132 1.649-30.434 1.812-40.81 12.047l.011-.021ZM142.595 357.28a29.49 29.49 0 0 1-.195-10.235c-.348.196-.673.38-.999.576a29.855 29.855 0 0 0 .282 9.866c.12.586 1.021.379.912-.207ZM139.155 359.104a38.73 38.73 0 0 1-1.314-9.117 18.47 18.47 0 0 0-.901.694c.109 2.92.554 5.796 1.303 8.64.152.575 1.064.369.912-.217Z" fill="#312890"/><path d="M154.23 420.373c0 2.376-.249 4.699-.727 6.935-1.737 8.129-6.447 15.141-12.948 19.862h-38.813c-6.501-4.721-11.212-11.733-12.948-19.862a33.193 33.193 0 0 1-.728-6.935c0-2.377.272-4.895.793-7.218a32.69 32.69 0 0 1 1.823-5.709h60.933a31.564 31.564 0 0 1 1.823 5.709c.521 2.323.792 4.732.792 7.218Z" fill="#C8D3FB"/><path d="M154.23 420.373c0 2.377-.249 4.699-.727 6.935-1.736 8.13-6.447 15.141-12.948 19.862h-38.813c50.708 2.518 49.873-39.713 49.873-39.713a31.564 31.564 0 0 1 1.823 5.709c.521 2.322.792 4.732.792 7.217v-.01Z" fill="#BFCBF1"/><path d="M211.462 121.919s-88.284 4.515-84.583 43.99v81.218s1.389-36.1 84.583-41.733v-83.475Z" fill="#DB5A9B"/><path opacity=".5" d="m132.675 176.86-2.865-1.758c.499-1.227 13.013-29.945 74.857-33.147l.141 3.918c-59.988 3.093-72.014 30.705-72.133 30.987ZM182.016 162.87l-.554-3.853c7.098-1.531 14.913-2.518 23.205-2.953l.141 3.919c-8.162.423-15.824 1.389-22.792 2.887Z" fill="#fff"/><path d="m135.974 194.421-3.049-1.215c.249-.934 6.468-22.869 42.524-32.724l.695 3.82c-34.092 9.313-40.115 29.913-40.18 30.119h.01ZM173.452 181.864l-.792-3.799c9.345-2.887 20.112-4.656 32.007-5.275l.141 3.907c-11.678.608-22.228 2.345-31.356 5.156v.011ZM136.788 211.386l-3.082-1.097c.152-.651 4.081-16.15 26.06-27.101l1.215 3.625c-20.567 10.257-24.16 24.442-24.193 24.583v-.01ZM183.351 193.629l-.532-3.864c6.718-1.378 14.066-2.279 21.859-2.692l.141 3.919c-7.652.39-14.88 1.28-21.457 2.637h-.011ZM136.788 225.68l-3.082-1.107c.228-.934 5.904-23.075 41.721-33.028l.717 3.821c-33.788 9.377-39.301 30.108-39.356 30.314Z" fill="#fff" opacity=".5"/><path d="M126.76 161.394s3.115 16.356 18.831 21.154v85.45s-12.471-4.233-18.831-20.871v-85.733Z" fill="#FF5EA6"/><path d="M349.911 256.124s82.498 3.636 79.036 35.481v65.502s-1.291-29.11-79.036-33.658v-67.325Z" fill="#FF5EA6" opacity=".5"/><path d="M429.056 287.969s-2.909 13.187-17.594 17.062v68.91s11.657-3.408 17.594-16.834v-69.138Z" fill="#FF5EA6" opacity=".5"/><g opacity=".5"><path d="M408.987 324.22c-14.066-9.66-35.209-15.076-52.238-14.066.032-15.543.054-22.305.086-37.858 16.91-1.291 38.303 3.093 52.228 13.09-.032 15.531-.043 23.302-.076 38.823v.011Z" fill="#6A5FFF"/><path d="M406.61 319.51c-17.963-10.68-28.491-12.146-47.267-12.536.032-12.797.043-18.647.076-31.454 18.852 0 29.511 1.259 47.278 11.7-.033 12.916-.054 19.374-.087 32.3v-.01Z" fill="#fff"/><path d="M402.464 312.802c-15.89-8.368-23.509-9.334-38.932-10.007.033-9.247.043-13.676.076-22.923 15.51.261 23.14.901 38.954 9.399-.033 9.41-.055 14.121-.087 23.531h-.011Z" fill="#D5DDFB"/><path d="M363.532 302.784a701.086 701.086 0 0 1 6.132-10.289c.239-.391.738-.337.966.097 1.335 2.67 1.997 4.027 3.343 6.751a265.814 265.814 0 0 1 2.714-3.082c.271-.304.738-.152.922.293a559.733 559.733 0 0 1 3.408 8.26c-7-1.563-10.517-1.737-17.485-2.041v.011Z" fill="#6A5FFF"/><path d="M375.417 286.113c0 1.27-.879 2.192-1.932 2.073-1.053-.119-1.91-1.226-1.899-2.496 0-1.27.868-2.236 1.921-2.117 1.052.12 1.921 1.27 1.91 2.551v-.011ZM388.246 288.436c-.402-.261-.565-.793-.944-1.118-.337-.283-.706-.402-1.053-.348-.185.033-.282.087-.467.174-.369.195-.293.228-.716.195a4.02 4.02 0 0 0-.879.022c-.597.087-2.312-.488-2.616.347-.271.749.673.793.988.89.542.174.976.673 1.519.825.488.13.966.011 1.411-.119l1.335.358c.727.185 1.574.51 2.279.564.196.011.413.044.51-.173.391-.912-1.042-1.411-1.378-1.628l.011.011ZM394.834 292.441a1.147 1.147 0 0 0-.521-.25c-.152-.033-.336.032-.488-.011-.196-.065-.369-.26-.554-.369-.467-.271-.89-.271-1.313-.195-.228-.152-.467-.239-.662-.066-.206.185-.228.554-.033.891.272.466.868.705 1.238.89.651.314 1.421.542 2.062.553.597 0 1.074-.738.26-1.443h.011Z" fill="#fff"/><path d="M385.543 305.986c1.541-2.898 2.312-4.331 3.832-7.185.13-.25.466-.152.607.184 1.129 2.692 1.683 4.049 2.811 6.795.489-.76.728-1.129 1.227-1.878.152-.228.51-.054.629.304l1.911 5.731c1.324-3.05 2.008-4.548 3.343-7.522.13-.293.575-.054.683.369.76 2.963 1.14 4.45 1.9 7.424v2.594c-6.86-3.614-10.246-4.906-16.921-6.816h-.022Z" fill="#6A5FFF"/></g><path d="M196.701 213.231c-.022-.445-.055-.89-.076-1.325a145.997 145.997 0 0 0-18.375 15.521c.021.434.043.879.075 1.313a145.135 145.135 0 0 1 18.387-15.509h-.011ZM219.222 195.963c-.033-.445-.054-.901-.087-1.346-14.793 6.913-28.664 16.454-40.885 28.642.021.435.043.88.075 1.314 12.233-12.178 26.104-21.718 40.908-28.61h-.011Z" fill="#6A6AE8"/><path d="M210.561 196.19c-.033-.445-.055-.89-.087-1.335a144.384 144.384 0 0 0-32.235 24.248c.021.434.043.879.075 1.313 9.823-9.768 20.688-17.844 32.247-24.215v-.011Z" fill="#1C0A76"/><path d="M210.756 196.158c-11.689 6.425-22.684 14.587-32.604 24.486-.022-.489-.054-.966-.076-1.455 9.909-9.909 20.893-18.082 32.593-24.518l.098 1.487h-.011Zm-32.278 24.019a144.149 144.149 0 0 1 31.888-23.943c-.022-.402-.055-.792-.076-1.194a144.798 144.798 0 0 0-31.878 23.965l.066 1.172Z" fill="#1C0A76"/><path d="M205.959 207.174c-.033-.445-.055-.89-.087-1.335a148.1 148.1 0 0 0-6.024 3.832c.022.445.054.89.076 1.324a159.826 159.826 0 0 1 6.024-3.831l.011.01ZM219.222 183.611c-.033-.445-.054-.89-.087-1.346-14.793 6.903-28.664 16.455-40.885 28.643.021.434.043.879.075 1.313 12.233-12.177 26.104-21.718 40.908-28.621l-.011.011ZM210.561 183.85c-.033-.445-.055-.89-.087-1.335a144.912 144.912 0 0 0-32.235 24.236c.021.434.043.879.075 1.313 9.812-9.768 20.688-17.843 32.247-24.214ZM205.666 195.007c-.033-.445-.055-.89-.087-1.335a140.752 140.752 0 0 0-6.013 3.843c.032.445.054.89.087 1.324a140.105 140.105 0 0 1 6.024-3.842l-.011.01ZM196.701 188.549c-.022-.445-.055-.89-.076-1.324a145.997 145.997 0 0 0-18.375 15.521c.021.434.043.879.075 1.313a145.227 145.227 0 0 1 18.387-15.51h-.011ZM219.222 171.271c-.033-.445-.054-.901-.087-1.346-14.793 6.914-28.664 16.454-40.885 28.653.021.435.043.88.075 1.314 12.233-12.178 26.104-21.718 40.908-28.61l-.011-.011ZM205.384 182.83c-.033-.445-.055-.89-.087-1.335a140.256 140.256 0 0 0-6.013 3.864c.022.445.054.89.087 1.324a140.004 140.004 0 0 1 6.013-3.853ZM196.701 246.779c-.022-.445-.055-.879-.076-1.324a145.913 145.913 0 0 0-18.375 15.521c.021.434.043.879.075 1.313a145.144 145.144 0 0 1 18.387-15.51h-.011ZM219.222 229.5c-.033-.445-.054-.89-.087-1.345-14.793 6.913-28.664 16.454-40.885 28.642.021.434.043.879.075 1.314 12.233-12.178 26.104-21.719 40.908-28.621l-.011.01ZM210.561 229.739c-.033-.445-.055-.89-.087-1.335-11.559 6.382-22.424 14.457-32.235 24.236.021.434.043.879.075 1.314 9.823-9.769 20.688-17.844 32.247-24.215ZM205.959 240.723c-.033-.445-.055-.89-.087-1.335a159.826 159.826 0 0 0-6.024 3.831c.022.445.054.89.076 1.324a148.075 148.075 0 0 1 6.024-3.831l.011.011ZM196.701 234.428c-.022-.445-.055-.879-.076-1.324a145.904 145.904 0 0 0-18.375 15.52c.021.435.043.88.075 1.314a145.061 145.061 0 0 1 18.387-15.51h-.011ZM219.222 217.16c-.033-.445-.054-.89-.087-1.346-14.793 6.914-28.664 16.454-40.885 28.654.021.434.043.879.075 1.313 12.233-12.178 26.104-21.718 40.908-28.621h-.011ZM210.561 217.398c-.033-.445-.055-.89-.087-1.335a144.917 144.917 0 0 0-32.235 24.237c.021.434.043.879.075 1.313 9.812-9.768 20.688-17.843 32.247-24.215ZM205.666 228.545c-.033-.445-.055-.89-.087-1.335a130.93 130.93 0 0 0-6.013 3.853c.032.445.054.89.087 1.324a141.084 141.084 0 0 1 6.024-3.842h-.011ZM196.701 222.087c-.022-.445-.055-.879-.076-1.324a145.913 145.913 0 0 0-18.375 15.521c.021.434.043.879.075 1.313a145.227 145.227 0 0 1 18.387-15.51h-.011ZM219.222 204.819c-.033-.445-.054-.89-.087-1.346-14.793 6.914-28.664 16.455-40.885 28.643.021.434.043.879.075 1.313 12.233-12.177 26.104-21.718 40.908-28.621l-.011.011ZM205.384 216.378c-.033-.445-.055-.89-.087-1.335a141.234 141.234 0 0 0-6.013 3.864c.022.445.054.89.087 1.324a140.981 140.981 0 0 1 6.013-3.853ZM266.11 191.317l-.098-1.378a144.4 144.4 0 0 0-37.608 8.911c.033.455.065.9.087 1.345a144.782 144.782 0 0 1 37.608-8.878h.011ZM250.437 189.722l-.097-1.368a145.46 145.46 0 0 0-21.936 6.48c.033.445.065.901.087 1.346a143.939 143.939 0 0 1 21.946-6.469v.011Z" fill="#6A6AE8"/><path d="m275.585 182.515-.098-1.379c-15.998.543-31.931 3.712-47.072 9.541.033.445.065.901.087 1.346a145.072 145.072 0 0 1 47.083-9.508Z" fill="#1C0A76"/><path d="M275.802 182.591c-16.139.51-32.224 3.701-47.496 9.584l-.097-1.498a144.608 144.608 0 0 1 47.495-9.616c.033.51.065 1.02.109 1.53h-.011Zm-47.105 9.28a145.1 145.1 0 0 1 46.66-9.421c-.033-.413-.054-.825-.087-1.227a144.583 144.583 0 0 0-46.66 9.454c.022.401.055.803.076 1.205l.011-.011Z" fill="#1C0A76"/><path d="m266.11 203.777-.098-1.378a144.4 144.4 0 0 0-37.608 8.911c.033.445.065.9.087 1.345a144.782 144.782 0 0 1 37.608-8.878h.011ZM250.437 202.182l-.097-1.368a145.46 145.46 0 0 0-21.936 6.48c.033.445.065.901.087 1.346a143.939 143.939 0 0 1 21.946-6.469v.011ZM275.585 194.975l-.098-1.379c-15.998.543-31.931 3.712-47.072 9.541.033.445.065.901.087 1.346a145.072 145.072 0 0 1 47.083-9.508ZM266.11 178.977l-.098-1.379a144.66 144.66 0 0 0-37.597 8.911c.033.445.065.901.087 1.346a144.773 144.773 0 0 1 37.608-8.878ZM260.976 187.898l-.098-1.367a147.19 147.19 0 0 0-6.827 1.085l.098 1.368c2.268-.413 4.537-.782 6.827-1.086ZM266.11 216.378l-.098-1.378a144.4 144.4 0 0 0-37.608 8.911c.033.445.065.901.087 1.346a144.744 144.744 0 0 1 37.608-8.879h.011ZM250.437 214.783l-.097-1.368a145.46 145.46 0 0 0-21.936 6.48c.033.445.065.901.087 1.346a143.939 143.939 0 0 1 21.946-6.469v.011ZM275.585 207.576l-.098-1.378a144.964 144.964 0 0 0-47.072 9.54c.033.445.065.901.087 1.346a145.072 145.072 0 0 1 47.083-9.508ZM250.437 227.243l-.097-1.368a145.46 145.46 0 0 0-21.936 6.48c.033.445.065.901.087 1.346a143.939 143.939 0 0 1 21.946-6.469v.011ZM275.585 220.036l-.098-1.379a144.69 144.69 0 0 0-47.072 9.53c.033.456.065.901.087 1.346a145.072 145.072 0 0 1 47.083-9.508v.011ZM260.976 212.97l-.098-1.367a147.19 147.19 0 0 0-6.827 1.085l.098 1.368c2.268-.413 4.537-.782 6.827-1.086Z" fill="#6A6AE8"/><path d="M323.493 222.228a60.34 60.34 0 0 1-.087-1.411 145.164 145.164 0 0 0-38.009-6.425l.097 1.389a145.135 145.135 0 0 1 37.999 6.458v-.011Z" fill="#1C0A76"/><path d="M323.71 222.369a144.735 144.735 0 0 0-38.422-6.523c-.032-.51-.065-1.02-.108-1.541a144.773 144.773 0 0 1 38.432 6.502l.098 1.562Zm-37.998-6.664a145.153 145.153 0 0 1 37.575 6.382 48.685 48.685 0 0 0-.087-1.259 145.197 145.197 0 0 0-37.586-6.36c.032.412.054.825.087 1.237h.011Z" fill="#1C0A76"/><path d="m308.07 214.327-.098-1.4a145.072 145.072 0 0 0-22.575-2.551l.097 1.389a143.8 143.8 0 0 1 22.576 2.573v-.011ZM332.556 217.203a57.764 57.764 0 0 1-.087-1.422 144.713 144.713 0 0 0-47.072-9.573l.097 1.39a145.012 145.012 0 0 1 47.062 9.605ZM308.07 226.787l-.098-1.4a145.072 145.072 0 0 0-22.575-2.551l.097 1.389a145.12 145.12 0 0 1 22.576 2.573v-.011ZM332.556 229.663a61.28 61.28 0 0 1-.087-1.422 144.713 144.713 0 0 0-47.072-9.573l.097 1.39a145.012 145.012 0 0 1 47.062 9.605ZM318.5 216.758c-.032-.467-.065-.933-.086-1.411a144.185 144.185 0 0 0-6.73-1.66l.098 1.41c2.258.5 4.493 1.053 6.729 1.661h-.011ZM250.437 177.381l-.097-1.367a145.34 145.34 0 0 0-21.936 6.479c.033.445.065.901.087 1.346a143.939 143.939 0 0 1 21.946-6.469v.011ZM275.574 170.174l-.097-1.378a144.715 144.715 0 0 0-47.073 9.529c.033.456.065.901.087 1.346a145.098 145.098 0 0 1 47.083-9.508v.011ZM266.11 166.636l-.098-1.378a144.359 144.359 0 0 0-37.608 8.91c.033.456.065.901.087 1.346a144.782 144.782 0 0 1 37.608-8.878h.011ZM260.65 175.601l-.097-1.367c-2.28.314-4.559.683-6.816 1.107l.097 1.367c2.269-.423 4.537-.792 6.816-1.096v-.011ZM250.437 165.03l-.097-1.368a145.46 145.46 0 0 0-21.936 6.48c.033.445.065.901.087 1.346a143.939 143.939 0 0 1 21.946-6.469v.011ZM275.585 157.834l-.098-1.379a144.992 144.992 0 0 0-47.072 9.541c.033.445.065.901.087 1.346a145.072 145.072 0 0 1 47.083-9.508ZM260.336 163.304l-.098-1.367a145.45 145.45 0 0 0-6.816 1.117l.098 1.368c2.268-.423 4.536-.803 6.816-1.118ZM308.07 189.266l-.098-1.4a145.072 145.072 0 0 0-22.575-2.551l.097 1.389c7.565.272 15.12 1.129 22.576 2.573v-.011ZM332.556 192.142a57.764 57.764 0 0 1-.087-1.422 144.772 144.772 0 0 0-47.072-9.573l.097 1.39a145.012 145.012 0 0 1 47.062 9.605ZM323.493 184.816a60.677 60.677 0 0 1-.087-1.411 145.168 145.168 0 0 0-37.999-6.426l.098 1.39a145.576 145.576 0 0 1 37.999 6.447h-.011ZM318.5 191.697l-.097-1.411a132.498 132.498 0 0 0-6.73-1.65l.098 1.401c2.258.499 4.493 1.052 6.729 1.66ZM308.07 176.925l-.098-1.4a145.07 145.07 0 0 0-22.575-2.55l.097 1.389c7.565.271 15.12 1.118 22.576 2.572v-.011ZM332.556 179.791a61.966 61.966 0 0 1-.087-1.422 144.746 144.746 0 0 0-47.072-9.573l.097 1.389a145.013 145.013 0 0 1 47.062 9.606ZM323.493 172.475a60.34 60.34 0 0 1-.087-1.411 144.713 144.713 0 0 0-37.999-6.425l.098 1.389a145.135 145.135 0 0 1 37.999 6.458l-.011-.011ZM318.185 179.27l-.086-1.411a147.411 147.411 0 0 0-6.73-1.639l.098 1.4a155.21 155.21 0 0 1 6.729 1.639l-.011.011ZM308.07 205.481l-.098-1.4a145.07 145.07 0 0 0-22.575-2.55l.097 1.389c7.565.26 15.12 1.118 22.576 2.572v-.011ZM332.556 208.358a61.966 61.966 0 0 1-.087-1.422 144.72 144.72 0 0 0-47.072-9.573l.097 1.389a144.987 144.987 0 0 1 47.062 9.606ZM323.493 201.031a60.677 60.677 0 0 1-.087-1.411 145.167 145.167 0 0 0-37.999-6.425l.098 1.389a145.576 145.576 0 0 1 37.999 6.447h-.011ZM318.5 207.912l-.097-1.411a145.456 145.456 0 0 0-6.73-1.66l.098 1.411c2.258.499 4.493 1.053 6.729 1.66ZM308.07 193.141l-.098-1.4a144.951 144.951 0 0 0-22.575-2.551l.097 1.389a145.12 145.12 0 0 1 22.576 2.573v-.011ZM318.185 195.474c-.032-.467-.065-.933-.086-1.411a148.743 148.743 0 0 0-6.73-1.639l.098 1.4c2.258.489 4.504 1.042 6.729 1.639l-.011.011Z" fill="#6A6AE8"/><path d="m308.07 164.585-.098-1.4a145.072 145.072 0 0 0-22.575-2.551l.097 1.389c7.565.272 15.12 1.129 22.576 2.573v-.011Z" fill="#1C0A76"/><path d="M308.287 164.693a145.26 145.26 0 0 0-22.999-2.615c-.032-.511-.076-1.021-.108-1.542 7.717.25 15.401 1.118 23.009 2.605.033.521.066 1.042.109 1.552h-.011Zm-22.586-2.757a145.199 145.199 0 0 1 22.152 2.519 47.62 47.62 0 0 0-.087-1.249 146.418 146.418 0 0 0-22.152-2.507c.032.413.054.825.087 1.237Z" fill="#1C0A76"/><path d="M332.556 167.45a58.067 58.067 0 0 1-.087-1.422 145.001 145.001 0 0 0-47.072-9.573l.097 1.39a145.012 145.012 0 0 1 47.062 9.605Z" fill="#6A6AE8"/><path d="M317.871 166.842a56.851 56.851 0 0 1-.087-1.411 145.518 145.518 0 0 0-6.74-1.628l.098 1.4c2.257.489 4.504 1.031 6.74 1.628l-.011.011Z" fill="#1C0A76"/><path d="M318.088 166.972a152.763 152.763 0 0 0-7.153-1.736 73.524 73.524 0 0 0-.108-1.552c2.398.51 4.786 1.085 7.152 1.726l.098 1.562h.011Zm-6.74-1.79a140.2 140.2 0 0 1 6.316 1.53c-.021-.412-.054-.836-.086-1.259a140.464 140.464 0 0 0-6.317-1.52c.032.413.054.836.087 1.249Z" fill="#1C0A76"/><path d="M375.254 226.06c-.022-.478-.054-.966-.076-1.455a143.862 143.862 0 0 0-33.44-21.761c.033.477.054.944.087 1.422a144.45 144.45 0 0 1 33.429 21.783v.011ZM362.11 211.863c-.032-.477-.054-.955-.086-1.443a141.927 141.927 0 0 0-20.286-11.592c.033.477.054.944.087 1.422a143.562 143.562 0 0 1 20.274 11.613h.011ZM382.678 224.811c-.022-.488-.043-.966-.076-1.454-12.221-12.199-26.081-21.772-40.864-28.686.033.477.054.955.087 1.422 14.783 6.935 28.643 16.508 40.853 28.718Z" fill="#6A6AE8"/><path d="M375.254 213.719c-.022-.477-.054-.966-.076-1.443a143.834 143.834 0 0 0-33.44-21.762c.033.478.054.955.087 1.422a144.482 144.482 0 0 1 33.429 21.783Z" fill="#FF5EA6"/><path d="M371.064 218.538c-.021-.477-.054-.966-.075-1.443a146.375 146.375 0 0 0-5.753-4.396c.022.478.054.966.076 1.444a129.585 129.585 0 0 1 5.742 4.406l.01-.011ZM362.11 199.523c-.021-.478-.054-.956-.086-1.444a144.063 144.063 0 0 0-20.286-11.592c.033.478.054.955.087 1.422a143.569 143.569 0 0 1 20.274 11.614h.011ZM382.678 212.471c-.022-.489-.043-.966-.076-1.454-12.221-12.2-26.081-21.762-40.864-28.687.033.478.054.955.087 1.422 14.783 6.936 28.643 16.509 40.853 28.719ZM375.254 201.379c-.022-.478-.054-.966-.076-1.455a143.862 143.862 0 0 0-33.44-21.761c.033.477.054.944.087 1.421a144.454 144.454 0 0 1 33.429 21.784v.011ZM370.804 205.981c-.022-.478-.054-.966-.076-1.444a157.581 157.581 0 0 0-5.752-4.385c.021.478.054.955.076 1.444a158.449 158.449 0 0 1 5.752 4.385ZM375.254 255.397c-.022-.477-.054-.966-.076-1.454a143.834 143.834 0 0 0-33.44-21.762c.033.478.054.944.087 1.422a144.482 144.482 0 0 1 33.429 21.783v.011ZM362.11 241.201c-.032-.478-.054-.956-.086-1.444a141.927 141.927 0 0 0-20.286-11.592c.033.478.054.955.087 1.422a143.569 143.569 0 0 1 20.274 11.614h.011ZM382.678 254.149c-.022-.489-.043-.966-.076-1.454-12.221-12.2-26.081-21.762-40.864-28.687.033.478.054.955.087 1.422 14.783 6.936 28.643 16.509 40.853 28.719Z" fill="#6A6AE8"/><path d="M375.254 243.057c-.022-.489-.054-.966-.076-1.455a143.862 143.862 0 0 0-33.44-21.761c.033.477.054.955.087 1.421a144.454 144.454 0 0 1 33.429 21.784v.011Z" fill="#FF5EA6"/><path d="M371.064 247.876c-.021-.478-.054-.966-.075-1.444a147.355 147.355 0 0 0-5.753-4.396c.022.478.054.966.076 1.444a130.352 130.352 0 0 1 5.742 4.406l.01-.01ZM362.11 228.057c-.021-.478-.054-.955-.086-1.444a142.987 142.987 0 0 0-20.286-11.592c.033.478.054.956.087 1.422a143.569 143.569 0 0 1 20.274 11.614h.011ZM382.678 241.005c-.022-.488-.043-.966-.076-1.454-12.221-12.2-26.081-21.762-40.864-28.686.033.477.054.955.087 1.422 14.783 6.935 28.643 16.508 40.853 28.718ZM375.254 229.913c-.022-.478-.054-.966-.076-1.455a143.862 143.862 0 0 0-33.44-21.761c.033.477.054.944.087 1.422a144.482 144.482 0 0 1 33.429 21.783v.011ZM370.804 234.515c-.022-.478-.054-.966-.076-1.444a158.721 158.721 0 0 0-5.752-4.385c.021.478.054.966.076 1.444a158.449 158.449 0 0 1 5.752 4.385ZM362.11 187.182c-.032-.478-.054-.955-.086-1.444a142.016 142.016 0 0 0-20.286-11.591c.033.477.054.955.087 1.422a143.464 143.464 0 0 1 20.274 11.613h.011Z" fill="#6A6AE8"/><path d="M382.678 200.13c-.022-.488-.043-.966-.076-1.454-12.221-12.2-26.081-21.762-40.864-28.686.033.477.054.955.087 1.422 14.783 6.935 28.643 16.508 40.853 28.718Z" fill="#FF5EA6"/><path d="M370.533 193.423c-.022-.478-.055-.966-.076-1.444a146.773 146.773 0 0 0-5.764-4.363c.022.478.055.966.076 1.444 1.954 1.4 3.875 2.854 5.764 4.374v-.011Z" fill="#6A6AE8"/><path d="m315.157 433.017-9.063-1.91-.52 1.096-8.477-.716c-.098-.391-.174-.771-.282-1.172a72.051 72.051 0 0 0-9.367-22.022l11.646-13.893-20.275-20.22-9.073-1.911-.934 9.758.586.087-4.439 3.744a67.634 67.634 0 0 0-6.794-3.81 72.61 72.61 0 0 0-16.433-5.741l-1.584-18.061-9.063-1.91-.64 1.921-18.908.033-1.53 18.06a71.956 71.956 0 0 0-23.194 9.638l-5.101-4.276-8.803-7.359-9.073-1.91v.022c-.304.586-4.819 9.963-4.971 10.484-.055.228 1.845.803 4.081 1.39l-10.257 10.289 11.689 13.86a72.35 72.35 0 0 0-9.573 23.227l-18.049 1.584.022 13.459h37.521c.173-12.959 5.177-25.875 15.064-35.763 11.657-11.7 27.514-16.649 42.72-14.848a51.41 51.41 0 0 1 30.358 14.718c9.953 9.909 15.022 22.879 15.195 35.893h37.521l-.021-13.741h.021Z" fill="#DB5A9B"/><path d="m306.095 431.118-9.269-.782-8.792-.738a72.558 72.558 0 0 0-9.638-23.194l11.646-13.893-20.285-20.22-11.581 9.779-2.269 1.91c-7.239-4.601-15.086-7.771-23.227-9.562l-1.584-18.06-28.61.043-1.542 18.061a72.27 72.27 0 0 0-19.211 7.272 73.66 73.66 0 0 0-3.972 2.366l-13.893-11.646v.022l-20.209 20.252 11.678 13.861a72.31 72.31 0 0 0-9.562 23.226l-18.06 1.585.022 15.369h37.531c-.314-13.6 4.7-27.286 15.065-37.673 14.002-14.045 34.059-18.354 51.783-12.938 7.793 2.377 15.119 6.664 21.295 12.808 10.441 10.397 15.499 24.149 15.195 37.803h37.521l-.022-15.651h-.01Z" fill="#FF5EA6"/><path d="M347.284 438.303c-7.793-2.573-11.548-15.076-13.361-21.783l-8.151 3.147s4.038 12.21 3.571 20.014c-.467 7.804 1.747 7.066 1.747 7.066h26.527s-2.54-5.872-10.344-8.444h.011Z" fill="#FFD2A7"/><path d="M347.284 438.303c-2.355-.771-4.341-2.464-6.013-4.613-1.085-1.519-6.371.152-7.25 3.104 0 0-2.116 1.552-4.645 1.314 0 .542 0 1.074-.033 1.573-.467 7.804 1.748 7.066 1.748 7.066h26.526s-2.54-5.872-10.344-8.444h.011Z" fill="#1C0A76"/><path d="m228.013 328.106-8.14 3.419c5.025 8.694 6.816 16.986-7.359 16.986-6.534 0-8.151 7.836-8.151 7.836h33.885s3.376-1.368-1.508-9.291c-5.297-8.607-8.727-18.961-8.727-18.961v.011Z" fill="#FFD2A7"/><path d="M226.19 349.064c-2.127-1.975.228-5.731-2.768-5.904-.651 3.223-3.722 5.351-10.897 5.351-6.534 0-8.151 7.836-8.151 7.836h33.885s3.159-1.281-1.074-8.575c-3.549 0-7.771 4.266-10.984 1.292h-.011Z" fill="#1C0A76"/><path d="M295.382 246.345c-24.724-1.964-87.61 1.335-90.356 2.529-3.235 1.411-10.68 10.528 2.637 17.952 11.125 6.197 89 32.311 100.906.727 4.374-11.592-5.676-20.611-13.187-21.208Z" fill="#572EFF"/><path d="M309.622 261.443c-52.716 21.164-107.353-.217-110.903-1.552 1.911 2.235 4.798 4.612 8.944 6.924 11.125 6.198 89 32.312 100.906.727.803-2.138 1.118-4.178 1.053-6.11v.011Z" fill="#1C0A76"/><path d="M320.953 268.345c-3.755-12.535-11.494-21.729-14.033-24.149-4.157-3.972-14.783-5.307-18.159 3.234-3.375 8.542-4.406 13.871-1.519 30.662 2.887 16.791 20.057 58.176 21.349 70.636 1.292 12.46 19.678 15.455 16.552-2.584-3.126-18.038.152-63.298-4.19-77.799Z" fill="#572EFF"/><path d="M326.206 349.661c-.835-3.419-1.226-5.915-1.791-9.388-2.42-14.805-17.832-2.616-17.3 1.313.662 4.938 2.203 7.424 3.538 24.562 1.324 17.138 5.21 26.255 8.726 34.666 3.517 8.412 5.579 19.938 5.579 19.938 8.021 1.748 10.756-1.226 10.756-1.226s-1.834-18.267-2.713-33.006-4.83-28.871-6.784-36.87l-.011.011ZM196.299 254.399c-2.854 4.862 24.573 83.79 24.573 83.79 8.151.901 12.026-3.083 12.026-3.083s-6.317-23.617-6.675-38.378c-1.618-65.762-27.905-45.748-29.913-42.329h-.011Z" fill="#572EFF"/><path d="M266.468 205.308c-2.149-1.997-27.688-26.657-29.652-30.977-2.312-5.079 3.983-8.487 9.833-5.633 5.601 2.746 25.571 18.94 29.728 26.646 4.472 8.292-5.264 14.273-9.898 9.964h-.011Z" fill="#FFD2A7"/><path d="M294.394 145.005c-4.754.304-8.357 4.406-8.053 9.16.304 4.754 4.406 8.358 9.16 8.054 4.754-.304 8.358-4.407 8.054-9.161-.304-4.754-4.407-8.357-9.161-8.053Z" fill="#1C0A76"/><path d="M306.149 189.472c-1.498-8.921 3.647-14.706-1.596-24.67-5.242-9.964-10.495-10.789-15.542-12.059-12.807-3.223-25.387 13.057-20.025 23.976 4.96 10.094.651 18.321-3.18 26.993-3.832 8.661-4.461 35.622 18.95 37.011 23.412 1.389 28.339-8.791 30.065-23.075 2.073-17.105-7.174-19.243-8.672-28.165v-.011Z" fill="#1C0A76"/><path d="M254.095 172.747s-6.469 2.214-12.829 8.075l29.478 29.869 5.807-7.337s3.43-4.309-1.422-10.756-18.126-16.454-21.024-19.851h-.01Z" fill="#FF5EA6"/><path d="M303.338 228.437c.184-3.669 1.28-7.099 3.788-19.841.977-4.971 2.257-8.878.901-10.995-1.726-2.659-6.632-2.8-10.116-2.572-6.284.402-4.233-14.945-4.233-14.945-1.161-3.094-11.57-1.878-10.441 8.205 1.129 10.083-9.139 6.056-11.397 8.086-3.093 2.779-2.474 8.379-2.941 11.407-.467 3.028-4.667 6.849-3.712 12.297.955 5.449 6.132 4.928 6.132 4.928 1.998 2.008 3.962 5.774 4.32 8.498.825 6.35-1.921 12.905-1.921 12.905 18.961 6.903 34.189-1.204 34.189-1.204s-5.123-5.785-4.569-16.769Z" fill="#FFD2A7"/><path d="M297.9 195.029c-6.284.402-4.233-14.945-4.233-14.945-.651-1.726-4.146-2.106-6.935-.38 1.986.38 7.185 8.661 5.199 21.382-.565 3.614-4.277 5.969-7.772 6.892 0 0 22.587 2.485 22.956.618.977-4.971-5.742-13.784-9.215-13.567Z" fill="#FFBC8E"/><path d="M303.327 228.437c.184-3.658 1.281-7.099 3.788-19.841.977-4.971 2.257-8.878.901-10.984-1.552-2.398-5.677-2.746-9.02-2.637-3.484 8.704-11.722 13.882-17.789 11.57-3.907-1.487-2.572-5.948-2.887-11.114-2.551-.12-5.828.228-6.469.814-3.093 2.778-2.485 8.52-2.952 11.537-.467 3.028-4.667 6.849-3.701 12.297.955 5.449 6.132 4.928 6.132 4.928 1.997 2.008 3.973 5.774 4.32 8.498.825 6.35-1.921 12.916-1.921 12.916 18.961 6.903 34.189-1.205 34.189-1.205s-5.123-5.785-4.58-16.769l-.011-.01Z" fill="#FF5EA6"/><path d="M303.327 228.437c.184-3.658 1.281-7.099 3.788-19.841.977-4.971 2.257-8.878.901-10.984-1.498-2.322-5.395-2.724-8.672-2.637-.044.543-.033 1.27-.142 1.823-1.421 7.381-6.056 12.97-12.394 15.673l3.701.575c4.233.662 7.044 5.156 6.251 9.237-.575 3.006-2.811 5.188-5.546 6.002l-1.378 8.802c-1.042 6.675 5.123 12.254 11.635 10.485 4.059-1.107 6.436-2.366 6.436-2.366s-5.123-5.785-4.58-16.769Z" fill="#DB5A9B"/><path d="M313.073 160.449c-3.57 3.571-14.761 34.526-17.322 40.702-.912 2.192 9.334 5.871 13.773.803 2.464-2.811 14.056-35.665 13.795-40.408-.304-5.568-5.655-5.699-10.256-1.097h.01Z" fill="#FFD2A7"/><path d="M308.775 194.639c-3.462 3.863-5.036 7.771-10.115 9.041 3.864 1.552 7.912 1.649 10.864-1.715 2.225-2.529 11.95-29.403 13.557-38.216-.467 1.78-9.714 25.756-14.306 30.89Z" fill="#FFBC8E"/><path d="M293.613 171.672s-4.798-12.666-9.03-12.937c-4.244-.283-7.598.141-9.573 4.83 0 0-2.356 4.156-1.346 9.051 0 0-5.492 5.113.684 12.309 6.164 7.195 16.15 1.975 19.33-4.841 0 0 5.698 1.704 6.328-3.582.629-5.286-2.833-5.47-6.382-4.83h-.011Z" fill="#FFD2A7"/><path d="M293.613 171.672s-4.797-12.666-9.03-12.938c-3.398-.217-6.22.011-8.227 2.508 2.811-.782 13.067 10.246 13.274 16.942.217 6.816-6.958 11.179-12.895 8.358a11.745 11.745 0 0 1-2.029-1.227c6.186 6.577 15.846 1.444 18.961-5.231 0 0 5.698 1.704 6.328-3.582.629-5.286-2.833-5.47-6.382-4.83Z" fill="#FFBC8E"/><path d="M271.797 165.442s6.642-1.161 10.344-4.993c3.711-3.831 5.676-3.212 5.676-3.212-11.537-4.776-16.031 8.205-16.031 8.205h.011Z" fill="#1C0A76"/><path d="M284.246 158.018c-1.791 1.509-2.094 5.981 2.638 10.919 4.732 4.939 3.343 11.103 6.979 7.695 3.646-3.408 3.679-3.961 3.929-8.531.26-4.569-9.628-13.382-13.557-10.072l.011-.011Z" fill="#1C0A76"/><path d="M320.324 177.229s-8.727 21.99-10.821 25.278c-2.106 3.289-11.212 3.788-14.002-.814 0 0 .131-.271.218-.488.846-2.203 3.614-15.065 8.596-26.103 0 0 5.774-3.31 16.009 2.127Z" fill="#FF5EA6"/><path d="M236.382 172.508c-.261-8.922 6.512-36.197 4.688-41.255-1.823-5.047-2.214-14.175.652-17.17 2.919-3.061 4.938-.554 6.36 3.245.901 2.409 1.574 5.188.195 11.168-1.389 6.002.489 32.257-.412 41.212-.89 8.878-11.299 8.834-11.483 2.8Z" fill="#FFD2A7"/><path d="M320.324 177.229s-8.716 21.99-10.821 25.267c-2.03 3.181-9.595 5.145-12.601 1.151-.044-.054.021-.282.043-.38.065-.087.206-.119.695-.087h.021c1.987.163 8.021.315 10.648-3.191 3.95-5.253 7.033-18.56 12.015-22.771v.011Z" fill="#DB5A9B"/><path d="m261.009 74.141-13.763-6.99a4.623 4.623 0 0 0-3.419-.314l-23.596 7.022a4.637 4.637 0 0 0-3.125 5.763l2.431 8.173 14.956 50.242a4.637 4.637 0 0 0 5.763 3.125l73.241-21.794a4.638 4.638 0 0 0 3.126-5.763L302.99 67.803a4.638 4.638 0 0 0-5.763-3.126l-32.789 9.757a4.614 4.614 0 0 1-3.419-.314l-.01.021Z" fill="#FF5EA6"/><path d="m246.91 87.622 3.961 13.241-3.223.966-1.628-5.448-5.015 1.497 1.628 5.449-3.223.966-3.962-13.242 3.224-.966 1.552 5.188 5.014-1.497-1.552-5.188 3.224-.966ZM253.237 88.555l.804 2.68 4.319-1.291.749 2.486-4.32 1.291.869 2.909 4.884-1.465.771 2.583-8.119 2.431-3.962-13.241 8.119-2.432.771 2.584-4.885 1.465ZM265.893 93.667l4.222-1.27.749 2.485-7.457 2.236-3.961-13.241 3.223-.966 3.224 10.756ZM274.89 90.975l4.222-1.27.749 2.486-7.456 2.236-3.962-13.242 3.224-.966 3.223 10.756ZM284.029 90.15a6.783 6.783 0 0 1-3.202-1.682c-.922-.857-1.573-1.932-1.964-3.223-.391-1.292-.434-2.551-.13-3.767a6.791 6.791 0 0 1 1.747-3.158c.868-.89 1.921-1.52 3.169-1.889 1.249-.369 2.475-.423 3.68-.162a6.664 6.664 0 0 1 3.18 1.682c.912.857 1.552 1.932 1.943 3.224.39 1.291.434 2.55.141 3.776a6.755 6.755 0 0 1-1.726 3.159c-.857.89-1.91 1.52-3.158 1.889-1.249.369-2.475.423-3.691.162l.011-.01Zm5.025-4.916c.424-.89.467-1.921.12-3.083-.347-1.161-.944-2.008-1.791-2.518-.847-.51-1.791-.608-2.855-.282-1.063.326-1.823.923-2.246 1.802-.424.879-.467 1.91-.109 3.093.358 1.183.945 2.008 1.791 2.518.847.51 1.802.597 2.865.282 1.064-.315 1.802-.922 2.225-1.812ZM254.008 110.175l.51 14.284-3.907 1.172-4.722-8.086.424 9.377-3.908 1.173-7.326-12.243 3.452-1.031 4.797 9.073-.532-10.343 3.549-1.064 5.156 8.965-.966-10.213 3.473-1.042v-.022ZM262.224 121.344a6.782 6.782 0 0 1-3.202-1.683c-.922-.857-1.574-1.931-1.964-3.223-.391-1.292-.434-2.551-.131-3.766a6.793 6.793 0 0 1 1.748-3.159c.868-.89 1.921-1.519 3.169-1.888s2.475-.424 3.68-.163a6.663 6.663 0 0 1 3.18 1.682c.911.858 1.552 1.932 1.942 3.224.391 1.291.435 2.55.142 3.777a6.751 6.751 0 0 1-1.726 3.158c-.858.89-1.91 1.52-3.159 1.889-1.248.369-2.474.423-3.69.163l.011-.011Zm5.025-4.917c.424-.89.467-1.921.12-3.082-.348-1.162-.945-2.008-1.791-2.518-.847-.511-1.791-.608-2.855-.283-1.063.326-1.823.923-2.246 1.802-.424.879-.467 1.91-.109 3.093.358 1.183.944 2.008 1.791 2.518.846.511 1.802.597 2.865.283 1.064-.315 1.802-.923 2.225-1.813ZM281.185 116.47l-4.254-4.178-.771.228 1.498 5.003-3.224.966-3.961-13.241 5.416-1.617c1.042-.315 1.986-.402 2.833-.25.846.141 1.541.478 2.094 1.009a4.486 4.486 0 0 1 1.183 1.954c.261.879.25 1.747-.043 2.583-.293.847-.879 1.552-1.758 2.128l4.623 4.33-3.646 1.085h.01Zm-5.709-6.23 1.998-.596c.586-.174.987-.456 1.204-.836.206-.38.239-.825.076-1.357-.152-.499-.412-.857-.803-1.053-.38-.195-.868-.217-1.465-.032l-1.997.597.987 3.277ZM289.217 111.359l4.222-1.27.749 2.485-7.456 2.236-3.962-13.241 3.224-.966 3.223 10.756ZM300.646 97.118a6.268 6.268 0 0 1 3.126 1.607c.868.825 1.509 1.899 1.899 3.202.391 1.302.445 2.528.174 3.711a6.155 6.155 0 0 1-1.737 3.072c-.89.868-2.018 1.509-3.408 1.921l-4.96 1.487-3.961-13.241 4.96-1.487c1.4-.424 2.702-.51 3.907-.272Zm1.563 8.933c.477-.868.532-1.91.174-3.137-.359-1.226-.988-2.073-1.867-2.54-.879-.477-1.932-.531-3.159-.162l-1.53.455 2.301 7.696 1.53-.456c1.216-.369 2.073-.988 2.551-1.856Z" fill="#fff"/><path d="M322.831 158.333c-3.104-8.368-19.602-31.128-19.797-36.49-.206-5.373-3.256-13.969-7.033-15.673-3.853-1.736-4.787 1.335-4.689 5.395.065 2.572.477 5.394 4.005 10.43 3.538 5.036 11.624 30.086 15.825 38.053 4.157 7.901 13.784 3.951 11.689-1.715Z" fill="#FFD2A7"/><path d="M312.466 160.949s.597.455-.174 1.758c-.77 1.302 8.64 3.343 9.465 1.563.824-1.791.911-2.507.911-2.507s.304-2.095-1.02-4.581c-1.335-2.485-9.182 3.777-9.182 3.777v-.01ZM237.478 174.245s1.237 1.997 3.104 3.929c1.867 1.931 8.151-5.894 8.151-5.894l-.705-2.04s-.695-.272-.663-1.9c.033-1.628-4.829-.966-4.829-.966l-5.058 6.86v.011Z" fill="#FFD2A7"/><path d="M188.854 288.381c-.022-.466-.033-.944-.055-1.411-4.059-4.189-6.881-8.422-8.552-12.286 0 .467.01.933.021 1.4 1.683 3.864 4.515 8.097 8.586 12.287v.01ZM206.892 297.716c-.032-.467-.054-.934-.087-1.401-14.174-7.782-23.085-17.506-26.558-25.701 0 .467.01.933.021 1.4 3.495 8.195 12.428 17.92 26.624 25.691v.011Z" fill="#6A6AE8"/><path d="M199.11 288.815a58.349 58.349 0 0 0-.076-1.41c-9.746-6.741-15.965-14.316-18.787-20.872 0 .467.01.933.021 1.4 2.833 6.567 9.074 14.142 18.842 20.882Z" fill="#1C0A76"/><path d="M199.273 289c-9.909-6.794-16.215-14.479-19.048-21.1 0-.521-.011-1.041-.022-1.552 2.811 6.621 9.106 14.295 18.994 21.1.022.521.054 1.042.076 1.552Zm-18.961-21.034c2.843 6.501 9.008 13.99 18.625 20.654l-.066-1.248c-9.594-6.675-15.748-14.153-18.581-20.655 0 .413.011.836.022 1.249Z" fill="#1C0A76"/><path d="m195.377 294.221-.065-1.411a67.246 67.246 0 0 1-4.396-3.767c.021.467.032.934.054 1.411a71.093 71.093 0 0 0 4.396 3.767h.011ZM188.854 276.291c-.022-.467-.033-.934-.055-1.411-4.059-4.19-6.881-8.423-8.552-12.287 0 .467.01.934.021 1.4 1.683 3.864 4.515 8.097 8.586 12.287v.011ZM206.892 285.625c-.032-.467-.054-.934-.087-1.401-14.174-7.782-23.085-17.507-26.558-25.701 0 .467.01.933.021 1.4 3.495 8.195 12.428 17.919 26.624 25.702Z" fill="#6A6AE8"/><path d="M199.11 276.735a58.706 58.706 0 0 0-.076-1.411c-9.746-6.74-15.965-14.316-18.787-20.871 0 .467.01.933.021 1.4 2.833 6.566 9.074 14.142 18.831 20.882h.011ZM195.159 281.967l-.065-1.411a66.403 66.403 0 0 1-4.363-3.766c.022.467.033.944.054 1.411a64.154 64.154 0 0 0 4.374 3.766Z" fill="#6A6AE8"/><path d="M188.854 264.21c-.022-.466-.033-.933-.055-1.411-4.059-4.189-6.881-8.422-8.552-12.286 0 .467.01.933.021 1.4 1.683 3.864 4.515 8.097 8.586 12.286v.011ZM206.892 273.544c-.032-.466-.054-.933-.087-1.4-14.174-7.793-23.085-17.507-26.558-25.701 0 .467.01.933.021 1.4 3.495 8.195 12.428 17.919 26.624 25.701ZM194.942 269.702l-.065-1.411a72.836 72.836 0 0 1-4.33-3.766c.021.467.032.934.054 1.411a63.156 63.156 0 0 0 4.341 3.766ZM188.854 321.225c-.022-.467-.033-.934-.055-1.411-4.059-4.19-6.881-8.423-8.552-12.287 0 .467.01.934.021 1.4 1.683 3.864 4.515 8.097 8.586 12.287v.011ZM206.892 330.559c-.032-.467-.054-.934-.087-1.401-14.174-7.792-23.085-17.506-26.558-25.701 0 .467.01.933.021 1.4 3.495 8.195 12.428 17.92 26.624 25.691v.011Z" fill="#6A6AE8"/><path d="M199.11 321.67a58.155 58.155 0 0 0-.076-1.411c-9.746-6.741-15.965-14.316-18.787-20.872 0 .467.01.933.021 1.4 2.833 6.567 9.074 14.142 18.842 20.883ZM195.377 327.075l-.065-1.411a67.246 67.246 0 0 1-4.396-3.767c.021.467.032.934.054 1.411a70.752 70.752 0 0 0 4.396 3.767h.011Z" fill="#6A6AE8"/><path d="M188.854 309.144c-.022-.466-.033-.933-.055-1.411-4.059-4.189-6.881-8.422-8.552-12.286 0 .467.01.933.021 1.4 1.683 3.864 4.515 8.097 8.586 12.286v.011ZM206.892 318.479c-.032-.467-.054-.934-.087-1.401-14.174-7.793-23.085-17.507-26.558-25.701 0 .467.01.933.021 1.4 3.495 8.195 12.428 17.919 26.624 25.702Z" fill="#6A6AE8"/><path d="M199.11 309.579a58.155 58.155 0 0 0-.076-1.411c-9.746-6.74-15.965-14.316-18.787-20.872 0 .467.01.934.021 1.4 2.833 6.567 9.074 14.143 18.831 20.883h.011ZM195.159 314.81l-.065-1.411a66.403 66.403 0 0 1-4.363-3.766c.022.467.033.933.054 1.411a64.154 64.154 0 0 0 4.374 3.766Z" fill="#6A6AE8"/><path d="M188.854 297.054c-.022-.467-.033-.945-.055-1.411-4.059-4.19-6.881-8.423-8.552-12.287 0 .467.01.934.021 1.4 1.683 3.864 4.515 8.097 8.586 12.287v.011ZM206.892 306.388c-.032-.467-.054-.934-.087-1.4-14.174-7.783-23.085-17.507-26.558-25.702 0 .467.01.934.021 1.4 3.495 8.195 12.428 17.92 26.624 25.702ZM194.942 302.556l-.065-1.411a69.04 69.04 0 0 1-4.33-3.766c.021.467.032.934.054 1.411a63.156 63.156 0 0 0 4.341 3.766ZM261.562 321.626c-.043-.456-.087-.911-.119-1.367-16.704-1.704-32.453-5.742-45.293-11.353l.098 1.4c12.851 5.6 28.61 9.638 45.314 11.32ZM241.591 314.484c-.043-.455-.076-.922-.119-1.378-9.193-2.051-17.757-4.83-25.332-8.129l.097 1.4c7.576 3.299 16.151 6.067 25.354 8.107Z" fill="#6A6AE8"/><path d="m274.022 314.463-.13-1.357c-21.197-.695-41.776-5.188-57.752-12.2l.097 1.401c15.999 7 36.577 11.483 57.774 12.167l.011-.011Z" fill="#1C0A76"/><path d="M274.315 314.55c-21.393-.652-42.188-5.188-58.284-12.265-.033-.521-.065-1.031-.109-1.552 16.075 7.098 36.859 11.635 58.252 12.308.043.499.087 1.009.141 1.509Zm-57.861-12.232c15.89 6.913 36.273 11.352 57.275 12.058-.033-.402-.076-.803-.109-1.216-21.001-.716-41.374-5.166-57.253-12.091.033.413.055.825.087 1.249Z" fill="#1C0A76"/><path d="M261.562 333.826c-.043-.456-.087-.912-.119-1.368-16.704-1.693-32.453-5.741-45.293-11.353l.098 1.4c12.851 5.601 28.61 9.638 45.314 11.321ZM241.591 326.684c-.043-.456-.076-.923-.119-1.378-9.193-2.052-17.757-4.83-25.332-8.13l.097 1.4c7.576 3.3 16.151 6.068 25.354 8.108ZM274.022 326.662l-.13-1.357c-21.197-.694-41.776-5.188-57.752-12.199l.097 1.4c15.999 7.001 36.577 11.483 57.774 12.167l.011-.011ZM261.562 309.535c-.043-.456-.087-.912-.119-1.367-16.704-1.704-32.453-5.742-45.293-11.353l.098 1.4c12.851 5.6 28.61 9.638 45.314 11.32ZM254.909 316.894c-.044-.456-.076-.912-.12-1.368-2.941-.412-5.839-.9-8.683-1.454.044.456.076.923.12 1.378 2.854.554 5.752 1.032 8.683 1.444ZM261.562 346.166c-.043-.456-.087-.911-.119-1.367-16.704-1.693-32.453-5.742-45.293-11.353l.098 1.4c12.851 5.6 28.61 9.638 45.314 11.32ZM241.591 339.024c-.043-.455-.076-.922-.119-1.378-9.193-2.051-17.757-4.83-25.332-8.129l.097 1.4c7.576 3.299 16.151 6.067 25.354 8.107Z" fill="#6A6AE8"/><path d="m274.022 339.003-.13-1.357c-21.197-.695-41.776-5.199-57.752-12.199l.097 1.4c15.999 7 36.577 11.483 57.774 12.167l.011-.011ZM241.591 351.224c-.043-.456-.076-.922-.119-1.378-9.193-2.052-17.757-4.83-25.332-8.13l.097 1.4c7.576 3.3 16.151 6.068 25.354 8.108ZM274.022 351.202l-.13-1.357c-21.197-.694-41.776-5.188-57.752-12.199l.097 1.4c15.999 7.001 36.577 11.483 57.774 12.167l.011-.011ZM254.909 341.434c-.044-.456-.076-.912-.12-1.368-2.941-.412-5.839-.9-8.683-1.454.044.456.076.923.12 1.378 2.854.543 5.752 1.032 8.683 1.444Z" fill="#6A6AE8"/><path d="M334.868 338.569a59.03 59.03 0 0 0-.109-1.324c-14.11 4.819-30.748 7.814-47.734 8.4l.13 1.357c16.986-.597 33.614-3.592 47.713-8.433Z" fill="#1C0A76"/><path d="M335.106 338.558c-14.229 4.906-31.052 7.945-48.233 8.52-.044-.499-.098-.999-.141-1.498 17.181-.564 34.015-3.592 48.255-8.487.043.488.076.976.119 1.465Zm-47.68 8.357c16.802-.619 33.223-3.582 47.192-8.335l-.098-1.173c-13.979 4.754-30.412 7.696-47.213 8.303.032.402.076.804.108 1.205h.011Z" fill="#1C0A76"/><path d="m316.373 339.621-.119-1.335c-9.324 1.9-19.222 3.072-29.229 3.419l.13 1.357c10.007-.358 19.905-1.541 29.218-3.441ZM344.831 326.706l-.098-1.314c-15.954 7.023-36.511 11.538-57.708 12.254l.13 1.357c21.197-.727 41.743-5.253 57.676-12.287v-.01ZM316.373 351.821l-.119-1.335c-9.324 1.899-19.222 3.072-29.229 3.419.043.445.086.901.13 1.346 10.007-.358 19.905-1.531 29.218-3.441v.011ZM344.831 338.905l-.098-1.313c-15.954 7.022-36.511 11.537-57.708 12.254l.13 1.356c21.197-.727 41.743-5.253 57.676-12.286v-.011ZM329.072 336.474c-.033-.445-.076-.879-.109-1.324a157.514 157.514 0 0 1-8.118 2.138c.043.445.076.89.119 1.324 2.768-.651 5.47-1.367 8.108-2.138ZM241.591 302.404c-.043-.466-.076-.922-.119-1.378-9.193-2.051-17.757-4.83-25.332-8.13l.097 1.401c7.576 3.299 16.151 6.067 25.354 8.107ZM274.022 302.372l-.13-1.357c-21.197-.695-41.776-5.188-57.752-12.2l.097 1.401c15.999 7 36.577 11.483 57.785 12.166v-.01Z" fill="#6A6AE8"/><path d="M261.562 297.455c-.043-.456-.076-.912-.119-1.367-16.704-1.704-32.453-5.742-45.293-11.353l.098 1.4c12.851 5.6 28.61 9.638 45.314 11.32ZM254.496 304.749c-.043-.456-.076-.912-.119-1.368a179.286 179.286 0 0 1-8.672-1.465c.043.456.076.923.119 1.378 2.844.554 5.742 1.042 8.672 1.466v-.011ZM241.591 290.313c-.043-.455-.076-.922-.119-1.378-9.193-2.051-17.757-4.83-25.332-8.129l.097 1.4c7.576 3.299 16.151 6.067 25.354 8.107ZM274.022 290.292l-.13-1.357c-21.197-.695-41.776-5.188-57.752-12.2l.097 1.4c15.999 7.001 36.577 11.484 57.785 12.167v-.01ZM254.084 292.604c-.044-.456-.076-.912-.12-1.368a167.7 167.7 0 0 1-8.661-1.487c.044.456.076.923.12 1.378 2.843.565 5.73 1.053 8.661 1.487v-.01ZM316.373 315.081c-.044-.445-.076-.89-.119-1.335-9.324 1.9-19.222 3.072-29.229 3.419.043.445.086.901.13 1.346 10.007-.358 19.905-1.53 29.218-3.441v.011ZM344.831 302.155l-.098-1.314c-15.954 7.023-36.511 11.538-57.708 12.254l.13 1.357c21.197-.727 41.743-5.253 57.676-12.287v-.01ZM334.868 301.938a59.03 59.03 0 0 0-.109-1.324c-14.121 4.819-30.748 7.814-47.734 8.4.043.456.086.901.13 1.346 16.986-.597 33.614-3.592 47.713-8.422ZM329.072 311.934c-.033-.445-.076-.879-.109-1.324-2.637.77-5.351 1.487-8.118 2.138.043.445.076.89.119 1.324 2.768-.651 5.47-1.368 8.108-2.138ZM316.373 303.001c-.044-.445-.076-.89-.119-1.335-9.324 1.9-19.222 3.072-29.229 3.419.043.445.086.901.13 1.346 10.007-.358 19.905-1.53 29.218-3.441v.011ZM344.831 290.075l-.098-1.314c-15.954 7.023-36.511 11.538-57.708 12.254l.13 1.357c21.197-.727 41.743-5.253 57.676-12.287v-.01Z" fill="#6A6AE8"/><path d="M334.868 289.858c-.033-.445-.066-.88-.109-1.325-14.11 4.819-30.748 7.815-47.734 8.401.043.445.086.901.13 1.346 16.986-.597 33.614-3.593 47.713-8.422ZM328.692 299.962c-.033-.445-.076-.879-.109-1.324a150.75 150.75 0 0 1-8.129 2.117c.033.445.076.89.119 1.324a161.822 161.822 0 0 0 8.13-2.117h-.011ZM316.373 330.96c-.044-.445-.076-.89-.119-1.335-9.324 1.9-19.222 3.072-29.229 3.419.043.445.086.901.13 1.346 10.007-.358 19.905-1.53 29.218-3.441v.011ZM344.831 318.033l-.098-1.313c-15.954 7.023-36.511 11.538-57.708 12.254l.13 1.357c21.197-.727 41.743-5.253 57.676-12.287v-.011Z" fill="#6A6AE8"/><path d="M334.868 317.817c-.033-.445-.066-.88-.109-1.325-14.121 4.819-30.748 7.815-47.734 8.401.043.445.086.901.13 1.346 16.986-.597 33.614-3.593 47.713-8.422ZM329.072 327.813c-.033-.445-.076-.879-.109-1.324-2.637.77-5.351 1.486-8.118 2.138.043.445.076.879.119 1.324 2.768-.651 5.47-1.368 8.108-2.138ZM316.373 318.869c-.044-.445-.076-.89-.119-1.335-9.324 1.9-19.222 3.072-29.229 3.419.043.445.086.901.13 1.346 10.007-.358 19.905-1.53 29.218-3.441v.011ZM328.692 315.83c-.033-.445-.076-.879-.109-1.324a150.75 150.75 0 0 1-8.129 2.117c.033.445.076.89.119 1.324a161.822 161.822 0 0 0 8.13-2.117h-.011Z" fill="#6A6AE8"/><path d="M316.373 290.91c-.044-.445-.076-.89-.119-1.335-9.324 1.9-19.222 3.072-29.229 3.419.043.445.086.901.13 1.346 10.007-.358 19.905-1.53 29.218-3.441v.011Z" fill="#1C0A76"/><path d="M316.644 290.932c-9.486 1.954-19.569 3.158-29.771 3.506-.044-.5-.087-.999-.141-1.498 10.202-.347 20.296-1.531 29.782-3.484.044.488.087.987.13 1.476Zm-29.218 3.343c9.823-.369 19.526-1.52 28.676-3.376-.033-.39-.065-.792-.109-1.183-9.149 1.856-18.864 2.996-28.675 3.365.032.402.076.803.108 1.205v-.011Z" fill="#1C0A76"/><path d="m344.831 277.984-.098-1.314c-15.954 7.023-36.511 11.538-57.708 12.254l.13 1.357c21.197-.727 41.743-5.253 57.676-12.286v-.011Z" fill="#6A6AE8"/><path d="M328.323 287.98c-.033-.445-.076-.879-.109-1.324-2.648.76-5.372 1.465-8.151 2.095.044.445.076.89.12 1.324a159.488 159.488 0 0 0 8.14-2.106v.011Z" fill="#1C0A76"/><path d="M328.583 287.98a154.894 154.894 0 0 1-8.65 2.236l-.13-1.476c2.952-.673 5.85-1.422 8.661-2.225.043.488.076.976.119 1.465Zm-8.14 1.975a145.726 145.726 0 0 0 7.641-1.975l-.098-1.183a142.978 142.978 0 0 1-7.641 1.964l.098 1.183v.011Z" fill="#1C0A76"/><path d="M377.881 284.865c0-.434-.022-.868-.033-1.303-4.439 6.958-12.46 14.436-23.78 20.698.021.435.054.869.086 1.314 11.31-6.274 19.309-13.752 23.737-20.709h-.01Z" fill="#6A6AE8"/><path d="M370.641 289.64c-.021-.434-.032-.868-.054-1.302-4.32 4.179-9.866 8.292-16.53 11.982.022.434.054.869.087 1.314 6.653-3.701 12.188-7.815 16.497-11.994ZM380.562 271.851c0-.434-.011-.868-.022-1.302-3.452 8.183-12.33 17.898-26.483 25.701.022.434.054.869.087 1.314 14.131-7.804 22.977-17.529 26.418-25.702v-.011Z" fill="#6A6AE8"/><path d="m377.881 272.774-.033-1.303c-4.439 6.958-12.46 14.436-23.78 20.698.032.434.054.869.086 1.314 11.31-6.274 19.309-13.752 23.737-20.709h-.01Z" fill="#FF5EA6"/><path d="M375.905 283.747c-.011-.434-.021-.869-.043-1.303a47.92 47.92 0 0 1-3.235 3.81c.022.434.033.868.055 1.302a52.133 52.133 0 0 0 3.223-3.809ZM370.641 277.56c-.021-.434-.032-.868-.054-1.302-4.32 4.178-9.866 8.292-16.53 11.982.032.434.054.879.087 1.314 6.653-3.702 12.188-7.815 16.497-11.994ZM380.562 259.771c0-.434-.011-.868-.022-1.302-3.452 8.183-12.33 17.908-26.483 25.701.032.434.054.868.087 1.313 14.131-7.803 22.988-17.528 26.418-25.701v-.011Z" fill="#6A6AE8"/><path d="m377.881 260.683-.033-1.303c-4.439 6.958-12.46 14.436-23.78 20.698.021.434.054.869.086 1.314 11.31-6.274 19.309-13.752 23.737-20.709h-.01ZM375.764 271.841a56.502 56.502 0 0 0-.043-1.303 53.054 53.054 0 0 1-3.256 3.81c.021.434.032.868.054 1.302a50.154 50.154 0 0 0 3.245-3.809ZM377.881 313.594c0-.434-.022-.868-.033-1.302-4.439 6.957-12.46 14.435-23.78 20.698.021.434.054.868.086 1.313 11.31-6.273 19.309-13.751 23.737-20.709h-.01Z" fill="#6A6AE8"/><path d="M370.641 318.37c-.021-.434-.032-.868-.054-1.302-4.32 4.178-9.866 8.292-16.53 11.982.022.434.054.868.087 1.313 6.653-3.701 12.188-7.814 16.497-11.993ZM380.562 300.581c0-.434-.011-.869-.022-1.303-3.452 8.173-12.33 17.898-26.483 25.702.022.434.054.868.087 1.313 14.131-7.804 22.977-17.529 26.418-25.701v-.011Z" fill="#6A6AE8"/><path d="m377.881 301.503-.033-1.302c-4.439 6.957-12.46 14.435-23.78 20.698.032.434.054.868.086 1.313 11.31-6.273 19.309-13.751 23.737-20.709h-.01Z" fill="#FF5EA6"/><path d="M375.905 312.476c-.011-.434-.021-.868-.043-1.302a47.92 47.92 0 0 1-3.235 3.81c.022.434.033.868.055 1.302a52.143 52.143 0 0 0 3.223-3.81ZM370.641 305.498c-.021-.435-.032-.869-.054-1.303-4.32 4.179-9.866 8.292-16.53 11.983.032.434.054.868.087 1.313 6.653-3.701 12.188-7.815 16.497-11.993ZM380.562 287.708c0-.434-.011-.868-.022-1.302-3.452 8.184-12.33 17.909-26.483 25.701.032.435.054.869.087 1.314 14.131-7.804 22.988-17.529 26.418-25.702v-.011Z" fill="#6A6AE8"/><path d="m377.881 288.631-.033-1.302c-4.439 6.957-12.46 14.435-23.78 20.697.021.435.054.869.086 1.314 11.31-6.274 19.309-13.752 23.737-20.709h-.01ZM375.764 299.778c-.011-.434-.022-.869-.043-1.303a50.761 50.761 0 0 1-3.256 3.81c.021.434.032.868.054 1.302a49.96 49.96 0 0 0 3.245-3.809ZM370.641 265.469c-.021-.434-.032-.868-.054-1.302-4.32 4.179-9.866 8.292-16.53 11.982.022.435.054.869.087 1.314 6.653-3.701 12.188-7.815 16.497-11.994Z" fill="#6A6AE8"/><path d="M380.562 247.68c0-.434-.011-.868-.022-1.302-3.452 8.183-12.33 17.908-26.483 25.701.032.434.054.868.087 1.313 14.131-7.803 22.988-17.528 26.418-25.701v-.011Z" fill="#FF5EA6"/><path d="M375.634 259.934c-.011-.434-.033-.868-.044-1.302a51.354 51.354 0 0 1-3.288 3.809c.021.434.032.869.054 1.303a50.833 50.833 0 0 0 3.278-3.81Z" fill="#6A6AE8"/></g><defs><linearGradient id="paint0_linear_60_25910" x1="125.978" y1="470.278" x2="378.022" y2="33.722" gradientUnits="userSpaceOnUse"><stop stop-color="#6A5FFF"/><stop offset="1" stop-color="#FF5EA6"/></linearGradient><linearGradient id="paint1_linear_60_25910" x1="48.69" y1="268.172" x2="448.364" y2="268.172" gradientUnits="userSpaceOnUse"><stop stop-color="#fff"/><stop offset="1" stop-color="#D3DBEB"/></linearGradient><linearGradient id="paint2_linear_60_25910" x1="335.454" y1="135.931" x2="415.89" y2="135.931" gradientUnits="userSpaceOnUse"><stop stop-color="#fff"/><stop offset="1" stop-color="#D3DBEB"/></linearGradient><clipPath id="clip0_60_25910"><path fill="#fff" d="M0 0h504v504H0z"/></clipPath></defs></svg>