<svg width="504" height="504" viewBox="0 0 504 504" fill="none" xmlns="http://www.w3.org/2000/svg">
<g clip-path="url('#clip0_60_25910')">
<path opacity="0.25" d="M252 504C391.176 504 504 391.176 504 252C504 112.824 391.176 0 252 0C112.824 0 0 112.824 0 252C0 391.176 112.824 504 252 504Z" fill="url('#paint0_linear_60_25910')"></path>
<path d="M226.635 87.6648C280.773 98.3339 308.406 159.646 395.583 214.197C482.759 268.758 463.57 481.793 325.881 447.04C194.53 413.893 188.452 416.509 102.426 419.569C-5.24232 423.412 55.321 53.9208 226.635 87.6648Z" fill="url('#paint1_linear_60_25910')"></path>
<path d="M373.452 177.544C348.044 157.324 326.89 122.038 338.916 88.0447C350.953 54.0511 375.786 117.328 395.778 138.406C424.703 168.904 426.624 219.851 373.452 177.544Z" fill="url('#paint2_linear_60_25910')"></path>
<path d="M312.227 221.621H279.937V203.951H312.227V221.621ZM281.75 219.808H310.414V205.763H281.75V219.808Z" fill="#C8D3FB"></path>
<path d="M290.085 237.478H257.796V219.808H290.085V237.478ZM259.608 235.665H288.262V221.621H259.608V235.665Z" fill="#C8D3FB"></path>
<path d="M150.746 406.274H118.457V388.604H150.746V406.274ZM120.269 404.461H148.934V390.417H120.269V404.461Z" fill="#C8D3FB"></path>
<path d="M272.025 162.805H239.735V145.135H272.025V162.805ZM241.548 160.992H270.202V146.948H241.548V160.992Z" fill="#C8D3FB"></path>
<path d="M241.526 162.805H209.237V145.135H241.526V162.805ZM211.049 160.992H239.714V146.948H211.049V160.992Z" fill="#C8D3FB"></path>
<path d="M256.797 178.662H224.508V160.992H256.797V178.662ZM226.32 176.849H254.985V162.805H226.32V176.849Z" fill="#C8D3FB"></path>
<path d="M394.367 245.097H362.078V227.427H394.367V245.097ZM363.89 243.284H392.555V229.24H363.89V243.284Z" fill="#C8D3FB"></path>
<path d="M416.509 260.954H384.219V243.284H416.509V260.954ZM386.032 259.142H414.685V245.097H386.032V259.142Z" fill="#C8D3FB"></path>
<path d="M210.821 274.619H178.532V256.949H210.821V274.619ZM180.344 272.806H208.998V258.762H180.344V272.806Z" fill="#C8D3FB"></path>
<path d="M180.312 274.619H148.022V256.949H180.312V274.619ZM149.835 272.806H178.488V258.762H149.835V272.806Z" fill="#C8D3FB"></path>
<path d="M195.583 290.476H163.293V272.806H195.583V290.476ZM165.106 288.664H193.759V274.619H165.106V288.664Z" fill="#C8D3FB"></path>
<path d="M133.391 323.992C136.311 323.992 138.981 322.983 141.314 321.376C141.401 326.261 141.097 331.145 140.142 335.931C137.027 340.946 128.388 350.182 128.974 350.128C131.383 349.932 133.663 349.292 135.909 348.511C134.433 351.55 132.675 354.458 130.624 357.15C126.434 362.74 120.465 367.211 118.196 374.027C118.153 374.19 118.044 374.288 117.936 374.321C117.892 374.7 117.458 375.004 117.122 374.679C105.845 363.977 103.837 347.718 102.176 333.055C102.1 332.36 102.024 331.677 101.959 330.982C105.085 334.108 108.406 336.962 112.346 339.09C112.889 339.383 105.291 327.216 101.568 321.615C101.699 318.099 102.241 314.604 103.511 311.207C106.149 304.141 110.675 297.531 115.059 291.442C115.233 291.192 115.439 290.954 115.613 290.704C116.807 293.852 118.392 296.815 120.465 299.495C120.823 299.962 119.661 290.595 118.956 286.319C120.063 284.952 121.159 283.584 122.31 282.26C123.818 280.491 125.663 277.484 128.366 277.886C130.982 278.255 136.951 288.978 137.711 292.05C138.037 293.363 138.33 294.698 138.601 296.044C138.731 296.619 138.84 297.205 138.937 297.791C139.925 303.175 140.511 308.699 140.945 314.115C140.761 314.408 140.576 314.691 140.359 314.973C138.167 317.947 132.87 324.003 133.402 324.003L133.391 323.992Z" fill="#6A6AE8"></path>
<path d="M123.113 318.598C128.67 317.762 132.925 314.246 137.006 310.621C137.613 310.078 136.854 309.058 136.246 309.6C132.414 312.997 128.431 316.395 123.243 317.274C124.426 308.992 125.805 300.744 127.433 292.527C127.595 291.724 126.336 291.529 126.174 292.332C124.025 303.218 122.277 314.17 120.899 325.164C117.686 320.606 115.244 315.689 113.54 310.371C113.29 309.589 112.107 310.067 112.357 310.848C114.169 316.471 116.807 321.68 120.258 326.478C120.389 326.651 120.551 326.727 120.725 326.727C120.432 329.137 120.161 331.546 119.911 333.945C117.588 331.047 115.754 327.889 114.452 324.383C114.169 323.612 112.986 324.09 113.269 324.861C114.723 328.757 116.796 332.295 119.477 335.465C119.553 335.562 119.651 335.616 119.737 335.649C118.923 343.583 118.305 351.528 117.881 359.484C117.838 359.56 117.816 359.646 117.805 359.755C117.632 362.675 117.534 365.583 117.502 368.492C117.436 370.392 117.382 372.291 117.35 374.19C117.35 374.397 117.415 374.527 117.534 374.624C117.86 392.566 120.519 410.311 124.296 427.872C124.708 427.775 125.121 427.677 125.533 427.579C121.268 407.739 118.435 387.649 118.804 367.32C118.88 365.171 118.967 363.033 119.075 360.884C119.249 360.949 119.444 360.949 119.64 360.808C121.962 359.212 123.927 357.204 125.468 354.849C125.913 354.165 124.915 353.362 124.47 354.057C123.048 356.249 121.257 358.094 119.14 359.592C119.846 345.884 121.17 332.208 123.069 318.609C123.091 318.609 123.102 318.609 123.124 318.609L123.113 318.598Z" fill="#312890"></path>
<path d="M78.906 355.468C76.4205 356.434 73.8591 356.542 71.4062 356.108C72.752 359.809 74.4343 363.38 76.6376 366.658C80.7403 369.404 90.7691 373.506 90.259 373.658C88.1533 374.31 86.026 374.57 83.8987 374.722C86.0369 376.524 88.3813 378.119 90.8993 379.476C96.0874 382.298 102.458 383.687 106.366 388.072C106.453 388.181 106.572 388.224 106.67 388.213C106.822 388.485 107.267 388.571 107.473 388.213C113.942 376.47 110.935 363.586 108.081 352.027C107.95 351.484 107.809 350.942 107.668 350.399C105.921 353.775 103.924 357.009 101.189 359.907C100.809 360.308 103.739 348.662 105.27 343.236C104.141 340.642 102.665 338.189 100.592 336.051C96.2936 331.611 90.5303 328.127 85.0275 325.002C84.7996 324.871 84.5608 324.763 84.3437 324.622C84.246 327.378 83.7576 330.124 82.7699 332.816C82.5963 333.294 80.8597 325.87 80.2302 322.418C78.8952 321.756 77.5602 321.083 76.2035 320.476C74.4126 319.64 71.9597 317.99 69.7781 319.173C67.6617 320.313 65.708 330.331 65.9576 332.892C66.0553 333.988 66.1964 335.085 66.3592 336.181C66.4135 336.658 66.5003 337.136 66.5763 337.603C67.2926 341.977 68.4106 346.318 69.6153 350.529C69.8541 350.681 70.1037 350.844 70.3642 350.985C73.0885 352.505 79.3619 355.305 78.906 355.479V355.468Z" fill="#6A6AE8"></path>
<path d="M116.818 430.51C114.929 416.074 112.031 401.867 107.093 388.278C107.158 388.181 107.191 388.05 107.126 387.898C106.54 386.487 105.943 385.076 105.335 383.665C104.456 381.495 103.533 379.335 102.535 377.208C102.502 377.132 102.448 377.066 102.393 377.023C99.7234 371.184 96.8906 365.41 93.895 359.722C93.9601 359.668 94.0253 359.592 94.0687 359.494C95.4362 356.227 96.1634 352.895 96.272 349.487C96.2937 348.814 95.1432 348.847 95.1323 349.52C95.0455 352.581 94.4051 355.555 93.2655 358.496C92.343 356.77 91.4204 355.044 90.4761 353.34C90.6172 353.286 90.7366 353.178 90.7909 353.004C92.3321 348.272 93.0593 343.485 92.9616 338.666C92.9508 338.004 91.8003 338.026 91.822 338.699C91.9197 343.257 91.2684 347.751 89.8575 352.233C85.4943 344.419 80.8272 336.767 75.8346 329.3C75.4655 328.746 74.4561 329.3 74.8252 329.864C78.5914 335.497 82.1622 341.249 85.5703 347.078C80.9032 348.12 76.5292 346.882 72.2854 345.58C71.6016 345.374 71.2543 346.394 71.9381 346.6C76.4641 347.979 81.0986 349.227 86.0695 348.022C86.0913 348.022 86.1021 348.011 86.113 348C91.6809 357.584 96.7712 367.428 101.362 377.501C99.1156 377.066 97.0643 376.274 95.2192 375.091C94.6331 374.722 94.0253 375.645 94.6005 376.014C96.5976 377.284 98.8443 378.152 101.286 378.575C101.493 378.608 101.655 378.553 101.786 378.445C102.502 380.019 103.197 381.603 103.88 383.188C110.11 398.35 113.529 414.37 115.678 430.683C116.058 430.618 116.438 430.553 116.818 430.499V430.51Z" fill="#312890"></path>
<path d="M76.2795 340.034C72.6544 339.307 69.3223 338.015 66.3701 336.159C66.4244 336.637 66.5112 337.114 66.5872 337.581C69.4091 339.209 72.5458 340.37 75.9213 341.043C76.6377 341.174 76.985 340.164 76.2795 340.023V340.034Z" fill="#84AFE6"></path>
<path d="M183.796 349.585C183.73 354.176 173.116 356.39 169.751 357.639C162.294 360.395 155.023 363.185 149.509 369.176C143.008 376.253 137.407 384.404 131.807 392.197C131.448 392.696 130.949 392.837 130.482 392.761C130.396 392.761 129.766 391.437 128.941 389.407C127.009 384.642 124.046 375.927 124.784 370.967C125.294 367.472 126.499 364.151 128.16 361.068C128.54 362.631 129.18 364.129 130.287 365.258C130.558 365.529 131.134 358.995 131.514 356.032C132.002 355.435 132.501 354.849 133.022 354.285C134.216 352.982 135.529 351.778 136.94 350.671C137.233 350.432 137.537 350.193 137.841 349.976C138.981 349.129 140.175 348.337 141.412 347.61C141.738 347.414 142.074 347.23 142.411 347.035C143.561 346.394 144.755 345.797 145.981 345.265C146.361 347.523 146.937 349.694 147.946 351.799C148.152 352.233 148.651 346.633 148.727 344.158C149.878 343.724 151.05 343.366 152.244 343.019C152.58 344.473 153.025 345.895 153.709 347.241C153.872 347.566 155.446 343.778 156.021 342.107C159.82 341.347 163.662 341.033 167.385 341.217C167.71 341.228 168.036 341.239 168.351 341.271C169.371 341.347 170.38 341.456 171.368 341.608C175.026 342.172 183.633 344.495 183.806 349.433C183.806 349.477 183.806 349.531 183.806 349.574L183.796 349.585Z" fill="#6A6AE8"></path>
<path d="M142.986 361.644C133.977 370.533 131.177 386.878 130.602 391.513C129.723 393.369 129.072 395.355 128.746 397.547C127.671 404.884 127.986 412.612 128.171 420.004C128.236 422.435 128.334 424.866 128.464 427.286C128.876 427.21 129.3 427.134 129.712 427.058C129.636 425.528 129.56 423.998 129.506 422.467C129.278 415.857 129.289 409.226 129.593 402.616C129.745 399.197 130.07 395.767 131.394 392.598C131.535 392.511 131.676 392.392 131.796 392.229C137.407 384.436 143.008 376.274 149.498 369.209C155.012 363.206 162.295 360.428 169.74 357.671C173.105 356.423 183.72 354.209 183.785 349.618C169.653 351.267 153.351 351.43 142.975 361.665L142.986 361.644Z" fill="#312890"></path>
<path d="M142.595 357.28C141.933 353.861 141.868 350.453 142.4 347.045C142.052 347.241 141.727 347.425 141.401 347.621C140.945 350.909 141.043 354.187 141.683 357.487C141.803 358.073 142.704 357.866 142.595 357.28Z" fill="#312890"></path>
<path d="M139.155 359.104C138.351 356.097 137.917 353.08 137.841 349.987C137.537 350.204 137.233 350.443 136.94 350.681C137.049 353.601 137.494 356.477 138.243 359.321C138.395 359.896 139.307 359.69 139.155 359.104Z" fill="#312890"></path>
<path d="M154.23 420.373C154.23 422.749 153.981 425.072 153.503 427.308C151.766 435.437 147.056 442.449 140.555 447.17H101.742C95.2407 442.449 90.5302 435.437 88.7936 427.308C88.316 425.072 88.0664 422.749 88.0664 420.373C88.0664 417.996 88.3378 415.478 88.8587 413.155C89.2929 411.179 89.9115 409.269 90.6821 407.446H151.615C152.396 409.269 153.004 411.169 153.438 413.155C153.959 415.478 154.23 417.887 154.23 420.373Z" fill="#C8D3FB"></path>
<path d="M154.23 420.373C154.23 422.75 153.981 425.072 153.503 427.308C151.767 435.438 147.056 442.449 140.555 447.17H101.742C152.45 449.688 151.615 407.457 151.615 407.457C152.396 409.28 153.004 411.18 153.438 413.166C153.959 415.488 154.23 417.898 154.23 420.383V420.373Z" fill="#BFCBF1"></path>
<path d="M211.462 121.919C211.462 121.919 123.178 126.434 126.879 165.909V247.127C126.879 247.127 128.268 211.027 211.462 205.394V121.919Z" fill="#DB5A9B"></path>
<path opacity="0.5" d="M132.675 176.86L129.81 175.102C130.309 173.875 142.823 145.157 204.667 141.955L204.808 145.873C144.82 148.966 132.794 176.578 132.675 176.86Z" fill="white"></path>
<path opacity="0.5" d="M182.016 162.87L181.462 159.017C188.56 157.486 196.375 156.499 204.667 156.064L204.808 159.983C196.646 160.406 188.984 161.372 182.016 162.87Z" fill="white"></path>
<g opacity="0.5">
<path d="M135.974 194.421L132.925 193.206C133.174 192.272 139.393 170.337 175.449 160.482L176.144 164.302C142.052 173.615 136.029 194.215 135.964 194.421H135.974Z" fill="white"></path>
</g>
<path opacity="0.5" d="M173.452 181.864L172.66 178.065C182.005 175.178 192.772 173.409 204.667 172.79L204.808 176.697C193.13 177.305 182.58 179.042 173.452 181.853V181.864Z" fill="white"></path>
<path opacity="0.5" d="M136.788 211.386L133.706 210.289C133.858 209.638 137.787 194.139 159.766 183.188L160.981 186.813C140.414 197.07 136.821 211.255 136.788 211.396V211.386Z" fill="white"></path>
<path opacity="0.5" d="M183.351 193.629L182.819 189.765C189.537 188.387 196.885 187.486 204.678 187.073L204.819 190.992C197.167 191.382 189.939 192.272 183.362 193.629H183.351Z" fill="white"></path>
<path opacity="0.5" d="M136.788 225.68L133.706 224.573C133.934 223.639 139.61 201.498 175.427 191.545L176.144 195.366C142.356 204.743 136.843 225.474 136.788 225.68Z" fill="white"></path>
<path d="M126.76 161.394C126.76 161.394 129.875 177.75 145.591 182.548V267.998C145.591 267.998 133.12 263.765 126.76 247.127V161.394Z" fill="#FF5EA6"></path>
<g opacity="0.5">
<path d="M349.911 256.124C349.911 256.124 432.409 259.76 428.947 291.605V357.107C428.947 357.107 427.656 327.997 349.911 323.449V256.124Z" fill="#FF5EA6"></path>
</g>
<g opacity="0.5">
<path d="M429.056 287.969C429.056 287.969 426.147 301.156 411.462 305.031V373.941C411.462 373.941 423.119 370.533 429.056 357.107V287.969Z" fill="#FF5EA6"></path>
</g>
<g opacity="0.5">
<path d="M408.987 324.22C394.921 314.56 373.778 309.144 356.749 310.154C356.781 294.611 356.803 287.849 356.835 272.296C373.745 271.005 395.138 275.389 409.063 285.386C409.031 300.917 409.02 308.688 408.987 324.209V324.22Z" fill="#6A5FFF"></path>
<path d="M406.61 319.51C388.647 308.83 378.119 307.364 359.343 306.974C359.375 294.177 359.386 288.327 359.419 275.52C378.271 275.52 388.93 276.779 406.697 287.22C406.664 300.136 406.643 306.594 406.61 319.52V319.51Z" fill="white"></path>
<path d="M402.464 312.802C386.574 304.434 378.955 303.468 363.532 302.795C363.565 293.548 363.575 289.119 363.608 279.872C379.118 280.133 386.748 280.773 402.562 289.271C402.529 298.681 402.507 303.392 402.475 312.802H402.464Z" fill="#D5DDFB"></path>
<path d="M363.532 302.784C365.974 298.616 367.201 296.565 369.664 292.495C369.903 292.104 370.402 292.158 370.63 292.592C371.965 295.262 372.627 296.619 373.973 299.343C375.059 298.095 375.601 297.477 376.687 296.261C376.958 295.957 377.425 296.109 377.609 296.554C378.977 299.81 379.66 301.46 381.017 304.814C374.017 303.251 370.5 303.077 363.532 302.773V302.784Z" fill="#6A5FFF"></path>
<path d="M375.417 286.113C375.417 287.383 374.538 288.305 373.485 288.186C372.432 288.067 371.575 286.96 371.586 285.69C371.586 284.42 372.454 283.454 373.507 283.573C374.559 283.693 375.428 284.843 375.417 286.124V286.113Z" fill="white"></path>
<path d="M388.246 288.436C387.844 288.175 387.681 287.643 387.302 287.318C386.965 287.035 386.596 286.916 386.249 286.97C386.064 287.003 385.967 287.057 385.782 287.144C385.413 287.339 385.489 287.372 385.066 287.339C384.729 287.318 384.512 287.318 384.187 287.361C383.59 287.448 381.875 286.873 381.571 287.708C381.3 288.457 382.244 288.501 382.559 288.598C383.101 288.772 383.535 289.271 384.078 289.423C384.566 289.553 385.044 289.434 385.489 289.304C385.934 289.423 386.379 289.543 386.824 289.662C387.551 289.847 388.398 290.172 389.103 290.226C389.299 290.237 389.516 290.27 389.613 290.053C390.004 289.141 388.571 288.642 388.235 288.425L388.246 288.436Z" fill="white"></path>
<path d="M394.834 292.441C394.66 292.289 394.487 292.234 394.313 292.191C394.161 292.158 393.977 292.223 393.825 292.18C393.629 292.115 393.456 291.92 393.271 291.811C392.804 291.54 392.381 291.54 391.958 291.616C391.73 291.464 391.491 291.377 391.296 291.55C391.09 291.735 391.068 292.104 391.263 292.441C391.535 292.907 392.131 293.146 392.501 293.331C393.152 293.645 393.922 293.873 394.563 293.884C395.16 293.884 395.637 293.146 394.823 292.441H394.834Z" fill="white"></path>
<path d="M385.543 305.986C387.084 303.088 387.855 301.655 389.375 298.801C389.505 298.551 389.841 298.649 389.982 298.985C391.111 301.677 391.665 303.034 392.793 305.78C393.282 305.02 393.521 304.651 394.02 303.902C394.172 303.674 394.53 303.848 394.649 304.206C395.409 306.485 395.789 307.625 396.56 309.937C397.884 306.887 398.568 305.389 399.903 302.415C400.033 302.122 400.478 302.361 400.586 302.784C401.346 305.747 401.726 307.234 402.486 310.208C402.486 311.239 402.486 311.76 402.486 312.802C395.626 309.188 392.24 307.896 385.565 305.986H385.543Z" fill="#6A5FFF"></path>
</g>
<path d="M196.701 213.231C196.679 212.786 196.646 212.341 196.625 211.906C190.189 216.487 184.035 221.664 178.25 227.427C178.271 227.861 178.293 228.306 178.325 228.74C184.11 222.977 190.265 217.811 196.712 213.231H196.701Z" fill="#6A6AE8"></path>
<path d="M219.222 195.963C219.189 195.518 219.168 195.062 219.135 194.617C204.342 201.53 190.471 211.071 178.25 223.259C178.271 223.694 178.293 224.139 178.325 224.573C190.558 212.395 204.429 202.855 219.233 195.963H219.222Z" fill="#6A6AE8"></path>
<path d="M210.561 196.19C210.528 195.745 210.506 195.3 210.474 194.855C198.915 201.237 188.05 209.313 178.239 219.103C178.26 219.537 178.282 219.982 178.314 220.416C188.137 210.648 199.002 202.572 210.561 196.201V196.19Z" fill="#1C0A76"></path>
<path d="M210.756 196.158C199.067 202.583 188.072 210.745 178.152 220.644C178.13 220.155 178.098 219.678 178.076 219.189C187.985 209.28 198.969 201.107 210.669 194.671C210.702 195.17 210.735 195.659 210.767 196.158H210.756ZM178.478 220.177C188.192 210.528 198.937 202.551 210.366 196.234C210.344 195.832 210.311 195.442 210.29 195.04C198.872 201.368 188.126 209.356 178.412 219.005C178.434 219.396 178.456 219.786 178.478 220.177Z" fill="#1C0A76"></path>
<path d="M205.959 207.174C205.926 206.729 205.904 206.284 205.872 205.839C203.842 207.066 201.834 208.336 199.848 209.671C199.87 210.116 199.902 210.561 199.924 210.995C201.91 209.671 203.918 208.39 205.948 207.164L205.959 207.174Z" fill="#6A6AE8"></path>
<path d="M219.222 183.611C219.189 183.166 219.168 182.721 219.135 182.265C204.342 189.168 190.471 198.72 178.25 210.908C178.271 211.342 178.293 211.787 178.325 212.221C190.558 200.044 204.429 190.503 219.233 183.6L219.222 183.611Z" fill="#6A6AE8"></path>
<path d="M210.561 183.85C210.528 183.405 210.506 182.96 210.474 182.515C198.926 188.897 188.05 196.972 178.239 206.751C178.26 207.185 178.282 207.63 178.314 208.064C188.126 198.296 199.002 190.221 210.561 183.85Z" fill="#6A6AE8"></path>
<path d="M205.666 195.007C205.633 194.562 205.611 194.117 205.579 193.672C203.549 194.899 201.541 196.18 199.566 197.515C199.598 197.96 199.62 198.405 199.653 198.839C201.639 197.504 203.636 196.223 205.677 194.997L205.666 195.007Z" fill="#6A6AE8"></path>
<path d="M196.701 188.549C196.679 188.104 196.646 187.659 196.625 187.225C190.189 191.806 184.035 196.983 178.25 202.746C178.271 203.18 178.293 203.625 178.325 204.059C184.11 198.296 190.265 193.13 196.712 188.549H196.701Z" fill="#6A6AE8"></path>
<path d="M219.222 171.271C219.189 170.826 219.168 170.37 219.135 169.925C204.342 176.839 190.471 186.379 178.25 198.578C178.271 199.013 178.293 199.458 178.325 199.892C190.558 187.714 204.429 178.174 219.233 171.282L219.222 171.271Z" fill="#6A6AE8"></path>
<path d="M205.384 182.83C205.351 182.385 205.329 181.94 205.297 181.495C203.267 182.732 201.259 184.013 199.284 185.359C199.306 185.804 199.338 186.249 199.371 186.683C201.346 185.348 203.354 184.056 205.384 182.83Z" fill="#6A6AE8"></path>
<path d="M196.701 246.779C196.679 246.334 196.646 245.9 196.625 245.455C190.189 250.035 184.035 255.213 178.25 260.976C178.271 261.41 178.293 261.855 178.325 262.289C184.11 256.526 190.265 251.359 196.712 246.779H196.701Z" fill="#6A6AE8"></path>
<path d="M219.222 229.5C219.189 229.055 219.168 228.61 219.135 228.155C204.342 235.068 190.471 244.609 178.25 256.797C178.271 257.231 178.293 257.676 178.325 258.111C190.558 245.933 204.429 236.392 219.233 229.49L219.222 229.5Z" fill="#6A6AE8"></path>
<path d="M210.561 229.739C210.528 229.294 210.506 228.849 210.474 228.404C198.915 234.786 188.05 242.861 178.239 252.64C178.26 253.074 178.282 253.519 178.314 253.954C188.137 244.185 199.002 236.11 210.561 229.739Z" fill="#6A6AE8"></path>
<path d="M205.959 240.723C205.926 240.278 205.904 239.833 205.872 239.388C203.842 240.614 201.834 241.895 199.848 243.219C199.87 243.664 199.902 244.109 199.924 244.543C201.91 243.208 203.918 241.939 205.948 240.712L205.959 240.723Z" fill="#6A6AE8"></path>
<path d="M196.701 234.428C196.679 233.983 196.646 233.549 196.625 233.104C190.189 237.684 184.035 242.861 178.25 248.624C178.271 249.059 178.293 249.504 178.325 249.938C184.11 244.174 190.265 239.008 196.712 234.428H196.701Z" fill="#6A6AE8"></path>
<path d="M219.222 217.16C219.189 216.715 219.168 216.27 219.135 215.814C204.342 222.728 190.471 232.268 178.25 244.468C178.271 244.902 178.293 245.347 178.325 245.781C190.558 233.603 204.429 224.063 219.233 217.16H219.222Z" fill="#6A6AE8"></path>
<path d="M210.561 217.398C210.528 216.953 210.506 216.508 210.474 216.063C198.926 222.445 188.05 230.521 178.239 240.3C178.26 240.734 178.282 241.179 178.314 241.613C188.126 231.845 199.002 223.77 210.561 217.398Z" fill="#6A6AE8"></path>
<path d="M205.666 228.545C205.633 228.1 205.611 227.655 205.579 227.21C203.549 228.437 201.541 229.717 199.566 231.063C199.598 231.508 199.62 231.953 199.653 232.387C201.639 231.052 203.636 229.772 205.677 228.545H205.666Z" fill="#6A6AE8"></path>
<path d="M196.701 222.087C196.679 221.642 196.646 221.208 196.625 220.763C190.189 225.343 184.035 230.521 178.25 236.284C178.271 236.718 178.293 237.163 178.325 237.597C184.11 231.834 190.265 226.668 196.712 222.087H196.701Z" fill="#6A6AE8"></path>
<path d="M219.222 204.819C219.189 204.374 219.168 203.929 219.135 203.473C204.342 210.387 190.471 219.928 178.25 232.116C178.271 232.55 178.293 232.995 178.325 233.429C190.558 221.252 204.429 211.711 219.233 204.808L219.222 204.819Z" fill="#6A6AE8"></path>
<path d="M205.384 216.378C205.351 215.933 205.329 215.488 205.297 215.043C203.267 216.281 201.259 217.561 199.284 218.907C199.306 219.352 199.338 219.797 199.371 220.231C201.346 218.896 203.354 217.605 205.384 216.378Z" fill="#6A6AE8"></path>
<path d="M266.11 191.317C266.077 190.861 266.045 190.395 266.012 189.939C253.216 191.209 240.56 194.172 228.404 198.85C228.437 199.305 228.469 199.75 228.491 200.195C240.647 195.539 253.303 192.576 266.099 191.317H266.11Z" fill="#6A6AE8"></path>
<path d="M250.437 189.722C250.405 189.266 250.372 188.81 250.34 188.354C242.905 189.928 235.568 192.088 228.404 194.834C228.437 195.279 228.469 195.735 228.491 196.18C235.655 193.434 242.992 191.274 250.437 189.711V189.722Z" fill="#6A6AE8"></path>
<path d="M275.585 182.515L275.487 181.136C259.489 181.679 243.556 184.848 228.415 190.677C228.448 191.122 228.48 191.578 228.502 192.023C243.654 186.216 259.587 183.047 275.585 182.515Z" fill="#1C0A76"></path>
<path d="M275.802 182.591C259.663 183.101 243.578 186.292 228.306 192.175C228.274 191.675 228.241 191.176 228.209 190.677C243.48 184.783 259.554 181.571 275.704 181.061C275.737 181.571 275.769 182.081 275.813 182.591H275.802ZM228.697 191.871C243.719 186.14 259.5 183.003 275.357 182.45C275.324 182.037 275.303 181.625 275.27 181.223C259.413 181.777 243.632 184.924 228.61 190.677C228.632 191.078 228.665 191.48 228.686 191.882L228.697 191.871Z" fill="#1C0A76"></path>
<path d="M266.11 203.777C266.077 203.321 266.045 202.865 266.012 202.399C253.216 203.669 240.56 206.632 228.404 211.31C228.437 211.755 228.469 212.21 228.491 212.655C240.647 207.999 253.303 205.036 266.099 203.777H266.11Z" fill="#6A6AE8"></path>
<path d="M250.437 202.182C250.405 201.726 250.372 201.27 250.34 200.814C242.905 202.388 235.568 204.548 228.404 207.294C228.437 207.739 228.469 208.195 228.491 208.64C235.655 205.894 242.992 203.734 250.437 202.171V202.182Z" fill="#6A6AE8"></path>
<path d="M275.585 194.975L275.487 193.596C259.489 194.139 243.556 197.308 228.415 203.137C228.448 203.582 228.48 204.038 228.502 204.483C243.654 198.676 259.587 195.507 275.585 194.975Z" fill="#6A6AE8"></path>
<path d="M266.11 178.977C266.077 178.521 266.045 178.065 266.012 177.598C253.216 178.868 240.56 181.842 228.415 186.509C228.448 186.954 228.48 187.41 228.502 187.855C240.658 183.199 253.313 180.236 266.11 178.977Z" fill="#6A6AE8"></path>
<path d="M260.976 187.898C260.943 187.442 260.911 186.987 260.878 186.531C258.599 186.835 256.32 187.204 254.051 187.616C254.084 188.072 254.116 188.528 254.149 188.984C256.417 188.571 258.686 188.202 260.976 187.898Z" fill="#6A6AE8"></path>
<path d="M266.11 216.378C266.077 215.923 266.045 215.467 266.012 215C253.216 216.27 240.56 219.233 228.404 223.911C228.437 224.356 228.469 224.812 228.491 225.257C240.647 220.6 253.303 217.637 266.099 216.378H266.11Z" fill="#6A6AE8"></path>
<path d="M250.437 214.783C250.405 214.327 250.372 213.871 250.34 213.415C242.905 214.989 235.568 217.149 228.404 219.895C228.437 220.34 228.469 220.796 228.491 221.241C235.655 218.495 242.992 216.335 250.437 214.772V214.783Z" fill="#6A6AE8"></path>
<path d="M275.585 207.576L275.487 206.198C259.489 206.74 243.556 209.92 228.415 215.738C228.448 216.183 228.48 216.639 228.502 217.084C243.654 211.277 259.587 208.108 275.585 207.576Z" fill="#6A6AE8"></path>
<path d="M250.437 227.243C250.405 226.787 250.372 226.331 250.34 225.875C242.905 227.449 235.568 229.609 228.404 232.355C228.437 232.8 228.469 233.256 228.491 233.701C235.655 230.955 242.992 228.795 250.437 227.232V227.243Z" fill="#6A6AE8"></path>
<path d="M275.585 220.036C275.552 219.58 275.52 219.113 275.487 218.657C259.489 219.189 243.556 222.369 228.415 228.187C228.448 228.643 228.48 229.088 228.502 229.533C243.654 223.726 259.587 220.557 275.585 220.025V220.036Z" fill="#6A6AE8"></path>
<path d="M260.976 212.97C260.943 212.514 260.911 212.059 260.878 211.603C258.599 211.907 256.32 212.276 254.051 212.688C254.084 213.144 254.116 213.6 254.149 214.056C256.417 213.643 258.686 213.274 260.976 212.97Z" fill="#6A6AE8"></path>
<path d="M323.493 222.228C323.46 221.762 323.428 221.284 323.406 220.817C311.033 216.975 298.237 214.837 285.397 214.392C285.429 214.859 285.462 215.315 285.494 215.781C298.334 216.237 311.12 218.386 323.493 222.239V222.228Z" fill="#1C0A76"></path>
<path d="M323.71 222.369C311.207 218.451 298.269 216.281 285.288 215.846C285.256 215.336 285.223 214.826 285.18 214.305C298.161 214.728 311.098 216.899 323.612 220.807C323.645 221.327 323.678 221.848 323.71 222.369ZM285.712 215.705C298.41 216.172 311.044 218.299 323.287 222.087C323.265 221.664 323.233 221.252 323.2 220.828C310.957 217.051 298.313 214.924 285.614 214.468C285.646 214.88 285.668 215.293 285.701 215.705H285.712Z" fill="#1C0A76"></path>
<path d="M308.07 214.327C308.037 213.86 308.005 213.394 307.972 212.927C300.516 211.483 292.962 210.637 285.397 210.376C285.429 210.843 285.462 211.299 285.494 211.765C293.059 212.026 300.614 212.883 308.07 214.338V214.327Z" fill="#6A6AE8"></path>
<path d="M332.556 217.203C332.523 216.737 332.491 216.259 332.469 215.781C317.328 209.953 301.406 206.751 285.397 206.208C285.429 206.675 285.462 207.131 285.494 207.598C301.493 208.162 317.415 211.364 332.556 217.203Z" fill="#6A6AE8"></path>
<path d="M308.07 226.787C308.037 226.32 308.005 225.854 307.972 225.387C300.516 223.943 292.962 223.097 285.397 222.836C285.429 223.303 285.462 223.759 285.494 224.225C293.059 224.497 300.614 225.343 308.07 226.798V226.787Z" fill="#6A6AE8"></path>
<path d="M332.556 229.663C332.523 229.186 332.491 228.719 332.469 228.241C317.328 222.413 301.406 219.211 285.397 218.668C285.429 219.135 285.462 219.591 285.494 220.058C301.493 220.622 317.415 223.824 332.556 229.663Z" fill="#6A6AE8"></path>
<path d="M318.5 216.758C318.468 216.291 318.435 215.825 318.414 215.347C316.178 214.739 313.942 214.186 311.684 213.687C311.717 214.153 311.749 214.62 311.782 215.097C314.04 215.597 316.275 216.15 318.511 216.758H318.5Z" fill="#6A6AE8"></path>
<path d="M250.437 177.381C250.405 176.925 250.372 176.47 250.34 176.014C242.905 177.587 235.568 179.747 228.404 182.493C228.437 182.938 228.469 183.394 228.491 183.839C235.655 181.093 242.992 178.933 250.437 177.37V177.381Z" fill="#6A6AE8"></path>
<path d="M275.574 170.174C275.542 169.718 275.509 169.252 275.477 168.796C259.478 169.328 243.545 172.508 228.404 178.325C228.437 178.781 228.469 179.226 228.491 179.671C243.643 173.865 259.576 170.695 275.574 170.163V170.174Z" fill="#6A6AE8"></path>
<path d="M266.11 166.636C266.077 166.18 266.045 165.724 266.012 165.258C253.216 166.527 240.56 169.49 228.404 174.168C228.437 174.624 228.469 175.069 228.491 175.514C240.647 170.858 253.303 167.895 266.099 166.636H266.11Z" fill="#6A6AE8"></path>
<path d="M260.65 175.601C260.618 175.145 260.585 174.689 260.553 174.234C258.273 174.548 255.994 174.917 253.737 175.341C253.769 175.797 253.802 176.252 253.834 176.708C256.103 176.285 258.371 175.916 260.65 175.612V175.601Z" fill="#6A6AE8"></path>
<path d="M250.437 165.03C250.405 164.574 250.372 164.118 250.34 163.662C242.905 165.236 235.568 167.396 228.404 170.142C228.437 170.587 228.469 171.043 228.491 171.488C235.655 168.742 242.992 166.582 250.437 165.019V165.03Z" fill="#6A6AE8"></path>
<path d="M275.585 157.834L275.487 156.455C259.489 156.998 243.556 160.178 228.415 165.996C228.448 166.441 228.48 166.897 228.502 167.342C243.654 161.535 259.587 158.366 275.585 157.834Z" fill="#6A6AE8"></path>
<path d="M260.336 163.304C260.303 162.848 260.271 162.392 260.238 161.937C257.959 162.251 255.69 162.631 253.422 163.054C253.454 163.51 253.487 163.966 253.52 164.422C255.788 163.999 258.056 163.619 260.336 163.304Z" fill="#6A6AE8"></path>
<path d="M308.07 189.266C308.037 188.799 308.005 188.332 307.972 187.866C300.516 186.422 292.962 185.576 285.397 185.315C285.429 185.782 285.462 186.238 285.494 186.704C293.059 186.976 300.614 187.833 308.07 189.277V189.266Z" fill="#6A6AE8"></path>
<path d="M332.556 192.142C332.523 191.676 332.491 191.198 332.469 190.72C317.328 184.892 301.395 181.69 285.397 181.147C285.429 181.614 285.462 182.07 285.494 182.537C301.493 183.101 317.415 186.303 332.556 192.142Z" fill="#6A6AE8"></path>
<path d="M323.493 184.816C323.46 184.349 323.428 183.872 323.406 183.405C311.033 179.563 298.236 177.424 285.407 176.979C285.44 177.446 285.473 177.902 285.505 178.369C298.345 178.825 311.131 180.974 323.504 184.816H323.493Z" fill="#6A6AE8"></path>
<path d="M318.5 191.697C318.468 191.23 318.435 190.753 318.403 190.286C316.167 189.678 313.931 189.125 311.673 188.636C311.706 189.103 311.738 189.57 311.771 190.037C314.029 190.536 316.264 191.089 318.5 191.697Z" fill="#6A6AE8"></path>
<path d="M308.07 176.925C308.037 176.459 308.005 175.992 307.972 175.525C300.516 174.082 292.962 173.235 285.397 172.975C285.429 173.441 285.462 173.897 285.494 174.364C293.059 174.635 300.614 175.482 308.07 176.936V176.925Z" fill="#6A6AE8"></path>
<path d="M332.556 179.791C332.523 179.313 332.491 178.846 332.469 178.369C317.328 172.54 301.395 169.339 285.397 168.796C285.429 169.263 285.462 169.718 285.494 170.185C301.493 170.75 317.415 173.951 332.556 179.791Z" fill="#6A6AE8"></path>
<path d="M323.493 172.475C323.46 172.009 323.428 171.531 323.406 171.064C311.033 167.222 298.236 165.073 285.407 164.639C285.44 165.106 285.473 165.561 285.505 166.028C298.345 166.484 311.131 168.633 323.504 172.486L323.493 172.475Z" fill="#6A6AE8"></path>
<path d="M318.185 179.27L318.099 177.859C315.863 177.262 313.616 176.708 311.369 176.22C311.402 176.686 311.435 177.153 311.467 177.62C313.725 178.119 315.971 178.662 318.196 179.259L318.185 179.27Z" fill="#6A6AE8"></path>
<path d="M308.07 205.481C308.037 205.015 308.005 204.548 307.972 204.081C300.516 202.638 292.962 201.791 285.397 201.531C285.429 201.997 285.462 202.453 285.494 202.92C293.059 203.18 300.614 204.038 308.07 205.492V205.481Z" fill="#6A6AE8"></path>
<path d="M332.556 208.358C332.523 207.88 332.491 207.413 332.469 206.936C317.328 201.107 301.395 197.905 285.397 197.363C285.429 197.829 285.462 198.285 285.494 198.752C301.493 199.316 317.415 202.518 332.556 208.358Z" fill="#6A6AE8"></path>
<path d="M323.493 201.031C323.46 200.564 323.428 200.087 323.406 199.62C311.033 195.778 298.236 193.64 285.407 193.195C285.44 193.662 285.473 194.117 285.505 194.584C298.345 195.04 311.131 197.189 323.504 201.031H323.493Z" fill="#6A6AE8"></path>
<path d="M318.5 207.912C318.468 207.446 318.435 206.968 318.403 206.501C316.167 205.894 313.931 205.34 311.673 204.841C311.706 205.308 311.738 205.774 311.771 206.252C314.029 206.751 316.264 207.305 318.5 207.912Z" fill="#6A6AE8"></path>
<path d="M308.07 193.141C308.037 192.674 308.005 192.207 307.972 191.741C300.516 190.297 292.962 189.45 285.397 189.19C285.429 189.657 285.462 190.113 285.494 190.579C293.059 190.851 300.614 191.697 308.07 193.152V193.141Z" fill="#6A6AE8"></path>
<path d="M318.185 195.474C318.153 195.007 318.12 194.541 318.099 194.063C315.863 193.466 313.616 192.913 311.369 192.424C311.402 192.891 311.435 193.358 311.467 193.824C313.725 194.313 315.971 194.866 318.196 195.463L318.185 195.474Z" fill="#6A6AE8"></path>
<path d="M308.07 164.585C308.037 164.118 308.005 163.651 307.972 163.185C300.516 161.741 292.962 160.895 285.397 160.634C285.429 161.101 285.462 161.557 285.494 162.023C293.059 162.295 300.614 163.152 308.07 164.596V164.585Z" fill="#1C0A76"></path>
<path d="M308.287 164.693C300.69 163.206 292.994 162.338 285.288 162.078C285.256 161.567 285.212 161.057 285.18 160.536C292.897 160.786 300.581 161.654 308.189 163.141C308.222 163.662 308.255 164.183 308.298 164.693H308.287ZM285.701 161.936C293.125 162.208 300.527 163.044 307.853 164.455C307.831 164.042 307.799 163.619 307.766 163.206C300.451 161.806 293.038 160.971 285.614 160.699C285.646 161.112 285.668 161.524 285.701 161.936Z" fill="#1C0A76"></path>
<path d="M332.556 167.45C332.523 166.983 332.491 166.506 332.469 166.028C317.328 160.2 301.406 157.009 285.397 156.455C285.429 156.922 285.462 157.378 285.494 157.845C301.493 158.409 317.415 161.611 332.556 167.45Z" fill="#6A6AE8"></path>
<path d="M317.871 166.842C317.838 166.376 317.806 165.909 317.784 165.431C315.548 164.834 313.302 164.292 311.044 163.803C311.077 164.27 311.109 164.737 311.142 165.203C313.399 165.692 315.646 166.234 317.882 166.831L317.871 166.842Z" fill="#1C0A76"></path>
<path d="M318.088 166.972C315.711 166.332 313.323 165.757 310.935 165.236C310.903 164.715 310.87 164.205 310.827 163.684C313.225 164.194 315.613 164.769 317.979 165.41C318.012 165.931 318.044 166.452 318.077 166.972H318.088ZM311.348 165.182C313.464 165.648 315.57 166.148 317.664 166.712C317.643 166.3 317.61 165.876 317.578 165.453C315.483 164.899 313.377 164.389 311.261 163.933C311.293 164.346 311.315 164.769 311.348 165.182Z" fill="#1C0A76"></path>
<path d="M375.254 226.06C375.232 225.582 375.2 225.094 375.178 224.605C364.878 215.651 353.612 208.401 341.738 202.844C341.771 203.321 341.792 203.788 341.825 204.266C353.688 209.833 364.954 217.095 375.254 226.049V226.06Z" fill="#6A6AE8"></path>
<path d="M362.11 211.863C362.078 211.386 362.056 210.908 362.024 210.42C355.522 205.959 348.739 202.095 341.738 198.828C341.771 199.305 341.792 199.772 341.825 200.25C348.815 203.528 355.598 207.402 362.099 211.863H362.11Z" fill="#6A6AE8"></path>
<path d="M382.678 224.811C382.656 224.323 382.635 223.845 382.602 223.357C370.381 211.158 356.521 201.585 341.738 194.671C341.771 195.148 341.792 195.626 341.825 196.093C356.608 203.028 370.468 212.601 382.678 224.811Z" fill="#6A6AE8"></path>
<path d="M375.254 213.719C375.232 213.242 375.2 212.753 375.178 212.276C364.878 203.321 353.612 196.071 341.738 190.514C341.771 190.992 341.792 191.469 341.825 191.936C353.688 197.504 364.954 204.765 375.254 213.719Z" fill="#FF5EA6"></path>
<path d="M371.064 218.538C371.043 218.061 371.01 217.572 370.989 217.095C369.1 215.575 367.179 214.11 365.236 212.699C365.258 213.177 365.29 213.665 365.312 214.143C367.255 215.553 369.176 217.019 371.054 218.549L371.064 218.538Z" fill="#6A6AE8"></path>
<path d="M362.11 199.523C362.089 199.045 362.056 198.567 362.024 198.079C355.522 193.629 348.739 189.765 341.738 186.487C341.771 186.965 341.792 187.442 341.825 187.909C348.815 191.187 355.598 195.062 362.099 199.523H362.11Z" fill="#6A6AE8"></path>
<path d="M382.678 212.471C382.656 211.982 382.635 211.505 382.602 211.017C370.381 198.817 356.521 189.255 341.738 182.33C341.771 182.808 341.792 183.285 341.825 183.752C356.608 190.688 370.468 200.261 382.678 212.471Z" fill="#6A6AE8"></path>
<path d="M375.254 201.379C375.232 200.901 375.2 200.413 375.178 199.924C364.878 190.97 353.612 183.72 341.738 178.163C341.771 178.64 341.792 179.107 341.825 179.584C353.688 185.152 364.954 192.413 375.254 201.368V201.379Z" fill="#6A6AE8"></path>
<path d="M370.804 205.981C370.782 205.503 370.75 205.015 370.728 204.537C368.84 203.028 366.918 201.563 364.976 200.152C364.997 200.63 365.03 201.107 365.052 201.596C366.994 203.007 368.915 204.472 370.804 205.981Z" fill="#6A6AE8"></path>
<path d="M375.254 255.397C375.232 254.92 375.2 254.431 375.178 253.943C364.878 244.988 353.612 237.738 341.738 232.181C341.771 232.659 341.792 233.125 341.825 233.603C353.688 239.171 364.954 246.432 375.254 255.386V255.397Z" fill="#6A6AE8"></path>
<path d="M362.11 241.201C362.078 240.723 362.056 240.245 362.024 239.757C355.522 235.296 348.739 231.432 341.738 228.165C341.771 228.643 341.792 229.12 341.825 229.587C348.815 232.865 355.598 236.74 362.099 241.201H362.11Z" fill="#6A6AE8"></path>
<path d="M382.678 254.149C382.656 253.66 382.635 253.183 382.602 252.695C370.381 240.495 356.521 230.933 341.738 224.008C341.771 224.486 341.792 224.963 341.825 225.43C356.608 232.366 370.468 241.939 382.678 254.149Z" fill="#6A6AE8"></path>
<path d="M375.254 243.057C375.232 242.568 375.2 242.091 375.178 241.602C364.878 232.648 353.612 225.398 341.738 219.841C341.771 220.318 341.792 220.796 341.825 221.262C353.688 226.83 364.954 234.091 375.254 243.046V243.057Z" fill="#FF5EA6"></path>
<path d="M371.064 247.876C371.043 247.398 371.01 246.91 370.989 246.432C369.1 244.913 367.179 243.447 365.236 242.036C365.258 242.514 365.29 243.002 365.312 243.48C367.255 244.891 369.176 246.356 371.054 247.886L371.064 247.876Z" fill="#6A6AE8"></path>
<path d="M362.11 228.057C362.089 227.579 362.056 227.102 362.024 226.613C355.522 222.163 348.739 218.288 341.738 215.021C341.771 215.499 341.792 215.977 341.825 216.443C348.815 219.721 355.598 223.596 362.099 228.057H362.11Z" fill="#6A6AE8"></path>
<path d="M382.678 241.005C382.656 240.517 382.635 240.039 382.602 239.551C370.381 227.351 356.521 217.789 341.738 210.865C341.771 211.342 341.792 211.82 341.825 212.287C356.608 219.222 370.468 228.795 382.678 241.005Z" fill="#6A6AE8"></path>
<path d="M375.254 229.913C375.232 229.435 375.2 228.947 375.178 228.458C364.878 219.504 353.612 212.254 341.738 206.697C341.771 207.174 341.792 207.641 341.825 208.119C353.688 213.687 364.954 220.948 375.254 229.902V229.913Z" fill="#6A6AE8"></path>
<path d="M370.804 234.515C370.782 234.037 370.75 233.549 370.728 233.071C368.84 231.563 366.918 230.097 364.976 228.686C364.997 229.164 365.03 229.652 365.052 230.13C366.994 231.541 368.915 233.006 370.804 234.515Z" fill="#6A6AE8"></path>
<path d="M362.11 187.182C362.078 186.704 362.056 186.227 362.024 185.738C355.522 181.278 348.739 177.414 341.738 174.147C341.771 174.624 341.792 175.102 341.825 175.569C348.815 178.846 355.598 182.721 362.099 187.182H362.11Z" fill="#6A6AE8"></path>
<path d="M382.678 200.13C382.656 199.642 382.635 199.164 382.602 198.676C370.381 186.476 356.521 176.914 341.738 169.99C341.771 170.467 341.792 170.945 341.825 171.412C356.608 178.347 370.468 187.92 382.678 200.13Z" fill="#FF5EA6"></path>
<path d="M370.533 193.423C370.511 192.945 370.478 192.457 370.457 191.979C368.568 190.471 366.636 189.016 364.693 187.616C364.715 188.094 364.748 188.582 364.769 189.06C366.723 190.46 368.644 191.914 370.533 193.434V193.423Z" fill="#6A6AE8"></path>
<path d="M315.157 433.017L306.094 431.107L305.574 432.203L297.097 431.487C296.999 431.096 296.923 430.716 296.815 430.315C294.969 422.609 291.833 415.152 287.448 408.293L299.094 394.4L278.819 374.18L269.746 372.269L268.812 382.027L269.398 382.114L264.959 385.858C262.756 384.447 260.477 383.177 258.165 382.048C252.89 379.454 247.387 377.555 241.732 376.307L240.148 358.246L231.085 356.336L230.445 358.257L211.537 358.29L210.007 376.35C201.867 378.163 194.041 381.365 186.813 385.988L181.712 381.712L172.909 374.353L163.836 372.443V372.465C163.532 373.051 159.017 382.428 158.865 382.949C158.81 383.177 160.71 383.752 162.946 384.339L152.689 394.628L164.378 408.488C159.798 415.706 156.596 423.575 154.805 431.715L136.756 433.299L136.778 446.758H174.299C174.472 433.799 179.476 420.883 189.363 410.995C201.02 399.295 216.877 394.346 232.083 396.147C243.176 397.461 253.921 402.366 262.441 410.865C272.394 420.774 277.463 433.744 277.636 446.758H315.157L315.136 433.017H315.157Z" fill="#DB5A9B"></path>
<path d="M306.095 431.118L296.826 430.336L288.034 429.598C286.211 421.469 282.998 413.611 278.396 406.404L290.042 392.511L269.757 372.291L258.176 382.07L255.907 383.98C248.668 379.379 240.821 376.209 232.68 374.418L231.096 356.358L202.486 356.401L200.944 374.462C194.291 375.949 187.822 378.369 181.733 381.734C180.388 382.472 179.063 383.275 177.761 384.1L163.868 372.454V372.476L143.659 392.728L155.337 406.589C150.757 413.806 147.566 421.675 145.775 429.815L127.715 431.4L127.737 446.769H165.268C164.954 433.169 169.968 419.483 180.333 409.096C194.335 395.051 214.392 390.742 232.116 396.158C239.909 398.535 247.235 402.822 253.411 408.966C263.852 419.363 268.91 433.115 268.606 446.769H306.127L306.105 431.118H306.095Z" fill="#FF5EA6"></path>
<path d="M347.284 438.303C339.491 435.73 335.736 423.227 333.923 416.52L325.772 419.667C325.772 419.667 329.81 431.877 329.343 439.681C328.876 447.485 331.09 446.747 331.09 446.747H357.617C357.617 446.747 355.077 440.875 347.273 438.303H347.284Z" fill="#FFD2A7"></path>
<path d="M347.284 438.303C344.929 437.532 342.943 435.839 341.271 433.69C340.186 432.171 334.9 433.842 334.021 436.794C334.021 436.794 331.905 438.346 329.376 438.108C329.376 438.65 329.376 439.182 329.343 439.681C328.876 447.485 331.091 446.747 331.091 446.747H357.617C357.617 446.747 355.077 440.875 347.273 438.303H347.284Z" fill="#1C0A76"></path>
<path d="M228.013 328.106L219.873 331.525C224.898 340.219 226.689 348.511 212.514 348.511C205.98 348.511 204.363 356.347 204.363 356.347H238.248C238.248 356.347 241.624 354.979 236.74 347.056C231.443 338.449 228.013 328.095 228.013 328.095V328.106Z" fill="#FFD2A7"></path>
<path d="M226.19 349.064C224.063 347.089 226.418 343.333 223.422 343.16C222.771 346.383 219.7 348.511 212.525 348.511C205.991 348.511 204.374 356.347 204.374 356.347H238.259C238.259 356.347 241.418 355.066 237.185 347.772C233.636 347.772 229.414 352.038 226.201 349.064H226.19Z" fill="#1C0A76"></path>
<path d="M295.382 246.345C270.658 244.381 207.772 247.68 205.026 248.874C201.791 250.285 194.346 259.402 207.663 266.826C218.788 273.023 296.663 299.137 308.569 267.553C312.943 255.961 302.893 246.942 295.382 246.345Z" fill="#572EFF"></path>
<path d="M309.622 261.443C256.906 282.607 202.269 261.226 198.719 259.891C200.63 262.126 203.517 264.503 207.663 266.815C218.788 273.013 296.663 299.127 308.569 267.542C309.372 265.404 309.687 263.364 309.622 261.432V261.443Z" fill="#1C0A76"></path>
<path d="M320.953 268.345C317.198 255.81 309.459 246.616 306.92 244.196C302.763 240.224 292.137 238.889 288.761 247.43C285.386 255.972 284.355 261.301 287.242 278.092C290.129 294.883 307.299 336.268 308.591 348.728C309.883 361.188 328.269 364.183 325.143 346.144C322.017 328.106 325.295 282.846 320.953 268.345Z" fill="#572EFF"></path>
<path d="M326.206 349.661C325.371 346.242 324.98 343.746 324.415 340.273C321.995 325.468 306.583 337.657 307.115 341.586C307.777 346.524 309.318 349.01 310.653 366.148C311.977 383.286 315.863 392.403 319.379 400.814C322.896 409.226 324.958 420.752 324.958 420.752C332.979 422.5 335.714 419.526 335.714 419.526C335.714 419.526 333.88 401.259 333.001 386.52C332.122 371.781 328.171 357.649 326.217 349.65L326.206 349.661Z" fill="#572EFF"></path>
<path d="M196.299 254.399C193.445 259.261 220.872 338.189 220.872 338.189C229.023 339.09 232.898 335.106 232.898 335.106C232.898 335.106 226.581 311.489 226.223 296.728C224.605 230.966 198.318 250.98 196.31 254.399H196.299Z" fill="#572EFF"></path>
<path d="M266.468 205.308C264.319 203.311 238.78 178.651 236.816 174.331C234.504 169.252 240.799 165.844 246.649 168.698C252.25 171.444 272.22 187.638 276.377 195.344C280.849 203.636 271.113 209.617 266.479 205.308H266.468Z" fill="#FFD2A7"></path>
<path d="M294.394 145.005C289.64 145.309 286.037 149.411 286.341 154.165C286.645 158.919 290.747 162.523 295.501 162.219C300.255 161.915 303.859 157.812 303.555 153.058C303.251 148.304 299.148 144.701 294.394 145.005Z" fill="#1C0A76"></path>
<path d="M306.149 189.472C304.651 180.551 309.796 174.766 304.553 164.802C299.311 154.838 294.058 154.013 289.011 152.743C276.204 149.52 263.624 165.8 268.986 176.719C273.946 186.813 269.637 195.04 265.806 203.712C261.974 212.373 261.345 239.334 284.756 240.723C308.168 242.112 313.095 231.932 314.821 217.648C316.894 200.543 307.647 198.405 306.149 189.483V189.472Z" fill="#1C0A76"></path>
<path d="M254.095 172.747C254.095 172.747 247.626 174.961 241.266 180.822L270.744 210.691L276.551 203.354C276.551 203.354 279.981 199.045 275.129 192.598C270.277 186.151 257.003 176.144 254.105 172.747H254.095Z" fill="#FF5EA6"></path>
<path d="M303.338 228.437C303.522 224.768 304.618 221.338 307.126 208.596C308.103 203.625 309.383 199.718 308.027 197.601C306.301 194.942 301.395 194.801 297.911 195.029C291.627 195.431 293.678 180.084 293.678 180.084C292.517 176.99 282.108 178.206 283.237 188.289C284.366 198.372 274.098 194.345 271.84 196.375C268.747 199.154 269.366 204.754 268.899 207.782C268.432 210.81 264.232 214.631 265.187 220.079C266.142 225.528 271.319 225.007 271.319 225.007C273.317 227.015 275.281 230.781 275.639 233.505C276.464 239.855 273.718 246.41 273.718 246.41C292.679 253.313 307.907 245.206 307.907 245.206C307.907 245.206 302.784 239.421 303.338 228.437Z" fill="#FFD2A7"></path>
<path d="M297.9 195.029C291.616 195.431 293.667 180.084 293.667 180.084C293.016 178.358 289.521 177.978 286.732 179.704C288.718 180.084 293.917 188.365 291.931 201.086C291.366 204.7 287.654 207.055 284.159 207.978C284.159 207.978 306.746 210.463 307.115 208.596C308.092 203.625 301.373 194.812 297.9 195.029Z" fill="#FFBC8E"></path>
<path d="M303.327 228.437C303.511 224.779 304.608 221.338 307.115 208.596C308.092 203.625 309.372 199.718 308.016 197.612C306.464 195.214 302.339 194.866 298.996 194.975C295.512 203.679 287.274 208.857 281.207 206.545C277.3 205.058 278.635 200.597 278.32 195.431C275.769 195.311 272.492 195.659 271.851 196.245C268.758 199.023 269.366 204.765 268.899 207.782C268.432 210.81 264.232 214.631 265.198 220.079C266.153 225.528 271.33 225.007 271.33 225.007C273.327 227.015 275.303 230.781 275.65 233.505C276.475 239.855 273.729 246.421 273.729 246.421C292.69 253.324 307.918 245.216 307.918 245.216C307.918 245.216 302.795 239.431 303.338 228.447L303.327 228.437Z" fill="#FF5EA6"></path>
<path d="M303.327 228.437C303.511 224.779 304.608 221.338 307.115 208.596C308.092 203.625 309.372 199.718 308.016 197.612C306.518 195.29 302.621 194.888 299.344 194.975C299.3 195.518 299.311 196.245 299.202 196.798C297.781 204.179 293.146 209.768 286.808 212.471L290.509 213.046C294.742 213.708 297.553 218.202 296.76 222.283C296.185 225.289 293.949 227.471 291.214 228.285L289.836 237.087C288.794 243.762 294.959 249.341 301.471 247.572C305.53 246.465 307.907 245.206 307.907 245.206C307.907 245.206 302.784 239.421 303.327 228.437Z" fill="#DB5A9B"></path>
<path d="M313.073 160.449C309.503 164.02 298.312 194.975 295.751 201.151C294.839 203.343 305.085 207.022 309.524 201.954C311.988 199.143 323.58 166.289 323.319 161.546C323.015 155.978 317.664 155.847 313.063 160.449H313.073Z" fill="#FFD2A7"></path>
<path d="M308.775 194.639C305.313 198.502 303.739 202.41 298.66 203.68C302.524 205.232 306.572 205.329 309.524 201.965C311.749 199.436 321.474 172.562 323.081 163.749C322.614 165.529 313.367 189.505 308.775 194.639Z" fill="#FFBC8E"></path>
<path d="M293.613 171.672C293.613 171.672 288.815 159.006 284.583 158.735C280.339 158.452 276.985 158.876 275.01 163.565C275.01 163.565 272.654 167.721 273.664 172.616C273.664 172.616 268.172 177.729 274.348 184.925C280.512 192.12 290.498 186.9 293.678 180.084C293.678 180.084 299.376 181.788 300.006 176.502C300.635 171.216 297.173 171.032 293.624 171.672H293.613Z" fill="#FFD2A7"></path>
<path d="M293.613 171.672C293.613 171.672 288.816 159.006 284.583 158.734C281.185 158.517 278.363 158.745 276.356 161.242C279.167 160.46 289.423 171.488 289.63 178.184C289.847 185 282.672 189.363 276.735 186.542C276.019 186.205 275.346 185.793 274.706 185.315C280.892 191.892 290.552 186.759 293.667 180.084C293.667 180.084 299.365 181.788 299.995 176.502C300.624 171.216 297.162 171.032 293.613 171.672Z" fill="#FFBC8E"></path>
<path d="M271.797 165.442C271.797 165.442 278.439 164.281 282.141 160.449C285.852 156.618 287.817 157.237 287.817 157.237C276.28 152.461 271.786 165.442 271.786 165.442H271.797Z" fill="#1C0A76"></path>
<path d="M284.246 158.018C282.455 159.527 282.152 163.999 286.884 168.937C291.616 173.876 290.227 180.04 293.863 176.632C297.509 173.224 297.542 172.671 297.792 168.101C298.052 163.532 288.164 154.719 284.235 158.029L284.246 158.018Z" fill="#1C0A76"></path>
<path d="M320.324 177.229C320.324 177.229 311.597 199.219 309.503 202.507C307.397 205.796 298.291 206.295 295.501 201.693C295.501 201.693 295.632 201.422 295.719 201.205C296.565 199.002 299.333 186.14 304.315 175.102C304.315 175.102 310.089 171.792 320.324 177.229Z" fill="#FF5EA6"></path>
<path d="M236.382 172.508C236.121 163.586 242.894 136.311 241.07 131.253C239.247 126.206 238.856 117.078 241.722 114.083C244.641 111.022 246.66 113.529 248.082 117.328C248.983 119.737 249.656 122.516 248.277 128.496C246.888 134.498 248.766 160.753 247.865 169.708C246.975 178.586 236.566 178.542 236.382 172.508Z" fill="#FFD2A7"></path>
<path d="M320.324 177.229C320.324 177.229 311.608 199.219 309.503 202.496C307.473 205.677 299.908 207.641 296.902 203.647C296.858 203.593 296.923 203.365 296.945 203.267C297.01 203.18 297.151 203.148 297.64 203.18H297.661C299.648 203.343 305.682 203.495 308.309 199.989C312.259 194.736 315.342 181.429 320.324 177.218V177.229Z" fill="#DB5A9B"></path>
<path d="M261.009 74.1412L247.246 67.1514C246.182 66.6087 244.956 66.5002 243.827 66.8367L220.231 73.859C217.778 74.5862 216.378 77.1694 217.106 79.6223L219.537 87.7951L234.493 138.037C235.22 140.49 237.803 141.89 240.256 141.162L313.497 119.368C315.95 118.641 317.35 116.058 316.623 113.605L302.99 67.8027C302.263 65.3497 299.68 63.9496 297.227 64.6768L264.438 74.4342C263.299 74.7707 262.072 74.6622 261.019 74.1195L261.009 74.1412Z" fill="#FF5EA6"></path>
<path d="M246.91 87.6216L250.871 100.863L247.648 101.829L246.02 96.3805L241.005 97.8783L242.633 103.327L239.41 104.293L235.448 91.0513L238.672 90.0854L240.224 95.2734L245.238 93.7756L243.686 88.5876L246.91 87.6216Z" fill="white"></path>
<path d="M253.237 88.5548L254.041 91.2356L258.36 89.944L259.109 92.4295L254.789 93.7211L255.658 96.6299L260.542 95.1646L261.313 97.7478L253.194 100.179L249.232 86.9376L257.351 84.5063L258.122 87.0895L253.237 88.5548Z" fill="white"></path>
<path d="M265.893 93.6669L270.115 92.397L270.864 94.8825L263.407 97.1183L259.446 83.8769L262.669 82.9109L265.893 93.6669Z" fill="white"></path>
<path d="M274.89 90.9752L279.112 89.7053L279.861 92.1908L272.405 94.4267L268.443 81.1852L271.667 80.2192L274.89 90.9752Z" fill="white"></path>
<path d="M284.029 90.1504C282.814 89.8791 281.75 89.3256 280.827 88.4681C279.905 87.6107 279.254 86.5362 278.863 85.2446C278.472 83.953 278.429 82.694 278.733 81.4784C279.037 80.2628 279.612 79.21 280.48 78.32C281.348 77.43 282.401 76.8004 283.649 76.4314C284.898 76.0624 286.124 76.0081 287.329 76.2686C288.544 76.54 289.597 77.0935 290.509 77.9509C291.421 78.8084 292.061 79.8829 292.452 81.1745C292.842 82.4661 292.886 83.7251 292.593 84.9515C292.3 86.1671 291.724 87.2199 290.867 88.1099C290.01 88.9999 288.957 89.6295 287.709 89.9985C286.46 90.3675 285.234 90.4218 284.018 90.1613L284.029 90.1504ZM289.054 85.2337C289.478 84.3437 289.521 83.3126 289.174 82.1513C288.827 80.99 288.23 80.1434 287.383 79.6333C286.536 79.1231 285.592 79.0254 284.528 79.3511C283.465 79.6767 282.705 80.2736 282.282 81.1528C281.858 82.0319 281.815 83.063 282.173 84.2461C282.531 85.4291 283.118 86.254 283.964 86.7641C284.811 87.2742 285.766 87.361 286.829 87.0463C287.893 86.7315 288.631 86.1237 289.054 85.2337Z" fill="white"></path>
<path d="M254.008 110.175L254.518 124.459L250.611 125.631L245.889 117.545L246.313 126.922L242.405 128.095L235.079 115.852L238.531 114.821L243.328 123.894L242.796 113.551L246.345 112.487L251.501 121.452L250.535 111.239L254.008 110.197V110.175Z" fill="white"></path>
<path d="M262.224 121.344C261.008 121.072 259.945 120.519 259.022 119.661C258.1 118.804 257.448 117.73 257.058 116.438C256.667 115.146 256.624 113.887 256.927 112.672C257.231 111.456 257.807 110.403 258.675 109.513C259.543 108.623 260.596 107.994 261.844 107.625C263.092 107.256 264.319 107.201 265.524 107.462C266.739 107.733 267.792 108.287 268.704 109.144C269.615 110.002 270.256 111.076 270.646 112.368C271.037 113.659 271.081 114.918 270.788 116.145C270.495 117.361 269.919 118.413 269.062 119.303C268.204 120.193 267.152 120.823 265.903 121.192C264.655 121.561 263.429 121.615 262.213 121.355L262.224 121.344ZM267.249 116.427C267.673 115.537 267.716 114.506 267.369 113.345C267.021 112.183 266.424 111.337 265.578 110.827C264.731 110.316 263.787 110.219 262.723 110.544C261.66 110.87 260.9 111.467 260.477 112.346C260.053 113.225 260.01 114.256 260.368 115.439C260.726 116.622 261.312 117.447 262.159 117.957C263.005 118.468 263.961 118.554 265.024 118.24C266.088 117.925 266.826 117.317 267.249 116.427Z" fill="white"></path>
<path d="M281.185 116.47L276.931 112.292L276.16 112.52L277.658 117.523L274.434 118.489L270.473 105.248L275.889 103.631C276.931 103.316 277.875 103.229 278.722 103.381C279.568 103.522 280.263 103.859 280.816 104.39C281.37 104.922 281.761 105.573 281.999 106.344C282.26 107.223 282.249 108.091 281.956 108.927C281.663 109.774 281.077 110.479 280.198 111.055L284.821 115.385L281.175 116.47H281.185ZM275.476 110.24L277.474 109.644C278.06 109.47 278.461 109.188 278.678 108.808C278.884 108.428 278.917 107.983 278.754 107.451C278.602 106.952 278.342 106.594 277.951 106.398C277.571 106.203 277.083 106.181 276.486 106.366L274.489 106.963L275.476 110.24Z" fill="white"></path>
<path d="M289.217 111.359L293.439 110.089L294.188 112.574L286.732 114.81L282.77 101.569L285.994 100.603L289.217 111.359Z" fill="white"></path>
<path d="M300.646 97.1183C301.851 97.3571 302.893 97.8998 303.772 98.7247C304.64 99.5496 305.281 100.624 305.671 101.927C306.062 103.229 306.116 104.455 305.845 105.638C305.574 106.811 304.998 107.842 304.108 108.71C303.218 109.578 302.09 110.219 300.7 110.631L295.74 112.118L291.779 98.8766L296.739 97.3897C298.139 96.9664 299.441 96.8796 300.646 97.1183ZM302.209 106.051C302.686 105.183 302.741 104.141 302.383 102.914C302.024 101.688 301.395 100.841 300.516 100.374C299.637 99.8969 298.584 99.8426 297.357 100.212L295.827 100.667L298.128 108.363L299.658 107.907C300.874 107.538 301.731 106.919 302.209 106.051Z" fill="white"></path>
<path d="M322.831 158.333C319.727 149.965 303.229 127.205 303.034 121.843C302.828 116.47 299.778 107.874 296.001 106.17C292.148 104.434 291.214 107.505 291.312 111.565C291.377 114.137 291.789 116.959 295.317 121.995C298.855 127.031 306.941 152.081 311.142 160.048C315.299 167.949 324.926 163.999 322.831 158.333Z" fill="#FFD2A7"></path>
<path d="M312.466 160.949C312.466 160.949 313.063 161.404 312.292 162.707C311.522 164.009 320.932 166.05 321.757 164.27C322.581 162.479 322.668 161.763 322.668 161.763C322.668 161.763 322.972 159.668 321.648 157.182C320.313 154.697 312.466 160.959 312.466 160.959V160.949Z" fill="#FFD2A7"></path>
<path d="M237.478 174.245C237.478 174.245 238.715 176.242 240.582 178.174C242.449 180.105 248.733 172.28 248.733 172.28L248.028 170.24C248.028 170.24 247.333 169.968 247.365 168.34C247.398 166.712 242.536 167.374 242.536 167.374L237.478 174.234V174.245Z" fill="#FFD2A7"></path>
<path d="M188.854 288.381C188.832 287.915 188.821 287.437 188.799 286.97C184.74 282.781 181.918 278.548 180.247 274.684C180.247 275.151 180.257 275.617 180.268 276.084C181.951 279.948 184.783 284.181 188.854 288.371V288.381Z" fill="#6A6AE8"></path>
<path d="M206.892 297.716C206.86 297.249 206.838 296.782 206.805 296.315C192.631 288.533 183.72 278.809 180.247 270.614C180.247 271.081 180.257 271.547 180.268 272.014C183.763 280.209 192.696 289.934 206.892 297.705V297.716Z" fill="#6A6AE8"></path>
<path d="M199.11 288.815C199.089 288.349 199.067 287.882 199.034 287.405C189.288 280.664 183.069 273.089 180.247 266.533C180.247 267 180.257 267.466 180.268 267.933C183.101 274.5 189.342 282.075 199.11 288.815Z" fill="#1C0A76"></path>
<path d="M199.273 289C189.364 282.206 183.058 274.521 180.225 267.9C180.225 267.379 180.214 266.859 180.203 266.348C183.014 272.969 189.309 280.643 199.197 287.448C199.219 287.969 199.251 288.49 199.273 289ZM180.312 267.966C183.155 274.467 189.32 281.956 198.937 288.62C198.915 288.208 198.893 287.784 198.871 287.372C189.277 280.697 183.123 273.219 180.29 266.717C180.29 267.13 180.301 267.553 180.312 267.966Z" fill="#1C0A76"></path>
<path d="M195.377 294.221C195.355 293.754 195.333 293.287 195.312 292.81C193.738 291.572 192.272 290.313 190.916 289.043C190.937 289.51 190.948 289.977 190.97 290.454C192.327 291.724 193.792 292.972 195.366 294.221H195.377Z" fill="#6A6AE8"></path>
<path d="M188.854 276.291C188.832 275.824 188.821 275.357 188.799 274.88C184.74 270.69 181.918 266.457 180.247 262.593C180.247 263.06 180.257 263.527 180.268 263.993C181.951 267.857 184.783 272.09 188.854 276.28V276.291Z" fill="#6A6AE8"></path>
<path d="M206.892 285.625C206.86 285.158 206.838 284.691 206.805 284.224C192.631 276.442 183.72 266.717 180.247 258.523C180.247 258.99 180.257 259.456 180.268 259.923C183.763 268.118 192.696 277.842 206.892 285.625Z" fill="#6A6AE8"></path>
<path d="M199.11 276.735C199.089 276.269 199.067 275.802 199.034 275.324C189.288 268.584 183.069 261.008 180.247 254.453C180.247 254.92 180.257 255.386 180.268 255.853C183.101 262.419 189.342 269.995 199.099 276.735H199.11Z" fill="#6A6AE8"></path>
<path d="M195.159 281.967C195.138 281.5 195.116 281.034 195.094 280.556C193.531 279.319 192.077 278.06 190.731 276.79C190.753 277.257 190.764 277.734 190.785 278.201C192.131 279.471 193.586 280.73 195.159 281.967Z" fill="#6A6AE8"></path>
<path d="M188.854 264.21C188.832 263.744 188.821 263.277 188.799 262.799C184.74 258.61 181.918 254.377 180.247 250.513C180.247 250.98 180.257 251.446 180.268 251.913C181.951 255.777 184.783 260.01 188.854 264.199V264.21Z" fill="#6A6AE8"></path>
<path d="M206.892 273.544C206.86 273.078 206.838 272.611 206.805 272.144C192.631 264.351 183.72 254.637 180.247 246.443C180.247 246.91 180.257 247.376 180.268 247.843C183.763 256.038 192.696 265.762 206.892 273.544Z" fill="#6A6AE8"></path>
<path d="M194.942 269.702C194.921 269.236 194.899 268.769 194.877 268.291C193.325 267.043 191.882 265.784 190.547 264.525C190.568 264.992 190.579 265.459 190.601 265.936C191.936 267.206 193.379 268.465 194.942 269.702Z" fill="#6A6AE8"></path>
<path d="M188.854 321.225C188.832 320.758 188.821 320.291 188.799 319.814C184.74 315.624 181.918 311.391 180.247 307.527C180.247 307.994 180.257 308.461 180.268 308.927C181.951 312.791 184.783 317.024 188.854 321.214V321.225Z" fill="#6A6AE8"></path>
<path d="M206.892 330.559C206.86 330.092 206.838 329.625 206.805 329.158C192.631 321.366 183.72 311.652 180.247 303.457C180.247 303.924 180.257 304.39 180.268 304.857C183.763 313.052 192.696 322.777 206.892 330.548V330.559Z" fill="#6A6AE8"></path>
<path d="M199.11 321.67C199.089 321.203 199.067 320.736 199.034 320.259C189.288 313.518 183.069 305.943 180.247 299.387C180.247 299.854 180.257 300.32 180.268 300.787C183.101 307.354 189.342 314.929 199.11 321.67Z" fill="#6A6AE8"></path>
<path d="M195.377 327.075C195.355 326.608 195.333 326.141 195.312 325.664C193.738 324.426 192.272 323.167 190.916 321.897C190.937 322.364 190.948 322.831 190.97 323.308C192.327 324.578 193.792 325.827 195.366 327.075H195.377Z" fill="#6A6AE8"></path>
<path d="M188.854 309.144C188.832 308.678 188.821 308.211 188.799 307.733C184.74 303.544 181.918 299.311 180.247 295.447C180.247 295.914 180.257 296.38 180.268 296.847C181.951 300.711 184.783 304.944 188.854 309.133V309.144Z" fill="#6A6AE8"></path>
<path d="M206.892 318.479C206.86 318.012 206.838 317.545 206.805 317.078C192.631 309.285 183.72 299.571 180.247 291.377C180.247 291.844 180.257 292.31 180.268 292.777C183.763 300.972 192.696 310.696 206.892 318.479Z" fill="#6A6AE8"></path>
<path d="M199.11 309.579C199.089 309.112 199.067 308.645 199.034 308.168C189.288 301.428 183.069 293.852 180.247 287.296C180.247 287.763 180.257 288.23 180.268 288.696C183.101 295.263 189.342 302.839 199.099 309.579H199.11Z" fill="#6A6AE8"></path>
<path d="M195.159 314.81C195.138 314.343 195.116 313.877 195.094 313.399C193.531 312.162 192.077 310.903 190.731 309.633C190.753 310.1 190.764 310.566 190.785 311.044C192.131 312.314 193.586 313.573 195.159 314.81Z" fill="#6A6AE8"></path>
<path d="M188.854 297.054C188.832 296.587 188.821 296.109 188.799 295.643C184.74 291.453 181.918 287.22 180.247 283.356C180.247 283.823 180.257 284.29 180.268 284.756C181.951 288.62 184.783 292.853 188.854 297.043V297.054Z" fill="#6A6AE8"></path>
<path d="M206.892 306.388C206.86 305.921 206.838 305.454 206.805 304.988C192.631 297.205 183.72 287.481 180.247 279.286C180.247 279.753 180.257 280.22 180.268 280.686C183.763 288.881 192.696 298.606 206.892 306.388Z" fill="#6A6AE8"></path>
<path d="M194.942 302.556C194.921 302.09 194.899 301.612 194.877 301.145C193.325 299.908 191.882 298.638 190.547 297.379C190.568 297.846 190.579 298.313 190.601 298.79C191.936 300.06 193.379 301.319 194.942 302.556Z" fill="#6A6AE8"></path>
<path d="M261.562 321.626C261.519 321.17 261.475 320.715 261.443 320.259C244.739 318.555 228.99 314.517 216.15 308.906C216.183 309.372 216.216 309.839 216.248 310.306C229.099 315.906 244.858 319.944 261.562 321.626Z" fill="#6A6AE8"></path>
<path d="M241.591 314.484C241.548 314.029 241.515 313.562 241.472 313.106C232.279 311.055 223.715 308.276 216.14 304.977C216.172 305.443 216.205 305.91 216.237 306.377C223.813 309.676 232.388 312.444 241.591 314.484Z" fill="#6A6AE8"></path>
<path d="M274.022 314.463C273.979 314.007 273.935 313.551 273.892 313.106C252.695 312.411 232.116 307.918 216.14 300.906C216.172 301.373 216.205 301.84 216.237 302.307C232.236 309.307 252.814 313.79 274.011 314.474L274.022 314.463Z" fill="#1C0A76"></path>
<path d="M274.315 314.55C252.922 313.898 232.127 309.362 216.031 302.285C215.998 301.764 215.966 301.254 215.922 300.733C231.997 307.831 252.781 312.368 274.174 313.041C274.217 313.54 274.261 314.05 274.315 314.55ZM216.454 302.318C232.344 309.231 252.727 313.67 273.729 314.376C273.696 313.974 273.653 313.573 273.62 313.16C252.619 312.444 232.246 307.994 216.367 301.069C216.4 301.482 216.422 301.894 216.454 302.318Z" fill="#1C0A76"></path>
<path d="M261.562 333.826C261.519 333.37 261.475 332.914 261.443 332.458C244.739 330.765 228.99 326.717 216.15 321.105C216.183 321.572 216.216 322.039 216.248 322.505C229.099 328.106 244.858 332.143 261.562 333.826Z" fill="#6A6AE8"></path>
<path d="M241.591 326.684C241.548 326.228 241.515 325.761 241.472 325.306C232.279 323.254 223.715 320.476 216.14 317.176C216.172 317.643 216.205 318.11 216.237 318.576C223.813 321.876 232.388 324.644 241.591 326.684Z" fill="#6A6AE8"></path>
<path d="M274.022 326.662C273.979 326.206 273.935 325.761 273.892 325.305C252.695 324.611 232.116 320.117 216.14 313.106C216.172 313.573 216.205 314.039 216.237 314.506C232.236 321.507 252.814 325.989 274.011 326.673L274.022 326.662Z" fill="#6A6AE8"></path>
<path d="M261.562 309.535C261.519 309.079 261.475 308.623 261.443 308.168C244.739 306.464 228.99 302.426 216.15 296.815C216.183 297.281 216.216 297.748 216.248 298.215C229.099 303.815 244.858 307.853 261.562 309.535Z" fill="#6A6AE8"></path>
<path d="M254.909 316.894C254.865 316.438 254.833 315.982 254.789 315.526C251.848 315.114 248.95 314.626 246.106 314.072C246.15 314.528 246.182 314.995 246.226 315.45C249.08 316.004 251.978 316.482 254.909 316.894Z" fill="#6A6AE8"></path>
<path d="M261.562 346.166C261.519 345.71 261.475 345.255 261.443 344.799C244.739 343.106 228.99 339.057 216.15 333.446C216.183 333.913 216.216 334.379 216.248 334.846C229.099 340.446 244.858 344.484 261.562 346.166Z" fill="#6A6AE8"></path>
<path d="M241.591 339.024C241.548 338.569 241.515 338.102 241.472 337.646C232.279 335.595 223.715 332.816 216.14 329.517C216.172 329.983 216.205 330.45 216.237 330.917C223.813 334.216 232.388 336.984 241.591 339.024Z" fill="#6A6AE8"></path>
<path d="M274.022 339.003C273.979 338.547 273.935 338.091 273.892 337.646C252.695 336.951 232.116 332.447 216.14 325.447C216.172 325.913 216.205 326.38 216.237 326.847C232.236 333.847 252.814 338.33 274.011 339.014L274.022 339.003Z" fill="#6A6AE8"></path>
<path d="M241.591 351.224C241.548 350.768 241.515 350.302 241.472 349.846C232.279 347.794 223.715 345.016 216.14 341.716C216.172 342.183 216.205 342.65 216.237 343.116C223.813 346.416 232.388 349.184 241.591 351.224Z" fill="#6A6AE8"></path>
<path d="M274.022 351.202C273.979 350.746 273.935 350.29 273.892 349.845C252.695 349.151 232.116 344.657 216.14 337.646C216.172 338.113 216.205 338.579 216.237 339.046C232.236 346.047 252.814 350.529 274.011 351.213L274.022 351.202Z" fill="#6A6AE8"></path>
<path d="M254.909 341.434C254.865 340.978 254.833 340.522 254.789 340.066C251.848 339.654 248.95 339.166 246.106 338.612C246.15 339.068 246.182 339.535 246.226 339.99C249.08 340.533 251.978 341.022 254.909 341.434Z" fill="#6A6AE8"></path>
<path d="M334.868 338.569C334.835 338.124 334.802 337.69 334.759 337.245C320.649 342.064 304.011 345.059 287.025 345.645C287.068 346.101 287.111 346.546 287.155 347.002C304.141 346.405 320.769 343.41 334.868 338.569Z" fill="#1C0A76"></path>
<path d="M335.106 338.558C320.877 343.464 304.054 346.503 286.873 347.078C286.829 346.579 286.775 346.079 286.732 345.58C303.913 345.016 320.747 341.988 334.987 337.093C335.03 337.581 335.063 338.069 335.106 338.558ZM287.426 346.915C304.228 346.296 320.649 343.333 334.618 338.58C334.585 338.189 334.553 337.798 334.52 337.407C320.541 342.161 304.108 345.103 287.307 345.71C287.339 346.112 287.383 346.514 287.415 346.915H287.426Z" fill="#1C0A76"></path>
<path d="M316.373 339.621L316.254 338.286C306.93 340.186 297.032 341.358 287.025 341.705C287.068 342.161 287.111 342.606 287.155 343.062C297.162 342.704 307.06 341.521 316.373 339.621Z" fill="#6A6AE8"></path>
<path d="M344.831 326.706C344.799 326.272 344.766 325.826 344.733 325.392C328.779 332.415 308.222 336.93 287.025 337.646C287.068 338.102 287.111 338.547 287.155 339.003C308.352 338.276 328.898 333.75 344.831 326.716V326.706Z" fill="#6A6AE8"></path>
<path d="M316.373 351.821L316.254 350.486C306.93 352.385 297.032 353.558 287.025 353.905C287.068 354.35 287.111 354.806 287.155 355.251C297.162 354.893 307.06 353.72 316.373 351.81V351.821Z" fill="#6A6AE8"></path>
<path d="M344.831 338.905C344.799 338.471 344.766 338.026 344.733 337.592C328.779 344.614 308.222 349.129 287.025 349.846C287.068 350.301 287.111 350.746 287.155 351.202C308.352 350.475 328.898 345.949 344.831 338.916V338.905Z" fill="#6A6AE8"></path>
<path d="M329.072 336.474C329.039 336.029 328.996 335.595 328.963 335.15C326.326 335.921 323.612 336.637 320.845 337.288C320.888 337.733 320.921 338.178 320.964 338.612C323.732 337.961 326.434 337.245 329.072 336.474Z" fill="#6A6AE8"></path>
<path d="M241.591 302.404C241.548 301.938 241.515 301.482 241.472 301.026C232.279 298.975 223.715 296.196 216.14 292.896C216.172 293.363 216.205 293.83 216.237 294.297C223.813 297.596 232.388 300.364 241.591 302.404Z" fill="#6A6AE8"></path>
<path d="M274.022 302.372C273.979 301.916 273.935 301.471 273.892 301.015C252.695 300.32 232.116 295.827 216.14 288.815C216.172 289.282 216.205 289.749 216.237 290.216C232.236 297.216 252.814 301.699 274.022 302.382V302.372Z" fill="#6A6AE8"></path>
<path d="M261.562 297.455C261.519 296.999 261.486 296.543 261.443 296.088C244.739 294.384 228.99 290.346 216.15 284.735C216.183 285.201 216.216 285.668 216.248 286.135C229.099 291.735 244.858 295.773 261.562 297.455Z" fill="#6A6AE8"></path>
<path d="M254.496 304.749C254.453 304.293 254.42 303.837 254.377 303.381C251.446 302.958 248.548 302.47 245.705 301.916C245.748 302.372 245.781 302.839 245.824 303.294C248.668 303.848 251.566 304.336 254.496 304.76V304.749Z" fill="#6A6AE8"></path>
<path d="M241.591 290.313C241.548 289.858 241.515 289.391 241.472 288.935C232.279 286.884 223.715 284.105 216.14 280.806C216.172 281.272 216.205 281.739 216.237 282.206C223.813 285.505 232.388 288.273 241.591 290.313Z" fill="#6A6AE8"></path>
<path d="M274.022 290.292C273.979 289.836 273.935 289.38 273.892 288.935C252.695 288.24 232.116 283.747 216.14 276.735C216.172 277.202 216.205 277.669 216.237 278.135C232.236 285.136 252.814 289.619 274.022 290.302V290.292Z" fill="#6A6AE8"></path>
<path d="M254.084 292.604C254.04 292.148 254.008 291.692 253.964 291.236C251.034 290.813 248.147 290.313 245.303 289.749C245.347 290.205 245.379 290.672 245.423 291.127C248.266 291.692 251.153 292.18 254.084 292.614V292.604Z" fill="#6A6AE8"></path>
<path d="M316.373 315.081C316.329 314.636 316.297 314.191 316.254 313.746C306.93 315.646 297.032 316.818 287.025 317.165C287.068 317.61 287.111 318.066 287.155 318.511C297.162 318.153 307.06 316.981 316.373 315.07V315.081Z" fill="#6A6AE8"></path>
<path d="M344.831 302.155C344.799 301.72 344.766 301.275 344.733 300.841C328.779 307.864 308.222 312.379 287.025 313.095C287.068 313.551 287.111 313.996 287.155 314.452C308.352 313.725 328.898 309.199 344.831 302.165V302.155Z" fill="#6A6AE8"></path>
<path d="M334.868 301.938C334.835 301.493 334.802 301.059 334.759 300.614C320.638 305.433 304.011 308.428 287.025 309.014C287.068 309.47 287.111 309.915 287.155 310.36C304.141 309.763 320.769 306.768 334.868 301.938Z" fill="#6A6AE8"></path>
<path d="M329.072 311.934C329.039 311.489 328.996 311.055 328.963 310.61C326.326 311.38 323.612 312.097 320.845 312.748C320.888 313.193 320.921 313.638 320.964 314.072C323.732 313.421 326.434 312.704 329.072 311.934Z" fill="#6A6AE8"></path>
<path d="M316.373 303.001C316.329 302.556 316.297 302.111 316.254 301.666C306.93 303.566 297.032 304.738 287.025 305.085C287.068 305.53 287.111 305.986 287.155 306.431C297.162 306.073 307.06 304.901 316.373 302.99V303.001Z" fill="#6A6AE8"></path>
<path d="M344.831 290.075C344.799 289.64 344.766 289.195 344.733 288.761C328.779 295.784 308.222 300.299 287.025 301.015C287.068 301.471 287.111 301.916 287.155 302.372C308.352 301.645 328.898 297.119 344.831 290.085V290.075Z" fill="#6A6AE8"></path>
<path d="M334.868 289.858C334.835 289.413 334.802 288.978 334.759 288.533C320.649 293.352 304.011 296.348 287.025 296.934C287.068 297.379 287.111 297.835 287.155 298.28C304.141 297.683 320.769 294.687 334.868 289.858Z" fill="#6A6AE8"></path>
<path d="M328.692 299.962C328.659 299.517 328.616 299.083 328.583 298.638C325.935 299.409 323.222 300.114 320.454 300.755C320.487 301.2 320.53 301.645 320.573 302.079C323.341 301.438 326.055 300.722 328.703 299.962H328.692Z" fill="#6A6AE8"></path>
<path d="M316.373 330.96C316.329 330.515 316.297 330.07 316.254 329.625C306.93 331.525 297.032 332.697 287.025 333.044C287.068 333.489 287.111 333.945 287.155 334.39C297.162 334.032 307.06 332.86 316.373 330.949V330.96Z" fill="#6A6AE8"></path>
<path d="M344.831 318.033C344.799 317.599 344.766 317.154 344.733 316.72C328.779 323.743 308.222 328.258 287.025 328.974C287.068 329.43 287.111 329.875 287.155 330.331C308.352 329.604 328.898 325.078 344.831 318.044V318.033Z" fill="#6A6AE8"></path>
<path d="M334.868 317.817C334.835 317.372 334.802 316.937 334.759 316.492C320.638 321.311 304.011 324.307 287.025 324.893C287.068 325.338 287.111 325.794 287.155 326.239C304.141 325.642 320.769 322.646 334.868 317.817Z" fill="#6A6AE8"></path>
<path d="M329.072 327.813C329.039 327.368 328.996 326.934 328.963 326.489C326.326 327.259 323.612 327.975 320.845 328.627C320.888 329.072 320.921 329.506 320.964 329.951C323.732 329.3 326.434 328.583 329.072 327.813Z" fill="#6A6AE8"></path>
<path d="M316.373 318.869C316.329 318.424 316.297 317.979 316.254 317.534C306.93 319.434 297.032 320.606 287.025 320.953C287.068 321.398 287.111 321.854 287.155 322.299C297.162 321.941 307.06 320.769 316.373 318.858V318.869Z" fill="#6A6AE8"></path>
<path d="M328.692 315.83C328.659 315.385 328.616 314.951 328.583 314.506C325.935 315.277 323.222 315.982 320.454 316.623C320.487 317.068 320.53 317.513 320.573 317.947C323.341 317.306 326.055 316.59 328.703 315.83H328.692Z" fill="#6A6AE8"></path>
<path d="M316.373 290.91C316.329 290.465 316.297 290.02 316.254 289.575C306.93 291.475 297.032 292.647 287.025 292.994C287.068 293.439 287.111 293.895 287.155 294.34C297.162 293.982 307.06 292.81 316.373 290.899V290.91Z" fill="#1C0A76"></path>
<path d="M316.644 290.932C307.158 292.886 297.075 294.09 286.873 294.438C286.829 293.938 286.786 293.439 286.732 292.94C296.934 292.593 307.028 291.409 316.514 289.456C316.558 289.944 316.601 290.443 316.644 290.932ZM287.426 294.275C297.249 293.906 306.952 292.755 316.102 290.899C316.069 290.509 316.037 290.107 315.993 289.716C306.844 291.572 297.129 292.712 287.318 293.081C287.35 293.483 287.394 293.884 287.426 294.286V294.275Z" fill="#1C0A76"></path>
<path d="M344.831 277.984C344.799 277.55 344.766 277.105 344.733 276.67C328.779 283.693 308.222 288.208 287.025 288.924C287.068 289.38 287.111 289.825 287.155 290.281C308.352 289.554 328.898 285.028 344.831 277.995V277.984Z" fill="#6A6AE8"></path>
<path d="M328.323 287.98C328.29 287.535 328.247 287.101 328.214 286.656C325.566 287.416 322.842 288.121 320.063 288.751C320.107 289.196 320.139 289.641 320.183 290.075C322.961 289.434 325.675 288.729 328.323 287.969V287.98Z" fill="#1C0A76"></path>
<path d="M328.583 287.98C325.772 288.794 322.885 289.543 319.933 290.216C319.89 289.727 319.846 289.239 319.803 288.74C322.755 288.067 325.653 287.318 328.464 286.515C328.507 287.003 328.54 287.491 328.583 287.98ZM320.443 289.955C323.048 289.358 325.588 288.696 328.084 287.98C328.052 287.589 328.019 287.198 327.986 286.797C325.501 287.513 322.95 288.164 320.345 288.761C320.378 289.152 320.411 289.554 320.443 289.944V289.955Z" fill="#1C0A76"></path>
<path d="M377.881 284.865C377.881 284.431 377.859 283.997 377.848 283.562C373.409 290.52 365.388 297.998 354.068 304.26C354.089 304.695 354.122 305.129 354.154 305.574C365.464 299.3 373.463 291.822 377.891 284.865H377.881Z" fill="#6A6AE8"></path>
<path d="M370.641 289.64C370.62 289.206 370.609 288.772 370.587 288.338C366.267 292.517 360.721 296.63 354.057 300.32C354.079 300.754 354.111 301.189 354.144 301.634C360.797 297.933 366.332 293.819 370.641 289.64Z" fill="#6A6AE8"></path>
<path d="M380.562 271.851C380.562 271.417 380.551 270.983 380.54 270.549C377.088 278.732 368.21 288.447 354.057 296.25C354.079 296.684 354.111 297.119 354.144 297.564C368.275 289.76 377.121 280.035 380.562 271.862V271.851Z" fill="#6A6AE8"></path>
<path d="M377.881 272.774C377.87 272.34 377.859 271.906 377.848 271.471C373.409 278.429 365.388 285.907 354.068 292.169C354.1 292.603 354.122 293.038 354.154 293.483C365.464 287.209 373.463 279.731 377.891 272.774H377.881Z" fill="#FF5EA6"></path>
<path d="M375.905 283.747C375.894 283.313 375.884 282.878 375.862 282.444C374.896 283.714 373.821 284.984 372.627 286.254C372.649 286.688 372.66 287.122 372.682 287.556C373.865 286.287 374.939 285.006 375.905 283.747Z" fill="#6A6AE8"></path>
<path d="M370.641 277.56C370.62 277.126 370.609 276.692 370.587 276.258C366.267 280.436 360.721 284.55 354.057 288.24C354.089 288.674 354.111 289.119 354.144 289.554C360.797 285.852 366.332 281.739 370.641 277.56Z" fill="#6A6AE8"></path>
<path d="M380.562 259.771C380.562 259.337 380.551 258.903 380.54 258.469C377.088 266.652 368.21 276.377 354.057 284.17C354.089 284.604 354.111 285.038 354.144 285.483C368.275 277.68 377.132 267.955 380.562 259.782V259.771Z" fill="#6A6AE8"></path>
<path d="M377.881 260.683C377.87 260.249 377.859 259.815 377.848 259.38C373.409 266.338 365.388 273.816 354.068 280.078C354.089 280.512 354.122 280.947 354.154 281.392C365.464 275.118 373.463 267.64 377.891 260.683H377.881Z" fill="#6A6AE8"></path>
<path d="M375.764 271.841C375.753 271.406 375.742 270.972 375.721 270.538C374.744 271.797 373.659 273.078 372.465 274.348C372.486 274.782 372.497 275.216 372.519 275.65C373.713 274.38 374.798 273.1 375.764 271.841Z" fill="#6A6AE8"></path>
<path d="M377.881 313.594C377.881 313.16 377.859 312.726 377.848 312.292C373.409 319.249 365.388 326.727 354.068 332.99C354.089 333.424 354.122 333.858 354.154 334.303C365.464 328.03 373.463 320.552 377.891 313.594H377.881Z" fill="#6A6AE8"></path>
<path d="M370.641 318.37C370.62 317.936 370.609 317.502 370.587 317.068C366.267 321.246 360.721 325.36 354.057 329.05C354.079 329.484 354.111 329.918 354.144 330.363C360.797 326.662 366.332 322.549 370.641 318.37Z" fill="#6A6AE8"></path>
<path d="M380.562 300.581C380.562 300.147 380.551 299.712 380.54 299.278C377.088 307.451 368.21 317.176 354.057 324.98C354.079 325.414 354.111 325.848 354.144 326.293C368.275 318.489 377.121 308.764 380.562 300.592V300.581Z" fill="#6A6AE8"></path>
<path d="M377.881 301.503C377.87 301.069 377.859 300.635 377.848 300.201C373.409 307.158 365.388 314.636 354.068 320.899C354.1 321.333 354.122 321.767 354.154 322.212C365.464 315.939 373.463 308.461 377.891 301.503H377.881Z" fill="#FF5EA6"></path>
<path d="M375.905 312.476C375.894 312.042 375.884 311.608 375.862 311.174C374.896 312.444 373.821 313.714 372.627 314.984C372.649 315.418 372.66 315.852 372.682 316.286C373.865 315.016 374.939 313.736 375.905 312.476Z" fill="#6A6AE8"></path>
<path d="M370.641 305.498C370.62 305.063 370.609 304.629 370.587 304.195C366.267 308.374 360.721 312.487 354.057 316.178C354.089 316.612 354.111 317.046 354.144 317.491C360.797 313.79 366.332 309.676 370.641 305.498Z" fill="#6A6AE8"></path>
<path d="M380.562 287.708C380.562 287.274 380.551 286.84 380.54 286.406C377.088 294.59 368.21 304.315 354.057 312.107C354.089 312.542 354.111 312.976 354.144 313.421C368.275 305.617 377.132 295.892 380.562 287.719V287.708Z" fill="#6A6AE8"></path>
<path d="M377.881 288.631C377.87 288.197 377.859 287.763 377.848 287.329C373.409 294.286 365.388 301.764 354.068 308.026C354.089 308.461 354.122 308.895 354.154 309.34C365.464 303.066 373.463 295.588 377.891 288.631H377.881Z" fill="#6A6AE8"></path>
<path d="M375.764 299.778C375.753 299.344 375.742 298.909 375.721 298.475C374.744 299.745 373.659 301.015 372.465 302.285C372.486 302.719 372.497 303.153 372.519 303.587C373.713 302.318 374.798 301.037 375.764 299.778Z" fill="#6A6AE8"></path>
<path d="M370.641 265.469C370.62 265.035 370.609 264.601 370.587 264.167C366.267 268.346 360.721 272.459 354.057 276.149C354.079 276.584 354.111 277.018 354.144 277.463C360.797 273.762 366.332 269.648 370.641 265.469Z" fill="#6A6AE8"></path>
<path d="M380.562 247.68C380.562 247.246 380.551 246.812 380.54 246.378C377.088 254.561 368.21 264.286 354.057 272.079C354.089 272.513 354.111 272.947 354.144 273.392C368.275 265.589 377.132 255.864 380.562 247.691V247.68Z" fill="#FF5EA6"></path>
<path d="M375.634 259.934C375.623 259.5 375.601 259.066 375.59 258.632C374.603 259.901 373.507 261.171 372.302 262.441C372.323 262.875 372.334 263.31 372.356 263.744C373.561 262.474 374.657 261.193 375.634 259.934Z" fill="#6A6AE8"></path>
</g>
<defs>
<linearGradient id="paint0_linear_60_25910" x1="125.978" y1="470.278" x2="378.022" y2="33.7223" gradientUnits="userSpaceOnUse">
<stop stop-color="#6A5FFF"></stop>
<stop offset="1" stop-color="#FF5EA6"></stop>
</linearGradient>
<linearGradient id="paint1_linear_60_25910" x1="48.6895" y1="268.172" x2="448.364" y2="268.172" gradientUnits="userSpaceOnUse">
<stop stop-color="white"></stop>
<stop offset="1" stop-color="#D3DBEB"></stop>
</linearGradient>
<linearGradient id="paint2_linear_60_25910" x1="335.454" y1="135.931" x2="415.89" y2="135.931" gradientUnits="userSpaceOnUse">
<stop stop-color="white"></stop>
<stop offset="1" stop-color="#D3DBEB"></stop>
</linearGradient>
<clipPath id="clip0_60_25910">
<rect width="504" height="504" fill="white"></rect>
</clipPath>
</defs>
</svg>
