<svg width="107" height="192" fill="none" xmlns="http://www.w3.org/2000/svg"><g opacity=".5" clip-path="url('#clip0_281_6622')"><path opacity=".08" d="M74.903 123.92c0 3.185 2.571 5.776 5.75 5.776a5.767 5.767 0 0 0 5.762-5.776c0-3.2-2.572-5.777-5.763-5.777s-5.75 2.577-5.75 5.777Z" fill="#FF5EA6"/><path opacity=".15" d="M75.127 123.92c0 3.053 2.479 5.539 5.525 5.539 3.046 0 5.526-2.486 5.526-5.539 0-3.054-2.48-5.539-5.526-5.539s-5.525 2.485-5.525 5.539Z" fill="#FF5EA6"/><path opacity=".23" d="M75.364 123.92a5.308 5.308 0 0 0 5.301 5.314 5.308 5.308 0 0 0 5.302-5.314c0-2.935-2.374-5.315-5.302-5.315-2.927 0-5.3 2.38-5.3 5.315Z" fill="#FF5EA6"/><path opacity=".31" d="M75.588 123.92a5.071 5.071 0 0 0 5.064 5.076 5.071 5.071 0 0 0 5.064-5.076c0-2.803-2.268-5.077-5.064-5.077-2.796 0-5.064 2.274-5.064 5.077Z" fill="#FF5EA6"/><path opacity=".38" d="M75.826 123.92c0 2.67 2.162 4.851 4.84 4.851a4.84 4.84 0 0 0 4.84-4.851 4.84 4.84 0 1 0-9.68 0Z" fill="#FF5EA6"/><path opacity=".46" d="M76.05 123.92a4.603 4.603 0 1 0 9.204 0 4.604 4.604 0 0 0-4.602-4.614 4.604 4.604 0 0 0-4.602 4.614Z" fill="#FF5EA6"/><path opacity=".54" d="M76.287 123.92a4.389 4.389 0 0 0 4.378 4.388 4.389 4.389 0 0 0 0-8.777 4.39 4.39 0 0 0-4.378 4.389Z" fill="#FF5EA6"/><path opacity=".62" d="M76.511 123.92c0 2.3 1.86 4.15 4.141 4.15a4.152 4.152 0 0 0 4.141-4.15 4.153 4.153 0 0 0-4.14-4.151 4.153 4.153 0 0 0-4.142 4.151Z" fill="#FF5EA6"/><path opacity=".69" d="M76.749 123.92a3.922 3.922 0 0 0 3.916 3.926 3.922 3.922 0 0 0 3.917-3.926 3.923 3.923 0 0 0-3.917-3.927 3.923 3.923 0 0 0-3.916 3.927Z" fill="#FF5EA6"/><path opacity=".77" d="M76.973 123.92a3.686 3.686 0 0 0 3.68 3.688c2.03 0 3.678-1.653 3.678-3.688a3.686 3.686 0 0 0-3.679-3.689 3.686 3.686 0 0 0-3.679 3.689Z" fill="#FF5EA6"/><path opacity=".85" d="M77.21 123.92a3.454 3.454 0 1 0 6.91 0 3.455 3.455 0 1 0-6.91 0Z" fill="#FF5EA6"/><path opacity=".92" d="M77.435 123.92a3.217 3.217 0 1 0 6.435 0 3.218 3.218 0 1 0-6.435 0Z" fill="#FF5EA6"/><path d="M77.672 123.92c0 1.652 1.345 3 2.993 3a3.003 3.003 0 0 0 2.994-3 3.003 3.003 0 0 0-2.994-3.001 3.003 3.003 0 0 0-2.993 3.001Z" fill="#FF5EA6"/><g opacity=".25" fill="#FF5EA6"><path opacity=".08" d="M56.23 123.92c0 3.185 2.571 5.776 5.75 5.776a5.767 5.767 0 0 0 5.762-5.776c0-3.2-2.571-5.777-5.763-5.777-3.191 0-5.75 2.577-5.75 5.777Z"/><path opacity=".15" d="M56.467 123.92c0 3.053 2.48 5.539 5.526 5.539s5.525-2.486 5.525-5.539c0-3.054-2.48-5.539-5.526-5.539s-5.525 2.485-5.525 5.539Z"/><path opacity=".23" d="M56.691 123.92a5.308 5.308 0 0 0 5.301 5.314 5.308 5.308 0 0 0 5.302-5.314c0-2.935-2.374-5.315-5.301-5.315-2.928 0-5.302 2.38-5.302 5.315Z"/><path opacity=".31" d="M56.929 123.92a5.071 5.071 0 0 0 5.063 5.076 5.071 5.071 0 0 0 5.064-5.076c0-2.803-2.268-5.077-5.063-5.077-2.796 0-5.064 2.274-5.064 5.077Z"/><path opacity=".38" d="M57.153 123.92c0 2.67 2.163 4.851 4.84 4.851a4.84 4.84 0 0 0 4.84-4.851 4.84 4.84 0 1 0-9.68 0Z"/><path opacity=".46" d="M57.39 123.92a4.603 4.603 0 1 0 9.205 0 4.604 4.604 0 0 0-4.602-4.614 4.604 4.604 0 0 0-4.603 4.614Z"/><path opacity=".54" d="M57.614 123.92a4.389 4.389 0 0 0 4.379 4.388 4.389 4.389 0 0 0 0-8.777 4.39 4.39 0 0 0-4.379 4.389Z"/><path opacity=".62" d="M57.852 123.92c0 2.3 1.86 4.15 4.14 4.15a4.152 4.152 0 0 0 4.141-4.15 4.153 4.153 0 0 0-4.14-4.151 4.153 4.153 0 0 0-4.141 4.151Z"/><path opacity=".69" d="M58.076 123.92a3.922 3.922 0 0 0 3.916 3.926 3.922 3.922 0 0 0 3.917-3.926 3.923 3.923 0 0 0-3.917-3.927 3.923 3.923 0 0 0-3.916 3.927Z"/><path opacity=".77" d="M58.3 123.92a3.686 3.686 0 0 0 3.68 3.688c2.03 0 3.679-1.653 3.679-3.688a3.686 3.686 0 0 0-3.68-3.689 3.686 3.686 0 0 0-3.679 3.689Z"/><path opacity=".85" d="M58.538 123.92a3.454 3.454 0 1 0 6.91 0 3.455 3.455 0 1 0-6.91 0Z"/><path opacity=".92" d="M58.762 123.92a3.217 3.217 0 1 0 6.435 0 3.218 3.218 0 1 0-6.435 0Z"/><path d="M58.999 123.92c0 1.652 1.345 3 2.993 3a3.003 3.003 0 0 0 2.994-3 3.003 3.003 0 0 0-2.994-3.001A3.003 3.003 0 0 0 59 123.92Z"/></g><path opacity=".08" d="M37.57 123.92c0 3.185 2.572 5.776 5.75 5.776a5.767 5.767 0 0 0 5.762-5.776c0-3.2-2.571-5.777-5.762-5.777-3.192 0-5.75 2.577-5.75 5.777Z" fill="#FF5EA6"/><path opacity=".15" d="M37.794 123.92c0 3.053 2.48 5.539 5.526 5.539s5.525-2.486 5.525-5.539c0-3.054-2.48-5.539-5.525-5.539-3.047 0-5.526 2.485-5.526 5.539Z" fill="#FF5EA6"/><path opacity=".23" d="M38.018 123.92a5.308 5.308 0 0 0 5.302 5.314 5.308 5.308 0 0 0 5.3-5.314c0-2.935-2.373-5.315-5.3-5.315-2.928 0-5.302 2.38-5.302 5.315Z" fill="#FF5EA6"/><path opacity=".31" d="M38.256 123.92a5.072 5.072 0 0 0 5.064 5.076 5.071 5.071 0 0 0 5.063-5.076c0-2.803-2.268-5.077-5.063-5.077a5.072 5.072 0 0 0-5.064 5.077Z" fill="#FF5EA6"/><path opacity=".38" d="M38.48 123.92c0 2.67 2.163 4.851 4.84 4.851a4.84 4.84 0 0 0 4.84-4.851 4.84 4.84 0 1 0-9.68 0Z" fill="#FF5EA6"/><path opacity=".46" d="M38.717 123.92a4.603 4.603 0 1 0 9.205 0 4.604 4.604 0 0 0-4.602-4.614 4.604 4.604 0 0 0-4.603 4.614Z" fill="#FF5EA6"/><path opacity=".54" d="M38.941 123.92a4.389 4.389 0 0 0 4.379 4.388 4.389 4.389 0 0 0 0-8.777 4.39 4.39 0 0 0-4.379 4.389Z" fill="#FF5EA6"/><path opacity=".62" d="M39.179 123.92c0 2.3 1.86 4.15 4.14 4.15a4.152 4.152 0 0 0 4.141-4.15 4.153 4.153 0 0 0-4.14-4.151 4.153 4.153 0 0 0-4.141 4.151Z" fill="#FF5EA6"/><path opacity=".69" d="M39.403 123.92a3.922 3.922 0 0 0 3.917 3.926 3.922 3.922 0 0 0 3.916-3.926 3.923 3.923 0 0 0-3.916-3.927 3.923 3.923 0 0 0-3.917 3.927Z" fill="#FF5EA6"/><path opacity=".77" d="M39.64 123.92a3.686 3.686 0 0 0 3.68 3.688c2.03 0 3.679-1.653 3.679-3.688a3.686 3.686 0 0 0-3.68-3.689 3.686 3.686 0 0 0-3.679 3.689Z" fill="#FF5EA6"/><path opacity=".85" d="M39.865 123.92a3.454 3.454 0 1 0 6.91 0 3.455 3.455 0 1 0-6.91 0Z" fill="#FF5EA6"/><path opacity=".92" d="M40.102 123.92a3.217 3.217 0 1 0 6.435 0 3.218 3.218 0 1 0-6.435 0Z" fill="#FF5EA6"/><path d="M40.326 123.92c0 1.652 1.345 3 2.994 3a3.003 3.003 0 0 0 2.993-3 3.003 3.003 0 0 0-2.993-3.001 3.003 3.003 0 0 0-2.994 3.001Z" fill="#FF5EA6"/><g opacity=".25" fill="#FF5EA6"><path opacity=".08" d="M18.897 123.92c0 3.185 2.572 5.776 5.75 5.776a5.767 5.767 0 0 0 5.762-5.776c0-3.2-2.571-5.777-5.762-5.777-3.192 0-5.75 2.577-5.75 5.777Z"/><path opacity=".15" d="M19.121 123.92c0 3.053 2.48 5.539 5.526 5.539s5.525-2.486 5.525-5.539c0-3.054-2.48-5.539-5.525-5.539-3.046 0-5.526 2.485-5.526 5.539Z"/><path opacity=".23" d="M19.359 123.92a5.308 5.308 0 0 0 5.3 5.314 5.308 5.308 0 0 0 5.302-5.314c0-2.935-2.374-5.315-5.301-5.315-2.928 0-5.301 2.38-5.301 5.315Z"/><path opacity=".31" d="M19.583 123.92a5.072 5.072 0 0 0 5.064 5.076 5.071 5.071 0 0 0 5.064-5.076c0-2.803-2.269-5.077-5.064-5.077a5.072 5.072 0 0 0-5.064 5.077Z"/><path opacity=".38" d="M19.82 123.92c0 2.67 2.163 4.851 4.84 4.851a4.84 4.84 0 0 0 4.84-4.851 4.84 4.84 0 1 0-9.68 0Z"/><path opacity=".46" d="M20.044 123.92a4.603 4.603 0 1 0 9.205 0 4.604 4.604 0 0 0-4.602-4.614 4.604 4.604 0 0 0-4.603 4.614Z"/><path opacity=".54" d="M20.282 123.92a4.389 4.389 0 0 0 4.378 4.388 4.389 4.389 0 0 0 0-8.777 4.39 4.39 0 0 0-4.378 4.389Z"/><path opacity=".62" d="M20.506 123.92c0 2.3 1.86 4.15 4.14 4.15a4.152 4.152 0 0 0 4.141-4.15 4.153 4.153 0 0 0-4.14-4.151 4.153 4.153 0 0 0-4.141 4.151Z"/><path opacity=".69" d="M20.743 123.92a3.922 3.922 0 0 0 3.917 3.926 3.922 3.922 0 0 0 3.916-3.926 3.923 3.923 0 0 0-3.916-3.927 3.923 3.923 0 0 0-3.917 3.927Z"/><path opacity=".77" d="M20.968 123.92a3.686 3.686 0 0 0 3.679 3.688c2.03 0 3.679-1.653 3.679-3.688a3.686 3.686 0 0 0-3.68-3.689 3.686 3.686 0 0 0-3.678 3.689Z"/><path opacity=".85" d="M21.192 123.92a3.454 3.454 0 1 0 6.91 0 3.455 3.455 0 1 0-6.91 0Z"/><path opacity=".92" d="M21.429 123.92a3.217 3.217 0 1 0 6.435 0 3.218 3.218 0 1 0-6.435 0Z"/><path d="M21.653 123.92c0 1.652 1.345 3 2.994 3a3.003 3.003 0 0 0 2.993-3 3.003 3.003 0 0 0-2.993-3.001 3.003 3.003 0 0 0-2.994 3.001Z"/></g><g opacity=".25" fill="#FF5EA6"><path opacity=".08" d="M.224 123.92c0 3.185 2.572 5.776 5.75 5.776a5.767 5.767 0 0 0 5.762-5.776c0-3.2-2.571-5.777-5.762-5.777-3.192 0-5.75 2.577-5.75 5.777Z"/><path opacity=".15" d="M.462 123.92c0 3.053 2.479 5.539 5.525 5.539 3.046 0 5.525-2.486 5.525-5.539 0-3.054-2.479-5.539-5.525-5.539-3.046 0-5.525 2.485-5.525 5.539Z"/><path opacity=".23" d="M.686 123.92a5.308 5.308 0 0 0 5.3 5.314 5.308 5.308 0 0 0 5.302-5.314c0-2.935-2.374-5.315-5.301-5.315-2.928 0-5.301 2.38-5.301 5.315Z"/><path opacity=".31" d="M.91 123.92a5.071 5.071 0 0 0 5.064 5.076 5.071 5.071 0 0 0 5.064-5.076 5.072 5.072 0 0 0-5.064-5.077A5.072 5.072 0 0 0 .91 123.92Z"/><path opacity=".38" d="M1.147 123.92c0 2.67 2.163 4.851 4.84 4.851a4.84 4.84 0 0 0 4.84-4.851 4.84 4.84 0 1 0-9.68 0Z"/><path opacity=".46" d="M1.371 123.92a4.603 4.603 0 1 0 9.205 0 4.604 4.604 0 0 0-4.602-4.614 4.604 4.604 0 0 0-4.603 4.614Z"/><path opacity=".54" d="M1.609 123.92a4.389 4.389 0 0 0 4.378 4.388 4.389 4.389 0 0 0 0-8.777 4.39 4.39 0 0 0-4.378 4.389Z"/><path opacity=".62" d="M1.833 123.92c0 2.3 1.86 4.15 4.14 4.15a4.152 4.152 0 0 0 4.141-4.15 4.153 4.153 0 0 0-4.14-4.151 4.153 4.153 0 0 0-4.141 4.151Z"/><path opacity=".69" d="M2.07 123.92a3.922 3.922 0 0 0 3.917 3.926 3.922 3.922 0 0 0 3.916-3.926 3.923 3.923 0 0 0-3.916-3.927 3.923 3.923 0 0 0-3.917 3.927Z"/><path opacity=".77" d="M2.295 123.92a3.686 3.686 0 0 0 3.679 3.688c2.03 0 3.679-1.653 3.679-3.688a3.686 3.686 0 0 0-3.68-3.689 3.686 3.686 0 0 0-3.678 3.689Z"/><path opacity=".85" d="M2.532 123.92a3.454 3.454 0 1 0 6.91 0 3.454 3.454 0 1 0-6.91 0Z"/><path opacity=".92" d="M2.756 123.92a3.217 3.217 0 1 0 6.435 0 3.218 3.218 0 1 0-6.435 0Z"/><path d="M2.993 123.92c0 1.652 1.346 3 2.994 3a3.003 3.003 0 0 0 2.993-3 3.003 3.003 0 0 0-2.993-3.001 3.003 3.003 0 0 0-2.994 3.001Z"/></g><g opacity=".25" fill="#FF5EA6"><path opacity=".08" d="M74.903 144.608c0 3.186 2.571 5.777 5.75 5.777a5.767 5.767 0 0 0 5.762-5.777 5.759 5.759 0 0 0-5.763-5.777c-3.191 0-5.75 2.578-5.75 5.777Z"/><path opacity=".15" d="M75.127 144.608c0 3.054 2.479 5.539 5.525 5.539 3.046 0 5.526-2.485 5.526-5.539s-2.48-5.539-5.526-5.539-5.525 2.485-5.525 5.539Z"/><path opacity=".23" d="M75.364 144.608a5.308 5.308 0 0 0 5.301 5.314 5.308 5.308 0 0 0 5.302-5.314 5.308 5.308 0 0 0-5.302-5.314 5.308 5.308 0 0 0-5.3 5.314Z"/><path opacity=".31" d="M75.588 144.608a5.07 5.07 0 0 0 5.064 5.076 5.07 5.07 0 0 0 5.064-5.076 5.071 5.071 0 0 0-5.064-5.076 5.071 5.071 0 0 0-5.064 5.076Z"/><path opacity=".38" d="M75.826 144.608c0 2.67 2.162 4.852 4.84 4.852a4.84 4.84 0 0 0 4.84-4.852 4.84 4.84 0 1 0-9.68 0Z"/><path opacity=".46" d="M76.05 144.608a4.604 4.604 0 0 0 4.602 4.614 4.604 4.604 0 0 0 4.602-4.614 4.603 4.603 0 1 0-9.204 0Z"/><path opacity=".54" d="M76.287 144.608c0 2.419 1.965 4.389 4.378 4.389 2.414 0 4.378-1.97 4.378-4.389 0-2.419-1.964-4.389-4.378-4.389-2.413 0-4.378 1.97-4.378 4.389Z"/><path opacity=".62" d="M76.511 144.608c0 2.3 1.86 4.151 4.141 4.151a4.153 4.153 0 0 0 4.141-4.151 4.153 4.153 0 0 0-4.14-4.151 4.153 4.153 0 0 0-4.142 4.151Z"/><path opacity=".69" d="M76.749 144.608a3.922 3.922 0 0 0 3.916 3.926 3.922 3.922 0 0 0 3.917-3.926 3.922 3.922 0 0 0-3.917-3.926 3.922 3.922 0 0 0-3.916 3.926Z"/><path opacity=".77" d="M76.973 144.608a3.685 3.685 0 0 0 3.68 3.688c2.03 0 3.678-1.652 3.678-3.688a3.685 3.685 0 0 0-3.679-3.688 3.685 3.685 0 0 0-3.679 3.688Z"/><path opacity=".85" d="M77.21 144.608a3.455 3.455 0 1 0 6.91 0 3.454 3.454 0 0 0-3.455-3.463 3.454 3.454 0 0 0-3.455 3.463Z"/><path opacity=".92" d="M77.435 144.608a3.218 3.218 0 1 0 6.435 0 3.217 3.217 0 1 0-6.435 0Z"/><path d="M77.672 144.608a3.003 3.003 0 0 0 2.993 3.001 3.003 3.003 0 0 0 2.994-3.001 3.004 3.004 0 0 0-2.994-3.001 3.004 3.004 0 0 0-2.993 3.001Z"/></g><g opacity=".25" fill="#FF5EA6"><path opacity=".08" d="M56.23 144.608c0 3.186 2.571 5.777 5.75 5.777a5.767 5.767 0 0 0 5.762-5.777 5.759 5.759 0 0 0-5.763-5.777c-3.191 0-5.75 2.578-5.75 5.777Z"/><path opacity=".15" d="M56.467 144.608c0 3.054 2.48 5.539 5.526 5.539s5.525-2.485 5.525-5.539-2.48-5.539-5.526-5.539-5.525 2.485-5.525 5.539Z"/><path opacity=".23" d="M56.691 144.608a5.308 5.308 0 0 0 5.301 5.314 5.308 5.308 0 0 0 5.302-5.314 5.308 5.308 0 0 0-5.301-5.314 5.308 5.308 0 0 0-5.302 5.314Z"/><path opacity=".31" d="M56.929 144.608a5.07 5.07 0 0 0 5.063 5.076 5.07 5.07 0 0 0 5.064-5.076 5.071 5.071 0 0 0-5.063-5.076 5.071 5.071 0 0 0-5.064 5.076Z"/><path opacity=".38" d="M57.153 144.608c0 2.67 2.163 4.852 4.84 4.852a4.84 4.84 0 0 0 4.84-4.852 4.84 4.84 0 1 0-9.68 0Z"/><path opacity=".46" d="M57.39 144.608a4.604 4.604 0 0 0 4.602 4.614 4.604 4.604 0 0 0 4.603-4.614 4.603 4.603 0 1 0-9.205 0Z"/><path opacity=".54" d="M57.614 144.608c0 2.419 1.965 4.389 4.379 4.389 2.413 0 4.378-1.97 4.378-4.389 0-2.419-1.965-4.389-4.378-4.389-2.414 0-4.379 1.97-4.379 4.389Z"/><path opacity=".62" d="M57.852 144.608c0 2.3 1.86 4.151 4.14 4.151a4.153 4.153 0 0 0 4.141-4.151 4.153 4.153 0 0 0-4.14-4.151 4.153 4.153 0 0 0-4.141 4.151Z"/><path opacity=".69" d="M58.076 144.608a3.922 3.922 0 0 0 3.916 3.926 3.922 3.922 0 0 0 3.917-3.926 3.922 3.922 0 0 0-3.917-3.926 3.922 3.922 0 0 0-3.916 3.926Z"/><path opacity=".77" d="M58.3 144.608a3.685 3.685 0 0 0 3.68 3.688c2.03 0 3.679-1.652 3.679-3.688a3.685 3.685 0 0 0-3.68-3.688 3.685 3.685 0 0 0-3.679 3.688Z"/><path opacity=".85" d="M58.538 144.608a3.455 3.455 0 1 0 6.91 0 3.454 3.454 0 0 0-3.455-3.463 3.454 3.454 0 0 0-3.456 3.463Z"/><path opacity=".92" d="M58.762 144.608a3.218 3.218 0 1 0 6.435 0 3.217 3.217 0 1 0-6.435 0Z"/><path d="M58.999 144.608a3.003 3.003 0 0 0 2.993 3.001 3.003 3.003 0 0 0 2.994-3.001 3.004 3.004 0 0 0-2.994-3.001A3.004 3.004 0 0 0 59 144.608Z"/></g><g opacity=".25" fill="#FF5EA6"><path opacity=".08" d="M37.57 144.608c0 3.186 2.572 5.777 5.75 5.777a5.767 5.767 0 0 0 5.762-5.777 5.759 5.759 0 0 0-5.762-5.777c-3.192 0-5.75 2.578-5.75 5.777Z"/><path opacity=".15" d="M37.794 144.608c0 3.054 2.48 5.539 5.526 5.539s5.525-2.485 5.525-5.539-2.48-5.539-5.525-5.539c-3.047 0-5.526 2.485-5.526 5.539Z"/><path opacity=".23" d="M38.018 144.608a5.308 5.308 0 0 0 5.302 5.314 5.308 5.308 0 0 0 5.3-5.314 5.308 5.308 0 0 0-5.3-5.314 5.308 5.308 0 0 0-5.302 5.314Z"/><path opacity=".31" d="M38.256 144.608a5.07 5.07 0 0 0 5.064 5.076 5.07 5.07 0 0 0 5.063-5.076 5.071 5.071 0 0 0-5.063-5.076 5.072 5.072 0 0 0-5.064 5.076Z"/><path opacity=".38" d="M38.48 144.608c0 2.67 2.163 4.852 4.84 4.852a4.84 4.84 0 0 0 4.84-4.852 4.84 4.84 0 1 0-9.68 0Z"/><path opacity=".46" d="M38.717 144.608a4.604 4.604 0 0 0 4.603 4.614 4.604 4.604 0 0 0 4.602-4.614 4.603 4.603 0 1 0-9.205 0Z"/><path opacity=".54" d="M38.941 144.608c0 2.419 1.965 4.389 4.379 4.389 2.413 0 4.378-1.97 4.378-4.389 0-2.419-1.965-4.389-4.378-4.389-2.414 0-4.379 1.97-4.379 4.389Z"/><path opacity=".62" d="M39.179 144.608c0 2.3 1.86 4.151 4.14 4.151a4.153 4.153 0 0 0 4.141-4.151 4.153 4.153 0 0 0-4.14-4.151 4.153 4.153 0 0 0-4.141 4.151Z"/><path opacity=".69" d="M39.403 144.608a3.922 3.922 0 0 0 3.917 3.926 3.922 3.922 0 0 0 3.916-3.926 3.922 3.922 0 0 0-3.916-3.926 3.922 3.922 0 0 0-3.917 3.926Z"/><path opacity=".77" d="M39.64 144.608a3.685 3.685 0 0 0 3.68 3.688c2.03 0 3.679-1.652 3.679-3.688a3.685 3.685 0 0 0-3.68-3.688 3.685 3.685 0 0 0-3.679 3.688Z"/><path opacity=".85" d="M39.865 144.608a3.455 3.455 0 1 0 6.91 0 3.454 3.454 0 0 0-3.455-3.463 3.454 3.454 0 0 0-3.455 3.463Z"/><path opacity=".92" d="M40.102 144.608a3.218 3.218 0 1 0 6.435 0 3.217 3.217 0 1 0-6.435 0Z"/><path d="M40.326 144.608a3.003 3.003 0 0 0 2.994 3.001 3.003 3.003 0 0 0 2.993-3.001 3.004 3.004 0 0 0-2.993-3.001 3.004 3.004 0 0 0-2.994 3.001Z"/></g><path opacity=".08" d="M18.897 144.608c0 3.186 2.572 5.777 5.75 5.777a5.767 5.767 0 0 0 5.762-5.777 5.759 5.759 0 0 0-5.762-5.777c-3.192 0-5.75 2.578-5.75 5.777Z" fill="#FF5EA6"/><path opacity=".15" d="M19.121 144.608c0 3.054 2.48 5.539 5.526 5.539s5.525-2.485 5.525-5.539-2.48-5.539-5.525-5.539c-3.046 0-5.526 2.485-5.526 5.539Z" fill="#FF5EA6"/><path opacity=".23" d="M19.359 144.608a5.308 5.308 0 0 0 5.3 5.314 5.308 5.308 0 0 0 5.302-5.314 5.308 5.308 0 0 0-5.301-5.314 5.308 5.308 0 0 0-5.301 5.314Z" fill="#FF5EA6"/><path opacity=".31" d="M19.583 144.608a5.07 5.07 0 0 0 5.064 5.076 5.07 5.07 0 0 0 5.064-5.076 5.071 5.071 0 0 0-5.064-5.076 5.072 5.072 0 0 0-5.064 5.076Z" fill="#FF5EA6"/><path opacity=".38" d="M19.82 144.608c0 2.67 2.163 4.852 4.84 4.852a4.84 4.84 0 0 0 4.84-4.852 4.84 4.84 0 1 0-9.68 0Z" fill="#FF5EA6"/><path opacity=".46" d="M20.044 144.608a4.604 4.604 0 0 0 4.603 4.614 4.604 4.604 0 0 0 4.602-4.614 4.604 4.604 0 0 0-4.602-4.614 4.604 4.604 0 0 0-4.603 4.614Z" fill="#FF5EA6"/><path opacity=".54" d="M20.282 144.608c0 2.419 1.965 4.389 4.378 4.389 2.413 0 4.378-1.97 4.378-4.389 0-2.419-1.965-4.389-4.378-4.389-2.413 0-4.378 1.97-4.378 4.389Z" fill="#FF5EA6"/><path opacity=".62" d="M20.506 144.608c0 2.3 1.86 4.151 4.14 4.151a4.153 4.153 0 0 0 4.141-4.151 4.153 4.153 0 0 0-4.14-4.151 4.153 4.153 0 0 0-4.141 4.151Z" fill="#FF5EA6"/><path opacity=".69" d="M20.743 144.608a3.922 3.922 0 0 0 3.917 3.926 3.922 3.922 0 0 0 3.916-3.926 3.922 3.922 0 0 0-3.916-3.926 3.922 3.922 0 0 0-3.917 3.926Z" fill="#FF5EA6"/><path opacity=".77" d="M20.968 144.608a3.685 3.685 0 0 0 3.679 3.688c2.03 0 3.679-1.652 3.679-3.688a3.685 3.685 0 0 0-3.68-3.688 3.685 3.685 0 0 0-3.678 3.688Z" fill="#FF5EA6"/><path opacity=".85" d="M21.192 144.608a3.454 3.454 0 1 0 6.91 0 3.454 3.454 0 0 0-3.455-3.463 3.454 3.454 0 0 0-3.455 3.463Z" fill="#FF5EA6"/><path opacity=".92" d="M21.429 144.608a3.218 3.218 0 1 0 6.435 0 3.217 3.217 0 1 0-6.435 0Z" fill="#FF5EA6"/><path d="M21.653 144.608a3.003 3.003 0 0 0 2.994 3.001 3.003 3.003 0 0 0 2.993-3.001 3.004 3.004 0 0 0-2.993-3.001 3.004 3.004 0 0 0-2.994 3.001Z" fill="#FF5EA6"/><g opacity=".25" fill="#FF5EA6"><path opacity=".08" d="M.224 144.608c0 3.186 2.572 5.777 5.75 5.777a5.767 5.767 0 0 0 5.762-5.777 5.759 5.759 0 0 0-5.762-5.777c-3.192 0-5.75 2.578-5.75 5.777Z"/><path opacity=".15" d="M.462 144.608c0 3.054 2.479 5.539 5.525 5.539 3.046 0 5.525-2.485 5.525-5.539s-2.479-5.539-5.525-5.539c-3.046 0-5.525 2.485-5.525 5.539Z"/><path opacity=".23" d="M.686 144.608a5.308 5.308 0 0 0 5.3 5.314 5.308 5.308 0 0 0 5.302-5.314 5.308 5.308 0 0 0-5.301-5.314 5.308 5.308 0 0 0-5.301 5.314Z"/><path opacity=".31" d="M.91 144.608a5.07 5.07 0 0 0 5.064 5.076 5.07 5.07 0 0 0 5.064-5.076 5.071 5.071 0 0 0-5.064-5.076 5.071 5.071 0 0 0-5.064 5.076Z"/><path opacity=".38" d="M1.147 144.608c0 2.67 2.163 4.852 4.84 4.852a4.84 4.84 0 0 0 4.84-4.852 4.84 4.84 0 1 0-9.68 0Z"/><path opacity=".46" d="M1.371 144.608a4.604 4.604 0 0 0 4.603 4.614 4.604 4.604 0 0 0 4.602-4.614 4.603 4.603 0 1 0-9.205 0Z"/><path opacity=".54" d="M1.609 144.608c0 2.419 1.965 4.389 4.378 4.389 2.413 0 4.378-1.97 4.378-4.389 0-2.419-1.965-4.389-4.378-4.389-2.413 0-4.378 1.97-4.378 4.389Z"/><path opacity=".62" d="M1.833 144.608c0 2.3 1.86 4.151 4.14 4.151a4.153 4.153 0 0 0 4.141-4.151 4.153 4.153 0 0 0-4.14-4.151 4.153 4.153 0 0 0-4.141 4.151Z"/><path opacity=".69" d="M2.07 144.608a3.922 3.922 0 0 0 3.917 3.926 3.922 3.922 0 0 0 3.916-3.926 3.922 3.922 0 0 0-3.916-3.926 3.922 3.922 0 0 0-3.917 3.926Z"/><path opacity=".77" d="M2.295 144.608a3.685 3.685 0 0 0 3.679 3.688c2.03 0 3.679-1.652 3.679-3.688a3.685 3.685 0 0 0-3.68-3.688 3.685 3.685 0 0 0-3.678 3.688Z"/><path opacity=".85" d="M2.532 144.608a3.454 3.454 0 1 0 6.91 0 3.454 3.454 0 0 0-3.455-3.463 3.454 3.454 0 0 0-3.455 3.463Z"/><path opacity=".92" d="M2.756 144.608a3.218 3.218 0 1 0 6.435 0 3.217 3.217 0 1 0-6.435 0Z"/><path d="M2.993 144.608a3.003 3.003 0 0 0 2.994 3.001 3.003 3.003 0 0 0 2.993-3.001 3.004 3.004 0 0 0-2.993-3.001 3.004 3.004 0 0 0-2.994 3.001Z"/></g><g opacity=".25" fill="#FF5EA6"><path opacity=".08" d="M74.903 165.31c0 3.186 2.571 5.777 5.75 5.777a5.767 5.767 0 0 0 5.762-5.777 5.759 5.759 0 0 0-5.763-5.777c-3.191 0-5.75 2.578-5.75 5.777Z"/><path opacity=".15" d="M75.127 165.31c0 3.054 2.479 5.539 5.525 5.539 3.046 0 5.526-2.485 5.526-5.539s-2.48-5.539-5.526-5.539-5.525 2.485-5.525 5.539Z"/><path opacity=".23" d="M75.364 165.31a5.308 5.308 0 0 0 5.301 5.314 5.308 5.308 0 0 0 5.302-5.314 5.308 5.308 0 0 0-5.302-5.314 5.308 5.308 0 0 0-5.3 5.314Z"/><path opacity=".31" d="M75.588 165.31a5.071 5.071 0 0 0 5.064 5.076 5.071 5.071 0 0 0 5.064-5.076 5.07 5.07 0 0 0-5.064-5.076 5.07 5.07 0 0 0-5.064 5.076Z"/><path opacity=".38" d="M75.826 165.31c0 2.67 2.162 4.851 4.84 4.851a4.84 4.84 0 0 0 4.84-4.851 4.84 4.84 0 1 0-9.68 0Z"/><path opacity=".46" d="M76.05 165.31a4.603 4.603 0 1 0 9.204 0 4.604 4.604 0 0 0-4.602-4.614 4.604 4.604 0 0 0-4.602 4.614Z"/><path opacity=".54" d="M76.287 165.31c0 2.419 1.965 4.389 4.378 4.389 2.414 0 4.378-1.97 4.378-4.389 0-2.419-1.964-4.389-4.378-4.389-2.413 0-4.378 1.97-4.378 4.389Z"/><path opacity=".62" d="M76.511 165.31c0 2.3 1.86 4.151 4.141 4.151a4.153 4.153 0 0 0 4.141-4.151 4.153 4.153 0 0 0-4.14-4.151 4.153 4.153 0 0 0-4.142 4.151Z"/><path opacity=".69" d="M76.749 165.31a3.922 3.922 0 0 0 3.916 3.926 3.922 3.922 0 0 0 3.917-3.926 3.922 3.922 0 0 0-3.917-3.926 3.922 3.922 0 0 0-3.916 3.926Z"/><path opacity=".77" d="M76.973 165.31a3.685 3.685 0 0 0 3.68 3.688c2.03 0 3.678-1.652 3.678-3.688a3.685 3.685 0 0 0-3.679-3.688 3.685 3.685 0 0 0-3.679 3.688Z"/><path opacity=".85" d="M77.21 165.31a3.454 3.454 0 0 0 3.455 3.463 3.454 3.454 0 0 0 3.455-3.463 3.455 3.455 0 1 0-6.91 0Z"/><path opacity=".92" d="M77.435 165.31a3.217 3.217 0 1 0 6.435 0 3.218 3.218 0 1 0-6.435 0Z"/><path d="M77.672 165.31a3.004 3.004 0 0 0 2.993 3.001 3.004 3.004 0 0 0 2.994-3.001 3.003 3.003 0 0 0-2.994-3.001 3.003 3.003 0 0 0-2.993 3.001Z"/></g><path opacity=".08" d="M56.23 165.31c0 3.186 2.571 5.777 5.75 5.777a5.767 5.767 0 0 0 5.762-5.777 5.759 5.759 0 0 0-5.763-5.777c-3.191 0-5.75 2.578-5.75 5.777Z" fill="#FF5EA6"/><path opacity=".15" d="M56.467 165.31c0 3.054 2.48 5.539 5.526 5.539s5.525-2.485 5.525-5.539-2.48-5.539-5.526-5.539-5.525 2.485-5.525 5.539Z" fill="#FF5EA6"/><path opacity=".23" d="M56.691 165.31a5.308 5.308 0 0 0 5.301 5.314 5.308 5.308 0 0 0 5.302-5.314 5.308 5.308 0 0 0-5.301-5.314 5.308 5.308 0 0 0-5.302 5.314Z" fill="#FF5EA6"/><path opacity=".31" d="M56.929 165.31a5.072 5.072 0 0 0 5.063 5.076 5.071 5.071 0 0 0 5.064-5.076 5.07 5.07 0 0 0-5.063-5.076 5.07 5.07 0 0 0-5.064 5.076Z" fill="#FF5EA6"/><path opacity=".38" d="M57.153 165.31c0 2.67 2.163 4.851 4.84 4.851a4.84 4.84 0 0 0 4.84-4.851 4.84 4.84 0 1 0-9.68 0Z" fill="#FF5EA6"/><path opacity=".46" d="M57.39 165.31a4.603 4.603 0 1 0 9.205 0 4.604 4.604 0 0 0-4.602-4.614 4.604 4.604 0 0 0-4.603 4.614Z" fill="#FF5EA6"/><path opacity=".54" d="M57.614 165.31c0 2.419 1.965 4.389 4.379 4.389 2.413 0 4.378-1.97 4.378-4.389 0-2.419-1.965-4.389-4.378-4.389-2.414 0-4.379 1.97-4.379 4.389Z" fill="#FF5EA6"/><path opacity=".62" d="M57.852 165.31c0 2.3 1.86 4.151 4.14 4.151a4.153 4.153 0 0 0 4.141-4.151 4.153 4.153 0 0 0-4.14-4.151 4.153 4.153 0 0 0-4.141 4.151Z" fill="#FF5EA6"/><path opacity=".69" d="M58.076 165.31a3.922 3.922 0 0 0 3.916 3.926 3.922 3.922 0 0 0 3.917-3.926 3.922 3.922 0 0 0-3.917-3.926 3.922 3.922 0 0 0-3.916 3.926Z" fill="#FF5EA6"/><path opacity=".77" d="M58.3 165.31a3.685 3.685 0 0 0 3.68 3.688c2.03 0 3.679-1.652 3.679-3.688a3.685 3.685 0 0 0-3.68-3.688 3.685 3.685 0 0 0-3.679 3.688Z" fill="#FF5EA6"/><path opacity=".85" d="M58.538 165.31a3.454 3.454 0 0 0 3.455 3.463 3.454 3.454 0 0 0 3.455-3.463 3.455 3.455 0 1 0-6.91 0Z" fill="#FF5EA6"/><path opacity=".92" d="M58.762 165.31a3.217 3.217 0 1 0 6.435 0 3.218 3.218 0 1 0-6.435 0Z" fill="#FF5EA6"/><path d="M58.999 165.31a3.004 3.004 0 0 0 2.993 3.001 3.004 3.004 0 0 0 2.994-3.001 3.003 3.003 0 0 0-2.994-3.001A3.003 3.003 0 0 0 59 165.31Z" fill="#FF5EA6"/><g opacity=".25" fill="#FF5EA6"><path opacity=".08" d="M37.57 165.31c0 3.186 2.572 5.777 5.75 5.777a5.767 5.767 0 0 0 5.762-5.777 5.759 5.759 0 0 0-5.762-5.777c-3.192 0-5.75 2.578-5.75 5.777Z"/><path opacity=".15" d="M37.794 165.31c0 3.054 2.48 5.539 5.526 5.539s5.525-2.485 5.525-5.539-2.48-5.539-5.525-5.539c-3.047 0-5.526 2.485-5.526 5.539Z"/><path opacity=".23" d="M38.018 165.31a5.308 5.308 0 0 0 5.302 5.314 5.308 5.308 0 0 0 5.3-5.314 5.308 5.308 0 0 0-5.3-5.314 5.308 5.308 0 0 0-5.302 5.314Z"/><path opacity=".31" d="M38.256 165.31a5.072 5.072 0 0 0 5.064 5.076 5.071 5.071 0 0 0 5.063-5.076 5.07 5.07 0 0 0-5.063-5.076 5.07 5.07 0 0 0-5.064 5.076Z"/><path opacity=".38" d="M38.48 165.31c0 2.67 2.163 4.851 4.84 4.851a4.84 4.84 0 0 0 4.84-4.851 4.84 4.84 0 1 0-9.68 0Z"/><path opacity=".46" d="M38.717 165.31a4.603 4.603 0 1 0 9.205 0 4.604 4.604 0 0 0-4.602-4.614 4.604 4.604 0 0 0-4.603 4.614Z"/><path opacity=".54" d="M38.941 165.31c0 2.419 1.965 4.389 4.379 4.389 2.413 0 4.378-1.97 4.378-4.389 0-2.419-1.965-4.389-4.378-4.389-2.414 0-4.379 1.97-4.379 4.389Z"/><path opacity=".62" d="M39.179 165.31c0 2.3 1.86 4.151 4.14 4.151a4.153 4.153 0 0 0 4.141-4.151 4.153 4.153 0 0 0-4.14-4.151 4.153 4.153 0 0 0-4.141 4.151Z"/><path opacity=".69" d="M39.403 165.31a3.922 3.922 0 0 0 3.917 3.926 3.922 3.922 0 0 0 3.916-3.926 3.922 3.922 0 0 0-3.916-3.926 3.922 3.922 0 0 0-3.917 3.926Z"/><path opacity=".77" d="M39.64 165.31a3.685 3.685 0 0 0 3.68 3.688c2.03 0 3.679-1.652 3.679-3.688a3.685 3.685 0 0 0-3.68-3.688 3.685 3.685 0 0 0-3.679 3.688Z"/><path opacity=".85" d="M39.865 165.31a3.454 3.454 0 0 0 3.455 3.463 3.454 3.454 0 0 0 3.455-3.463 3.455 3.455 0 1 0-6.91 0Z"/><path opacity=".92" d="M40.102 165.31a3.217 3.217 0 1 0 6.435 0 3.218 3.218 0 1 0-6.435 0Z"/><path d="M40.326 165.31a3.004 3.004 0 0 0 2.994 3.001 3.004 3.004 0 0 0 2.993-3.001 3.003 3.003 0 0 0-2.993-3.001 3.003 3.003 0 0 0-2.994 3.001Z"/></g><g opacity=".25" fill="#FF5EA6"><path opacity=".08" d="M18.897 165.31c0 3.186 2.572 5.777 5.75 5.777a5.767 5.767 0 0 0 5.762-5.777 5.759 5.759 0 0 0-5.762-5.777c-3.192 0-5.75 2.578-5.75 5.777Z"/><path opacity=".15" d="M19.121 165.31c0 3.054 2.48 5.539 5.526 5.539s5.525-2.485 5.525-5.539-2.48-5.539-5.525-5.539c-3.046 0-5.526 2.485-5.526 5.539Z"/><path opacity=".23" d="M19.359 165.31a5.308 5.308 0 0 0 5.3 5.314 5.308 5.308 0 0 0 5.302-5.314 5.308 5.308 0 0 0-5.301-5.314 5.308 5.308 0 0 0-5.301 5.314Z"/><path opacity=".31" d="M19.583 165.31a5.072 5.072 0 0 0 5.064 5.076 5.071 5.071 0 0 0 5.064-5.076 5.07 5.07 0 0 0-5.064-5.076 5.07 5.07 0 0 0-5.064 5.076Z"/><path opacity=".38" d="M19.82 165.31c0 2.67 2.163 4.851 4.84 4.851a4.84 4.84 0 0 0 4.84-4.851 4.84 4.84 0 1 0-9.68 0Z"/><path opacity=".46" d="M20.044 165.31a4.603 4.603 0 1 0 9.205 0 4.604 4.604 0 0 0-4.602-4.614 4.604 4.604 0 0 0-4.603 4.614Z"/><path opacity=".54" d="M20.282 165.31c0 2.419 1.965 4.389 4.378 4.389 2.413 0 4.378-1.97 4.378-4.389 0-2.419-1.965-4.389-4.378-4.389-2.413 0-4.378 1.97-4.378 4.389Z"/><path opacity=".62" d="M20.506 165.31c0 2.3 1.86 4.151 4.14 4.151a4.153 4.153 0 0 0 4.141-4.151 4.153 4.153 0 0 0-4.14-4.151 4.153 4.153 0 0 0-4.141 4.151Z"/><path opacity=".69" d="M20.743 165.31a3.922 3.922 0 0 0 3.917 3.926 3.922 3.922 0 0 0 3.916-3.926 3.922 3.922 0 0 0-3.916-3.926 3.922 3.922 0 0 0-3.917 3.926Z"/><path opacity=".77" d="M20.968 165.31a3.685 3.685 0 0 0 3.679 3.688c2.03 0 3.679-1.652 3.679-3.688a3.685 3.685 0 0 0-3.68-3.688 3.685 3.685 0 0 0-3.678 3.688Z"/><path opacity=".85" d="M21.192 165.31a3.454 3.454 0 0 0 3.455 3.463 3.454 3.454 0 0 0 3.455-3.463 3.455 3.455 0 1 0-6.91 0Z"/><path opacity=".92" d="M21.429 165.31a3.217 3.217 0 1 0 6.435 0 3.218 3.218 0 1 0-6.435 0Z"/><path d="M21.653 165.31a3.004 3.004 0 0 0 2.994 3.001 3.004 3.004 0 0 0 2.993-3.001 3.003 3.003 0 0 0-2.993-3.001 3.003 3.003 0 0 0-2.994 3.001Z"/></g><g opacity=".25" fill="#FF5EA6"><path opacity=".08" d="M.224 165.31c0 3.186 2.572 5.777 5.75 5.777a5.767 5.767 0 0 0 5.762-5.777 5.759 5.759 0 0 0-5.762-5.777c-3.192 0-5.75 2.578-5.75 5.777Z"/><path opacity=".15" d="M.462 165.31c0 3.054 2.479 5.539 5.525 5.539 3.046 0 5.525-2.485 5.525-5.539s-2.479-5.539-5.525-5.539c-3.046 0-5.525 2.485-5.525 5.539Z"/><path opacity=".23" d="M.686 165.31a5.308 5.308 0 0 0 5.3 5.314 5.308 5.308 0 0 0 5.302-5.314 5.308 5.308 0 0 0-5.301-5.314 5.308 5.308 0 0 0-5.301 5.314Z"/><path opacity=".31" d="M.91 165.31a5.071 5.071 0 0 0 5.064 5.076 5.071 5.071 0 0 0 5.064-5.076 5.07 5.07 0 0 0-5.064-5.076A5.07 5.07 0 0 0 .91 165.31Z"/><path opacity=".38" d="M1.147 165.31c0 2.67 2.163 4.851 4.84 4.851a4.84 4.84 0 0 0 4.84-4.851 4.84 4.84 0 1 0-9.68 0Z"/><path opacity=".46" d="M1.371 165.31a4.603 4.603 0 1 0 9.205 0 4.604 4.604 0 0 0-4.602-4.614 4.604 4.604 0 0 0-4.603 4.614Z"/><path opacity=".54" d="M1.609 165.31c0 2.419 1.965 4.389 4.378 4.389 2.413 0 4.378-1.97 4.378-4.389 0-2.419-1.965-4.389-4.378-4.389-2.413 0-4.378 1.97-4.378 4.389Z"/><path opacity=".62" d="M1.833 165.31c0 2.3 1.86 4.151 4.14 4.151a4.153 4.153 0 0 0 4.141-4.151 4.153 4.153 0 0 0-4.14-4.151 4.153 4.153 0 0 0-4.141 4.151Z"/><path opacity=".69" d="M2.07 165.31a3.922 3.922 0 0 0 3.917 3.926 3.922 3.922 0 0 0 3.916-3.926 3.922 3.922 0 0 0-3.916-3.926 3.922 3.922 0 0 0-3.917 3.926Z"/><path opacity=".77" d="M2.295 165.31a3.685 3.685 0 0 0 3.679 3.688c2.03 0 3.679-1.652 3.679-3.688a3.685 3.685 0 0 0-3.68-3.688 3.685 3.685 0 0 0-3.678 3.688Z"/><path opacity=".85" d="M2.532 165.31a3.454 3.454 0 0 0 3.455 3.463 3.454 3.454 0 0 0 3.455-3.463 3.454 3.454 0 1 0-6.91 0Z"/><path opacity=".92" d="M2.756 165.31a3.217 3.217 0 1 0 6.435 0 3.218 3.218 0 1 0-6.435 0Z"/><path d="M2.993 165.31a3.004 3.004 0 0 0 2.994 3.001 3.004 3.004 0 0 0 2.993-3.001 3.003 3.003 0 0 0-2.993-3.001 3.003 3.003 0 0 0-2.994 3.001Z"/></g><path opacity=".08" d="M74.903 185.998c0 3.186 2.571 5.777 5.75 5.777a5.767 5.767 0 0 0 5.762-5.777 5.759 5.759 0 0 0-5.763-5.777c-3.191 0-5.75 2.578-5.75 5.777Z" fill="#FF5EA6"/><path opacity=".15" d="M75.127 185.998c0 3.054 2.479 5.539 5.525 5.539 3.046 0 5.526-2.485 5.526-5.539 0-3.053-2.48-5.539-5.526-5.539s-5.525 2.486-5.525 5.539Z" fill="#FF5EA6"/><path opacity=".23" d="M75.364 185.998c0 2.935 2.374 5.315 5.301 5.315 2.928 0 5.302-2.38 5.302-5.315a5.308 5.308 0 0 0-5.302-5.314 5.308 5.308 0 0 0-5.3 5.314Z" fill="#FF5EA6"/><path opacity=".31" d="M75.588 185.998c0 2.803 2.269 5.077 5.064 5.077 2.796 0 5.064-2.274 5.064-5.077a5.071 5.071 0 0 0-5.064-5.076 5.071 5.071 0 0 0-5.064 5.076Z" fill="#FF5EA6"/><path opacity=".38" d="M75.826 185.998c0 2.671 2.162 4.852 4.84 4.852a4.84 4.84 0 0 0 4.84-4.852 4.84 4.84 0 1 0-9.68 0Z" fill="#FF5EA6"/><path opacity=".46" d="M76.05 185.998a4.604 4.604 0 0 0 4.602 4.614 4.604 4.604 0 0 0 4.602-4.614 4.603 4.603 0 1 0-9.204 0Z" fill="#FF5EA6"/><path opacity=".54" d="M76.287 185.998a4.39 4.39 0 0 0 4.378 4.389 4.39 4.39 0 0 0 0-8.778c-2.413 0-4.378 1.97-4.378 4.389Z" fill="#FF5EA6"/><path opacity=".62" d="M76.511 185.998a4.144 4.144 0 0 0 4.141 4.151 4.153 4.153 0 0 0 4.141-4.151 4.153 4.153 0 0 0-4.14-4.151 4.153 4.153 0 0 0-4.142 4.151Z" fill="#FF5EA6"/><path opacity=".69" d="M76.749 185.998a3.923 3.923 0 0 0 3.916 3.927 3.923 3.923 0 0 0 3.917-3.927 3.922 3.922 0 0 0-3.917-3.926 3.922 3.922 0 0 0-3.916 3.926Z" fill="#FF5EA6"/><path opacity=".77" d="M76.973 185.998a3.686 3.686 0 0 0 3.68 3.689c2.03 0 3.678-1.653 3.678-3.689a3.686 3.686 0 0 0-3.679-3.688 3.686 3.686 0 0 0-3.679 3.688Z" fill="#FF5EA6"/><path opacity=".85" d="M77.21 185.998a3.455 3.455 0 1 0 6.91 0 3.454 3.454 0 1 0-6.91 0Z" fill="#FF5EA6"/><path opacity=".92" d="M77.435 185.998a3.218 3.218 0 1 0 6.435 0 3.217 3.217 0 1 0-6.435 0Z" fill="#FF5EA6"/><path d="M77.672 185.998a3.003 3.003 0 0 0 2.993 3.001 3.003 3.003 0 0 0 2.994-3.001 3.004 3.004 0 0 0-2.994-3.001 3.004 3.004 0 0 0-2.993 3.001Z" fill="#FF5EA6"/><g opacity=".25" fill="#FF5EA6"><path opacity=".08" d="M56.23 185.998c0 3.186 2.571 5.777 5.75 5.777a5.767 5.767 0 0 0 5.762-5.777 5.759 5.759 0 0 0-5.763-5.777c-3.191 0-5.75 2.578-5.75 5.777Z"/><path opacity=".15" d="M56.467 185.998c0 3.054 2.48 5.539 5.526 5.539s5.525-2.485 5.525-5.539c0-3.053-2.48-5.539-5.526-5.539s-5.525 2.486-5.525 5.539Z"/><path opacity=".23" d="M56.691 185.998c0 2.935 2.374 5.315 5.301 5.315 2.928 0 5.302-2.38 5.302-5.315a5.308 5.308 0 0 0-5.301-5.314 5.308 5.308 0 0 0-5.302 5.314Z"/><path opacity=".31" d="M56.929 185.998c0 2.803 2.268 5.077 5.063 5.077 2.796 0 5.064-2.274 5.064-5.077a5.071 5.071 0 0 0-5.063-5.076 5.071 5.071 0 0 0-5.064 5.076Z"/><path opacity=".38" d="M57.153 185.998c0 2.671 2.163 4.852 4.84 4.852a4.84 4.84 0 0 0 4.84-4.852 4.84 4.84 0 1 0-9.68 0Z"/><path opacity=".46" d="M57.39 185.998a4.604 4.604 0 0 0 4.602 4.614 4.604 4.604 0 0 0 4.603-4.614 4.603 4.603 0 1 0-9.205 0Z"/><path opacity=".54" d="M57.614 185.998a4.39 4.39 0 0 0 4.379 4.389 4.39 4.39 0 0 0 0-8.778c-2.414 0-4.379 1.97-4.379 4.389Z"/><path opacity=".62" d="M57.852 185.998a4.144 4.144 0 0 0 4.14 4.151 4.153 4.153 0 0 0 4.141-4.151 4.153 4.153 0 0 0-4.14-4.151 4.153 4.153 0 0 0-4.141 4.151Z"/><path opacity=".69" d="M58.076 185.998a3.923 3.923 0 0 0 3.916 3.927 3.923 3.923 0 0 0 3.917-3.927 3.922 3.922 0 0 0-3.917-3.926 3.922 3.922 0 0 0-3.916 3.926Z"/><path opacity=".77" d="M58.3 185.998a3.686 3.686 0 0 0 3.68 3.689c2.03 0 3.679-1.653 3.679-3.689a3.686 3.686 0 0 0-3.68-3.688 3.686 3.686 0 0 0-3.679 3.688Z"/><path opacity=".85" d="M58.538 185.998a3.455 3.455 0 1 0 6.91 0 3.454 3.454 0 1 0-6.91 0Z"/><path opacity=".92" d="M58.762 185.998a3.218 3.218 0 1 0 6.435 0 3.217 3.217 0 1 0-6.435 0Z"/><path d="M58.999 185.998a3.003 3.003 0 0 0 2.993 3.001 3.003 3.003 0 0 0 2.994-3.001c0-1.652-1.345-3-2.994-3a3.003 3.003 0 0 0-2.993 3Z"/></g><path opacity=".08" d="M37.57 185.998c0 3.186 2.572 5.777 5.75 5.777a5.767 5.767 0 0 0 5.762-5.777 5.759 5.759 0 0 0-5.762-5.777c-3.192 0-5.75 2.578-5.75 5.777Z" fill="#FF5EA6"/><path opacity=".15" d="M37.794 185.998c0 3.054 2.48 5.539 5.526 5.539s5.525-2.485 5.525-5.539c0-3.053-2.48-5.539-5.525-5.539-3.047 0-5.526 2.486-5.526 5.539Z" fill="#FF5EA6"/><path opacity=".23" d="M38.018 185.998c0 2.935 2.374 5.315 5.302 5.315 2.927 0 5.3-2.38 5.3-5.315a5.308 5.308 0 0 0-5.3-5.314 5.308 5.308 0 0 0-5.302 5.314Z" fill="#FF5EA6"/><path opacity=".31" d="M38.256 185.998a5.072 5.072 0 0 0 5.064 5.077c2.795 0 5.063-2.274 5.063-5.077a5.071 5.071 0 0 0-5.063-5.076 5.072 5.072 0 0 0-5.064 5.076Z" fill="#FF5EA6"/><path opacity=".38" d="M38.48 185.998c0 2.671 2.163 4.852 4.84 4.852a4.84 4.84 0 0 0 4.84-4.852 4.84 4.84 0 1 0-9.68 0Z" fill="#FF5EA6"/><path opacity=".46" d="M38.717 185.998a4.604 4.604 0 0 0 4.603 4.614 4.604 4.604 0 0 0 4.602-4.614 4.603 4.603 0 1 0-9.205 0Z" fill="#FF5EA6"/><path opacity=".54" d="M38.941 185.998a4.39 4.39 0 0 0 4.379 4.389 4.39 4.39 0 0 0 0-8.778c-2.414 0-4.379 1.97-4.379 4.389Z" fill="#FF5EA6"/><path opacity=".62" d="M39.179 185.998a4.144 4.144 0 0 0 4.14 4.151 4.153 4.153 0 0 0 4.141-4.151 4.153 4.153 0 0 0-4.14-4.151 4.153 4.153 0 0 0-4.141 4.151Z" fill="#FF5EA6"/><path opacity=".69" d="M39.403 185.998a3.923 3.923 0 0 0 3.917 3.927 3.923 3.923 0 0 0 3.916-3.927 3.922 3.922 0 0 0-3.916-3.926 3.922 3.922 0 0 0-3.917 3.926Z" fill="#FF5EA6"/><path opacity=".77" d="M39.64 185.998a3.686 3.686 0 0 0 3.68 3.689c2.03 0 3.679-1.653 3.679-3.689a3.686 3.686 0 0 0-3.68-3.688 3.686 3.686 0 0 0-3.679 3.688Z" fill="#FF5EA6"/><path opacity=".85" d="M39.865 185.998a3.455 3.455 0 1 0 6.91 0 3.454 3.454 0 1 0-6.91 0Z" fill="#FF5EA6"/><path opacity=".92" d="M40.102 185.998a3.218 3.218 0 1 0 6.435 0 3.217 3.217 0 1 0-6.435 0Z" fill="#FF5EA6"/><path d="M40.326 185.998a3.003 3.003 0 0 0 2.994 3.001 3.003 3.003 0 0 0 2.993-3.001 3.004 3.004 0 0 0-2.993-3.001 3.004 3.004 0 0 0-2.994 3.001Z" fill="#FF5EA6"/><g opacity=".25" fill="#FF5EA6"><path opacity=".08" d="M18.897 185.998c0 3.186 2.572 5.777 5.75 5.777a5.767 5.767 0 0 0 5.762-5.777 5.759 5.759 0 0 0-5.762-5.777c-3.192 0-5.75 2.578-5.75 5.777Z"/><path opacity=".15" d="M19.121 185.998c0 3.054 2.48 5.539 5.526 5.539s5.525-2.485 5.525-5.539c0-3.053-2.48-5.539-5.525-5.539-3.046 0-5.526 2.486-5.526 5.539Z"/><path opacity=".23" d="M19.359 185.998c0 2.935 2.373 5.315 5.3 5.315 2.928 0 5.302-2.38 5.302-5.315a5.308 5.308 0 0 0-5.301-5.314 5.308 5.308 0 0 0-5.301 5.314Z"/><path opacity=".31" d="M19.583 185.998a5.072 5.072 0 0 0 5.064 5.077c2.795 0 5.064-2.274 5.064-5.077a5.071 5.071 0 0 0-5.064-5.076 5.072 5.072 0 0 0-5.064 5.076Z"/><path opacity=".38" d="M19.82 185.998c0 2.671 2.163 4.852 4.84 4.852a4.84 4.84 0 0 0 4.84-4.852 4.84 4.84 0 1 0-9.68 0Z"/><path opacity=".46" d="M20.044 185.998a4.604 4.604 0 0 0 4.603 4.614 4.604 4.604 0 0 0 4.602-4.614 4.603 4.603 0 1 0-9.205 0Z"/><path opacity=".54" d="M20.282 185.998a4.39 4.39 0 0 0 4.378 4.389 4.39 4.39 0 0 0 0-8.778c-2.413 0-4.378 1.97-4.378 4.389Z"/><path opacity=".62" d="M20.506 185.998a4.144 4.144 0 0 0 4.14 4.151 4.153 4.153 0 0 0 4.141-4.151 4.153 4.153 0 0 0-4.14-4.151 4.153 4.153 0 0 0-4.141 4.151Z"/><path opacity=".69" d="M20.743 185.998a3.923 3.923 0 0 0 3.917 3.927 3.923 3.923 0 0 0 3.916-3.927 3.922 3.922 0 0 0-3.916-3.926 3.922 3.922 0 0 0-3.917 3.926Z"/><path opacity=".77" d="M20.968 185.998a3.686 3.686 0 0 0 3.679 3.689c2.03 0 3.679-1.653 3.679-3.689a3.686 3.686 0 0 0-3.68-3.688 3.686 3.686 0 0 0-3.678 3.688Z"/><path opacity=".85" d="M21.192 185.998a3.454 3.454 0 1 0 6.91 0 3.454 3.454 0 1 0-6.91 0Z"/><path opacity=".92" d="M21.429 185.998a3.218 3.218 0 1 0 6.435 0 3.217 3.217 0 1 0-6.435 0Z"/><path d="M21.653 185.998a3.003 3.003 0 0 0 2.994 3.001 3.003 3.003 0 0 0 2.993-3.001c0-1.652-1.345-3-2.993-3a3.003 3.003 0 0 0-2.994 3Z"/></g><path opacity=".08" d="M.224 185.998c0 3.186 2.572 5.777 5.75 5.777a5.767 5.767 0 0 0 5.762-5.777 5.759 5.759 0 0 0-5.762-5.777c-3.192 0-5.75 2.578-5.75 5.777Z" fill="#FF5EA6"/><path opacity=".15" d="M.462 185.998c0 3.054 2.479 5.539 5.525 5.539 3.046 0 5.525-2.485 5.525-5.539 0-3.053-2.479-5.539-5.525-5.539-3.046 0-5.525 2.486-5.525 5.539Z" fill="#FF5EA6"/><path opacity=".23" d="M.686 185.998c0 2.935 2.373 5.315 5.3 5.315 2.928 0 5.302-2.38 5.302-5.315a5.308 5.308 0 0 0-5.301-5.314 5.308 5.308 0 0 0-5.301 5.314Z" fill="#FF5EA6"/><path opacity=".31" d="M.91 185.998a5.072 5.072 0 0 0 5.064 5.077 5.072 5.072 0 0 0 5.064-5.077 5.071 5.071 0 0 0-5.064-5.076 5.071 5.071 0 0 0-5.064 5.076Z" fill="#FF5EA6"/><path opacity=".38" d="M1.147 185.998c0 2.671 2.163 4.852 4.84 4.852a4.84 4.84 0 0 0 4.84-4.852 4.84 4.84 0 1 0-9.68 0Z" fill="#FF5EA6"/><path opacity=".46" d="M1.371 185.998a4.604 4.604 0 0 0 4.603 4.614 4.604 4.604 0 0 0 4.602-4.614 4.603 4.603 0 1 0-9.205 0Z" fill="#FF5EA6"/><path opacity=".54" d="M1.609 185.998a4.39 4.39 0 0 0 4.378 4.389 4.39 4.39 0 0 0 0-8.778c-2.413 0-4.378 1.97-4.378 4.389Z" fill="#FF5EA6"/><path opacity=".62" d="M1.833 185.998a4.144 4.144 0 0 0 4.14 4.151 4.153 4.153 0 0 0 4.141-4.151 4.153 4.153 0 0 0-4.14-4.151 4.153 4.153 0 0 0-4.141 4.151Z" fill="#FF5EA6"/><path opacity=".69" d="M2.07 185.998a3.923 3.923 0 0 0 3.917 3.927 3.923 3.923 0 0 0 3.916-3.927 3.922 3.922 0 0 0-3.916-3.926 3.922 3.922 0 0 0-3.917 3.926Z" fill="#FF5EA6"/><path opacity=".77" d="M2.295 185.998a3.686 3.686 0 0 0 3.679 3.689c2.03 0 3.679-1.653 3.679-3.689a3.686 3.686 0 0 0-3.68-3.688 3.686 3.686 0 0 0-3.678 3.688Z" fill="#FF5EA6"/><path opacity=".85" d="M2.532 185.998a3.454 3.454 0 1 0 6.91 0 3.454 3.454 0 1 0-6.91 0Z" fill="#FF5EA6"/><path opacity=".92" d="M2.756 185.998a3.218 3.218 0 1 0 6.435 0 3.217 3.217 0 1 0-6.435 0Z" fill="#FF5EA6"/><path d="M2.993 185.998a3.003 3.003 0 0 0 2.994 3.001 3.003 3.003 0 0 0 2.993-3.001 3.004 3.004 0 0 0-2.993-3.001 3.004 3.004 0 0 0-2.994 3.001Z" fill="#FF5EA6"/><path d="M80.665 123.92V99.675l17.012-17.053V0M24.277 146.115v-14.079l25.412-25.487V0M61.992 165.31V88.98l19.596-19.644V0" stroke="#FF5EA6" stroke-width=".2" stroke-miterlimit="10"/><path d="M43.32 185.998v-51.291l12.554-12.585V0M5.987 185.998l9.257-9.28v-65.806l21.443-21.509V0M80.665 187.109v-9.888l16.906-16.961v-60.043l9.297-9.32V0" stroke="#FF5EA6" stroke-width=".2" stroke-miterlimit="10"/></g><defs><clipPath id="clip0_281_6622"><path fill="#fff" transform="matrix(-1 0 0 1 107 0)" d="M0 0h107v192H0z"/></clipPath></defs></svg>