<svg width="394" height="306" viewBox="0 0 394 306" fill="none" xmlns="http://www.w3.org/2000/svg">
<path opacity="0.25" d="M183.392 305.382C265.445 305.382 331.962 237.02 331.962 152.691C331.962 68.3621 265.445 0 183.392 0C101.34 0 34.8231 68.3621 34.8231 152.691C34.8231 237.02 101.34 305.382 183.392 305.382Z" fill="url('#paint0_linear_104_16847')"></path>
<path d="M344.542 219.967C345.035 219.967 345.483 219.625 345.611 219.119L353.2 178.753C353.353 178.148 352.995 177.529 352.406 177.372C351.811 177.214 351.216 177.582 351.063 178.187L343.473 218.553C343.32 219.158 343.678 219.776 344.267 219.934C344.356 219.96 344.452 219.967 344.542 219.967Z" fill="#6A5FFF"></path>
<path d="M345.643 219.967C346.135 219.967 346.583 219.625 346.711 219.119L354.3 178.753C354.454 178.148 354.096 177.529 353.507 177.372C352.912 177.214 352.317 177.582 352.163 178.187L344.574 218.553C344.421 219.158 344.779 219.776 345.368 219.934C345.457 219.96 345.553 219.967 345.643 219.967Z" fill="#1C0A75"></path>
<path d="M375.73 219.967C376.223 219.967 376.671 219.625 376.799 219.119L384.388 178.753C384.541 178.148 384.183 177.529 383.594 177.372C383.006 177.214 382.404 177.582 382.257 178.187L374.668 218.553C374.514 219.158 374.873 219.776 375.461 219.934C375.551 219.96 375.647 219.967 375.737 219.967H375.73Z" fill="#6A5FFF"></path>
<path d="M376.831 219.967C377.323 219.967 377.771 219.625 377.899 219.119L385.488 178.753C385.642 178.148 385.284 177.529 384.695 177.372C384.106 177.214 383.505 177.582 383.358 178.187L375.768 218.553C375.615 219.158 375.973 219.776 376.562 219.934C376.652 219.96 376.747 219.967 376.837 219.967H376.831Z" fill="#1C0A75"></path>
<path d="M320.009 220.276H322.677L313.68 269.698H311.006L320.009 220.276Z" fill="#6A5FFF"></path>
<path d="M309.47 221.026H340.216V217.771H309.47V221.026Z" fill="#6A5FFF"></path>
<path d="M346.475 220.276H343.8L352.797 269.698H355.471L346.475 220.276Z" fill="#1C0A75"></path>
<path d="M377.9 220.276H375.231L384.228 269.698H386.903L377.9 220.276Z" fill="#1C0A75"></path>
<path d="M351.434 220.276H354.108L345.105 269.698H342.437L351.434 220.276Z" fill="#6A5FFF"></path>
<path d="M340.21 221.026H381.06V217.771H340.21V221.026Z" fill="#1C0A75"></path>
<path d="M349.296 187.894H388.509C389.405 187.894 390.192 187.263 390.403 186.362L392.975 175.537C393.276 174.274 392.342 173.058 391.081 173.058H351.869C350.973 173.058 350.186 173.689 349.975 174.59L347.402 185.415C347.102 186.677 348.029 187.894 349.296 187.894Z" fill="#1C0A75"></path>
<path d="M347.377 187.894H386.589C387.485 187.894 388.272 187.263 388.483 186.362L391.055 175.537C391.356 174.274 390.422 173.058 389.161 173.058H349.949C349.053 173.058 348.266 173.689 348.055 174.59L345.483 185.415C345.182 186.677 346.116 187.894 347.377 187.894Z" fill="#6A5FFF"></path>
<path d="M341.003 159.642C338.706 164.949 321.826 182.416 318.876 185.592C315.325 189.413 309.918 187.809 310.532 183.008C311.057 178.917 328.871 154.032 331.36 152.033C335.846 148.416 343.877 153.006 341.003 159.648V159.642Z" fill="#FFD2A7"></path>
<path d="M329.466 178.037C334.413 172.546 339.839 162.332 340.997 159.643C343.87 153.007 335.84 148.41 331.354 152.027C329.953 153.152 322.255 161.885 316.956 169.724C316.956 172.598 324.034 178.037 329.46 178.037H329.466Z" fill="#FF5EA6"></path>
<path d="M350.544 139.276C350.544 139.276 349.149 148.509 353.142 148.509C357.135 148.509 364.532 149.384 367.149 152.948C369.766 156.512 375.308 180.753 372.518 203.981C372.518 203.981 343.633 205.684 330.189 192.051C330.189 192.051 325.48 161.142 329.357 154.783C332.595 149.482 340.664 149.726 340.664 149.726C340.664 149.726 342.891 147.707 342.008 143.327C339.852 132.62 350.538 139.276 350.538 139.276H350.544Z" fill="#FF5EA6"></path>
<path d="M350.404 140.544C350.468 139.781 350.544 139.275 350.544 139.275C350.544 139.275 341.957 133.928 341.733 140.544H350.404Z" fill="url('#paint1_linear_104_16847')"></path>
<path d="M367.149 152.948C366.612 152.218 365.87 151.599 364.999 151.073L358.242 182.706L330.189 192.057C343.627 205.69 372.518 203.987 372.518 203.987C375.308 180.759 369.767 156.519 367.149 152.954V152.948Z" fill="#DB5A9B"></path>
<path d="M356.322 148.666C353.308 154.48 347.882 157.768 342.987 156.275C340.178 155.42 338.054 153.145 336.857 150.126C338.988 149.679 340.671 149.731 340.671 149.731C340.671 149.731 342.897 147.712 342.014 143.333C339.858 132.626 350.544 139.282 350.544 139.282C350.544 139.282 349.149 148.508 353.142 148.508C354.057 148.508 355.151 148.554 356.322 148.666Z" fill="#FFD2A7"></path>
<path d="M353.142 148.508C349.149 148.508 350.544 139.281 350.544 139.281C350.544 139.281 349.994 138.939 349.169 138.531V142.819C349.169 148.698 344.529 153.46 338.815 153.46C339.941 154.788 341.343 155.775 342.981 156.274C347.876 157.767 353.309 154.472 356.316 148.665C355.145 148.554 354.051 148.508 353.136 148.508H353.142Z" fill="#FFBC8E"></path>
<path d="M337.926 132.041H334.649V132.376H337.926V132.041Z" fill="#002DAA"></path>
<path d="M336.518 125.655V138.506C336.518 142.294 339.666 145.365 343.557 145.365C347.441 145.365 350.595 142.294 350.595 138.506V138.19C350.595 138.19 354.62 137.901 354.62 133.692C354.62 129.483 351.939 131.206 351.939 131.206V125.655H336.524H336.518Z" fill="#FFD2A7"></path>
<path d="M351.933 131.206V125.655H346.462C346.462 125.695 346.462 125.734 346.462 125.78V140.321C346.462 142.859 344.152 144.924 341.746 144.839C340.997 144.812 340.312 144.595 339.711 144.24C340.818 144.944 342.13 145.365 343.544 145.365C347.428 145.365 350.583 142.294 350.583 138.506V138.19C350.583 138.19 354.607 137.901 354.607 133.692C354.607 129.483 351.926 131.206 351.926 131.206H351.933Z" fill="#FFBC8E"></path>
<path d="M351.83 131.344C351.83 131.344 350.653 135.112 349.866 130.535C349.079 125.957 347.703 126.161 342.731 126.497C337.759 126.832 330.752 124.925 333.44 118.625C336.076 112.43 346.724 117.007 346.724 117.007C346.724 117.007 354.512 114.587 355.823 120.907C357.129 127.233 351.83 131.337 351.83 131.337V131.344Z" fill="#1C0A76"></path>
<path d="M274.583 214.95L272.868 209.787C267.448 212.51 262.4 213.26 262.988 204.533C263.257 200.508 258.624 199.18 258.624 199.18L257.216 220.053C257.216 220.053 257.895 222.191 262.848 219.52C268.229 216.62 274.577 214.956 274.577 214.956L274.583 214.95Z" fill="#FFD2A7"></path>
<path d="M262.092 212.931C263.366 211.701 265.516 213.319 265.746 211.471C263.839 210.938 262.694 208.952 262.995 204.533C263.263 200.508 258.631 199.18 258.631 199.18L257.223 220.053C257.223 220.053 257.863 222.059 262.406 219.757C262.553 217.567 260.173 214.785 262.092 212.931Z" fill="#1C0A76"></path>
<path d="M372.102 204.052C372.102 214.982 361.006 222.164 348.177 218.487C335.347 214.818 335.142 204.341 315.376 198.962C315.376 198.962 308.875 188.374 317.315 186.223C325.761 184.073 372.102 204.052 372.102 204.052Z" fill="#572EFF"></path>
<path d="M315.286 186.967C315.286 186.967 275.408 207.715 268.754 210.241C268.754 210.241 270.091 217.087 273.361 222.677C273.361 222.677 314.787 206.92 319.01 204.046C327.828 198.041 315.293 186.967 315.293 186.967H315.286Z" fill="#572EFF"></path>
<path d="M334.195 186.565H289.825V188.972H334.195V186.565Z" fill="#C8D3FB"></path>
<path d="M334.195 188.972H354.62V187.618C354.62 187.032 354.16 186.565 353.597 186.565H334.195V188.972Z" fill="#C8D3FB"></path>
<path d="M291.079 186.566H335.27L329.454 158.603C329.281 157.788 328.622 157.209 327.854 157.209H288.053C286.472 157.209 285.301 158.814 285.653 160.497L291.079 186.566Z" fill="#C8D3FB"></path>
<path d="M290.004 186.566H334.195L328.378 158.603C328.206 157.788 327.547 157.209 326.779 157.209H286.139C284.988 157.209 284.137 158.38 284.393 159.603L290.004 186.566Z" fill="url('#paint2_linear_104_16847')"></path>
<path opacity="0.34" d="M307.352 157.202L294.906 186.566H300.601L313.507 157.202H307.352Z" fill="#DAE7FF"></path>
<path opacity="0.34" d="M316.656 157.202L304.21 186.566H306.424L319.337 157.202H316.656Z" fill="#DAE7FF"></path>
<path d="M348.177 218.488C348.177 218.488 320.751 217.771 312.074 215.91C307.889 215.009 293.78 209.064 299.206 200.62C304.632 192.175 329.857 202.283 348.17 218.494L348.177 218.488Z" fill="#572EFF"></path>
<path d="M301.708 198.476C305.272 198.554 308.158 200.823 311.332 202.533C312.957 203.408 324.437 209.215 323.675 210.958C322.491 213.674 315.44 213.647 310.11 213.332C309.617 213.904 308.996 214.358 308.292 214.647C309.815 215.285 311.178 215.712 312.08 215.903C320.757 217.771 348.183 218.481 348.183 218.481C331.872 204.046 310.321 194.339 301.714 198.469L301.708 198.476Z" fill="#1C0A76"></path>
<path d="M278.192 264.509C282.876 262.924 285.135 255.197 286.216 251.061L292.333 253.468C292.333 253.468 288.686 260.544 288.968 265.364C289.249 270.185 287.918 269.731 287.918 269.731H271.979C271.979 269.731 273.508 266.101 278.192 264.516V264.509Z" fill="#FFD2A7"></path>
<path d="M278.192 264.509C279.606 264.029 280.796 262.99 281.801 261.662C282.454 260.721 285.627 261.761 286.152 263.576C286.152 263.576 287.438 264.529 288.961 264.384C288.961 264.72 288.948 265.049 288.968 265.364C289.249 270.185 287.918 269.731 287.918 269.731H271.979C271.979 269.731 273.508 266.101 278.192 264.516V264.509Z" fill="#1C0A76"></path>
<path d="M298.368 202.323C298.368 202.323 287.035 241.959 283.023 254.158C283.023 254.158 288.872 258.012 293.319 257.749C293.319 257.749 301.58 241.966 304.325 236.047C309.738 224.394 314.064 216.916 309.681 210.3C306.584 205.631 298.361 202.323 298.361 202.323H298.368Z" fill="#572EFF"></path>
<path d="M365.882 151.672C370.355 155.217 382.871 176.215 385.168 179.911C387.939 184.363 385.143 189.381 380.747 187.632C377.003 186.139 357.698 162.457 356.399 159.498C354.044 154.158 360.289 147.233 365.882 151.672Z" fill="#FFD2A7"></path>
<path d="M377.47 166.279C373.324 159.808 368.237 153.534 365.882 151.666C360.289 147.227 354.044 154.152 356.399 159.492C356.988 160.827 360.955 167.292 365.786 173.118C371.654 172.02 376.959 167.331 377.47 166.279Z" fill="#FF5EA6"></path>
<path d="M382.11 179.076C375.052 179.872 354.652 189.027 350.403 187.994C346.154 186.962 342.558 184.009 340.645 186.889C338.693 189.835 339.372 192.762 340.536 195.813C341.304 197.819 344.856 196.609 349.341 194.689C353.84 192.769 374.77 191.394 381.675 189.559C388.515 187.744 386.883 178.537 382.11 179.076Z" fill="#FFD2A7"></path>
<path d="M377.355 180.16L377.803 181.048C377.803 181.048 384.017 184.264 384.151 184.086C384.279 183.909 385.405 181.646 385.405 181.646C385.405 181.646 384.458 179.161 383.55 178.029C382.641 176.898 377.362 180.16 377.362 180.16H377.355Z" fill="#FFD2A7"></path>
<path d="M345.31 136.085C343.134 136.085 342.117 133.738 342.117 132.153C342.117 130.686 343.25 129.884 345.31 129.884C347.37 129.884 348.497 130.693 348.497 132.153C348.497 133.738 347.486 136.085 345.31 136.085ZM345.31 130.219C344.005 130.219 342.45 130.555 342.45 132.153C342.45 133.599 343.358 135.75 345.31 135.75C347.262 135.75 348.17 133.606 348.17 132.153C348.17 130.555 346.615 130.219 345.31 130.219Z" fill="#002DAA"></path>
<path d="M337.676 136.085C335.5 136.085 334.489 133.738 334.489 132.153C334.489 130.686 335.622 129.884 337.676 129.884C339.73 129.884 340.869 130.693 340.869 132.153C340.869 133.738 339.858 136.085 337.676 136.085ZM337.676 130.219C336.371 130.219 334.816 130.555 334.816 132.153C334.816 133.599 335.724 135.75 337.676 135.75C339.628 135.75 340.536 133.606 340.536 132.153C340.536 130.555 338.981 130.219 337.676 130.219Z" fill="#002DAA"></path>
<path d="M342.309 131.666H340.703V132.001H342.309V131.666Z" fill="#002DAA"></path>
<path d="M351.478 132.041H348.202V132.376H351.478V132.041Z" fill="#002DAA"></path>
<path d="M184.154 42.0495C151.04 48.7574 134.127 87.3017 80.7991 121.604C27.4708 155.907 39.2064 289.842 123.441 268.002C203.792 247.161 207.516 248.805 260.141 250.732C326.011 253.139 288.961 20.834 184.16 42.056L184.154 42.0495Z" fill="url('#paint3_linear_104_16847')"></path>
<path d="M94.3392 98.5542C109.882 85.842 122.827 63.6598 115.468 42.2865C108.11 20.9131 92.9123 60.7004 80.684 73.9518C62.9911 93.1286 61.8137 125.162 94.3456 98.5542H94.3392Z" fill="url('#paint4_linear_104_16847')"></path>
<path d="M265.317 162.661H245.57V151.547H265.317V162.661ZM246.678 161.523H264.21V152.691H246.678V161.523Z" fill="#C8D3FB"></path>
<path d="M225.241 80.7845H205.488V69.6704H225.241V80.7845ZM206.601 79.6468H224.134V70.8147H206.601V79.6468Z" fill="#C8D3FB"></path>
<path d="M206.582 80.7845H186.835V69.6704H206.582V80.7845ZM187.942 79.6468H205.475V70.8147H187.942V79.6468Z" fill="#C8D3FB"></path>
<path d="M215.924 90.7538H196.171V79.6396H215.924V90.7538ZM197.284 89.6161H214.817V80.7839H197.284V89.6161Z" fill="#C8D3FB"></path>
<path d="M142.574 124.538H122.821V113.424H142.574V124.538ZM123.934 123.4H141.467V114.568H123.934V123.4Z" fill="#C8D3FB"></path>
<path d="M156.114 134.507H136.361V123.393H156.114V134.507ZM137.474 133.369H155.007V124.537H137.474V133.369Z" fill="#C8D3FB"></path>
<path d="M270.756 228.031H251.003V216.924H270.756V228.031ZM252.116 226.894H269.649V218.062H252.116V226.894Z" fill="#C8D3FB"></path>
<path d="M252.091 228.031H232.338V216.924H252.091V228.031ZM233.451 226.894H250.984V218.062H233.451V226.894Z" fill="#C8D3FB"></path>
<path d="M261.433 238H241.68V226.886H261.433V238ZM242.793 236.862H260.326V228.03H242.793V236.862Z" fill="#C8D3FB"></path>
<path d="M183.815 181.384H147.22V264.332H183.815V181.384Z" fill="#6A6AE8"></path>
<path d="M183.815 232.659H147.22L147.405 218.658H184L183.815 232.659Z" fill="#312890"></path>
<path d="M215.566 270.324H121.509C122.104 268.798 124.081 267.371 127.153 266.088C128.24 265.641 129.463 265.201 130.819 264.793C135.151 263.484 140.757 262.393 147.226 261.636C153.625 260.906 160.881 260.485 168.541 260.485C173.89 260.485 179.041 260.689 183.828 261.064C197.726 262.156 208.7 264.688 213.339 267.884C214.472 268.666 215.233 269.482 215.572 270.33L215.566 270.324Z" fill="#312890"></path>
<path d="M259.174 81.3112V214.97C259.174 218.692 257.53 222.013 254.945 224.21C253.985 225.038 252.891 225.696 251.713 226.176C250.638 226.61 249.48 226.886 248.277 226.965C248.008 226.979 247.74 226.992 247.471 226.992H66.7216C60.2523 226.992 55.018 221.606 55.018 214.963V81.3112C55.018 76.3657 57.9167 72.1174 62.0504 70.2694C63.4901 69.6315 65.0643 69.2764 66.7216 69.2764H247.471C247.586 69.2764 247.701 69.2764 247.823 69.2895C247.938 69.2895 248.06 69.3027 248.175 69.3027C250.638 69.4605 252.891 70.3812 254.714 71.8609C257.434 74.0706 259.174 77.4771 259.174 81.3178V81.3112Z" fill="#312890"></path>
<path d="M266.565 81.3105V214.956C266.565 215.929 266.45 216.89 266.239 217.791C265.106 222.683 261.043 226.419 256.058 226.925C255.662 226.971 255.265 226.998 254.868 226.998H74.1187C74.0355 226.998 73.9779 226.998 73.9203 226.984C67.5343 226.886 62.4023 221.546 62.4023 214.956V81.3105C62.4023 74.6617 67.643 69.2822 74.1187 69.2822H254.868C255.162 69.2822 255.438 69.2954 255.732 69.3085C261.804 69.7755 266.572 74.9642 266.572 81.3105H266.565Z" fill="#6A5FFF"></path>
<path d="M247.906 76.0498H81.0551C75.1639 76.0498 70.3881 80.958 70.3881 87.0127V209.248C70.3881 215.303 75.1639 220.211 81.0551 220.211H247.906C253.797 220.211 258.573 215.303 258.573 209.248V87.0127C258.573 80.958 253.797 76.0498 247.906 76.0498Z" fill="url('#paint5_linear_104_16847')"></path>
<path opacity="0.6" d="M86.8845 82.7964H242.781C247.215 82.7964 250.811 86.4923 250.811 91.0498V108.326C250.811 112.877 247.215 116.579 242.781 116.579H86.8781C82.45 116.579 78.8475 112.883 78.8475 108.326V91.0498C78.8475 86.4989 82.4436 82.7964 86.8781 82.7964H86.8845Z" fill="#C8D3FB"></path>
<path opacity="0.6" d="M86.8845 181.923H242.781C247.215 181.923 250.811 185.619 250.811 190.176V207.452C250.811 212.003 247.215 215.706 242.781 215.706H86.8781C82.45 215.706 78.8475 212.01 78.8475 207.452V190.176C78.8475 185.619 82.4436 181.923 86.8781 181.923H86.8845Z" fill="#C8D3FB"></path>
<g opacity="0.6">
<path d="M124.619 123.668H84.1265C80.1614 123.668 76.947 126.972 76.947 131.047V167.46C76.947 171.535 80.1614 174.839 84.1265 174.839H124.619C128.584 174.839 131.798 171.535 131.798 167.46V131.047C131.798 126.972 128.584 123.668 124.619 123.668Z" fill="#C8D3FB"></path>
<path d="M144.59 123.668H185.082C189.043 123.668 192.261 126.976 192.261 131.047V167.46C192.261 171.531 189.043 174.839 185.082 174.839H144.59C140.629 174.839 137.41 171.531 137.41 167.46V131.047C137.41 126.976 140.629 123.668 144.59 123.668Z" fill="#C8D3FB"></path>
<path d="M205.053 123.668H245.545C249.506 123.668 252.724 126.976 252.724 131.047V167.46C252.724 171.531 249.506 174.839 245.545 174.839H205.053C201.092 174.839 197.873 171.531 197.873 167.46V131.047C197.873 126.976 201.092 123.668 205.053 123.668Z" fill="#C8D3FB"></path>
</g>
<path d="M82.6421 96.0017H127.127C130.435 96.0017 133.123 98.7638 133.123 102.164V133.711C133.123 137.111 130.435 139.873 127.127 139.873H82.6356C79.3274 139.873 76.6399 137.111 76.6399 133.711V102.157C76.6399 98.7572 79.3274 95.9951 82.6356 95.9951L82.6421 96.0017Z" fill="#FF5EA6"></path>
<path d="M99.5352 125.556L85.3937 119.236V115.737L99.5352 109.443V113.567L89.6681 117.44L99.5352 121.458V125.549V125.556Z" fill="white"></path>
<path d="M100.847 128.332L105.953 106.406H108.922L103.758 128.332H100.847Z" fill="white"></path>
<path d="M110.228 125.57V121.479L120.108 117.488L110.228 113.542V109.478L124.388 115.771V119.244L110.228 125.577V125.57Z" fill="white"></path>
<path d="M203.773 97.6001L200.593 105.459L205.238 107.951C204.803 110.457 204.816 112.976 205.232 115.416L200.573 117.888L203.728 125.754L208.726 124.136C210.108 126.168 211.823 127.957 213.851 129.423L212.264 134.559L219.911 137.828L222.336 133.053C224.768 133.494 227.225 133.487 229.599 133.06L232.005 137.848L239.651 134.605L238.077 129.469C240.055 128.049 241.802 126.286 243.222 124.202L248.22 125.833L251.4 117.974L246.754 115.481C247.189 112.982 247.177 110.457 246.761 108.017L251.419 105.544L248.264 97.6855L243.267 99.3033C241.885 97.2712 240.163 95.4759 238.141 94.0159L239.728 88.8797L232.082 85.6113L229.656 90.3857C227.218 89.9385 224.768 89.9517 222.394 90.3726L219.988 85.585L212.341 88.8271L213.915 93.9633C211.938 95.3838 210.191 97.1529 208.77 99.231L203.773 97.6001ZM231.742 97.5343C239.364 100.79 242.973 109.786 239.799 117.619C236.625 125.451 227.878 129.154 220.256 125.898C212.635 122.636 209.026 113.646 212.2 105.814C215.374 97.9815 224.121 94.2724 231.742 97.5343Z" fill="#FF5EA6"></path>
<path d="M170.985 89.5378L168.547 94.2334L171.299 96.0682C170.883 97.6005 170.742 99.1722 170.857 100.718L167.818 101.974L169.321 107.057L172.527 106.36C173.269 107.708 174.236 108.932 175.413 109.964L174.127 113.062L178.696 115.567L180.481 112.746C181.972 113.173 183.501 113.318 184.999 113.2L186.221 116.324L191.167 114.778L190.482 111.483C191.794 110.72 192.984 109.734 193.989 108.517L197.003 109.839L199.441 105.144L196.696 103.309C197.112 101.776 197.253 100.205 197.137 98.6659L200.177 97.4098L198.673 92.3262L195.467 93.0233C194.725 91.6751 193.759 90.4519 192.581 89.4194L193.868 86.3219L189.299 83.8163L187.513 86.6376C186.022 86.2102 184.5 86.0655 182.996 86.1839L181.774 83.0601L176.827 84.6055L177.506 87.9003C176.194 88.6632 175.004 89.6562 173.999 90.8662L170.985 89.5444V89.5378ZM188.396 91.2082C192.952 93.7007 194.674 99.5208 192.249 104.203C189.817 108.879 184.16 110.655 179.604 108.156C175.048 105.657 173.327 99.843 175.752 95.1606C178.177 90.4782 183.84 88.7092 188.396 91.2016V91.2082Z" fill="#6A5FFF"></path>
<path d="M114.201 169.132H199.665V125.701L114.201 125.701V169.132Z" fill="#6A6AE8"></path>
<path d="M199.665 169.132L186.202 149.048C185.683 148.278 184.57 148.298 184.077 149.094L176.667 161.161L170.723 154.684C170.134 154.039 169.104 154.171 168.688 154.947L161.092 169.132H199.665Z" fill="#1C0A76"></path>
<path d="M173.57 135.915C173.57 138.309 175.458 140.249 177.787 140.249C180.116 140.249 182.004 138.309 182.004 135.915C182.004 133.521 180.116 131.581 177.787 131.581C175.458 131.581 173.57 133.521 173.57 135.915Z" fill="white"></path>
<path d="M142.209 137.427C142.427 137.894 142.894 137.954 143.342 138.046C144.935 138.355 146.81 138.197 148.442 138.23C149.434 138.249 150.419 138.236 151.411 138.236C152.396 138.684 153.439 139.137 154.534 139.111C155.73 139.085 156.696 138.335 157.899 138.236C158.603 138.177 160.657 138.46 160.081 136.961C159.429 135.27 155.634 135.632 154.322 135.218C153.625 134.994 153.132 134.876 152.39 134.771C151.469 134.639 151.635 134.606 150.809 134.073C150.406 133.81 150.202 133.659 149.786 133.514C149.011 133.245 148.186 133.278 147.444 133.633C146.605 134.034 146.234 134.935 145.326 135.191C144.571 135.408 141.339 135.52 142.216 137.427H142.209Z" fill="white"></path>
<path d="M131.139 141.208C132.541 141.681 134.23 141.806 135.689 141.662C136.527 141.576 137.877 141.497 138.498 140.82C138.946 140.327 138.907 139.629 138.428 139.169C137.986 138.742 137.449 138.742 136.924 138.88C135.983 138.479 135.043 138.189 134 138.354C133.596 138.419 133.219 138.656 132.79 138.63C132.451 138.61 132.061 138.354 131.728 138.301C131.35 138.235 130.96 138.216 130.595 138.36C128.836 139.051 129.84 140.78 131.139 141.214V141.208Z" fill="white"></path>
<path d="M151.117 169.132L142.708 153.684C142.414 153.151 141.672 153.132 141.358 153.658L134.985 164.345L132.285 160.024C131.952 159.491 131.184 159.544 130.922 160.116L126.762 169.132L119.762 152.435C119.48 151.764 118.546 151.797 118.309 152.481L114.201 164.338V169.126H151.117V169.132Z" fill="#1C0A76"></path>
<path d="M118.777 166.356H117.861V165.415C117.861 165.31 117.945 165.225 118.047 165.225C118.15 165.225 118.233 165.31 118.233 165.415V165.981H118.783C118.886 165.981 118.969 166.067 118.969 166.172C118.969 166.277 118.886 166.363 118.783 166.363L118.777 166.356Z" fill="white"></path>
<path d="M193.656 166.357H192.217C192.114 166.357 192.031 166.272 192.031 166.166C192.031 166.061 192.114 165.976 192.217 165.976H193.656C193.759 165.976 193.842 166.061 193.842 166.166C193.842 166.272 193.759 166.357 193.656 166.357ZM190.777 166.357H189.337C189.235 166.357 189.151 166.272 189.151 166.166C189.151 166.061 189.235 165.976 189.337 165.976H190.777C190.879 165.976 190.962 166.061 190.962 166.166C190.962 166.272 190.879 166.357 190.777 166.357ZM187.897 166.357H186.458C186.355 166.357 186.272 166.272 186.272 166.166C186.272 166.061 186.355 165.976 186.458 165.976H187.897C188 165.976 188.083 166.061 188.083 166.166C188.083 166.272 188 166.357 187.897 166.357ZM185.018 166.357H183.578C183.476 166.357 183.392 166.272 183.392 166.166C183.392 166.061 183.476 165.976 183.578 165.976H185.018C185.12 165.976 185.203 166.061 185.203 166.166C185.203 166.272 185.12 166.357 185.018 166.357ZM182.138 166.357H180.699C180.596 166.357 180.513 166.272 180.513 166.166C180.513 166.061 180.596 165.976 180.699 165.976H182.138C182.241 165.976 182.324 166.061 182.324 166.166C182.324 166.272 182.241 166.357 182.138 166.357ZM179.259 166.357H177.819C177.717 166.357 177.633 166.272 177.633 166.166C177.633 166.061 177.717 165.976 177.819 165.976H179.259C179.361 165.976 179.444 166.061 179.444 166.166C179.444 166.272 179.361 166.357 179.259 166.357ZM176.379 166.357H174.94C174.837 166.357 174.754 166.272 174.754 166.166C174.754 166.061 174.837 165.976 174.94 165.976H176.379C176.482 165.976 176.565 166.061 176.565 166.166C176.565 166.272 176.482 166.357 176.379 166.357ZM173.5 166.357H172.06C171.958 166.357 171.874 166.272 171.874 166.166C171.874 166.061 171.958 165.976 172.06 165.976H173.5C173.602 165.976 173.685 166.061 173.685 166.166C173.685 166.272 173.602 166.357 173.5 166.357ZM170.62 166.357H169.181C169.078 166.357 168.995 166.272 168.995 166.166C168.995 166.061 169.078 165.976 169.181 165.976H170.62C170.723 165.976 170.806 166.061 170.806 166.166C170.806 166.272 170.723 166.357 170.62 166.357ZM167.741 166.357H166.301C166.199 166.357 166.115 166.272 166.115 166.166C166.115 166.061 166.199 165.976 166.301 165.976H167.741C167.843 165.976 167.926 166.061 167.926 166.166C167.926 166.272 167.843 166.357 167.741 166.357ZM164.861 166.357H163.422C163.319 166.357 163.236 166.272 163.236 166.166C163.236 166.061 163.319 165.976 163.422 165.976H164.861C164.964 165.976 165.047 166.061 165.047 166.166C165.047 166.272 164.964 166.357 164.861 166.357ZM161.982 166.357H160.542C160.44 166.357 160.357 166.272 160.357 166.166C160.357 166.061 160.44 165.976 160.542 165.976H161.982C162.084 165.976 162.167 166.061 162.167 166.166C162.167 166.272 162.084 166.357 161.982 166.357ZM159.102 166.357H157.663C157.56 166.357 157.477 166.272 157.477 166.166C157.477 166.061 157.56 165.976 157.663 165.976H159.102C159.205 165.976 159.288 166.061 159.288 166.166C159.288 166.272 159.205 166.357 159.102 166.357ZM156.223 166.357H154.783C154.681 166.357 154.598 166.272 154.598 166.166C154.598 166.061 154.681 165.976 154.783 165.976H156.223C156.325 165.976 156.408 166.061 156.408 166.166C156.408 166.272 156.325 166.357 156.223 166.357ZM153.343 166.357H151.904C151.801 166.357 151.718 166.272 151.718 166.166C151.718 166.061 151.801 165.976 151.904 165.976H153.343C153.446 165.976 153.529 166.061 153.529 166.166C153.529 166.272 153.446 166.357 153.343 166.357ZM150.464 166.357H149.024C148.922 166.357 148.839 166.272 148.839 166.166C148.839 166.061 148.922 165.976 149.024 165.976H150.464C150.566 165.976 150.649 166.061 150.649 166.166C150.649 166.272 150.566 166.357 150.464 166.357ZM147.584 166.357H146.145C146.042 166.357 145.959 166.272 145.959 166.166C145.959 166.061 146.042 165.976 146.145 165.976H147.584C147.687 165.976 147.77 166.061 147.77 166.166C147.77 166.272 147.687 166.357 147.584 166.357ZM144.705 166.357H143.265C143.163 166.357 143.08 166.272 143.08 166.166C143.08 166.061 143.163 165.976 143.265 165.976H144.705C144.807 165.976 144.89 166.061 144.89 166.166C144.89 166.272 144.807 166.357 144.705 166.357ZM141.825 166.357H140.386C140.283 166.357 140.2 166.272 140.2 166.166C140.2 166.061 140.283 165.976 140.386 165.976H141.825C141.928 165.976 142.011 166.061 142.011 166.166C142.011 166.272 141.928 166.357 141.825 166.357ZM138.946 166.357H137.506C137.404 166.357 137.321 166.272 137.321 166.166C137.321 166.061 137.404 165.976 137.506 165.976H138.946C139.048 165.976 139.131 166.061 139.131 166.166C139.131 166.272 139.048 166.357 138.946 166.357ZM136.066 166.357H134.627C134.524 166.357 134.441 166.272 134.441 166.166C134.441 166.061 134.524 165.976 134.627 165.976H136.066C136.169 165.976 136.252 166.061 136.252 166.166C136.252 166.272 136.169 166.357 136.066 166.357ZM133.187 166.357H131.747C131.645 166.357 131.562 166.272 131.562 166.166C131.562 166.061 131.645 165.976 131.747 165.976H133.187C133.289 165.976 133.372 166.061 133.372 166.166C133.372 166.272 133.289 166.357 133.187 166.357ZM130.307 166.357H128.868C128.765 166.357 128.682 166.272 128.682 166.166C128.682 166.061 128.765 165.976 128.868 165.976H130.307C130.41 165.976 130.493 166.061 130.493 166.166C130.493 166.272 130.41 166.357 130.307 166.357ZM127.428 166.357H125.988C125.886 166.357 125.803 166.272 125.803 166.166C125.803 166.061 125.886 165.976 125.988 165.976H127.428C127.53 165.976 127.613 166.061 127.613 166.166C127.613 166.272 127.53 166.357 127.428 166.357ZM124.548 166.357H123.109C123.006 166.357 122.923 166.272 122.923 166.166C122.923 166.061 123.006 165.976 123.109 165.976H124.548C124.651 165.976 124.734 166.061 124.734 166.166C124.734 166.272 124.651 166.357 124.548 166.357ZM121.669 166.357H120.229C120.127 166.357 120.044 166.272 120.044 166.166C120.044 166.061 120.127 165.976 120.229 165.976H121.669C121.771 165.976 121.854 166.061 121.854 166.166C121.854 166.272 121.771 166.357 121.669 166.357Z" fill="white"></path>
<path d="M196.012 166.357H195.096C194.994 166.357 194.91 166.272 194.91 166.166C194.91 166.061 194.994 165.975 195.096 165.975H195.647V165.41C195.647 165.304 195.73 165.219 195.832 165.219C195.935 165.219 196.018 165.304 196.018 165.41V166.35L196.012 166.357Z" fill="white"></path>
<path d="M195.826 164.042C195.723 164.042 195.64 163.957 195.64 163.852V162.286C195.64 162.181 195.723 162.096 195.826 162.096C195.928 162.096 196.011 162.181 196.011 162.286V163.852C196.011 163.957 195.928 164.042 195.826 164.042ZM195.826 160.912C195.723 160.912 195.64 160.826 195.64 160.721V159.156C195.64 159.051 195.723 158.965 195.826 158.965C195.928 158.965 196.011 159.051 196.011 159.156V160.721C196.011 160.826 195.928 160.912 195.826 160.912ZM195.826 157.782C195.723 157.782 195.64 157.696 195.64 157.591V156.026C195.64 155.92 195.723 155.835 195.826 155.835C195.928 155.835 196.011 155.92 196.011 156.026V157.591C196.011 157.696 195.928 157.782 195.826 157.782ZM195.826 154.651C195.723 154.651 195.64 154.566 195.64 154.46V152.895C195.64 152.79 195.723 152.705 195.826 152.705C195.928 152.705 196.011 152.79 196.011 152.895V154.46C196.011 154.566 195.928 154.651 195.826 154.651ZM195.826 151.521C195.723 151.521 195.64 151.435 195.64 151.33V149.765C195.64 149.66 195.723 149.574 195.826 149.574C195.928 149.574 196.011 149.66 196.011 149.765V151.33C196.011 151.435 195.928 151.521 195.826 151.521ZM195.826 148.39C195.723 148.39 195.64 148.305 195.64 148.2V146.635C195.64 146.529 195.723 146.444 195.826 146.444C195.928 146.444 196.011 146.529 196.011 146.635V148.2C196.011 148.305 195.928 148.39 195.826 148.39ZM195.826 145.26C195.723 145.26 195.64 145.175 195.64 145.069V143.504C195.64 143.399 195.723 143.313 195.826 143.313C195.928 143.313 196.011 143.399 196.011 143.504V145.069C196.011 145.175 195.928 145.26 195.826 145.26ZM195.826 142.13C195.723 142.13 195.64 142.044 195.64 141.939V140.374C195.64 140.269 195.723 140.183 195.826 140.183C195.928 140.183 196.011 140.269 196.011 140.374V141.939C196.011 142.044 195.928 142.13 195.826 142.13ZM195.826 138.999C195.723 138.999 195.64 138.914 195.64 138.809V137.243C195.64 137.138 195.723 137.053 195.826 137.053C195.928 137.053 196.011 137.138 196.011 137.243V138.809C196.011 138.914 195.928 138.999 195.826 138.999ZM195.826 135.869C195.723 135.869 195.64 135.783 195.64 135.678V134.113C195.64 134.008 195.723 133.922 195.826 133.922C195.928 133.922 196.011 134.008 196.011 134.113V135.678C196.011 135.783 195.928 135.869 195.826 135.869ZM195.826 132.739C195.723 132.739 195.64 132.653 195.64 132.548V130.983C195.64 130.877 195.723 130.792 195.826 130.792C195.928 130.792 196.011 130.877 196.011 130.983V132.548C196.011 132.653 195.928 132.739 195.826 132.739Z" fill="white"></path>
<path d="M195.826 129.602C195.724 129.602 195.64 129.517 195.64 129.411V128.845H195.09C194.987 128.845 194.904 128.76 194.904 128.655C194.904 128.549 194.987 128.464 195.09 128.464H196.005V129.405C196.005 129.51 195.922 129.596 195.82 129.596L195.826 129.602Z" fill="white"></path>
<path d="M193.656 128.85H192.217C192.114 128.85 192.031 128.765 192.031 128.659C192.031 128.554 192.114 128.469 192.217 128.469H193.656C193.759 128.469 193.842 128.554 193.842 128.659C193.842 128.765 193.759 128.85 193.656 128.85ZM190.777 128.85H189.337C189.235 128.85 189.151 128.765 189.151 128.659C189.151 128.554 189.235 128.469 189.337 128.469H190.777C190.879 128.469 190.962 128.554 190.962 128.659C190.962 128.765 190.879 128.85 190.777 128.85ZM187.897 128.85H186.458C186.355 128.85 186.272 128.765 186.272 128.659C186.272 128.554 186.355 128.469 186.458 128.469H187.897C188 128.469 188.083 128.554 188.083 128.659C188.083 128.765 188 128.85 187.897 128.85ZM185.018 128.85H183.578C183.476 128.85 183.392 128.765 183.392 128.659C183.392 128.554 183.476 128.469 183.578 128.469H185.018C185.12 128.469 185.203 128.554 185.203 128.659C185.203 128.765 185.12 128.85 185.018 128.85ZM182.138 128.85H180.699C180.596 128.85 180.513 128.765 180.513 128.659C180.513 128.554 180.596 128.469 180.699 128.469H182.138C182.241 128.469 182.324 128.554 182.324 128.659C182.324 128.765 182.241 128.85 182.138 128.85ZM179.259 128.85H177.819C177.717 128.85 177.633 128.765 177.633 128.659C177.633 128.554 177.717 128.469 177.819 128.469H179.259C179.361 128.469 179.444 128.554 179.444 128.659C179.444 128.765 179.361 128.85 179.259 128.85ZM176.379 128.85H174.94C174.837 128.85 174.754 128.765 174.754 128.659C174.754 128.554 174.837 128.469 174.94 128.469H176.379C176.482 128.469 176.565 128.554 176.565 128.659C176.565 128.765 176.482 128.85 176.379 128.85ZM173.5 128.85H172.06C171.958 128.85 171.874 128.765 171.874 128.659C171.874 128.554 171.958 128.469 172.06 128.469H173.5C173.602 128.469 173.685 128.554 173.685 128.659C173.685 128.765 173.602 128.85 173.5 128.85ZM170.62 128.85H169.181C169.078 128.85 168.995 128.765 168.995 128.659C168.995 128.554 169.078 128.469 169.181 128.469H170.62C170.723 128.469 170.806 128.554 170.806 128.659C170.806 128.765 170.723 128.85 170.62 128.85ZM167.741 128.85H166.301C166.199 128.85 166.115 128.765 166.115 128.659C166.115 128.554 166.199 128.469 166.301 128.469H167.741C167.843 128.469 167.926 128.554 167.926 128.659C167.926 128.765 167.843 128.85 167.741 128.85ZM164.861 128.85H163.422C163.319 128.85 163.236 128.765 163.236 128.659C163.236 128.554 163.319 128.469 163.422 128.469H164.861C164.964 128.469 165.047 128.554 165.047 128.659C165.047 128.765 164.964 128.85 164.861 128.85ZM161.982 128.85H160.542C160.44 128.85 160.357 128.765 160.357 128.659C160.357 128.554 160.44 128.469 160.542 128.469H161.982C162.084 128.469 162.167 128.554 162.167 128.659C162.167 128.765 162.084 128.85 161.982 128.85ZM159.102 128.85H157.663C157.56 128.85 157.477 128.765 157.477 128.659C157.477 128.554 157.56 128.469 157.663 128.469H159.102C159.205 128.469 159.288 128.554 159.288 128.659C159.288 128.765 159.205 128.85 159.102 128.85ZM156.223 128.85H154.783C154.681 128.85 154.598 128.765 154.598 128.659C154.598 128.554 154.681 128.469 154.783 128.469H156.223C156.325 128.469 156.408 128.554 156.408 128.659C156.408 128.765 156.325 128.85 156.223 128.85ZM153.343 128.85H151.904C151.801 128.85 151.718 128.765 151.718 128.659C151.718 128.554 151.801 128.469 151.904 128.469H153.343C153.446 128.469 153.529 128.554 153.529 128.659C153.529 128.765 153.446 128.85 153.343 128.85ZM150.464 128.85H149.024C148.922 128.85 148.839 128.765 148.839 128.659C148.839 128.554 148.922 128.469 149.024 128.469H150.464C150.566 128.469 150.649 128.554 150.649 128.659C150.649 128.765 150.566 128.85 150.464 128.85ZM147.584 128.85H146.145C146.042 128.85 145.959 128.765 145.959 128.659C145.959 128.554 146.042 128.469 146.145 128.469H147.584C147.687 128.469 147.77 128.554 147.77 128.659C147.77 128.765 147.687 128.85 147.584 128.85ZM144.705 128.85H143.265C143.163 128.85 143.08 128.765 143.08 128.659C143.08 128.554 143.163 128.469 143.265 128.469H144.705C144.807 128.469 144.89 128.554 144.89 128.659C144.89 128.765 144.807 128.85 144.705 128.85ZM141.825 128.85H140.386C140.283 128.85 140.2 128.765 140.2 128.659C140.2 128.554 140.283 128.469 140.386 128.469H141.825C141.928 128.469 142.011 128.554 142.011 128.659C142.011 128.765 141.928 128.85 141.825 128.85ZM138.946 128.85H137.506C137.404 128.85 137.321 128.765 137.321 128.659C137.321 128.554 137.404 128.469 137.506 128.469H138.946C139.048 128.469 139.131 128.554 139.131 128.659C139.131 128.765 139.048 128.85 138.946 128.85ZM136.066 128.85H134.627C134.524 128.85 134.441 128.765 134.441 128.659C134.441 128.554 134.524 128.469 134.627 128.469H136.066C136.169 128.469 136.252 128.554 136.252 128.659C136.252 128.765 136.169 128.85 136.066 128.85ZM133.187 128.85H131.747C131.645 128.85 131.562 128.765 131.562 128.659C131.562 128.554 131.645 128.469 131.747 128.469H133.187C133.289 128.469 133.372 128.554 133.372 128.659C133.372 128.765 133.289 128.85 133.187 128.85ZM130.307 128.85H128.868C128.765 128.85 128.682 128.765 128.682 128.659C128.682 128.554 128.765 128.469 128.868 128.469H130.307C130.41 128.469 130.493 128.554 130.493 128.659C130.493 128.765 130.41 128.85 130.307 128.85ZM127.428 128.85H125.988C125.886 128.85 125.803 128.765 125.803 128.659C125.803 128.554 125.886 128.469 125.988 128.469H127.428C127.53 128.469 127.613 128.554 127.613 128.659C127.613 128.765 127.53 128.85 127.428 128.85ZM124.548 128.85H123.109C123.006 128.85 122.923 128.765 122.923 128.659C122.923 128.554 123.006 128.469 123.109 128.469H124.548C124.651 128.469 124.734 128.554 124.734 128.659C124.734 128.765 124.651 128.85 124.548 128.85ZM121.669 128.85H120.229C120.127 128.85 120.044 128.765 120.044 128.659C120.044 128.554 120.127 128.469 120.229 128.469H121.669C121.771 128.469 121.854 128.554 121.854 128.659C121.854 128.765 121.771 128.85 121.669 128.85Z" fill="white"></path>
<path d="M118.047 129.6C117.945 129.6 117.861 129.515 117.861 129.41V128.469H118.777C118.879 128.469 118.963 128.554 118.963 128.66C118.963 128.765 118.879 128.85 118.777 128.85H118.226V129.416C118.226 129.522 118.143 129.607 118.041 129.607L118.047 129.6Z" fill="white"></path>
<path d="M118.047 164.042C117.945 164.042 117.861 163.957 117.861 163.852V162.286C117.861 162.181 117.945 162.096 118.047 162.096C118.149 162.096 118.233 162.181 118.233 162.286V163.852C118.233 163.957 118.149 164.042 118.047 164.042ZM118.047 160.912C117.945 160.912 117.861 160.826 117.861 160.721V159.156C117.861 159.051 117.945 158.965 118.047 158.965C118.149 158.965 118.233 159.051 118.233 159.156V160.721C118.233 160.826 118.149 160.912 118.047 160.912ZM118.047 157.782C117.945 157.782 117.861 157.696 117.861 157.591V156.026C117.861 155.92 117.945 155.835 118.047 155.835C118.149 155.835 118.233 155.92 118.233 156.026V157.591C118.233 157.696 118.149 157.782 118.047 157.782ZM118.047 154.651C117.945 154.651 117.861 154.566 117.861 154.46V152.895C117.861 152.79 117.945 152.705 118.047 152.705C118.149 152.705 118.233 152.79 118.233 152.895V154.46C118.233 154.566 118.149 154.651 118.047 154.651ZM118.047 151.521C117.945 151.521 117.861 151.435 117.861 151.33V149.765C117.861 149.66 117.945 149.574 118.047 149.574C118.149 149.574 118.233 149.66 118.233 149.765V151.33C118.233 151.435 118.149 151.521 118.047 151.521ZM118.047 148.39C117.945 148.39 117.861 148.305 117.861 148.2V146.635C117.861 146.529 117.945 146.444 118.047 146.444C118.149 146.444 118.233 146.529 118.233 146.635V148.2C118.233 148.305 118.149 148.39 118.047 148.39ZM118.047 145.26C117.945 145.26 117.861 145.175 117.861 145.069V143.504C117.861 143.399 117.945 143.313 118.047 143.313C118.149 143.313 118.233 143.399 118.233 143.504V145.069C118.233 145.175 118.149 145.26 118.047 145.26ZM118.047 142.13C117.945 142.13 117.861 142.044 117.861 141.939V140.374C117.861 140.269 117.945 140.183 118.047 140.183C118.149 140.183 118.233 140.269 118.233 140.374V141.939C118.233 142.044 118.149 142.13 118.047 142.13ZM118.047 138.999C117.945 138.999 117.861 138.914 117.861 138.809V137.243C117.861 137.138 117.945 137.053 118.047 137.053C118.149 137.053 118.233 137.138 118.233 137.243V138.809C118.233 138.914 118.149 138.999 118.047 138.999ZM118.047 135.869C117.945 135.869 117.861 135.783 117.861 135.678V134.113C117.861 134.008 117.945 133.922 118.047 133.922C118.149 133.922 118.233 134.008 118.233 134.113V135.678C118.233 135.783 118.149 135.869 118.047 135.869ZM118.047 132.739C117.945 132.739 117.861 132.653 117.861 132.548V130.983C117.861 130.877 117.945 130.792 118.047 130.792C118.149 130.792 118.233 130.877 118.233 130.983V132.548C118.233 132.653 118.149 132.739 118.047 132.739Z" fill="white"></path>
<path d="M158.008 127.557H155.858V129.766H158.008V127.557Z" fill="white"></path>
<path d="M158.008 165.062H155.858V167.279H158.008V165.062Z" fill="white"></path>
<path d="M196.901 147.627H194.75V149.837H196.901V147.627Z" fill="white"></path>
<path d="M119.122 147.627H116.972V149.837H119.122V147.627Z" fill="white"></path>
<path d="M119.122 127.557H116.972V129.766H119.122V127.557Z" fill="white"></path>
<path d="M119.122 164.844H116.972V167.053H119.122V164.844Z" fill="white"></path>
<path d="M196.901 127.557H194.75V129.766H196.901V127.557Z" fill="white"></path>
<path d="M196.901 164.844H194.75V167.053H196.901V164.844Z" fill="white"></path>
<path d="M25.628 249.712C26.0439 247.621 27.3301 245.424 29.0834 243.037L24.3546 239.946C23.1132 242.084 22.7101 243.287 20.3361 245.852C18.762 247.549 20.029 252.876 23.9835 253.875C24.1691 253.921 25.0073 252.823 25.628 249.719V249.712Z" fill="#FFD2A7"></path>
<path d="M23.9258 248.383C25.244 249.14 27.4452 246.384 27.6883 248.291C25.7367 249.751 24.5721 252.448 24.9112 257.13C25.2184 261.391 20.4704 264.976 20.4704 264.976L18.8707 242.853C18.8707 242.853 19.517 240.373 24.2009 240.794C24.3673 243.116 21.9421 247.246 23.9258 248.383Z" fill="#1C0A75"></path>
<path d="M23.785 260.381C30.491 257.455 28.3282 250.806 29.4096 246.531L34.4711 248.491C34.4711 248.491 34.4135 256.277 34.7399 261.243C35.0662 266.208 33.6905 265.748 33.6905 265.748L17.2645 265.872C17.2645 265.872 19.1074 262.42 23.785 260.381Z" fill="#FFD2A7"></path>
<path d="M23.6315 260.452C25.084 259.946 26.3062 258.867 27.33 257.486C27.9955 256.513 31.2718 257.558 31.8285 259.426C31.8285 259.426 33.1466 260.399 34.7144 260.242C34.7144 260.584 34.7208 260.919 34.7464 261.248C35.0727 266.213 33.6969 265.753 33.6969 265.753L17.271 265.878C17.271 265.878 18.8195 262.129 23.6315 260.452Z" fill="#1C0A75"></path>
<path d="M41.8235 137.736C46.3539 152.816 54.9924 195.622 54.6405 197.489C54.2246 199.699 43.2057 207.144 41.3308 197.641C38.4193 182.85 11.384 142.649 28.853 130.857C35.2647 126.53 40.4478 133.153 41.8235 137.736Z" fill="#572EFF"></path>
<path d="M24.2074 136.644C25.2568 134.251 26.7733 132.265 28.8593 130.857C29.0513 130.726 29.2433 130.607 29.4288 130.502C29.448 130.489 29.4672 130.476 29.4928 130.469C30.4911 129.897 31.4637 129.588 32.3915 129.489C30.5678 141.129 31.3101 152.434 33.185 162.45L36.2437 146.601C36.2437 146.601 38.7392 159.136 37.2035 173.091C36.9219 175.669 37.2419 178.273 38.0993 180.713C41.8939 191.557 45.9956 198.699 46.5715 199.613C45.6948 199.14 44.0887 200.008 42.4954 200.541C41.9835 199.83 41.5867 198.883 41.3372 197.641C38.7968 184.731 17.898 152.487 24.2074 136.644Z" fill="#1C0A76"></path>
<path d="M16.9446 154.381C17.5141 146.075 20.9439 139.289 22.1469 137.434C24.1241 134.389 30.3566 132.074 33.5561 136.914C36.7555 141.748 36.4484 144.254 36.9795 155.078C37.517 165.903 34.4007 194.655 35.3094 202.567C36.218 210.478 25.5127 214.911 24.9624 203.27C24.4057 191.63 16.2855 163.989 16.951 154.388L16.9446 154.381Z" fill="#572EFF"></path>
<path d="M24.7961 205.597C24.8344 203.354 24.7385 201.756 24.6105 199.514C24.0602 189.985 35.0279 195.41 35.239 197.922C35.5142 201.079 34.9127 202.835 36.4356 213.666C37.9586 224.497 36.8452 230.692 35.8597 236.407C34.8743 242.122 35.1878 249.56 35.1878 249.56C30.5806 251.763 28.5266 250.303 28.5266 250.303C28.5266 250.303 27.1572 238.709 25.6919 229.436C24.2202 220.164 24.6937 210.838 24.7961 205.597Z" fill="#572EFF"></path>
<path d="M22.7037 240.952C22.7037 240.952 23.2028 241.807 24.425 242.708C24.489 242.754 24.553 242.807 24.6233 242.846C25.7048 243.596 27.2853 244.346 29.5057 244.635C29.5057 244.635 55.7283 200.277 54.7045 196.838C54.2438 195.286 49.3678 187.789 43.1737 193.491C39.8335 196.568 36.1093 203.467 32.494 217.192C32.4044 217.521 32.3212 217.85 32.238 218.185C29.9024 227.267 22.7101 240.952 22.7101 240.952H22.7037Z" fill="#572EFF"></path>
<path d="M22.7037 240.953C22.7037 240.953 23.2028 241.808 24.425 242.709C24.489 242.755 24.553 242.808 24.6233 242.854C29.5761 235.028 35.591 221.014 37.2803 213.622C38.2018 209.61 39.7247 204.415 41.0237 200.232C41.9771 197.161 42.8026 194.623 43.1801 193.498C39.8399 196.576 36.1157 203.474 32.5004 217.199C32.4108 217.528 32.3276 217.857 32.2444 218.192C29.9088 227.274 22.7165 240.96 22.7165 240.96L22.7037 240.953Z" fill="#1C0A76"></path>
<path d="M27.4389 73.7871C30.472 73.8857 32.8523 76.4965 32.75 79.6138C32.654 82.731 30.1136 85.1708 27.0806 85.0722C24.0475 84.9735 21.6735 82.3627 21.7695 79.2455C21.8655 76.1283 24.4058 73.6884 27.4325 73.7871H27.4389Z" fill="#1C0A76"></path>
<path d="M20.8672 103.112C21.635 97.2456 18.2436 93.5694 21.3791 86.9404C24.5145 80.3113 27.8356 79.6669 31.0222 78.7264C39.1104 76.3524 47.4481 86.7299 44.2551 93.9771C41.3052 100.685 44.2103 105.972 46.8274 111.562C49.4446 117.146 50.398 134.764 35.527 136.165C20.656 137.566 17.3158 131.015 15.9208 121.703C14.2571 110.563 20.0929 108.971 20.8608 103.105L20.8672 103.112Z" fill="#1C0A76"></path>
<path d="M37.0436 111.661C37.4915 113.528 43.3337 135.961 45.1382 138.46C47.2498 141.393 51.0956 138.874 51.3067 134.619C51.5115 130.542 48.6512 113.976 45.6501 109.155C42.4187 103.966 36.0774 107.636 37.05 111.661H37.0436Z" fill="#FFD2A7"></path>
<path d="M37.7987 110.944C48.7727 117.139 51.2299 133.469 51.3131 134.587C51.4987 130.457 48.6512 113.963 45.6565 109.156C42.6682 104.355 37.5299 110.787 37.8051 110.944H37.7987Z" fill="#FF988C"></path>
<path d="M23.4588 128.536C23.2668 126.142 22.499 123.919 20.6433 115.639C19.9202 112.41 19.0244 109.879 19.8498 108.471C20.8928 106.696 24.0155 106.498 26.2295 106.577C30.2352 106.709 28.6163 96.7126 28.6163 96.7126C29.2946 94.6607 35.943 95.246 35.4247 101.862C34.9064 108.478 41.3629 105.63 42.841 106.906C44.8695 108.662 44.5879 112.338 44.9463 114.304C45.3046 116.271 48.0561 118.684 47.557 122.268C47.0579 125.853 43.7561 125.616 43.7561 125.616C42.5275 126.971 41.3501 129.476 41.1837 131.265C40.787 135.434 42.6683 139.663 42.6683 139.663C30.7407 144.576 20.8864 139.591 20.8864 139.591C20.8864 139.591 24.0283 135.697 23.4524 128.529L23.4588 128.536Z" fill="#FFBC8E"></path>
<path d="M26.2295 106.576C30.2352 106.708 28.6162 96.7119 28.6162 96.7119C28.9938 95.5741 31.2078 95.2453 33.0187 96.3173C31.7645 96.6066 28.6226 102.131 30.152 110.411C30.5871 112.758 32.9931 114.225 35.2391 114.751C35.2391 114.751 20.9184 116.855 20.6432 115.639C19.9202 112.41 24.009 106.504 26.2295 106.576Z" fill="#FFBC8E"></path>
<path d="M51.3579 129.075C51.3579 129.075 48.1264 132.074 42.8986 133.849L40.8253 127.385L41.2476 106.511C41.2476 106.511 44.7094 105.919 46.8019 110.74C48.8943 115.56 50.3661 126.339 51.3643 129.075H51.3579Z" fill="#FF5EA6"></path>
<path d="M41.0301 127.825L41.414 108.885C41.51 108.333 41.6316 107.083 41.6508 106.491C42.6106 106.498 43.3721 107.208 43.788 107.57C45.8165 109.326 45.5413 113.002 45.8932 114.968C46.2516 116.935 49.0031 119.348 48.504 122.932C48.0113 126.516 45.6949 127.135 45.6949 127.135C44.5687 128.371 42.8794 130.745 42.5786 132.481L41.0301 127.832V127.825Z" fill="#DB5A9B"></path>
<path d="M23.4588 128.536C23.2668 126.142 22.499 123.919 20.6433 115.639C19.9202 112.41 19.0244 109.878 19.8498 108.471C20.7905 106.866 23.4076 106.551 25.532 106.557C27.9252 112.18 32.878 115.389 36.6917 113.745C39.1489 112.693 40.5438 109.885 40.6398 106.498C41.5996 106.505 42.4251 106.538 42.8474 106.899C44.8759 108.655 44.6007 112.331 44.9527 114.298C45.311 116.264 48.0625 118.678 47.5634 122.262C47.0707 125.846 43.7689 125.609 43.7689 125.609C42.5403 126.964 41.3629 129.469 41.1965 131.258C40.7998 135.428 42.6811 139.663 42.6811 139.663C30.7599 144.575 20.8992 139.591 20.8992 139.591C20.8992 139.591 24.0411 135.697 23.4652 128.529L23.4588 128.536Z" fill="#FF5EA6"></path>
<path d="M23.4588 128.536C23.2668 126.142 22.499 123.92 20.6433 115.64C19.9202 112.411 19.0244 109.879 19.8498 108.472C20.7585 106.926 23.2284 106.578 25.3145 106.564C25.3529 106.92 25.4041 107.281 25.4681 107.643C26.3447 112.404 29.5569 116.107 33.6458 117.744L31.3038 118.198C28.6227 118.718 26.927 121.716 27.5093 124.373C27.938 126.327 29.4034 127.708 31.1631 128.181L32.2189 133.909C33.0187 138.25 29.2114 142.031 25.0329 141.012C22.4286 140.374 20.8928 139.598 20.8928 139.598C20.8928 139.598 24.0347 135.705 23.4588 128.536Z" fill="#DB5A9B"></path>
<path d="M0.729885 129.22C2.03526 126.202 17.111 110.99 20.1953 107.978C21.2895 106.907 26.8117 113.7 24.8153 117.606C23.7083 119.77 6.61046 134.264 3.73096 135.218C0.35235 136.342 -0.946624 133.107 0.729885 129.214V129.22Z" fill="#FFD2A7"></path>
<path d="M20.0609 118.566C21.5647 115.548 22.7613 112.569 22.3581 109.162C24.1626 111.155 26.1399 115.009 24.8153 117.6C23.8171 119.553 9.84831 131.502 4.97876 134.554C5.92579 133.85 18.0645 122.571 20.0609 118.56V118.566Z" fill="#FFBC8E"></path>
<path d="M28.4882 91.2087C28.4882 91.2087 31.2782 82.8238 33.9721 82.5541C36.666 82.2845 38.8097 82.4884 40.1598 85.507C40.1598 85.507 41.7403 88.1704 41.2028 91.3994C41.2028 91.3994 44.799 94.6284 41.0237 99.4621C37.2483 104.296 30.7855 101.093 28.6226 96.7066C28.6226 96.7066 25.0329 97.9364 24.5273 94.4969C24.0218 91.0574 26.223 90.8601 28.4946 91.2021L28.4882 91.2087Z" fill="#FFD2A7"></path>
<path d="M28.4882 91.2087C28.4882 91.2087 31.2782 82.8238 33.9721 82.5542C36.1285 82.3371 37.9266 82.4292 39.2576 84.0207C37.4531 83.5669 31.1566 90.9917 31.1566 95.3847C31.1566 99.8501 35.815 102.553 39.5327 100.58C39.9807 100.343 40.403 100.061 40.7933 99.7383C36.9924 104.171 30.7407 101.014 28.6226 96.7132C28.6226 96.7132 25.0329 97.9429 24.5273 94.5035C24.0218 91.064 26.223 90.8667 28.4946 91.2087H28.4882Z" fill="#FFBC8E"></path>
<path d="M50.3853 131.416C44.7286 132.133 44.7222 139.347 48.5552 139.814C54.2246 140.505 69.9275 135.711 73.0565 137.236C76.1792 138.762 76.8958 141.59 79.9481 139.564C83.0004 137.539 83.2947 136.184 82.9364 133.744C82.5781 131.304 78.9499 131.456 75.1745 132.528C71.3928 133.6 55.0884 130.831 50.3917 131.423L50.3853 131.416Z" fill="#FFD2A7"></path>
<path d="M42.2394 86.677C42.2394 86.677 37.9906 86.0523 35.5526 83.6322C33.1146 81.2055 31.8732 81.6461 31.8732 81.6461C39.1168 78.279 42.2394 86.677 42.2394 86.677Z" fill="#1C0A76"></path>
<path d="M34.1704 82.0799C35.335 83.0269 35.6293 85.9468 32.7178 89.2745C29.8064 92.6021 30.8238 96.6006 28.4306 94.4501C26.0438 92.2996 26.0118 91.9379 25.7559 88.9522C25.4999 85.9665 31.6044 79.9952 34.1768 82.0799H34.1704Z" fill="#1C0A76"></path>
<path d="M12.3567 129.699C12.3567 129.699 23.8939 119.407 25.3656 117.356C26.8374 115.297 23.7595 108.405 20.3873 107.78C20.3873 107.78 20.3297 107.833 20.2145 107.945C19.1011 108.977 12.8494 114.791 7.43593 120.427C7.43593 120.427 6.78964 124.728 12.3631 129.699H12.3567Z" fill="#FF5EA6"></path>
<path d="M12.3567 129.699C12.3567 129.699 23.8939 119.407 25.3656 117.356C26.8374 115.297 23.7595 108.405 20.3873 107.78C20.3873 107.78 20.3297 107.833 20.2145 107.945L20.1953 107.978C20.1953 107.978 25.1417 113.239 23.1452 117.014C21.1488 120.788 13.7261 125.668 12.3567 129.699Z" fill="#DB5A9B"></path>
<path d="M27.6692 122.36C30.2544 120.005 35.4311 119.69 36.922 121.972C37.3379 122.61 37.5939 123.241 37.7347 123.866C38.1122 125.352 37.805 126.786 37.2291 128.213C37.1652 128.37 35.2007 129.725 35.1111 129.403C33.8185 129.232 31.9757 128.449 29.864 127.456C26.2935 125.773 11.8768 134.243 6.32892 135.795C0.83228 137.334 -1.54811 130.705 2.00968 129.16C7.26956 126.878 25.0905 124.707 27.6756 122.346L27.6692 122.36Z" fill="#FFD2A7"></path>
<path d="M93.6609 130.443H51.1723V132.752H93.6609V130.443Z" fill="#6A6AE8"></path>
<path d="M51.1723 132.751H31.6173V131.455C31.6173 130.896 32.0588 130.449 32.5963 130.449H51.1723V132.758V132.751Z" fill="#6A6AE8"></path>
<path d="M92.4643 130.443H50.142L55.7155 103.664C55.8754 102.882 56.5153 102.329 57.2512 102.329H95.363C96.8731 102.329 97.9993 103.861 97.6602 105.479L92.4643 130.45V130.443Z" fill="#572EFF"></path>
<path d="M93.4945 130.443H51.1723L56.7457 103.664C56.9057 102.882 57.5456 102.329 58.2751 102.329H97.1931C98.2937 102.329 99.1128 103.447 98.8632 104.624L93.4881 130.45L93.4945 130.443Z" fill="#6A6AE8"></path>
<path opacity="0.34" d="M76.8767 102.329L88.7978 130.443H83.3459L70.9833 102.329H76.8767Z" fill="#DAE7FF"></path>
<path opacity="0.34" d="M67.9694 102.329L79.8905 130.443H77.7661L65.4034 102.329H67.9694Z" fill="#DAE7FF"></path>
<path d="M125.163 178.509H166.736C168.873 178.509 170.607 180.291 170.607 182.488V202.868C170.607 205.064 168.873 206.847 166.736 206.847H125.163C123.025 206.847 121.291 205.064 121.291 202.868V182.488C121.291 180.291 123.025 178.509 125.163 178.509Z" fill="#FF5EA6"></path>
<path d="M126.231 198.153V187.046H128.413V191.419H132.688V187.046H134.87V198.153H132.688V193.293H128.413V198.153H126.231Z" fill="white"></path>
<path d="M139.56 198.154V188.921H136.354V187.04H144.948V188.921H141.749V198.154H139.566H139.56Z" fill="white"></path>
<path d="M146.317 198.153V187.046H149.587L151.552 194.622L153.491 187.046H156.767V198.153H154.738V189.407L152.595 198.153H150.496L148.359 189.407V198.153H146.33H146.317Z" fill="white"></path>
<path d="M158.987 198.154V187.132H161.169V196.28H166.595V198.154H158.987Z" fill="white"></path>
<path d="M103.515 192.952C105.3 192.952 106.932 192.314 108.359 191.308C108.417 194.379 108.225 197.45 107.636 200.462C105.736 203.619 100.45 209.419 100.802 209.386C102.28 209.261 103.669 208.86 105.045 208.367C104.142 210.281 103.061 212.102 101.813 213.799C99.2535 217.311 95.5998 220.119 94.2112 224.413C94.1856 224.512 94.1216 224.578 94.0513 224.604C94.0257 224.841 93.7633 225.032 93.5521 224.834C86.6541 218.107 85.4255 207.88 84.4145 198.667C84.3633 198.233 84.3185 197.799 84.2801 197.358C86.187 199.318 88.2219 201.113 90.6342 202.455C90.967 202.639 86.315 194.991 84.037 191.466C84.1138 189.256 84.4465 187.053 85.2272 184.922C86.8397 180.476 89.6104 176.32 92.2916 172.493C92.4003 172.335 92.5219 172.184 92.6307 172.026C93.3602 174.005 94.3328 175.866 95.5998 177.55C95.8237 177.846 95.1135 171.953 94.6719 169.264C95.3438 168.402 96.0221 167.541 96.7196 166.712C97.641 165.601 98.7736 163.707 100.425 163.963C102.024 164.193 105.678 170.941 106.139 172.867C106.337 173.69 106.516 174.531 106.683 175.373C106.759 175.735 106.823 176.11 106.887 176.471C107.495 179.858 107.854 183.331 108.116 186.737C108.001 186.921 107.892 187.099 107.758 187.276C106.42 189.151 103.176 192.952 103.502 192.952H103.515Z" fill="#6A6AE8"></path>
<path d="M97.2316 189.552C100.636 189.026 103.234 186.816 105.729 184.534C106.1 184.192 105.64 183.548 105.262 183.89C102.92 186.027 100.482 188.158 97.3084 188.717C98.0314 183.508 98.8761 178.319 99.8679 173.157C99.9639 172.651 99.196 172.526 99.1001 173.032C97.7819 179.878 96.7133 186.757 95.875 193.675C93.9106 190.808 92.4132 187.717 91.3702 184.376C91.2166 183.89 90.4936 184.186 90.6471 184.672C91.7541 188.21 93.3667 191.485 95.4783 194.497C95.5551 194.609 95.6575 194.655 95.7598 194.655C95.5807 196.168 95.4207 197.68 95.2607 199.193C93.8402 197.371 92.7204 195.385 91.9205 193.182C91.7477 192.702 91.0247 192.998 91.1974 193.478C92.0869 195.924 93.3539 198.154 94.9984 200.14C95.0432 200.199 95.1008 200.232 95.1583 200.252C94.6592 205.237 94.2817 210.235 94.0257 215.239C94.0001 215.285 93.981 215.345 93.981 215.41C93.8786 217.245 93.8146 219.073 93.7954 220.902C93.757 222.092 93.725 223.289 93.6994 224.486C93.6994 224.611 93.7442 224.703 93.8146 224.755C94.0129 236.034 95.6447 247.194 97.9483 258.236C98.1978 258.17 98.4538 258.111 98.7033 258.052C96.0926 245.576 94.3585 232.95 94.5888 220.165C94.6336 218.817 94.6912 217.469 94.7552 216.121C94.864 216.16 94.9792 216.16 95.1008 216.075C96.5213 215.075 97.7243 213.812 98.6649 212.326C98.9337 211.899 98.3258 211.392 98.057 211.826C97.1868 213.201 96.0926 214.365 94.7936 215.305C95.2287 206.683 96.035 198.088 97.1996 189.539C97.2124 189.539 97.2188 189.539 97.2316 189.539V189.552Z" fill="#312890"></path>
<path d="M70.1833 212.733C68.6604 213.338 67.0991 213.411 65.6017 213.135C66.4272 215.463 67.451 217.705 68.8012 219.77C71.3095 221.5 77.4461 224.071 77.1325 224.17C75.84 224.577 74.5474 224.742 73.242 224.841C74.5538 225.972 75.9807 226.978 77.5229 227.826C80.6967 229.602 84.5936 230.476 86.9868 233.232C87.038 233.298 87.1084 233.324 87.1788 233.318C87.2684 233.488 87.5435 233.541 87.6651 233.318C91.626 225.932 89.7831 217.837 88.0362 210.57C87.953 210.228 87.8699 209.886 87.7803 209.544C86.7117 211.661 85.4895 213.7 83.8194 215.522C83.589 215.772 85.3807 208.452 86.3213 205.039C85.6303 203.408 84.728 201.863 83.461 200.521C80.8311 197.726 77.3053 195.536 73.9395 193.57C73.8051 193.491 73.6515 193.418 73.5172 193.333C73.4596 195.063 73.1588 196.792 72.5573 198.489C72.4549 198.785 71.3927 194.122 71.0024 191.952C70.1833 191.531 69.3707 191.117 68.5388 190.729C67.4382 190.203 65.9409 189.164 64.6099 189.913C63.3173 190.63 62.1207 196.93 62.2679 198.535C62.3319 199.219 62.4151 199.916 62.5175 200.6C62.5559 200.896 62.6007 201.198 62.6518 201.494C63.0934 204.243 63.7717 206.972 64.5075 209.623C64.6547 209.721 64.8019 209.82 64.9618 209.906C66.632 210.859 70.4649 212.622 70.1833 212.733Z" fill="#6A6AE8"></path>
<path d="M93.3793 259.912C92.2211 250.837 90.4486 241.906 87.4283 233.363C87.4731 233.298 87.4859 233.219 87.4475 233.12C87.0892 232.232 86.7245 231.344 86.3533 230.463C85.8158 229.095 85.2463 227.74 84.6448 226.399C84.6256 226.353 84.5936 226.313 84.5552 226.287C82.9235 222.611 81.1894 218.987 79.3529 215.41C79.3977 215.37 79.4297 215.331 79.4553 215.272C80.2872 213.22 80.7415 211.122 80.7991 208.978C80.8119 208.557 80.1144 208.577 80.1016 208.998C80.044 210.918 79.6537 212.792 78.9626 214.647C78.3995 213.562 77.8364 212.477 77.2541 211.405C77.3373 211.372 77.4141 211.299 77.4461 211.188C78.3931 208.209 78.8346 205.203 78.777 202.171C78.7706 201.751 78.0668 201.77 78.0796 202.191C78.1371 205.058 77.7404 207.886 76.883 210.701C74.2146 205.788 71.3607 200.975 68.3085 196.279C68.0845 195.93 67.4638 196.279 67.6878 196.634C69.9914 200.179 72.1734 203.789 74.2658 207.459C71.4119 208.116 68.7372 207.334 66.1392 206.518C65.7233 206.387 65.5121 207.031 65.9217 207.156C68.6924 208.024 71.5271 208.807 74.5666 208.051C74.5794 208.051 74.5858 208.044 74.5922 208.038C77.9964 214.068 81.1126 220.25 83.9217 226.583C82.5524 226.313 81.2918 225.807 80.1656 225.07C79.8137 224.84 79.4361 225.419 79.7881 225.649C81.0102 226.452 82.386 226.991 83.8769 227.26C83.9985 227.287 84.1073 227.241 84.1841 227.175C84.6192 228.168 85.0479 229.161 85.4703 230.161C89.2776 239.69 91.3764 249.765 92.6818 260.017C92.9122 259.978 93.1425 259.939 93.3793 259.899V259.912Z" fill="#312890"></path>
<path d="M68.5773 203.034C66.3568 202.58 64.322 201.771 62.5175 200.601C62.5559 200.897 62.6007 201.199 62.6519 201.495C64.3796 202.521 66.2929 203.251 68.3597 203.672C68.7948 203.757 69.006 203.119 68.5773 203.034Z" fill="#84AFE6"></path>
<path d="M134.352 209.037C134.307 211.918 127.818 213.318 125.758 214.101C121.195 215.837 116.748 217.586 113.376 221.355C109.402 225.8 105.972 230.93 102.543 235.829C102.325 236.145 102.024 236.231 101.73 236.184C101.679 236.184 101.295 235.356 100.783 234.08C99.5992 231.088 97.7947 225.61 98.2426 222.486C98.5562 220.289 99.292 218.198 100.309 216.258C100.54 217.244 100.93 218.185 101.608 218.895C101.775 219.066 102.127 214.956 102.357 213.095C102.658 212.713 102.959 212.352 103.285 211.996C104.014 211.181 104.821 210.418 105.685 209.728C105.87 209.576 106.049 209.425 106.235 209.287C106.932 208.754 107.662 208.254 108.417 207.794C108.615 207.676 108.82 207.557 109.031 207.432C109.735 207.031 110.464 206.656 111.213 206.321C111.444 207.735 111.802 209.109 112.416 210.431C112.544 210.707 112.845 207.183 112.89 205.631C113.594 205.354 114.31 205.131 115.046 204.914C115.251 205.828 115.526 206.722 115.942 207.571C116.044 207.774 117.004 205.387 117.356 204.342C119.679 203.861 122.034 203.664 124.305 203.783C124.504 203.789 124.702 203.796 124.894 203.822C125.515 203.868 126.135 203.94 126.737 204.032C128.976 204.388 134.243 205.848 134.345 208.952C134.345 208.978 134.345 209.011 134.345 209.037H134.352Z" fill="#6A6AE8"></path>
<path d="M109.383 216.614C103.873 222.204 102.159 232.476 101.807 235.396C101.269 236.567 100.866 237.81 100.674 239.191C100.021 243.801 100.213 248.667 100.322 253.31C100.361 254.836 100.424 256.362 100.501 257.887C100.757 257.841 101.013 257.789 101.269 257.743C101.218 256.783 101.173 255.816 101.141 254.849C101 250.693 101.007 246.523 101.192 242.367C101.288 240.217 101.48 238.059 102.293 236.067C102.383 236.008 102.466 235.935 102.543 235.83C105.972 230.931 109.402 225.801 113.376 221.349C116.748 217.581 121.202 215.831 125.758 214.095C127.818 213.312 134.307 211.912 134.351 209.031C125.706 210.07 115.731 210.176 109.389 216.607L109.383 216.614Z" fill="#312890"></path>
<path d="M109.153 213.87C108.749 211.72 108.705 209.582 109.037 207.438C108.826 207.557 108.621 207.675 108.423 207.8C108.148 209.865 108.206 211.93 108.596 214.008C108.666 214.377 109.217 214.245 109.153 213.877V213.87Z" fill="#312890"></path>
<path d="M107.041 215.023C106.548 213.135 106.286 211.235 106.235 209.288C106.049 209.426 105.864 209.577 105.684 209.729C105.755 211.564 106.024 213.372 106.484 215.161C106.58 215.523 107.137 215.391 107.041 215.029V215.023Z" fill="#312890"></path>
<path d="M116.262 253.54C116.262 255.039 116.108 256.499 115.814 257.9C114.752 263.01 111.866 267.416 107.892 270.389H84.1457C80.172 267.423 77.2861 263.01 76.2239 257.9C75.9296 256.493 75.776 255.033 75.776 253.54C75.776 252.047 75.9424 250.462 76.2623 249.009C76.5247 247.766 76.9022 246.569 77.3757 245.418H114.649C115.123 246.562 115.5 247.759 115.769 249.009C116.089 250.469 116.255 251.988 116.255 253.54H116.262Z" fill="#C8D3FB"></path>
<path d="M116.262 253.54C116.262 255.039 116.108 256.499 115.814 257.9C114.752 263.01 111.866 267.416 107.892 270.389H84.1458C115.168 271.973 114.656 245.418 114.656 245.418C115.129 246.562 115.507 247.759 115.776 249.009C116.095 250.469 116.262 251.988 116.262 253.54Z" fill="#BFCBF1"></path>
<path d="M161.412 179.905C162.724 175.795 147.674 161.616 147.674 161.616C142.638 165.378 132.195 170.146 135.222 181.996C138.216 193.722 161.361 220.219 161.361 220.219C161.361 220.219 168.848 216.45 169.597 211.643C170.345 206.836 160.101 184.015 161.412 179.905Z" fill="#1C0A76"></path>
<path d="M107.502 266.404C105.793 266.036 104.488 264.253 104.699 263.109C105.249 260.091 111.034 256.855 113.92 254.751L109.236 249.272C105.057 252.028 103.566 256.75 97.0011 259.637C92.3364 261.689 94.4608 264.122 94.4608 264.122L102.466 269.982C102.927 270.317 103.483 270.501 104.053 270.501H111.347C111.821 270.501 112.16 270.034 112.032 269.567C111.751 268.587 110.778 267.094 107.515 266.397L107.502 266.404Z" fill="#FFD2A7"></path>
<path d="M107.502 266.403C105.793 266.035 104.488 264.253 104.699 263.108C104.769 262.72 104.929 262.332 105.153 261.944C101.551 261.05 100.117 259.163 99.6183 258.235C98.8376 258.735 97.9802 259.209 97.0011 259.643C92.3364 261.695 94.4608 264.128 94.4608 264.128L102.466 269.987C102.927 270.323 103.483 270.507 104.053 270.507H111.347C111.821 270.507 112.16 270.04 112.032 269.573C111.751 268.593 110.778 267.1 107.521 266.403H107.502Z" fill="#1C0A76"></path>
<path d="M170.793 265.778C160.996 263.272 163.492 256.735 164.516 249.883L156.786 249.14C157.56 254.822 156.901 257.183 156.332 265.206C155.929 270.908 157.515 270.395 157.515 270.395L176.399 270.638C176.399 270.638 176.456 267.225 170.787 265.778H170.793Z" fill="#FFD2A7"></path>
<path d="M170.831 265.633C169.136 265.146 166.039 263.917 164.868 262.332C164.516 261.839 163.709 263.917 163.095 264.594C161.873 265.949 157.528 265.074 156.396 264.121C156.396 264.515 156.37 264.844 156.338 265.212C155.935 270.914 157.522 270.401 157.522 270.401L176.405 270.644C176.405 270.644 176.738 267.33 170.831 265.633Z" fill="#1C0A76"></path>
<path d="M156.165 212.419C155.749 216.858 156.056 255.836 156.056 255.836C159.806 257.533 164.465 255.928 164.465 255.928C165.028 251.285 169.603 211.643 169.603 211.643C169.603 211.643 156.588 207.973 156.172 212.412L156.165 212.419Z" fill="#1C0A76"></path>
<path d="M135.292 220.954C131.721 223.927 105.825 251.844 105.825 251.844C106.759 255.921 110.695 258.243 110.695 258.243C114.502 255.224 146.087 231.358 146.087 231.358C146.087 231.358 138.863 217.982 135.292 220.954Z" fill="#572EFF"></path>
<path d="M155.18 195.432C159.96 173.381 153.964 167.396 153.964 167.396C147.764 167.936 136.342 166.009 133.065 178.964C129.821 191.782 136.885 233.851 136.885 233.851C136.885 233.851 143.777 234.772 146.81 230.694C149.843 226.617 154.233 199.818 155.186 195.432H155.18Z" fill="#572EFF"></path>
<path d="M190.796 174.499C187.245 174.617 185.837 178.024 182.842 176.787C179.841 175.551 178.472 175.669 178.536 173.131C178.593 170.592 180.59 170.731 184.621 170.599C188.55 170.467 196.082 174.321 190.802 174.492L190.796 174.499Z" fill="#FFD2A7"></path>
<path d="M150.201 124.925C152.358 123.064 155.167 122.676 158.891 128.056C162.327 133.027 167.325 149.462 169.104 153.664C170.761 157.577 165.111 164.094 159.371 157.702C153.631 151.303 151.532 143.523 149.626 136.651C147.725 129.772 147.859 126.951 150.201 124.932V124.925Z" fill="#DB5A9B"></path>
<path d="M158.866 157.801C162.705 162.68 168.253 167.001 177.326 175.438C177.326 175.438 181.639 172.986 182.471 169.263C182.471 169.263 168.56 153.769 166.723 152.053C164.887 150.33 154.866 152.724 158.866 157.801Z" fill="#DB5A9B"></path>
<path d="M165.712 115.534C165.712 115.534 163.294 115.961 163.05 117.809C162.807 119.657 163.933 121.361 163.933 121.361C163.933 121.361 158.808 123.005 154.105 121.374C154.105 121.374 156.248 116.52 156.076 111.456C155.903 106.399 165.706 115.534 165.706 115.534H165.712Z" fill="#FFD2A7"></path>
<path d="M160.67 119.125C160.593 116.738 162.385 114.897 164.529 114.476C161.924 112.233 155.954 107.498 156.088 111.457C156.261 116.521 154.118 121.374 154.118 121.374C156.434 122.177 158.846 122.183 160.708 121.986C160.689 121.032 160.708 120.085 160.676 119.132L160.67 119.125Z" fill="#FFBC8E"></path>
<path d="M170.07 99.4893C170.07 99.4893 170.55 102.85 170.288 105.599C170.019 108.348 170.991 112.004 168.393 115.102C165.796 118.193 159.921 114.687 158.59 110.912C157.259 107.138 158.475 104.191 160.382 102.475C162.289 100.759 170.076 99.4893 170.076 99.4893H170.07Z" fill="#FFD2A7"></path>
<path d="M165.77 111.332C165.828 109.977 167.434 100.001 167.434 100.001C164.989 100.527 161.559 101.415 160.376 102.48C158.469 104.197 157.253 107.143 158.584 110.918C159.845 114.489 165.175 117.823 167.939 115.541C166.589 114.647 165.693 113.009 165.764 111.332H165.77Z" fill="#FFBC8E"></path>
<path d="M167.184 101.75C167.184 101.75 166.141 102.776 165.674 105.163C165.207 107.55 164.772 108.852 163.991 107.261C163.21 105.669 163.012 103.131 160.99 104.637C159.653 105.637 159.665 107.623 160.062 108.714C160.459 109.806 159.102 112.193 156.344 111.266C153.593 110.339 151.814 102.657 151.814 102.657C151.814 102.657 164.471 98.6918 167.178 101.75H167.184Z" fill="#1C0A76"></path>
<path d="M168.502 92.116C168.502 92.116 172.207 93.0959 172.527 96.3315C172.815 99.2054 171.286 101.994 166.327 101.737C161.367 101.474 161.016 104.651 158.392 105.479C155.768 106.308 153.132 105.499 151.891 102.829C150.605 100.067 151.033 96.7129 154.265 94.01C157.503 91.3071 168.182 87.4862 168.496 92.116H168.502Z" fill="#1C0A76"></path>
<path d="M171.414 131.193C171.363 131.766 171.311 132.344 171.267 132.93C170.71 139.624 170.211 147.043 167.542 153.52C167.28 154.158 167.095 154.974 166.954 155.921C166.935 156.092 166.909 156.263 166.89 156.434C166.89 156.467 166.883 156.506 166.877 156.532C166.8 157.223 166.743 157.973 166.704 158.762C166.307 166.476 164.484 179.043 163.172 179.51C160.158 180.589 151.11 180.24 143.687 179.221C143.687 179.221 143.685 179.221 143.681 179.221C143.137 179.142 142.606 179.063 142.088 178.984C141.953 178.964 141.819 178.938 141.685 178.918C141.473 178.886 141.262 178.846 141.057 178.807C140.91 178.78 140.757 178.754 140.61 178.728C140.424 178.695 140.245 178.662 140.059 178.622C139.816 178.576 139.573 178.53 139.343 178.478C139.336 178.478 139.323 178.478 139.317 178.478C139.157 178.445 139.003 178.412 138.856 178.379C138.632 178.333 138.415 178.281 138.204 178.228C138.114 178.202 138.024 178.188 137.935 178.162C136.181 177.728 134.748 177.228 133.846 176.676C133.82 176.656 133.788 176.636 133.763 176.623C133.635 176.538 133.513 176.452 133.411 176.373C133.36 176.334 133.321 176.301 133.283 176.262C133.161 176.15 133.065 176.038 132.982 175.92C132.956 175.88 132.931 175.841 132.912 175.801C132.912 175.801 132.912 175.795 132.905 175.788C132.88 175.742 132.86 175.689 132.848 175.643C132.848 175.643 132.841 175.637 132.848 175.63C132.828 175.584 132.816 175.532 132.809 175.486C132.201 171.744 140.853 134.758 142.74 129.99C144.609 125.248 147.508 121.927 149.53 121.237C149.594 121.217 149.658 121.197 149.741 121.178C149.818 121.158 149.907 121.138 150.003 121.125C150.15 121.099 150.31 121.072 150.483 121.046C151.021 120.967 151.705 120.915 152.492 120.868C152.575 120.868 152.665 120.862 152.761 120.855C152.851 120.855 152.94 120.849 153.036 120.842C153.26 120.829 153.49 120.822 153.721 120.816C153.881 120.816 154.041 120.803 154.201 120.803C154.233 120.803 154.265 120.803 154.297 120.803C158.482 120.698 164.196 120.888 167.248 121.329C167.44 121.355 167.632 121.408 167.818 121.48C170.108 122.328 171.868 126.215 171.427 131.207L171.414 131.193Z" fill="#FF5EA6"></path>
<path d="M167.805 121.467C167.331 121.868 165.917 122.828 162.391 123.322C159.179 123.769 154.796 122.486 152.761 124.038C150.579 125.696 145.773 127.017 139.311 147.47C138.383 150.41 137.007 166.397 136.866 169.481C136.642 174.585 139.643 177.8 143.681 179.214C143.137 179.135 142.606 179.057 142.081 178.978C141.947 178.958 141.812 178.932 141.678 178.912C141.467 178.879 141.256 178.84 141.051 178.8C140.897 178.774 140.75 178.747 140.603 178.721C140.418 178.688 140.238 178.655 140.059 178.616C139.81 178.57 139.573 178.524 139.336 178.471C139.336 178.471 139.317 178.471 139.311 178.471C139.157 178.438 138.997 178.405 138.843 178.373C138.619 178.327 138.408 178.274 138.191 178.221C138.101 178.202 138.012 178.175 137.922 178.156C136.162 177.722 134.735 177.222 133.833 176.669C133.807 176.65 133.775 176.63 133.75 176.617C133.622 176.531 133.5 176.446 133.398 176.367C133.353 176.327 133.308 176.294 133.27 176.255C133.148 176.143 133.052 176.025 132.969 175.913C132.944 175.874 132.918 175.834 132.899 175.795C132.899 175.795 132.899 175.788 132.899 175.781C132.873 175.735 132.854 175.683 132.841 175.637C132.841 175.637 132.841 175.63 132.841 175.624C132.822 175.578 132.809 175.532 132.803 175.479C132.195 171.737 140.846 134.751 142.734 129.983C144.602 125.248 147.501 121.927 149.523 121.237C149.581 121.217 149.651 121.197 149.734 121.178C149.817 121.158 149.901 121.138 149.997 121.125C150.137 121.099 150.297 121.072 150.477 121.046C151.008 120.974 151.692 120.915 152.486 120.868C152.569 120.868 152.659 120.862 152.755 120.855C152.844 120.855 152.934 120.849 153.03 120.842C153.254 120.829 153.484 120.822 153.721 120.816C153.881 120.809 154.041 120.803 154.201 120.803C154.233 120.803 154.265 120.803 154.297 120.803C158.482 120.698 164.189 120.888 167.248 121.329C167.44 121.355 167.632 121.408 167.818 121.48L167.805 121.467Z" fill="#DB5A9B"></path>
<path d="M165.169 120.986C163.562 120.217 162.212 120.888 160.702 119.513C158.002 117.053 154.303 117.415 154.303 117.415L150.464 121.664C150.464 121.664 159.864 125.05 165.169 120.98V120.986Z" fill="url('#paint6_linear_104_16847')"></path>
<path d="M171.267 132.929C170.71 139.624 170.211 147.042 167.542 153.52C167.28 154.158 167.094 154.973 166.954 155.92C168.477 143.379 165.949 131.384 165.949 131.384C165.949 131.384 169.308 131.568 171.267 132.936V132.929Z" fill="#DB5A9B"></path>
<path d="M207.273 130.259C210.556 129.358 213.973 130.003 214.414 127.346C214.798 125.038 213.858 123.439 212.488 122.026C212.245 121.776 217.108 118.362 216.455 117.725C215.553 116.843 210.92 120.94 210.389 121.164C209.225 121.651 207.689 123.308 205.949 125.353C203.408 128.339 188.563 137.112 184.314 140.933C180.11 144.721 182.407 152.08 185.568 149.929C190.239 146.746 203.997 131.167 207.279 130.266L207.273 130.259Z" fill="#FFD2A7"></path>
<path d="M164.106 122.222C166.275 120.368 170.396 121.065 174.863 125.076C179.329 129.088 186.63 139.61 189.267 143.299C191.724 146.739 187.609 154.381 180.641 149.442C173.666 144.503 167.869 137.959 164.234 131.863C160.504 125.609 163.121 123.064 164.106 122.222Z" fill="#FF5EA6"></path>
<path d="M187.411 150.199C192.568 146.838 199.601 139.86 208.796 131.568C208.796 131.568 206.921 126.879 203.421 125.609C203.421 125.609 184.627 139.841 182.753 141.518C180.878 143.195 182.042 153.704 187.411 150.205V150.199Z" fill="#FF5EA6"></path>
<path d="M166.704 158.761C166.691 158.215 166.749 157.485 166.877 156.531C166.8 157.222 166.743 157.971 166.704 158.761Z" fill="#3E4063"></path>
<path d="M299.935 142.392C296.973 142.057 280.38 131.653 276.919 129.7C275.69 129.003 279.043 123.373 282.966 124.09C285.141 124.485 302.617 135.632 304.248 137.98C306.168 140.729 303.749 142.826 299.929 142.392H299.935Z" fill="#FFD2A7"></path>
<path d="M285.333 127.838C282.313 127.325 280.15 126.076 277.335 127.404C278.544 125.201 280.368 123.616 282.972 124.09C284.93 124.445 299.334 133.468 303.333 137.032C302.463 136.368 289.345 128.529 285.333 127.845V127.838Z" fill="#FFBC8E"></path>
<path d="M297.075 131.698C297.075 131.698 284.936 124.602 282.754 123.846C280.566 123.09 276.196 126.306 276.605 129.548C276.605 129.548 276.765 129.627 276.887 129.699C278.09 130.422 284.117 135.46 290.491 138.788C290.491 138.788 294.375 138.163 297.075 131.705V131.698Z" fill="#C8D3FB"></path>
<path d="M297.075 131.698C297.075 131.698 284.936 124.602 282.754 123.846C280.649 123.109 276.432 125.049 276.522 128.081C276.522 128.121 276.637 128.213 276.682 128.245C276.746 128.259 276.823 128.219 277.034 128.022H277.04C277.898 127.187 280.617 124.819 283.126 125.477C286.882 126.463 293.217 131.593 297.069 131.698H297.075Z" fill="#C8D3FB"></path>
<path d="M306.027 142.214C303.365 146.889 293.773 153.841 293.108 157.03C292.442 160.213 283.842 160.535 281.826 159.108C279.766 157.648 281.039 156.202 283.119 154.978C284.437 154.202 285.768 156.34 289.192 155.103C290.779 154.531 296.147 144.279 299.404 139.958C302.629 135.677 307.825 139.05 306.027 142.214Z" fill="#FFD2A7"></path>
<path d="M299.507 142.688C299.507 142.688 299.302 141.702 298.732 141.577C298.163 141.459 300.076 137.763 300.076 137.763L303.461 137.736C303.461 137.736 304.299 138.039 305.17 139.854C306.097 141.781 299.507 142.688 299.507 142.688Z" fill="#FFD2A7"></path>
<path d="M293.204 256.571C292.826 254.684 291.668 252.704 290.088 250.547L294.349 247.759C295.469 249.686 295.827 250.771 297.977 253.079C299.398 254.611 298.253 259.412 294.688 260.313C294.522 260.353 293.767 259.366 293.204 256.565V256.571Z" fill="#FFD2A7"></path>
<path d="M294.74 255.374C293.549 256.052 291.566 253.573 291.348 255.296C293.108 256.611 294.157 259.044 293.856 263.266C293.581 267.113 297.862 270.342 297.862 270.342L299.302 250.39C299.302 250.39 298.72 248.154 294.496 248.535C294.343 250.626 296.531 254.349 294.74 255.381V255.374Z" fill="#1C0A75"></path>
<path d="M295.578 248.292C295.578 248.292 295.239 249.12 294.26 250.087C294.208 250.14 294.157 250.192 294.1 250.238C293.229 251.047 291.905 251.928 289.959 252.468C289.959 252.468 261.075 216.278 261.568 213.075C261.785 211.628 265.215 204.302 271.448 208.583C274.807 210.892 278.985 216.574 283.906 228.352C284.028 228.628 284.143 228.918 284.258 229.2C287.464 237.007 295.571 248.285 295.571 248.285L295.578 248.292Z" fill="#572EFF"></path>
<path d="M276.919 220.29L277.846 236.948C277.846 236.948 280.656 240.447 281.04 241.052C281.417 241.657 289.96 252.468 289.96 252.468L291.802 244.945L288.481 238.461L276.919 220.29Z" fill="#1C0A76"></path>
<path d="M295.578 248.293C295.578 248.293 295.239 249.122 294.26 250.089C294.208 250.141 294.157 250.194 294.1 250.24C288.712 243.894 281.615 232.168 279.197 225.789C277.878 222.33 275.882 217.891 274.205 214.32C272.977 211.702 271.921 209.545 271.454 208.585C274.813 210.893 278.992 216.575 283.913 228.354C284.034 228.63 284.149 228.919 284.265 229.202C287.47 237.008 295.578 248.287 295.578 248.287V248.293Z" fill="#1C0A76"></path>
<path d="M279.984 265.404C286.031 262.767 283.094 257.217 283.465 253.251L288.245 254.251C288.245 254.251 289.576 261.702 289.87 266.18C290.164 270.652 288.923 270.244 288.923 270.244L274.109 270.356C274.109 270.356 275.773 267.246 279.99 265.404H279.984Z" fill="#FFD2A7"></path>
<path d="M279.843 265.47C281.155 265.016 282.255 264.042 283.177 262.793C283.778 261.918 286.734 262.859 287.234 264.542C287.234 264.542 288.424 265.424 289.832 265.279C289.832 265.588 289.838 265.89 289.857 266.186C290.151 270.658 288.91 270.251 288.91 270.251L274.097 270.362C274.097 270.362 275.492 266.982 279.836 265.47H279.843Z" fill="#1C0A75"></path>
<path d="M290.97 162.352C289.723 154.954 288.033 154.848 286.792 153.296C284.751 150.745 276.951 150.094 274.506 154.73C272.062 159.366 272.561 161.583 273.041 171.349C273.521 181.114 278.857 206.611 278.742 213.793C278.627 220.974 288.622 223.947 288.091 213.457C287.56 202.961 292.417 170.908 290.977 162.352H290.97Z" fill="#572EFF"></path>
<path d="M285.352 173.512L278.563 208.511C278.563 208.511 276.413 194.536 275.824 191.814C275.236 189.091 285.359 173.512 285.359 173.512H285.352Z" fill="#1C0A76"></path>
<path d="M288.437 215.529C288.2 213.523 288.149 212.076 288.065 210.057C287.714 201.455 278.358 207.348 278.384 209.623C278.416 212.477 279.113 214.003 278.704 223.855C278.301 233.713 279.843 239.171 281.231 244.202C282.62 249.233 282.998 255.941 282.998 255.941C287.323 257.486 289.038 255.98 289.038 255.98C289.038 255.98 289.236 245.452 289.736 236.994C290.235 228.537 288.981 220.218 288.43 215.522L288.437 215.529Z" fill="#572EFF"></path>
<path d="M271.019 155.242C266.764 168.783 258.496 207.281 258.791 208.972C259.143 210.964 267.039 223.663 268.837 215.114C271.627 201.81 298.413 160.03 282.793 149.192C277.059 145.213 272.318 151.126 271.025 155.242H271.019Z" fill="#572EFF"></path>
<path d="M286.92 144.319C287.029 142.096 287.675 140.012 289.16 132.278C289.736 129.259 290.497 126.885 289.691 125.609C288.776 124.156 286.338 123.939 284.367 124.011C281.635 123.998 276.739 124.412 272.798 124.379C271.294 124.307 269.867 125.432 269.483 125.787C267.653 127.477 266.866 129.95 266.591 131.784C266.316 133.619 263.839 135.934 264.402 139.242C264.966 142.55 268.018 142.234 268.018 142.234C269.195 143.451 270.36 145.74 270.571 147.39C271.057 151.244 269.438 155.223 269.438 155.223C280.636 159.405 289.627 154.486 289.627 154.486C289.627 154.486 286.6 150.974 286.926 144.313L286.92 144.319Z" fill="white"></path>
<path d="M265.465 139.664L264.94 140.736C265.996 142.439 268.018 142.228 268.018 142.228C269.195 143.445 270.36 145.734 270.571 147.384C274.154 141.998 271.14 135.001 271.14 135.001L270.923 135.514L265.465 139.657V139.664Z" fill="#C8D3FB"></path>
<path d="M275.831 131.653C274.717 133.021 260.953 149.258 258.458 150.586C255.534 152.145 253.332 148.436 254.842 144.806C256.289 141.32 265.241 128.72 269.656 125.964C274.41 122.998 278.23 128.707 275.831 131.653Z" fill="#FFD2A7"></path>
<path d="M257.005 140.162C257.005 140.162 258.509 144.016 262.156 147.686L278.883 128.897L274.647 125.043C274.647 125.043 271.735 123.669 268.075 126.805C264.422 129.942 258.919 138.301 257.005 140.162Z" fill="white"></path>
<path d="M254.868 150.389C251.118 146.582 242.902 131.765 240.061 130.312C237.226 128.858 233.342 125.018 233.342 122.499C233.342 119.934 235.23 120.191 237.386 121.256C238.756 121.933 240.176 122.874 242.019 126.083C243.868 129.299 255.374 140.045 258.637 144.352C261.875 148.627 257.408 152.961 254.868 150.389Z" fill="#FFD2A7"></path>
<path d="M279.261 94.6274C280.003 95.7717 279.459 98.3562 276.061 100.369C272.663 102.381 272.446 106.097 270.987 103.571C269.528 101.046 269.598 100.724 270.187 98.0932C270.776 95.4692 277.629 92.1086 279.261 94.6274Z" fill="#1C0A76"></path>
<path d="M279.177 94.5758C278.774 95.8911 280.003 98.2126 283.81 99.1662C287.618 100.126 288.84 103.625 289.55 100.784C290.26 97.9364 290.107 97.6536 288.827 95.2992C287.547 92.9449 280.054 91.6888 279.171 94.5758H279.177Z" fill="#1C0A76"></path>
<path d="M272.446 115.528C272.446 115.528 273.572 119.105 273.61 120.901C273.649 122.696 272.395 124.215 272.395 124.215C272.395 124.215 277.142 126.352 281.82 125.307C281.82 125.307 280.265 120.414 280.956 115.58C281.647 110.747 272.446 115.534 272.446 115.534V115.528Z" fill="#FFBC8E"></path>
<path d="M275.761 122.434C276.08 120.152 275.703 115.292 273.694 114.647C276.426 112.779 281.494 111.793 280.956 115.581C280.265 120.421 281.82 125.308 281.82 125.308C279.517 125.82 277.194 125.564 275.434 125.176C275.549 124.262 275.633 123.348 275.761 122.44V122.434Z" fill="#FFD2A7"></path>
<path d="M273.662 99.665C273.662 99.665 272.235 102.598 271.678 105.209C271.121 107.813 269.157 110.871 270.641 114.508C272.12 118.151 278.531 116.744 280.86 113.693C283.19 110.641 282.934 107.563 281.686 105.4C280.438 103.236 273.668 99.665 273.668 99.665H273.662Z" fill="#FFD2A7"></path>
<path d="M274.148 111.864C274.493 110.601 275.933 100.947 275.933 100.947C278.019 102.184 280.911 104.064 281.679 105.399C282.927 107.563 283.183 110.641 280.854 113.692C278.653 116.579 272.791 117.993 270.916 115.047C272.42 114.646 273.719 113.416 274.141 111.864H274.148Z" fill="#FFBC8E"></path>
<path d="M277.053 95.3446C268.139 98.1725 271.947 107.294 271.947 107.294C271.947 107.294 272.075 101.829 274.756 102.717C275.601 102.993 276.669 106.906 275.421 110.911C273.886 115.85 272.907 120.762 275.978 121.769C281.807 123.682 280.195 144.858 287.669 147.311C297.139 136.986 293.722 133.803 295.085 128.108C298.681 113.048 293.377 104.104 291.201 100.619C289.025 97.14 282.665 93.5559 277.053 95.3381V95.3446Z" fill="#1C0A76"></path>
<path d="M286.766 91.2869C284.047 91.0567 281.66 93.1414 281.436 95.9364C281.212 98.7314 283.241 101.184 285.96 101.415C288.68 101.645 291.067 99.56 291.291 96.765C291.514 93.9701 289.486 91.5171 286.766 91.2869Z" fill="#1C0A76"></path>
<path d="M288.769 155.249C288.769 155.249 287.598 155.236 286.606 155.696C285.608 156.156 286.018 157.097 286.018 157.452C286.018 157.807 290.324 156.735 290.324 156.735L288.769 155.242V155.249Z" fill="#FFD2A7"></path>
<defs>
<linearGradient id="paint0_linear_104_16847" x1="109.095" y1="284.949" x2="263.872" y2="24.1013" gradientUnits="userSpaceOnUse">
<stop stop-color="#6A5FFF"></stop>
<stop offset="1" stop-color="#FF5EA6"></stop>
</linearGradient>
<linearGradient id="paint1_linear_104_16847" x1="324.59" y1="138.887" x2="373.382" y2="138.887" gradientUnits="userSpaceOnUse">
<stop stop-color="#FFD000"></stop>
<stop offset="1" stop-color="#FF7400"></stop>
</linearGradient>
<linearGradient id="paint2_linear_104_16847" x1="334.189" y1="171.888" x2="284.341" y2="171.888" gradientUnits="userSpaceOnUse">
<stop stop-color="white"></stop>
<stop offset="1" stop-color="#D3DBEB"></stop>
</linearGradient>
<linearGradient id="paint3_linear_104_16847" x1="-4.47243" y1="246.635" x2="356.855" y2="96.4266" gradientUnits="userSpaceOnUse">
<stop stop-color="white"></stop>
<stop offset="1" stop-color="#D3DBEB"></stop>
</linearGradient>
<linearGradient id="paint4_linear_104_16847" x1="-50.6084" y1="135.639" x2="310.712" y2="-14.5634" gradientUnits="userSpaceOnUse">
<stop stop-color="white"></stop>
<stop offset="1" stop-color="#D3DBEB"></stop>
</linearGradient>
<linearGradient id="paint5_linear_104_16847" x1="70.3881" y1="148.134" x2="258.573" y2="148.134" gradientUnits="userSpaceOnUse">
<stop stop-color="white"></stop>
<stop offset="1" stop-color="#D3DBEB"></stop>
</linearGradient>
<linearGradient id="paint6_linear_104_16847" x1="150.464" y1="120.197" x2="165.169" y2="120.197" gradientUnits="userSpaceOnUse">
<stop stop-color="white"></stop>
<stop offset="1" stop-color="#D3DBEB"></stop>
</linearGradient>
</defs>
</svg>
