<svg width="394" height="306" fill="none" xmlns="http://www.w3.org/2000/svg"><path opacity=".25" d="M183.392 305.382c82.053 0 148.57-68.362 148.57-152.691C331.962 68.362 265.445 0 183.392 0 101.34 0 34.823 68.362 34.823 152.691c0 84.329 66.517 152.691 148.569 152.691Z" fill="url('#paint0_linear_104_16847')"/><path d="M344.542 219.967c.493 0 .941-.342 1.069-.848l7.589-40.366a1.139 1.139 0 0 0-.794-1.381c-.595-.158-1.19.21-1.343.815l-7.59 40.366a1.139 1.139 0 0 0 .794 1.381.99.99 0 0 0 .275.033Z" fill="#6A5FFF"/><path d="M345.643 219.967c.492 0 .94-.342 1.068-.848l7.589-40.366a1.137 1.137 0 0 0-.793-1.381c-.595-.158-1.19.21-1.344.815l-7.589 40.366a1.139 1.139 0 0 0 .794 1.381.99.99 0 0 0 .275.033Z" fill="#1C0A75"/><path d="M375.73 219.967c.493 0 .941-.342 1.069-.848l7.589-40.366a1.139 1.139 0 0 0-.794-1.381c-.588-.158-1.19.21-1.337.815l-7.589 40.366a1.138 1.138 0 0 0 .793 1.381c.09.026.186.033.276.033h-.007Z" fill="#6A5FFF"/><path d="M376.831 219.967c.492 0 .94-.342 1.068-.848l7.589-40.366a1.137 1.137 0 0 0-.793-1.381 1.092 1.092 0 0 0-1.337.815l-7.59 40.366a1.139 1.139 0 0 0 .794 1.381c.09.026.185.033.275.033h-.006Z" fill="#1C0A75"/><path d="M320.009 220.276h2.668l-8.997 49.422h-2.674l9.003-49.422Z" fill="#6A5FFF"/><path d="M309.47 221.026h30.746v-3.255H309.47v3.255Z" fill="#6A5FFF"/><path d="M346.475 220.276H343.8l8.997 49.422h2.674l-8.996-49.422ZM377.9 220.276h-2.669l8.997 49.422h2.675l-9.003-49.422Z" fill="#1C0A75"/><path d="M351.434 220.276h2.674l-9.003 49.422h-2.668l8.997-49.422Z" fill="#6A5FFF"/><path d="M340.21 221.026h40.85v-3.255h-40.85v3.255ZM349.296 187.894h39.213c.896 0 1.683-.631 1.894-1.532l2.572-10.825c.301-1.263-.633-2.479-1.894-2.479h-39.212c-.896 0-1.683.631-1.894 1.532l-2.573 10.825c-.3 1.262.627 2.479 1.894 2.479Z" fill="#1C0A75"/><path d="M347.377 187.894h39.212c.896 0 1.683-.631 1.894-1.532l2.572-10.825c.301-1.263-.633-2.479-1.894-2.479h-39.212c-.896 0-1.683.631-1.894 1.532l-2.572 10.825c-.301 1.262.633 2.479 1.894 2.479Z" fill="#6A5FFF"/><path d="M341.003 159.642c-2.297 5.307-19.177 22.774-22.127 25.95-3.551 3.821-8.958 2.217-8.344-2.584.525-4.091 18.339-28.976 20.828-30.975 4.486-3.617 12.517.973 9.643 7.615v-.006Z" fill="#FFD2A7"/><path d="M329.466 178.037c4.947-5.491 10.373-15.705 11.531-18.394 2.873-6.636-5.157-11.233-9.643-7.616-1.401 1.125-9.099 9.858-14.398 17.697 0 2.874 7.078 8.313 12.504 8.313h.006Z" fill="#FF5EA6"/><path d="M350.544 139.276s-1.395 9.233 2.598 9.233 11.39.875 14.007 4.439c2.617 3.564 8.159 27.805 5.369 51.033 0 0-28.885 1.703-42.329-11.93 0 0-4.709-30.909-.832-37.268 3.238-5.301 11.307-5.057 11.307-5.057s2.227-2.019 1.344-6.399c-2.156-10.707 8.53-4.051 8.53-4.051h.006Z" fill="#FF5EA6"/><path d="M350.404 140.544c.064-.763.14-1.269.14-1.269s-8.587-5.347-8.811 1.269h8.671Z" fill="url('#paint1_linear_104_16847')"/><path d="M367.149 152.948c-.537-.73-1.279-1.349-2.15-1.875l-6.757 31.633-28.053 9.351c13.438 13.633 42.329 11.93 42.329 11.93 2.79-23.228-2.751-47.468-5.369-51.033v-.006Z" fill="#DB5A9B"/><path d="M356.322 148.666c-3.014 5.814-8.44 9.102-13.335 7.609-2.809-.855-4.933-3.13-6.13-6.149 2.131-.447 3.814-.395 3.814-.395s2.226-2.019 1.343-6.398c-2.156-10.707 8.53-4.051 8.53-4.051s-1.395 9.226 2.598 9.226c.915 0 2.009.046 3.18.158Z" fill="#FFD2A7"/><path d="M353.142 148.508c-3.993 0-2.598-9.227-2.598-9.227s-.55-.342-1.375-.75v4.288c0 5.879-4.64 10.641-10.354 10.641 1.126 1.328 2.528 2.315 4.166 2.814 4.895 1.493 10.328-1.802 13.335-7.609a34.283 34.283 0 0 0-3.18-.157h.006Z" fill="#FFBC8E"/><path d="M337.926 132.041h-3.277v.335h3.277v-.335Z" fill="#002DAA"/><path d="M336.518 125.655v12.851c0 3.788 3.148 6.859 7.039 6.859 3.884 0 7.038-3.071 7.038-6.859v-.316s4.025-.289 4.025-4.498c0-4.209-2.681-2.486-2.681-2.486v-5.551h-15.421Z" fill="#FFD2A7"/><path d="M351.933 131.206v-5.551h-5.471v14.666c0 2.538-2.31 4.603-4.716 4.518a4.274 4.274 0 0 1-2.035-.599 7.122 7.122 0 0 0 3.833 1.125c3.884 0 7.039-3.071 7.039-6.859v-.316s4.024-.289 4.024-4.498c0-4.209-2.681-2.486-2.681-2.486h.007Z" fill="#FFBC8E"/><path d="M351.83 131.344s-1.177 3.768-1.964-.809c-.787-4.578-2.163-4.374-7.135-4.038-4.972.335-11.979-1.572-9.291-7.872 2.636-6.195 13.284-1.618 13.284-1.618s7.788-2.42 9.099 3.9c1.306 6.326-3.993 10.43-3.993 10.43v.007Z" fill="#1C0A76"/><path d="m274.583 214.95-1.715-5.163c-5.42 2.723-10.468 3.473-9.88-5.254.269-4.025-4.364-5.353-4.364-5.353l-1.408 20.873s.679 2.138 5.632-.533c5.381-2.9 11.729-4.564 11.729-4.564l.006-.006Z" fill="#FFD2A7"/><path d="M262.092 212.931c1.274-1.23 3.424.388 3.654-1.46-1.907-.533-3.052-2.519-2.751-6.938.268-4.025-4.364-5.353-4.364-5.353l-1.408 20.873s.64 2.006 5.183-.296c.147-2.19-2.233-4.972-.314-6.826Z" fill="#1C0A76"/><path d="M372.102 204.052c0 10.93-11.096 18.112-23.925 14.435-12.83-3.669-13.035-14.146-32.801-19.525 0 0-6.501-10.588 1.939-12.739 8.446-2.15 54.787 17.829 54.787 17.829Z" fill="#572EFF"/><path d="M315.286 186.967s-39.878 20.748-46.532 23.274c0 0 1.337 6.846 4.607 12.436 0 0 41.426-15.757 45.649-18.631 8.818-6.005-3.717-17.079-3.717-17.079h-.007Z" fill="#572EFF"/><path d="M334.195 186.565h-44.37v2.407h44.37v-2.407ZM334.195 188.972h20.425v-1.354c0-.586-.46-1.053-1.023-1.053h-19.402v2.407Z" fill="#C8D3FB"/><path d="M291.079 186.566h44.191l-5.816-27.963c-.173-.815-.832-1.394-1.6-1.394h-39.801c-1.581 0-2.752 1.605-2.4 3.288l5.426 26.069Z" fill="#C8D3FB"/><path d="M290.004 186.566h44.191l-5.817-27.963c-.172-.815-.831-1.394-1.599-1.394h-40.64c-1.151 0-2.002 1.171-1.746 2.394l5.611 26.963Z" fill="url('#paint2_linear_104_16847')"/><path opacity=".34" d="m307.352 157.202-12.446 29.364h5.695l12.906-29.364h-6.155ZM316.656 157.202l-12.446 29.364h2.214l12.913-29.364h-2.681Z" fill="#DAE7FF"/><path d="M348.177 218.488s-27.426-.717-36.103-2.578c-4.185-.901-18.294-6.846-12.868-15.29 5.426-8.445 30.651 1.663 48.964 17.874l.007-.006Z" fill="#572EFF"/><path d="M301.708 198.476c3.564.078 6.45 2.347 9.624 4.057 1.625.875 13.105 6.682 12.343 8.425-1.184 2.716-8.235 2.689-13.565 2.374a4.82 4.82 0 0 1-1.818 1.315c1.523.638 2.886 1.065 3.788 1.256 8.677 1.868 36.103 2.578 36.103 2.578-16.311-14.435-37.862-24.142-46.469-20.012l-.006.007Z" fill="#1C0A76"/><path d="M278.192 264.509c4.684-1.585 6.943-9.312 8.024-13.448l6.117 2.407s-3.647 7.076-3.365 11.896c.281 4.821-1.05 4.367-1.05 4.367h-15.939s1.529-3.63 6.213-5.215v-.007Z" fill="#FFD2A7"/><path d="M278.192 264.509c1.414-.48 2.604-1.519 3.609-2.847.653-.941 3.826.099 4.351 1.914 0 0 1.286.953 2.809.808 0 .336-.013.665.007.98.281 4.821-1.05 4.367-1.05 4.367h-15.939s1.529-3.63 6.213-5.215v-.007Z" fill="#1C0A76"/><path d="M298.368 202.323s-11.333 39.636-15.345 51.835c0 0 5.849 3.854 10.296 3.591 0 0 8.261-15.783 11.006-21.702 5.413-11.653 9.739-19.131 5.356-25.747-3.097-4.669-11.32-7.977-11.32-7.977h.007Z" fill="#572EFF"/><path d="M365.882 151.672c4.473 3.545 16.989 24.543 19.286 28.239 2.771 4.452-.025 9.47-4.421 7.721-3.744-1.493-23.049-25.175-24.348-28.134-2.355-5.34 3.89-12.265 9.483-7.826Z" fill="#FFD2A7"/><path d="M377.47 166.279c-4.146-6.471-9.233-12.745-11.588-14.613-5.593-4.439-11.838 2.486-9.483 7.826.589 1.335 4.556 7.8 9.387 13.626 5.868-1.098 11.173-5.787 11.684-6.839Z" fill="#FF5EA6"/><path d="M382.11 179.076c-7.058.796-27.458 9.951-31.707 8.918-4.249-1.032-7.845-3.985-9.758-1.105-1.952 2.946-1.273 5.873-.109 8.924.768 2.006 4.32.796 8.805-1.124 4.499-1.92 25.429-3.295 32.334-5.13 6.84-1.815 5.208-11.022.435-10.483Z" fill="#FFD2A7"/><path d="m377.355 180.16.448.888s6.214 3.216 6.348 3.038c.128-.177 1.254-2.44 1.254-2.44s-.947-2.485-1.855-3.617c-.909-1.131-6.188 2.131-6.188 2.131h-.007Z" fill="#FFD2A7"/><path d="M345.31 136.085c-2.176 0-3.193-2.347-3.193-3.932 0-1.467 1.133-2.269 3.193-2.269s3.187.809 3.187 2.269c0 1.585-1.011 3.932-3.187 3.932Zm0-5.866c-1.305 0-2.86.336-2.86 1.934 0 1.446.908 3.597 2.86 3.597s2.86-2.144 2.86-3.597c0-1.598-1.555-1.934-2.86-1.934ZM337.676 136.085c-2.176 0-3.187-2.347-3.187-3.932 0-1.467 1.133-2.269 3.187-2.269s3.193.809 3.193 2.269c0 1.585-1.011 3.932-3.193 3.932Zm0-5.866c-1.305 0-2.86.336-2.86 1.934 0 1.446.908 3.597 2.86 3.597s2.86-2.144 2.86-3.597c0-1.598-1.555-1.934-2.86-1.934Z" fill="#002DAA"/><path d="M342.309 131.666h-1.606v.335h1.606v-.335ZM351.478 132.041h-3.276v.335h3.276v-.335Z" fill="#002DAA"/><path d="M184.154 42.05c-33.114 6.707-50.027 45.252-103.355 79.554-53.328 34.303-41.593 168.238 42.642 146.398 80.351-20.841 84.075-19.197 136.7-17.27 65.87 2.407 28.82-229.898-75.981-208.676l-.006-.006Z" fill="url('#paint3_linear_104_16847')"/><path d="M94.34 98.554c15.542-12.712 28.487-34.894 21.128-56.268C108.11 20.913 92.912 60.7 80.684 73.953c-17.693 19.177-18.87 51.21 13.662 24.602h-.007Z" fill="url('#paint4_linear_104_16847')"/><path d="M265.317 162.661H245.57v-11.114h19.747v11.114Zm-18.639-1.138h17.532v-8.832h-17.532v8.832ZM225.241 80.784h-19.753V69.67h19.753v11.114Zm-18.64-1.137h17.533v-8.832h-17.533v8.832Z" fill="#C8D3FB"/><path d="M206.582 80.784h-19.747V69.67h19.747v11.114Zm-18.64-1.137h17.533v-8.832h-17.533v8.832Z" fill="#C8D3FB"/><path d="M215.924 90.754h-19.753V79.64h19.753v11.114Zm-18.64-1.138h17.533v-8.832h-17.533v8.832ZM142.574 124.538h-19.753v-11.114h19.753v11.114Zm-18.64-1.138h17.533v-8.832h-17.533v8.832Z" fill="#C8D3FB"/><path d="M156.114 134.507h-19.753v-11.114h19.753v11.114Zm-18.64-1.138h17.533v-8.832h-17.533v8.832ZM270.756 228.031h-19.753v-11.107h19.753v11.107Zm-18.64-1.137h17.533v-8.832h-17.533v8.832Z" fill="#C8D3FB"/><path d="M252.091 228.031h-19.753v-11.107h19.753v11.107Zm-18.64-1.137h17.533v-8.832h-17.533v8.832Z" fill="#C8D3FB"/><path d="M261.433 238H241.68v-11.114h19.753V238Zm-18.64-1.138h17.533v-8.832h-17.533v8.832Z" fill="#C8D3FB"/><path d="M183.815 181.384H147.22v82.948h36.595v-82.948Z" fill="#6A6AE8"/><path d="M183.815 232.659H147.22l.185-14.001H184l-.185 14.001ZM215.566 270.324h-94.057c.595-1.526 2.572-2.953 5.644-4.236a39.812 39.812 0 0 1 3.666-1.295c4.332-1.309 9.938-2.4 16.407-3.157 6.399-.73 13.655-1.151 21.315-1.151 5.349 0 10.5.204 15.287.579 13.898 1.092 24.872 3.624 29.511 6.82 1.133.782 1.894 1.598 2.233 2.446l-.006-.006Z" fill="#312890"/><path d="M259.174 81.311V214.97c0 3.722-1.644 7.043-4.229 9.24a11.695 11.695 0 0 1-3.232 1.966 11.127 11.127 0 0 1-4.242.816H66.721c-6.469 0-11.703-5.386-11.703-12.029V81.311c0-4.945 2.899-9.194 7.032-11.042a11.484 11.484 0 0 1 4.672-.993H247.47c.115 0 .23 0 .352.014.115 0 .237.013.352.013a11.497 11.497 0 0 1 6.539 2.558c2.72 2.21 4.46 5.616 4.46 9.457v-.007Z" fill="#312890"/><path d="M266.565 81.31v133.646a12.5 12.5 0 0 1-.326 2.835c-1.133 4.892-5.196 8.628-10.181 9.134-.396.046-.793.073-1.19.073H74.118c-.082 0-.14 0-.198-.014-6.386-.098-11.518-5.438-11.518-12.028V81.311c0-6.65 5.241-12.029 11.717-12.029h180.749c.294 0 .57.013.864.026 6.072.467 10.84 5.656 10.84 12.002h-.007Z" fill="#6A5FFF"/><path d="M247.906 76.05H81.056c-5.892 0-10.668 4.908-10.668 10.963v122.235c0 6.055 4.776 10.963 10.667 10.963h166.851c5.891 0 10.667-4.908 10.667-10.963V87.013c0-6.055-4.776-10.963-10.667-10.963Z" fill="url('#paint5_linear_104_16847')"/><path opacity=".6" d="M86.885 82.796H242.78c4.434 0 8.03 3.696 8.03 8.254v17.276c0 4.551-3.596 8.253-8.03 8.253H86.878c-4.428 0-8.03-3.696-8.03-8.253V91.05c0-4.551 3.596-8.254 8.03-8.254h.007ZM86.885 181.923H242.78c4.434 0 8.03 3.696 8.03 8.253v17.276c0 4.551-3.596 8.254-8.03 8.254H86.878c-4.428 0-8.03-3.696-8.03-8.254v-17.276c0-4.557 3.596-8.253 8.03-8.253h.007Z" fill="#C8D3FB"/><g opacity=".6" fill="#C8D3FB"><path d="M124.619 123.668H84.126c-3.965 0-7.179 3.304-7.179 7.379v36.413c0 4.075 3.214 7.379 7.18 7.379h40.492c3.965 0 7.179-3.304 7.179-7.379v-36.413c0-4.075-3.214-7.379-7.179-7.379ZM144.59 123.668h40.492c3.961 0 7.179 3.308 7.179 7.379v36.413c0 4.071-3.218 7.379-7.179 7.379H144.59c-3.961 0-7.18-3.308-7.18-7.379v-36.413c0-4.071 3.219-7.379 7.18-7.379ZM205.053 123.668h40.492c3.961 0 7.179 3.308 7.179 7.379v36.413c0 4.071-3.218 7.379-7.179 7.379h-40.492c-3.961 0-7.18-3.308-7.18-7.379v-36.413c0-4.071 3.219-7.379 7.18-7.379Z"/></g><path d="M82.642 96.002h44.485c3.308 0 5.996 2.762 5.996 6.162v31.547c0 3.4-2.688 6.162-5.996 6.162H82.636c-3.309 0-5.996-2.762-5.996-6.162v-31.554c0-3.4 2.687-6.162 5.996-6.162l.006.007Z" fill="#FF5EA6"/><path d="m99.535 125.556-14.141-6.32v-3.499l14.141-6.294v4.124l-9.867 3.873 9.867 4.018v4.098ZM100.847 128.332l5.106-21.926h2.969l-5.164 21.926h-2.911ZM110.228 125.57v-4.091l9.88-3.991-9.88-3.946v-4.064l14.16 6.293v3.473l-14.16 6.333v-.007Z" fill="#fff"/><path d="m203.773 97.6-3.18 7.859 4.645 2.492a21.988 21.988 0 0 0-.006 7.465l-4.659 2.472 3.155 7.866 4.998-1.618a21.23 21.23 0 0 0 5.125 5.287l-1.587 5.136 7.647 3.269 2.425-4.775c2.432.441 4.889.434 7.263.007l2.406 4.788 7.646-3.243-1.574-5.136a21.096 21.096 0 0 0 5.145-5.267l4.998 1.631 3.18-7.859-4.646-2.493c.435-2.499.423-5.024.007-7.464l4.658-2.473-3.155-7.858-4.997 1.617a21.237 21.237 0 0 0-5.126-5.287l1.587-5.136-7.646-3.269-2.426 4.775a20.414 20.414 0 0 0-7.262-.013l-2.406-4.788-7.647 3.242 1.574 5.136a21.242 21.242 0 0 0-5.145 5.268l-4.997-1.63Zm27.969-.066c7.622 3.256 11.231 12.252 8.057 20.085-3.174 7.832-11.921 11.535-19.543 8.279-7.621-3.262-11.23-12.252-8.056-20.084 3.174-7.832 11.921-11.542 19.542-8.28Z" fill="#FF5EA6"/><path d="m170.985 89.538-2.438 4.695 2.752 1.835a13.822 13.822 0 0 0-.442 4.65l-3.039 1.256 1.503 5.083 3.206-.697a13.331 13.331 0 0 0 2.886 3.604l-1.286 3.098 4.569 2.505 1.785-2.821c1.491.427 3.02.572 4.518.454l1.222 3.124 4.946-1.546-.685-3.295a13.006 13.006 0 0 0 3.507-2.966l3.014 1.322 2.438-4.695-2.745-1.835c.416-1.533.557-3.104.441-4.643l3.04-1.256-1.504-5.084-3.206.697a13.316 13.316 0 0 0-2.886-3.604l1.287-3.097-4.569-2.506-1.786 2.822a12.721 12.721 0 0 0-4.517-.454l-1.222-3.124-4.947 1.546.679 3.294a13.131 13.131 0 0 0-3.507 2.966l-3.014-1.322v-.006Zm17.411 1.67c4.556 2.493 6.278 8.313 3.853 12.995-2.432 4.676-8.089 6.452-12.645 3.953-4.556-2.499-6.277-8.313-3.852-12.995 2.425-4.683 8.088-6.452 12.644-3.96v.007Z" fill="#6A5FFF"/><path d="M114.201 169.132h85.464v-43.431h-85.464v43.431Z" fill="#6A6AE8"/><path d="m199.665 169.132-13.463-20.084a1.255 1.255 0 0 0-2.125.046l-7.41 12.067-5.944-6.477a1.249 1.249 0 0 0-2.035.263l-7.596 14.185h38.573Z" fill="#1C0A76"/><path d="M173.57 135.915c0 2.394 1.888 4.334 4.217 4.334 2.329 0 4.217-1.94 4.217-4.334 0-2.394-1.888-4.334-4.217-4.334-2.329 0-4.217 1.94-4.217 4.334ZM142.209 137.427c.218.467.685.527 1.133.619 1.593.309 3.468.151 5.1.184.992.019 1.977.006 2.969.006.985.448 2.028.901 3.123.875 1.196-.026 2.162-.776 3.365-.875.704-.059 2.758.224 2.182-1.275-.652-1.691-4.447-1.329-5.759-1.743a10.42 10.42 0 0 0-1.932-.447c-.921-.132-.755-.165-1.581-.698-.403-.263-.607-.414-1.023-.559a3.05 3.05 0 0 0-2.342.119c-.839.401-1.21 1.302-2.118 1.558-.755.217-3.987.329-3.11 2.236h-.007ZM131.139 141.208c1.402.473 3.091.598 4.55.454.838-.086 2.188-.165 2.809-.842.448-.493.409-1.191-.07-1.651-.442-.427-.979-.427-1.504-.289-.941-.401-1.881-.691-2.924-.526-.404.065-.781.302-1.21.276-.339-.02-.729-.276-1.062-.329-.378-.066-.768-.085-1.133.059-1.759.691-.755 2.42.544 2.854v-.006Z" fill="#fff"/><path d="m151.117 169.132-8.409-15.448a.772.772 0 0 0-1.35-.026l-6.373 10.687-2.7-4.321a.77.77 0 0 0-1.363.092l-4.16 9.016-7-16.697a.774.774 0 0 0-1.453.046l-4.108 11.857v4.788h36.916v.006Z" fill="#1C0A76"/><path d="M118.777 166.356h-.916v-.941c0-.105.084-.19.186-.19.103 0 .186.085.186.19v.566h.55c.103 0 .186.086.186.191a.189.189 0 0 1-.186.191l-.006-.007ZM193.656 166.357h-1.439a.188.188 0 0 1-.186-.191c0-.105.083-.19.186-.19h1.439c.103 0 .186.085.186.19a.188.188 0 0 1-.186.191Zm-2.879 0h-1.44a.189.189 0 0 1-.186-.191c0-.105.084-.19.186-.19h1.44c.102 0 .185.085.185.19a.188.188 0 0 1-.185.191Zm-2.88 0h-1.439a.188.188 0 0 1-.186-.191c0-.105.083-.19.186-.19h1.439c.103 0 .186.085.186.19a.188.188 0 0 1-.186.191Zm-2.879 0h-1.44a.189.189 0 0 1-.186-.191c0-.105.084-.19.186-.19h1.44c.102 0 .185.085.185.19a.188.188 0 0 1-.185.191Zm-2.88 0h-1.439a.188.188 0 0 1-.186-.191c0-.105.083-.19.186-.19h1.439c.103 0 .186.085.186.19a.188.188 0 0 1-.186.191Zm-2.879 0h-1.44a.189.189 0 0 1-.186-.191c0-.105.084-.19.186-.19h1.44c.102 0 .185.085.185.19a.188.188 0 0 1-.185.191Zm-2.88 0h-1.439a.188.188 0 0 1-.186-.191c0-.105.083-.19.186-.19h1.439c.103 0 .186.085.186.19a.188.188 0 0 1-.186.191Zm-2.879 0h-1.44a.189.189 0 0 1-.186-.191c0-.105.084-.19.186-.19h1.44c.102 0 .185.085.185.19a.188.188 0 0 1-.185.191Zm-2.88 0h-1.439a.188.188 0 0 1-.186-.191c0-.105.083-.19.186-.19h1.439c.103 0 .186.085.186.19a.188.188 0 0 1-.186.191Zm-2.879 0h-1.44a.189.189 0 0 1-.186-.191c0-.105.084-.19.186-.19h1.44c.102 0 .185.085.185.19a.188.188 0 0 1-.185.191Zm-2.88 0h-1.439a.188.188 0 0 1-.186-.191c0-.105.083-.19.186-.19h1.439c.103 0 .186.085.186.19a.188.188 0 0 1-.186.191Zm-2.879 0h-1.44a.188.188 0 0 1-.185-.191c0-.105.083-.19.185-.19h1.44c.102 0 .185.085.185.19a.188.188 0 0 1-.185.191Zm-2.88 0h-1.439a.188.188 0 0 1-.186-.191c0-.105.083-.19.186-.19h1.439c.103 0 .186.085.186.19a.188.188 0 0 1-.186.191Zm-2.879 0h-1.44a.188.188 0 0 1-.185-.191c0-.105.083-.19.185-.19h1.44c.102 0 .185.085.185.19a.188.188 0 0 1-.185.191Zm-2.88 0h-1.439a.188.188 0 0 1-.186-.191c0-.105.083-.19.186-.19h1.439c.103 0 .186.085.186.19a.188.188 0 0 1-.186.191Zm-2.879 0h-1.44a.188.188 0 0 1-.185-.191c0-.105.083-.19.185-.19h1.44c.102 0 .185.085.185.19a.188.188 0 0 1-.185.191Zm-2.88 0h-1.439a.188.188 0 0 1-.186-.191c0-.105.083-.19.186-.19h1.439c.103 0 .186.085.186.19a.188.188 0 0 1-.186.191Zm-2.879 0h-1.44a.188.188 0 0 1-.185-.191c0-.105.083-.19.185-.19h1.44c.102 0 .185.085.185.19a.188.188 0 0 1-.185.191Zm-2.88 0h-1.439a.188.188 0 0 1-.186-.191c0-.105.083-.19.186-.19h1.439c.103 0 .186.085.186.19a.188.188 0 0 1-.186.191Zm-2.879 0h-1.44a.188.188 0 0 1-.185-.191c0-.105.083-.19.185-.19h1.44c.102 0 .185.085.185.19a.188.188 0 0 1-.185.191Zm-2.88 0h-1.439a.188.188 0 0 1-.186-.191c0-.105.083-.19.186-.19h1.439c.103 0 .186.085.186.19a.188.188 0 0 1-.186.191Zm-2.879 0h-1.44a.188.188 0 0 1-.185-.191c0-.105.083-.19.185-.19h1.44c.102 0 .185.085.185.19a.188.188 0 0 1-.185.191Zm-2.88 0h-1.439a.188.188 0 0 1-.186-.191c0-.105.083-.19.186-.19h1.439c.103 0 .186.085.186.19a.188.188 0 0 1-.186.191Zm-2.879 0h-1.44a.188.188 0 0 1-.185-.191c0-.105.083-.19.185-.19h1.44c.102 0 .185.085.185.19a.188.188 0 0 1-.185.191Zm-2.88 0h-1.439a.188.188 0 0 1-.186-.191c0-.105.083-.19.186-.19h1.439c.103 0 .186.085.186.19a.188.188 0 0 1-.186.191Zm-2.879 0h-1.44a.188.188 0 0 1-.185-.191c0-.105.083-.19.185-.19h1.44c.102 0 .185.085.185.19a.188.188 0 0 1-.185.191ZM196.012 166.357h-.916a.189.189 0 0 1-.186-.191.19.19 0 0 1 .186-.191h.551v-.565c0-.106.083-.191.185-.191.103 0 .186.085.186.191v.94l-.006.007ZM195.826 164.042a.188.188 0 0 1-.186-.19v-1.566c0-.105.083-.19.186-.19.102 0 .185.085.185.19v1.566c0 .105-.083.19-.185.19Zm0-3.13a.189.189 0 0 1-.186-.191v-1.565c0-.105.083-.191.186-.191.102 0 .185.086.185.191v1.565a.188.188 0 0 1-.185.191Zm0-3.13a.189.189 0 0 1-.186-.191v-1.565c0-.106.083-.191.186-.191.102 0 .185.085.185.191v1.565a.188.188 0 0 1-.185.191Zm0-3.131a.188.188 0 0 1-.186-.191v-1.565c0-.105.083-.19.186-.19.102 0 .185.085.185.19v1.565a.188.188 0 0 1-.185.191Zm0-3.13a.189.189 0 0 1-.186-.191v-1.565c0-.105.083-.191.186-.191.102 0 .185.086.185.191v1.565a.188.188 0 0 1-.185.191Zm0-3.131a.188.188 0 0 1-.186-.19v-1.565c0-.106.083-.191.186-.191.102 0 .185.085.185.191v1.565c0 .105-.083.19-.185.19Zm0-3.13a.188.188 0 0 1-.186-.191v-1.565c0-.105.083-.191.186-.191.102 0 .185.086.185.191v1.565a.188.188 0 0 1-.185.191Zm0-3.13a.189.189 0 0 1-.186-.191v-1.565c0-.105.083-.191.186-.191.102 0 .185.086.185.191v1.565a.188.188 0 0 1-.185.191Zm0-3.131a.188.188 0 0 1-.186-.19v-1.566c0-.105.083-.19.186-.19.102 0 .185.085.185.19v1.566c0 .105-.083.19-.185.19Zm0-3.13a.189.189 0 0 1-.186-.191v-1.565c0-.105.083-.191.186-.191.102 0 .185.086.185.191v1.565a.188.188 0 0 1-.185.191Zm0-3.13a.189.189 0 0 1-.186-.191v-1.565c0-.106.083-.191.186-.191.102 0 .185.085.185.191v1.565a.188.188 0 0 1-.185.191ZM195.826 129.602a.189.189 0 0 1-.186-.191v-.566h-.55a.188.188 0 0 1-.186-.19c0-.106.083-.191.186-.191h.915v.941a.188.188 0 0 1-.185.191l.006.006ZM193.656 128.85h-1.439a.188.188 0 0 1-.186-.191c0-.105.083-.19.186-.19h1.439c.103 0 .186.085.186.19a.188.188 0 0 1-.186.191Zm-2.879 0h-1.44a.189.189 0 0 1-.186-.191c0-.105.084-.19.186-.19h1.44c.102 0 .185.085.185.19a.188.188 0 0 1-.185.191Zm-2.88 0h-1.439a.188.188 0 0 1-.186-.191c0-.105.083-.19.186-.19h1.439c.103 0 .186.085.186.19a.188.188 0 0 1-.186.191Zm-2.879 0h-1.44a.189.189 0 0 1-.186-.191c0-.105.084-.19.186-.19h1.44c.102 0 .185.085.185.19a.188.188 0 0 1-.185.191Zm-2.88 0h-1.439a.188.188 0 0 1-.186-.191c0-.105.083-.19.186-.19h1.439c.103 0 .186.085.186.19a.188.188 0 0 1-.186.191Zm-2.879 0h-1.44a.189.189 0 0 1-.186-.191c0-.105.084-.19.186-.19h1.44c.102 0 .185.085.185.19a.188.188 0 0 1-.185.191Zm-2.88 0h-1.439a.188.188 0 0 1-.186-.191c0-.105.083-.19.186-.19h1.439c.103 0 .186.085.186.19a.188.188 0 0 1-.186.191Zm-2.879 0h-1.44a.189.189 0 0 1-.186-.191c0-.105.084-.19.186-.19h1.44c.102 0 .185.085.185.19a.188.188 0 0 1-.185.191Zm-2.88 0h-1.439a.188.188 0 0 1-.186-.191c0-.105.083-.19.186-.19h1.439c.103 0 .186.085.186.19a.188.188 0 0 1-.186.191Zm-2.879 0h-1.44a.189.189 0 0 1-.186-.191c0-.105.084-.19.186-.19h1.44c.102 0 .185.085.185.19a.188.188 0 0 1-.185.191Zm-2.88 0h-1.439a.188.188 0 0 1-.186-.191c0-.105.083-.19.186-.19h1.439c.103 0 .186.085.186.19a.188.188 0 0 1-.186.191Zm-2.879 0h-1.44a.188.188 0 0 1-.185-.191c0-.105.083-.19.185-.19h1.44c.102 0 .185.085.185.19a.188.188 0 0 1-.185.191Zm-2.88 0h-1.439a.188.188 0 0 1-.186-.191c0-.105.083-.19.186-.19h1.439c.103 0 .186.085.186.19a.188.188 0 0 1-.186.191Zm-2.879 0h-1.44a.188.188 0 0 1-.185-.191c0-.105.083-.19.185-.19h1.44c.102 0 .185.085.185.19a.188.188 0 0 1-.185.191Zm-2.88 0h-1.439a.188.188 0 0 1-.186-.191c0-.105.083-.19.186-.19h1.439c.103 0 .186.085.186.19a.188.188 0 0 1-.186.191Zm-2.879 0h-1.44a.188.188 0 0 1-.185-.191c0-.105.083-.19.185-.19h1.44c.102 0 .185.085.185.19a.188.188 0 0 1-.185.191Zm-2.88 0h-1.439a.188.188 0 0 1-.186-.191c0-.105.083-.19.186-.19h1.439c.103 0 .186.085.186.19a.188.188 0 0 1-.186.191Zm-2.879 0h-1.44a.188.188 0 0 1-.185-.191c0-.105.083-.19.185-.19h1.44c.102 0 .185.085.185.19a.188.188 0 0 1-.185.191Zm-2.88 0h-1.439a.188.188 0 0 1-.186-.191c0-.105.083-.19.186-.19h1.439c.103 0 .186.085.186.19a.188.188 0 0 1-.186.191Zm-2.879 0h-1.44a.188.188 0 0 1-.185-.191c0-.105.083-.19.185-.19h1.44c.102 0 .185.085.185.19a.188.188 0 0 1-.185.191Zm-2.88 0h-1.439a.188.188 0 0 1-.186-.191c0-.105.083-.19.186-.19h1.439c.103 0 .186.085.186.19a.188.188 0 0 1-.186.191Zm-2.879 0h-1.44a.188.188 0 0 1-.185-.191c0-.105.083-.19.185-.19h1.44c.102 0 .185.085.185.19a.188.188 0 0 1-.185.191Zm-2.88 0h-1.439a.188.188 0 0 1-.186-.191c0-.105.083-.19.186-.19h1.439c.103 0 .186.085.186.19a.188.188 0 0 1-.186.191Zm-2.879 0h-1.44a.188.188 0 0 1-.185-.191c0-.105.083-.19.185-.19h1.44c.102 0 .185.085.185.19a.188.188 0 0 1-.185.191Zm-2.88 0h-1.439a.188.188 0 0 1-.186-.191c0-.105.083-.19.186-.19h1.439c.103 0 .186.085.186.19a.188.188 0 0 1-.186.191Zm-2.879 0h-1.44a.188.188 0 0 1-.185-.191c0-.105.083-.19.185-.19h1.44c.102 0 .185.085.185.19a.188.188 0 0 1-.185.191ZM118.047 129.6a.188.188 0 0 1-.186-.19v-.941h.916c.102 0 .186.085.186.191 0 .105-.084.19-.186.19h-.551v.566a.188.188 0 0 1-.185.191l.006-.007ZM118.047 164.042a.188.188 0 0 1-.186-.19v-1.566c0-.105.084-.19.186-.19s.186.085.186.19v1.566c0 .105-.084.19-.186.19Zm0-3.13a.19.19 0 0 1-.186-.191v-1.565a.19.19 0 0 1 .186-.191.19.19 0 0 1 .186.191v1.565a.19.19 0 0 1-.186.191Zm0-3.13a.19.19 0 0 1-.186-.191v-1.565c0-.106.084-.191.186-.191s.186.085.186.191v1.565a.19.19 0 0 1-.186.191Zm0-3.131a.189.189 0 0 1-.186-.191v-1.565c0-.105.084-.19.186-.19s.186.085.186.19v1.565a.189.189 0 0 1-.186.191Zm0-3.13a.19.19 0 0 1-.186-.191v-1.565a.19.19 0 0 1 .186-.191.19.19 0 0 1 .186.191v1.565a.19.19 0 0 1-.186.191Zm0-3.131a.188.188 0 0 1-.186-.19v-1.565c0-.106.084-.191.186-.191s.186.085.186.191v1.565c0 .105-.084.19-.186.19Zm0-3.13a.189.189 0 0 1-.186-.191v-1.565a.19.19 0 0 1 .186-.191.19.19 0 0 1 .186.191v1.565a.189.189 0 0 1-.186.191Zm0-3.13a.19.19 0 0 1-.186-.191v-1.565a.19.19 0 0 1 .186-.191.19.19 0 0 1 .186.191v1.565a.19.19 0 0 1-.186.191Zm0-3.131a.188.188 0 0 1-.186-.19v-1.566c0-.105.084-.19.186-.19s.186.085.186.19v1.566c0 .105-.084.19-.186.19Zm0-3.13a.19.19 0 0 1-.186-.191v-1.565a.19.19 0 0 1 .186-.191.19.19 0 0 1 .186.191v1.565a.19.19 0 0 1-.186.191Zm0-3.13a.19.19 0 0 1-.186-.191v-1.565c0-.106.084-.191.186-.191s.186.085.186.191v1.565a.19.19 0 0 1-.186.191Z" fill="#fff"/><path d="M158.008 127.557h-2.15v2.209h2.15v-2.209ZM158.008 165.062h-2.15v2.217h2.15v-2.217ZM196.901 147.627h-2.151v2.21h2.151v-2.21ZM119.122 147.627h-2.15v2.21h2.15v-2.21ZM119.122 127.557h-2.15v2.209h2.15v-2.209ZM119.122 164.844h-2.15v2.209h2.15v-2.209ZM196.901 127.557h-2.151v2.209h2.151v-2.209ZM196.901 164.844h-2.151v2.209h2.151v-2.209Z" fill="#fff"/><path d="M25.628 249.712c.416-2.091 1.702-4.288 3.455-6.675l-4.728-3.091c-1.242 2.138-1.645 3.341-4.019 5.906-1.574 1.697-.307 7.024 3.648 8.023.185.046 1.023-1.052 1.644-4.156v-.007Z" fill="#FFD2A7"/><path d="M23.926 248.383c1.318.757 3.52-1.999 3.762-.092-1.951 1.46-3.116 4.157-2.777 8.839.307 4.261-4.44 7.846-4.44 7.846l-1.6-22.123s.646-2.48 5.33-2.059c.166 2.322-2.259 6.452-.275 7.589Z" fill="#1C0A75"/><path d="M23.785 260.381c6.706-2.926 4.543-9.575 5.625-13.85l5.061 1.96s-.057 7.786.269 12.752c.326 4.965-1.05 4.505-1.05 4.505l-16.425.124s1.842-3.452 6.52-5.491Z" fill="#FFD2A7"/><path d="M23.631 260.452c1.453-.506 2.675-1.585 3.699-2.966.666-.973 3.942.072 4.498 1.94 0 0 1.319.973 2.886.816 0 .342.007.677.032 1.006.327 4.965-1.05 4.505-1.05 4.505l-16.425.125s1.549-3.749 6.36-5.426Z" fill="#1C0A75"/><path d="M41.824 137.736c4.53 15.08 13.168 57.886 12.817 59.753-.416 2.21-11.435 9.655-13.31.152-2.912-14.791-29.947-54.992-12.478-66.784 6.412-4.327 11.595 2.296 12.97 6.879Z" fill="#572EFF"/><path d="M24.207 136.644c1.05-2.393 2.566-4.379 4.652-5.787a8.06 8.06 0 0 1 .57-.355c.019-.013.038-.026.064-.033.998-.572 1.97-.881 2.899-.98-1.824 11.64-1.082 22.945.793 32.961l3.059-15.849s2.495 12.535.96 26.49a17.327 17.327 0 0 0 .895 7.622c3.795 10.844 7.897 17.986 8.473 18.9-.877-.473-2.483.395-4.077.928-.511-.711-.908-1.658-1.158-2.9-2.54-12.91-23.439-45.154-17.13-60.997Z" fill="#1C0A76"/><path d="M16.945 154.381c.57-8.306 3.999-15.092 5.202-16.947 1.977-3.045 8.21-5.36 11.41-.52 3.198 4.834 2.891 7.34 3.422 18.164.538 10.825-2.578 39.577-1.67 47.489.909 7.911-9.796 12.344-10.347.703-.556-11.64-8.677-39.281-8.011-48.882l-.006-.007Z" fill="#572EFF"/><path d="M24.796 205.597c.038-2.243-.058-3.841-.186-6.083-.55-9.529 10.418-4.104 10.629-1.592.275 3.157-.326 4.913 1.197 15.744 1.523 10.831.41 17.026-.576 22.741s-.672 13.153-.672 13.153c-4.607 2.203-6.661.743-6.661.743s-1.37-11.594-2.835-20.867c-1.472-9.272-.998-18.598-.896-23.839Z" fill="#572EFF"/><path d="M22.704 240.952s.499.855 1.721 1.756c.064.046.128.099.198.138 1.082.75 2.662 1.5 4.883 1.789 0 0 26.222-44.358 25.199-47.797-.461-1.552-5.337-9.049-11.531-3.347-3.34 3.077-7.065 9.976-10.68 23.701-.09.329-.173.658-.256.993-2.336 9.082-9.528 22.767-9.528 22.767h-.006Z" fill="#572EFF"/><path d="M22.704 240.953s.499.855 1.721 1.756c.064.046.128.099.198.145 4.953-7.826 10.968-21.84 12.657-29.232.922-4.012 2.445-9.207 3.744-13.39a353.142 353.142 0 0 1 2.156-6.734c-3.34 3.078-7.064 9.976-10.68 23.701-.09.329-.172.658-.256.993-2.335 9.082-9.527 22.768-9.527 22.768l-.013-.007ZM27.439 73.787c3.033.099 5.413 2.71 5.311 5.827-.096 3.117-2.636 5.557-5.67 5.458-3.032-.099-5.406-2.71-5.31-5.826.096-3.118 2.636-5.558 5.663-5.459h.006Z" fill="#1C0A76"/><path d="M20.867 103.112c.768-5.866-2.623-9.543.512-16.172 3.136-6.629 6.457-7.273 9.643-8.214 8.088-2.374 16.426 8.004 13.233 15.251-2.95 6.708-.045 11.995 2.572 17.585 2.618 5.584 3.571 23.202-11.3 24.603-14.871 1.401-18.211-5.15-19.606-14.462-1.664-11.14 4.172-12.732 4.94-18.598l.006.007Z" fill="#1C0A76"/><path d="M37.044 111.661c.448 1.867 6.29 24.3 8.094 26.799 2.112 2.933 5.958.414 6.169-3.841.204-4.077-2.656-20.643-5.657-25.464-3.231-5.189-9.573-1.519-8.6 2.506h-.006Z" fill="#FFD2A7"/><path d="M37.799 110.944c10.974 6.195 13.43 22.525 13.514 23.643.186-4.13-2.662-20.624-5.657-25.431-2.988-4.801-8.126 1.631-7.85 1.788h-.007Z" fill="#FF988C"/><path d="M23.459 128.536c-.192-2.394-.96-4.617-2.816-12.897-.723-3.229-1.619-5.76-.793-7.168 1.043-1.775 4.165-1.973 6.38-1.894 4.005.132 2.386-9.864 2.386-9.864.679-2.052 7.327-1.467 6.809 5.149-.519 6.616 5.938 3.768 7.416 5.044 2.029 1.756 1.747 5.432 2.105 7.398.359 1.967 3.11 4.38 2.611 7.964-.5 3.585-3.8 3.348-3.8 3.348-1.23 1.355-2.407 3.86-2.573 5.649-.397 4.169 1.484 8.398 1.484 8.398-11.927 4.913-21.782-.072-21.782-.072s3.142-3.894 2.566-11.062l.007.007Z" fill="#FFBC8E"/><path d="M26.23 106.576c4.005.132 2.386-9.864 2.386-9.864.378-1.138 2.592-1.467 4.403-.395-1.254.29-4.396 5.814-2.867 14.094.435 2.347 2.841 3.814 5.087 4.34 0 0-14.32 2.104-14.596.888-.723-3.229 3.366-9.135 5.587-9.063Z" fill="#FFBC8E"/><path d="M51.358 129.075s-3.232 2.999-8.46 4.774l-2.073-6.464.423-20.874s3.461-.592 5.554 4.229c2.092 4.82 3.564 15.599 4.562 18.335h-.006Z" fill="#FF5EA6"/><path d="m41.03 127.825.384-18.94c.096-.552.218-1.802.237-2.394.96.007 1.721.717 2.137 1.079 2.029 1.756 1.753 5.432 2.105 7.398.359 1.967 3.11 4.38 2.611 7.964-.493 3.584-2.81 4.203-2.81 4.203-1.125 1.236-2.815 3.61-3.115 5.346l-1.549-4.649v-.007Z" fill="#DB5A9B"/><path d="M23.459 128.536c-.192-2.394-.96-4.617-2.816-12.897-.723-3.229-1.619-5.761-.793-7.168.94-1.605 3.558-1.92 5.682-1.914 2.393 5.623 7.346 8.832 11.16 7.188 2.457-1.052 3.852-3.86 3.948-7.247.96.007 1.785.04 2.207.401 2.029 1.756 1.754 5.432 2.106 7.399.358 1.966 3.11 4.38 2.61 7.964-.492 3.584-3.794 3.347-3.794 3.347-1.229 1.355-2.406 3.86-2.572 5.649-.397 4.17 1.484 8.405 1.484 8.405-11.921 4.912-21.782-.072-21.782-.072s3.142-3.894 2.566-11.062l-.006.007Z" fill="#FF5EA6"/><path d="M23.459 128.536c-.192-2.394-.96-4.616-2.816-12.896-.723-3.229-1.619-5.761-.793-7.168.909-1.546 3.378-1.894 5.464-1.908.039.356.09.717.154 1.079.877 4.761 4.089 8.464 8.178 10.101l-2.342.454c-2.681.52-4.377 3.518-3.795 6.175.429 1.954 1.894 3.335 3.654 3.808l1.056 5.728c.8 4.341-3.008 8.122-7.186 7.103-2.604-.638-4.14-1.414-4.14-1.414s3.142-3.893 2.566-11.062Z" fill="#DB5A9B"/><path d="M.73 129.22c1.305-3.018 16.381-18.23 19.465-21.242 1.095-1.071 6.617 5.722 4.62 9.628-1.107 2.164-18.205 16.658-21.084 17.612-3.379 1.124-4.678-2.111-3.001-6.004v.006Z" fill="#FFD2A7"/><path d="M20.06 118.566c1.505-3.018 2.701-5.997 2.298-9.404 1.805 1.993 3.782 5.847 2.457 8.438-.998 1.953-14.967 13.902-19.836 16.954.947-.704 13.085-11.983 15.082-15.994v.006Z" fill="#FFBC8E"/><path d="M28.488 91.209s2.79-8.385 5.484-8.655c2.694-.27 4.838-.066 6.188 2.953 0 0 1.58 2.663 1.043 5.892 0 0 3.596 3.23-.18 8.063-3.775 4.834-10.238 1.631-12.4-2.755 0 0-3.59 1.23-4.096-2.21-.505-3.44 1.696-3.637 3.968-3.295l-.007.007Z" fill="#FFD2A7"/><path d="M28.488 91.209s2.79-8.385 5.484-8.655c2.157-.217 3.955-.125 5.286 1.467-1.805-.454-8.101 6.97-8.101 11.364 0 4.465 4.658 7.168 8.376 5.195.448-.237.87-.519 1.26-.842-3.8 4.433-10.052 1.276-12.17-3.025 0 0-3.59 1.23-4.096-2.21-.505-3.439 1.696-3.636 3.968-3.294h-.007Z" fill="#FFBC8E"/><path d="M50.385 131.416c-5.656.717-5.663 7.931-1.83 8.398 5.67.691 21.372-4.103 24.502-2.578 3.122 1.526 3.839 4.354 6.891 2.328 3.052-2.025 3.347-3.38 2.988-5.82-.358-2.44-3.986-2.288-7.762-1.216-3.781 1.072-20.086-1.697-24.782-1.105l-.007-.007Z" fill="#FFD2A7"/><path d="M42.24 86.677s-4.25-.625-6.687-3.045c-2.438-2.427-3.68-1.986-3.68-1.986 7.244-3.367 10.366 5.031 10.366 5.031Z" fill="#1C0A76"/><path d="M34.17 82.08c1.165.947 1.46 3.867-1.452 7.195-2.912 3.327-1.894 7.326-4.287 5.175-2.387-2.15-2.42-2.512-2.675-5.498-.256-2.986 5.848-8.957 8.42-6.872h-.006Z" fill="#1C0A76"/><path d="M12.357 129.699s11.537-10.292 13.009-12.343c1.471-2.059-1.607-8.951-4.979-9.576 0 0-.057.053-.172.165-1.114 1.032-7.366 6.846-12.78 12.482 0 0-.645 4.301 4.928 9.272h-.006Z" fill="#FF5EA6"/><path d="M12.357 129.699s11.537-10.292 13.009-12.343c1.471-2.059-1.607-8.951-4.979-9.576 0 0-.057.053-.172.165l-.02.033s4.947 5.261 2.95 9.036c-1.996 3.774-9.419 8.654-10.788 12.685Z" fill="#DB5A9B"/><path d="M27.67 122.36c2.584-2.355 7.761-2.67 9.252-.388.416.638.672 1.269.813 1.894.377 1.486.07 2.92-.506 4.347-.064.157-2.028 1.512-2.118 1.19-1.292-.171-3.135-.954-5.247-1.947-3.57-1.683-17.987 6.787-23.535 8.339-5.497 1.539-7.877-5.09-4.32-6.635 5.26-2.282 23.081-4.453 25.667-6.814l-.007.014Z" fill="#FFD2A7"/><path d="M93.66 130.443H51.173v2.309h42.489v-2.309ZM51.172 132.751H31.617v-1.296a.993.993 0 0 1 .98-1.006h18.575v2.309-.007Z" fill="#6A6AE8"/><path d="M92.464 130.443H50.142l5.573-26.779c.16-.782.8-1.335 1.536-1.335h38.112c1.51 0 2.636 1.532 2.297 3.15l-5.196 24.971v-.007Z" fill="#572EFF"/><path d="M93.495 130.443H51.172l5.574-26.779c.16-.782.8-1.335 1.53-1.335h38.917c1.1 0 1.92 1.118 1.67 2.295l-5.375 25.826.007-.007Z" fill="#6A6AE8"/><path opacity=".34" d="m76.877 102.329 11.92 28.114h-5.451l-12.363-28.114h5.894ZM67.97 102.329l11.92 28.114h-2.124l-12.363-28.114h2.566Z" fill="#DAE7FF"/><path d="M125.163 178.509h41.573c2.137 0 3.871 1.782 3.871 3.979v20.38c0 2.196-1.734 3.979-3.871 3.979h-41.573c-2.138 0-3.872-1.783-3.872-3.979v-20.38c0-2.197 1.734-3.979 3.872-3.979Z" fill="#FF5EA6"/><path d="M126.231 198.153v-11.107h2.182v4.373h4.275v-4.373h2.182v11.107h-2.182v-4.86h-4.275v4.86h-2.182ZM139.56 198.154v-9.233h-3.206v-1.881h8.594v1.881h-3.199v9.233H139.56ZM146.317 198.153v-11.107h3.27l1.965 7.576 1.939-7.576h3.276v11.107h-2.029v-8.746l-2.143 8.746h-2.099l-2.137-8.746v8.746h-2.042ZM158.987 198.154v-11.022h2.182v9.148h5.426v1.874h-7.608Z" fill="#fff"/><path d="M103.515 192.952c1.785 0 3.417-.638 4.844-1.644.058 3.071-.134 6.142-.723 9.154-1.9 3.157-7.186 8.957-6.834 8.924 1.478-.125 2.867-.526 4.243-1.019a32.762 32.762 0 0 1-3.232 5.432c-2.56 3.512-6.213 6.32-7.602 10.614a.269.269 0 0 1-.16.191c-.025.237-.288.428-.499.23-6.898-6.727-8.127-16.954-9.138-26.167a42.922 42.922 0 0 1-.134-1.309c1.907 1.96 3.942 3.755 6.354 5.097.333.184-4.319-7.464-6.597-10.989.077-2.21.41-4.413 1.19-6.544 1.613-4.446 4.383-8.602 7.065-12.429.108-.158.23-.309.339-.467.73 1.979 1.702 3.84 2.969 5.524.224.296-.486-5.597-.928-8.286a87.862 87.862 0 0 1 2.048-2.552c.921-1.111 2.054-3.005 3.705-2.749 1.599.23 5.253 6.978 5.714 8.904.198.823.377 1.664.544 2.506.076.362.14.737.204 1.098.608 3.387.967 6.86 1.229 10.266-.115.184-.224.362-.358.539-1.338 1.875-4.582 5.676-4.256 5.676h.013Z" fill="#6A6AE8"/><path d="M97.232 189.552c3.404-.526 6.002-2.736 8.497-5.018.371-.342-.089-.986-.467-.644-2.342 2.137-4.78 4.268-7.954 4.827a303.822 303.822 0 0 1 2.56-15.56c.096-.506-.672-.631-.768-.125a299.953 299.953 0 0 0-3.225 20.643 34.55 34.55 0 0 1-4.505-9.299c-.153-.486-.876-.19-.723.296a35.46 35.46 0 0 0 4.831 9.825c.077.112.18.158.282.158-.18 1.513-.34 3.025-.5 4.538a21.802 21.802 0 0 1-3.34-6.011c-.172-.48-.895-.184-.723.296a22.356 22.356 0 0 0 3.801 6.662.33.33 0 0 0 .16.112c-.499 4.985-.876 9.983-1.132 14.987a.357.357 0 0 0-.045.171 121.36 121.36 0 0 0-.186 5.492c-.038 1.19-.07 2.387-.096 3.584 0 .125.045.217.116.269.198 11.279 1.83 22.439 4.133 33.481.25-.066.506-.125.755-.184-2.61-12.476-4.344-25.102-4.114-37.887.045-1.348.102-2.696.166-4.044a.356.356 0 0 0 .346-.046c1.42-1 2.623-2.263 3.564-3.749.269-.427-.34-.934-.608-.5a12.54 12.54 0 0 1-3.263 3.479 304.621 304.621 0 0 1 2.406-25.766h.032v.013Z" fill="#312890"/><path d="M70.183 212.733c-1.523.605-3.084.678-4.581.402.825 2.328 1.849 4.57 3.2 6.635 2.507 1.73 8.644 4.301 8.33 4.4-1.292.407-2.585.572-3.89.671a25.015 25.015 0 0 0 4.28 2.985c3.175 1.776 7.072 2.65 9.465 5.406a.214.214 0 0 0 .192.086c.09.17.364.223.486 0 3.961-7.386 2.118-15.481.371-22.748-.083-.342-.166-.684-.256-1.026-1.068 2.117-2.29 4.156-3.96 5.978-.231.25 1.56-7.07 2.501-10.483-.69-1.631-1.593-3.176-2.86-4.518-2.63-2.795-6.156-4.985-9.522-6.951-.134-.079-.287-.152-.422-.237a17.055 17.055 0 0 1-.96 5.156c-.102.296-1.164-4.367-1.555-6.537a71.544 71.544 0 0 0-2.463-1.223c-1.1-.526-2.598-1.565-3.93-.816-1.292.717-2.488 7.017-2.341 8.622.064.684.147 1.381.25 2.065.038.296.083.598.134.894.441 2.749 1.12 5.478 1.855 8.129.148.098.295.197.455.283 1.67.953 5.503 2.716 5.221 2.827Z" fill="#6A6AE8"/><path d="M93.38 259.912c-1.159-9.075-2.931-18.006-5.952-26.549.045-.065.058-.144.02-.243-.359-.888-.723-1.776-1.095-2.657a93.278 93.278 0 0 0-1.708-4.064.255.255 0 0 0-.09-.112 213.07 213.07 0 0 0-5.202-10.877.373.373 0 0 0 .102-.138c.832-2.052 1.287-4.15 1.344-6.294.013-.421-.685-.401-.697.02-.058 1.92-.448 3.794-1.14 5.649-.563-1.085-1.126-2.17-1.708-3.242a.327.327 0 0 0 .192-.217 27.835 27.835 0 0 0 1.331-9.017c-.006-.42-.71-.401-.697.02a27.126 27.126 0 0 1-1.197 8.51 212.968 212.968 0 0 0-8.575-14.422c-.224-.349-.844 0-.62.355a217.988 217.988 0 0 1 6.578 10.825c-2.854.657-5.529-.125-8.127-.941-.416-.131-.627.513-.217.638 2.77.868 5.605 1.651 8.645.895.012 0 .019-.007.025-.013a215.241 215.241 0 0 1 9.33 18.545c-1.37-.27-2.63-.776-3.756-1.513-.352-.23-.73.349-.378.579a10.924 10.924 0 0 0 4.089 1.611.352.352 0 0 0 .307-.085c.435.993.864 1.986 1.286 2.986 3.808 9.529 5.906 19.604 7.212 29.856l.697-.118v.013Z" fill="#312890"/><path d="M68.577 203.034c-2.22-.454-4.255-1.263-6.06-2.433.039.296.084.598.135.894 1.728 1.026 3.64 1.756 5.708 2.177.435.085.646-.553.217-.638Z" fill="#84AFE6"/><path d="M134.352 209.037c-.045 2.881-6.534 4.281-8.594 5.064-4.563 1.736-9.01 3.485-12.382 7.254-3.974 4.445-7.404 9.575-10.833 14.474a.788.788 0 0 1-.813.355c-.051 0-.435-.828-.947-2.104-1.184-2.992-2.988-8.47-2.54-11.594.313-2.197 1.049-4.288 2.066-6.228.231.986.621 1.927 1.299 2.637.167.171.519-3.939.749-5.8.301-.382.602-.743.928-1.099a19.833 19.833 0 0 1 2.4-2.268c.185-.152.364-.303.55-.441a25.072 25.072 0 0 1 2.182-1.493c.198-.118.403-.237.614-.362a25.237 25.237 0 0 1 2.182-1.111c.231 1.414.589 2.788 1.203 4.11.128.276.429-3.248.474-4.8.704-.277 1.42-.5 2.156-.717.205.914.48 1.808.896 2.657.102.203 1.062-2.184 1.414-3.229 2.323-.481 4.678-.678 6.949-.559.199.006.397.013.589.039.621.046 1.241.118 1.843.21 2.239.356 7.506 1.816 7.608 4.92v.085h.007Z" fill="#6A6AE8"/><path d="M109.383 216.614c-5.51 5.59-7.224 15.862-7.576 18.782a13.42 13.42 0 0 0-1.133 3.795c-.653 4.61-.461 9.476-.352 14.119.039 1.526.102 3.052.179 4.577.256-.046.512-.098.768-.144a159.37 159.37 0 0 1-.077-15.376c.096-2.15.288-4.308 1.101-6.3a.94.94 0 0 0 .25-.237c3.429-4.899 6.859-10.029 10.833-14.481 3.372-3.768 7.826-5.518 12.382-7.254 2.06-.783 8.549-2.183 8.593-5.064-8.645 1.039-18.62 1.145-24.962 7.576l-.006.007ZM109.153 213.87a18.886 18.886 0 0 1-.116-6.432c-.211.119-.416.237-.614.362a19.475 19.475 0 0 0 .173 6.208c.07.369.621.237.557-.131v-.007ZM107.041 215.023a25.156 25.156 0 0 1-.806-5.735c-.186.138-.371.289-.551.441.071 1.835.34 3.643.8 5.432.096.362.653.23.557-.132v-.006Z" fill="#312890"/><path d="M116.262 253.54c0 1.499-.154 2.959-.448 4.36a20.905 20.905 0 0 1-7.922 12.489H84.146c-3.974-2.966-6.86-7.379-7.922-12.489a21.29 21.29 0 0 1-.448-4.36c0-1.493.166-3.078.486-4.531.263-1.243.64-2.44 1.114-3.591h37.273a20.795 20.795 0 0 1 1.12 3.591c.32 1.46.486 2.979.486 4.531h.007Z" fill="#C8D3FB"/><path d="M116.262 253.54c0 1.499-.154 2.959-.448 4.36a20.905 20.905 0 0 1-7.922 12.489H84.146c31.022 1.584 30.51-24.971 30.51-24.971a20.882 20.882 0 0 1 1.12 3.591c.319 1.46.486 2.979.486 4.531Z" fill="#BFCBF1"/><path d="M161.412 179.905c1.312-4.11-13.738-18.289-13.738-18.289-5.036 3.762-15.479 8.53-12.452 20.38 2.994 11.726 26.139 38.223 26.139 38.223s7.487-3.769 8.236-8.576c.748-4.807-9.496-27.628-8.185-31.738Z" fill="#1C0A76"/><path d="M107.502 266.404c-1.709-.368-3.014-2.151-2.803-3.295.55-3.018 6.335-6.254 9.221-8.358l-4.684-5.479c-4.179 2.756-5.67 7.478-12.235 10.365-4.665 2.052-2.54 4.485-2.54 4.485l8.005 5.86a2.704 2.704 0 0 0 1.587.519h7.294c.474 0 .813-.467.685-.934-.281-.98-1.254-2.473-4.517-3.17l-.013.007Z" fill="#FFD2A7"/><path d="M107.502 266.403c-1.709-.368-3.014-2.15-2.803-3.295.07-.388.23-.776.454-1.164-3.602-.894-5.036-2.781-5.535-3.709-.78.5-1.638.974-2.617 1.408-4.665 2.052-2.54 4.485-2.54 4.485l8.005 5.859c.461.336 1.017.52 1.587.52h7.294c.474 0 .813-.467.685-.934-.281-.98-1.254-2.473-4.511-3.17h-.019Z" fill="#1C0A76"/><path d="M170.793 265.778c-9.797-2.506-7.301-9.043-6.277-15.895l-7.73-.743c.774 5.682.115 8.043-.454 16.066-.403 5.702 1.183 5.189 1.183 5.189l18.884.243s.057-3.413-5.612-4.86h.006Z" fill="#FFD2A7"/><path d="M170.831 265.633c-1.695-.487-4.792-1.716-5.963-3.301-.352-.493-1.159 1.585-1.773 2.262-1.222 1.355-5.567.48-6.699-.473 0 .394-.026.723-.058 1.091-.403 5.702 1.184 5.189 1.184 5.189l18.883.243s.333-3.314-5.574-5.011ZM156.165 212.419c-.416 4.439-.109 43.417-.109 43.417 3.75 1.697 8.409.092 8.409.092.563-4.643 5.138-44.285 5.138-44.285s-13.015-3.67-13.431.769l-.007.007Z" fill="#1C0A76"/><path d="M135.292 220.954c-3.571 2.973-29.467 30.89-29.467 30.89.934 4.077 4.87 6.399 4.87 6.399 3.807-3.019 35.392-26.885 35.392-26.885s-7.224-13.376-10.795-10.404Z" fill="#572EFF"/><path d="M155.18 195.432c4.78-22.051-1.216-28.036-1.216-28.036-6.2.54-17.622-1.387-20.899 11.568-3.244 12.818 3.82 54.887 3.82 54.887s6.892.921 9.925-3.157c3.033-4.077 7.423-30.876 8.376-35.262h-.006Z" fill="#572EFF"/><path d="M190.796 174.499c-3.551.118-4.959 3.525-7.954 2.288-3.001-1.236-4.37-1.118-4.306-3.656.057-2.539 2.054-2.4 6.085-2.532 3.929-.132 11.461 3.722 6.181 3.893l-.006.007Z" fill="#FFD2A7"/><path d="M150.201 124.925c2.157-1.861 4.966-2.249 8.69 3.131 3.436 4.971 8.434 21.406 10.213 25.608 1.657 3.913-3.993 10.43-9.733 4.038-5.74-6.399-7.839-14.179-9.745-21.051-1.901-6.879-1.767-9.7.575-11.719v-.007Z" fill="#DB5A9B"/><path d="M158.866 157.801c3.839 4.879 9.387 9.2 18.46 17.637 0 0 4.313-2.452 5.145-6.175 0 0-13.911-15.494-15.748-17.21-1.836-1.723-11.857.671-7.857 5.748Z" fill="#DB5A9B"/><path d="M165.712 115.534s-2.418.427-2.662 2.275c-.243 1.848.883 3.552.883 3.552s-5.125 1.644-9.828.013c0 0 2.143-4.854 1.971-9.918-.173-5.057 9.63 4.078 9.63 4.078h.006Z" fill="#FFD2A7"/><path d="M160.67 119.125c-.077-2.387 1.715-4.228 3.859-4.649-2.605-2.243-8.575-6.978-8.441-3.019.173 5.064-1.97 9.917-1.97 9.917 2.316.803 4.728.809 6.59.612-.019-.954 0-1.901-.032-2.854l-.006-.007Z" fill="#FFBC8E"/><path d="M170.07 99.49s.48 3.36.218 6.109c-.269 2.749.703 6.405-1.895 9.503-2.597 3.091-8.472-.415-9.803-4.19-1.331-3.774-.115-6.721 1.792-8.437 1.907-1.716 9.694-2.986 9.694-2.986h-.006Z" fill="#FFD2A7"/><path d="M165.77 111.332c.058-1.355 1.664-11.331 1.664-11.331-2.445.526-5.875 1.414-7.058 2.479-1.907 1.717-3.123 4.663-1.792 8.438 1.261 3.571 6.591 6.905 9.355 4.623-1.35-.894-2.246-2.532-2.175-4.209h.006Z" fill="#FFBC8E"/><path d="M167.184 101.75s-1.043 1.026-1.51 3.413c-.467 2.387-.902 3.689-1.683 2.098-.781-1.592-.979-4.13-3.001-2.624-1.337 1-1.325 2.986-.928 4.077.397 1.092-.96 3.479-3.718 2.552-2.751-.927-4.53-8.609-4.53-8.609s12.657-3.965 15.364-.907h.006Z" fill="#1C0A76"/><path d="M168.502 92.116s3.705.98 4.025 4.216c.288 2.873-1.241 5.662-6.2 5.405-4.96-.263-5.311 2.914-7.935 3.742-2.624.829-5.26.02-6.501-2.65-1.286-2.762-.858-6.116 2.374-8.819 3.238-2.703 13.917-6.524 14.231-1.894h.006Z" fill="#1C0A76"/><path d="M171.414 131.193c-.051.573-.103 1.151-.147 1.737-.557 6.694-1.056 14.113-3.725 20.59-.262.638-.447 1.454-.588 2.401-.019.171-.045.342-.064.513a.475.475 0 0 1-.013.098 36.65 36.65 0 0 0-.173 2.23c-.397 7.714-2.22 20.281-3.532 20.748-3.014 1.079-12.062.73-19.485-.289h-.006c-.544-.079-1.075-.158-1.593-.237-.135-.02-.269-.046-.403-.066a16.714 16.714 0 0 1-.628-.111c-.147-.027-.3-.053-.447-.079a15.268 15.268 0 0 1-.551-.106c-.243-.046-.486-.092-.716-.144h-.026a27.14 27.14 0 0 1-.461-.099 15.308 15.308 0 0 1-.652-.151c-.09-.026-.18-.04-.269-.066-1.754-.434-3.187-.934-4.089-1.486a6.104 6.104 0 0 1-.435-.303 1.123 1.123 0 0 1-.128-.111 2.085 2.085 0 0 1-.301-.342 1.054 1.054 0 0 1-.07-.119s0-.006-.007-.013a.67.67 0 0 1-.057-.145s-.007-.006 0-.013a.593.593 0 0 1-.039-.144c-.608-3.742 8.044-40.728 9.931-45.496 1.869-4.742 4.768-8.063 6.79-8.753.064-.02.128-.04.211-.059.077-.02.166-.04.262-.053.147-.026.307-.053.48-.079.538-.079 1.222-.131 2.009-.178.083 0 .173-.006.269-.013.09 0 .179-.006.275-.013.224-.013.454-.02.685-.026.16 0 .32-.013.48-.013h.096c4.185-.105 9.899.085 12.951.526.192.026.384.079.57.151 2.29.848 4.05 4.735 3.609 9.727l-.013-.014Z" fill="#FF5EA6"/><path d="M167.805 121.467c-.474.401-1.888 1.361-5.414 1.855-3.212.447-7.595-.836-9.63.716-2.182 1.658-6.988 2.979-13.45 23.432-.928 2.94-2.304 18.927-2.445 22.011-.224 5.104 2.777 8.319 6.815 9.733-.544-.079-1.075-.157-1.6-.236-.134-.02-.269-.046-.403-.066a17.019 17.019 0 0 1-.627-.112c-.154-.026-.301-.053-.448-.079a14.559 14.559 0 0 1-.544-.105 19.652 19.652 0 0 1-.723-.145h-.025l-.468-.098c-.224-.046-.435-.099-.652-.152-.09-.019-.179-.046-.269-.065-1.76-.434-3.187-.934-4.089-1.487a.702.702 0 0 0-.083-.052 6.636 6.636 0 0 1-.352-.25c-.045-.04-.09-.073-.128-.112a2.365 2.365 0 0 1-.301-.342c-.025-.039-.051-.079-.07-.118v-.014a.668.668 0 0 1-.058-.144v-.013a.524.524 0 0 1-.038-.145c-.608-3.742 8.043-40.728 9.931-45.496 1.868-4.735 4.767-8.056 6.789-8.746.058-.02.128-.04.211-.059a12.1 12.1 0 0 1 .743-.132 27.928 27.928 0 0 1 2.009-.178c.083 0 .173-.006.269-.013.089 0 .179-.006.275-.013.224-.013.454-.02.691-.026.16-.007.32-.013.48-.013h.096c4.185-.105 9.892.085 12.951.526.192.026.384.079.57.151l-.013-.013Z" fill="#DB5A9B"/><path d="M165.169 120.986c-1.607-.769-2.957-.098-4.467-1.473-2.7-2.46-6.399-2.098-6.399-2.098l-3.839 4.249s9.4 3.386 14.705-.684v.006Z" fill="url('#paint6_linear_104_16847')"/><path d="M171.267 132.929c-.557 6.695-1.056 14.113-3.725 20.591-.262.638-.448 1.453-.588 2.4 1.523-12.541-1.005-24.536-1.005-24.536s3.359.184 5.318 1.552v-.007Z" fill="#DB5A9B"/><path d="M207.273 130.259c3.283-.901 6.7-.256 7.141-2.913.384-2.308-.556-3.907-1.926-5.32-.243-.25 4.62-3.664 3.967-4.301-.902-.882-5.535 3.215-6.066 3.439-1.164.487-2.7 2.144-4.44 4.189-2.541 2.986-17.386 11.759-21.635 15.58-4.204 3.788-1.907 11.147 1.254 8.996 4.671-3.183 18.429-18.762 21.711-19.663l-.006-.007Z" fill="#FFD2A7"/><path d="M164.106 122.222c2.169-1.854 6.29-1.157 10.757 2.854 4.466 4.012 11.767 14.534 14.404 18.223 2.457 3.44-1.658 11.082-8.626 6.143-6.975-4.939-12.772-11.483-16.407-17.579-3.73-6.254-1.113-8.799-.128-9.641Z" fill="#FF5EA6"/><path d="M187.411 150.199c5.157-3.361 12.19-10.339 21.385-18.631 0 0-1.875-4.689-5.375-5.959 0 0-18.794 14.232-20.668 15.909-1.875 1.677-.711 12.186 4.658 8.687v-.006Z" fill="#FF5EA6"/><path d="M166.704 158.761c-.013-.546.045-1.276.173-2.23-.077.691-.134 1.44-.173 2.23Z" fill="#3E4063"/><path d="M299.935 142.392c-2.962-.335-19.555-10.739-23.016-12.692-1.229-.697 2.124-6.327 6.047-5.61 2.175.395 19.651 11.542 21.282 13.89 1.92 2.749-.499 4.846-4.319 4.412h.006Z" fill="#FFD2A7"/><path d="M285.333 127.838c-3.02-.513-5.183-1.762-7.998-.434 1.209-2.203 3.033-3.788 5.637-3.314 1.958.355 16.362 9.378 20.361 12.942-.87-.664-13.988-8.503-18-9.187v-.007Z" fill="#FFBC8E"/><path d="M297.075 131.698s-12.139-7.096-14.321-7.852c-2.188-.756-6.558 2.46-6.149 5.702 0 0 .16.079.282.151 1.203.723 7.23 5.761 13.604 9.089 0 0 3.884-.625 6.584-7.083v-.007Z" fill="#C8D3FB"/><path d="M297.075 131.698s-12.139-7.096-14.321-7.852c-2.105-.737-6.322 1.203-6.232 4.235 0 .04.115.132.16.164.064.014.141-.026.352-.223h.006c.858-.835 3.577-3.203 6.086-2.545 3.756.986 10.091 6.116 13.943 6.221h.006Z" fill="#C8D3FB"/><path d="M306.027 142.214c-2.662 4.675-12.254 11.627-12.919 14.816-.666 3.183-9.266 3.505-11.282 2.078-2.06-1.46-.787-2.906 1.293-4.13 1.318-.776 2.649 1.362 6.073.125 1.587-.572 6.955-10.824 10.212-15.145 3.225-4.281 8.421-.908 6.623 2.256Z" fill="#FFD2A7"/><path d="M299.507 142.688s-.205-.986-.775-1.111c-.569-.118 1.344-3.814 1.344-3.814l3.385-.027s.838.303 1.709 2.118c.927 1.927-5.663 2.834-5.663 2.834ZM293.204 256.571c-.378-1.887-1.536-3.867-3.116-6.024l4.261-2.788c1.12 1.927 1.478 3.012 3.628 5.32 1.421 1.532.276 6.333-3.289 7.234-.166.04-.921-.947-1.484-3.748v.006Z" fill="#FFD2A7"/><path d="M294.74 255.374c-1.191.678-3.174-1.801-3.392-.078 1.76 1.315 2.809 3.748 2.508 7.97-.275 3.847 4.006 7.076 4.006 7.076l1.44-19.952s-.582-2.236-4.806-1.855c-.153 2.091 2.035 5.814.244 6.846v-.007Z" fill="#1C0A75"/><path d="M295.578 248.292s-.339.828-1.318 1.795c-.052.053-.103.105-.16.151-.871.809-2.195 1.69-4.141 2.23 0 0-28.884-36.19-28.391-39.393.217-1.447 3.647-8.773 9.88-4.492 3.359 2.309 7.537 7.991 12.458 19.769.122.276.237.566.352.848 3.206 7.807 11.313 19.085 11.313 19.085l.007.007Z" fill="#572EFF"/><path d="m276.919 220.29.927 16.658s2.81 3.499 3.194 4.104c.377.605 8.92 11.416 8.92 11.416l1.842-7.523-3.321-6.484-11.562-18.171Z" fill="#1C0A76"/><path d="M295.578 248.293s-.339.829-1.318 1.796c-.052.052-.103.105-.16.151-5.388-6.346-12.485-18.072-14.903-24.451-1.319-3.459-3.315-7.898-4.992-11.469-1.228-2.618-2.284-4.775-2.751-5.735 3.359 2.308 7.538 7.99 12.459 19.769.121.276.236.565.352.848 3.205 7.806 11.313 19.085 11.313 19.085v.006Z" fill="#1C0A76"/><path d="M279.984 265.404c6.047-2.637 3.11-8.187 3.481-12.153l4.78 1s1.331 7.451 1.625 11.929c.294 4.472-.947 4.064-.947 4.064l-14.814.112s1.664-3.11 5.881-4.952h-.006Z" fill="#FFD2A7"/><path d="M279.843 265.47c1.312-.454 2.412-1.428 3.334-2.677.601-.875 3.557.066 4.057 1.749 0 0 1.19.882 2.598.737 0 .309.006.611.025.907.294 4.472-.947 4.065-.947 4.065l-14.813.111s1.395-3.38 5.739-4.892h.007Z" fill="#1C0A75"/><path d="M290.97 162.352c-1.247-7.398-2.937-7.504-4.178-9.056-2.041-2.551-9.841-3.202-12.286 1.434-2.444 4.636-1.945 6.853-1.465 16.619.48 9.765 5.816 35.262 5.701 42.444-.115 7.181 9.88 10.154 9.349-.336-.531-10.496 4.326-42.549 2.886-51.105h-.007Z" fill="#572EFF"/><path d="m285.352 173.512-6.789 34.999s-2.15-13.975-2.739-16.697c-.588-2.723 9.535-18.302 9.535-18.302h-.007Z" fill="#1C0A76"/><path d="M288.437 215.529c-.237-2.006-.288-3.453-.372-5.472-.351-8.602-9.707-2.709-9.681-.434.032 2.854.729 4.38.32 14.232-.403 9.858 1.139 15.316 2.527 20.347 1.389 5.031 1.767 11.739 1.767 11.739 4.325 1.545 6.04.039 6.04.039s.198-10.528.698-18.986c.499-8.457-.755-16.776-1.306-21.472l.007.007ZM271.019 155.242c-4.255 13.541-12.523 52.039-12.228 53.73.352 1.992 8.248 14.691 10.046 6.142 2.79-13.304 29.576-55.084 13.956-65.922-5.734-3.979-10.475 1.934-11.768 6.05h-.006Z" fill="#572EFF"/><path d="M286.92 144.319c.109-2.223.755-4.307 2.24-12.041.576-3.019 1.337-5.393.531-6.669-.915-1.453-3.353-1.67-5.324-1.598-2.732-.013-7.628.401-11.569.368-1.504-.072-2.931 1.053-3.315 1.408-1.83 1.69-2.617 4.163-2.892 5.997-.275 1.835-2.752 4.15-2.189 7.458.564 3.308 3.616 2.992 3.616 2.992 1.177 1.217 2.342 3.506 2.553 5.156.486 3.854-1.133 7.833-1.133 7.833 11.198 4.182 20.189-.737 20.189-.737s-3.027-3.512-2.701-10.173l-.006.006Z" fill="#fff"/><path d="m265.465 139.664-.525 1.072c1.056 1.703 3.078 1.492 3.078 1.492 1.177 1.217 2.342 3.506 2.553 5.156 3.583-5.386.569-12.383.569-12.383l-.217.513-5.458 4.143v.007Z" fill="#C8D3FB"/><path d="M275.831 131.653c-1.114 1.368-14.878 17.605-17.373 18.933-2.924 1.559-5.126-2.15-3.616-5.78 1.447-3.486 10.399-16.086 14.814-18.842 4.754-2.966 8.574 2.743 6.175 5.689Z" fill="#FFD2A7"/><path d="M257.005 140.162s1.504 3.854 5.151 7.524l16.727-18.789-4.236-3.854s-2.912-1.374-6.572 1.762c-3.653 3.137-9.156 11.496-11.07 13.357Z" fill="#fff"/><path d="M254.868 150.389c-3.75-3.807-11.966-18.624-14.807-20.077-2.835-1.454-6.719-5.294-6.719-7.813 0-2.565 1.888-2.308 4.044-1.243 1.37.677 2.79 1.618 4.633 4.827 1.849 3.216 13.355 13.962 16.618 18.269 3.238 4.275-1.229 8.609-3.769 6.037Z" fill="#FFD2A7"/><path d="M279.261 94.627c.742 1.145.198 3.73-3.2 5.742s-3.615 5.728-5.074 3.202c-1.459-2.525-1.389-2.847-.8-5.478.589-2.624 7.442-5.984 9.074-3.466Z" fill="#1C0A76"/><path d="M279.177 94.576c-.403 1.315.826 3.637 4.633 4.59 3.808.96 5.03 4.459 5.74 1.618.71-2.848.557-3.13-.723-5.485-1.28-2.354-8.773-3.61-9.656-.723h.006Z" fill="#1C0A76"/><path d="M272.446 115.528s1.126 3.577 1.164 5.373c.039 1.795-1.215 3.314-1.215 3.314s4.747 2.137 9.425 1.092c0 0-1.555-4.893-.864-9.727.691-4.833-8.51-.046-8.51-.046v-.006Z" fill="#FFBC8E"/><path d="M275.761 122.434c.319-2.282-.058-7.142-2.067-7.787 2.732-1.868 7.8-2.854 7.262.934-.691 4.84.864 9.727.864 9.727-2.303.512-4.626.256-6.386-.132.115-.914.199-1.828.327-2.736v-.006Z" fill="#FFD2A7"/><path d="M273.662 99.665s-1.427 2.933-1.984 5.544c-.557 2.604-2.521 5.662-1.037 9.299 1.479 3.643 7.89 2.236 10.219-.815 2.33-3.052 2.074-6.13.826-8.293-1.248-2.164-8.018-5.735-8.018-5.735h-.006Z" fill="#FFD2A7"/><path d="M274.148 111.864c.345-1.263 1.785-10.917 1.785-10.917 2.086 1.237 4.978 3.117 5.746 4.452 1.248 2.164 1.504 5.242-.825 8.293-2.201 2.887-8.063 4.301-9.938 1.355 1.504-.401 2.803-1.631 3.225-3.183h.007Z" fill="#FFBC8E"/><path d="M277.053 95.345c-8.914 2.828-5.106 11.949-5.106 11.949s.128-5.465 2.809-4.577c.845.276 1.913 4.189.665 8.194-1.535 4.939-2.514 9.851.557 10.858 5.829 1.913 4.217 23.089 11.691 25.542 9.47-10.325 6.053-13.508 7.416-19.203 3.596-15.06-1.708-24.004-3.884-27.489-2.176-3.479-8.536-7.063-14.148-5.28v.006Z" fill="#1C0A76"/><path d="M286.766 91.287c-2.719-.23-5.106 1.854-5.33 4.65-.224 2.794 1.805 5.247 4.524 5.478 2.72.23 5.107-1.855 5.331-4.65.223-2.795-1.805-5.248-4.525-5.478Z" fill="#1C0A76"/><path d="M288.769 155.249s-1.171-.013-2.163.447c-.998.46-.588 1.401-.588 1.756s4.306-.717 4.306-.717l-1.555-1.493v.007Z" fill="#FFD2A7"/><defs><linearGradient id="paint0_linear_104_16847" x1="109.095" y1="284.949" x2="263.872" y2="24.101" gradientUnits="userSpaceOnUse"><stop stop-color="#6A5FFF"/><stop offset="1" stop-color="#FF5EA6"/></linearGradient><linearGradient id="paint1_linear_104_16847" x1="324.59" y1="138.887" x2="373.382" y2="138.887" gradientUnits="userSpaceOnUse"><stop stop-color="#FFD000"/><stop offset="1" stop-color="#FF7400"/></linearGradient><linearGradient id="paint2_linear_104_16847" x1="334.189" y1="171.888" x2="284.341" y2="171.888" gradientUnits="userSpaceOnUse"><stop stop-color="#fff"/><stop offset="1" stop-color="#D3DBEB"/></linearGradient><linearGradient id="paint3_linear_104_16847" x1="-4.472" y1="246.635" x2="356.855" y2="96.427" gradientUnits="userSpaceOnUse"><stop stop-color="#fff"/><stop offset="1" stop-color="#D3DBEB"/></linearGradient><linearGradient id="paint4_linear_104_16847" x1="-50.608" y1="135.639" x2="310.712" y2="-14.563" gradientUnits="userSpaceOnUse"><stop stop-color="#fff"/><stop offset="1" stop-color="#D3DBEB"/></linearGradient><linearGradient id="paint5_linear_104_16847" x1="70.388" y1="148.134" x2="258.573" y2="148.134" gradientUnits="userSpaceOnUse"><stop stop-color="#fff"/><stop offset="1" stop-color="#D3DBEB"/></linearGradient><linearGradient id="paint6_linear_104_16847" x1="150.464" y1="120.197" x2="165.169" y2="120.197" gradientUnits="userSpaceOnUse"><stop stop-color="#fff"/><stop offset="1" stop-color="#D3DBEB"/></linearGradient></defs></svg>